<svg width="250" height="184" viewBox="0 0 250 184" fill="none" xmlns="http://www.w3.org/2000/svg">
<g clip-path="url(#clip0_664_42)">
<path d="M5.68972e-05 96.2267L161.741 183.852L249.63 21.6254C160.261 -26.7914 48.5363 6.6374 5.68972e-05 96.2267Z" fill="#E1AC54"/>
<path d="M100.087 41.2V38.9H103.537V55H101.122V41.2H100.087ZM107.909 52.7H109.634V41.2H107.909V52.7ZM110.991 55H106.552C105.908 55 105.494 54.563 105.494 53.942V39.958C105.494 39.337 105.908 38.9 106.552 38.9H110.991C111.635 38.9 112.049 39.337 112.049 39.958V53.942C112.049 54.563 111.635 55 110.991 55ZM116.298 52.7H118.023V41.2H116.298V52.7ZM119.38 55H114.941C114.297 55 113.883 54.563 113.883 53.942V39.958C113.883 39.337 114.297 38.9 114.941 38.9H119.38C120.024 38.9 120.438 39.337 120.438 39.958V53.942C120.438 54.563 120.024 55 119.38 55ZM130.044 41.2L129.262 55H126.065V52.7H126.985L127.767 38.9H133.655V55H131.24V41.2H130.044ZM135.5 55V38.9H141.48V41.2H137.915V45.11H141.365V47.41H137.915V52.7H141.48V55H135.5ZM142.755 41.2V38.9H149.77V41.2H147.47V55H145.055V41.2H142.755ZM52.4145 72.1L54.3925 62.9H57.3365V79H54.9215V72.1L55.3125 67.5H55.1975L53.5185 75.78H51.2645L49.5395 67.5H49.4245L49.8615 72.1V79H47.4465V62.9H50.3905L52.3455 72.1H52.4145ZM61.5969 76.7H64.0119V65.2H61.5969V76.7ZM65.3689 79H60.2399C59.5959 79 59.1819 78.563 59.1819 77.942V63.958C59.1819 63.337 59.5959 62.9 60.2399 62.9H65.3689C66.0129 62.9 66.4269 63.337 66.4269 63.958V77.942C66.4269 78.563 66.0129 79 65.3689 79ZM75.2819 79H69.3249C68.6809 79 68.2669 78.563 68.2669 77.942V63.958C68.2669 63.337 68.6809 62.9 69.3249 62.9H75.2819V67.5H72.8669V65.2H70.6819V76.7H72.8669V73.71H75.2819V79ZM82.236 70.26L84.72 79H82.167L80.051 71.41H79.43V79H77.015V62.9H79.43V69.11H80.12L82.167 62.9H84.72L82.236 70.26ZM88.4027 76.7H90.8177V65.2H88.4027V76.7ZM92.1747 79H87.0457C86.4017 79 85.9877 78.563 85.9877 77.942V63.958C85.9877 63.337 86.4017 62.9 87.0457 62.9H92.1747C92.8187 62.9 93.2327 63.337 93.2327 63.958V77.942C93.2327 78.563 92.8187 79 92.1747 79ZM99.6727 69.11V65.2H97.4877V69.11H99.6727ZM99.6727 71.41H97.4877V76.7H99.6727V71.41ZM102.088 63.958V68.466C102.088 69.386 101.605 70.007 100.892 70.26C101.605 70.513 102.088 71.111 102.088 72.054V77.942C102.088 78.563 101.674 79 101.03 79H95.0727V62.9H101.03C101.674 62.9 102.088 63.337 102.088 63.958ZM110.948 79H104.991C104.347 79 103.933 78.563 103.933 77.942V63.958C103.933 63.337 104.347 62.9 104.991 62.9H110.948V67.5H108.533V65.2H106.348V76.7H108.533V73.71H110.948V79ZM117.902 70.26L120.386 79H117.833L115.717 71.41H115.096V79H112.681V62.9H115.096V69.11H115.786L117.833 62.9H120.386L117.902 70.26ZM124.069 76.7H126.484V65.2H124.069V76.7ZM127.841 79H122.712C122.068 79 121.654 78.563 121.654 77.942V63.958C121.654 63.337 122.068 62.9 122.712 62.9H127.841C128.485 62.9 128.899 63.337 128.899 63.958V77.942C128.899 78.563 128.485 79 127.841 79ZM135.707 72.1L137.685 62.9H140.629V79H138.214V72.1L138.605 67.5H138.49L136.811 75.78H134.557L132.832 67.5H132.717L133.154 72.1V79H130.739V62.9H133.683L135.638 72.1H135.707ZM150.064 62.9L147.442 79H144.176V76.7H145.418L145.901 73.71H144.176L141.899 62.9H144.36L146.154 71.41H146.269L147.672 62.9H150.064ZM162.718 79H156.761C156.117 79 155.703 78.563 155.703 77.942V63.958C155.703 63.337 156.117 62.9 156.761 62.9H162.718V67.5H160.303V65.2H158.118V76.7H160.303V73.71H162.718V79ZM164.451 62.9H171.811V79H169.396V65.2H166.866V79H164.451V62.9ZM176.063 76.7H178.478V65.2H176.063V76.7ZM179.835 79H174.706C174.062 79 173.648 78.563 173.648 77.942V63.958C173.648 63.337 174.062 62.9 174.706 62.9H179.835C180.479 62.9 180.893 63.337 180.893 63.958V77.942C180.893 78.563 180.479 79 179.835 79ZM185.148 65.2V71.41H187.448V65.2H185.148ZM188.805 73.71H185.148V79H182.733V62.9H188.805C189.449 62.9 189.863 63.337 189.863 63.958V72.652C189.863 73.273 189.449 73.71 188.805 73.71ZM191.134 65.2V62.9H198.149V65.2H195.849V79H193.434V65.2H191.134ZM207.123 62.9L204.501 79H201.235V76.7H202.477L202.96 73.71H201.235L198.958 62.9H201.419L203.213 71.41H203.328L204.731 62.9H207.123Z" fill="white"/>
<rect x="78" y="105" width="93" height="27" rx="13.5" fill="#EE2C3C"/>
<path d="M94.632 119.43H96.088L96.354 117.4H94.898L94.632 119.43ZM94.142 123H93.302L93.666 120.256H92.518V119.43H93.792L94.058 117.4H92.854V116.574H94.184L94.548 113.9H95.36L95.01 116.574H96.466L96.83 113.9H97.656L97.306 116.574H98.454V117.4H97.18L96.928 119.43H98.132V120.256H96.802L96.438 123H95.598L95.962 120.256H94.506L94.142 123ZM100.303 113.564H101.507V117.75H101.885L105.119 113.564H106.589L103.019 117.89C104.573 118.1 105.175 119.052 105.665 120.326C106.015 121.292 106.281 122.16 106.701 123H105.385C105.049 122.356 104.783 121.516 104.531 120.774C104.097 119.528 103.495 118.674 101.899 118.674H101.507V123H100.303V113.564ZM111.733 113.41C114.309 113.41 115.975 115.384 115.975 118.184C115.975 121.432 114.001 123.154 111.593 123.154C109.101 123.154 107.351 121.222 107.351 118.366C107.351 115.37 109.213 113.41 111.733 113.41ZM111.677 114.404C109.661 114.404 108.653 116.266 108.653 118.338C108.653 120.354 109.745 122.16 111.663 122.16C113.595 122.16 114.687 120.382 114.687 118.24C114.687 116.364 113.707 114.404 111.677 114.404ZM117.843 113.564H119.061V117.512H123.625V113.564H124.857V123H123.625V118.576H119.061V123H117.843V113.564ZM127.256 113.564H128.474V121.978H132.8V113.564H134.032V122.006L134.858 122.034L134.774 125.268H133.808L133.724 123H127.256V113.564ZM141.555 117.568V118.576H137.887V121.978H141.975V123H136.669V113.564H141.765V114.586H137.887V117.568H141.555ZM143.84 123V113.676C144.428 113.578 145.198 113.494 146.178 113.494C147.382 113.494 148.264 113.774 148.824 114.278C149.342 114.726 149.65 115.412 149.65 116.252C149.65 117.106 149.398 117.778 148.922 118.268C148.278 118.954 147.228 119.304 146.038 119.304C145.674 119.304 145.338 119.29 145.058 119.22V123H143.84ZM145.058 114.558V118.226C145.324 118.296 145.66 118.324 146.066 118.324C147.536 118.324 148.432 117.61 148.432 116.308C148.432 115.062 147.55 114.46 146.206 114.46C145.674 114.46 145.268 114.502 145.058 114.558ZM153.363 123V114.6H150.493V113.564H157.479V114.6H154.595V123H153.363Z" fill="white"/>
</g>
<defs>
<clipPath id="clip0_664_42">
<rect width="250" height="184" fill="white"/>
</clipPath>
</defs>
</svg>
