<svg width="406" height="412" viewBox="0 0 406 412" fill="none" xmlns="http://www.w3.org/2000/svg">
<path d="M272.489 272.588C199.147 349.47 77.3559 352.344 0.470703 278.999L266.078 0.570136C342.963 73.9149 345.831 195.706 272.489 272.588Z" fill="#EE2C3C"/>
<path d="M157.594 130V126H163.594V154H159.394V130H157.594ZM171.197 150H174.197V130H171.197V150ZM176.557 154H168.837C167.717 154 166.997 153.24 166.997 152.16V127.84C166.997 126.76 167.717 126 168.837 126H176.557C177.677 126 178.397 126.76 178.397 127.84V152.16C178.397 153.24 177.677 154 176.557 154ZM185.786 150H188.786V130H185.786V150ZM191.146 154H183.426C182.306 154 181.586 153.24 181.586 152.16V127.84C181.586 126.76 182.306 126 183.426 126H191.146C192.266 126 192.986 126.76 192.986 127.84V152.16C192.986 153.24 192.266 154 191.146 154ZM209.692 130L208.332 154H202.772V150H204.372L205.732 126H215.972V154H211.772V130H209.692ZM219.181 154V126H229.581V130H223.381V136.8H229.381V140.8H223.381V150H229.581V154H219.181ZM231.798 130V126H243.998V130H239.998V154H235.798V130H231.798ZM120.502 184L123.942 168H129.062V196H124.862V184L125.542 176H125.342L122.422 190.4H118.502L115.502 176H115.302L116.062 184V196H111.862V168H116.982L120.382 184H120.502ZM136.472 192H140.672V172H136.472V192ZM143.032 196H134.112C132.992 196 132.272 195.24 132.272 194.16V169.84C132.272 168.76 132.992 168 134.112 168H143.032C144.152 168 144.872 168.76 144.872 169.84V194.16C144.872 195.24 144.152 196 143.032 196ZM160.272 196H149.912C148.792 196 148.072 195.24 148.072 194.16V169.84C148.072 168.76 148.792 168 149.912 168H160.272V176H156.072V172H152.272V192H156.072V186.8H160.272V196ZM172.366 180.8L176.686 196H172.246L168.566 182.8H167.486V196H163.286V168H167.486V178.8H168.686L172.246 168H176.686L172.366 180.8ZM183.091 192H187.291V172H183.091V192ZM189.651 196H180.731C179.611 196 178.891 195.24 178.891 194.16V169.84C178.891 168.76 179.611 168 180.731 168H189.651C190.771 168 191.491 168.76 191.491 169.84V194.16C191.491 195.24 190.771 196 189.651 196ZM202.691 178.8V172H198.891V178.8H202.691ZM202.691 182.8H198.891V192H202.691V182.8ZM206.891 169.84V177.68C206.891 179.28 206.051 180.36 204.811 180.8C206.051 181.24 206.891 182.28 206.891 183.92V194.16C206.891 195.24 206.171 196 205.051 196H194.691V168H205.051C206.171 168 206.891 168.76 206.891 169.84ZM222.3 196H211.94C210.82 196 210.1 195.24 210.1 194.16V169.84C210.1 168.76 210.82 168 211.94 168H222.3V176H218.1V172H214.3V192H218.1V186.8H222.3V196ZM234.394 180.8L238.714 196H234.274L230.594 182.8H229.514V196H225.314V168H229.514V178.8H230.714L234.274 168H238.714L234.394 180.8ZM245.119 192H249.319V172H245.119V192ZM251.679 196H242.759C241.639 196 240.919 195.24 240.919 194.16V169.84C240.919 168.76 241.639 168 242.759 168H251.679C252.799 168 253.519 168.76 253.519 169.84V194.16C253.519 195.24 252.799 196 251.679 196ZM265.359 184L268.799 168H273.919V196H269.719V184L270.399 176H270.199L267.279 190.4H263.359L260.359 176H260.159L260.919 184V196H256.719V168H261.839L265.239 184H265.359ZM290.328 168L285.768 196H280.088V192H282.248L283.088 186.8H280.088L276.128 168H280.408L283.528 182.8H283.728L286.168 168H290.328ZM168.982 238H158.622C157.502 238 156.782 237.24 156.782 236.16V211.84C156.782 210.76 157.502 210 158.622 210H168.982V218H164.782V214H160.982V234H164.782V228.8H168.982V238ZM171.996 210H184.796V238H180.596V214H176.196V238H171.996V210ZM192.191 234H196.391V214H192.191V234ZM198.751 238H189.831C188.711 238 187.991 237.24 187.991 236.16V211.84C187.991 210.76 188.711 210 189.831 210H198.751C199.871 210 200.591 210.76 200.591 211.84V236.16C200.591 237.24 199.871 238 198.751 238ZM207.991 214V224.8H211.991V214H207.991ZM214.351 228.8H207.991V238H203.791V210H214.351C215.471 210 216.191 210.76 216.191 211.84V226.96C216.191 228.04 215.471 228.8 214.351 228.8ZM218.401 214V210H230.601V214H226.601V238H222.401V214H218.401ZM246.209 210L241.649 238H235.969V234H238.129L238.969 228.8H235.969L232.009 210H236.289L239.409 224.8H239.609L242.049 210H246.209Z" fill="white"/>
<rect x="128.472" y="248" width="124" height="41" rx="20.5" fill="#3B3393"/>
<path d="M147.232 268.9L147.612 266H149.692L149.312 268.9H147.232ZM146.532 274L147.052 270.08H149.132L148.612 274H149.812L150.332 270.08H152.232V268.9H150.512L150.872 266H152.692V264.82H151.052L151.552 261H150.372L149.852 264.82H147.772L148.272 261H147.112L146.592 264.82H144.692V266H146.412L146.032 268.9H144.212V270.08H145.852L145.332 274H146.532ZM155.333 260.52V274H157.053V267.82H157.613C159.893 267.82 160.753 269.04 161.373 270.82C161.733 271.88 162.113 273.08 162.593 274H164.473C163.873 272.8 163.493 271.56 162.993 270.18C162.293 268.36 161.433 267 159.213 266.7L164.313 260.52H162.213L157.593 266.5H157.053V260.52H155.333ZM171.662 260.3C168.062 260.3 165.402 263.1 165.402 267.38C165.402 271.46 167.902 274.22 171.462 274.22C174.902 274.22 177.722 271.76 177.722 267.12C177.722 263.12 175.342 260.3 171.662 260.3ZM171.582 261.72C174.482 261.72 175.882 264.52 175.882 267.2C175.882 270.26 174.322 272.8 171.562 272.8C168.822 272.8 167.262 270.22 167.262 267.34C167.262 264.38 168.702 261.72 171.582 261.72ZM180.391 260.52V274H182.131V267.68H188.651V274H190.411V260.52H188.651V266.16H182.131V260.52H180.391ZM193.838 260.52V274H203.078L203.198 277.24H204.578L204.698 272.62L203.518 272.58V260.52H201.758V272.54H195.578V260.52H193.838ZM214.265 266.24H209.025V261.98H214.565V260.52H207.285V274H214.865V272.54H209.025V267.68H214.265V266.24ZM217.528 274H219.268V268.6C219.668 268.7 220.148 268.72 220.668 268.72C222.368 268.72 223.868 268.22 224.788 267.24C225.468 266.54 225.828 265.58 225.828 264.36C225.828 263.16 225.388 262.18 224.648 261.54C223.848 260.82 222.588 260.42 220.868 260.42C219.468 260.42 218.368 260.54 217.528 260.68V274ZM219.268 261.94C219.568 261.86 220.148 261.8 220.908 261.8C222.828 261.8 224.088 262.66 224.088 264.44C224.088 266.3 222.808 267.32 220.708 267.32C220.128 267.32 219.648 267.28 219.268 267.18V261.94ZM231.133 274H232.893V262H237.013V260.52H227.033V262H231.133V274Z" fill="white"/>
</svg>
