<svg width="319" height="319" viewBox="0 0 319 319" fill="none" xmlns="http://www.w3.org/2000/svg">
<g clip-path="url(#clip0_655_26)">
<path d="M33.6955 61.3368C-20.1497 130.558 -7.68474 230.324 61.5368 284.169C130.758 338.014 230.524 325.549 284.369 256.328C338.214 187.106 325.749 87.3408 256.528 33.4956C187.306 -20.3496 87.5407 -7.88469 33.6955 61.3368Z" fill="#EE2C3C"/>
<path d="M103.018 122.4V118.8H108.418V144H104.638V122.4H103.018ZM115.261 140.4H117.961V122.4H115.261V140.4ZM120.085 144H113.137C112.129 144 111.481 143.316 111.481 142.344V120.456C111.481 119.484 112.129 118.8 113.137 118.8H120.085C121.093 118.8 121.741 119.484 121.741 120.456V142.344C121.741 143.316 121.093 144 120.085 144ZM128.391 140.4H131.091V122.4H128.391V140.4ZM133.215 144H126.267C125.259 144 124.611 143.316 124.611 142.344V120.456C124.611 119.484 125.259 118.8 126.267 118.8H133.215C134.223 118.8 134.871 119.484 134.871 120.456V142.344C134.871 143.316 134.223 144 133.215 144ZM151.778 128.52V122.4H148.358V128.52H151.778ZM151.778 132.12H148.358V140.4H151.778V132.12ZM155.558 120.456V127.512C155.558 128.952 154.802 129.924 153.686 130.32C154.802 130.716 155.558 131.652 155.558 133.128V142.344C155.558 143.316 154.91 144 153.902 144H144.578V118.8H153.902C154.91 118.8 155.558 119.484 155.558 120.456ZM170.146 144H166.366V129.888L162.226 138.564V144H158.446V118.8H162.226V131.616L166.366 122.94V118.8H170.146V144ZM177.374 140.4H180.218V122.4H178.598L177.374 140.4ZM175.034 118.8H183.998V140.4H185.258V147.312H181.478V144H175.898V147.312H172.118V140.4H173.558L175.034 118.8ZM191.194 140.4H194.974V122.4H191.194V140.4ZM197.098 144H189.07C188.062 144 187.414 143.316 187.414 142.344V120.456C187.414 119.484 188.062 118.8 189.07 118.8H197.098C198.106 118.8 198.754 119.484 198.754 120.456V142.344C198.754 143.316 198.106 144 197.098 144ZM208.834 128.52V122.4H205.414V128.52H208.834ZM208.834 132.12H205.414V140.4H208.834V132.12ZM212.614 120.456V127.512C212.614 128.952 211.858 129.924 210.742 130.32C211.858 130.716 212.614 131.652 212.614 133.128V142.344C212.614 143.316 211.966 144 210.958 144H201.634V118.8H210.958C211.966 118.8 212.614 119.484 212.614 120.456ZM129.096 182H119.772C118.764 182 118.116 181.316 118.116 180.344V158.456C118.116 157.484 118.764 156.8 119.772 156.8H129.096V164H125.316V160.4H121.896V178.4H125.316V173.72H129.096V182ZM131.809 156.8H143.329V182H139.549V160.4H135.589V182H131.809V156.8ZM149.984 178.4H153.764V160.4H149.984V178.4ZM155.888 182H147.86C146.852 182 146.204 181.316 146.204 180.344V158.456C146.204 157.484 146.852 156.8 147.86 156.8H155.888C156.896 156.8 157.544 157.484 157.544 158.456V180.344C157.544 181.316 156.896 182 155.888 182ZM164.204 160.4V170.12H167.804V160.4H164.204ZM169.928 173.72H164.204V182H160.424V156.8H169.928C170.936 156.8 171.584 157.484 171.584 158.456V172.064C171.584 173.036 170.936 173.72 169.928 173.72ZM173.573 160.4V156.8H184.553V160.4H180.953V182H177.173V160.4H173.573ZM186.72 156.8H197.88V182H194.1V173.72H190.5V182H186.72V156.8ZM194.1 170.12V160.4H190.5V170.12H194.1Z" fill="white"/>
<rect x="56" y="200" width="203" height="27" rx="13.5" fill="#3B3393"/>
<path d="M74.4857 214.43H75.9417L76.2077 212.4H74.7517L74.4857 214.43ZM73.9957 218H73.1557L73.5197 215.256H72.3717V214.43H73.6457L73.9117 212.4H72.7077V211.574H74.0377L74.4017 208.9H75.2137L74.8637 211.574H76.3197L76.6837 208.9H77.5097L77.1597 211.574H78.3077V212.4H77.0337L76.7817 214.43H77.9857V215.256H76.6557L76.2917 218H75.4517L75.8157 215.256H74.3597L73.9957 218ZM86.4987 216.726L86.7507 217.692C86.3027 217.916 85.4067 218.14 84.2587 218.14C81.5987 218.14 79.5967 216.46 79.5967 213.366C79.5967 210.412 81.5987 208.41 84.5247 208.41C85.7007 208.41 86.4427 208.662 86.7647 208.83L86.4707 209.824C86.0087 209.6 85.3507 209.432 84.5667 209.432C82.3547 209.432 80.8847 210.846 80.8847 213.324C80.8847 215.634 82.2147 217.118 84.5107 217.118C85.2527 217.118 86.0087 216.964 86.4987 216.726ZM88.5577 208.564H95.3757V218H94.1577V209.586H89.7757V218H88.5577V208.564ZM101.601 208.41C104.177 208.41 105.843 210.384 105.843 213.184C105.843 216.432 103.869 218.154 101.461 218.154C98.9692 218.154 97.2192 216.222 97.2192 213.366C97.2192 210.37 99.0812 208.41 101.601 208.41ZM101.545 209.404C99.5292 209.404 98.5212 211.266 98.5212 213.338C98.5212 215.354 99.6132 217.16 101.531 217.16C103.463 217.16 104.555 215.382 104.555 213.24C104.555 211.364 103.575 209.404 101.545 209.404ZM107.711 218V208.676C108.299 208.578 109.069 208.494 110.049 208.494C111.253 208.494 112.135 208.774 112.695 209.278C113.213 209.726 113.521 210.412 113.521 211.252C113.521 212.106 113.269 212.778 112.793 213.268C112.149 213.954 111.099 214.304 109.909 214.304C109.545 214.304 109.209 214.29 108.929 214.22V218H107.711ZM108.929 209.558V213.226C109.195 213.296 109.531 213.324 109.937 213.324C111.407 213.324 112.303 212.61 112.303 211.308C112.303 210.062 111.421 209.46 110.077 209.46C109.545 209.46 109.139 209.502 108.929 209.558ZM117.235 218V209.6H114.365V208.564H121.351V209.6H118.467V218H117.235ZM122.682 208.564H123.83V212.54C123.83 214.038 123.802 215.27 123.718 216.53L123.746 216.544C124.222 215.564 124.81 214.542 125.496 213.422L128.548 208.564H129.766V218H128.618V213.982C128.618 212.456 128.632 211.336 128.73 210.146L128.688 210.132C128.226 211.168 127.582 212.26 126.938 213.31L123.984 218H122.682V208.564ZM132.176 217.972V208.69C132.708 208.578 133.548 208.494 134.402 208.494C135.62 208.494 136.404 208.704 136.992 209.18C137.482 209.544 137.776 210.104 137.776 210.846C137.776 211.756 137.174 212.554 136.18 212.918V212.946C137.076 213.17 138.126 213.912 138.126 215.312C138.126 216.124 137.804 216.74 137.328 217.202C136.67 217.804 135.606 218.084 134.066 218.084C133.226 218.084 132.582 218.028 132.176 217.972ZM133.394 209.516V212.554H134.5C135.788 212.554 136.544 211.882 136.544 210.972C136.544 209.866 135.704 209.432 134.472 209.432C133.912 209.432 133.59 209.474 133.394 209.516ZM133.394 213.478V217.076C133.632 217.118 133.982 217.132 134.416 217.132C135.676 217.132 136.838 216.67 136.838 215.298C136.838 214.01 135.732 213.478 134.402 213.478H133.394ZM140.044 208.564H141.262V212.512H145.826V208.564H147.058V218H145.826V213.576H141.262V218H140.044V208.564ZM149.457 208.564H150.675V212.092C150.955 212.05 151.487 212.022 151.795 212.022C153.741 212.022 155.435 212.876 155.435 214.976C155.435 215.844 155.155 216.488 154.707 216.978C153.937 217.79 152.621 218.084 151.347 218.084C150.507 218.084 149.863 218.028 149.457 217.972V208.564ZM150.675 213.058V217.062C150.927 217.118 151.235 217.132 151.655 217.132C152.999 217.132 154.161 216.446 154.161 215.018C154.161 213.548 152.901 212.988 151.641 212.988C151.193 212.988 150.829 213.03 150.675 213.058ZM156.485 208.564H157.717V218H156.485V208.564ZM165.069 212.568V213.576H161.401V216.978H165.489V218H160.183V208.564H165.279V209.586H161.401V212.568H165.069ZM170.6 208.564H177.418V218H176.2V209.586H171.818V218H170.6V208.564ZM180.52 208.564H186.064V218H184.832V209.586H181.71V212.442C181.71 214.486 181.626 216.768 180.296 217.664C179.946 217.888 179.4 218.112 178.854 218.112L178.7 217.132C179.078 217.062 179.47 216.838 179.694 216.628C180.45 215.886 180.52 214.052 180.52 212.54V208.564ZM192.277 208.41C194.853 208.41 196.519 210.384 196.519 213.184C196.519 216.432 194.545 218.154 192.137 218.154C189.645 218.154 187.895 216.222 187.895 213.366C187.895 210.37 189.757 208.41 192.277 208.41ZM192.221 209.404C190.205 209.404 189.197 211.266 189.197 213.338C189.197 215.354 190.289 217.16 192.207 217.16C194.139 217.16 195.231 215.382 195.231 213.24C195.231 211.364 194.251 209.404 192.221 209.404ZM198.387 208.564H199.591V216.978H202.657V208.564H203.861V216.978H206.913V208.564H208.131V217.006L208.957 217.034L208.873 220.268H207.907L207.837 218H198.387V208.564ZM215.68 215.032H212.334L211.354 218H210.094L213.3 208.564H214.77L217.99 218H216.688L215.68 215.032ZM212.586 214.08H215.428L214.504 211.364C214.294 210.748 214.154 210.188 214.014 209.642H213.986C213.846 210.202 213.692 210.776 213.51 211.35L212.586 214.08ZM221.205 208.564H226.483V217.006L227.309 217.034L227.225 220.268H226.273L226.189 218H220.239L220.155 220.268H219.203L219.119 217.034L219.833 217.006C220.183 216.362 220.533 215.676 220.757 214.934C221.079 213.842 221.205 212.582 221.205 210.958V208.564ZM222.339 209.572V211.35C222.339 212.862 222.199 214.136 221.863 215.2C221.667 215.858 221.373 216.488 221.093 216.992H225.265V209.572H222.339ZM229.128 208.564H230.332V212.75H230.71L233.944 208.564H235.414L231.844 212.89C233.398 213.1 234 214.052 234.49 215.326C234.84 216.292 235.106 217.16 235.526 218H234.21C233.874 217.356 233.608 216.516 233.356 215.774C232.922 214.528 232.32 213.674 230.724 213.674H230.332V218H229.128V208.564ZM236.995 208.564H238.143V212.54C238.143 214.038 238.115 215.27 238.031 216.53L238.059 216.544C238.535 215.564 239.123 214.542 239.809 213.422L242.861 208.564H244.079V218H242.931V213.982C242.931 212.456 242.945 211.336 243.043 210.146L243.001 210.132C242.539 211.168 241.895 212.26 241.251 213.31L238.297 218H236.995V208.564Z" fill="white"/>
</g>
<defs>
<clipPath id="clip0_655_26">
<rect width="319" height="319" fill="white"/>
</clipPath>
</defs>
</svg>
