<svg width="235" height="193" viewBox="0 0 235 193" fill="none" xmlns="http://www.w3.org/2000/svg">
<g clip-path="url(#clip0_664_38)">
<path d="M234.524 49.7029L49.6782 0.173584L0.000159101 185.575C102.135 212.942 207.09 152.09 234.524 49.7029Z" fill="#3B3393"/>
<path d="M65.5173 51.2V57.41H67.8173V51.2H65.5173ZM69.1743 59.71H65.5173V65H63.1023V48.9H69.1743C69.8183 48.9 70.2323 49.337 70.2323 49.958V58.652C70.2323 59.273 69.8183 59.71 69.1743 59.71ZM71.9627 65V48.9H77.9427V51.2H74.3777V55.11H77.8277V57.41H74.3777V62.7H77.9427V65H71.9627ZM79.2176 51.2V48.9H86.2326V51.2H83.9326V65H81.5176V51.2H79.2176ZM90.0321 51.2V57.41H92.3321V51.2H90.0321ZM93.6891 59.71H90.0321V65H87.6171V48.9H93.6891C94.3331 48.9 94.7471 49.337 94.7471 49.958V58.652C94.7471 59.273 94.3331 59.71 93.6891 59.71ZM98.8925 62.7H101.307V51.2H98.8925V62.7ZM102.664 65H97.5355C96.8915 65 96.4775 64.563 96.4775 63.942V49.958C96.4775 49.337 96.8915 48.9 97.5355 48.9H102.664C103.308 48.9 103.722 49.337 103.722 49.958V63.942C103.722 64.563 103.308 65 102.664 65ZM112.577 65H106.62C105.976 65 105.562 64.563 105.562 63.942V49.958C105.562 49.337 105.976 48.9 106.62 48.9H112.577V53.5H110.162V51.2H107.977V62.7H110.162V59.71H112.577V65ZM114.311 48.9H121.671V65H119.256V51.2H116.726V65H114.311V48.9ZM123.508 65V48.9H129.488V51.2H125.923V55.11H129.373V57.41H125.923V62.7H129.488V65H123.508ZM136.444 56.26L138.928 65H136.375L134.259 57.41H133.638V65H131.223V48.9H133.638V55.11H134.328L136.375 48.9H138.928L136.444 56.26ZM139.735 51.2V48.9H146.75V51.2H144.45V65H142.035V51.2H139.735ZM155.61 65H153.195V55.984L150.55 61.527V65H148.135V48.9H150.55V57.088L153.195 51.545V48.9H155.61V65ZM162.045 55.11V51.2H159.86V55.11H162.045ZM162.045 57.41H159.86V62.7H162.045V57.41ZM164.46 49.958V54.466C164.46 55.386 163.977 56.007 163.264 56.26C163.977 56.513 164.46 57.111 164.46 58.054V63.942C164.46 64.563 164.046 65 163.402 65H157.445V48.9H163.402C164.046 48.9 164.46 49.337 164.46 49.958ZM166.305 48.9H173.435V65H171.02V59.71H168.72V65H166.305V48.9ZM171.02 57.41V51.2H168.72V57.41H171.02ZM46.0483 82.1L48.0263 72.9H50.9703V89H48.5553V82.1L48.9463 77.5H48.8313L47.1523 85.78H44.8983L43.1733 77.5H43.0583L43.4953 82.1V89H41.0803V72.9H44.0243L45.9793 82.1H46.0483ZM55.2307 86.7H57.6457V75.2H55.2307V86.7ZM59.0027 89H53.8737C53.2297 89 52.8157 88.563 52.8157 87.942V73.958C52.8157 73.337 53.2297 72.9 53.8737 72.9H59.0027C59.6467 72.9 60.0607 73.337 60.0607 73.958V87.942C60.0607 88.563 59.6467 89 59.0027 89ZM68.9157 89H62.9587C62.3147 89 61.9007 88.563 61.9007 87.942V73.958C61.9007 73.337 62.3147 72.9 62.9587 72.9H68.9157V77.5H66.5007V75.2H64.3157V86.7H66.5007V83.71H68.9157V89ZM75.8698 80.26L78.3538 89H75.8008L73.6848 81.41H73.0638V89H70.6488V72.9H73.0638V79.11H73.7538L75.8008 72.9H78.3538L75.8698 80.26ZM82.0365 86.7H84.4515V75.2H82.0365V86.7ZM85.8085 89H80.6795C80.0355 89 79.6215 88.563 79.6215 87.942V73.958C79.6215 73.337 80.0355 72.9 80.6795 72.9H85.8085C86.4525 72.9 86.8665 73.337 86.8665 73.958V87.942C86.8665 88.563 86.4525 89 85.8085 89ZM93.3065 79.11V75.2H91.1215V79.11H93.3065ZM93.3065 81.41H91.1215V86.7H93.3065V81.41ZM95.7215 73.958V78.466C95.7215 79.386 95.2385 80.007 94.5255 80.26C95.2385 80.513 95.7215 81.111 95.7215 82.054V87.942C95.7215 88.563 95.3075 89 94.6635 89H88.7065V72.9H94.6635C95.3075 72.9 95.7215 73.337 95.7215 73.958ZM104.582 89H98.6248C97.9808 89 97.5668 88.563 97.5668 87.942V73.958C97.5668 73.337 97.9808 72.9 98.6248 72.9H104.582V77.5H102.167V75.2H99.9818V86.7H102.167V83.71H104.582V89ZM111.536 80.26L114.02 89H111.467L109.351 81.41H108.73V89H106.315V72.9H108.73V79.11H109.42L111.467 72.9H114.02L111.536 80.26ZM117.703 86.7H120.118V75.2H117.703V86.7ZM121.475 89H116.346C115.702 89 115.288 88.563 115.288 87.942V73.958C115.288 73.337 115.702 72.9 116.346 72.9H121.475C122.119 72.9 122.533 73.337 122.533 73.958V87.942C122.533 88.563 122.119 89 121.475 89ZM124.373 72.9H130.123V75.2H126.788V89H124.373V72.9ZM133.919 86.7H136.334V75.2H133.919V86.7ZM137.691 89H132.562C131.918 89 131.504 88.563 131.504 87.942V73.958C131.504 73.337 131.918 72.9 132.562 72.9H137.691C138.335 72.9 138.749 73.337 138.749 73.958V87.942C138.749 88.563 138.335 89 137.691 89ZM151.972 89H146.015C145.371 89 144.957 88.563 144.957 87.942V73.958C144.957 73.337 145.371 72.9 146.015 72.9H151.972V77.5H149.557V75.2H147.372V86.7H149.557V83.71H151.972V89ZM153.705 72.9H161.065V89H158.65V75.2H156.12V89H153.705V72.9ZM165.317 86.7H167.732V75.2H165.317V86.7ZM169.089 89H163.96C163.316 89 162.902 88.563 162.902 87.942V73.958C162.902 73.337 163.316 72.9 163.96 72.9H169.089C169.733 72.9 170.147 73.337 170.147 73.958V87.942C170.147 88.563 169.733 89 169.089 89ZM174.402 75.2V81.41H176.702V75.2H174.402ZM178.059 83.71H174.402V89H171.987V72.9H178.059C178.703 72.9 179.117 73.337 179.117 73.958V82.652C179.117 83.273 178.703 83.71 178.059 83.71ZM180.388 75.2V72.9H187.403V75.2H185.103V89H182.688V75.2H180.388ZM188.787 72.9H195.917V89H193.502V83.71H191.202V89H188.787V72.9ZM193.502 81.41V75.2H191.202V81.41H193.502Z" fill="white"/>
<rect x="58" y="110" width="123" height="27" rx="13.5" fill="#EE2C3C"/>
<path d="M74.632 124.43H76.088L76.354 122.4H74.898L74.632 124.43ZM74.142 128H73.302L73.666 125.256H72.518V124.43H73.792L74.058 122.4H72.854V121.574H74.184L74.548 118.9H75.36L75.01 121.574H76.466L76.83 118.9H77.656L77.306 121.574H78.454V122.4H77.18L76.928 124.43H78.132V125.256H76.802L76.438 128H75.598L75.962 125.256H74.506L74.142 128ZM85.175 125.032H81.829L80.849 128H79.589L82.795 118.564H84.265L87.485 128H86.183L85.175 125.032ZM82.081 124.08H84.923L83.999 121.364C83.789 120.748 83.649 120.188 83.509 119.642H83.481C83.341 120.202 83.187 120.776 83.005 121.35L82.081 124.08ZM89.1552 128V118.676C89.7432 118.578 90.5132 118.494 91.4932 118.494C92.6972 118.494 93.5792 118.774 94.1392 119.278C94.6572 119.726 94.9652 120.412 94.9652 121.252C94.9652 122.106 94.7132 122.778 94.2372 123.268C93.5932 123.954 92.5432 124.304 91.3532 124.304C90.9892 124.304 90.6532 124.29 90.3732 124.22V128H89.1552ZM90.3732 119.558V123.226C90.6392 123.296 90.9752 123.324 91.3812 123.324C92.8512 123.324 93.7472 122.61 93.7472 121.308C93.7472 120.062 92.8652 119.46 91.5212 119.46C90.9892 119.46 90.5832 119.502 90.3732 119.558ZM98.6784 128V119.6H95.8084V118.564H102.794V119.6H99.9104V128H98.6784ZM102.456 123.758H105.914V124.668H102.456V123.758ZM111.495 118.41C114.071 118.41 115.737 120.384 115.737 123.184C115.737 126.432 113.763 128.154 111.355 128.154C108.863 128.154 107.113 126.222 107.113 123.366C107.113 120.37 108.975 118.41 111.495 118.41ZM111.439 119.404C109.423 119.404 108.415 121.266 108.415 123.338C108.415 125.354 109.507 127.16 111.425 127.16C113.357 127.16 114.449 125.382 114.449 123.24C114.449 121.364 113.469 119.404 111.439 119.404ZM117.605 118.564H122.897V119.586H118.823V122.12C119.117 122.078 119.677 122.05 119.985 122.05C120.881 122.05 121.763 122.246 122.421 122.68C123.135 123.142 123.625 123.884 123.625 124.99C123.625 125.872 123.331 126.544 122.841 127.034C122.071 127.79 120.797 128.084 119.509 128.084C118.655 128.084 118.011 128.028 117.605 127.972V118.564ZM118.823 123.058V127.062C119.103 127.118 119.425 127.132 119.845 127.132C120.601 127.132 121.371 126.894 121.833 126.404C122.155 126.068 122.351 125.606 122.351 125.018C122.351 124.29 122.043 123.8 121.581 123.478C121.091 123.142 120.461 123.002 119.789 123.002C119.509 123.002 119.131 123.03 118.823 123.058ZM123.848 118.564H127.488V122.092C127.768 122.05 128.258 122.022 128.622 122.022C130.442 122.022 132.164 122.904 132.164 124.962C132.164 125.844 131.884 126.502 131.436 126.978C130.652 127.804 129.406 128.084 128.146 128.084C127.32 128.084 126.676 128.028 126.27 127.972V119.572H123.848V118.564ZM127.488 123.058V127.062C127.754 127.118 128.062 127.132 128.454 127.132C129.812 127.132 130.876 126.446 130.876 125.018C130.876 123.548 129.7 122.988 128.468 122.988C128.146 122.988 127.782 123.016 127.488 123.058ZM138.897 122.568V123.576H135.229V126.978H139.317V128H134.011V118.564H139.107V119.586H135.229V122.568H138.897ZM141.182 118.564H142.386V122.75H142.764L145.998 118.564H147.468L143.898 122.89C145.452 123.1 146.054 124.052 146.544 125.326C146.894 126.292 147.16 127.16 147.58 128H146.264C145.928 127.356 145.662 126.516 145.41 125.774C144.976 124.528 144.374 123.674 142.778 123.674H142.386V128H141.182V118.564ZM151.252 128V119.6H148.382V118.564H155.368V119.6H152.484V128H151.252ZM156.699 118.564H157.917V122.092C158.197 122.05 158.729 122.022 159.037 122.022C160.983 122.022 162.677 122.876 162.677 124.976C162.677 125.844 162.397 126.488 161.949 126.978C161.179 127.79 159.863 128.084 158.589 128.084C157.749 128.084 157.105 128.028 156.699 127.972V118.564ZM157.917 123.058V127.062C158.169 127.118 158.477 127.132 158.897 127.132C160.241 127.132 161.403 126.446 161.403 125.018C161.403 123.548 160.143 122.988 158.883 122.988C158.435 122.988 158.071 123.03 157.917 123.058ZM163.727 118.564H164.959V128H163.727V118.564Z" fill="white"/>
</g>
<defs>
<clipPath id="clip0_664_38">
<rect width="235" height="193" fill="white"/>
</clipPath>
</defs>
</svg>
