<svg width="548" height="495" viewBox="0 0 548 495" fill="none" xmlns="http://www.w3.org/2000/svg">
<path fill-rule="evenodd" clip-rule="evenodd" d="M374.481 109.78C402.131 136.024 422.775 170.302 431.784 210.218C444.073 264.668 432.895 319.036 404.61 362.421C306.056 335.615 225.105 256.219 200.739 149.208L374.481 109.78ZM374.481 109.78L478.467 86.3112L541.688 365.473C494.812 376.052 447.964 374.364 404.451 362.672C377.322 404.505 334.339 436.149 281.937 447.976C174.88 472.138 68.5459 405.139 44.3837 298.083C20.0168 191.072 87.2201 84.6915 194.277 60.5293C261.167 45.2175 327.994 65.8457 374.481 109.78Z" fill="#EE2C3C"/>
<path fill-rule="evenodd" clip-rule="evenodd" d="M184.28 244.996C235.158 343.656 335.794 408.284 446.453 413.426L444.975 406.876C337.842 401.153 240.514 338.791 190.579 243.359L184.28 244.996Z" fill="#282828"/>
<path d="M374.479 109.78C402.13 136.023 422.774 170.301 431.783 210.217C444.072 264.667 432.894 319.035 404.609 362.42C447.963 374.363 495.015 376.005 541.845 365.221L478.624 86.0596L374.479 109.78Z" fill="#E1AC54"/>
</svg>
