<svg width="1518" height="834" viewBox="0 0 1518 834" fill="none" xmlns="http://www.w3.org/2000/svg">
    <g class="figure figure_24" id="figure 24">
        <rect id="Rectangle 394" x="705.843" y="445.485" width="23.4087" height="21.184" transform="rotate(-17.0439 705.843 445.485)" fill="#EBEBEB" stroke="#EB3333" stroke-width="4.22407" />
        <path
            id="24"
            d="M719.574 448.186V451.025L716.533 457.023V457.547H719.574V459.236H714.759V456.786L717.8 450.788V449.099H716.533V450.788H714.759V448.186C714.759 447.73 715.063 447.409 715.536 447.409H718.797C719.27 447.409 719.574 447.73 719.574 448.186ZM725.403 459.236H723.628V457.04H720.672V455.519L723.003 447.409H724.862L722.581 455.35H723.628V453.83L725.403 453.492V455.35H726.078V457.04H725.403V459.236Z"
            fill="#EB3333"
        />
    </g>
    <g class="figure figure_23" id="figure 23">
        <rect id="Rectangle 401" x="576.218" y="249.491" width="29.7922" height="20.1078" transform="rotate(-15.2101 576.218 249.491)" fill="#EBEBEB" stroke="#EB3333" stroke-width="4.22407" />
        <path
            id="23"
            d="M592.468 249.93V252.768L589.427 258.767V259.29H592.468V260.98H587.652V258.53L590.694 252.532V250.842H589.427V252.532H587.652V249.93C587.652 249.474 587.957 249.153 588.43 249.153H591.691C592.164 249.153 592.468 249.474 592.468 249.93ZM597.773 260.98H594.512C594.039 260.98 593.734 260.659 593.734 260.203V257.094H595.509V259.29H596.776V255.1H595.002V253.529L596.607 250.842H593.819V249.153H598.465V250.673L596.843 253.41H597.773C598.246 253.41 598.55 253.731 598.55 254.188V260.203C598.55 260.659 598.246 260.98 597.773 260.98Z"
            fill="#EB3333"
        />
    </g>
    <g class="figure figure_22" id="figure 22-2">
        <rect id="Rectangle 402" x="634.027" y="141.346" width="42.2407" height="93.0887" fill="#EBEBEB" stroke="#EB3333" stroke-width="4.22407" />
        <path
            id="22"
            d="M654.98 181.764V184.603L651.938 190.601V191.125H654.98V192.815H650.164V190.365L653.206 184.366V182.677H651.938V184.366H650.164V181.764C650.164 181.308 650.468 180.987 650.942 180.987H654.203C654.676 180.987 654.98 181.308 654.98 181.764ZM660.977 181.764V184.603L657.936 190.601V191.125H660.977V192.815H656.162V190.365L659.203 184.366V182.677H657.936V184.366H656.162V181.764C656.162 181.308 656.466 180.987 656.939 180.987H660.2C660.673 180.987 660.977 181.308 660.977 181.764Z"
            fill="#EB3333"
        />
    </g>
    <g class="figure figure_22" id="figure 22">
        <rect id="Rectangle 386" x="633.589" y="249.64" width="25.3105" height="18.2784" fill="#EBEBEB" stroke="#EB3333" stroke-width="4.22407" />
        <path
            id="22_2"
            d="M645.249 254.103V256.942L642.207 262.94V263.464H645.249V265.153H640.433V262.703L643.474 256.705V255.016H642.207V256.705H640.433V254.103C640.433 253.647 640.737 253.326 641.21 253.326H644.471C644.944 253.326 645.249 253.647 645.249 254.103ZM651.246 254.103V256.942L648.205 262.94V263.464H651.246V265.153H646.431V262.703L649.472 256.705V255.016H648.205V256.705H646.431V254.103C646.431 253.647 646.735 253.326 647.208 253.326H650.469C650.942 253.326 651.246 253.647 651.246 254.103Z"
            fill="#EB3333"
        />
    </g>
    <g class="figure figure_21" id="figure 21">
        <rect id="Rectangle 385" x="534.612" y="281.844" width="21.1203" height="21.9652" transform="rotate(-48.4686 534.612 281.844)" fill="#EBEBEB" stroke="#EB3333" stroke-width="4.22407" />
        <path
            id="21"
            d="M550.71 276.606V279.444L547.668 285.442V285.966H550.71V287.656H545.894V285.206L548.936 279.208V277.518H547.668V279.208H545.894V276.606C545.894 276.15 546.198 275.828 546.671 275.828H549.932C550.406 275.828 550.71 276.15 550.71 276.606ZM551.807 277.518V275.828H554.342V287.656H552.568V277.518H551.807Z"
            fill="#EB3333"
        />
    </g>
    <g class="figure figure_20" id="figure 20">
        <rect id="Rectangle 386_2" x="686.124" y="272.414" width="20.5776" height="21.4051" transform="rotate(7.97015 686.124 272.414)" fill="#EBEBEB" stroke="#EB3333" stroke-width="4.22407" />
        <path
            id="20"
            d="M694.388 279.813V282.652L691.346 288.65V289.174H694.388V290.863H689.572V288.413L692.614 282.415V280.726H691.346V282.415H689.572V279.813C689.572 279.357 689.876 279.036 690.35 279.036H693.61C694.084 279.036 694.388 279.357 694.388 279.813ZM697.428 289.174H698.696V280.726H697.428V289.174ZM699.692 290.863H696.432C695.958 290.863 695.654 290.542 695.654 290.086V279.813C695.654 279.357 695.958 279.036 696.432 279.036H699.692C700.166 279.036 700.47 279.357 700.47 279.813V290.086C700.47 290.542 700.166 290.863 699.692 290.863Z"
            fill="#EB3333"
        />
    </g>
    <g class="figure figure_19" id="figure 19">
        <path id="Rectangle 403" d="M585.848 133.103L589.101 112.245L703.559 93.7394L713.999 112.491L585.848 133.103Z" fill="#EBEBEB" stroke="#EB3333" stroke-width="4.22407" />
        <path
            id="19"
            d="M644.137 109.18V107.49H646.672V119.317H644.898V109.18H644.137ZM649.883 112.559H651.15V109.18H649.883V112.559ZM648.109 113.471V108.267C648.109 107.811 648.413 107.49 648.886 107.49H652.147C652.62 107.49 652.925 107.811 652.925 108.267V118.54C652.925 118.996 652.62 119.317 652.147 119.317H648.886C648.413 119.317 648.109 118.996 648.109 118.54V115.431H649.883V117.628H651.15V114.249H648.886C648.413 114.249 648.109 113.927 648.109 113.471Z"
            fill="#EB3333"
        />
    </g>
    <g class="figure figure_18" id="figure 18_18.1">
        <rect id="Rectangle 399" x="860.445" y="323.986" width="116.584" height="53.2233" fill="#EBEBEB" stroke="#EB3333" stroke-width="4.22407" />
        <path
            id="18"
            d="M914.689 337.993V336.303H917.223V348.131H915.449V337.993H914.689ZM923.476 343.028V347.354C923.476 347.81 923.172 348.131 922.699 348.131H919.438C918.965 348.131 918.661 347.81 918.661 347.354V343.028C918.661 342.335 918.982 341.896 919.506 341.71C918.982 341.524 918.661 341.068 918.661 340.392V337.081C918.661 336.624 918.965 336.303 919.438 336.303H922.699C923.172 336.303 923.476 336.624 923.476 337.081V340.392C923.476 341.068 923.155 341.524 922.615 341.71C923.155 341.896 923.476 342.335 923.476 343.028ZM921.702 342.555H920.435V346.441H921.702V342.555ZM920.435 340.865H921.702V337.993H920.435V340.865Z"
            fill="#EB3333"
        />
        <path
            id="18.1"
            d="M912.023 356.275V354.586H914.558V366.413H912.784V356.275H912.023ZM920.811 361.311V365.636C920.811 366.092 920.507 366.413 920.033 366.413H916.772C916.299 366.413 915.995 366.092 915.995 365.636V361.311C915.995 360.618 916.316 360.178 916.84 359.993C916.316 359.807 915.995 359.351 915.995 358.675V355.363C915.995 354.907 916.299 354.586 916.772 354.586H920.033C920.507 354.586 920.811 354.907 920.811 355.363V358.675C920.811 359.351 920.49 359.807 919.949 359.993C920.49 360.178 920.811 360.618 920.811 361.311ZM919.037 360.837H917.769V364.724H919.037V360.837ZM917.769 359.148H919.037V356.275H917.769V359.148ZM922.327 366.413V364.724H924.016V366.413H922.327ZM925.363 356.275V354.586H927.897V366.413H926.123V356.275H925.363Z"
            fill="#EB3333"
        />
    </g>
    <g class="figure figure_17" id="figure 17">
        <rect id="Rectangle 386_3" x="505.067" y="315.742" width="20.2755" height="21.1203" fill="#EBEBEB" stroke="#EB3333" stroke-width="4.22407" />
        <path id="17" d="M511.533 322.25V320.56H514.067V332.387H512.293V322.25H511.533ZM516.653 332.387V326.981L518.073 322.25H515.167V320.56H519.898V322.081L518.428 326.981V332.387H516.653Z" fill="#EB3333" />
    </g>
    <g class="figure figure_16" id="figure 16-4">
        <rect id="Rectangle 401_2" x="0.626004" y="2.92053" width="20.9548" height="20.1078" transform="matrix(-0.543203 0.839601 0.839601 0.543203 566.316 398.762)" fill="#EBEBEB" stroke="#EB3333" stroke-width="4.22407" />
        <path id="Vector 22" d="M601.211 417.703L592.772 415.593L585.037 412.077L568.16 400.826L561.832 393.794L556.909 386.762" stroke="#EB3333" stroke-width="4.21922" />
        <path
            id="16"
            d="M566.503 411.694V410.004H569.038V421.831H567.264V411.694H566.503ZM573.517 416.256H572.249V420.142H573.517V416.256ZM575.291 410.781V413.383H573.517V411.694H572.249V414.566H574.514C574.987 414.566 575.291 414.887 575.291 415.343V421.054C575.291 421.51 574.987 421.831 574.514 421.831H571.253C570.779 421.831 570.475 421.51 570.475 421.054V410.781C570.475 410.325 570.779 410.004 571.253 410.004H574.514C574.987 410.004 575.291 410.325 575.291 410.781Z"
            fill="#EB3333"
        />
    </g>
    <g class="figure figure_16" id="figure 16-3">
        <rect id="Rectangle 401_3" x="740.907" y="400.874" width="20.9548" height="20.1078" transform="rotate(57.0981 740.907 400.874)" fill="#EBEBEB" stroke="#EB3333" stroke-width="4.22407" />
        <path id="Vector 22_2" d="M708.124 417.702L716.563 415.593L724.298 412.077L741.175 400.826L747.504 393.794L752.426 386.761" stroke="#EB3333" stroke-width="4.21922" />
        <path
            id="16_2"
            d="M733.88 411.695V410.005H736.415V421.832H734.641V411.695H733.88ZM740.893 416.257H739.626V420.143H740.893V416.257ZM742.668 410.782V413.384H740.893V411.695H739.626V414.567H741.89C742.363 414.567 742.668 414.888 742.668 415.344V421.055C742.668 421.511 742.363 421.832 741.89 421.832H738.629C738.156 421.832 737.852 421.511 737.852 421.055V410.782C737.852 410.326 738.156 410.005 738.629 410.005H741.89C742.363 410.005 742.668 410.326 742.668 410.782Z"
            fill="#EB3333"
        />
    </g>
    <g class="figure figure_16" id="figure 16-2">
        <rect id="Rectangle 401_4" x="0.0878308" y="2.98558" width="20.9548" height="20.1078" transform="matrix(-0.686008 0.727594 0.727594 0.686008 580.217 283.175)" fill="#EBEBEB" stroke="#EB3333" stroke-width="4.22407" />
        <path id="Vector 22_3" d="M556.937 316.442L560.453 308.706L565.376 301.674L582.956 283.391L592.801 278.469L601.942 275.656" stroke="#EB3333" stroke-width="4.21922" />
        <path
            id="16_3"
            d="M577.783 296.369V294.679H580.318V306.507H578.544V296.369H577.783ZM584.797 300.931H583.529V304.817H584.797V300.931ZM586.571 295.456V298.058H584.797V296.369H583.529V299.241H585.794C586.267 299.241 586.571 299.562 586.571 300.018V305.729C586.571 306.186 586.267 306.507 585.794 306.507H582.533C582.06 306.507 581.755 306.186 581.755 305.729V295.456C581.755 295 582.06 294.679 582.533 294.679H585.794C586.267 294.679 586.571 295 586.571 295.456Z"
            fill="#EB3333"
        />
    </g>
    <g class="figure figure_16" id="figure 16">
        <rect id="Rectangle 401_5" x="731.958" y="285.287" width="20.9548" height="20.1078" transform="rotate(46.6851 731.958 285.287)" fill="#EBEBEB" stroke="#EB3333" stroke-width="4.22407" />
        <path id="Vector 22_4" d="M757.351 316.442L753.835 308.707L748.912 301.675L731.332 283.391L721.487 278.469L712.346 275.656" stroke="#EB3333" stroke-width="4.21922" />
        <path
            id="16_4"
            d="M727.554 296.369V294.68H730.088V306.507H728.314V296.369H727.554ZM734.567 300.931H733.3V304.817H734.567V300.931ZM736.341 295.457V298.059H734.567V296.369H733.3V299.242H735.564C736.037 299.242 736.341 299.563 736.341 300.019V305.73C736.341 306.186 736.037 306.507 735.564 306.507H732.303C731.83 306.507 731.526 306.186 731.526 305.73V295.457C731.526 295.001 731.83 294.68 732.303 294.68H735.564C736.037 294.68 736.341 295.001 736.341 295.457Z"
            fill="#EB3333"
        />
    </g>
    <g class="figure figure_15" id="figure 15-4">
        <rect id="Rectangle 409" x="-2.34312" y="1.85235" width="18.8689" height="18.6624" transform="matrix(-0.993228 -0.116184 -0.116184 0.993228 630.643 417.458)" fill="#EBEBEB" stroke="#EB3333" stroke-width="4.22407" />
        <path
            id="15"
            d="M617.452 424.055V422.365H619.986V434.193H618.212V424.055H617.452ZM624.465 427.941H623.198V428.617H621.424V422.365H626.155V424.055H623.198V426.251H625.462C625.935 426.251 626.239 426.573 626.239 427.029V433.416C626.239 433.872 625.935 434.193 625.462 434.193H622.201C621.728 434.193 621.424 433.872 621.424 433.416V430.307H623.198V432.503H624.465V427.941Z"
            fill="#EB3333"
        />
    </g>
    <g class="figure figure_15" id="figure 15-3">
        <rect id="Rectangle 409_2" x="596.609" y="449.396" width="18.8689" height="18.6624" transform="rotate(-0.264777 596.609 449.396)" fill="#EBEBEB" stroke="#EB3333" stroke-width="4.22407" />
        <path
            id="15_2"
            d="M601.981 454.997V453.307H604.516V465.135H602.742V454.997H601.981ZM608.995 458.883H607.727V459.559H605.953V453.307H610.684V454.997H607.727V457.193H609.991C610.465 457.193 610.769 457.514 610.769 457.971V464.357C610.769 464.813 610.465 465.135 609.991 465.135H606.73C606.257 465.135 605.953 464.813 605.953 464.357V461.248H607.727V463.445H608.995V458.883Z"
            fill="#EB3333"
        />
    </g>
    <g class="figure figure_15" id="figure 15-2">
        <rect id="Rectangle 409_3" x="682.739" y="449.396" width="18.8689" height="18.6624" transform="rotate(-0.264777 682.739 449.396)" fill="#EBEBEB" stroke="#EB3333" stroke-width="4.22407" />
        <path
            id="15_3"
            d="M688.111 454.997V453.307H690.646V465.135H688.872V454.997H688.111ZM695.125 458.883H693.857V459.559H692.083V453.307H696.814V454.997H693.857V457.193H696.122C696.595 457.193 696.899 457.514 696.899 457.971V464.357C696.899 464.813 696.595 465.135 696.122 465.135H692.861C692.388 465.135 692.083 464.813 692.083 464.357V461.248H693.857V463.445H695.125V458.883Z"
            fill="#EB3333"
        />
    </g>
    <g class="figure figure_15" id="figure 15">
        <rect id="Rectangle 409_4" x="684.574" y="419.569" width="18.8689" height="18.6624" transform="rotate(-6.67195 684.574 419.569)" fill="#EBEBEB" stroke="#EB3333" stroke-width="4.22407" />
        <path
            id="15_4"
            d="M690.924 424.054V422.365H693.459V434.192H691.685V424.054H690.924ZM697.937 427.941H696.67V428.616H694.896V422.365H699.627V424.054H696.67V426.251H698.934C699.407 426.251 699.712 426.572 699.712 427.028V433.415C699.712 433.871 699.407 434.192 698.934 434.192H695.673C695.2 434.192 694.896 433.871 694.896 433.415V430.306H696.67V432.503H697.937V427.941Z"
            fill="#EB3333"
        />
    </g>
    <g class="figure figure_14" id="figure 14">
        <rect id="Rectangle 401_6" x="809.1" y="221.792" width="28.6752" height="48.8994" transform="rotate(45.5983 809.1 221.792)" fill="#EBEBEB" stroke="#EB3333" stroke-width="4.22407" />
        <path
            id="14"
            d="M795.935 245.17V243.481H798.469V255.308H796.695V245.17H795.935ZM804.469 255.308H802.695V253.112H799.738V251.591L802.07 243.481H803.928L801.647 251.422H802.695V249.901L804.469 249.563V251.422H805.145V253.112H804.469V255.308Z"
            fill="#EB3333"
        />
    </g>
    <g class="figure figure_13" id="figure 13">
        <rect id="Rectangle 410" x="748.37" y="283.349" width="20.5182" height="20.6154" transform="rotate(-39.8826 748.37 283.349)" fill="#EBEBEB" stroke="#EB3333" stroke-width="4.22407" />
        <path
            id="13"
            d="M758.135 281.63V279.94H760.669V291.768H758.895V281.63H758.135ZM766.145 291.768H762.884C762.411 291.768 762.107 291.447 762.107 290.991V287.882H763.881V290.078H765.148V285.888H763.374V284.317L764.979 281.63H762.191V279.94H766.838V281.461L765.216 284.198H766.145C766.618 284.198 766.922 284.519 766.922 284.976V290.991C766.922 291.447 766.618 291.768 766.145 291.768Z"
            fill="#EB3333"
        />
    </g>
    <g class="figure figure_12" id="figure 12">
        <rect id="Rectangle 386_4" x="490.419" y="380.439" width="20.2755" height="21.1203" fill="#EBEBEB" stroke="#EB3333" stroke-width="4.22407" />
        <path
            id="12"
            d="M496.587 386.947V385.257H499.121V397.085H497.347V386.947H496.587ZM505.29 386.035V388.873L502.248 394.871V395.395H505.29V397.085H500.474V394.635L503.516 388.637V386.947H502.248V388.637H500.474V386.035C500.474 385.578 500.778 385.257 501.251 385.257H504.512C504.986 385.257 505.29 385.578 505.29 386.035Z"
            fill="#EB3333"
        />
    </g>
    <g class="figure figure_11" id="figure 11">
        <rect id="Rectangle 386_5" x="476.351" y="315.741" width="20.2755" height="21.1203" fill="#EBEBEB" stroke="#EB3333" stroke-width="4.22407" />
        <path id="11" d="M483.617 322.25V320.56H486.151V332.387H484.377V322.25H483.617ZM487.42 322.25V320.56H489.954V332.387H488.18V322.25H487.42Z" fill="#EB3333" />
    </g>
    <g class="figure figure_10" id="figure 10">
        <rect id="Rectangle 382" x="568.972" y="440.718" width="22.2994" height="22.6509" transform="rotate(127.951 568.972 440.718)" fill="#EBEBEB" stroke="#EB3333" stroke-width="4.22407" />
        <path id="Vector 24" d="M590.016 449.347L579.467 446.534L569.595 440.908L550.636 426.141L544.28 417L539.357 407.858" stroke="#EB3333" stroke-width="4.21922" />
        <path
            id="10"
            d="M549.273 439.255V437.566H551.807V449.393H550.033V439.255H549.273ZM555.019 447.703H556.286V439.255H555.019V447.703ZM557.283 449.393H554.022C553.549 449.393 553.245 449.072 553.245 448.616V438.343C553.245 437.887 553.549 437.566 554.022 437.566H557.283C557.756 437.566 558.06 437.887 558.06 438.343V448.616C558.06 449.072 557.756 449.393 557.283 449.393Z"
            fill="#EB3333"
        />
    </g>
    <g class="figure figure_9" id="figure 9">
        <path
            id="Rectangle 441"
            d="M592.802 335.428C592.802 319.894 605.394 307.302 620.928 307.302H688.435C703.968 307.302 716.561 319.894 716.561 335.428C716.561 350.961 703.968 363.553 688.435 363.553H620.928C605.394 363.553 592.802 350.961 592.802 335.428Z"
            fill="#EBEBEB"
            stroke="#EB3333"
            stroke-width="4.22407"
        />
        <path
            id="9"
            d="M654.482 334.717H655.749V331.338H654.482V334.717ZM652.707 335.63V330.426C652.707 329.969 653.012 329.648 653.485 329.648H656.746C657.219 329.648 657.523 329.969 657.523 330.426V340.698C657.523 341.155 657.219 341.476 656.746 341.476H653.485C653.012 341.476 652.707 341.155 652.707 340.698V337.59H654.482V339.786H655.749V336.407H653.485C653.012 336.407 652.707 336.086 652.707 335.63Z"
            fill="#EB3333"
        />
    </g>
    <g class="figure figure_8" id="figure 8-6">
        <rect id="Rectangle 389" x="804.611" y="452.331" width="38.051" height="23.1371" transform="rotate(-60 804.611 452.331)" fill="#EBEBEB" stroke="#EB3333" stroke-width="4.22407" />
        <path
            id="8"
            d="M826.483 443.199V447.524C826.483 447.98 826.179 448.301 825.706 448.301H822.445C821.972 448.301 821.668 447.98 821.668 447.524V443.199C821.668 442.506 821.989 442.067 822.512 441.881C821.989 441.695 821.668 441.239 821.668 440.563V437.251C821.668 436.795 821.972 436.474 822.445 436.474H825.706C826.179 436.474 826.483 436.795 826.483 437.251V440.563C826.483 441.239 826.162 441.695 825.621 441.881C826.162 442.067 826.483 442.506 826.483 443.199ZM824.709 442.726H823.442V446.612H824.709V442.726ZM823.442 441.036H824.709V438.164H823.442V441.036Z"
            fill="#EB3333"
        />
    </g>
    <g class="figure figure_8" id="figure 8-5">
        <rect id="Rectangle 391" x="866.356" y="473.519" width="101.378" height="45.6199" rx="22.3876" fill="#EBEBEB" stroke="#EB3333" stroke-width="4.22407" />
        <path
            id="8_2"
            d="M919.88 496.889V501.215C919.88 501.671 919.576 501.992 919.103 501.992H915.842C915.369 501.992 915.064 501.671 915.064 501.215V496.889C915.064 496.197 915.385 495.757 915.909 495.571C915.385 495.385 915.064 494.929 915.064 494.253V490.942C915.064 490.486 915.369 490.165 915.842 490.165H919.103C919.576 490.165 919.88 490.486 919.88 490.942V494.253C919.88 494.929 919.559 495.385 919.018 495.571C919.559 495.757 919.88 496.197 919.88 496.889ZM918.106 496.416H916.839V500.302H918.106V496.416ZM916.839 494.727H918.106V491.854H916.839V494.727Z"
            fill="#EB3333"
        />
    </g>
    <g class="figure figure_8" id="figure 8-4">
        <rect id="Rectangle 399_2" x="909.243" y="557.643" width="32.3425" height="36.5617" fill="#EBEBEB" stroke="#EB3333" stroke-width="4.22407" />
        <path
            id="8_3"
            d="M928.122 577.898V582.224C928.122 582.68 927.818 583.001 927.345 583.001H924.084C923.611 583.001 923.307 582.68 923.307 582.224V577.898C923.307 577.206 923.628 576.766 924.152 576.581C923.628 576.395 923.307 575.938 923.307 575.263V571.951C923.307 571.495 923.611 571.174 924.084 571.174H927.345C927.818 571.174 928.122 571.495 928.122 571.951V575.263C928.122 575.938 927.801 576.395 927.261 576.581C927.801 576.766 928.122 577.206 928.122 577.898ZM926.348 577.425H925.081V581.311H926.348V577.425ZM925.081 575.736H926.348V572.863H925.081V575.736Z"
            fill="#EB3333"
        />
    </g>
    <g class="figure figure_8" id="figure 8-3">
        <rect id="Rectangle 399_3" x="864.238" y="557.643" width="32.3425" height="36.5617" fill="#EBEBEB" stroke="#EB3333" stroke-width="4.22407" />
        <path
            id="8_4"
            d="M883.117 577.898V582.224C883.117 582.68 882.813 583.001 882.34 583.001H879.079C878.606 583.001 878.302 582.68 878.302 582.224V577.898C878.302 577.206 878.623 576.766 879.147 576.581C878.623 576.395 878.302 575.938 878.302 575.263V571.951C878.302 571.495 878.606 571.174 879.079 571.174H882.34C882.813 571.174 883.117 571.495 883.117 571.951V575.263C883.117 575.938 882.796 576.395 882.256 576.581C882.796 576.766 883.117 577.206 883.117 577.898ZM881.343 577.425H880.076V581.311H881.343V577.425ZM880.076 575.736H881.343V572.863H880.076V575.736Z"
            fill="#EB3333"
        />
    </g>
    <g class="figure figure_8" id="figure 8-2">
        <rect id="Rectangle 399_4" x="817.827" y="557.642" width="32.3425" height="36.5617" fill="#EBEBEB" stroke="#EB3333" stroke-width="4.22407" />
        <path
            id="8_5"
            d="M836.706 577.897V582.223C836.706 582.679 836.402 583 835.929 583H832.668C832.194 583 831.89 582.679 831.89 582.223V577.897C831.89 577.205 832.211 576.765 832.735 576.58C832.211 576.394 831.89 575.937 831.89 575.262V571.95C831.89 571.494 832.194 571.173 832.668 571.173H835.929C836.402 571.173 836.706 571.494 836.706 571.95V575.262C836.706 575.937 836.385 576.394 835.844 576.58C836.385 576.765 836.706 577.205 836.706 577.897ZM834.932 577.424H833.664V581.31H834.932V577.424ZM833.664 575.735H834.932V572.862H833.664V575.735Z"
            fill="#EB3333"
        />
    </g>
    <g class="figure figure_8" id="figure 8">
        <rect id="Rectangle 388" x="736.186" y="510.62" width="37.1763" height="20.633" transform="rotate(-30 736.186 510.62)" fill="#EBEBEB" stroke="#EB3333" stroke-width="4.22407" />
        <path
            id="8_6"
            d="M760.068 510.905V515.23C760.068 515.686 759.764 516.007 759.291 516.007H756.03C755.557 516.007 755.253 515.686 755.253 515.23V510.905C755.253 510.212 755.574 509.773 756.098 509.587C755.574 509.401 755.253 508.945 755.253 508.269V504.957C755.253 504.501 755.557 504.18 756.03 504.18H759.291C759.764 504.18 760.068 504.501 760.068 504.957V508.269C760.068 508.945 759.747 509.401 759.207 509.587C759.747 509.773 760.068 510.212 760.068 510.905ZM758.294 510.432H757.027V514.318H758.294V510.432ZM757.027 508.742H758.294V505.87H757.027V508.742Z"
            fill="#EB3333"
        />
    </g>
    <g class="figure figure_7" id="figure 7">
        <rect id="Rectangle 382_2" x="2.98399" y="-0.131097" width="22.2994" height="22.6509" transform="matrix(0.737461 0.67539 0.67539 -0.737461 752.989 431.409)" fill="#EBEBEB" stroke="#EB3333" stroke-width="4.22407" />
        <path id="Vector 24_2" d="M734.845 445.831L746.096 440.908L755.238 433.876L770.708 416.296L776.334 406.451L779.85 396.606" stroke="#EB3333" stroke-width="4.21922" />
        <path id="7" d="M769.534 439.548V434.141L770.953 429.41H768.047V427.721H772.778V429.241L771.308 434.141V439.548H769.534Z" fill="#EB3333" />
    </g>
    <g class="figure figure_6" id="figure 6-2">
        <path id="Vector 23" d="M551.31 339.647L564.671 334.725C570.297 352.305 577.329 364.962 585.064 373.401L571.703 383.246C556.936 366.369 552.014 347.148 551.31 339.647Z" fill="#EBEBEB" stroke="#EB3333" stroke-width="4.21922" />
        <path
            id="6"
            d="M566.309 359.432H565.041V363.318H566.309V359.432ZM568.083 353.958V356.56H566.309V354.87H565.041V357.743H567.306C567.779 357.743 568.083 358.064 568.083 358.52V364.231C568.083 364.687 567.779 365.008 567.306 365.008H564.045C563.571 365.008 563.267 364.687 563.267 364.231V353.958C563.267 353.502 563.571 353.181 564.045 353.181H567.306C567.779 353.181 568.083 353.502 568.083 353.958Z"
            fill="#EB3333"
        />
    </g>
    <g class="figure figure_6" id="figure 6">
        <path
            id="Vector 23_2"
            d="M760.865 339.647L747.504 334.725C741.879 352.305 734.847 364.963 727.111 373.401L740.472 383.246C755.24 366.369 760.162 347.148 760.865 339.647Z"
            fill="#EBEBEB"
            stroke="#EB3333"
            stroke-width="4.21922"
        />
        <path
            id="6_2"
            d="M747.138 359.432H745.871V363.318H747.138V359.432ZM748.912 353.958V356.56H747.138V354.87H745.871V357.743H748.135C748.608 357.743 748.912 358.064 748.912 358.52V364.231C748.912 364.687 748.608 365.008 748.135 365.008H744.874C744.401 365.008 744.096 364.687 744.096 364.231V353.958C744.096 353.502 744.401 353.181 744.874 353.181H748.135C748.608 353.181 748.912 353.502 748.912 353.958Z"
            fill="#EB3333"
        />
    </g>
    <g class="figure figure_5" id="figure 5">
        <rect id="Rectangle 400" x="509.396" y="232.773" width="37.1763" height="20.633" transform="rotate(42.2943 509.396 232.773)" fill="#EBEBEB" stroke="#EB3333" stroke-width="4.22407" />
        <path
            id="5"
            d="M516.852 252.83H515.585V253.506H513.811V247.255H518.542V248.944H515.585V251.141H517.849C518.322 251.141 518.626 251.462 518.626 251.918V258.305C518.626 258.761 518.322 259.082 517.849 259.082H514.588C514.115 259.082 513.811 258.761 513.811 258.305V255.196H515.585V257.392H516.852V252.83Z"
            fill="#EB3333"
        />
    </g>
    <g class="figure figure_4" id="figure 4">
        <rect id="Rectangle 398" x="799.544" y="328.399" width="37.9681" height="56.2514" fill="#EBEBEB" stroke="#EB3333" stroke-width="4.22407" />
        <path id="4" d="M819.444 362.195H817.67V359.999H814.713V358.478L817.045 350.368H818.903L816.622 358.309H817.67V356.789L819.444 356.451V358.309H820.12V359.999H819.444V362.195Z" fill="#EB3333" />
    </g>
    <g class="figure figure_3" id="figure 3">
        <rect id="Rectangle 409_5" x="642.422" y="421.347" width="31.3124" height="21.8643" transform="rotate(-0.264777 642.422 421.347)" fill="#EBEBEB" stroke="#EB3333" stroke-width="4.22407" />
        <path
            id="3"
            d="M660.127 438.463H656.866C656.393 438.463 656.089 438.141 656.089 437.685V434.576H657.863V436.773H659.13V432.583H657.356V431.011L658.961 428.325H656.173V426.635H660.819V428.156L659.197 430.893H660.127C660.6 430.893 660.904 431.214 660.904 431.67V437.685C660.904 438.141 660.6 438.463 660.127 438.463Z"
            fill="#EB3333"
        />
    </g>
    <g class="figure figure_2" id="figure 2">
        <rect id="Rectangle 383" x="473.258" y="343.868" width="54.845" height="29.5297" fill="#EBEBEB" stroke="#EB3333" stroke-width="4.22407" />
        <path
            id="2"
            d="M503.386 353.958V356.796L500.345 362.795V363.318H503.386V365.008H498.571V362.558L501.612 356.56V354.87H500.345V356.56H498.571V353.958C498.571 353.502 498.875 353.181 499.348 353.181H502.609C503.082 353.181 503.386 353.502 503.386 353.958Z"
            fill="#EB3333"
        />
    </g>
    <g class="figure figure_1.1" id="figure 1.1">
        <rect id="Rectangle 379" x="694.062" y="499.98" width="18.2784" height="78.7539" fill="#EBEBEB" stroke="#EB3333" stroke-width="4.22407" />
        <path id="1.1" d="M698.229 532.695V531.005H700.763V542.833H698.989V532.695H698.229ZM702.37 542.833V541.143H704.059V542.833H702.37ZM705.406 532.695V531.005H707.94V542.833H706.166V532.695H705.406Z" fill="#EB3333" />
    </g>
    <g class="figure figure_1" id="figure 1">
        <rect id="Rectangle 378" x="633.589" y="460.601" width="42.1874" height="142.042" fill="#EBEBEB" stroke="#EB3333" stroke-width="4.22407" />
        <path id="1" d="M652.884 526.453V524.763H655.418V536.59H653.644V526.453H652.884Z" fill="#EB3333" />
    </g>
</svg>
