<svg width="772" height="294" viewBox="0 0 772 294" fill="none" xmlns="http://www.w3.org/2000/svg">
<g clip-path="url(#clip0_1247_2790)">
<path d="M427.136 89.0352H408.728L383.558 135.994V89.0352H367.029V204.741H383.558V170.931L391.447 156.28L410.231 204.741H427.512L401.59 137.121L427.136 89.0352Z" fill="black"/>
<path d="M480.105 176.942C480.105 184.079 474.47 190.09 467.333 190.09C460.195 190.09 454.184 184.455 454.184 176.942V89.0352H437.655V176.566C437.655 192.72 450.803 205.868 466.957 205.868C483.111 205.868 496.259 192.72 496.259 176.566V89.0352H479.73V176.942H480.105Z" fill="black"/>
<path d="M537.582 89.0352H508.28V204.741H537.582C553.736 204.741 566.885 191.593 566.885 175.439V118.337C566.885 102.184 553.736 89.0352 537.582 89.0352ZM550.355 176.19C550.355 183.328 544.72 188.963 537.582 188.963H524.434V104.438H537.582C544.72 104.438 550.355 110.073 550.355 117.21V176.19Z" fill="black"/>
<path d="M613.092 89.0352H597.314L572.52 204.741H589.425L593.182 186.709H617.976L621.733 204.741H638.638L613.468 89.4108L613.092 89.0352ZM614.219 171.307H595.812L604.828 127.353L614.219 171.307Z" fill="black"/>
<path d="M672.072 87.9062C655.918 87.9062 642.77 101.055 642.77 117.208V176.188C642.77 192.342 655.918 205.491 672.072 205.491C688.226 205.491 701.374 192.342 701.374 176.188V156.654H670.57V172.056H684.845V176.94C684.845 184.078 679.21 190.088 672.072 190.088C664.934 190.088 658.924 184.453 658.924 176.94V116.457C658.924 109.319 664.559 103.309 672.072 103.309C679.21 103.309 684.845 108.944 684.845 116.457V123.97H701.374V117.584C701.374 101.055 688.226 87.9062 672.072 87.9062Z" fill="black"/>
<path d="M742.698 87.9062C726.544 87.9062 713.396 101.055 713.396 117.208V176.188C713.396 192.342 726.544 205.491 742.698 205.491C758.851 205.491 772 192.342 772 176.188V117.208C772 101.055 758.851 87.9062 742.698 87.9062ZM729.549 116.457C729.549 109.319 735.184 103.309 742.698 103.309C749.835 103.309 755.47 108.944 755.47 116.457V176.94C755.47 184.078 749.835 190.088 742.698 190.088C735.56 190.088 729.549 184.453 729.549 176.94V116.457Z" fill="black"/>
<path fill-rule="evenodd" clip-rule="evenodd" d="M113.452 3.75548C192.343 -14.6523 271.233 34.1847 289.641 113.075C308.049 191.966 259.212 270.856 180.321 289.264C101.431 308.047 22.1646 259.21 3.75685 180.32C-14.6509 101.429 34.5617 22.1633 113.452 3.75548Z" fill="#EE3942"/>
<path fill-rule="evenodd" clip-rule="evenodd" d="M156.278 123.216C159.284 125.846 164.168 125.47 166.797 122.465C169.427 119.459 169.051 114.576 166.046 111.946C163.04 109.316 158.157 109.692 155.527 112.697C152.897 116.078 153.273 120.586 156.278 123.216Z" fill="white"/>
<path fill-rule="evenodd" clip-rule="evenodd" d="M125.849 200.23C123.22 206.241 119.463 211.501 112.325 218.638C110.823 220.141 114.579 223.146 116.082 225.776C116.458 232.538 116.833 248.316 119.463 252.824H125.849C121.717 243.808 123.595 234.041 123.971 223.898C123.595 222.019 122.844 220.517 121.717 219.014C124.347 212.628 127.352 208.871 128.855 201.357L125.849 200.23Z" fill="white"/>
<path fill-rule="evenodd" clip-rule="evenodd" d="M174.311 205.865L166.797 205.113C167.549 212.251 170.554 216.383 173.559 220.516C172.057 228.78 169.803 238.548 170.178 250.945H176.565C177.692 240.051 180.321 226.526 183.327 219.013C179.57 215.632 175.813 209.246 174.311 205.865Z" fill="white"/>
<path d="M170.929 160.785V157.779C170.929 157.404 170.554 156.652 169.802 156.652C169.427 156.652 168.675 157.028 168.675 157.779V160.785C168.675 161.16 168.675 161.16 169.051 161.536C169.427 161.536 170.178 161.536 170.554 161.536C170.929 161.16 170.929 161.16 170.929 160.785Z" fill="white"/>
<path d="M160.411 158.531V155.525C160.411 155.15 160.035 154.398 159.284 154.398C158.908 154.398 158.157 154.774 158.157 155.525V158.531C158.532 158.906 158.908 159.282 159.284 159.282C160.035 159.282 160.411 158.906 160.411 158.531Z" fill="white"/>
<path fill-rule="evenodd" clip-rule="evenodd" d="M174.311 145.758C173.559 145.758 173.559 145.758 173.559 145.758C172.808 148.012 170.929 149.515 168.3 149.515L161.162 149.89C160.411 149.89 159.284 149.89 158.532 149.515C158.532 150.266 158.157 151.017 158.157 151.393C158.908 152.896 161.913 154.398 166.046 155.15C172.432 155.901 179.194 154.398 181.448 152.144C183.702 149.139 180.697 146.509 174.311 145.758Z" fill="white"/>
<path fill-rule="evenodd" clip-rule="evenodd" d="M136.368 153.647C136.744 153.647 137.495 154.023 137.871 154.023L138.622 152.145H136.744C136.368 152.52 136.368 152.896 136.368 153.647Z" fill="white"/>
<path fill-rule="evenodd" clip-rule="evenodd" d="M105.563 84.8993C111.949 86.7776 122.468 80.7669 131.86 81.5182C139.373 81.8939 151.394 84.8993 158.532 88.656L148.765 116.08C148.765 118.334 148.013 120.964 146.511 122.842L140.124 140.498H141.627C142.003 140.498 142.378 140.498 142.754 140.498C142.754 140.123 143.13 139.747 143.13 139.371C144.257 135.615 145.759 132.609 147.262 130.355L152.521 116.08C152.521 114.953 153.273 113.45 153.649 112.323L178.818 42.4487C179.194 41.6973 178.818 40.946 178.067 40.5703C177.691 40.5703 176.94 40.5703 176.564 40.946C176.564 40.946 176.564 40.946 176.564 40.5703C173.559 43.9513 152.897 41.6973 134.865 41.3216C121.341 40.946 107.066 39.819 97.2981 44.7027C90.9118 51.089 80.0174 70.2482 74.3823 80.3912C86.4037 78.5129 96.9225 82.2696 105.563 84.8993Z" fill="white"/>
<path fill-rule="evenodd" clip-rule="evenodd" d="M239.301 142.754C226.904 136.743 226.153 129.23 216.385 121.341C215.258 121.717 214.507 121.717 213.756 121.341C215.634 119.838 218.264 117.96 222.396 122.092C221.269 116.833 212.629 114.579 206.618 118.336C204.74 116.457 204.74 114.203 204.74 111.949C202.486 114.955 201.734 117.96 201.734 121.717C198.729 120.59 194.972 121.341 191.967 123.971C187.459 127.352 188.21 128.103 182.951 129.981C183.702 130.733 186.332 130.357 187.459 129.606C185.205 132.987 180.697 134.114 176.94 132.987C177.692 135.241 180.321 135.616 182.951 135.616C180.697 137.119 178.819 139.373 173.183 138.246C175.062 139.749 177.316 141.251 180.321 141.251C179.57 142.378 178.443 143.13 177.692 143.881C184.078 145.759 184.829 149.14 183.702 152.146V157.405C183.702 157.405 184.454 157.781 184.078 158.532C184.078 160.035 182.2 161.538 178.443 162.665C177.316 163.04 176.189 163.04 174.686 163.04C175.438 164.167 175.813 165.294 175.813 166.421L173.935 188.21C173.935 190.088 173.184 191.591 172.432 192.718C171.681 193.469 170.178 194.596 167.924 194.596C167.924 194.596 167.924 194.596 167.548 194.596C165.294 194.596 161.538 193.469 161.538 187.083L162.289 170.554C160.035 170.178 156.278 169.802 153.273 169.427C152.897 169.427 152.146 169.427 151.77 169.051V188.21C151.77 191.967 149.516 194.221 145.76 194.221H145.384H145.008C141.627 193.469 139.749 191.591 139.373 187.459V169.051C138.246 169.051 137.119 168.675 135.992 168.675C132.236 168.3 128.855 167.924 126.225 167.548H125.849C123.22 167.173 120.966 165.67 119.838 163.416C119.463 162.665 119.087 161.913 118.711 161.162C117.584 161.162 116.833 161.538 116.082 161.538C114.203 162.289 112.325 163.04 110.447 164.167C103.309 158.908 93.166 156.654 85.2769 160.786C75.5095 166.046 78.5149 175.062 66.8691 176.94C73.2555 179.57 80.7689 176.564 84.1499 169.802C82.6473 177.316 66.1178 186.707 60.1071 173.183C57.8531 175.813 59.7314 181.072 62.7368 182.575C57.8531 183.702 55.9747 181.072 54.0964 178.067C53.3451 192.718 63.8638 200.983 79.2662 193.094C77.7636 196.099 72.5042 199.48 63.4881 199.104C83.0229 204.739 93.9173 187.459 93.9173 179.945C94.6687 182.951 93.9173 185.58 92.4147 188.961C104.812 182.575 94.293 168.3 105.563 167.548C105.939 167.548 106.314 167.548 106.69 167.548C104.06 170.929 102.182 175.062 102.182 179.945C102.182 183.702 103.309 187.083 105.563 190.088C102.558 198.729 101.055 208.121 96.547 214.507C95.7957 219.391 97.674 224.274 98.4254 229.534C100.304 240.428 98.4254 245.687 98.4254 252.074H105.939C107.066 244.56 107.441 233.29 106.69 218.639C113.452 213.004 119.463 205.115 123.22 196.475C144.633 197.602 151.019 202.11 176.565 202.861C178.819 208.496 182.951 214.507 187.459 217.888C190.464 225.777 189.713 239.301 190.464 250.195H197.226C196.475 237.047 197.226 227.655 197.602 217.137C195.348 208.496 193.47 201.734 193.47 195.723C195.348 193.469 196.851 190.464 197.602 186.707C199.105 169.427 200.607 149.892 206.242 143.881C213.38 143.13 222.396 149.892 235.169 151.77C236.672 150.643 237.047 148.765 236.672 146.135C238.174 146.511 238.926 145.759 239.301 142.754Z" fill="white"/>
<path fill-rule="evenodd" clip-rule="evenodd" d="M172.432 163.791C170.554 163.791 169.427 163.791 165.67 163.415C160.411 162.664 155.527 161.161 155.151 157.404C155.151 157.404 155.527 151.018 156.278 147.261L155.527 145.759C155.527 145.759 154.024 139.748 154.775 138.621C155.151 138.245 155.151 137.87 155.527 137.87L157.03 143.88C157.405 144.632 157.781 145.383 158.532 146.134C159.284 146.886 160.035 147.261 161.162 147.261L168.3 146.886C170.178 146.886 171.305 145.759 171.305 143.88C171.305 141.626 169.802 141.251 167.924 141.251H163.792L161.913 133.737C161.913 133.362 161.538 132.986 161.538 132.986C161.162 130.732 159.659 128.102 156.654 127.727C153.273 126.975 151.019 128.478 148.389 131.483C146.511 133.362 145.008 137.118 143.881 141.626C144.257 142.002 144.632 142.002 145.008 142.378C146.135 143.505 146.886 145.007 146.511 146.51C146.511 148.013 145.759 149.515 144.257 150.267C143.881 150.642 143.13 151.018 142.378 151.394C142.378 151.769 142.378 152.145 142.378 152.521C142.378 153.272 142.378 154.023 142.378 154.775C143.881 155.15 145.384 155.526 146.511 155.902C149.892 157.029 151.019 159.283 151.019 160.785C151.394 161.537 151.394 162.288 151.394 163.04V166.421C152.146 166.421 152.521 166.796 153.273 166.796C157.781 167.548 164.167 168.299 164.167 168.299L163.416 186.707C163.416 190.088 164.919 191.966 167.173 191.966C169.802 191.966 170.929 190.088 171.305 187.458L173.559 165.669C174.31 164.918 172.808 163.791 172.432 163.791Z" fill="white"/>
<path fill-rule="evenodd" clip-rule="evenodd" d="M149.516 161.536C149.516 160.409 148.389 159.282 146.511 158.531C142.003 157.028 137.871 155.901 134.114 155.15C134.114 154.023 134.114 152.896 134.49 151.393L130.357 151.018C127.352 150.642 125.474 148.764 125.849 145.758C125.849 144.631 126.976 143.504 128.103 143.128C127.728 143.504 127.352 144.255 126.976 145.007C126.976 146.885 128.479 148.388 130.733 148.764L140.5 149.515C142.754 149.515 144.633 148.388 144.633 146.51C144.633 144.631 143.13 143.128 140.876 142.753H135.241V142.001C135.992 138.996 136.744 136.366 137.871 134.864C139.749 132.234 138.246 126.975 133.738 125.848C130.357 125.096 128.103 126.599 125.474 129.604C122.093 133.737 118.711 148.012 120.214 157.404C120.59 159.658 120.965 163.79 126.225 164.917H126.601C129.982 165.669 135.241 166.044 140.876 166.42C141.252 166.42 141.252 166.42 141.627 166.42L142.379 186.706C142.754 190.087 143.881 190.838 146.135 191.214C148.389 191.214 149.892 189.711 149.892 187.457V162.663C149.892 162.663 149.892 162.288 149.516 161.536Z" fill="white"/>
<path fill-rule="evenodd" clip-rule="evenodd" d="M134.114 121.715C137.119 124.345 141.627 123.969 144.257 120.964C146.887 117.959 146.511 113.451 143.506 110.821C140.5 108.191 135.992 108.567 133.363 111.572C130.733 114.578 131.109 119.461 134.114 121.715Z" fill="white"/>
<path d="M176.189 157.404C176.189 157.029 175.813 156.277 175.062 156.277C174.686 156.277 173.935 156.653 173.935 157.404V160.41C173.935 160.785 174.311 161.537 175.062 161.537C175.438 161.537 176.189 161.161 176.189 160.41V157.404Z" fill="white"/>
<path d="M181.072 155.9C181.072 155.525 180.697 154.773 179.945 154.773C179.57 154.773 178.818 155.149 178.818 155.9V158.906C178.818 159.281 179.194 160.033 179.945 160.033C180.321 160.033 181.072 159.657 181.072 158.906V155.9Z" fill="white"/>
<path d="M164.543 156.277C164.167 156.277 163.416 156.653 163.416 157.404V160.41C163.416 160.785 163.416 160.785 163.792 160.785C164.167 160.785 164.543 160.785 165.294 161.161C165.67 161.161 165.67 160.785 165.67 160.41V157.404C165.67 157.029 164.919 156.277 164.543 156.277Z" fill="white"/>
</g>
<defs>
<clipPath id="clip0_1247_2790">
<rect width="772" height="293.398" fill="white"/>
</clipPath>
</defs>
</svg>
