<svg width="755" height="304" viewBox="0 0 755 304" fill="none" xmlns="http://www.w3.org/2000/svg">
<path d="M410.09 93.6992H391.68L366.507 140.988V93.6992H349.976V209.295H366.507V175.517L374.397 160.88L393.183 209.295H410.466L384.542 141.739L410.09 93.6992Z" fill="white"/>
<path d="M462.691 181.522C462.691 188.653 457.055 194.658 449.917 194.658C442.778 194.658 436.766 189.028 436.766 181.522V93.6992H420.235V181.147C420.235 197.285 433.385 210.421 449.541 210.421C465.697 210.421 478.847 197.285 478.847 181.147V93.6992H462.315V181.522H462.691Z" fill="white"/>
<path d="M520.552 93.6992H491.246V209.295H520.552C536.708 209.295 549.858 196.159 549.858 180.021V122.973C549.858 106.835 536.708 93.6992 520.552 93.6992ZM533.326 180.771C533.326 187.902 527.69 193.532 520.552 193.532H507.401V109.087H520.552C527.69 109.087 533.326 114.717 533.326 121.848V180.771Z" fill="white"/>
<path d="M596.071 93.6992H580.291L555.493 209.295H572.4L576.158 191.28H600.955L604.712 209.295H621.62L596.446 94.0745L596.071 93.6992ZM597.198 175.892H578.788L587.805 131.981L597.198 175.892Z" fill="white"/>
<path d="M655.059 92.5742C638.903 92.5742 625.753 105.71 625.753 121.848V180.772C625.753 196.911 638.903 210.047 655.059 210.047C671.215 210.047 684.365 196.911 684.365 180.772V161.256H653.556V176.644H667.833V181.523C667.833 188.654 662.198 194.659 655.059 194.659C647.92 194.659 641.909 189.029 641.909 181.523V121.098C641.909 113.967 647.545 107.962 655.059 107.962C662.198 107.962 667.833 113.592 667.833 121.098V128.604H684.365V122.224C684.365 105.71 671.215 92.5742 655.059 92.5742Z" fill="white"/>
<path d="M725.694 92.5742C709.538 92.5742 696.388 105.71 696.388 121.848V180.772C696.388 196.911 709.538 210.047 725.694 210.047C741.85 210.047 755 196.911 755 180.772V121.848C755 105.71 741.85 92.5742 725.694 92.5742ZM712.544 121.098C712.544 113.967 718.179 107.962 725.694 107.962C732.832 107.962 738.468 113.592 738.468 121.098V181.523C738.468 188.654 732.832 194.659 725.694 194.659C718.555 194.659 712.544 189.029 712.544 181.523V121.098Z" fill="white"/>
<path d="M152.261 11.1935C216.203 11.1935 274.332 55.2258 289.349 120.065C307.272 195.548 259.8 271.516 184.232 289.419C173.575 291.839 162.434 293.29 152.261 293.29C88.3194 292.806 30.1904 248.774 15.1738 183.935C-2.74934 108.452 44.2382 32.4839 120.29 15.0645C130.947 12.1613 141.604 11.1935 152.261 11.1935ZM152.261 2C140.635 2 129.01 3.45161 117.868 5.87097C37.4565 24.7419 -12.9219 105.548 5.97 186.355C13.7205 219.258 32.6124 249.258 59.7393 270.065C85.8973 290.871 118.837 302 152.261 302C163.887 302 175.028 300.548 186.654 298.129C267.066 279.258 317.444 198.452 298.552 118.129C290.802 85.2258 271.91 55.2258 244.783 34.4194C218.625 13.129 185.685 2 152.261 2Z" fill="white"/>
<path fill-rule="evenodd" clip-rule="evenodd" d="M287.816 120.419C272.969 56.3119 215.491 12.7657 152.261 12.7657C141.698 12.7657 131.188 13.7251 120.703 16.5813L120.672 16.5898L120.641 16.5969C45.4412 33.8211 -1.01768 108.937 16.7037 183.571L16.7047 183.575L16.7057 183.579C31.5521 247.683 89.0303 291.236 152.269 291.716C162.297 291.715 173.314 290.283 183.876 287.886C258.606 270.177 305.537 195.051 287.818 120.427L287.816 120.419ZM184.232 289.418C173.575 291.838 162.434 293.289 152.261 293.289C88.3192 292.805 30.1902 248.773 15.1736 183.934C-2.74951 108.451 44.2381 32.4828 120.29 15.0635C130.947 12.1602 141.604 11.1925 152.261 11.1925C216.203 11.1925 274.332 55.2247 289.348 120.063C307.272 195.547 259.8 271.515 184.232 289.418ZM117.522 4.33534L117.534 4.33256C128.768 1.89322 140.506 0.425781 152.261 0.425781C186.022 0.425781 219.309 11.664 245.758 33.1838C273.172 54.2176 292.254 84.5296 300.083 117.767L300.083 117.768C319.175 198.942 268.265 280.591 187.013 299.66L186.994 299.664L186.974 299.668C175.273 302.103 164.022 303.572 152.261 303.572C118.498 303.572 85.2144 292.333 58.7705 271.303C31.3527 250.269 12.269 219.955 4.43907 186.715L4.43847 186.712C-14.6515 105.058 36.2537 23.4073 117.509 4.33833L117.522 4.33534ZM244.783 34.4183C218.625 13.128 185.685 1.99895 152.261 1.99895C140.635 1.99895 129.009 3.45056 117.868 5.86992C37.4564 24.7409 -12.9221 105.547 5.96983 186.354C13.7204 219.257 32.6123 249.257 59.7391 270.063C85.8971 290.87 118.837 301.999 152.261 301.999C163.887 301.999 175.028 300.547 186.654 298.128C267.066 279.257 317.444 198.451 298.552 118.128C290.802 85.2247 271.91 55.2247 244.783 34.4183Z" fill="white"/>
<path fill-rule="evenodd" clip-rule="evenodd" d="M161.465 129.739C164.371 132.159 168.731 132.159 171.638 129.255C174.06 126.352 174.06 121.997 171.153 119.094C168.247 116.675 163.887 116.675 160.981 119.578C158.074 122.481 158.558 126.836 161.465 129.739Z" fill="white"/>
<path fill-rule="evenodd" clip-rule="evenodd" d="M132.963 202.773C130.541 208.58 127.15 213.902 120.368 220.677C118.915 222.128 122.306 225.032 124.244 227.451C124.728 233.741 124.728 249.225 127.634 253.58H133.447C129.572 244.87 131.51 235.677 131.51 225.515C131.025 224.064 130.056 222.612 129.572 220.677C132.478 214.87 134.9 210.999 136.354 203.741L132.963 202.773Z" fill="white"/>
<path fill-rule="evenodd" clip-rule="evenodd" d="M179.989 208.093L173.207 207.609C173.691 214.384 176.598 218.738 179.989 222.609C178.536 230.835 176.598 239.545 177.082 251.642H182.895C183.864 240.996 186.286 228.416 189.677 221.158C185.317 217.771 181.442 211.48 179.989 208.093Z" fill="white"/>
<path d="M174.99 165.027V162.124C174.99 161.64 174.505 161.156 174.021 161.156C173.537 161.156 173.052 161.64 173.052 162.124V165.027V165.511C173.537 165.511 174.021 165.511 174.505 165.511C174.99 165.511 174.99 165.027 174.99 165.027Z" fill="white"/>
<path d="M164.818 162.609V159.706C164.818 159.222 164.333 158.738 163.849 158.738C163.364 158.738 162.88 159.222 162.88 159.706V162.609C163.364 163.093 163.364 163.093 163.849 163.577C164.333 163.577 164.818 163.093 164.818 162.609Z" fill="white"/>
<path fill-rule="evenodd" clip-rule="evenodd" d="M178.381 150.512C177.896 150.512 177.896 150.512 177.896 150.512C177.412 152.447 175.474 153.899 173.052 154.383H166.271C165.302 154.383 164.333 154.383 163.849 153.899C163.849 154.383 163.849 155.35 163.364 155.834C164.333 157.286 166.755 158.738 171.115 159.221C177.412 160.189 183.709 158.738 185.647 156.318C187.585 153.899 184.194 150.996 178.381 150.512Z" fill="white"/>
<path fill-rule="evenodd" clip-rule="evenodd" d="M142.089 158.288C142.573 158.288 143.058 158.288 143.542 158.771L144.026 157.32L142.573 156.836C142.573 157.32 142.573 157.804 142.089 158.288Z" fill="white"/>
<path fill-rule="evenodd" clip-rule="evenodd" d="M112.54 92.4825C118.837 94.418 129.01 88.6115 137.729 89.0954C144.995 89.5793 156.621 92.4825 163.403 95.8696L153.714 121.999C153.714 124.418 153.23 126.837 151.292 128.289L144.995 145.224H146.448C146.933 145.224 146.933 145.224 147.417 145.224C147.417 144.741 147.664 144.603 147.901 143.773C148.87 140.386 150.324 136.999 151.777 135.063L156.621 121.515C156.621 120.063 157.105 119.095 158.074 118.128L182.294 51.3535C182.779 50.3857 182.294 49.9018 181.326 49.418C180.841 49.418 180.357 49.418 179.872 49.418C176.966 52.8051 157.105 50.3857 139.667 49.9018C126.588 49.418 113.024 48.4502 103.336 53.2889C97.5231 59.0954 86.8661 77.4825 81.5376 87.6438C94.1322 86.676 104.305 90.0631 112.54 92.4825Z" fill="white"/>
<path fill-rule="evenodd" clip-rule="evenodd" d="M240.908 148.129C229.282 142.323 228.313 135.065 218.625 127.323C217.656 127.807 216.687 127.807 216.203 127.323C218.141 125.871 220.563 123.936 224.438 128.291C223.469 123.452 215.234 121.033 209.421 124.42C207.484 122.484 207.484 120.549 207.484 118.613C205.546 121.517 204.577 124.42 204.577 127.807C201.671 126.839 198.28 127.323 194.889 129.742C190.529 133.129 191.498 133.613 186.17 135.549C187.139 136.033 189.561 136.033 190.529 135.065C188.592 137.968 183.748 139.42 180.357 138.452C180.841 140.387 183.748 141.355 186.17 140.871C184.232 142.323 182.294 144.258 176.966 143.291C178.419 144.742 180.841 146.194 183.748 146.194C182.779 147.162 181.81 148.129 181.326 149.097C187.623 151.033 188.107 153.936 187.139 156.839V161.678C187.139 161.678 187.623 161.678 187.623 162.646C187.623 164.097 185.685 165.549 182.294 166.516C181.326 166.516 180.357 167 178.904 167C179.872 167.968 180.357 168.936 180.357 170.387L178.419 191.194C178.419 193.129 177.935 194.581 176.966 195.549C175.997 196.516 175.028 197.484 172.606 197.484C170.669 197.484 166.793 196.516 166.793 190.226L167.762 174.742C165.34 174.258 161.949 174.258 159.043 173.291C158.278 173.036 159.043 173.291 157.59 172.807V191.194C157.59 194.581 155.168 197 151.777 197C148.386 196.516 146.933 194.581 146.448 190.71L145.964 172.807C144.675 172.551 144.936 172.618 142.573 172.323C138.698 171.839 135.791 171.839 133.369 171.355C133.369 171.355 133.369 171.355 132.885 171.355C129.978 170.871 128.041 169.42 127.072 167.484C126.588 166.517 126.588 166.033 126.103 165.065C125.134 165.065 124.166 165.065 123.681 165.549C121.743 166.033 119.806 167 118.353 167.968C111.571 163.129 101.883 160.71 94.1322 165.065C84.9285 169.904 87.3505 178.613 76.6935 180.549C82.5064 182.968 90.2569 180.065 93.1634 173.775C91.7102 181.033 75.7247 190.226 69.9118 177.162C67.4898 179.581 69.4274 184.904 72.3338 186.355C67.4898 187.807 65.5521 184.904 64.0989 182C63.6145 196.033 73.3027 203.775 88.3193 196.516C86.8661 199.42 81.5376 202.807 73.3027 202.323C92.1946 207.646 102.367 191.194 102.852 183.936C103.336 186.839 102.852 189.258 101.398 192.646C113.509 186.355 103.336 172.807 113.993 171.839C114.477 171.839 114.962 171.839 115.446 171.839C113.024 174.742 111.086 179.097 111.086 183.936C111.086 187.807 112.055 190.71 114.477 193.613C111.571 201.839 110.118 210.549 105.758 217.323C104.789 221.678 106.727 226.516 107.696 231.839C109.633 242 107.696 247.323 107.696 253.613H114.962C115.931 246.355 116.415 235.71 115.446 221.678C121.743 216.355 128.041 208.613 131.432 200.387C152.261 201.839 158.074 205.71 182.779 206.678C184.716 212 188.592 217.807 192.951 221.194C195.858 228.936 194.889 241.516 195.858 252.162H200.702C200.218 239.581 200.702 230.387 201.186 220.71C198.764 212.484 197.311 205.71 197.311 199.904C199.249 197.484 200.702 194.581 201.186 191.194C202.64 174.742 204.093 155.871 209.421 150.065C216.203 149.581 224.922 155.871 237.033 157.807C238.486 156.839 238.486 154.904 238.486 152.484C239.939 151.517 240.908 151.033 240.908 148.129Z" fill="white"/>
<path fill-rule="evenodd" clip-rule="evenodd" d="M176.966 168.451C175.028 168.451 174.059 168.451 170.669 167.967C165.34 167.483 160.98 165.548 160.496 162.161C160.496 162.161 160.98 155.87 161.465 152.483L160.496 151.032C160.496 151.032 159.043 145.225 159.527 144.258C159.527 143.774 160.012 143.774 160.496 143.29L161.949 149.096C161.949 150.064 162.434 150.548 163.402 151.032C163.887 151.516 164.856 152 165.824 152H172.606C174.544 152 175.513 150.548 175.513 149.096C175.513 147.161 174.059 146.193 172.122 146.677H168.246L166.65 139.119C166.388 138.597 166.388 138.858 166.309 138.451C165.836 136.029 164.371 134.096 161.465 133.129C158.074 132.645 156.136 133.612 153.714 137C152.261 138.935 150.323 142.806 149.355 146.677C149.839 146.677 149.839 147.161 150.323 147.645C151.292 148.612 151.777 150.064 151.777 151.516C151.777 152.967 150.808 154.419 149.839 155.387C149.355 155.87 148.87 156.354 147.901 156.354C147.901 156.838 147.901 156.838 147.901 157.322C147.901 158.29 147.901 159.128 147.901 160.095C149.355 160.579 151.07 161.097 152.523 161.581C155.914 162.548 157.232 164.27 157.232 165.237C157.367 165.898 157.395 167 157.395 167.967L157.493 171.244C158.405 171.396 158.558 171.838 159.043 171.838C163.402 172.806 169.215 173.29 169.7 173.29L168.731 191.193C168.731 194.58 170.184 196.032 172.606 196.516C175.028 196.516 176.481 195.064 176.481 192.161L178.419 170.87C178.419 169.419 176.966 168.451 176.966 168.451Z" fill="white"/>
<path fill-rule="evenodd" clip-rule="evenodd" d="M155.924 166.024C155.924 166.024 155.245 164.099 153.308 163.615C148.948 162.164 145.073 161.196 141.198 160.228C141.198 159.26 141.198 157.77 141.198 156.319L137.322 155.835C134.416 155.351 132.963 153.938 132.963 151.519C132.963 150.551 133.931 149.583 134.9 149.099C134.416 149.583 133.931 149.545 133.931 150.512C133.931 152.448 135.385 153.899 137.322 153.899L146.526 154.383C148.464 154.383 150.401 153.416 150.401 151.48C150.401 149.545 148.948 148.093 147.01 148.093L141.682 147.609V147.125C142.166 144.222 143.135 142.325 144.104 140.873C145.557 138.454 144.588 133.131 140.229 132.164C136.838 131.68 134.9 132.648 132.478 136.035C129.087 139.906 125.696 153.938 127.15 162.648C127.634 165.067 128.119 168.938 132.963 169.906H133.447C136.838 170.873 141.682 170.873 147.01 171.357H147.495L148.464 191.196C148.948 194.583 149.917 195.067 151.855 195.551C154.277 195.551 155.245 194.099 155.245 191.68L155.924 168.374C156.214 166.807 155.924 166.024 155.924 166.024Z" fill="white"/>
<path fill-rule="evenodd" clip-rule="evenodd" d="M141.197 128.294C144.104 130.714 148.463 130.714 150.886 127.811C153.308 124.907 153.308 120.553 150.401 118.133C147.495 115.714 143.135 115.714 140.713 118.617C137.807 121.036 138.291 125.391 141.197 128.294Z" fill="white"/>
<path d="M180.318 161.64C180.318 161.156 179.834 160.672 179.349 160.672C178.865 160.672 178.38 161.156 178.38 161.64V164.543C178.38 165.027 178.865 165.511 179.349 165.511C179.834 165.511 180.318 165.027 180.318 164.543V161.64Z" fill="white"/>
<path d="M184.678 160.19C184.678 159.707 184.193 159.223 183.709 159.223C183.225 159.223 182.74 159.707 182.74 160.19V163.094C182.74 163.578 183.225 164.061 183.709 164.061C184.193 164.061 184.678 163.578 184.678 163.094V160.19Z" fill="white"/>
<path d="M168.692 160.672C168.208 160.672 167.724 161.156 167.724 161.64V164.543V165.027C168.208 165.027 168.692 165.027 169.177 165.027L169.661 164.543V161.64C169.661 161.156 169.177 160.672 168.692 160.672Z" fill="white"/>
</svg>
