<?xml version="1.0" encoding="UTF-8"?>
<svg id="_Слой_1" data-name="Слой_1" xmlns="http://www.w3.org/2000/svg" version="1.1" viewBox="0 0 1906 231.9">
  <!-- Generator: Adobe Illustrator 29.5.1, SVG Export Plug-In . SVG Version: 2.1.0 Build 141)  -->
  <path d="M763.5,53.9c0,0,0-.1,0-.2-1.5-4.7-3.4-9.3-5.8-13.5-.8-1.3-1.6-2.6-2.4-3.8-7.4-10.6-17.6-18.6-30.7-23.9-10.4-4.3-22-6.8-34.8-7.7-3.2-.2-6.5-.3-9.8-.3h-69.4v223h41.1v-82.6h28.3c3.8,0,7.6-.2,11.2-.5h0c12-1,23.1-3.6,33.2-7.9,13.2-5.6,23.4-13.6,30.8-24.3,7.4-10.6,11.1-23,11.1-37.7s-.9-14.2-2.7-20.6ZM688.4,110.2c-.6,0-36.8,0-36.8,0V39.3h36.8c20.3,0,36.8,15.1,36.8,35.4s-16.5,35.5-36.8,35.5Z"/>
  <path d="M153,53.9c0,0-2.7-8.1-5.9-13.7s-14.1-19.9-33.1-27.7c-10.4-4.3-22-6.8-34.8-7.7-3.2-.2-6.5-.3-9.8-.3H0v223h41.1v-82.6h28.3c3.8,0,7.6-.2,11.2-.5h0c19.1-1.6,47.5-8.5,64-32.2s11.1-23,11.1-37.7-.9-14.2-2.7-20.6ZM77.9,110.2c-.6,0-36.8,0-36.8,0V39.2h36.8c20.3,0,36.8,15.1,36.8,35.4s-16.5,35.5-36.8,35.5Z"/>
  <path d="M335.7,4.5v34.3h-110.5v59.5h103.6v34.7h-103.6v60.1h113.4v34.2h0s0,.2,0,.2h0c0,.1-154.3.1-154.3.1V4.5h151.6Z"/>
  <path d="M469.5,0c21.6,0,41.5,4.9,58.5,14.8,16.7,9.7,29.8,23.2,39.4,40.4l.5.8h0s.4.8.4.8c9.2,17.4,13.8,37.3,13.8,59.6s-4.8,42.8-14.3,60.3c-9.4,17.3-22.4,30.7-39.1,40.3l-.8.5c-17.1,9.6-36.6,14.4-58.4,14.4s-40.1-4.7-56.9-14l-.8-.4c-17.1-9.6-30.5-23.2-40.1-40.7-9.6-17.5-14.4-37.6-14.4-60.3s4.8-42.8,14.4-60.5c9.6-17.6,23-31.4,39.9-41.2h0l.8-.5C429.2,4.8,448.3,0,469.5,0ZM469.6,35.7c-14.3,0-26.3,3.4-36.7,10.2h0c-10.4,6.8-18.4,16.3-23.9,28.5-5.5,12.3-8.3,26.2-8.3,42s2.7,29.2,8.1,41.1l.3.6h0s.3.6.3.6c5.5,11.8,13.5,20.9,23.8,27.5,10.5,6.7,22.7,10,36.5,10s26.2-3.3,36.4-9.7l.5-.3c10.3-6.7,18.3-16.1,23.9-28.1,5.6-12,8.4-25.9,8.4-41.7s-2.9-29.7-8.4-41.9h0c-5.6-12.1-13.6-21.7-23.9-28.5-10.3-6.9-22.6-10.4-36.9-10.4Z"/>
  <path d="M835.8,4.5v188.6h103.5s0,34.3,0,34.3h-144.5V4.5h41.1Z"/>
  <path d="M1333.3,4.5v34.7h-72.1c0,0-.3,188.3-.3,188.3h-41.1V39.2c0,0-72.3,0-72.3,0V4.5h185.8Z"/>
  <path d="M1439.9,4.5h0c0,.1,81.9,212.6,85.8,222.7v.3c.1,0-43.9,0-43.9,0h0c-2.6-6.9-5.3-14.2-8-21.8,0,0-11.3-31.4-12.8-35.6h-90.9c-2.2,6.1-16.1,45.9-20.4,57.2h0c0,.1-41.8.1-41.8.1v-.3c4.3-11.3,84-222.6,84-222.6h0c0-.1,48-.1,48-.1ZM1382.6,135.5h65.4l-32.5-89.2h-.9l-32,89.2Z"/>
  <path d="M1595.3,4.5v188.6h103.5v34.3h-144.5V4.5h41.1Z"/>
  <path d="M1767.7,4.5v94l85.1-93.9h0c0,0,50.6,0,50.6,0l-.4.4-100.1,107.4,102.7,114.9.3.4h-50.6c0,0-87.7-100.8-87.7-100.8v100.8h-41.1V4.5h41.1Z"/>
  <path d="M1119,4.5v34.3h-110.5v59.5h103.6v34.7h-103.6v60.1h113.4v34.2h0s0,.2,0,.2h0c0,.1-154.3.1-154.3.1V4.5h151.6Z"/>
</svg>