<svg xmlns="http://www.w3.org/2000/svg" width="234" height="26" viewBox="0 0 234 26" fill="none">
  <g clip-path="url(#clip0_451_3220)">
    <path d="M233.263 15.5997C233.263 17.9311 232.2 19.681 230.068 20.8606C228.374 21.8186 226.264 22.2949 223.733 22.2949C220.925 22.2949 218.383 21.7466 216.113 20.6502C215.155 20.1905 214.551 19.9635 214.291 19.9635C213.992 19.9635 213.643 20.1518 213.244 20.5283L212.823 20.3179L215.277 14.6416L215.698 14.8521C215.659 15.0514 215.637 15.1622 215.637 15.1788C215.637 16.0538 216.345 16.8235 217.752 17.477C218.727 17.9532 219.818 18.291 221.03 18.4904C221.966 18.651 222.841 18.7285 223.655 18.7285C224.929 18.7285 226.009 18.5181 226.906 18.1028C228.075 17.5656 228.662 16.7405 228.662 15.6218C228.662 13.6116 227.033 12.6037 223.783 12.6037C222.969 12.6037 222.432 12.6314 222.177 12.6923C221.54 12.8308 221.163 13.163 221.047 13.6781H220.571V8.56666H221.047C221.191 9.10383 221.551 9.44164 222.127 9.58008C222.365 9.641 222.897 9.66869 223.716 9.66869C226.762 9.66869 228.279 8.74387 228.279 6.88871C228.279 5.03354 226.751 4.19734 223.7 4.19734C221.501 4.19734 219.679 4.6459 218.245 5.54302C217.481 6.01927 217.104 6.48999 217.104 6.94962C217.104 7.17114 217.165 7.39819 217.281 7.63631L216.921 7.93535L213.394 3.60479L213.781 3.30575C214.158 3.48296 214.44 3.5771 214.618 3.5771C214.817 3.5771 215.094 3.45527 215.454 3.21714C218.084 1.50596 220.942 0.647602 224.032 0.647602C226.28 0.647602 228.158 1.07401 229.647 1.93237C231.502 3.00671 232.427 4.57944 232.427 6.65058C232.427 8.46145 231.552 9.89574 229.797 10.9535C232.106 11.7897 233.263 13.3347 233.263 15.5831M204.965 21.9349H198.569V21.4587C199.228 21.2593 199.555 20.8938 199.555 20.3511V6.99393L198.093 7.44249C197.517 7.6197 197.146 8.00181 196.985 8.57774H196.509V2.99009H196.985C197.162 3.60479 197.434 3.91491 197.794 3.91491C198.054 3.91491 198.641 3.7377 199.555 3.37774V2.63014C199.555 2.01544 199.228 1.63333 198.569 1.49489V1.01863H204.965V1.49489C204.306 1.63333 203.98 2.01544 203.98 2.63014V20.3511C203.98 20.8883 204.306 21.2593 204.965 21.4587V21.9349ZM193.131 19.7807C193.131 20.4785 192.887 21.071 192.4 21.5584C191.913 22.0457 191.32 22.2893 190.622 22.2893C189.925 22.2893 189.354 22.0401 188.861 21.5417C188.363 21.0433 188.114 20.4563 188.114 19.7807C188.114 19.1051 188.363 18.5181 188.861 18.0197C189.36 17.5213 189.947 17.2721 190.622 17.2721C191.337 17.2721 191.935 17.5102 192.417 17.9865C192.893 18.4627 193.131 19.0608 193.131 19.7807ZM191.276 4.03674L181.834 19.5426C181.457 20.1628 181.269 20.5505 181.269 20.7055C181.269 20.9824 181.557 21.2316 182.138 21.4531V21.9294H174.668V21.4531C175.449 21.215 176.158 20.5837 176.8 19.5481L186.126 4.45207H173.084C172.508 4.45207 172.126 4.7788 171.949 5.4378H171.473V-0.000321569H171.949C172.109 0.675291 172.486 1.01863 173.084 1.01863H189.67C190.268 1.01863 190.644 0.680829 190.805 -0.000321569H191.281V4.03674H191.276ZM156.88 22.9207H156.404C156.205 22.2617 155.834 21.9349 155.297 21.9349H136.291V21.4587C136.928 21.2372 137.249 20.8717 137.249 20.3511V2.63014C137.249 2.07082 136.928 1.70532 136.291 1.52257V1.0131H154.909C155.468 1.0131 155.834 0.675291 156.017 -0.00585938H156.526V5.43227H156.017C155.839 4.77327 155.468 4.44654 154.909 4.44654H141.79V9.40841H150.335C150.872 9.40841 151.232 9.08722 151.409 8.45037H151.919V13.7113H151.409C151.232 13.0523 150.872 12.7256 150.335 12.7256H141.79V18.4904H155.297C155.834 18.4904 156.205 18.1637 156.404 17.5047H156.88V22.9151V22.9207ZM132.885 1.52257C132.248 1.69978 131.927 2.07082 131.927 2.63014V14.3426C131.927 17.5324 130.941 19.7198 128.97 20.916C127.458 21.8297 124.983 22.2893 121.56 22.2893C118.138 22.2893 115.784 21.8131 114.212 20.8551C112.201 19.6201 111.194 17.4493 111.194 14.3426V2.63014C111.194 2.07082 110.867 1.70532 110.208 1.52257V1.0131H116.781V1.52257C116.122 1.69978 115.796 2.07082 115.796 2.63014V13.0301C115.796 15.2397 116.233 16.746 117.102 17.5434C117.977 18.3409 119.528 18.7396 121.754 18.7396C123.98 18.7396 125.581 18.3464 126.434 17.5601C127.286 16.7737 127.713 15.2619 127.713 13.0301V2.63014C127.713 2.07082 127.386 1.70532 126.727 1.52257V1.0131H132.885V1.52257ZM102.676 11.4352C102.676 9.29765 101.979 7.54771 100.583 6.19095C99.1876 4.82865 97.4266 4.15303 95.2946 4.15303C93.1625 4.15303 91.407 4.83418 90.0336 6.20202C88.6603 7.56432 87.9736 9.30873 87.9736 11.4242C87.9736 13.5396 88.6603 15.3117 90.0336 16.6796C91.407 18.0474 93.1625 18.7341 95.2946 18.7341C96.2914 18.7341 97.2383 18.5735 98.1355 18.2578C97.1774 16.6851 95.804 15.6883 94.0098 15.2674V14.8521C94.7685 14.2761 95.6047 13.9882 96.5184 13.9882C97.7533 13.9882 99.2596 14.7136 101.032 16.1701C102.128 14.7912 102.676 13.2184 102.676 11.4408V11.4352ZM107.904 21.9349L103.424 25.9997L103.097 25.6397C103.297 25.3185 103.396 25.0638 103.396 24.8644C103.396 24.6651 102.51 23.5077 100.738 21.3978C99.243 21.9958 97.3989 22.2949 95.2115 22.2949C91.8223 22.2949 89.0258 21.3479 86.8162 19.454C84.4681 17.4438 83.2886 14.7745 83.2886 11.4463C83.2886 8.1181 84.4737 5.43227 86.8439 3.43866C89.0535 1.58349 91.8722 0.658677 95.3001 0.658677C98.728 0.658677 101.558 1.58349 103.784 3.43866C106.176 5.43227 107.373 8.10149 107.373 11.4463C107.373 14.4921 106.276 17.0949 104.083 19.2436L105.667 20.916C106.182 21.4753 106.592 21.7522 106.891 21.7522C107.051 21.7522 107.278 21.6913 107.577 21.575L107.904 21.9349ZM79.9659 21.9349H73.4811V21.4587C74.118 21.2372 74.4392 20.8717 74.4392 20.3511V2.63014C74.4392 2.07082 74.118 1.70532 73.4811 1.52257V1.0131H79.9659V1.52257C79.3069 1.69978 78.9802 2.07082 78.9802 2.63014V20.3511C78.9802 20.8883 79.3069 21.2593 79.9659 21.4587V21.9349ZM70.2803 15.5C70.2803 17.848 69.1838 19.6257 66.9908 20.8274C65.2187 21.802 63.059 22.2893 60.5061 22.2893C57.7759 22.2893 55.0458 21.6303 52.3157 20.3179C51.7397 20.041 51.3908 19.9025 51.269 19.9025C51.1472 19.9025 50.9423 20.0244 50.6432 20.2625L50.1947 20.0244L52.4652 14.8853L52.9137 15.0957C52.9137 16.231 53.9493 17.1669 56.0204 17.9034C57.6319 18.4627 59.1604 18.7396 60.5947 18.7396C61.7299 18.7396 62.7987 18.5513 63.79 18.1748C65.1467 17.6764 65.8224 16.9564 65.8224 16.0205C65.8224 15.6994 65.7725 15.4225 65.6728 15.1843C65.3959 14.5475 64.377 14.0768 62.627 13.7777C62.4664 13.7556 61.3201 13.6393 59.1881 13.4178C56.4413 13.1409 54.3812 12.565 53.0189 11.7011C51.6567 10.8372 50.97 9.37518 50.97 7.3262C50.97 5.01693 51.9335 3.27252 53.8662 2.09851C55.4611 1.14047 57.4935 0.664215 59.9634 0.664215C62.0179 0.664215 63.9783 1.0131 65.85 1.71086C67.9821 2.5083 69.0675 2.90703 69.1063 2.90703C69.2835 2.90703 69.5327 2.79627 69.8539 2.5803L70.2692 2.79073L67.7883 7.71938L67.3674 7.48125C67.3674 7.07699 67.312 6.79457 67.2013 6.63397C67.0905 6.47337 66.8468 6.27401 66.4703 6.03035C64.5985 4.78434 62.4664 4.16411 60.0741 4.16411C56.8068 4.16411 55.1732 4.97263 55.1732 6.58967C55.1732 7.30404 55.4556 7.81906 56.026 8.12918C56.5908 8.43929 57.8424 8.69403 59.7751 8.89339C63.1642 9.2312 65.4513 9.65207 66.6475 10.1505C69.0564 11.1473 70.2637 12.936 70.2637 15.5111L70.2803 15.5ZM39.2686 13.7168L35.9514 6.36816H35.8905L32.4737 13.7168H39.2686ZM49.0373 21.9349H41.3563V21.4587C42.0153 21.3202 42.3421 21.0046 42.3421 20.5062C42.3421 20.2902 42.2368 19.969 42.0264 19.5537L40.6253 16.5854H31.1003L29.6882 19.5371C29.4944 19.9524 29.4002 20.2847 29.4002 20.5228C29.4002 20.9437 29.7491 21.2538 30.4469 21.4531V21.9294H23.5135V21.4531C24.1725 21.3147 24.7263 20.7664 25.1859 19.8084L32.8669 3.73216C33.105 3.23376 33.2268 2.82396 33.2268 2.5083C33.2268 2.03205 32.9389 1.69978 32.3629 1.52257V1.0131H39.7725V1.52257C39.1578 1.66102 38.8477 1.94899 38.8477 2.39201C38.8477 2.6689 38.9474 3.00671 39.1467 3.40543L47.1267 19.5426C47.686 20.7 48.3229 21.3368 49.0373 21.4531V21.9294V21.9349ZM17.4496 15.6274C17.4496 14.47 17.0121 13.6725 16.1316 13.235C15.5114 12.936 14.5644 12.7865 13.2907 12.7865H5.4935V18.4959H13.2907C14.5644 18.4959 15.5114 18.3464 16.1316 18.0474C17.0066 17.6099 17.4496 16.8014 17.4496 15.6274ZM16.9125 6.89978C16.9125 5.90298 16.5636 5.22737 15.8658 4.86741C15.3674 4.59052 14.5921 4.44654 13.5344 4.44654H5.49904V9.31981H13.5344C14.57 9.31981 15.3453 9.19244 15.8658 8.93216C16.5636 8.55559 16.9125 7.87444 16.9125 6.89978ZM22.1125 15.9264C22.1125 19.9302 19.5042 21.9349 14.282 21.9349H0V21.4587C0.636848 21.2593 0.95804 20.8938 0.95804 20.3511V2.63014C0.95804 2.07082 0.636848 1.70532 0 1.52257V1.0131H14.1657C16.4196 1.0131 18.1972 1.42289 19.4986 2.23695C20.8055 3.05101 21.4535 4.4853 21.4535 6.53983C21.4535 8.59435 20.5065 10.0674 18.6126 10.9645C20.944 11.8617 22.1069 13.5119 22.1069 15.9264H22.1125Z" fill="white"/>
  </g>
  <defs>
    <clipPath id="clip0_451_3220">
      <rect width="233.263" height="26" fill="white"/>
    </clipPath>
  </defs>
</svg>