<svg xmlns="http://www.w3.org/2000/svg" width="254" height="36" viewBox="0 0 254 36" fill="none">
  <path d="M0 28H24.7141V20.6598H10.9202V18.0175H24.1394V10.6773H10.9202V8.32842H25.0015V0.988281H0V28Z" fill="#232323"/>
  <path d="M82.1885 6.27319V0.988281H59.1986V6.27319H73.8546L58.3364 23.0087V28H83.338V22.7151H66.9577L82.1885 6.27319Z" fill="#232323"/>
  <path d="M104.891 0.988281C102.305 5.09876 98.8566 10.3837 97.4197 13.0261C95.9827 10.3837 92.5343 5.09876 89.948 0.988281H89.3731H83.3384L94.2585 17.4302C94.2585 17.4302 94.2585 17.4302 94.2585 17.7238V18.0175C94.2585 18.0175 94.2585 18.0175 94.2585 18.311V28H99.7186V18.311C99.7186 18.311 99.7186 18.311 99.7186 18.0175V17.7238C99.7186 17.7238 99.7186 17.7238 99.7186 17.4302L111.501 0.988281H105.466H104.891Z" fill="#232323"/>
  <path d="M147.136 0.988281C145.986 4.51155 144.262 10.0901 143.112 14.7877C141.962 18.311 141.101 21.5406 140.814 23.5959C139.951 19.1918 136.215 7.4476 134.204 1.28189H129.893C127.881 7.74121 124.146 19.4855 123.284 23.5959C122.996 21.8343 122.134 18.6046 120.985 14.7877C119.548 10.0901 118.111 4.80516 116.961 0.988281H116.674H112.363L120.697 28H121.272H125.295H125.87C127.594 22.4216 131.043 11.2645 132.192 6.8604C133.342 11.2645 136.503 22.4216 138.226 28H138.801H142.825H143.4L151.446 0.988281H147.136Z" fill="#232323"/>
  <path d="M192.253 0.988281C188.804 5.68598 184.206 12.1453 182.77 14.4942C181.333 12.1453 176.734 5.39237 173.573 0.988281H173.286H169.837L181.045 16.843C181.045 17.1365 181.333 17.1365 181.333 17.4302V27.7064H184.206V17.4302C184.206 17.1365 184.206 17.1365 184.493 16.843L195.701 0.988281H192.253Z" fill="#232323"/>
  <path d="M164.09 0.988281H163.515H160.067H159.492L147.709 28H148.284H151.733H152.02L155.181 19.7791H168.112L170.987 25.9447L171.848 27.7064H176.159L164.09 0.988281ZM156.619 16.5494C156.906 16.2557 156.906 15.6685 157.192 15.375L161.791 5.09876L166.676 16.5494H156.619Z" fill="#232323"/>
  <path d="M46.8423 0.988281H41.3822H35.922L26.1514 28H34.7725L36.4968 23.0087H46.5549L48.2791 28H56.9003L46.8423 0.988281ZM38.221 16.843C39.3705 13.3197 40.2327 10.0901 41.0947 8.03481L41.3822 6.8604L41.6696 8.03481C42.2442 10.3837 43.3938 13.6133 44.5433 16.843H38.221Z" fill="#232323"/>
</svg>