<svg xmlns="http://www.w3.org/2000/svg" width="177" height="35" viewBox="0 0 177 35" fill="none">
  <path fill-rule="evenodd" clip-rule="evenodd" d="M81.2771 1.85184L76.5195 5.11876L76.1519 4.54224L79.5802 0L81.2771 1.85184ZM5.77064 29.7679C4.89131 29.7679 4.45164 28.8725 4.45164 27.0819V9.70629C4.45164 7.91563 4.89131 7.02036 5.77064 7.02036L5.63877 6.78822H0.131901L0 7.02036C0.879337 7.02036 1.31901 7.91563 1.31901 9.70629V27.0819C1.31901 28.8725 0.879337 29.7679 0 29.7679L0.131901 30H5.63877L5.77064 29.7679ZM35.1721 7.02036L35.0402 6.78822H31.6768L31.5778 7.02036C32.4571 7.02036 32.8969 7.89353 32.8969 9.63993V25.3908L16.772 6.78822H10.5397L10.4078 7.02036C11.2871 7.02036 11.7268 7.91563 11.7268 9.70629V27.1151C11.7268 28.8836 11.2871 29.7679 10.4078 29.7679L10.5397 30H13.9031L14.0021 29.7679C13.1227 29.7679 12.6831 28.8836 12.6831 27.1151V7.74986H13.6394L32.8969 30H33.8531V9.70629C33.8531 7.91563 34.2928 7.02036 35.1721 7.02036ZM64.3828 6.78822L64.5147 7.02036C63.6355 7.02036 63.1959 7.91563 63.1959 9.70629V30H62.2398L42.9821 7.74986H42.0258V27.1151C42.0258 28.8836 42.4655 29.7679 43.3448 29.7679L43.2459 30H39.8824L39.7505 29.7679C40.6299 29.7679 41.0695 28.8836 41.0695 27.1151V9.70629C41.0695 7.91563 40.6299 7.02036 39.7505 7.02036L39.8824 6.78822H46.1147L62.2398 25.3908V9.63993C62.2398 7.89353 61.7996 7.02036 60.9205 7.02036L61.0194 6.78822H64.3828ZM88.9442 25.1587L88.6805 25.0592C88.4167 26.2087 87.9112 27.1593 87.1638 27.9109C86.416 28.6626 85.4049 29.0384 84.1301 29.0384H73.5451V16.4709H81.2941C83.0086 16.4709 83.8663 16.913 83.8663 17.7973L84.1301 17.6646V14.2823L83.8663 14.1497C83.8663 15.0339 82.9866 15.4761 81.2282 15.4761H73.5451V7.74986H82.6788C83.9542 7.74986 84.9653 8.12566 85.7126 8.87727C86.4599 9.62888 86.977 10.5795 87.2627 11.729L87.4935 11.6295L86.5369 6.78822H69.225L69.0931 7.02036C69.9728 7.02036 70.4124 7.91563 70.4124 9.70629V27.0819C70.4124 28.8725 69.9728 29.7679 69.0931 29.7679L69.225 30H87.9551L88.9442 25.1587ZM125.638 27.0819C125.77 27.4356 125.913 27.7783 126.067 28.1099C126.243 28.4194 126.518 28.7731 126.891 29.171C127.265 29.5689 127.65 29.7679 128.046 29.7679L127.914 30H122.275L122.143 29.7679C122.956 29.7679 123.099 29.0273 122.572 27.5461L116.372 10.9332L109.283 28.0767H108.327L101.138 10.9332L94.9387 27.5461C94.4111 29.0273 94.543 29.7679 95.3343 29.7679L95.2354 30H91.8719L91.74 29.7679C92.1357 29.7679 92.5203 29.5689 92.894 29.171C93.2676 28.7731 93.5314 28.4194 93.6853 28.1099C93.8611 27.7783 94.0155 27.4467 94.1474 27.1151L101.732 6.78822H102.688L109.942 24.1307L117.098 6.78822H118.054L125.638 27.0819ZM150.947 25.1587L150.683 25.0592C150.419 26.2087 149.914 27.1593 149.166 27.9109C148.418 28.6626 147.407 29.0384 146.132 29.0384H135.547V16.4709H143.297C145.011 16.4709 145.868 16.913 145.868 17.7973L146.132 17.6646V14.2823L145.868 14.1497C145.868 15.0339 144.989 15.4761 143.231 15.4761H135.547V7.74986H144.681C145.956 7.74986 146.968 8.12566 147.715 8.87727C148.462 9.62888 148.979 10.5795 149.265 11.729L149.496 11.6295L148.539 6.78822H131.227L131.096 7.02036C131.975 7.02036 132.414 7.91563 132.414 9.70629V27.0819C132.414 28.8725 131.975 29.7679 131.096 29.7679L131.227 30H149.958L150.947 25.1587Z" fill="#F8F6F5"/>
</svg>