<svg xmlns="http://www.w3.org/2000/svg" width="177" height="35" viewBox="0 0 177 35" fill="none">
  <path d="M28.5856 17.9555C28.5856 10.9749 33.8211 5.66016 40.9603 5.66016C48.9721 5.66016 53.0177 11.4509 53.0177 17.5589C53.0177 24.6188 47.6236 29.6956 40.9603 29.6956C33.2658 29.7749 28.5856 24.2222 28.5856 17.9555ZM49.5274 18.6694C49.5274 12.958 46.989 6.7707 40.3257 6.7707C36.6768 6.7707 31.9966 9.22978 31.9966 16.845C31.9966 22.0011 34.535 28.6644 41.3569 28.6644C45.5612 28.6644 49.5274 25.5707 49.5274 18.6694ZM11.3721 29.2196V28.3471C13.4346 28.1884 13.6726 27.9504 13.6726 25.3327V13.672C13.6726 12.3234 13.6726 12.2441 12.6413 12.2441H9.70632C8.75442 12.2441 8.67509 12.4028 8.67509 13.2753C8.67509 20.0973 7.80252 25.65 5.97805 28.3471C5.34345 29.299 4.62952 29.7749 3.99492 29.7749C3.20168 29.7749 2.6464 29.6163 2.3291 29.4576V28.9023C3.75695 28.0298 4.47087 27.0779 5.1848 25.5707C6.37467 23.2703 7.16792 19.0661 7.16792 13.8306C7.16792 12.4821 6.7713 12.1648 4.5502 12.0061V11.1336H19.2253V12.0061C17.1629 12.1648 16.9249 12.4028 16.9249 14.4652V25.3327C16.9249 27.9504 17.1629 28.1884 19.2253 28.3471V29.2196H11.3721ZM70.9451 29.2196C68.962 29.2196 68.1688 28.3471 67.3755 26.6813C66.9789 25.888 66.3443 24.3808 65.7097 22.7943C64.7578 20.4939 63.6472 20.018 62.0607 20.0973V25.4914C62.0607 28.0298 62.2987 28.2677 64.3612 28.4264V29.2196H56.4287V28.3471C58.5704 28.1884 58.8084 28.0298 58.8084 25.4914V14.7825C58.8084 12.3234 58.5704 12.1648 56.4287 12.0061V11.0542H64.3612V12.0061C62.2194 12.1648 62.0607 12.3234 62.0607 14.7825V18.9867C63.6472 18.9867 64.5991 18.7488 65.4717 17.7969C66.3443 17.0036 66.8996 15.8137 67.8515 13.5926C68.8034 11.4509 69.8346 10.6576 71.1831 10.6576C72.2143 10.6576 72.7696 11.2922 72.7696 12.0061C72.7696 12.5614 72.135 12.958 71.5797 12.958H71.0245C69.9139 12.958 69.2793 13.672 68.0101 16.2104C66.9789 18.3521 65.7097 19.0661 65.3131 19.304V19.3834C66.7409 19.78 67.8515 20.4939 68.8034 22.2391C69.2793 23.1116 69.9139 24.6188 70.7865 26.2846C71.659 27.9505 72.4523 28.2677 73.7215 28.4264V29.2196H70.9451ZM92.2835 24.4602C91.8869 25.8087 91.173 27.9504 90.697 28.9023C89.9038 29.061 87.4447 29.6163 85.4616 29.6163C78.243 29.6163 75.1493 24.7775 75.1493 20.3353C75.1493 14.5445 79.5915 10.5783 86.0962 10.5783C88.3966 10.5783 90.3797 11.1336 91.0937 11.3715C91.3316 12.8787 91.4903 14.1479 91.7282 15.8137L90.7763 15.9724C89.9038 12.7994 87.9207 11.6888 85.4616 11.6888C81.178 11.6888 78.8776 15.5758 78.8776 19.7007C78.8776 24.8568 81.7333 28.3471 85.6996 28.3471C88.2379 28.3471 89.9038 26.8399 91.2523 24.0635L92.2835 24.4602ZM106.086 29.2196V28.3471C108.228 28.1884 108.466 27.9505 108.466 25.4121V18.5901C108.466 17.6382 108.466 16.2897 108.624 13.5926H108.545L100.771 27.7918C100.533 28.1884 100.533 28.5057 100.533 28.9023V29.2196H94.5839V28.3471C96.7257 28.1884 96.9637 27.9504 96.9637 25.3327V14.8618C96.9637 12.3234 96.7257 12.1648 94.5839 12.0061V11.0542H102.437V12.0061C100.375 12.1648 100.137 12.3234 100.137 14.8618V20.9699C100.137 22.1597 100.137 23.5876 99.978 26.5226H100.057L107.831 12.4028C108.069 12.0061 108.148 11.6888 108.148 11.4509V11.1336H114.019V12.0855C111.877 12.2441 111.639 12.4821 111.639 15.0205V25.5707C111.639 28.1091 111.877 28.3471 114.019 28.5057V29.2196H106.086ZM131.946 15.6551C131.629 14.2272 131.311 13.3547 130.835 12.8787C130.359 12.3234 129.725 12.1648 127.9 12.1648H126.393V25.5707C126.393 27.8711 126.631 28.1091 129.17 28.3471V29.2196H120.444V28.3471C122.824 28.1884 123.141 27.9505 123.141 25.5707V12.1648H121.872C119.571 12.1648 119.016 12.4028 118.619 12.958C118.223 13.434 117.905 14.3066 117.588 15.6551H116.636C116.716 13.7513 116.954 11.7682 116.954 10.3403H117.588C117.985 10.9749 118.381 11.0542 119.175 11.0542H130.439C131.153 11.0542 131.47 10.8956 131.946 10.3403H132.581C132.581 11.5302 132.739 13.8306 132.898 15.5758L131.946 15.6551ZM143.845 29.2196V28.3471C145.511 28.1091 145.669 27.7918 145.273 26.6019C144.955 25.65 144.479 24.3808 144.003 23.0323H138.451C138.054 24.0635 137.657 25.0948 137.34 26.2846C136.864 27.7918 137.023 28.1091 139.006 28.3471V29.2196H132.819V28.3471C134.643 28.1091 134.96 27.8711 135.912 25.4121L141.624 10.9749L142.893 10.6576C144.717 15.4964 146.462 20.5732 148.287 25.3327C149.239 27.7918 149.556 28.1091 151.381 28.3471V29.2196H143.845ZM141.386 15.1791H141.306C140.513 17.3209 139.72 19.542 138.927 21.6045H143.527L141.386 15.1791ZM173.671 11.9268C171.45 12.0855 171.291 12.2441 171.291 14.6239V25.5707C171.291 27.9505 171.529 28.1091 173.671 28.2677V29.2196H165.5V28.3471C167.801 28.1884 167.959 27.9505 167.959 25.65V20.3353H159.63V25.65C159.63 28.0298 159.868 28.1884 162.01 28.3471V29.2196H153.998V28.3471C156.14 28.1884 156.378 27.9505 156.378 25.65V14.7032C156.378 12.3234 156.14 12.1648 153.919 12.0061V11.0542H161.931V12.0061C159.868 12.1648 159.63 12.3234 159.63 14.7032V18.9074H167.959V14.6239C167.959 12.2441 167.801 12.0855 165.659 11.9268V10.9749H173.671V11.9268ZM25.5713 12.2441C25.5713 14.3859 23.6675 15.8931 21.7637 16.369C21.5257 16.2104 21.5257 15.8931 21.605 15.6551C22.7949 15.1791 23.8261 14.3859 23.8261 13.1167C23.8261 12.1648 22.9536 11.7682 22.319 11.6888C21.9223 11.6095 21.4464 11.2922 21.4464 10.6576C21.4464 10.1817 21.7637 9.38843 23.0329 9.38843C24.3814 9.38843 25.5713 10.7369 25.5713 12.2441Z" fill="#001022"/>
</svg>