<svg xmlns="http://www.w3.org/2000/svg" width="101" height="35" viewBox="0 0 101 35" fill="none">
  <g clip-path="url(#clip0_373_8919)">
    <path d="M61.646 23.4653L73.1824 34.9865H77.0043L65.4678 23.4653H61.646Z" fill="#010101"/>
    <path d="M69.0474 12.0445C71.2832 12.0445 73.098 13.8546 73.1003 16.0876C73.1003 16.5447 73.0225 16.9812 72.8829 17.3903H75.6749C75.7573 16.9698 75.8008 16.5355 75.8031 16.0921V16.0876V16.083C75.7962 12.3668 72.7822 9.35451 69.0611 9.34766H55.5702H55.5474V35H58.2501V12.0445H69.0496H69.0474Z" fill="#010101"/>
    <path d="M33.7763 23.481H48.6654V20.7841H33.7763V12.0444H51.3362V9.34526H33.7763V9.33154H31.0713V34.9656H31.0736V34.9816H51.3362V32.2824H33.7763V23.481Z" fill="#010101"/>
    <path d="M82.5904 23.4558H97.459V20.7567H82.5904V12.0444H100.153V9.34521H79.8877V12.0444H79.89V20.7567H79.8877V23.4558H79.89V34.9793H82.5904V34.9427H100.153V32.2458H82.5904V23.4558Z" fill="#010101"/>
    <path d="M100.196 0H96.3745L89.6577 6.70791H93.4773L100.196 0Z" fill="#010101"/>
    <path d="M26.9591 9.34766H24.2563V34.9794H26.9591V9.34766Z" fill="#010101"/>
    <path d="M13.4725 20.5235L2.26564 9.30859H0V34.9404H2.63409V13.4019L12.6761 23.4535H14.2666L20.3587 17.3558H16.6353L13.4725 20.5235Z" fill="#010101"/>
  </g>
  <defs>
    <clipPath id="clip0_373_8919">
      <rect width="100.196" height="35" fill="white"/>
    </clipPath>
  </defs>
</svg>