<svg xmlns="http://www.w3.org/2000/svg" width="280" height="28" viewBox="0 0 280 28" fill="none">
  <path d="M217.264 0.541525L210.04 27.469H215.871L223.085 0.541525H217.264ZM207.312 0.541525L204.437 11.234H193.469L196.333 0.541525H190.512L183.3 27.469H189.121L192.11 16.3094H203.079L200.088 27.469H205.874L213.087 0.541525H207.312ZM169.57 22.8078C166.694 22.8078 164.594 22.0008 163.259 20.3549C161.981 18.6986 161.661 16.5749 162.346 14.0053C163.054 11.3826 164.503 9.26963 166.683 7.6132C168.897 5.96739 171.431 5.1498 174.295 5.1498C177.674 5.1498 180.115 6.58324 180.948 9.00417L186.678 6.34965C185.194 2.46341 181.041 0 175.688 0C171.248 0 167.219 1.3485 163.59 4.03489C159.961 6.68943 157.633 10.0448 156.571 14.0053C155.51 17.9658 156.058 21.2681 158.249 23.965C160.429 26.6621 163.738 28 168.178 28C173.576 28 178.997 25.5472 182.581 21.661L178.267 19.0064C176.246 21.353 172.937 22.8078 169.57 22.8078ZM139.543 0.541525L138.185 5.61699H146.117L140.262 27.469H146.083L151.938 5.61699H159.915L161.273 0.541525H139.543ZM137.387 5.61699L138.745 0.541525H120.69L113.465 27.469H131.737L133.095 22.3937H120.656L122.276 16.3519H133.449L134.796 11.3508H123.611L125.152 5.61699H137.387ZM114.162 3.15359C112.735 1.42283 110.646 0.541525 107.907 0.541525H96.0951L88.871 27.469H94.6915L97.2022 18.1146H101.63L105.077 27.469H111.354L107.542 17.3076C111.343 15.8847 114.447 12.8055 115.337 9.46074C115.999 6.99734 115.6 4.88434 114.162 3.15359ZM109.517 9.46074C108.935 11.6587 106.629 13.4638 104.438 13.4638H98.4463L100.58 5.5002H106.572C108.763 5.5002 110.11 7.27342 109.517 9.46074ZM72.4251 0.541525L71.0556 5.61699H78.9875L73.1329 27.469H78.9533L84.8194 5.61699H92.7855L94.1551 0.541525H72.4251ZM42.6722 0.541525L30.8257 13.2727L27.5959 6.04172L27.5732 6.02047C25.8156 2.49525 22.2092 0 18.0206 0C13.8322 0 11.4698 0.73265 9.18725 2.18734C6.90471 3.62078 5.44388 5.57452 4.79335 8.00607C4.14283 10.4589 4.61074 12.3064 6.09439 13.5381C7.63513 14.738 9.08453 15.3113 11.5497 16.044C13.7866 16.6598 15.2702 17.2332 16.0577 17.7747C16.8566 18.2738 17.1191 19.0064 16.868 19.9621C16.4229 21.6185 14.6197 22.8078 11.3785 22.8078C8.13727 22.8078 6.09439 21.4274 5.68355 18.6986L0 21.353C0.536398 25.4623 3.9488 28 9.81495 28C12.9763 28 15.7496 27.278 18.1234 25.8127C20.4972 24.3474 22.0379 22.3937 22.7113 19.8877C23.1222 18.348 23.0195 16.9996 22.6315 16.0758C22.3347 15.1521 21.239 14.1964 20.4858 13.6974C20.132 13.4213 19.5729 13.1559 18.8424 12.8904C18.1234 12.5825 17.5529 12.3489 17.1191 12.2321L15.2588 11.6162C13.2388 11.0004 11.9149 10.427 11.2415 9.92794C10.6252 9.38642 10.4312 8.69624 10.6595 7.84679C11.0818 6.27531 13.5127 5.0436 16.9023 5.0436C19.4815 5.0436 22.0379 7.80432 22.5972 10.1191L22.677 10.0766L28.0068 22.4998H28.6802L40.344 10.0023L35.6648 27.469H41.451L48.6638 0.541525H42.6722ZM65.7717 13.6974C65.4178 13.4213 64.8585 13.1559 64.1282 12.8904C63.4091 12.5825 62.8385 12.3489 62.4048 12.2321L60.5446 11.6162C58.513 11.0004 57.2007 10.427 56.5273 9.92794C55.9109 9.38642 55.717 8.69624 55.9452 7.84679C56.3675 6.27531 58.148 5.1498 60.556 5.1498C63.1239 5.1498 64.7103 6.30717 65.2808 8.62192L70.8617 6.04172C69.8574 2.22982 66.696 0 61.9369 0C59.2778 0 56.7555 0.73265 54.4729 2.18734C52.1904 3.62078 50.7295 5.57452 50.079 8.00607C49.4286 10.4589 49.8965 12.3064 51.3802 13.5381C52.9209 14.738 54.3702 15.3113 56.8355 16.044C59.0723 16.6598 60.5559 17.2332 61.3434 17.7747C62.1423 18.2738 62.4048 19.0064 62.1537 19.9621C61.7087 21.6185 59.9055 22.8078 56.6643 22.8078C53.423 22.8078 51.3802 21.4274 50.9693 18.6986L45.2858 21.353C45.8222 25.4623 49.2345 28 55.1007 28C58.262 28 61.0353 27.278 63.4091 25.8127C65.783 24.3474 67.3237 22.3937 67.9971 19.8877C68.4079 18.348 68.3051 16.9996 67.9171 16.0758C67.6205 15.1521 66.5248 14.1964 65.7717 13.6974ZM244.358 0.541525L239.953 16.9678L231.689 0.541525H227.262L220.048 27.469H225.869L230.286 11.0004L238.527 27.469H242.954L250.178 0.541525H244.358ZM265.186 13.0072L263.931 17.7004H272.879C270.961 20.8859 267.412 22.8078 262.892 22.8078C259.856 22.8078 257.632 22.0008 256.216 20.3549C254.845 18.6986 254.482 16.5749 255.166 14.0372C255.85 11.4676 257.311 9.34395 259.56 7.69814C261.832 5.99925 264.376 5.1498 267.206 5.1498C270.709 5.1498 273.334 6.68943 274.134 8.88737L279.818 6.27531C278.311 2.46341 274.157 0 268.634 0C264.24 0 260.211 1.3485 256.478 4.07736C252.803 6.80622 250.43 10.1191 249.38 14.0372C248.341 17.9233 248.934 21.2362 251.195 23.965C253.465 26.6621 256.9 28 261.453 28C265.723 28 269.546 26.8107 272.879 24.4323C276.222 22.0432 278.414 18.9215 279.44 15.0777L280 13.0072H265.186Z" fill="white"/>
</svg>