<svg xmlns="http://www.w3.org/2000/svg" width="136" height="22" viewBox="0 0 136 22" fill="none">
  <g clip-path="url(#clip0_373_8985)">
    <path d="M0.611784 0.322266H16.8311V2.91478L4.99321 18.1508H17.1219V21.662H0V19.1018L11.7895 3.83144H0.611784V0.322266Z" fill="white"/>
    <path d="M27.7986 0.274414H31.0998L40.119 21.6626H36.1253L33.9023 16.203H24.8022L22.5792 21.6626H18.8096L27.7986 0.274414ZM26.2196 12.6918H32.4687L29.3593 5.1061L26.2196 12.6918Z" fill="white"/>
    <path d="M41.7463 5.87959C41.7463 2.67529 44.2419 0 48.3972 0C51.022 0 53.2127 0.88638 54.4848 2.28763L52.4717 5.09012C51.44 4.07452 50.4102 3.49504 48.7021 3.49504C46.8344 3.49504 45.7219 4.44603 45.7219 5.84728C45.7219 10.261 55.3853 8.85977 55.3853 15.9609C55.3853 19.5529 52.2456 22 48.2498 22C45.5119 22 42.3076 20.8087 41.2759 18.6503L43.402 16.0901C44.6579 17.7014 46.6709 18.4908 48.3144 18.4908C50.0852 18.4908 51.4238 17.6044 51.4238 15.9952C51.4077 11.7915 41.7443 12.8232 41.7443 5.88161L41.7463 5.87959Z" fill="white"/>
    <path d="M59.2706 21.6622V0.322423C60.4618 0.322423 63.8438 0.257812 65.342 0.257812C71.6234 0.257812 73.6041 3.60748 73.6041 7.11868C73.6041 10.6299 70.8985 14.0442 65.7922 14.0442C65.1643 14.0442 63.9407 14.0442 63.022 13.9472V21.6622H59.2686H59.2706ZM63.0059 3.8316V10.3876C63.8923 10.4845 64.8089 10.533 65.663 10.533C67.886 10.533 69.6245 9.47092 69.6245 7.08637C69.6245 4.86336 68.2555 3.76901 65.6953 3.76901C64.9382 3.76901 64.0195 3.80131 63.0059 3.83362V3.8316Z" fill="white"/>
    <path d="M86.8269 0C93.1567 0 97.9561 4.36527 97.9561 11C97.9561 17.6347 93.1729 22 86.8269 22C80.4809 22 75.73 17.6347 75.73 11C75.73 4.79938 80.2709 0 86.8269 0ZM86.8269 18.4888C91.3052 18.4888 93.9947 15.2037 93.9947 11C93.9947 6.57012 90.855 3.49504 86.8269 3.49504C82.7988 3.49504 79.6914 6.57214 79.6914 11C79.6914 15.4279 82.8311 18.4888 86.8269 18.4888Z" fill="white"/>
    <path d="M101.322 21.6622V0.322423C102.497 0.322423 107.201 0.257812 107.813 0.257812C113.628 0.257812 115.544 3.15723 115.544 6.8461C115.544 10.535 113.208 12.338 111.437 12.9498L118.104 21.6622H113.564L107.684 13.6747H105.059V21.6622H101.322ZM105.075 3.8316V10.1776H107.522C109.681 10.1776 111.597 9.08325 111.597 6.89254C111.597 5.2167 110.678 3.78314 107.635 3.78314C106.943 3.76699 106.089 3.7993 105.075 3.8316Z" fill="white"/>
    <path d="M117.541 0.322266H135.129V3.83346H128.204V21.662H124.45V3.83144H117.541V0.322266Z" fill="white"/>
  </g>
  <defs>
    <clipPath id="clip0_373_8985">
      <rect width="135.128" height="22" fill="white"/>
    </clipPath>
  </defs>
</svg>