<svg width="372" height="278" viewBox="0 0 372 278" fill="none" xmlns="http://www.w3.org/2000/svg">
<g clip-path="url(#clip0_655_27)">
<path d="M0.217319 145.246L240.095 275.203L370.443 34.6045C237.9 -37.2024 72.2014 12.3758 0.217319 145.246Z" fill="#E1AC54"/>
<path d="M139.876 67.4V63.8H145.276V89H141.496V67.4H139.876ZM152.119 85.4H154.819V67.4H152.119V85.4ZM156.943 89H149.995C148.987 89 148.339 88.316 148.339 87.344V65.456C148.339 64.484 148.987 63.8 149.995 63.8H156.943C157.951 63.8 158.599 64.484 158.599 65.456V87.344C158.599 88.316 157.951 89 156.943 89ZM165.249 85.4H167.949V67.4H165.249V85.4ZM170.073 89H163.125C162.117 89 161.469 88.316 161.469 87.344V65.456C161.469 64.484 162.117 63.8 163.125 63.8H170.073C171.081 63.8 171.729 64.484 171.729 65.456V87.344C171.729 88.316 171.081 89 170.073 89ZM186.764 67.4L185.54 89H180.536V85.4H181.976L183.2 63.8H192.416V89H188.636V67.4H186.764ZM195.305 89V63.8H204.665V67.4H199.085V73.52H204.485V77.12H199.085V85.4H204.665V89H195.305ZM206.66 67.4V63.8H217.64V67.4H214.04V89H210.26V67.4H206.66ZM65.2575 116.2L68.3535 101.8H72.9615V127H69.1815V116.2L69.7935 109H69.6135L66.9855 121.96H63.4575L60.7575 109H60.5775L61.2615 116.2V127H57.4815V101.8H62.0895L65.1495 116.2H65.2575ZM79.6299 123.4H83.4099V105.4H79.6299V123.4ZM85.5339 127H77.5059C76.4979 127 75.8499 126.316 75.8499 125.344V103.456C75.8499 102.484 76.4979 101.8 77.5059 101.8H85.5339C86.5419 101.8 87.1899 102.484 87.1899 103.456V125.344C87.1899 126.316 86.5419 127 85.5339 127ZM101.05 127H91.7259C90.7179 127 90.0699 126.316 90.0699 125.344V103.456C90.0699 102.484 90.7179 101.8 91.7259 101.8H101.05V109H97.2699V105.4H93.8499V123.4H97.2699V118.72H101.05V127ZM111.935 113.32L115.823 127H111.827L108.515 115.12H107.543V127H103.763V101.8H107.543V111.52H108.623L111.827 101.8H115.823L111.935 113.32ZM121.587 123.4H125.367V105.4H121.587V123.4ZM127.491 127H119.463C118.455 127 117.807 126.316 117.807 125.344V103.456C117.807 102.484 118.455 101.8 119.463 101.8H127.491C128.499 101.8 129.147 102.484 129.147 103.456V125.344C129.147 126.316 128.499 127 127.491 127ZM139.227 111.52V105.4H135.807V111.52H139.227ZM139.227 115.12H135.807V123.4H139.227V115.12ZM143.007 103.456V110.512C143.007 111.952 142.251 112.924 141.135 113.32C142.251 113.716 143.007 114.652 143.007 116.128V125.344C143.007 126.316 142.359 127 141.351 127H132.027V101.8H141.351C142.359 101.8 143.007 102.484 143.007 103.456ZM156.875 127H147.551C146.543 127 145.895 126.316 145.895 125.344V103.456C145.895 102.484 146.543 101.8 147.551 101.8H156.875V109H153.095V105.4H149.675V123.4H153.095V118.72H156.875V127ZM167.76 113.32L171.648 127H167.652L164.34 115.12H163.368V127H159.588V101.8H163.368V111.52H164.448L167.652 101.8H171.648L167.76 113.32ZM177.412 123.4H181.192V105.4H177.412V123.4ZM183.316 127H175.288C174.28 127 173.632 126.316 173.632 125.344V103.456C173.632 102.484 174.28 101.8 175.288 101.8H183.316C184.324 101.8 184.972 102.484 184.972 103.456V125.344C184.972 126.316 184.324 127 183.316 127ZM195.628 116.2L198.724 101.8H203.332V127H199.552V116.2L200.164 109H199.984L197.356 121.96H193.828L191.128 109H190.948L191.632 116.2V127H187.852V101.8H192.46L195.52 116.2H195.628ZM218.101 101.8L213.997 127H208.885V123.4H210.829L211.585 118.72H208.885L205.321 101.8H209.173L211.981 115.12H212.161L214.357 101.8H218.101ZM237.906 127H228.582C227.574 127 226.926 126.316 226.926 125.344V103.456C226.926 102.484 227.574 101.8 228.582 101.8H237.906V109H234.126V105.4H230.706V123.4H234.126V118.72H237.906V127ZM240.619 101.8H252.139V127H248.359V105.4H244.399V127H240.619V101.8ZM258.795 123.4H262.575V105.4H258.795V123.4ZM264.699 127H256.671C255.663 127 255.015 126.316 255.015 125.344V103.456C255.015 102.484 255.663 101.8 256.671 101.8H264.699C265.707 101.8 266.355 102.484 266.355 103.456V125.344C266.355 126.316 265.707 127 264.699 127ZM273.015 105.4V115.12H276.615V105.4H273.015ZM278.739 118.72H273.015V127H269.235V101.8H278.739C279.747 101.8 280.395 102.484 280.395 103.456V117.064C280.395 118.036 279.747 118.72 278.739 118.72ZM282.383 105.4V101.8H293.363V105.4H289.763V127H285.983V105.4H282.383ZM307.41 101.8L303.306 127H298.194V123.4H300.138L300.894 118.72H298.194L294.63 101.8H298.482L301.29 115.12H301.47L303.666 101.8H307.41Z" fill="white"/>
<rect x="125" y="143" width="93" height="27" rx="13.5" fill="#EE2C3C"/>
<path d="M141.632 157.43H143.088L143.354 155.4H141.898L141.632 157.43ZM141.142 161H140.302L140.666 158.256H139.518V157.43H140.792L141.058 155.4H139.854V154.574H141.184L141.548 151.9H142.36L142.01 154.574H143.466L143.83 151.9H144.656L144.306 154.574H145.454V155.4H144.18L143.928 157.43H145.132V158.256H143.802L143.438 161H142.598L142.962 158.256H141.506L141.142 161ZM147.303 151.564H148.507V155.75H148.885L152.119 151.564H153.589L150.019 155.89C151.573 156.1 152.175 157.052 152.665 158.326C153.015 159.292 153.281 160.16 153.701 161H152.385C152.049 160.356 151.783 159.516 151.531 158.774C151.097 157.528 150.495 156.674 148.899 156.674H148.507V161H147.303V151.564ZM158.733 151.41C161.309 151.41 162.975 153.384 162.975 156.184C162.975 159.432 161.001 161.154 158.593 161.154C156.101 161.154 154.351 159.222 154.351 156.366C154.351 153.37 156.213 151.41 158.733 151.41ZM158.677 152.404C156.661 152.404 155.653 154.266 155.653 156.338C155.653 158.354 156.745 160.16 158.663 160.16C160.595 160.16 161.687 158.382 161.687 156.24C161.687 154.364 160.707 152.404 158.677 152.404ZM164.843 151.564H166.061V155.512H170.625V151.564H171.857V161H170.625V156.576H166.061V161H164.843V151.564ZM174.256 151.564H175.474V159.978H179.8V151.564H181.032V160.006L181.858 160.034L181.774 163.268H180.808L180.724 161H174.256V151.564ZM188.555 155.568V156.576H184.887V159.978H188.975V161H183.669V151.564H188.765V152.586H184.887V155.568H188.555ZM190.84 161V151.676C191.428 151.578 192.198 151.494 193.178 151.494C194.382 151.494 195.264 151.774 195.824 152.278C196.342 152.726 196.65 153.412 196.65 154.252C196.65 155.106 196.398 155.778 195.922 156.268C195.278 156.954 194.228 157.304 193.038 157.304C192.674 157.304 192.338 157.29 192.058 157.22V161H190.84ZM192.058 152.558V156.226C192.324 156.296 192.66 156.324 193.066 156.324C194.536 156.324 195.432 155.61 195.432 154.308C195.432 153.062 194.55 152.46 193.206 152.46C192.674 152.46 192.268 152.502 192.058 152.558ZM200.363 161V152.6H197.493V151.564H204.479V152.6H201.595V161H200.363Z" fill="white"/>
</g>
<defs>
<clipPath id="clip0_655_27">
<rect width="372" height="278" fill="white"/>
</clipPath>
</defs>
</svg>
