<svg width="221" height="211" viewBox="0 0 221 211" fill="none" xmlns="http://www.w3.org/2000/svg">
<g clip-path="url(#clip0_664_39)">
<path d="M177.302 177.302C125.273 223.189 45.8894 218.212 0 166.182L188.422 -5.24871e-06C234.311 52.0308 229.33 131.414 177.302 177.302Z" fill="#EE2C3C"/>
<path d="M87.4429 108.35V116.4H88.9379V108.35H87.4429ZM92.8479 116.4V108.35H91.3529V116.4H92.8479ZM88.9379 118.7H86.0859C85.4419 118.7 85.0279 118.263 85.0279 117.642V107.108C85.0279 106.487 85.4419 106.05 86.0859 106.05H88.9379V104.67H91.3529V106.05H94.2049C94.8489 106.05 95.2629 106.487 95.2629 107.108V117.642C95.2629 118.263 94.8489 118.7 94.2049 118.7H91.3529V121.23H88.9379V118.7ZM96.9906 104.9H104.121V121H101.706V115.71H99.4056V121H96.9906V104.9ZM101.706 113.41V107.2H99.4056V113.41H101.706ZM111.023 104.9H113.438V121H111.023V113.41H108.378V121H105.963V104.9H108.378V111.11H111.023V104.9ZM115.618 113.732V111.708H120.218V113.732H115.618ZM127.004 111.11V107.2H124.819V111.11H127.004ZM127.004 113.41H124.819V118.7H127.004V113.41ZM129.419 105.958V110.466C129.419 111.386 128.936 112.007 128.223 112.26C128.936 112.513 129.419 113.111 129.419 114.054V119.942C129.419 120.563 129.005 121 128.361 121H122.404V104.9H128.361C129.005 104.9 129.419 105.337 129.419 105.958ZM138.279 121H132.322C131.678 121 131.264 120.563 131.264 119.942V105.958C131.264 105.337 131.678 104.9 132.322 104.9H138.279V109.5H135.864V107.2H133.679V118.7H135.864V115.71H138.279V121ZM139.552 107.2V104.9H146.567V107.2H144.267V121H141.852V107.2H139.552ZM150.367 107.2V113.41H152.667V107.2H150.367ZM154.024 115.71H150.367V121H147.952V104.9H154.024C154.668 104.9 155.082 105.337 155.082 105.958V114.652C155.082 115.273 154.668 115.71 154.024 115.71ZM156.812 121V104.9H162.792V107.2H159.227V111.11H162.677V113.41H159.227V118.7H162.792V121H156.812ZM164.412 114.652V104.9H166.827V113.41H169.127V104.9H171.542V121H169.127V115.71H165.47C164.826 115.71 164.412 115.273 164.412 114.652ZM180.862 121H178.447V111.984L175.802 117.527V121H173.387V104.9H175.802V113.088L178.447 107.545V104.9H180.862V121Z" fill="white"/>
<rect x="84" y="136" width="97" height="27" rx="13.5" fill="#E1AC54"/>
<path d="M95.632 150.43H97.088L97.354 148.4H95.898L95.632 150.43ZM95.142 154H94.302L94.666 151.256H93.518V150.43H94.792L95.058 148.4H93.854V147.574H95.184L95.548 144.9H96.36L96.01 147.574H97.466L97.83 144.9H98.656L98.306 147.574H99.454V148.4H98.18L97.928 150.43H99.132V151.256H97.802L97.438 154H96.598L96.962 151.256H95.506L95.142 154ZM101.961 144.564H107.505V154H106.273V145.586H103.151V148.442C103.151 150.486 103.067 152.768 101.737 153.664C101.387 153.888 100.841 154.112 100.295 154.112L100.141 153.132C100.519 153.062 100.911 152.838 101.135 152.628C101.891 151.886 101.961 150.052 101.961 148.54V144.564ZM109.895 144.564H111.043V148.54C111.043 150.038 111.015 151.27 110.931 152.53L110.959 152.544C111.435 151.564 112.023 150.542 112.709 149.422L115.761 144.564H116.979V154H115.831V149.982C115.831 148.456 115.845 147.336 115.943 146.146L115.901 146.132C115.439 147.168 114.795 148.26 114.151 149.31L111.197 154H109.895V144.564ZM119.238 144.564H120.456V147.56C120.456 148.848 121.128 149.576 122.458 149.576C123.116 149.576 123.83 149.352 124.32 149.044V144.564H125.552V154H124.32V149.996H124.292C123.634 150.374 122.85 150.584 122.024 150.584C120.778 150.584 119.238 150.052 119.238 147.742V144.564ZM127.942 144.564H129.16V148.512H133.724V144.564H134.956V154H133.724V149.576H129.16V154H127.942V144.564ZM141.177 144.41C143.753 144.41 145.419 146.384 145.419 149.184C145.419 152.432 143.445 154.154 141.037 154.154C138.545 154.154 136.795 152.222 136.795 149.366C136.795 146.37 138.657 144.41 141.177 144.41ZM141.121 145.404C139.105 145.404 138.097 147.266 138.097 149.338C138.097 151.354 139.189 153.16 141.107 153.16C143.039 153.16 144.131 151.382 144.131 149.24C144.131 147.364 143.151 145.404 141.121 145.404ZM153.629 152.726L153.881 153.692C153.433 153.916 152.537 154.14 151.389 154.14C148.729 154.14 146.727 152.46 146.727 149.366C146.727 146.412 148.729 144.41 151.655 144.41C152.831 144.41 153.573 144.662 153.895 144.83L153.601 145.824C153.139 145.6 152.481 145.432 151.697 145.432C149.485 145.432 148.015 146.846 148.015 149.324C148.015 151.634 149.345 153.118 151.641 153.118C152.383 153.118 153.139 152.964 153.629 152.726ZM157.972 154V145.6H155.102V144.564H162.088V145.6H159.204V154H157.972ZM163.419 144.564H164.567V148.54C164.567 150.038 164.539 151.27 164.455 152.53L164.483 152.544C164.959 151.564 165.547 150.542 166.233 149.422L169.285 144.564H170.503V154H169.355V149.982C169.355 148.456 169.369 147.336 169.467 146.146L169.425 146.132C168.963 147.168 168.319 148.26 167.675 149.31L164.721 154H163.419V144.564Z" fill="white"/>
</g>
<defs>
<clipPath id="clip0_664_39">
<rect width="221" height="211" fill="white"/>
</clipPath>
</defs>
</svg>
