<svg width="423" height="424" viewBox="0 0 423 424" fill="none" xmlns="http://www.w3.org/2000/svg">
<path d="M-0.000537335 274.88L274.057 423.354L422.977 148.474C271.549 66.4359 82.2402 123.078 -0.000537335 274.88Z" fill="#E1AC54"/>
<rect x="144" y="300" width="147" height="41" rx="20.5" fill="#EE2C3C"/>
<path d="M163.76 320.9L164.14 318H166.22L165.84 320.9H163.76ZM163.06 326L163.58 322.08H165.66L165.14 326H166.34L166.86 322.08H168.76V320.9H167.04L167.4 318H169.22V316.82H167.58L168.08 313H166.9L166.38 316.82H164.3L164.8 313H163.64L163.12 316.82H161.22V318H162.94L162.56 320.9H160.74V322.08H162.38L161.86 326H163.06ZM172.801 312.52V318.2C172.801 320.36 172.701 322.98 171.621 324.04C171.301 324.34 170.741 324.66 170.201 324.76L170.421 326.16C171.201 326.16 171.981 325.84 172.481 325.52C174.381 324.24 174.501 320.98 174.501 318.06V313.98H178.961V326H180.721V312.52H172.801ZM184.136 312.52V326H185.996L190.216 319.3C191.136 317.8 192.056 316.24 192.716 314.76L192.776 314.78C192.636 316.48 192.616 318.08 192.616 320.26V326H194.256V312.52H192.516L188.156 319.46C187.176 321.06 186.336 322.52 185.656 323.92L185.616 323.9C185.736 322.1 185.776 320.34 185.776 318.2V312.52H184.136ZM197.483 312.52V317.06C197.483 320.36 199.683 321.12 201.463 321.12C202.643 321.12 203.763 320.82 204.703 320.28H204.743V326H206.503V312.52H204.743V318.92C204.043 319.36 203.023 319.68 202.083 319.68C200.183 319.68 199.223 318.64 199.223 316.8V312.52H197.483ZM209.917 312.52V326H211.657V319.68H218.177V326H219.937V312.52H218.177V318.16H211.657V312.52H209.917ZM228.824 312.3C225.224 312.3 222.564 315.1 222.564 319.38C222.564 323.46 225.064 326.22 228.624 326.22C232.064 326.22 234.884 323.76 234.884 319.12C234.884 315.12 232.504 312.3 228.824 312.3ZM228.744 313.72C231.644 313.72 233.044 316.52 233.044 319.2C233.044 322.26 231.484 324.8 228.724 324.8C225.984 324.8 224.424 322.22 224.424 319.34C224.424 316.38 225.864 313.72 228.744 313.72ZM246.613 324.18C245.913 324.52 244.833 324.74 243.773 324.74C240.493 324.74 238.593 322.62 238.593 319.32C238.593 315.78 240.693 313.76 243.853 313.76C244.973 313.76 245.913 314 246.573 314.32L246.993 312.9C246.533 312.66 245.473 312.3 243.793 312.3C239.613 312.3 236.753 315.16 236.753 319.38C236.753 323.8 239.613 326.2 243.413 326.2C245.053 326.2 246.333 325.88 246.973 325.56L246.613 324.18ZM252.818 326H254.578V314H258.698V312.52H248.718V314H252.818V326ZM260.599 312.52V326H262.459L266.679 319.3C267.599 317.8 268.519 316.24 269.179 314.76L269.239 314.78C269.099 316.48 269.079 318.08 269.079 320.26V326H270.719V312.52H268.979L264.619 319.46C263.639 321.06 262.799 322.52 262.119 323.92L262.079 323.9C262.199 322.1 262.239 320.34 262.239 318.2V312.52H260.599Z" fill="white"/>
<path d="M137.37 232H139.97V246H137.37V232ZM146.77 246H144.17V232H146.77V246ZM139.97 250V254.4H144.17V250H149.13C150.25 250 150.97 249.24 150.97 248.16V229.84C150.97 228.76 150.25 228 149.13 228H144.17V225.6H139.97V228H135.01C133.89 228 133.17 228.76 133.17 229.84V248.16C133.17 249.24 133.89 250 135.01 250H139.97ZM153.975 226V254H158.175V244.8H162.175V254H166.375V226H153.975ZM162.175 240.8H158.175V230H162.175V240.8ZM178.379 226V236.8H173.779V226H169.579V254H173.779V240.8H178.379V254H182.579V226H178.379ZM186.37 241.36H194.37V237.84H186.37V241.36ZM206.171 236.8H202.371V230H206.171V236.8ZM206.171 240.8V250H202.371V240.8H206.171ZM210.371 227.84C210.371 226.76 209.651 226 208.531 226H198.171V254H208.531C209.651 254 210.371 253.24 210.371 252.16V241.92C210.371 240.28 209.531 239.24 208.291 238.8C209.531 238.36 210.371 237.28 210.371 235.68V227.84ZM225.781 254V244.8H221.581V250H217.781V230H221.581V234H225.781V226H215.421C214.301 226 213.581 226.76 213.581 227.84V252.16C213.581 253.24 214.301 254 215.421 254H225.781ZM227.995 230H231.995V254H236.195V230H240.195V226H227.995V230ZM246.803 230H250.803V240.8H246.803V230ZM253.163 244.8C254.283 244.8 255.003 244.04 255.003 242.96V227.84C255.003 226.76 254.283 226 253.163 226H242.603V254H246.803V244.8H253.163ZM258.012 254H268.412V250H262.212V240.8H268.212V236.8H262.212V230H268.412V226H258.012V254ZM271.229 242.96C271.229 244.04 271.949 244.8 273.069 244.8H279.429V254H283.629V226H279.429V240.8H275.429V226H271.229V242.96ZM299.839 254V226H295.639V230.6L291.039 240.24V226H286.839V254H291.039V247.96L295.639 238.32V254H299.839Z" fill="white"/>
</svg>
