<svg width="321" height="273" viewBox="0 0 321 273" fill="none" xmlns="http://www.w3.org/2000/svg">
<g clip-path="url(#clip0_655_28)">
<path d="M242.13 242.541C161.663 296.006 53.0813 274.117 -0.385254 193.647L291.024 0.0259897C344.49 80.4955 322.596 189.077 242.13 242.541Z" fill="#EE2C3C"/>
<path d="M113.693 148.2V160.8H116.033V148.2H113.693ZM122.153 160.8V148.2H119.813V160.8H122.153ZM116.033 164.4H111.569C110.561 164.4 109.913 163.716 109.913 162.744V146.256C109.913 145.284 110.561 144.6 111.569 144.6H116.033V142.44H119.813V144.6H124.277C125.285 144.6 125.933 145.284 125.933 146.256V162.744C125.933 163.716 125.285 164.4 124.277 164.4H119.813V168.36H116.033V164.4ZM128.638 142.8H139.798V168H136.018V159.72H132.418V168H128.638V142.8ZM136.018 156.12V146.4H132.418V156.12H136.018ZM150.602 142.8H154.382V168H150.602V156.12H146.462V168H142.682V142.8H146.462V152.52H150.602V142.8ZM157.793 156.624V153.456H164.993V156.624H157.793ZM175.615 152.52V146.4H172.195V152.52H175.615ZM175.615 156.12H172.195V164.4H175.615V156.12ZM179.395 144.456V151.512C179.395 152.952 178.639 153.924 177.523 154.32C178.639 154.716 179.395 155.652 179.395 157.128V166.344C179.395 167.316 178.747 168 177.739 168H168.415V142.8H177.739C178.747 142.8 179.395 143.484 179.395 144.456ZM193.263 168H183.939C182.931 168 182.283 167.316 182.283 166.344V144.456C182.283 143.484 182.931 142.8 183.939 142.8H193.263V150H189.483V146.4H186.063V164.4H189.483V159.72H193.263V168ZM195.256 146.4V142.8H206.236V146.4H202.636V168H198.856V146.4H195.256ZM212.183 146.4V156.12H215.783V146.4H212.183ZM217.907 159.72H212.183V168H208.403V142.8H217.907C218.915 142.8 219.563 143.484 219.563 144.456V158.064C219.563 159.036 218.915 159.72 217.907 159.72ZM222.271 168V142.8H231.631V146.4H226.051V152.52H231.451V156.12H226.051V164.4H231.631V168H222.271ZM234.167 158.064V142.8H237.947V156.12H241.547V142.8H245.327V168H241.547V159.72H235.823C234.815 159.72 234.167 159.036 234.167 158.064ZM259.915 168H256.135V153.888L251.995 162.564V168H248.215V142.8H251.995V155.616L256.135 146.94V142.8H259.915V168Z" fill="white"/>
<rect x="136" y="183" width="97" height="27" rx="13.5" fill="#E1AC54"/>
<path d="M147.632 197.43H149.088L149.354 195.4H147.898L147.632 197.43ZM147.142 201H146.302L146.666 198.256H145.518V197.43H146.792L147.058 195.4H145.854V194.574H147.184L147.548 191.9H148.36L148.01 194.574H149.466L149.83 191.9H150.656L150.306 194.574H151.454V195.4H150.18L149.928 197.43H151.132V198.256H149.802L149.438 201H148.598L148.962 198.256H147.506L147.142 201ZM153.961 191.564H159.505V201H158.273V192.586H155.151V195.442C155.151 197.486 155.067 199.768 153.737 200.664C153.387 200.888 152.841 201.112 152.295 201.112L152.141 200.132C152.519 200.062 152.911 199.838 153.135 199.628C153.891 198.886 153.961 197.052 153.961 195.54V191.564ZM161.895 191.564H163.043V195.54C163.043 197.038 163.015 198.27 162.931 199.53L162.959 199.544C163.435 198.564 164.023 197.542 164.709 196.422L167.761 191.564H168.979V201H167.831V196.982C167.831 195.456 167.845 194.336 167.943 193.146L167.901 193.132C167.439 194.168 166.795 195.26 166.151 196.31L163.197 201H161.895V191.564ZM171.238 191.564H172.456V194.56C172.456 195.848 173.128 196.576 174.458 196.576C175.116 196.576 175.83 196.352 176.32 196.044V191.564H177.552V201H176.32V196.996H176.292C175.634 197.374 174.85 197.584 174.024 197.584C172.778 197.584 171.238 197.052 171.238 194.742V191.564ZM179.942 191.564H181.16V195.512H185.724V191.564H186.956V201H185.724V196.576H181.16V201H179.942V191.564ZM193.177 191.41C195.753 191.41 197.419 193.384 197.419 196.184C197.419 199.432 195.445 201.154 193.037 201.154C190.545 201.154 188.795 199.222 188.795 196.366C188.795 193.37 190.657 191.41 193.177 191.41ZM193.121 192.404C191.105 192.404 190.097 194.266 190.097 196.338C190.097 198.354 191.189 200.16 193.107 200.16C195.039 200.16 196.131 198.382 196.131 196.24C196.131 194.364 195.151 192.404 193.121 192.404ZM205.629 199.726L205.881 200.692C205.433 200.916 204.537 201.14 203.389 201.14C200.729 201.14 198.727 199.46 198.727 196.366C198.727 193.412 200.729 191.41 203.655 191.41C204.831 191.41 205.573 191.662 205.895 191.83L205.601 192.824C205.139 192.6 204.481 192.432 203.697 192.432C201.485 192.432 200.015 193.846 200.015 196.324C200.015 198.634 201.345 200.118 203.641 200.118C204.383 200.118 205.139 199.964 205.629 199.726ZM209.972 201V192.6H207.102V191.564H214.088V192.6H211.204V201H209.972ZM215.419 191.564H216.567V195.54C216.567 197.038 216.539 198.27 216.455 199.53L216.483 199.544C216.959 198.564 217.547 197.542 218.233 196.422L221.285 191.564H222.503V201H221.355V196.982C221.355 195.456 221.369 194.336 221.467 193.146L221.425 193.132C220.963 194.168 220.319 195.26 219.675 196.31L216.721 201H215.419V191.564Z" fill="white"/>
</g>
<defs>
<clipPath id="clip0_655_28">
<rect width="321" height="273" fill="white"/>
</clipPath>
</defs>
</svg>
