<svg width="436" height="436" viewBox="0 0 436 436" fill="none" xmlns="http://www.w3.org/2000/svg">
<path d="M95.4091 123C42.8238 190.602 54.9971 288.033 122.599 340.618C190.201 393.204 287.632 381.03 340.217 313.429C392.803 245.827 380.629 148.396 313.028 95.8101C245.426 43.2248 147.995 55.3981 95.4091 123Z" fill="#EE2C3C"/>
<path d="M154.71 190H156.51V214H160.71V186H154.71V190ZM168.313 210V190H171.313V210H168.313ZM173.673 214C174.793 214 175.513 213.24 175.513 212.16V187.84C175.513 186.76 174.793 186 173.673 186H165.953C164.833 186 164.113 186.76 164.113 187.84V212.16C164.113 213.24 164.833 214 165.953 214H173.673ZM182.902 210V190H185.902V210H182.902ZM188.262 214C189.382 214 190.102 213.24 190.102 212.16V187.84C190.102 186.76 189.382 186 188.262 186H180.542C179.422 186 178.702 186.76 178.702 187.84V212.16C178.702 213.24 179.422 214 180.542 214H188.262ZM208.888 196.8H205.088V190H208.888V196.8ZM208.888 200.8V210H205.088V200.8H208.888ZM213.088 187.84C213.088 186.76 212.368 186 211.248 186H200.888V214H211.248C212.368 214 213.088 213.24 213.088 212.16V201.92C213.088 200.28 212.248 199.24 211.008 198.8C212.248 198.36 213.088 197.28 213.088 195.68V187.84ZM229.297 214V186H225.097V190.6L220.497 200.24V186H216.297V214H220.497V207.96L225.097 198.32V214H229.297ZM237.328 210L238.688 190H240.488V210H237.328ZM234.728 186L233.088 210H231.488V217.68H235.688V214H241.888V217.68H246.088V210H244.688V186H234.728ZM252.683 210V190H256.883V210H252.683ZM259.243 214C260.363 214 261.083 213.24 261.083 212.16V187.84C261.083 186.76 260.363 186 259.243 186H250.323C249.203 186 248.483 186.76 248.483 187.84V212.16C248.483 213.24 249.203 214 250.323 214H259.243ZM272.283 196.8H268.483V190H272.283V196.8ZM272.283 200.8V210H268.483V200.8H272.283ZM276.483 187.84C276.483 186.76 275.763 186 274.643 186H264.283V214H274.643C275.763 214 276.483 213.24 276.483 212.16V201.92C276.483 200.28 275.643 199.24 274.403 198.8C275.643 198.36 276.483 197.28 276.483 195.68V187.84ZM179.887 256V246.8H175.687V252H171.887V232H175.687V236H179.887V228H169.527C168.407 228 167.687 228.76 167.687 229.84V254.16C167.687 255.24 168.407 256 169.527 256H179.887ZM182.901 228V256H187.101V232H191.501V256H195.701V228H182.901ZM203.096 252V232H207.296V252H203.096ZM209.656 256C210.776 256 211.496 255.24 211.496 254.16V229.84C211.496 228.76 210.776 228 209.656 228H200.736C199.616 228 198.896 228.76 198.896 229.84V254.16C198.896 255.24 199.616 256 200.736 256H209.656ZM218.896 232H222.896V242.8H218.896V232ZM225.256 246.8C226.376 246.8 227.096 246.04 227.096 244.96V229.84C227.096 228.76 226.376 228 225.256 228H214.696V256H218.896V246.8H225.256ZM229.306 232H233.306V256H237.506V232H241.506V228H229.306V232ZM243.914 228V256H248.114V246.8H252.114V256H256.314V228H243.914ZM252.114 242.8H248.114V232H252.114V242.8Z" fill="white"/>
<rect x="77" y="281" width="282" height="41" rx="20.5" fill="#3B3393"/>
<path d="M95.76 301.9L96.14 299H98.22L97.84 301.9H95.76ZM95.06 307L95.58 303.08H97.66L97.14 307H98.34L98.86 303.08H100.76V301.9H99.04L99.4 299H101.22V297.82H99.58L100.08 294H98.9L98.38 297.82H96.3L96.8 294H95.64L95.12 297.82H93.22V299H94.94L94.56 301.9H92.74V303.08H94.38L93.86 307H95.06ZM112.921 305.18C112.221 305.52 111.141 305.74 110.081 305.74C106.801 305.74 104.901 303.62 104.901 300.32C104.901 296.78 107.001 294.76 110.161 294.76C111.281 294.76 112.221 295 112.881 295.32L113.301 293.9C112.841 293.66 111.781 293.3 110.101 293.3C105.921 293.3 103.061 296.16 103.061 300.38C103.061 304.8 105.921 307.2 109.721 307.2C111.361 307.2 112.641 306.88 113.281 306.56L112.921 305.18ZM115.863 293.52V307H117.603V294.98H123.863V307H125.603V293.52H115.863ZM134.496 293.3C130.896 293.3 128.236 296.1 128.236 300.38C128.236 304.46 130.736 307.22 134.296 307.22C137.736 307.22 140.556 304.76 140.556 300.12C140.556 296.12 138.176 293.3 134.496 293.3ZM134.416 294.72C137.316 294.72 138.716 297.52 138.716 300.2C138.716 303.26 137.156 305.8 134.396 305.8C131.656 305.8 130.096 303.22 130.096 300.34C130.096 297.38 131.536 294.72 134.416 294.72ZM143.225 307H144.965V301.6C145.365 301.7 145.845 301.72 146.365 301.72C148.065 301.72 149.565 301.22 150.485 300.24C151.165 299.54 151.525 298.58 151.525 297.36C151.525 296.16 151.085 295.18 150.345 294.54C149.545 293.82 148.285 293.42 146.565 293.42C145.165 293.42 144.065 293.54 143.225 293.68V307ZM144.965 294.94C145.265 294.86 145.845 294.8 146.605 294.8C148.525 294.8 149.785 295.66 149.785 297.44C149.785 299.3 148.505 300.32 146.405 300.32C145.825 300.32 145.345 300.28 144.965 300.18V294.94ZM156.83 307H158.59V295H162.71V293.52H152.73V295H156.83V307ZM164.611 293.52V307H166.471L170.691 300.3C171.611 298.8 172.531 297.24 173.191 295.76L173.251 295.78C173.111 297.48 173.091 299.08 173.091 301.26V307H174.731V293.52H172.991L168.631 300.46C167.651 302.06 166.811 303.52 166.131 304.92L166.091 304.9C166.211 303.1 166.251 301.34 166.251 299.2V293.52H164.611ZM178.175 306.96C178.755 307.04 179.675 307.12 180.875 307.12C183.075 307.12 184.595 306.72 185.535 305.86C186.215 305.2 186.675 304.32 186.675 303.16C186.675 301.16 185.175 300.1 183.895 299.78V299.74C185.315 299.22 186.175 298.08 186.175 296.78C186.175 295.72 185.755 294.92 185.055 294.4C184.215 293.72 183.095 293.42 181.355 293.42C180.135 293.42 178.935 293.54 178.175 293.7V306.96ZM179.915 294.88C180.195 294.82 180.655 294.76 181.455 294.76C183.215 294.76 184.415 295.38 184.415 296.96C184.415 298.26 183.335 299.22 181.495 299.22H179.915V294.88ZM179.915 300.54H181.355C183.255 300.54 184.835 301.3 184.835 303.14C184.835 305.1 183.175 305.76 181.375 305.76C180.755 305.76 180.255 305.74 179.915 305.68V300.54ZM189.415 293.52V307H191.155V300.68H197.675V307H199.435V293.52H197.675V299.16H191.155V293.52H189.415ZM202.862 293.52V306.96C203.442 307.04 204.362 307.12 205.562 307.12C207.382 307.12 209.262 306.7 210.362 305.54C211.002 304.84 211.402 303.92 211.402 302.68C211.402 299.68 208.982 298.46 206.202 298.46C205.762 298.46 205.002 298.5 204.602 298.56V293.52H202.862ZM204.602 299.94C204.822 299.9 205.342 299.84 205.982 299.84C207.782 299.84 209.582 300.64 209.582 302.74C209.582 304.78 207.922 305.76 206.002 305.76C205.402 305.76 204.962 305.74 204.602 305.66V299.94ZM212.902 293.52V307H214.662V293.52H212.902ZM225.164 299.24H219.924V294.98H225.464V293.52H218.184V307H225.764V305.54H219.924V300.68H225.164V299.24ZM233.066 293.52V307H234.806V294.98H241.066V307H242.806V293.52H233.066ZM247.238 293.52V299.2C247.238 301.36 247.138 303.98 246.058 305.04C245.738 305.34 245.178 305.66 244.638 305.76L244.858 307.16C245.638 307.16 246.418 306.84 246.918 306.52C248.818 305.24 248.938 301.98 248.938 299.06V294.98H253.398V307H255.158V293.52H247.238ZM264.033 293.3C260.433 293.3 257.773 296.1 257.773 300.38C257.773 304.46 260.273 307.22 263.833 307.22C267.273 307.22 270.093 304.76 270.093 300.12C270.093 296.12 267.713 293.3 264.033 293.3ZM263.953 294.72C266.853 294.72 268.253 297.52 268.253 300.2C268.253 303.26 266.693 305.8 263.933 305.8C261.193 305.8 259.633 303.22 259.633 300.34C259.633 297.38 261.073 294.72 263.953 294.72ZM272.762 293.52V307H286.262L286.362 310.24H287.742L287.862 305.62L286.682 305.58V293.52H284.942V305.54H280.582V293.52H278.862V305.54H274.482V293.52H272.762ZM297.466 302.76L298.906 307H300.766L296.166 293.52H294.066L289.486 307H291.286L292.686 302.76H297.466ZM293.046 301.4L294.366 297.5C294.626 296.68 294.846 295.86 295.046 295.06H295.086C295.286 295.84 295.486 296.64 295.786 297.52L297.106 301.4H293.046ZM305.359 293.52V296.94C305.359 299.26 305.179 301.06 304.719 302.62C304.399 303.68 303.899 304.66 303.399 305.58L302.379 305.62L302.499 310.24H303.859L303.979 307H312.479L312.599 310.24H313.959L314.079 305.62L312.899 305.58V293.52H305.359ZM306.979 294.96H311.159V305.56H305.199C305.599 304.84 306.019 303.94 306.299 303C306.779 301.48 306.979 299.66 306.979 297.5V294.96ZM316.677 293.52V307H318.397V300.82H318.957C321.237 300.82 322.097 302.04 322.717 303.82C323.077 304.88 323.457 306.08 323.937 307H325.817C325.217 305.8 324.837 304.56 324.337 303.18C323.637 301.36 322.777 300 320.557 299.7L325.657 293.52H323.557L318.937 299.5H318.397V293.52H316.677ZM327.917 293.52V307H329.777L333.997 300.3C334.917 298.8 335.837 297.24 336.497 295.76L336.557 295.78C336.417 297.48 336.397 299.08 336.397 301.26V307H338.037V293.52H336.297L331.937 300.46C330.957 302.06 330.117 303.52 329.437 304.92L329.397 304.9C329.517 303.1 329.557 301.34 329.557 299.2V293.52H327.917Z" fill="white"/>
</svg>
