<svg width="216" height="215" viewBox="0 0 216 215" fill="none" xmlns="http://www.w3.org/2000/svg">
<g clip-path="url(#clip0_664_40)">
<path d="M23.2509 42.0233C-13.055 88.697 -4.65031 155.965 42.0233 192.271C88.697 228.577 155.965 220.172 192.271 173.499C228.577 126.825 220.172 59.5569 173.499 23.2509C126.825 -13.055 59.5569 -4.6503 23.2509 42.0233Z" fill="#EE2C3C"/>
<path d="M74.6883 58.2V55.9H78.1383V72H75.7233V58.2H74.6883ZM82.5101 69.7H84.2351V58.2H82.5101V69.7ZM85.5921 72H81.1531C80.5091 72 80.0951 71.563 80.0951 70.942V56.958C80.0951 56.337 80.5091 55.9 81.1531 55.9H85.5921C86.2361 55.9 86.6501 56.337 86.6501 56.958V70.942C86.6501 71.563 86.2361 72 85.5921 72ZM90.8988 69.7H92.6238V58.2H90.8988V69.7ZM93.9808 72H89.5418C88.8978 72 88.4838 71.563 88.4838 70.942V56.958C88.4838 56.337 88.8978 55.9 89.5418 55.9H93.9808C94.6248 55.9 95.0388 56.337 95.0388 56.958V70.942C95.0388 71.563 94.6248 72 93.9808 72ZM105.841 62.11V58.2H103.656V62.11H105.841ZM105.841 64.41H103.656V69.7H105.841V64.41ZM108.256 56.958V61.466C108.256 62.386 107.773 63.007 107.06 63.26C107.773 63.513 108.256 64.111 108.256 65.054V70.942C108.256 71.563 107.842 72 107.198 72H101.241V55.9H107.198C107.842 55.9 108.256 56.337 108.256 56.958ZM117.576 72H115.161V62.984L112.516 68.527V72H110.101V55.9H112.516V64.088L115.161 58.545V55.9H117.576V72ZM122.194 69.7H124.011V58.2H122.976L122.194 69.7ZM120.699 55.9H126.426V69.7H127.231V74.116H124.816V72H121.251V74.116H118.836V69.7H119.756L120.699 55.9ZM131.023 69.7H133.438V58.2H131.023V69.7ZM134.795 72H129.666C129.022 72 128.608 71.563 128.608 70.942V56.958C128.608 56.337 129.022 55.9 129.666 55.9H134.795C135.439 55.9 135.853 56.337 135.853 56.958V70.942C135.853 71.563 135.439 72 134.795 72ZM142.293 62.11V58.2H140.108V62.11H142.293ZM142.293 64.41H140.108V69.7H142.293V64.41ZM144.708 56.958V61.466C144.708 62.386 144.225 63.007 143.512 63.26C144.225 63.513 144.708 64.111 144.708 65.054V70.942C144.708 71.563 144.294 72 143.65 72H137.693V55.9H143.65C144.294 55.9 144.708 56.337 144.708 56.958ZM89.1653 96H83.2083C82.5643 96 82.1503 95.563 82.1503 94.942V80.958C82.1503 80.337 82.5643 79.9 83.2083 79.9H89.1653V84.5H86.7503V82.2H84.5653V93.7H86.7503V90.71H89.1653V96ZM90.8984 79.9H98.2584V96H95.8434V82.2H93.3134V96H90.8984V79.9ZM102.511 93.7H104.926V82.2H102.511V93.7ZM106.283 96H101.154C100.51 96 100.096 95.563 100.096 94.942V80.958C100.096 80.337 100.51 79.9 101.154 79.9H106.283C106.927 79.9 107.341 80.337 107.341 80.958V94.942C107.341 95.563 106.927 96 106.283 96ZM111.596 82.2V88.41H113.896V82.2H111.596ZM115.253 90.71H111.596V96H109.181V79.9H115.253C115.897 79.9 116.311 80.337 116.311 80.958V89.652C116.311 90.273 115.897 90.71 115.253 90.71ZM117.581 82.2V79.9H124.596V82.2H122.296V96H119.881V82.2H117.581ZM125.981 79.9H133.111V96H130.696V90.71H128.396V96H125.981V79.9ZM130.696 88.41V82.2H128.396V88.41H130.696Z" fill="white"/>
<rect x="47" y="109" width="123" height="41" rx="20.5" fill="#3B3393"/>
<path d="M63.4309 123.43H64.8869L65.1529 121.4H63.6969L63.4309 123.43ZM62.9409 127H62.1009L62.4649 124.256H61.3169V123.43H62.5909L62.8569 121.4H61.6529V120.574H62.9829L63.3469 117.9H64.1589L63.8089 120.574H65.2649L65.6289 117.9H66.4549L66.1049 120.574H67.2529V121.4H65.9789L65.7269 123.43H66.9309V124.256H65.6009L65.2369 127H64.3969L64.7609 124.256H63.3049L62.9409 127ZM75.4439 125.726L75.6959 126.692C75.2479 126.916 74.3519 127.14 73.2039 127.14C70.5439 127.14 68.5419 125.46 68.5419 122.366C68.5419 119.412 70.5439 117.41 73.4699 117.41C74.6459 117.41 75.3879 117.662 75.7099 117.83L75.4159 118.824C74.9539 118.6 74.2959 118.432 73.5119 118.432C71.2999 118.432 69.8299 119.846 69.8299 122.324C69.8299 124.634 71.1599 126.118 73.4559 126.118C74.1979 126.118 74.9539 125.964 75.4439 125.726ZM77.5029 117.564H84.3209V127H83.1029V118.586H78.7209V127H77.5029V117.564ZM90.5464 117.41C93.1224 117.41 94.7884 119.384 94.7884 122.184C94.7884 125.432 92.8144 127.154 90.4064 127.154C87.9144 127.154 86.1644 125.222 86.1644 122.366C86.1644 119.37 88.0264 117.41 90.5464 117.41ZM90.4904 118.404C88.4744 118.404 87.4664 120.266 87.4664 122.338C87.4664 124.354 88.5584 126.16 90.4764 126.16C92.4084 126.16 93.5004 124.382 93.5004 122.24C93.5004 120.364 92.5204 118.404 90.4904 118.404ZM96.6567 127V117.676C97.2447 117.578 98.0147 117.494 98.9947 117.494C100.199 117.494 101.081 117.774 101.641 118.278C102.159 118.726 102.467 119.412 102.467 120.252C102.467 121.106 102.215 121.778 101.739 122.268C101.095 122.954 100.045 123.304 98.8547 123.304C98.4907 123.304 98.1547 123.29 97.8747 123.22V127H96.6567ZM97.8747 118.558V122.226C98.1407 122.296 98.4767 122.324 98.8827 122.324C100.353 122.324 101.249 121.61 101.249 120.308C101.249 119.062 100.367 118.46 99.0227 118.46C98.4907 118.46 98.0847 118.502 97.8747 118.558ZM106.18 127V118.6H103.31V117.564H110.296V118.6H107.412V127H106.18ZM111.627 117.564H112.775V121.54C112.775 123.038 112.747 124.27 112.663 125.53L112.691 125.544C113.167 124.564 113.755 123.542 114.441 122.422L117.493 117.564H118.711V127H117.563V122.982C117.563 121.456 117.577 120.336 117.675 119.146L117.633 119.132C117.171 120.168 116.527 121.26 115.883 122.31L112.929 127H111.627V117.564ZM121.122 126.972V117.69C121.654 117.578 122.494 117.494 123.348 117.494C124.566 117.494 125.35 117.704 125.938 118.18C126.428 118.544 126.722 119.104 126.722 119.846C126.722 120.756 126.12 121.554 125.126 121.918V121.946C126.022 122.17 127.072 122.912 127.072 124.312C127.072 125.124 126.75 125.74 126.274 126.202C125.616 126.804 124.552 127.084 123.012 127.084C122.172 127.084 121.528 127.028 121.122 126.972ZM122.34 118.516V121.554H123.446C124.734 121.554 125.49 120.882 125.49 119.972C125.49 118.866 124.65 118.432 123.418 118.432C122.858 118.432 122.536 118.474 122.34 118.516ZM122.34 122.478V126.076C122.578 126.118 122.928 126.132 123.362 126.132C124.622 126.132 125.784 125.67 125.784 124.298C125.784 123.01 124.678 122.478 123.348 122.478H122.34ZM128.99 117.564H130.208V121.512H134.772V117.564H136.004V127H134.772V122.576H130.208V127H128.99V117.564ZM138.402 117.564H139.62V121.092C139.9 121.05 140.432 121.022 140.74 121.022C142.686 121.022 144.38 121.876 144.38 123.976C144.38 124.844 144.1 125.488 143.652 125.978C142.882 126.79 141.566 127.084 140.292 127.084C139.452 127.084 138.808 127.028 138.402 126.972V117.564ZM139.62 122.058V126.062C139.872 126.118 140.18 126.132 140.6 126.132C141.944 126.132 143.106 125.446 143.106 124.018C143.106 122.548 141.846 121.988 140.586 121.988C140.138 121.988 139.774 122.03 139.62 122.058ZM145.43 117.564H146.662V127H145.43V117.564ZM154.014 121.568V122.576H150.346V125.978H154.434V127H149.128V117.564H154.224V118.586H150.346V121.568H154.014ZM72.7588 132.564H79.5768V142H78.3588V133.586H73.9768V142H72.7588V132.564ZM82.6792 132.564H88.2232V142H86.9912V133.586H83.8692V136.442C83.8692 138.486 83.7852 140.768 82.4552 141.664C82.1052 141.888 81.5592 142.112 81.0132 142.112L80.8592 141.132C81.2372 141.062 81.6292 140.838 81.8532 140.628C82.6092 139.886 82.6792 138.052 82.6792 136.54V132.564ZM94.4357 132.41C97.0117 132.41 98.6777 134.384 98.6777 137.184C98.6777 140.432 96.7037 142.154 94.2957 142.154C91.8037 142.154 90.0537 140.222 90.0537 137.366C90.0537 134.37 91.9157 132.41 94.4357 132.41ZM94.3797 133.404C92.3637 133.404 91.3557 135.266 91.3557 137.338C91.3557 139.354 92.4477 141.16 94.3657 141.16C96.2977 141.16 97.3897 139.382 97.3897 137.24C97.3897 135.364 96.4097 133.404 94.3797 133.404ZM100.546 132.564H101.75V140.978H104.816V132.564H106.02V140.978H109.072V132.564H110.29V141.006L111.116 141.034L111.032 144.268H110.066L109.996 142H100.546V132.564ZM117.839 139.032H114.493L113.513 142H112.253L115.459 132.564H116.929L120.149 142H118.847L117.839 139.032ZM114.745 138.08H117.587L116.663 135.364C116.453 134.748 116.313 134.188 116.173 133.642H116.145C116.005 134.202 115.851 134.776 115.669 135.35L114.745 138.08ZM123.364 132.564H128.642V141.006L129.468 141.034L129.384 144.268H128.432L128.348 142H122.398L122.314 144.268H121.362L121.278 141.034L121.992 141.006C122.342 140.362 122.692 139.676 122.916 138.934C123.238 137.842 123.364 136.582 123.364 134.958V132.564ZM124.498 133.572V135.35C124.498 136.862 124.358 138.136 124.022 139.2C123.826 139.858 123.532 140.488 123.252 140.992H127.424V133.572H124.498ZM131.286 132.564H132.49V136.75H132.868L136.102 132.564H137.572L134.002 136.89C135.556 137.1 136.158 138.052 136.648 139.326C136.998 140.292 137.264 141.16 137.684 142H136.368C136.032 141.356 135.766 140.516 135.514 139.774C135.08 138.528 134.478 137.674 132.882 137.674H132.49V142H131.286V132.564ZM139.154 132.564H140.302V136.54C140.302 138.038 140.274 139.27 140.19 140.53L140.218 140.544C140.694 139.564 141.282 138.542 141.968 137.422L145.02 132.564H146.238V142H145.09V137.982C145.09 136.456 145.104 135.336 145.202 134.146L145.16 134.132C144.698 135.168 144.054 136.26 143.41 137.31L140.456 142H139.154V132.564Z" fill="white"/>
</g>
<defs>
<clipPath id="clip0_664_40">
<rect width="216" height="215" fill="white"/>
</clipPath>
</defs>
</svg>
