<svg width="398" height="399" viewBox="0 0 398 399" fill="none" xmlns="http://www.w3.org/2000/svg">
<path d="M397.441 83.9234L84.2344 0L0.0589389 314.147C173.119 360.518 350.955 257.41 397.441 83.9234Z" fill="#3B3393"/>
<rect x="107" y="214" width="172" height="41" rx="20.5" fill="#EE2C3C"/>
<path d="M126.76 234.9L127.14 232H129.22L128.84 234.9H126.76ZM126.06 240L126.58 236.08H128.66L128.14 240H129.34L129.86 236.08H131.76V234.9H130.04L130.4 232H132.22V230.82H130.58L131.08 227H129.9L129.38 230.82H127.3L127.8 227H126.64L126.12 230.82H124.22V232H125.94L125.56 234.9H123.74V236.08H125.38L124.86 240H126.06ZM141.821 235.76L143.261 240H145.121L140.521 226.52H138.421L133.841 240H135.641L137.041 235.76H141.821ZM137.401 234.4L138.721 230.5C138.981 229.68 139.201 228.86 139.401 228.06H139.441C139.641 228.84 139.841 229.64 140.141 230.52L141.461 234.4H137.401ZM147.507 240H149.247V234.6C149.647 234.7 150.127 234.72 150.647 234.72C152.347 234.72 153.847 234.22 154.767 233.24C155.447 232.54 155.807 231.58 155.807 230.36C155.807 229.16 155.367 228.18 154.627 227.54C153.827 226.82 152.567 226.42 150.847 226.42C149.447 226.42 148.347 226.54 147.507 226.68V240ZM149.247 227.94C149.547 227.86 150.127 227.8 150.887 227.8C152.807 227.8 154.067 228.66 154.067 230.44C154.067 232.3 152.787 233.32 150.687 233.32C150.107 233.32 149.627 233.28 149.247 233.18V227.94ZM161.112 240H162.872V228H166.992V226.52H157.012V228H161.112V240ZM166.509 233.94V235.24H171.449V233.94H166.509ZM179.421 226.3C175.821 226.3 173.161 229.1 173.161 233.38C173.161 237.46 175.661 240.22 179.221 240.22C182.661 240.22 185.481 237.76 185.481 233.12C185.481 229.12 183.101 226.3 179.421 226.3ZM179.341 227.72C182.241 227.72 183.641 230.52 183.641 233.2C183.641 236.26 182.081 238.8 179.321 238.8C176.581 238.8 175.021 236.22 175.021 233.34C175.021 230.38 176.461 227.72 179.341 227.72ZM188.15 226.52V239.96C188.73 240.04 189.65 240.12 190.87 240.12C192.71 240.12 194.53 239.7 195.63 238.62C196.33 237.92 196.75 236.96 196.75 235.7C196.75 234.12 196.05 233.06 195.03 232.4C194.09 231.78 192.83 231.5 191.55 231.5C191.11 231.5 190.31 231.54 189.89 231.6V227.98H195.71V226.52H188.15ZM189.89 232.94C190.33 232.9 190.87 232.86 191.27 232.86C192.23 232.86 193.13 233.06 193.83 233.54C194.49 234 194.93 234.7 194.93 235.74C194.93 236.58 194.65 237.24 194.19 237.72C193.53 238.42 192.43 238.76 191.35 238.76C190.75 238.76 190.29 238.74 189.89 238.66V232.94ZM197.069 226.52V227.96H200.529V239.96C201.109 240.04 202.029 240.12 203.209 240.12C205.009 240.12 206.789 239.72 207.909 238.54C208.549 237.86 208.949 236.92 208.949 235.66C208.949 232.72 206.489 231.46 203.889 231.46C203.369 231.46 202.669 231.5 202.269 231.56V226.52H197.069ZM202.269 232.94C202.689 232.88 203.209 232.84 203.669 232.84C205.429 232.84 207.109 233.64 207.109 235.74C207.109 237.78 205.589 238.76 203.649 238.76C203.089 238.76 202.649 238.74 202.269 238.66V232.94ZM218.567 232.24H213.327V227.98H218.867V226.52H211.587V240H219.167V238.54H213.327V233.68H218.567V232.24ZM221.831 226.52V240H223.551V233.82H224.111C226.391 233.82 227.251 235.04 227.871 236.82C228.231 237.88 228.611 239.08 229.091 240H230.971C230.371 238.8 229.991 237.56 229.491 236.18C228.791 234.36 227.931 233 225.711 232.7L230.811 226.52H228.711L224.091 232.5H223.551V226.52H221.831ZM236.217 240H237.977V228H242.097V226.52H232.117V228H236.217V240ZM243.998 226.52V239.96C244.578 240.04 245.498 240.12 246.698 240.12C248.518 240.12 250.398 239.7 251.498 238.54C252.138 237.84 252.538 236.92 252.538 235.68C252.538 232.68 250.118 231.46 247.338 231.46C246.898 231.46 246.138 231.5 245.738 231.56V226.52H243.998ZM245.738 232.94C245.958 232.9 246.478 232.84 247.118 232.84C248.918 232.84 250.718 233.64 250.718 235.74C250.718 237.78 249.058 238.76 247.138 238.76C246.538 238.76 246.098 238.74 245.738 238.66V232.94ZM254.038 226.52V240H255.798V226.52H254.038Z" fill="white"/>
<path d="M101.356 123H105.356V133.8H101.356V123ZM107.716 137.8C108.836 137.8 109.556 137.04 109.556 135.96V120.84C109.556 119.76 108.836 119 107.716 119H97.1563V147H101.356V137.8H107.716ZM112.566 147H122.966V143H116.766V133.8H122.766V129.8H116.766V123H122.966V119H112.566V147ZM125.183 123H129.183V147H133.383V123H137.383V119H125.183V123ZM143.991 123H147.991V133.8H143.991V123ZM150.351 137.8C151.471 137.8 152.191 137.04 152.191 135.96V120.84C152.191 119.76 151.471 119 150.351 119H139.791V147H143.991V137.8H150.351ZM159.4 143V123H163.6V143H159.4ZM165.96 147C167.08 147 167.8 146.24 167.8 145.16V120.84C167.8 119.76 167.08 119 165.96 119H157.04C155.92 119 155.2 119.76 155.2 120.84V145.16C155.2 146.24 155.92 147 157.04 147H165.96ZM183.2 147V137.8H179V143H175.2V123H179V127H183.2V119H172.84C171.72 119 171 119.76 171 120.84V145.16C171 146.24 171.72 147 172.84 147H183.2ZM186.214 119V147H190.414V123H194.814V147H199.014V119H186.214ZM202.209 147H212.609V143H206.409V133.8H212.409V129.8H206.409V123H212.609V119H202.209V147ZM224.707 131.8L229.027 119H224.587L221.027 129.8H219.827V119H215.627V147H219.827V133.8H220.907L224.587 147H229.027L224.707 131.8ZM230.431 123H234.431V147H238.631V123H242.631V119H230.431V123ZM258.039 147V119H253.839V123.6L249.239 133.24V119H245.039V147H249.239V140.96L253.839 131.32V147H258.039ZM269.23 129.8H265.43V123H269.23V129.8ZM269.23 133.8V143H265.43V133.8H269.23ZM273.43 120.84C273.43 119.76 272.71 119 271.59 119H261.23V147H271.59C272.71 147 273.43 146.24 273.43 145.16V134.92C273.43 133.28 272.59 132.24 271.35 131.8C272.59 131.36 273.43 130.28 273.43 128.68V120.84ZM276.639 119V147H280.839V137.8H284.839V147H289.039V119H276.639ZM284.839 133.8H280.839V123H284.839V133.8ZM67.497 177H67.377L63.977 161H58.857V189H63.057V177L62.297 169H62.497L65.497 183.4H69.417L72.337 169H72.537L71.857 177V189H76.057V161H70.937L67.497 177ZM83.4664 185V165H87.6664V185H83.4664ZM90.0264 189C91.1464 189 91.8664 188.24 91.8664 187.16V162.84C91.8664 161.76 91.1464 161 90.0264 161H81.1064C79.9864 161 79.2664 161.76 79.2664 162.84V187.16C79.2664 188.24 79.9864 189 81.1064 189H90.0264ZM107.266 189V179.8H103.066V185H99.2664V165H103.066V169H107.266V161H96.9064C95.7864 161 95.0664 161.76 95.0664 162.84V187.16C95.0664 188.24 95.7864 189 96.9064 189H107.266ZM119.36 173.8L123.68 161H119.24L115.68 171.8H114.48V161H110.28V189H114.48V175.8H115.56L119.24 189H123.68L119.36 173.8ZM130.085 185V165H134.285V185H130.085ZM136.645 189C137.765 189 138.485 188.24 138.485 187.16V162.84C138.485 161.76 137.765 161 136.645 161H127.725C126.605 161 125.885 161.76 125.885 162.84V187.16C125.885 188.24 126.605 189 127.725 189H136.645ZM149.685 171.8H145.885V165H149.685V171.8ZM149.685 175.8V185H145.885V175.8H149.685ZM153.885 162.84C153.885 161.76 153.165 161 152.045 161H141.685V189H152.045C153.165 189 153.885 188.24 153.885 187.16V176.92C153.885 175.28 153.045 174.24 151.805 173.8C153.045 173.36 153.885 172.28 153.885 170.68V162.84ZM169.295 189V179.8H165.095V185H161.295V165H165.095V169H169.295V161H158.935C157.815 161 157.095 161.76 157.095 162.84V187.16C157.095 188.24 157.815 189 158.935 189H169.295ZM181.389 173.8L185.709 161H181.269L177.709 171.8H176.509V161H172.309V189H176.509V175.8H177.589L181.269 189H185.709L181.389 173.8ZM192.113 185V165H196.313V185H192.113ZM198.673 189C199.793 189 200.513 188.24 200.513 187.16V162.84C200.513 161.76 199.793 161 198.673 161H189.753C188.633 161 187.913 161.76 187.913 162.84V187.16C187.913 188.24 188.633 189 189.753 189H198.673ZM203.713 161V189H207.913V165H213.713V161H203.713ZM220.315 185V165H224.515V185H220.315ZM226.875 189C227.995 189 228.715 188.24 228.715 187.16V162.84C228.715 161.76 227.995 161 226.875 161H217.955C216.835 161 216.115 161.76 216.115 162.84V187.16C216.115 188.24 216.835 189 217.955 189H226.875ZM251.712 189V179.8H247.512V185H243.712V165H247.512V169H251.712V161H241.352C240.232 161 239.512 161.76 239.512 162.84V187.16C239.512 188.24 240.232 189 241.352 189H251.712ZM254.726 161V189H258.926V165H263.326V189H267.526V161H254.726ZM274.921 185V165H279.121V185H274.921ZM281.481 189C282.601 189 283.321 188.24 283.321 187.16V162.84C283.321 161.76 282.601 161 281.481 161H272.561C271.441 161 270.721 161.76 270.721 162.84V187.16C270.721 188.24 271.441 189 272.561 189H281.481ZM290.721 165H294.721V175.8H290.721V165ZM297.081 179.8C298.201 179.8 298.921 179.04 298.921 177.96V162.84C298.921 161.76 298.201 161 297.081 161H286.521V189H290.721V179.8H297.081ZM301.13 165H305.13V189H309.33V165H313.33V161H301.13V165ZM315.738 161V189H319.938V179.8H323.938V189H328.138V161H315.738ZM323.938 175.8H319.938V165H323.938V175.8Z" fill="white"/>
</svg>
