<svg width="372" height="287" viewBox="0 0 372 287" fill="none" xmlns="http://www.w3.org/2000/svg">
<g clip-path="url(#clip0_655_25)">
<path d="M372.214 109.964L109.906 1.58789L1.20389 264.684C146.14 324.567 312.184 255.258 372.214 109.964Z" fill="#3B3393"/>
<path d="M100.571 122.4V132.12H104.171V122.4H100.571ZM106.295 135.72H100.571V144H96.7906V118.8H106.295C107.303 118.8 107.951 119.484 107.951 120.456V134.064C107.951 135.036 107.303 135.72 106.295 135.72ZM110.659 144V118.8H120.019V122.4H114.439V128.52H119.839V132.12H114.439V140.4H120.019V144H110.659ZM122.015 122.4V118.8H132.995V122.4H129.395V144H125.615V122.4H122.015ZM138.942 122.4V132.12H142.542V122.4H138.942ZM144.666 135.72H138.942V144H135.162V118.8H144.666C145.674 118.8 146.322 119.484 146.322 120.456V134.064C146.322 135.036 145.674 135.72 144.666 135.72ZM152.81 140.4H156.59V122.4H152.81V140.4ZM158.714 144H150.686C149.678 144 149.03 143.316 149.03 142.344V120.456C149.03 119.484 149.678 118.8 150.686 118.8H158.714C159.722 118.8 160.37 119.484 160.37 120.456V142.344C160.37 143.316 159.722 144 158.714 144ZM174.23 144H164.906C163.898 144 163.25 143.316 163.25 142.344V120.456C163.25 119.484 163.898 118.8 164.906 118.8H174.23V126H170.45V122.4H167.03V140.4H170.45V135.72H174.23V144ZM176.943 118.8H188.463V144H184.683V122.4H180.723V144H176.943V118.8ZM191.338 144V118.8H200.698V122.4H195.118V128.52H200.518V132.12H195.118V140.4H200.698V144H191.338ZM211.586 130.32L215.474 144H211.478L208.166 132.12H207.194V144H203.414V118.8H207.194V128.52H208.274L211.478 118.8H215.474L211.586 130.32ZM216.738 122.4V118.8H227.718V122.4H224.118V144H220.338V122.4H216.738ZM241.585 144H237.805V129.888L233.665 138.564V144H229.885V118.8H233.665V131.616L237.805 122.94V118.8H241.585V144ZM251.657 128.52V122.4H248.237V128.52H251.657ZM251.657 132.12H248.237V140.4H251.657V132.12ZM255.437 120.456V127.512C255.437 128.952 254.681 129.924 253.565 130.32C254.681 130.716 255.437 131.652 255.437 133.128V142.344C255.437 143.316 254.789 144 253.781 144H244.457V118.8H253.781C254.789 118.8 255.437 119.484 255.437 120.456ZM258.325 118.8H269.485V144H265.705V135.72H262.105V144H258.325V118.8ZM265.705 132.12V122.4H262.105V132.12H265.705ZM70.0973 171.2L73.1933 156.8H77.8013V182H74.0213V171.2L74.6333 164H74.4533L71.8253 176.96H68.2973L65.5973 164H65.4173L66.1013 171.2V182H62.3213V156.8H66.9293L69.9893 171.2H70.0973ZM84.4698 178.4H88.2498V160.4H84.4698V178.4ZM90.3738 182H82.3458C81.3378 182 80.6898 181.316 80.6898 180.344V158.456C80.6898 157.484 81.3378 156.8 82.3458 156.8H90.3738C91.3818 156.8 92.0298 157.484 92.0298 158.456V180.344C92.0298 181.316 91.3818 182 90.3738 182ZM105.89 182H96.5658C95.5578 182 94.9098 181.316 94.9098 180.344V158.456C94.9098 157.484 95.5578 156.8 96.5658 156.8H105.89V164H102.11V160.4H98.6898V178.4H102.11V173.72H105.89V182ZM116.774 168.32L120.662 182H116.666L113.354 170.12H112.382V182H108.602V156.8H112.382V166.52H113.462L116.666 156.8H120.662L116.774 168.32ZM126.427 178.4H130.207V160.4H126.427V178.4ZM132.331 182H124.303C123.295 182 122.647 181.316 122.647 180.344V158.456C122.647 157.484 123.295 156.8 124.303 156.8H132.331C133.339 156.8 133.987 157.484 133.987 158.456V180.344C133.987 181.316 133.339 182 132.331 182ZM144.067 166.52V160.4H140.647V166.52H144.067ZM144.067 170.12H140.647V178.4H144.067V170.12ZM147.847 158.456V165.512C147.847 166.952 147.091 167.924 145.975 168.32C147.091 168.716 147.847 169.652 147.847 171.128V180.344C147.847 181.316 147.199 182 146.191 182H136.867V156.8H146.191C147.199 156.8 147.847 157.484 147.847 158.456ZM161.715 182H152.391C151.383 182 150.735 181.316 150.735 180.344V158.456C150.735 157.484 151.383 156.8 152.391 156.8H161.715V164H157.935V160.4H154.515V178.4H157.935V173.72H161.715V182ZM172.6 168.32L176.488 182H172.492L169.18 170.12H168.208V182H164.428V156.8H168.208V166.52H169.288L172.492 156.8H176.488L172.6 168.32ZM182.252 178.4H186.032V160.4H182.252V178.4ZM188.156 182H180.128C179.12 182 178.472 181.316 178.472 180.344V158.456C178.472 157.484 179.12 156.8 180.128 156.8H188.156C189.164 156.8 189.812 157.484 189.812 158.456V180.344C189.812 181.316 189.164 182 188.156 182ZM192.692 156.8H201.692V160.4H196.472V182H192.692V156.8ZM207.633 178.4H211.413V160.4H207.633V178.4ZM213.537 182H205.509C204.501 182 203.853 181.316 203.853 180.344V158.456C203.853 157.484 204.501 156.8 205.509 156.8H213.537C214.545 156.8 215.193 157.484 215.193 158.456V180.344C215.193 181.316 214.545 182 213.537 182ZM235.891 182H226.567C225.559 182 224.911 181.316 224.911 180.344V158.456C224.911 157.484 225.559 156.8 226.567 156.8H235.891V164H232.111V160.4H228.691V178.4H232.111V173.72H235.891V182ZM238.603 156.8H250.123V182H246.343V160.4H242.383V182H238.603V156.8ZM256.779 178.4H260.559V160.4H256.779V178.4ZM262.683 182H254.655C253.647 182 252.999 181.316 252.999 180.344V158.456C252.999 157.484 253.647 156.8 254.655 156.8H262.683C263.691 156.8 264.339 157.484 264.339 158.456V180.344C264.339 181.316 263.691 182 262.683 182ZM270.999 160.4V170.12H274.599V160.4H270.999ZM276.723 173.72H270.999V182H267.219V156.8H276.723C277.731 156.8 278.379 157.484 278.379 158.456V172.064C278.379 173.036 277.731 173.72 276.723 173.72ZM280.367 160.4V156.8H291.347V160.4H287.747V182H283.967V160.4H280.367ZM293.514 156.8H304.674V182H300.894V173.72H297.294V182H293.514V156.8ZM300.894 170.12V160.4H297.294V170.12H300.894Z" fill="white"/>
<rect x="123" y="200" width="123" height="27" rx="13.5" fill="#EE2C3C"/>
<path d="M139.632 214.43H141.088L141.354 212.4H139.898L139.632 214.43ZM139.142 218H138.302L138.666 215.256H137.518V214.43H138.792L139.058 212.4H137.854V211.574H139.184L139.548 208.9H140.36L140.01 211.574H141.466L141.83 208.9H142.656L142.306 211.574H143.454V212.4H142.18L141.928 214.43H143.132V215.256H141.802L141.438 218H140.598L140.962 215.256H139.506L139.142 218ZM150.175 215.032H146.829L145.849 218H144.589L147.795 208.564H149.265L152.485 218H151.183L150.175 215.032ZM147.081 214.08H149.923L148.999 211.364C148.789 210.748 148.649 210.188 148.509 209.642H148.481C148.341 210.202 148.187 210.776 148.005 211.35L147.081 214.08ZM154.155 218V208.676C154.743 208.578 155.513 208.494 156.493 208.494C157.697 208.494 158.579 208.774 159.139 209.278C159.657 209.726 159.965 210.412 159.965 211.252C159.965 212.106 159.713 212.778 159.237 213.268C158.593 213.954 157.543 214.304 156.353 214.304C155.989 214.304 155.653 214.29 155.373 214.22V218H154.155ZM155.373 209.558V213.226C155.639 213.296 155.975 213.324 156.381 213.324C157.851 213.324 158.747 212.61 158.747 211.308C158.747 210.062 157.865 209.46 156.521 209.46C155.989 209.46 155.583 209.502 155.373 209.558ZM163.678 218V209.6H160.808V208.564H167.794V209.6H164.91V218H163.678ZM167.456 213.758H170.914V214.668H167.456V213.758ZM176.495 208.41C179.071 208.41 180.737 210.384 180.737 213.184C180.737 216.432 178.763 218.154 176.355 218.154C173.863 218.154 172.113 216.222 172.113 213.366C172.113 210.37 173.975 208.41 176.495 208.41ZM176.439 209.404C174.423 209.404 173.415 211.266 173.415 213.338C173.415 215.354 174.507 217.16 176.425 217.16C178.357 217.16 179.449 215.382 179.449 213.24C179.449 211.364 178.469 209.404 176.439 209.404ZM182.605 208.564H187.897V209.586H183.823V212.12C184.117 212.078 184.677 212.05 184.985 212.05C185.881 212.05 186.763 212.246 187.421 212.68C188.135 213.142 188.625 213.884 188.625 214.99C188.625 215.872 188.331 216.544 187.841 217.034C187.071 217.79 185.797 218.084 184.509 218.084C183.655 218.084 183.011 218.028 182.605 217.972V208.564ZM183.823 213.058V217.062C184.103 217.118 184.425 217.132 184.845 217.132C185.601 217.132 186.371 216.894 186.833 216.404C187.155 216.068 187.351 215.606 187.351 215.018C187.351 214.29 187.043 213.8 186.581 213.478C186.091 213.142 185.461 213.002 184.789 213.002C184.509 213.002 184.131 213.03 183.823 213.058ZM188.848 208.564H192.488V212.092C192.768 212.05 193.258 212.022 193.622 212.022C195.442 212.022 197.164 212.904 197.164 214.962C197.164 215.844 196.884 216.502 196.436 216.978C195.652 217.804 194.406 218.084 193.146 218.084C192.32 218.084 191.676 218.028 191.27 217.972V209.572H188.848V208.564ZM192.488 213.058V217.062C192.754 217.118 193.062 217.132 193.454 217.132C194.812 217.132 195.876 216.446 195.876 215.018C195.876 213.548 194.7 212.988 193.468 212.988C193.146 212.988 192.782 213.016 192.488 213.058ZM203.897 212.568V213.576H200.229V216.978H204.317V218H199.011V208.564H204.107V209.586H200.229V212.568H203.897ZM206.182 208.564H207.386V212.75H207.764L210.998 208.564H212.468L208.898 212.89C210.452 213.1 211.054 214.052 211.544 215.326C211.894 216.292 212.16 217.16 212.58 218H211.264C210.928 217.356 210.662 216.516 210.41 215.774C209.976 214.528 209.374 213.674 207.778 213.674H207.386V218H206.182V208.564ZM216.252 218V209.6H213.382V208.564H220.368V209.6H217.484V218H216.252ZM221.699 208.564H222.917V212.092C223.197 212.05 223.729 212.022 224.037 212.022C225.983 212.022 227.677 212.876 227.677 214.976C227.677 215.844 227.397 216.488 226.949 216.978C226.179 217.79 224.863 218.084 223.589 218.084C222.749 218.084 222.105 218.028 221.699 217.972V208.564ZM222.917 213.058V217.062C223.169 217.118 223.477 217.132 223.897 217.132C225.241 217.132 226.403 216.446 226.403 215.018C226.403 213.548 225.143 212.988 223.883 212.988C223.435 212.988 223.071 213.03 222.917 213.058ZM228.727 208.564H229.959V218H228.727V208.564Z" fill="white"/>
</g>
<defs>
<clipPath id="clip0_655_25">
<rect width="372" height="287" fill="white"/>
</clipPath>
</defs>
</svg>
