<svg width="160" height="59" viewBox="0 0 160 59" fill="none" xmlns="http://www.w3.org/2000/svg">
<path d="M1.94085 15.9303V31.189C1.94085 33.6938 2.3914 35.4403 3.38494 36.8651C5.66081 40.1053 9.98152 42.2539 12.5 42.9893C15.0185 42.2539 19.3276 40.1053 21.6151 36.8651C22.6201 35.4403 23.0591 33.6938 23.0591 31.189V15.9303H1.94085ZM25 14V31.189C25 34.096 24.4339 36.2216 23.1978 37.9796C20.506 41.8058 15.469 44.2761 12.5 45C9.53096 44.2761 4.49399 41.8058 1.80222 37.9796C0.566081 36.2216 0 34.1075 0 31.189V14H25Z" fill="#EB6209"/>
<path d="M56 36H46V21H56V23.4685H48.7317V27.1654H55.0976V29.6339H48.7317V33.5197H56V36Z" fill="#EB6209"/>
<path d="M103 36V21H100.571L100.457 21.4134L94.5315 31.0394V21H92V36H94.418L94.5315 35.5748L100.434 25.9252V36H103Z" fill="#EB6209"/>
<path d="M130.229 29.6339H123.771V36H121V21H123.771V27.1654H130.229V21H133V36H130.229V29.6339Z" fill="#EB6209"/>
<path d="M85.4711 23.4567H79.5515V36L77 35.9882V21H88V36H85.4711V23.4567Z" fill="#EB6209"/>
<path d="M70.3713 27.2835L66.8743 34.2283H65.1257L61.6287 27.2835V36H59V21H61.5465L61.6287 21.437L65.7946 29.8228H66.1702L70.3713 21.4488L70.4769 21H73V36H70.3713V27.2835Z" fill="#EB6209"/>
<path d="M155.777 36H153.234V23.4685H149V21H160V23.4685H155.777V36Z" fill="#EB6209"/>
<path d="M40.2384 21V27.1772C39.8421 27.3898 38.5666 28.2402 36.6223 28.2402C35.1858 28.2402 33.774 27.7323 33.774 25.4173V21H31V25.4173C31 28.5591 33.0929 30.7087 36.5356 30.7087C37.8978 30.7087 39.322 30.2717 40.226 29.8228V36H43V21H40.226H40.2384Z" fill="#EB6209"/>
<path d="M135 36H137.909L139.263 32.4685H144.737L146.091 36H149L143.265 21H140.735L135 36ZM140.118 30L141.97 24.685H142.053L143.906 30H140.13H140.118Z" fill="#EB6209"/>
<path d="M117.123 22.7491C116.047 21.0128 114.105 20 112 20C109.895 20 107.953 21.0128 106.877 22.7491C106.316 23.6534 106 24.7144 106 26.3542V29.6458C106 31.2856 106.316 32.3466 106.877 33.2509C107.953 34.9872 109.895 36 112 36C114.105 36 116.047 34.9872 117.123 33.2509C117.684 32.3466 118 31.2856 118 29.6458V26.3542C118 24.7144 117.684 23.6534 117.123 22.7491ZM115.392 29.8628C115.392 30.8033 115.181 31.5026 114.842 31.997C114.211 32.9013 113.123 33.468 112.012 33.468C110.901 33.468 109.801 32.9013 109.17 31.997C108.819 31.5026 108.62 30.8033 108.62 29.8628V26.1251C108.62 25.1846 108.83 24.4853 109.17 23.991C109.801 23.0867 110.889 22.52 112.012 22.52C113.135 22.52 114.222 23.0867 114.842 23.991C115.193 24.4853 115.392 25.1846 115.392 26.1251V29.8628Z" fill="#EB6209"/>
<path d="M12 41C9.66467 40.0122 6.74251 38.1707 5.13772 35.8415C4.61078 35.0732 4 33.8293 4 31C4.57485 32.2439 6.08383 33 7.72455 33H12V41Z" fill="#F6A66D"/>
<path d="M8.63844 31.4546H12.1116C13.0827 31.4546 13.5625 30.9645 13.5625 30.9645V41C15.756 40.0431 18.4294 38.3161 19.9146 36.1456C20.4173 35.4105 21 34.2202 21 31.5129V18H13.5625V25.9234C13.5625 26.4252 13.2769 26.7169 12.7856 26.7169H11.4375C10.9462 26.7169 10.6606 26.4252 10.6606 25.9234V18H4V26.7169C4 29.5525 4.29704 31.4663 8.63844 31.4663V31.4546Z" fill="#EB6209"/>
</svg>
