<svg width="160" height="59" viewBox="0 0 160 59" fill="none" xmlns="http://www.w3.org/2000/svg">
<g clip-path="url(#clip0_317_187045)">
<path d="M90.4879 34.394H93.3051C94.9711 30.8179 97.2738 27.6517 99.6637 24.5335C99.8556 24.2849 100.043 24.0363 100.231 23.7921H96.938C96.6022 24.2457 96.262 24.6949 95.9262 25.1484C94.0683 27.6735 92.2759 30.251 90.9894 33.1206C90.8019 33.5349 90.6405 33.9623 90.4879 34.394Z" fill="#E94362"/>
<path d="M102.682 27.486C103.667 26.2561 104.653 25.0263 105.63 23.7877H101.674C101.003 24.6599 100.331 25.5365 99.6637 26.4088C97.7361 28.9339 95.9393 31.5375 94.5175 34.3896H97.8451C99.2319 31.9474 100.915 29.6927 102.682 27.4816V27.486Z" fill="#E94362"/>
<path d="M89.1316 23.7877H88.2899V25.0176C88.5515 24.6338 88.8132 24.25 89.0792 23.8662C89.0967 23.8401 89.1141 23.8139 89.1316 23.7877Z" fill="#E94362"/>
<path d="M107.078 21.943C107.706 21.1362 108.329 20.325 108.944 19.5095C110.553 17.3725 111.958 15.0873 112.891 12.5622C113.833 10.0197 114.125 7.48149 113.536 5H111.369C111.391 5.66289 111.36 6.33451 111.269 7.01484C110.894 9.81469 109.694 12.2744 108.286 14.6555C108.181 14.8344 107.169 16.2823 107.073 16.4654V14.4811C107.174 14.3372 109.11 10.5648 109.69 8.77238C110.148 7.49021 110.375 6.23856 110.405 5.00436H107.793C107.662 6.01178 107.418 7.00612 107.073 7.97865V21.943H107.078Z" fill="#E94362"/>
<path d="M117.684 6.40868V5.51465C117.605 5.40998 117.531 5.29659 117.448 5.19628C117.396 5.12651 117.348 5.06545 117.3 5.00439H117.684H116.772C116.886 5.17448 116.999 5.35329 117.126 5.54518C117.313 5.83301 117.501 6.12084 117.684 6.41304V6.40868Z" fill="#E94362"/>
<path d="M128.6 24.25C128.539 26.5963 127.658 28.6286 126.393 30.5344C125.469 31.9256 124.404 33.186 123.275 34.394H126.929C127.754 33.4607 128.53 32.4795 129.206 31.4154C130.719 29.0386 131.382 26.5222 131.012 23.7921H128.591C128.591 23.9448 128.604 24.0974 128.6 24.2544V24.25Z" fill="#E94362"/>
<path d="M114.627 10.6171C114.16 13.7135 112.756 16.4174 110.968 18.8902C108.809 21.8776 106.48 24.7472 104.186 27.6386C102.446 29.8279 100.693 32.0041 99.2407 34.394H103.096C104.064 33.0377 105.111 31.7337 106.188 30.4472C108.539 27.6517 110.876 24.8432 113.118 21.9604C114.657 19.9761 115.891 17.7781 116.628 15.3533C117.54 12.3572 117.509 9.3873 116.153 6.50459C115.913 5.9987 115.665 5.49717 115.412 5H114.212C114.801 6.82295 114.919 8.68952 114.627 10.6171Z" fill="#E94362"/>
<path d="M131.797 28.1052C131.343 29.8366 130.488 31.3979 129.411 32.8283C129.001 33.3691 128.569 33.8881 128.129 34.394H130.754C131.483 33.5479 132.163 32.6626 132.76 31.7032C134.064 29.6098 134.714 27.3857 134.527 24.8693C134.5 24.5029 134.452 24.1453 134.396 23.7877H131.954C132.189 25.2094 132.18 26.653 131.801 28.1009L131.797 28.1052Z" fill="#E94362"/>
<path d="M117.684 6.87965C117.339 6.33015 116.916 5.67161 116.472 5H115.857C116.598 6.2909 117.243 7.62976 117.684 9.05149V6.87965Z" fill="#E94362"/>
<path d="M117.684 53.1818V50.6393C117.431 51.4548 117.274 52.3009 117.235 53.1818H117.684Z" fill="#E94362"/>
<path d="M134.505 34.394C134.627 34.2545 134.745 34.1106 134.862 33.971C135.408 33.343 135.948 32.7063 136.472 32.0608V30.6304C135.578 31.9649 134.575 33.2034 133.515 34.3897H134.505V34.394Z" fill="#E94362"/>
<path d="M92.3065 23.7877H90.0474C89.4586 24.6294 88.8742 25.4711 88.2899 26.3172V29.6229C88.5341 29.2304 88.787 28.8379 89.04 28.4498C90.0779 26.8623 91.1944 25.3272 92.3021 23.7877H92.3065Z" fill="#E94362"/>
<path d="M135.36 23.7877C135.421 24.2064 135.469 24.6294 135.49 25.0612C135.613 27.7825 134.657 30.1375 133.148 32.3094C132.643 33.0377 132.097 33.7267 131.526 34.3896H133.092C134.374 32.9635 135.551 31.459 136.472 29.7537V23.7877H135.36Z" fill="#E94362"/>
<path d="M136.472 34.394V33.5436C136.241 33.8401 136.014 34.1236 135.796 34.394H136.472Z" fill="#E94362"/>
<path d="M135.495 34.394C135.826 33.9841 136.153 33.5785 136.472 33.186V32.4141C135.913 33.0813 135.338 33.7398 134.758 34.394H135.495Z" fill="#E94362"/>
<path d="M90.5969 31.7468C92.0186 28.9034 93.8329 26.3172 95.7343 23.7921H93.2441C92.4024 24.9609 91.5651 26.1384 90.7583 27.3334C89.8511 28.6766 89.0531 30.094 88.2942 31.5331V34.394H89.4717C89.8119 33.4956 90.1695 32.6016 90.6013 31.7468H90.5969Z" fill="#E94362"/>
<path d="M126.227 28.5065C127.078 26.9714 127.553 25.4014 127.658 23.7878H124.753C124.592 24.3678 124.387 24.9391 124.125 25.5017C122.843 28.271 120.911 30.5737 118.848 32.7674C116.428 35.3361 113.898 37.8001 111.543 40.4211C109.659 42.5232 108.129 44.8739 107.239 47.6214C107.182 47.8002 107.13 47.979 107.082 48.1578V44.8695C107.226 44.5817 107.37 44.2938 107.522 44.0104C108.696 41.8211 110.239 39.9065 111.927 38.1054C113.981 35.9117 116.11 33.7835 118.151 31.5768C120.021 29.5488 121.757 27.4119 122.983 24.9086C123.166 24.5379 123.323 24.1628 123.462 23.7878H119.572C118.936 24.913 118.19 25.9771 117.357 26.9932C115.311 29.4921 113.118 31.8777 110.942 34.2676C109.585 35.7591 108.264 37.2724 107.078 38.8817V36.8843C108.966 34.6165 110.92 32.4054 112.869 30.1899C114.675 28.1402 116.463 26.0817 117.924 23.7878H117.684V16.1122C116.995 18.4672 115.8 20.5693 114.4 22.5928C112.071 25.9727 109.219 28.9208 106.585 32.0478C105.935 32.8197 105.303 33.596 104.692 34.3941H107.078V53.1818H109.372C109.219 52.3096 109.215 51.4025 109.406 50.4474C109.851 48.2363 110.824 46.2651 112.119 44.4465C113.733 42.1743 115.686 40.2249 117.684 38.3104V34.3897H121.696C123.419 32.6016 125.006 30.7045 126.227 28.5022V28.5065Z" fill="#E94362"/>
<path d="M113.755 53.1818H116.31C116.319 53.0597 116.323 52.9376 116.336 52.8155C116.489 51.1931 116.973 49.7191 117.684 48.3627V44.6907C116.742 45.8028 115.887 46.9846 115.181 48.3017C114.348 49.8543 113.829 51.4766 113.755 53.1818Z" fill="#E94362"/>
<path d="M112.211 46.3305C111.133 48.1709 110.344 50.1072 110.27 52.2747C110.261 52.5843 110.27 52.8853 110.287 53.1818H112.782C112.791 52.9376 112.808 52.689 112.834 52.4404C113.118 49.8237 114.321 47.5996 115.874 45.5367C116.441 44.7866 117.047 44.0758 117.684 43.3954V39.8629C115.643 41.8254 113.667 43.8534 112.211 46.3348V46.3305Z" fill="#E94362"/>
<path d="M120.335 21.036V6.87976H116.646V11.7119H107.937V6.87976H104.252V21.036H107.937V15.7721H116.646V21.036H120.335Z" fill="#1D1D1B"/>
<path d="M83.7979 17.6605H73.3094H72.8733V17.2244V15.1485H82.9824V12.5928H72.8733V12.1524V10.2553H83.6365V6.87976H69.1837V21.036H83.7979V17.6605Z" fill="#1D1D1B"/>
<path d="M102.067 21.036V6.87976H98.5429V16.0381L88.9571 6.87976H85.6557V21.036H89.1839V11.7293L98.931 21.036H102.067Z" fill="#1D1D1B"/>
<path d="M126.206 15.1485H136.319V12.5928H126.206V12.1524V10.2553H136.969V6.87976H122.516V21.036H137.135V17.6605H126.646H126.206V17.2244V15.1485Z" fill="#1D1D1B"/>
<path d="M142.813 6.87976H139.058V21.036H142.813V6.87976Z" fill="#1D1D1B"/>
<path d="M160 6.87976H144.57V10.94H150.44V21.036H154.13V10.94H160V6.87976Z" fill="#1D1D1B"/>
<path d="M20.1864 6.87976L13.4615 21.036H17.6003L18.5641 18.8031H26.1873L27.1511 21.036H31.5166L24.7874 6.87976H20.1864ZM20.5309 15.8157H19.8637L22.3713 9.9718L24.9008 15.8157H20.5309Z" fill="#1D1D1B"/>
<path d="M49.2228 21.036V6.87976H45.5333V11.7119H36.8285L36.8241 6.87976H33.1346V21.036H36.8285V15.7721H45.5333V21.036H49.2228Z" fill="#1D1D1B"/>
<path d="M64.936 16.1602C65.7646 16.073 66.2487 15.8026 66.6063 15.2618C66.9639 14.7167 67.1645 13.827 67.1645 12.5361V10.5169C67.1645 9.13443 66.9247 8.20551 66.5104 7.67345C66.1004 7.1414 65.5073 6.88409 64.5042 6.87537H51.4078V21.036H55.0973V16.6094H60.0559L62.7947 21.036H67.2954L64.2251 16.23L64.9404 16.1646L64.936 16.1602ZM63.475 12.2788C63.475 12.5361 63.4576 12.7585 63.3704 12.9766C63.2919 13.1946 63.0825 13.3996 62.8557 13.4694L62.4153 13.5348H55.0929V10.0808H62.4153L62.8557 10.1462L63.2526 10.4297C63.4532 10.7088 63.4707 10.9966 63.475 11.3368V12.2832V12.2788Z" fill="#1D1D1B"/>
<path d="M13.6316 13.1729H3.68388V12.7324V10.469H14.2858V6.87976H-0.00563812V21.036H3.68388V16.2475H13.6316V13.1729Z" fill="#1D1D1B"/>
<path d="M16.0651 29.2174C16.0651 29.5314 16.0215 29.828 15.9343 30.1071C15.7947 30.5607 15.5505 30.9183 15.2059 31.1887C14.748 31.5463 14.1331 31.7251 13.3612 31.7251H11.9351V26.6531H13.3394C14.0546 26.6531 14.6346 26.8014 15.0795 27.0979C15.4414 27.3334 15.7031 27.6736 15.8688 28.1097C15.9953 28.4411 16.0607 28.8118 16.0607 29.2131L16.0651 29.2174ZM15.1274 29.2174C15.1274 28.5284 14.8832 28.053 14.3991 27.7913C14.12 27.6387 13.7493 27.5646 13.2914 27.5646H12.8815V30.8136H13.3394C13.7929 30.8136 14.1506 30.7395 14.4209 30.5955C14.8919 30.3382 15.1274 29.8803 15.1274 29.2174Z" fill="#E94362"/>
<path d="M22.2405 31.7251H21.0804L19.7633 29.8541L19.7502 31.7251H18.8126V26.6531H20.2779C21.0193 26.6531 21.547 26.8624 21.8654 27.2767C22.0747 27.5515 22.1794 27.8786 22.1794 28.2623C22.1794 28.6766 22.0529 29.0386 21.8043 29.3395C21.5514 29.6405 21.22 29.8105 20.81 29.8541L22.2361 31.7251H22.2405ZM21.2461 28.319C21.2461 28.005 21.1196 27.787 20.8623 27.6692C20.7141 27.5994 20.5309 27.5646 20.3085 27.5646H19.7546V29.0735H20.3085C20.5353 29.0735 20.7184 29.043 20.858 28.9776C21.1196 28.8598 21.2505 28.6418 21.2505 28.319H21.2461Z" fill="#E94362"/>
<path d="M25.8471 31.7251H24.9095V26.6531H25.8471V31.7251Z" fill="#E94362"/>
<path d="M33.0037 31.7251H32.0661L29.807 28.2972V31.7251H28.8694V26.6531H29.807L32.0661 30.0766V26.6531H33.0037V31.7251Z" fill="#E94362"/>
<path d="M39.6457 31.7251H38.5206L36.9462 29.5053V31.7251H36.0086V26.6531H36.9462V28.8511L38.5206 26.6531H39.6457L37.7356 29.1476L39.6457 31.7251Z" fill="#E94362"/>
<path d="M49.6894 31.7251H48.7518V29.6012H46.9027V31.7251H45.965V26.6531H46.9027V28.6897H48.7518V26.6531H49.6894V31.7251Z" fill="#E94362"/>
<path d="M55.4156 31.7251H52.6942V26.6531H55.4156V27.5646H53.6363V28.7377H55.3415V29.6492H53.6363V30.8136H55.4156V31.7251Z" fill="#E94362"/>
<path d="M62.8557 31.7251H61.8221L61.3031 30.4167H59.4409L58.9219 31.7251H57.8884L59.9991 26.6531H60.7536L62.8644 31.7251H62.8557ZM60.9455 29.5053L60.3698 28.0268L59.7942 29.5053H60.9455Z" fill="#E94362"/>
<path d="M67.8536 31.7251H65.3677V26.6531H66.3053V30.8136H67.8536V31.7251Z" fill="#E94362"/>
<path d="M72.4982 27.5646H71.5605V31.7251H70.6229V27.5646H69.6852V26.6531H72.5025V27.5646H72.4982Z" fill="#E94362"/>
<path d="M78.7215 31.7251H77.7838V29.6012H75.9347V31.7251H74.9971V26.6531H75.9347V28.6897H77.7838V26.6531H78.7215V31.7251Z" fill="#E94362"/>
<path d="M4 34.851L4 23.851H0L0 34.851H4Z" fill="#E94362"/>
</g>
<defs>
<clipPath id="clip0_317_187045">
<rect width="160" height="59" fill="white"/>
</clipPath>
</defs>
</svg>
