<svg width="160" height="59" viewBox="0 0 160 59" fill="none" xmlns="http://www.w3.org/2000/svg">
<path d="M7.35668 42.8187C7.09254 42.9642 6.78952 43.0244 6.48951 42.991H0.766265C0.141941 42.991 -0.100906 42.7149 0.0378331 42.1972L4.65116 22.5947C4.88719 21.6098 5.24853 20.6588 5.72644 19.7648C6.2031 18.8462 6.8369 18.0172 7.59942 17.315C8.42063 16.5803 9.37386 16.0064 10.409 15.6234C11.6081 15.1864 12.8786 14.9757 14.1553 15.0022H26.3647C26.677 15.0022 26.8851 15.0368 26.9544 15.1403C27.0238 15.2437 27.0238 15.5199 26.8851 15.9685L25.8445 20.4896C25.809 20.7446 25.7006 20.9841 25.5323 21.1798C25.3407 21.3145 25.1066 21.3757 24.8732 21.352H14.9529C14.4927 21.3319 14.033 21.4023 13.6001 21.5591C13.2752 21.6803 12.9797 21.8685 12.733 22.1113C12.5401 22.3239 12.3873 22.5694 12.282 22.8361C12.1664 23.0921 12.0735 23.3577 12.0045 23.6298L11.4148 26.1147H21.994C22.3063 26.1147 22.5144 26.1837 22.5837 26.287C22.6531 26.3903 22.6184 26.6667 22.5144 27.1152L21.5432 31.2567C21.4045 31.8779 21.0576 32.1886 20.572 32.1886H9.99282L7.63415 42.1976C7.60597 42.4379 7.50974 42.6653 7.35668 42.8533" fill="#E80024"/>
<path d="M51.3581 28.9641C50.8787 31.1373 50.1514 33.2449 49.1913 35.2432C48.3494 37.01 47.2141 38.6127 45.8363 39.9795C44.4764 41.2899 42.8713 42.3029 41.1184 42.9572C39.1453 43.679 37.062 44.0315 34.9676 43.9978C32.7776 43.9978 30.9603 43.6629 29.5158 42.9932C28.1458 42.3928 26.996 41.363 26.2307 40.051C25.4498 38.5995 25.0297 36.9727 25.0075 35.3147C24.955 33.2125 25.1783 31.1126 25.6715 29.0716C26.1444 26.9094 26.8966 24.8219 27.9082 22.8644C28.8251 21.0879 30.0172 19.4761 31.4379 18.0924C32.7938 16.7766 34.3837 15.7412 36.1209 15.0425C37.9737 14.3236 39.9421 13.9706 41.9226 14.0019C44.1126 14.0019 45.9299 14.3488 47.3744 15.0425C48.7475 15.6872 49.9031 16.7362 50.6945 18.0564C51.5022 19.5003 51.9463 21.1282 51.9867 22.7927C52.0575 24.8698 51.8458 26.947 51.3577 28.9641M43.2848 28.9999C43.5009 27.9825 43.6526 26.9518 43.7391 25.9142C43.8205 25.061 43.7616 24.1998 43.5647 23.3667C43.4071 22.6908 43.039 22.0861 42.5163 21.6444C41.875 21.1788 41.0986 20.9511 40.3146 20.9986C39.5404 20.9929 38.7792 21.2038 38.1129 21.6086C37.3975 22.0459 36.7691 22.618 36.2607 23.295C35.6954 24.0567 35.2257 24.8885 34.8628 25.7707C34.436 26.7167 34.0967 27.7017 33.8493 28.7129C33.5767 29.8447 33.3897 30.9964 33.2901 32.1578C33.2034 33.0249 33.2745 33.9009 33.4998 34.7412C33.6802 35.4052 34.0744 35.9869 34.6182 36.3913C35.2655 36.8074 36.0223 37.0079 36.7849 36.9654C37.6203 36.9822 38.4435 36.7585 39.1614 36.3196C39.8779 35.8673 40.4964 35.2689 40.9787 34.5614C41.5254 33.7739 41.9717 32.9178 42.3068 32.014C42.6808 31.0211 42.9845 30.0019 43.2154 28.9641" fill="#E80024"/>
<path d="M103.572 27.7057C104.191 27.9828 104.74 28.3956 105.18 28.9141C105.577 29.4056 105.878 29.9677 106.07 30.5713C106.259 31.1741 106.351 31.8035 106.343 32.4357C106.336 33.0872 106.256 33.7357 106.104 34.369C105.821 35.6322 105.298 36.828 104.564 37.8903C103.834 38.945 102.931 39.8672 101.896 40.6178C100.832 41.3866 99.6537 41.9808 98.4058 42.3785C97.1232 42.7941 95.7839 43.0038 94.4368 42.9999H84.1042C83.0093 42.9999 82.3592 42.7928 82.154 42.3785C81.9487 41.9642 81.9487 41.3082 82.154 40.3416L87.4228 17.6245C87.5529 16.8977 87.8717 16.2186 88.3467 15.6566C88.7571 15.2078 89.5099 15.0003 90.6049 15.0003H100.903C102 14.9926 103.093 15.1319 104.154 15.4146C105.043 15.6392 105.864 16.0775 106.549 16.692C107.187 17.298 107.639 18.0773 107.849 18.9361C108.081 20.0215 108.045 21.1475 107.746 22.216C107.472 23.335 106.945 24.375 106.207 25.255C105.487 26.1836 104.592 26.9582 103.572 27.5337V27.7057ZM93.1367 25.289H97.2767C97.8154 25.2778 98.3436 25.1357 98.8163 24.8748C99.3295 24.5986 99.6716 24.0807 99.8427 23.3212C100.014 22.5616 99.9112 22.2509 99.6375 21.9056C99.4635 21.7316 99.2539 21.5981 99.0234 21.5146C98.7929 21.4311 98.547 21.3996 98.3031 21.4223H94.0263L93.1367 25.289ZM98.4742 33.8858C98.5731 33.5707 98.603 33.2376 98.5616 32.9097C98.5202 32.5818 98.4087 32.267 98.2347 31.9869C97.8925 31.5036 97.2767 31.2619 96.4213 31.2619H91.7681L90.5363 36.4754H95.1895C95.6571 36.4863 96.1221 36.4042 96.5582 36.2337C96.9146 36.076 97.2392 35.8536 97.5161 35.5777C97.7636 35.3361 97.9715 35.0565 98.132 34.7491C98.2667 34.4741 98.37 34.1845 98.4398 33.886" fill="#E80024"/>
<path d="M127.458 43H115.221C113.649 43 112.418 42.759 111.53 42.3112C110.724 41.9265 110.056 41.3012 109.615 40.5204C109.209 39.7707 108.997 38.9296 109 38.0753C108.999 37.1709 109.102 36.2694 109.308 35.3891L112.281 22.6123C112.514 21.6294 112.87 20.6804 113.341 19.7883C113.812 18.8722 114.436 18.0449 115.187 17.3431C115.996 16.61 116.935 16.0375 117.956 15.6555C119.146 15.2034 120.41 14.9814 121.681 15.0012H133.371C133.679 15.0012 133.884 15.0357 133.952 15.139C134.021 15.2422 134.021 15.5178 133.918 15.9655L132.859 20.4769C132.814 20.7352 132.695 20.9746 132.517 21.1657C132.329 21.3031 132.097 21.3645 131.867 21.3376H122.399C121.945 21.3166 121.492 21.3868 121.066 21.5442C120.745 21.6642 120.454 21.8521 120.211 22.0952C120.009 22.3041 119.846 22.5494 119.733 22.8185C119.62 23.0743 119.528 23.3393 119.459 23.6106L119.083 25.2985H129.714C130.022 25.2985 130.227 25.3674 130.295 25.4704C130.353 25.7467 130.329 26.034 130.227 26.2969L129.27 30.464C129.133 31.0839 128.814 31.3939 128.313 31.3939H117.682L116.998 34.3903C116.886 34.7814 116.851 35.191 116.896 35.5957C116.926 35.8488 117.047 36.0819 117.238 36.25C117.437 36.4016 117.673 36.4967 117.921 36.5255L118.844 36.5944H128.893C129.201 36.5944 129.406 36.6289 129.475 36.7322C129.543 36.8354 129.543 37.111 129.44 37.5587L128.381 42.0701C128.244 42.69 127.902 43 127.424 43" fill="#E80024"/>
<path d="M157.776 21.3829H150.924L146.044 42.1621C146.01 42.4007 145.915 42.6264 145.767 42.8168C145.505 42.9666 145.201 43.027 144.902 42.9889H139.191C138.568 42.9889 138.326 42.7132 138.464 42.1619L143.344 21.3829H136.664C136.111 21.3829 135.903 21.0727 136.042 20.4525L137.08 15.9727C137.112 15.6627 137.246 15.372 137.461 15.1457C137.674 15.0361 137.914 14.9883 138.153 15.0078H159.299C159.517 14.9796 159.737 15.0284 159.922 15.1457C160.026 15.249 160.026 15.5247 159.922 15.9727L158.884 20.4525C158.745 21.0727 158.399 21.3829 157.811 21.3829" fill="#E80024"/>
<path d="M62.194 27.8445L58.721 42.16C58.6771 42.4022 58.5681 42.6285 58.4052 42.8154C58.1408 42.9678 57.8319 43.0284 57.5282 42.9876H51.775C51.1435 42.9876 50.8979 42.7116 51.0383 42.1597L56.8618 18.1857C57.1775 16.9439 57.5633 16.0815 58.0896 15.6673C58.6158 15.253 59.4577 15.0124 60.5803 15.0124H62.6851L63.7375 15.0814C64.0074 15.1159 64.2688 15.1977 64.5094 15.3229C64.7589 15.4587 64.9747 15.6472 65.1412 15.8748C65.3701 16.1778 65.5698 16.5011 65.7376 16.8406L69.4913 25.3954L71.4909 30.2591H71.7715L75.2436 15.8402C75.2892 15.5985 75.398 15.3726 75.5594 15.1848C75.8239 15.0323 76.1329 14.9716 76.4367 15.0124H82.225C82.8565 15.0124 83.1021 15.2883 82.9617 15.8402L77.1033 39.8488C76.9171 40.6738 76.5321 41.4427 75.9808 42.091C75.4663 42.6889 74.5893 42.9878 73.3497 42.9878H71.2448L70.2275 42.9188C69.9457 42.8876 69.6722 42.8058 69.4206 42.6774C69.1743 42.5373 68.9595 42.3496 68.7892 42.1255C68.558 41.8304 68.3691 41.5054 68.2279 41.1597L64.5444 32.8119L62.5097 27.8446L62.194 27.8445Z" fill="#E80024"/>
</svg>
