<svg width="154" height="46" viewBox="0 0 154 46" fill="none" xmlns="http://www.w3.org/2000/svg">
<path d="M84.5288 24.4137H81.5909V5.46233H84.5288V12.8998H85.0304C86.6068 12.8998 87.1084 11.1835 87.1084 9.89623V5.46233H90.0462V9.82472C90.0462 11.8271 89.3297 13.3289 87.8966 14.2586C89.473 15.3313 90.0462 16.7616 90.0462 18.6925V24.4137H87.1084V18.621C87.1084 17.4053 86.5351 15.9035 85.0304 15.9035H84.5288V24.4137ZM133.828 24.4137V5.46233H136.407V16.5471L139.417 5.46233H142.641V24.4137H140.062V11.1835L136.479 24.4137H133.828ZM144.719 24.4137V5.46233H147.299V16.5471L150.308 5.46233H153.533V24.4137H150.953V11.1835L147.37 24.4137H144.719ZM152.315 0.956909V3.17386H145.937V0.956909H152.315ZM126.447 24.4137H123.509V5.46233H126.447V12.8998H126.949C128.525 12.8998 129.027 11.1835 129.027 9.89623V5.46233H131.965V9.82472C131.965 11.8271 131.248 13.3289 129.815 14.2586C131.391 15.3313 131.965 16.7616 131.965 18.6925V24.4137H129.027V18.621C129.027 17.4053 128.453 15.9035 126.949 15.9035H126.447V24.4137ZM73.8521 24.3422H70.9143V5.39081H73.8521H76.6467H79.5846V13.0429H76.6467V8.10837H73.8521V21.6246H76.6467V16.6901H79.5846V24.2707H76.6467H73.8521V24.3422ZM115.77 24.3422H112.833V5.39081H115.77H118.565H121.503V13.0429H118.565V8.10837H115.77V21.6246H118.565V16.6901H121.503V24.2707H118.565H115.77V24.3422ZM65.9701 8.10837H63.2472C63.2472 12.6853 63.2472 17.1192 63.2472 21.6246H65.9701C65.9701 17.1192 65.9701 12.6853 65.9701 8.10837ZM63.1755 24.3422H60.3093C60.3093 18.0489 60.3093 11.6841 60.3093 5.39081H63.2472H66.0417H68.9796C68.9796 11.6841 68.9796 18.0489 68.9796 24.3422H66.0417H63.1755ZM97.7134 8.10837H94.9904C94.9904 12.6853 94.9904 17.1192 94.9904 21.6246H97.7134C97.7134 17.1192 97.7134 12.6853 97.7134 8.10837ZM94.9904 24.3422H92.0526C92.0526 18.0489 92.0526 11.6841 92.0526 5.39081H94.9904H97.785H100.723C100.723 11.6841 100.723 18.0489 100.723 24.3422H97.785H94.9904ZM105.667 8.10837V13.1859C106.742 13.2574 108.032 13.1859 108.032 11.255V9.53866V8.10837H105.667ZM105.667 15.9035V21.6246H108.032C108.032 20.4089 108.032 19.1931 108.032 17.9059C108.032 16.0465 106.742 15.8319 105.667 15.9035ZM110.97 8.752V9.53866V11.0405C110.97 12.5423 110.325 13.6865 109.321 14.3301C110.396 15.1883 110.97 16.4756 110.97 18.1204C110.97 20.1943 110.97 22.2683 110.97 24.3422C109.178 24.3422 107.458 24.3422 105.667 24.3422H102.729V5.39081H105.667C107.458 5.39081 109.178 5.39081 110.97 5.39081V8.752ZM52.1406 18.1204C52.9288 14.0441 53.8604 9.53866 54.3619 5.46233H58.303V24.4137H55.795V16.9047L56.0817 10.1108C55.7234 12.2562 54.2903 20.3374 52.4989 24.1991H52.2123H51.9256C50.1343 20.3374 48.7012 12.3277 48.3429 10.1108L48.6295 16.9047V24.4137H45.9783V5.46233H49.9193C50.3492 9.53866 51.3524 14.0441 52.1406 18.1204Z" fill="#EBEBEB"/>
<path d="M80.5154 29.7455V37.7327C81.5814 37.8004 82.8605 37.5974 82.8605 35.7698V34.1452V29.7455H80.5154ZM85.7742 33.4007V34.1452V35.5667C85.7742 38.3419 84.2818 40.2372 81.5103 40.2372H80.5865V45.0431H77.6729V27.1733C80.3733 27.1733 83.0737 27.1733 85.7742 27.1733V33.4007ZM86.6269 27.1733H95.5099V29.7455H92.5252V45.1108H89.6116V29.7455H86.6269V27.1733ZM72.7694 29.7455H70.069C70.069 34.0775 70.069 38.2743 70.069 42.5387H72.7694C72.7694 38.2066 72.7694 34.0099 72.7694 29.7455ZM70.069 45.1108H67.1554C67.1554 39.1542 67.1554 33.1299 67.1554 27.1733H70.069H72.8405H75.7541C75.7541 33.1299 75.7541 39.1542 75.7541 45.1108H72.8405H70.069ZM48.8919 45.1108H45.9783V27.1733H48.8919H51.6634H54.577V34.3483H51.6634V29.6778H48.8919V42.471H51.6634V37.8004H54.577V44.9754H51.6634H48.8919V45.1108ZM59.4804 45.1108H56.5668V27.1733H65.0945V45.1108H62.1809V29.7455H59.4804V45.1108Z" fill="#EBEBEB"/>
<path d="M20.5049 35.6428C21.24 36.4661 22.0487 37.2894 22.8574 38.0441C26.8273 41.5432 31.8264 44.0817 37.4872 45.1109V41.9548C32.7821 40.9257 28.5917 38.7988 25.2834 35.8486C24.1807 34.8881 23.225 33.8589 22.3428 32.6926L20.5049 35.6428Z" fill="#EBEBEB"/>
<path d="M8.54585 31.9029C12.1817 28.578 14.436 24.0064 14.436 19.0191V5.09631H17.8537V19.0191C17.8537 21.4435 18.29 24.3527 19.0899 26.5693C19.8898 24.3527 20.3261 21.5127 20.3261 19.0191V5.09631H23.7438V19.0191C23.7438 24.0064 25.998 28.578 29.6339 31.9029C31.8154 33.9116 34.5059 35.4355 37.4873 36.336V39.5916C33.5606 38.5526 30.0702 36.6823 27.2342 34.1194C25.1254 32.18 23.3802 29.9634 22.2167 27.4005C21.3441 29.6171 20.3261 31.6258 19.0899 33.219C17.8537 31.6258 16.9083 29.5478 15.963 27.4005C14.7995 29.8941 13.0543 32.18 10.9455 34.1194C8.10953 36.6823 4.61912 38.5526 0.692383 39.5916V36.336C3.67379 35.4355 6.36433 33.9116 8.54585 31.9029Z" fill="#EBEBEB"/>
<path d="M29.4708 19.1019C29.4708 22.6759 31.0882 25.9128 33.6197 28.273C34.7448 29.2845 36.0106 30.1611 37.4873 30.768V34.0723C35.1667 33.2631 33.0571 31.9818 31.2991 30.4309C28.1347 27.5312 26.1658 23.5525 26.1658 19.1693V16.1348H29.4708V19.1019Z" fill="#EBEBEB"/>
<path d="M8.70887 16.1348H12.0139V19.1693C12.0139 23.5525 10.045 27.5312 6.88055 30.4309C5.12254 32.0493 3.01295 33.2631 0.692383 34.0723V30.768C2.09879 30.1611 3.43487 29.2845 4.55999 28.273C7.16184 25.9128 8.70887 22.6759 8.70887 19.1019V16.1348Z" fill="#EBEBEB"/>
<path d="M15.8368 32.6926C14.9546 33.7903 13.9253 34.8881 12.8961 35.8486C9.58786 38.7988 5.39744 40.9257 0.692383 41.9548V45.1109C6.35315 44.0131 11.4258 41.5432 15.3222 38.0441C16.1308 37.2894 16.9395 36.5347 17.6747 35.6428L15.8368 32.6926Z" fill="#EBEBEB"/>
</svg>
