<svg width="160" height="60" viewBox="0 0 160 60" fill="none" xmlns="http://www.w3.org/2000/svg">
<g clip-path="url(#clip0_178_24739)">
<path d="M55.6521 59.1782H28.8347L18 0.178223H44.8174L55.6521 59.1782Z" fill="#FF0032"/>
<path d="M61.0695 29.6782L55.6521 59.1782H82.4668L87.8869 29.6782H61.0695Z" fill="#FF0032"/>
<path d="M96.6162 32.7209V43.0718H93.3152V29.6727H99.0047L102.325 39.6719L105.664 29.6727H111.159V43.0718H107.547V32.6824L104.051 43.0718H100.11L96.6134 32.7209H96.6162Z" fill="#FF0032"/>
<path d="M112.085 32.6054V29.6727H126.55V32.6054H121.114V43.0718H117.502V32.6054H112.085Z" fill="#FF0032"/>
<path d="M134.252 29.4006C138.704 29.4006 141.382 30.6815 141.75 34.3123H138.127C137.819 32.6027 136.508 32.1959 134.255 32.1959C131.844 32.1959 130.148 32.8171 130.148 35.6123V37.146C130.148 39.8643 131.786 40.5432 134.274 40.5432C136.412 40.5432 137.762 40.1556 138.146 38.5615H141.769C141.346 42.0191 138.685 43.3384 134.252 43.3384C129.395 43.3384 126.523 41.6481 126.523 36.3874C126.523 31.1267 129.395 29.3979 134.252 29.3979V29.4006Z" fill="#FF0032"/>
<path d="M96.9268 45.7575V56.2239H104.713V59.1566H93.3152V45.7575H96.9268Z" fill="#FF0032"/>
<path d="M109.859 45.7572V59.1563H106.247V45.7572H109.859Z" fill="#FF0032"/>
<path d="M127.49 45.7572L121.763 59.1563H116.87L111.181 45.7572H115.045L119.55 56.515L124.113 45.7572H127.49Z" fill="#FF0032"/>
<path d="M141.044 45.7571V48.5332H132.441V50.9794H138.985V53.6399H132.441V56.3775H141.101V59.1535H128.829V45.7544H141.044V45.7571Z" fill="#FF0032"/>
</g>
<defs>
<clipPath id="clip0_178_24739">
<rect width="160" height="59" fill="white" transform="translate(0 0.178223)"/>
</clipPath>
</defs>
</svg>
