<svg width="160" height="59" viewBox="0 0 160 59" fill="none" xmlns="http://www.w3.org/2000/svg">
<g clip-path="url(#clip0_317_186989)">
<path d="M90.2212 44.4195L90.3928 45.2145H90.4332L90.5543 44.4195L91.1752 41.7795H91.7708L90.7991 45.4492C90.7234 45.7445 90.6452 46.0171 90.5695 46.2745C90.4937 46.5294 90.4105 46.7515 90.3196 46.9408C90.2287 47.1301 90.1278 47.2765 90.0167 47.3825C89.9057 47.4885 89.7745 47.5415 89.6205 47.5415C89.4665 47.5415 89.3353 47.5162 89.2192 47.4683L89.3176 46.913C89.3933 46.9408 89.4691 46.9459 89.5473 46.9307C89.623 46.913 89.6962 46.8676 89.7644 46.7919C89.8325 46.7162 89.8956 46.6026 89.9511 46.4537C90.0092 46.3048 90.0596 46.1105 90.1025 45.8707L88.7775 41.7821H89.4489L90.2161 44.422L90.2212 44.4195Z" fill="#E04E39"/>
<path d="M94.6581 45.6613C94.5218 45.7647 94.3679 45.843 94.1912 45.8909C94.017 45.9414 93.8353 45.9666 93.6435 45.9666C93.381 45.9666 93.1615 45.9162 92.9823 45.8152C92.8031 45.7143 92.6567 45.5704 92.5456 45.3811C92.4346 45.1943 92.3513 44.9672 92.3008 44.7022C92.2504 44.4372 92.2226 44.147 92.2226 43.8239C92.2226 43.1273 92.3463 42.5948 92.5961 42.2288C92.8435 41.8654 93.1993 41.6812 93.6637 41.6812C93.8757 41.6812 94.0599 41.7013 94.2114 41.7392C94.3628 41.7771 94.4941 41.8275 94.6051 41.8856L94.4411 42.4004C94.2215 42.2768 93.9842 42.2112 93.7293 42.2112C93.434 42.2112 93.2119 42.3424 93.063 42.5998C92.9141 42.8598 92.8384 43.2661 92.8384 43.8239C92.8384 44.0485 92.8536 44.258 92.8864 44.4523C92.9192 44.6492 92.9747 44.8183 93.0504 44.9622C93.1261 45.106 93.2246 45.2221 93.3457 45.3054C93.4643 45.3887 93.6158 45.4316 93.7949 45.4316C93.9363 45.4316 94.07 45.4064 94.1912 45.3584C94.3123 45.3104 94.4133 45.2524 94.489 45.1868L94.6606 45.6613H94.6581Z" fill="#E04E39"/>
<path d="M97.0785 42.3096H96.1876C96.1724 42.7739 96.1497 43.2207 96.122 43.6548C96.0942 44.0889 96.0488 44.4725 95.9781 44.8031C95.91 45.1363 95.814 45.4013 95.6879 45.6006C95.5617 45.8 95.3976 45.8985 95.1881 45.8985C95.0948 45.8985 95.0165 45.8934 94.9509 45.8833C94.8853 45.8732 94.8247 45.853 94.7717 45.8278L94.8626 45.3205C94.9761 45.3533 95.0796 45.3457 95.1679 45.3003C95.2588 45.2524 95.337 45.111 95.4027 44.8738C95.4683 44.6365 95.5213 44.2731 95.5617 43.7835C95.602 43.2938 95.6298 42.6276 95.6475 41.7795H97.6665V45.8682H97.0785V42.3121V42.3096Z" fill="#E04E39"/>
<path d="M99.8093 44.4195L99.9809 45.2145H100.021L100.145 44.4195L100.766 41.7795H101.364L100.392 45.4492C100.317 45.7445 100.238 46.0171 100.163 46.2745C100.087 46.5294 100.004 46.7515 99.9127 46.9408C99.8219 47.1301 99.7209 47.2765 99.6099 47.3825C99.4988 47.4885 99.3651 47.5415 99.2136 47.5415C99.0622 47.5415 98.9284 47.5162 98.8123 47.4683L98.9108 46.913C98.9865 46.9408 99.0647 46.9459 99.1405 46.9307C99.2162 46.913 99.2894 46.8676 99.3575 46.7919C99.4256 46.7162 99.4887 46.6026 99.5468 46.4537C99.6048 46.3048 99.6553 46.1105 99.6982 45.8707L98.3732 41.7821H99.042L99.8118 44.422L99.8093 44.4195Z" fill="#E04E39"/>
<path d="M103.979 42.3094H102.621V45.8655H102.033V41.7769H103.979V42.3069V42.3094Z" fill="#E04E39"/>
<path d="M106.651 43.5107L106.699 42.8899H106.667L106.381 43.5764L105.001 45.8655H104.617V41.7769H105.205V44.2048L105.157 44.8004H105.19L105.46 44.1316L106.858 41.7769H107.242V45.8655H106.654V43.5107H106.651Z" fill="#E04E39"/>
<path d="M38.3006 42.3094H36.9428V45.8655H36.3547V41.7769H38.3006V42.3069V42.3094Z" fill="#E04E39"/>
<path d="M38.6616 43.8215C38.6616 43.0845 38.7877 42.5444 39.0401 42.1986C39.2925 41.8529 39.6559 41.6787 40.1229 41.6787C40.6251 41.6787 40.9936 41.8554 41.2308 42.2112C41.4681 42.5671 41.5867 43.1022 41.5867 43.8215C41.5867 44.5408 41.458 45.1036 41.2031 45.4493C40.9482 45.7926 40.5872 45.9642 40.1229 45.9642C39.6206 45.9642 39.2521 45.7875 39.0149 45.4317C38.7776 45.0783 38.659 44.5408 38.659 43.8215H38.6616ZM39.2748 43.8215C39.2748 44.0612 39.29 44.2808 39.3203 44.4751C39.3506 44.672 39.3985 44.8411 39.4667 44.9824C39.5348 45.1238 39.6231 45.2348 39.7317 45.313C39.8402 45.3938 39.9714 45.4317 40.1229 45.4317C40.4055 45.4317 40.6201 45.3055 40.7614 45.0506C40.9027 44.7982 40.9734 44.3868 40.9734 43.8215C40.9734 43.5867 40.9583 43.3722 40.928 43.1728C40.8977 42.9734 40.8497 42.8043 40.7816 42.6605C40.7134 42.5192 40.6251 42.4081 40.5166 42.3299C40.4081 42.2516 40.2768 42.2112 40.1254 42.2112C39.8478 42.2112 39.6358 42.3374 39.4919 42.5949C39.348 42.8523 39.2748 43.2612 39.2748 43.8215Z" fill="#E04E39"/>
<path d="M44.7945 45.6613C44.6582 45.7648 44.5017 45.8431 44.3276 45.891C44.1534 45.9415 43.9717 45.9642 43.7799 45.9642C43.5174 45.9642 43.2978 45.9137 43.1187 45.8128C42.9395 45.7118 42.7931 45.568 42.682 45.3787C42.571 45.1894 42.4877 44.9648 42.4372 44.6998C42.3842 44.4348 42.359 44.142 42.359 43.8215C42.359 43.1249 42.4826 42.5923 42.73 42.2264C42.9773 41.8604 43.3332 41.6787 43.7976 41.6787C44.0096 41.6787 44.1938 41.6989 44.3452 41.7368C44.4992 41.7746 44.6279 41.8251 44.739 41.8831L44.5749 42.398C44.3553 42.2718 44.1206 42.2087 43.8632 42.2087C43.5704 42.2087 43.3458 42.3374 43.1969 42.5974C43.0455 42.8573 42.9723 43.2637 42.9723 43.8189C42.9723 44.0436 42.9874 44.253 43.0202 44.4474C43.053 44.6442 43.1086 44.8133 43.1843 44.9597C43.26 45.1036 43.3584 45.2171 43.4796 45.303C43.5982 45.3862 43.7496 45.4291 43.9288 45.4291C44.0701 45.4291 44.2039 45.4039 44.3251 45.356C44.4487 45.308 44.5472 45.25 44.6229 45.1843L44.7945 45.6588V45.6613Z" fill="#E04E39"/>
<path d="M46.5258 44.4195L46.6974 45.212H46.7378L46.859 44.4195L47.4798 41.7795H48.0755L47.1038 45.4492C47.0281 45.7445 46.9498 46.0196 46.8741 46.2745C46.7984 46.5294 46.7151 46.7515 46.6243 46.9408C46.5334 47.1301 46.4324 47.2765 46.3214 47.3825C46.2103 47.4885 46.0791 47.5415 45.9251 47.5415C45.7712 47.5415 45.64 47.5162 45.5239 47.4683L45.6223 46.913C45.698 46.9408 45.7737 46.9459 45.852 46.9307C45.9277 46.913 46.0009 46.8701 46.069 46.7919C46.1372 46.7137 46.2002 46.6026 46.2558 46.4512C46.3138 46.3023 46.3643 46.1079 46.4072 45.8682L45.0822 41.7795H45.7535L46.5208 44.4195H46.5258Z" fill="#E04E39"/>
<path d="M51.619 46.9055H51.2101L51.1117 45.8656H48.6913L48.5853 46.9055H48.184V45.3356H48.5676C48.6005 45.2751 48.6459 45.164 48.7014 45.0025C48.7595 44.8435 48.815 44.6189 48.8705 44.3337C48.9235 44.0485 48.9715 43.6951 49.0144 43.2762C49.0547 42.8572 49.0775 42.3575 49.085 41.7795H51.1369V45.3356H51.619V46.9055ZM50.5489 45.3356V42.3096H49.6251C49.615 42.5443 49.5999 42.8017 49.5797 43.0793C49.5595 43.3569 49.5318 43.6346 49.4939 43.9097C49.456 44.1848 49.4081 44.4498 49.3551 44.6996C49.2996 44.9495 49.239 45.1615 49.1683 45.3382H50.5489V45.3356Z" fill="#E04E39"/>
<path d="M52.3559 42.0243C52.5149 41.9259 52.7067 41.8502 52.9314 41.7946C53.1585 41.7391 53.3958 41.7139 53.6481 41.7139C53.8778 41.7139 54.062 41.7467 54.2009 41.8173C54.3397 41.8855 54.4482 41.9789 54.529 42.095C54.6072 42.2136 54.6602 42.3448 54.6829 42.4963C54.7082 42.6452 54.7208 42.8042 54.7208 42.9657C54.7208 43.2938 54.7132 43.6118 54.7006 43.9222C54.688 44.2327 54.6804 44.528 54.6804 44.8056C54.6804 45.0125 54.688 45.2043 54.7006 45.381C54.7157 45.5577 54.741 45.7268 54.7788 45.8833H54.317L54.1731 45.4012H54.1403C54.0595 45.5425 53.9409 45.6637 53.7844 45.7697C53.6279 45.8732 53.4159 45.9262 53.1509 45.9262C52.8607 45.9262 52.6209 45.8227 52.4342 45.6183C52.2474 45.4138 52.154 45.1312 52.154 44.7728C52.154 44.538 52.1919 44.3437 52.2701 44.1847C52.3484 44.0282 52.4594 43.8995 52.6033 43.8011C52.7471 43.7027 52.9162 43.6345 53.1131 43.5916C53.3099 43.5512 53.5295 43.531 53.7743 43.531H53.9359C53.9914 43.531 54.0469 43.5336 54.1075 43.5386C54.1226 43.3695 54.1327 43.2206 54.1327 43.0894C54.1327 42.7789 54.0873 42.5619 53.9939 42.4357C53.903 42.3095 53.7339 42.2489 53.4917 42.2489C53.3402 42.2489 53.1762 42.2716 52.997 42.3171C52.8178 42.365 52.6714 42.4231 52.5528 42.4937L52.3585 42.0268L52.3559 42.0243ZM54.1125 44.003C54.0595 43.9979 54.004 43.9954 53.951 43.9904C53.898 43.9904 53.8425 43.9879 53.7895 43.9879C53.6608 43.9879 53.5346 43.9979 53.4109 44.0207C53.2872 44.0434 53.1762 44.0812 53.0803 44.1342C52.9844 44.1898 52.9061 44.263 52.8506 44.3563C52.7951 44.4497 52.7648 44.5658 52.7648 44.7071C52.7648 44.9242 52.8178 45.0933 52.9213 45.2144C53.0247 45.3331 53.1636 45.3936 53.3301 45.3936C53.5548 45.3936 53.7314 45.3381 53.8551 45.2296C53.9788 45.1211 54.0646 44.9999 54.1125 44.8687V44.003Z" fill="#E04E39"/>
<path d="M55.8287 41.7796H56.2452L56.336 42.2213H56.3688C56.5707 41.8629 56.8862 41.6812 57.3178 41.6812C57.7494 41.6812 58.0724 41.8427 58.287 42.1632C58.5015 42.4837 58.61 43.0087 58.61 43.7406C58.61 44.0839 58.5747 44.3918 58.504 44.6694C58.4333 44.9445 58.3324 45.1792 58.2011 45.3735C58.0699 45.5679 57.9109 45.7143 57.7241 45.8152C57.5374 45.9136 57.3279 45.9666 57.0982 45.9666C56.9392 45.9666 56.8156 45.9566 56.7222 45.9389C56.6288 45.9187 56.5278 45.8808 56.4193 45.8203V47.5037H55.8313V41.7821L55.8287 41.7796ZM56.4168 45.2196C56.4925 45.2852 56.5808 45.3357 56.6742 45.3761C56.7701 45.4139 56.8963 45.4341 57.0528 45.4341C57.3405 45.4341 57.5702 45.2877 57.7393 44.9924C57.9084 44.6972 57.9917 44.2782 57.9917 43.733C57.9917 43.5034 57.9765 43.2964 57.9462 43.1122C57.916 42.9279 57.868 42.7664 57.8024 42.6326C57.7368 42.4989 57.6535 42.3954 57.5525 42.3222C57.4516 42.249 57.3279 42.2112 57.179 42.2112C56.7828 42.2112 56.5253 42.4535 56.4117 42.938V45.2196H56.4168Z" fill="#E04E39"/>
<path d="M61.8052 45.6613C61.6689 45.7648 61.5124 45.8431 61.3383 45.891C61.1641 45.9415 60.9824 45.9642 60.7906 45.9642C60.5281 45.9642 60.3086 45.9137 60.1294 45.8128C59.9502 45.7118 59.8038 45.568 59.6927 45.3787C59.5817 45.1894 59.4984 44.9648 59.4479 44.6998C59.3949 44.4348 59.3697 44.142 59.3697 43.8215C59.3697 43.1249 59.4934 42.5923 59.7407 42.2264C59.988 41.8604 60.3439 41.6787 60.8083 41.6787C61.0203 41.6787 61.2045 41.6989 61.356 41.7368C61.5074 41.7746 61.6386 41.8251 61.7497 41.8831L61.5856 42.398C61.3661 42.2718 61.1313 42.2087 60.8739 42.2087C60.5786 42.2087 60.3565 42.3374 60.2076 42.5974C60.0587 42.8573 59.983 43.2637 59.983 43.8189C59.983 44.0436 59.9981 44.253 60.0335 44.4474C60.0663 44.6442 60.1193 44.8133 60.1975 44.9597C60.2732 45.1036 60.3717 45.2171 60.4903 45.303C60.6089 45.3862 60.7603 45.4291 60.9395 45.4291C61.0809 45.4291 61.2146 45.4039 61.3358 45.356C61.4594 45.308 61.5579 45.25 61.6336 45.1843L61.8052 45.6588V45.6613Z" fill="#E04E39"/>
<path d="M64.6673 42.3096H63.6628V45.8656H63.0747V42.3096H62.0677V41.7795H64.6673V42.3096Z" fill="#E04E39"/>
<path d="M65.3209 41.7871C65.4724 41.777 65.6389 41.7618 65.8207 41.7467C65.9999 41.729 66.2144 41.7214 66.4668 41.7214C66.9084 41.7214 67.2239 41.8047 67.4157 41.9713C67.6075 42.1379 67.7009 42.3903 67.7009 42.7259C67.7009 42.9177 67.6555 43.102 67.5646 43.2812C67.4738 43.4604 67.3224 43.5967 67.1103 43.69V43.7228C67.3728 43.7834 67.5571 43.8919 67.6656 44.0535C67.7741 44.215 67.8296 44.4346 67.8296 44.7122C67.8296 45.1362 67.7035 45.4441 67.4536 45.6359C67.2037 45.8277 66.8302 45.9236 66.333 45.9236C66.1462 45.9236 65.9696 45.9161 65.8005 45.9034C65.6314 45.8908 65.4699 45.8757 65.3184 45.858V41.7871H65.3209ZM66.5147 43.5209C66.5904 43.5209 66.6636 43.5033 66.7368 43.4679C66.8075 43.4326 66.8706 43.3847 66.9286 43.3241C66.9867 43.2635 67.0296 43.1954 67.0649 43.1146C67.0977 43.0364 67.1129 42.9531 67.1129 42.8647C67.1129 42.6527 67.0624 42.4963 66.9614 42.3978C66.8605 42.2994 66.6889 42.2514 66.4415 42.2514C66.3103 42.2514 66.2068 42.254 66.1311 42.259C66.0554 42.2641 65.9822 42.2691 65.909 42.2742V43.5184H66.5147V43.5209ZM65.909 45.3608C65.9898 45.3734 66.068 45.381 66.1412 45.3861C66.2144 45.3911 66.3052 45.3936 66.4138 45.3936C66.6914 45.3936 66.8958 45.3381 67.022 45.222C67.1507 45.1084 67.2138 44.9217 67.2138 44.6668C67.2138 44.4699 67.1583 44.3084 67.0498 44.1797C66.9413 44.0509 66.7419 43.9878 66.4516 43.9878H65.904V45.3608H65.909Z" fill="#E04E39"/>
<path d="M71.2242 45.5881C71.093 45.7068 70.9264 45.8002 70.7245 45.8658C70.5226 45.9314 70.3106 45.9642 70.086 45.9642C69.8311 45.9642 69.6064 45.9137 69.4197 45.8128C69.2304 45.7118 69.0764 45.568 68.9528 45.3787C68.8291 45.1894 68.7408 44.9648 68.6827 44.7048C68.6247 44.4423 68.5969 44.1496 68.5969 43.8215C68.5969 43.1249 68.7256 42.5923 68.9805 42.2264C69.2354 41.8604 69.5989 41.6787 70.0683 41.6787C70.2197 41.6787 70.3712 41.6989 70.5226 41.7368C70.6715 41.7746 70.8078 41.8529 70.9264 41.9664C71.0476 42.08 71.1435 42.2415 71.2166 42.4485C71.2898 42.6554 71.3277 42.9255 71.3277 43.2586C71.3277 43.352 71.3226 43.4505 71.3151 43.5565C71.3075 43.6625 71.2974 43.7735 71.2873 43.8871H69.2102C69.2102 44.1218 69.2279 44.3338 69.2682 44.5256C69.3061 44.7174 69.3667 44.8789 69.4474 45.0127C69.5282 45.1465 69.6342 45.25 69.7629 45.3231C69.8916 45.3963 70.0506 45.4342 70.2424 45.4342C70.3888 45.4342 70.5352 45.4064 70.6791 45.3534C70.8229 45.3004 70.934 45.2348 71.0097 45.1566L71.2217 45.5907L71.2242 45.5881ZM70.7674 43.3974C70.7775 42.9886 70.722 42.6882 70.5958 42.499C70.4696 42.3071 70.298 42.2138 70.0809 42.2138C69.8311 42.2138 69.6317 42.3071 69.4853 42.499C69.3389 42.6882 69.2506 42.9886 69.2228 43.3974H70.7674Z" fill="#E04E39"/>
<path d="M74.3235 44.0433H72.9101V45.8655H72.3221V41.7769H72.9101V43.5107H74.3235V41.7769H74.9115V45.8655H74.3235V44.0433Z" fill="#E04E39"/>
<path d="M78.0335 44.0433H76.6177V45.8655H76.0296V41.7769H76.6177V43.5107H78.0335V41.7769H78.6216V45.8655H78.0335V44.0433Z" fill="#E04E39"/>
<path d="M80.3303 43.3391C80.4388 43.3164 80.5423 43.3038 80.6407 43.2937C80.7391 43.2861 80.8325 43.2811 80.9183 43.2811C81.1404 43.2811 81.3297 43.3114 81.4811 43.3745C81.6351 43.4375 81.7562 43.5234 81.8446 43.6319C81.9354 43.7404 81.9985 43.8716 82.0364 44.0206C82.0742 44.1695 82.0919 44.331 82.0919 44.4976C82.0919 44.9948 81.9834 45.3531 81.7613 45.5778C81.5417 45.7999 81.1732 45.9134 80.6609 45.9134C80.3454 45.9134 80.0375 45.8983 79.7372 45.8655V41.7769H80.3252V43.3391H80.3303ZM80.3303 45.3355C80.4943 45.3683 80.6432 45.3834 80.7795 45.3834C81.042 45.3834 81.2237 45.3128 81.3272 45.174C81.4307 45.0351 81.4811 44.8358 81.4811 44.5733C81.4811 44.3285 81.4307 44.1341 81.3297 43.9978C81.2287 43.859 81.0496 43.7884 80.7946 43.7884C80.724 43.7884 80.6457 43.7934 80.565 43.801C80.4842 43.8086 80.4035 43.8237 80.3277 43.8464V45.3355H80.3303ZM82.5866 41.7794H83.1746V45.868H82.5866V41.7794Z" fill="#E04E39"/>
<path d="M86.7484 45.5881C86.6172 45.7068 86.4506 45.8002 86.2487 45.8658C86.0468 45.9314 85.8348 45.9642 85.6102 45.9642C85.3527 45.9642 85.1306 45.9137 84.9439 45.8128C84.7571 45.7118 84.6006 45.568 84.477 45.3787C84.3558 45.1894 84.265 44.9648 84.2069 44.7048C84.1489 44.4423 84.1211 44.1496 84.1211 43.8215C84.1211 43.1249 84.2498 42.5923 84.5047 42.2264C84.7621 41.8604 85.1231 41.6787 85.5925 41.6787C85.7465 41.6787 85.8954 41.6989 86.0468 41.7368C86.1982 41.7746 86.332 41.8529 86.4506 41.9664C86.5692 42.08 86.6677 42.2415 86.7408 42.4485C86.814 42.6554 86.8519 42.9255 86.8519 43.2586C86.8519 43.352 86.8468 43.4505 86.8393 43.5565C86.8317 43.6625 86.8216 43.7735 86.8115 43.8871H84.7344C84.7344 44.1218 84.7546 44.3338 84.7924 44.5256C84.8303 44.7174 84.8909 44.8789 84.9716 45.0127C85.0524 45.1465 85.1584 45.25 85.2871 45.3231C85.4158 45.3963 85.5748 45.4342 85.7641 45.4342C85.913 45.4342 86.0569 45.4064 86.2007 45.3534C86.3446 45.3004 86.4556 45.2348 86.5314 45.1566L86.7434 45.5907L86.7484 45.5881ZM86.2916 43.3974C86.3017 42.9886 86.2462 42.6882 86.12 42.499C85.9938 42.3071 85.8222 42.2138 85.6051 42.2138C85.3553 42.2138 85.1559 42.3071 85.0095 42.499C84.8631 42.6882 84.7748 42.9886 84.747 43.3974H86.2916Z" fill="#E04E39"/>
<path d="M81.0117 54.1871L81.1026 53.1069H81.0622L80.7366 54.1164L79.298 57.2157H79.0431L77.5338 54.1164L77.2184 53.1069H77.178L77.3218 54.1871V58.8789H76.5874V51.7415H77.2285L78.9522 55.2496L79.2072 56.085H79.2273L79.4722 55.2395L81.1051 51.7415H81.779V58.8789H81.0142V54.1871H81.0117Z" fill="#E04E39"/>
<path d="M82.8667 55.3076C82.8667 54.0987 83.0611 53.18 83.4472 52.5541C83.8359 51.9282 84.4265 51.6152 85.2215 51.6152C85.6505 51.6152 86.014 51.701 86.3118 51.8752C86.6121 52.0493 86.8544 52.2942 87.0412 52.6147C87.2279 52.9352 87.3667 53.3214 87.4551 53.7782C87.5434 54.235 87.5888 54.7448 87.5888 55.3076C87.5888 56.5191 87.3945 57.4352 87.0033 58.0611C86.6121 58.6871 86.019 59 85.224 59C84.8025 59 84.4416 58.9142 84.1438 58.7401C83.8435 58.5659 83.5986 58.3211 83.4094 58.0006C83.2201 57.6826 83.0813 57.2939 82.9954 56.8371C82.9096 56.3828 82.8693 55.873 82.8693 55.3076H82.8667ZM83.6718 55.3076C83.6718 55.7089 83.6996 56.09 83.7576 56.4509C83.8157 56.8118 83.9066 57.1273 84.0277 57.3999C84.1488 57.6725 84.3104 57.8895 84.5072 58.0536C84.7041 58.2176 84.9413 58.2984 85.2215 58.2984C85.7313 58.2984 86.12 58.0536 86.385 57.5639C86.65 57.0743 86.7837 56.3222 86.7837 55.3101C86.7837 54.9164 86.756 54.5378 86.6979 54.1795C86.6399 53.8186 86.549 53.5005 86.4279 53.2254C86.3067 52.9504 86.1452 52.7308 85.9483 52.5667C85.7515 52.4027 85.5092 52.3219 85.224 52.3219C84.7218 52.3219 84.3356 52.5667 84.0706 53.0564C83.8056 53.546 83.6718 54.2981 83.6718 55.3101V55.3076Z" fill="#E04E39"/>
<path d="M92.4119 58.6012C92.2428 58.745 92.0283 58.846 91.7683 58.9065C91.5109 58.9671 91.2383 58.9974 90.9531 58.9974C90.5922 58.9974 90.2591 58.9293 89.9537 58.793C89.6483 58.6567 89.3833 58.4422 89.1637 58.1443C88.9416 57.8491 88.77 57.4654 88.6488 56.996C88.5277 56.5266 88.4646 55.9637 88.4646 55.3025C88.4646 54.6412 88.5353 54.0481 88.6741 53.5787C88.8129 53.1093 88.9997 52.7282 89.2293 52.4379C89.4615 52.1452 89.7265 51.9357 90.0294 51.8044C90.3322 51.6757 90.6427 51.6101 90.9632 51.6101C91.2837 51.6101 91.5588 51.6328 91.7734 51.6808C91.9879 51.7287 92.1721 51.7868 92.3286 51.8549L92.1444 52.549C92.0081 52.4733 91.8491 52.4152 91.6648 52.3748C91.4806 52.3345 91.2711 52.3143 91.0339 52.3143C90.7966 52.3143 90.572 52.3673 90.36 52.4733C90.148 52.5793 89.9612 52.7484 89.7997 52.9831C89.6357 53.2178 89.5069 53.5257 89.411 53.9068C89.3151 54.2879 89.2672 54.7523 89.2672 55.305C89.2672 56.2969 89.4363 57.0439 89.777 57.5437C90.1177 58.0434 90.5695 58.2933 91.1323 58.2933C91.3645 58.2933 91.5715 58.2604 91.7532 58.1973C91.9374 58.1317 92.0939 58.056 92.2226 57.9677L92.4068 58.6012H92.4119Z" fill="#E04E39"/>
<path d="M94.4815 55.5726H94.1155V58.8763H93.3508V51.7389H94.1155V55.0628L94.4714 54.9189L96.3264 51.7363H97.2047L95.3396 54.8154L94.9837 55.141L95.4027 55.5499L97.4722 58.8738H96.5031L94.484 55.57L94.4815 55.5726Z" fill="#E04E39"/>
<path d="M101.917 53.3592C101.917 53.5359 101.897 53.7125 101.856 53.8892C101.816 54.0659 101.75 54.2324 101.662 54.3889C101.573 54.5454 101.462 54.6842 101.331 54.8079C101.197 54.929 101.036 55.0224 100.847 55.083V55.1234C101.011 55.1587 101.167 55.2142 101.316 55.2925C101.465 55.3707 101.599 55.4792 101.715 55.618C101.831 55.7568 101.922 55.9285 101.99 56.1279C102.058 56.3298 102.091 56.567 102.091 56.8471C102.091 57.2131 102.033 57.5311 101.917 57.8012C101.801 58.0687 101.644 58.2883 101.442 58.4599C101.24 58.629 101.011 58.7552 100.748 58.8385C100.486 58.9192 100.211 58.9596 99.9178 58.9596H99.5872C99.461 58.9596 99.3273 58.9546 99.1834 58.9445C99.0395 58.9344 98.8982 58.9217 98.7594 58.9041C98.6206 58.8864 98.4919 58.8612 98.3783 58.8284V51.802C98.5827 51.7616 98.8225 51.7263 99.0976 51.701C99.3727 51.6733 99.6705 51.6606 99.991 51.6606C100.223 51.6606 100.453 51.6834 100.685 51.7263C100.917 51.7717 101.124 51.8525 101.308 51.9761C101.493 52.0973 101.639 52.2714 101.753 52.491C101.864 52.7131 101.922 53.0033 101.922 53.3617L101.917 53.3592ZM99.562 54.9088C99.6579 54.9088 99.7664 54.9063 99.8876 54.8987C100.009 54.8912 100.112 54.8811 100.193 54.8685C100.445 54.7675 100.66 54.6009 100.842 54.3738C101.021 54.1466 101.112 53.8665 101.112 53.5333C101.112 53.3087 101.081 53.1194 101.021 52.968C100.96 52.814 100.877 52.6954 100.771 52.6071C100.665 52.5188 100.541 52.4557 100.4 52.4178C100.256 52.3799 100.107 52.3623 99.9507 52.3623C99.774 52.3623 99.615 52.3673 99.4711 52.3774C99.3273 52.3875 99.2187 52.4001 99.1455 52.4127V54.9114H99.5645L99.562 54.9088ZM99.9809 58.2529C100.165 58.2529 100.334 58.2252 100.491 58.1671C100.647 58.1091 100.784 58.0233 100.905 57.9072C101.023 57.7911 101.117 57.6497 101.185 57.4832C101.253 57.3166 101.286 57.1222 101.286 56.8976C101.286 56.62 101.243 56.3929 101.16 56.2187C101.074 56.0446 100.963 55.9108 100.829 55.8149C100.693 55.719 100.539 55.6559 100.365 55.6206C100.19 55.5877 100.014 55.5701 99.8295 55.5701H99.1455V58.1797C99.1859 58.1924 99.2389 58.2025 99.3046 58.21C99.3676 58.2176 99.4408 58.2226 99.5191 58.2302C99.5973 58.2378 99.6781 58.2428 99.7588 58.2454C99.8396 58.2479 99.9153 58.2504 99.9835 58.2504L99.9809 58.2529Z" fill="#E04E39"/>
<path d="M105.917 56.8774H103.903L103.335 58.8763H102.581L104.733 51.6252H105.152L107.305 58.8763H106.5L105.922 56.8774H105.917ZM104.107 56.2136H105.735L105.114 53.9977L104.928 52.92H104.907L104.711 54.0178L104.11 56.2136H104.107Z" fill="#E04E39"/>
<path d="M98.5549 20.4406V11.9226H101.414C101.414 11.9226 101.414 15.5973 101.414 15.8876C101.414 16.1778 101.354 16.5084 101.354 16.5084H101.478L104.589 11.9226H107.323V20.4406H104.463V16.4378C104.463 16.1526 104.526 15.88 104.526 15.88H104.403L101.291 20.4406H98.5549Z" fill="#623B2A"/>
<path d="M92.629 11.698C95.3471 11.698 97.3738 13.6186 97.3738 16.1955C97.3738 18.7723 95.3471 20.6703 92.629 20.6703C89.9108 20.6703 87.9094 18.7471 87.9094 16.1955C87.9094 13.6439 89.936 11.698 92.629 11.698ZM92.629 18.0177C93.6688 18.0177 94.3603 17.2101 94.3603 16.198C94.3603 15.186 93.6688 14.3531 92.629 14.3531C91.5891 14.3531 90.9001 15.1607 90.9001 16.198C90.9001 17.2353 91.6169 18.0177 92.629 18.0177Z" fill="#623B2A"/>
<path d="M35.9888 21.9143C38.659 21.9143 40.5469 23.835 40.5469 26.4269C40.5469 29.0189 38.659 30.8891 35.9888 30.8891C33.3186 30.8891 31.4434 28.9836 31.4434 26.4269C31.4434 23.8703 33.3489 21.9143 35.9888 21.9143ZM35.9888 29.3243C37.7075 29.3243 38.8786 28.07 38.8786 26.4269C38.8786 24.7839 37.7075 23.4791 35.9888 23.4791C34.2701 23.4791 33.1268 24.7511 33.1268 26.4269C33.1268 28.1028 34.3004 29.3243 35.9888 29.3243Z" fill="#623B2A"/>
<path d="M78.4399 26.9569C78.4575 26.7828 78.4676 26.6061 78.4676 26.4269C78.4676 23.8375 77.1275 21.9143 74.3235 21.9143C71.9258 21.9143 70.192 23.835 70.192 26.4269C70.192 26.6087 70.2021 26.7853 70.2197 26.9569C70.4141 29.1805 71.835 30.8916 74.8131 30.8916C76.2492 30.8916 77.4733 30.45 78.3541 29.7332L77.6853 28.5091C77.0316 28.9987 76.0372 29.4556 74.8636 29.4556C73.0035 29.4556 72.105 28.4435 71.941 26.9595H78.4424L78.4399 26.9569ZM74.4068 23.3302C75.9388 23.3302 76.7413 24.3271 76.8751 25.6345H71.9637C72.2085 24.2842 73.1423 23.3302 74.4068 23.3302Z" fill="#623B2A"/>
<path d="M85.8928 22.1443V25.6348H81.3347V22.1443H79.6387V30.6623H81.3347V26.9547H85.8928V30.6623H87.5888V22.1443H85.8928Z" fill="#623B2A"/>
<path d="M96.5232 22.1443H88.7624V23.6561H91.7935V30.6623H93.4896V23.6561H96.5232V22.1443Z" fill="#623B2A"/>
<path d="M107.323 22.1443H105.627V30.6623H107.323V22.1443Z" fill="#623B2A"/>
<path d="M45.4381 26.1824V26.1067C45.4381 26.1067 45.5946 26.0537 45.7359 25.8947C45.8772 25.7332 48.9841 22.1443 48.9841 22.1443H47.0811L44.0903 25.6348H43.4139V22.1443H41.7179V30.6623H43.4139V26.9547H44.1837L47.4117 30.6623H49.5242C49.5242 30.6623 45.905 26.5787 45.7485 26.402C45.5996 26.2329 45.4381 26.1799 45.4381 26.1799V26.1824Z" fill="#623B2A"/>
<path d="M100.7 24.7491C99.9077 24.7491 99.3904 24.85 99.3904 24.85V22.147H97.6943V30.6675C97.6943 30.6675 99.0875 30.8038 100.531 30.8038C103.194 30.8038 104.07 29.1784 104.07 27.6843C104.07 26.1902 103.287 24.7491 100.7 24.7491ZM100.397 29.3803C99.8699 29.3803 99.3904 29.3399 99.3904 29.3399V26.2684C99.3904 26.2684 99.7614 26.1675 100.415 26.1675C101.836 26.1675 102.459 26.7177 102.459 27.7398C102.459 28.762 101.897 29.3803 100.395 29.3803H100.397Z" fill="#623B2A"/>
<path d="M28.6469 22.1441L28.6015 23.2193H28.493C27.9529 22.4167 26.8727 21.917 26.0246 21.917C23.5412 21.9145 22.0622 23.8376 22.0016 26.4271C21.9436 28.9838 23.4377 30.8893 25.9237 30.8893C27.0619 30.8893 27.7737 30.5662 28.4677 29.7434H28.5763V30.5056C28.5763 32.1537 27.4329 32.8074 26.1433 32.8074C24.9571 32.8074 24.0333 32.3607 23.468 32.02L22.9127 33.4283C23.4503 33.7059 24.4624 34.3091 26.1433 34.3091C28.5258 34.3091 30.2698 32.8882 30.2698 30.1624V22.1467H28.6444L28.6469 22.1441ZM26.2266 29.3245C24.5154 29.3245 23.6093 28.0701 23.6472 26.4271C23.685 24.7513 24.6491 23.4793 26.3603 23.4793C27.3017 23.4793 28.5763 24.3424 28.5763 25.9047V28.2544C28.0462 28.9131 27.2235 29.3245 26.2266 29.3245Z" fill="#623B2A"/>
<path d="M56.2452 22.1444V28.3177C55.748 28.9386 54.9858 29.3247 54.0217 29.3247C52.4644 29.3247 51.7527 28.0704 51.7881 26.4273V22.1418H50.145V26.4273C50.087 28.984 51.1091 30.8895 53.5926 30.8895C54.7283 30.8895 55.5006 30.5538 56.1366 29.7437H56.2452V30.5059C56.2452 32.1539 55.1019 32.8076 53.8122 32.8076C52.626 32.8076 51.7022 32.3609 51.1369 32.0202L50.5817 33.4285C51.1192 33.7061 52.1313 34.3093 53.8122 34.3093C56.1947 34.3093 57.9412 32.8884 57.9412 30.1626V22.1469H56.2452V22.1444Z" fill="#623B2A"/>
<path d="M67.4132 22.1443C67.4132 22.1443 64.6092 26.0891 64.5284 26.2052C64.4477 26.3213 64.4199 26.4348 64.4199 26.4348H64.3593C64.3593 26.4348 64.324 26.3238 64.2357 26.2052C64.1448 26.0865 61.1339 22.1443 61.1339 22.1443H59.5338V30.6623H61.2298V25.231C61.2298 24.8524 61.149 24.6378 61.149 24.6378H61.2298L64.3492 28.83H64.4224L67.3173 24.6378H67.3955C67.3955 24.6378 67.3173 24.8625 67.3173 25.2259V30.6623H69.0133V22.1443H67.4157H67.4132Z" fill="#623B2A"/>
<path d="M84.482 11.9226C84.482 11.9226 82.0944 15.0244 81.9985 15.143C81.8799 15.2894 81.8698 15.3677 81.8698 15.3677H81.7461C81.7461 15.3677 81.7234 15.2844 81.6099 15.143C81.4408 14.9336 78.9674 11.9226 78.9674 11.9226H76.7136V20.4406H79.4671V16.8643C79.4671 16.4781 79.404 16.2434 79.404 16.2434H79.5277L81.7436 18.7875H81.8622L83.9141 16.2434H84.0378C84.0378 16.2434 83.9772 16.4756 83.9772 16.8643V20.4406H86.7333V11.9226H84.4769H84.482Z" fill="#623B2A"/>
<path d="M120.949 20.5668V11.9226H114.135V20.5617C114.135 23.6055 115.757 26.4171 118.392 27.9389L126.057 32.3632V24.4989L121.8 22.0407C121.272 21.7353 120.947 21.1725 120.947 20.5643L120.949 20.5668Z" fill="#C39367"/>
<path d="M126.06 28.9586L133.725 24.5343C136.36 23.0124 137.985 20.2009 137.985 17.1571V0H126.06V6.81438H131.171V17.1596C131.171 17.7679 130.845 18.3307 130.318 18.6361L126.06 21.0943V28.9586Z" fill="#E04E39"/>
<path d="M126.06 0L114.135 11.9226H126.06V0Z" fill="#623B2A"/>
</g>
<defs>
<clipPath id="clip0_317_186989">
<rect width="160" height="59" fill="white"/>
</clipPath>
</defs>
</svg>
