<svg width="160" height="60" viewBox="0 0 160 60" fill="none" xmlns="http://www.w3.org/2000/svg">
<g clip-path="url(#clip0_178_24777)">
<path d="M5.13208 36.102V1.12964H15.8876V12.9746H26.5868V1.12964H37.3424V36.102H26.5868V22.3156H15.8876V36.102H5.13208Z" fill="#1D1D1B"/>
<path d="M49.8717 51.4639C50.1814 51.492 50.4911 51.5201 50.7445 51.5201C51.195 51.5201 51.927 51.3795 51.927 50.451C51.927 49.7476 51.561 49.4663 50.6882 49.4663C50.4911 49.4663 50.3222 49.4663 50.0969 49.4663H49.8717V51.4639ZM47.0842 57.3723V47.1029C47.0842 46.9622 47.1969 46.8497 47.3376 46.8497C47.6755 46.8497 48.2386 46.8497 48.6328 46.8497C49.3085 46.8497 50.0124 46.8497 50.4629 46.8497C54.4329 46.8497 54.8834 49.41 54.8834 50.5073C54.8834 52.3361 53.5038 54.193 50.829 54.193C50.6319 54.193 50.2377 54.193 49.8717 54.193V57.4286C49.8717 57.5693 49.759 57.6818 49.6183 57.6818H47.3658C47.225 57.6818 47.1124 57.5693 47.1124 57.4286" fill="#1D1D1B"/>
<path d="M64.3722 52.8425L63.3304 49.9164L62.2886 52.8425H64.4003H64.3722ZM66.0334 57.4849L65.3013 55.4872H61.3032L60.5711 57.4849C60.5711 57.4849 60.4304 57.6537 60.3177 57.6537H58.0653C57.8682 57.6537 57.7555 57.4567 57.8119 57.2879L62.0915 47.0185C62.0915 47.0185 62.2323 46.8497 62.345 46.8497H64.4003C64.4003 46.8497 64.5974 46.9059 64.6537 47.0185L68.9334 57.2879C69.0179 57.4567 68.8771 57.6537 68.68 57.6537H66.2868C66.2868 57.6537 66.0615 57.5693 66.0334 57.4849Z" fill="#1D1D1B"/>
<path d="M79.5198 55.009V49.4945H77.8023L77.6616 51.07C77.5208 52.5894 77.0703 54.2493 76.7043 55.0371H79.5198V55.009ZM81.0684 59.173V57.6537H75.0431V59.173C75.0431 59.3137 74.9304 59.4263 74.7897 59.4263H72.678C72.5372 59.4263 72.4246 59.3137 72.4246 59.173V55.2904C72.4246 55.1497 72.5372 55.0371 72.678 55.0371H73.6353C74.0576 54.39 74.9023 52.2799 75.0431 49.1568L75.1275 47.1311C75.1275 46.9904 75.2401 46.8779 75.3809 46.8779H82.0539C82.1946 46.8779 82.3073 46.9904 82.3073 47.1311V55.0371H83.4617C83.6024 55.0371 83.7151 55.1497 83.7151 55.2904V59.173C83.7151 59.3137 83.6024 59.4263 83.4617 59.4263H81.35C81.2092 59.4263 81.0966 59.3137 81.0966 59.173" fill="#1D1D1B"/>
<path d="M94.5832 57.3723V51.6046L90.3598 57.513C90.3598 57.513 90.219 57.6255 90.1346 57.6255H88.1355C87.9947 57.6255 87.8821 57.513 87.8821 57.3723V47.1029C87.8821 46.9622 87.9947 46.8497 88.1355 46.8497H90.388C90.5287 46.8497 90.6414 46.9622 90.6414 47.1029V52.8706L94.8647 46.9622C94.8647 46.9622 95.0055 46.8497 95.09 46.8497H97.089C97.2298 46.8497 97.3424 46.9622 97.3424 47.1029V57.3723C97.3424 57.513 97.2298 57.6255 97.089 57.6255H94.8366C94.6958 57.6255 94.5832 57.513 94.5832 57.3723Z" fill="#1D1D1B"/>
<path d="M106.606 49.2975C104.973 49.2975 103.818 50.5073 103.818 52.2517C103.818 53.9961 105.057 55.2059 106.606 55.2059C108.661 55.2059 109.393 53.6866 109.393 52.2517C109.393 50.5355 108.211 49.2975 106.606 49.2975ZM106.606 57.8225C103.227 57.8225 100.89 55.5154 100.89 52.2517C100.89 48.988 103.312 46.6809 106.606 46.6809C109.9 46.6809 112.321 48.9599 112.321 52.2517C112.321 55.5436 109.9 57.8225 106.606 57.8225Z" fill="#1D1D1B"/>
<path d="M64.7947 5.772C61.2471 2.22694 56.7985 0.42627 51.3925 0.42627C45.9866 0.42627 41.4817 2.22694 37.934 5.772C37.7088 5.99708 37.5399 6.22216 37.3428 6.41911V30.8125C37.5399 31.0376 37.737 31.2627 37.934 31.4596C41.4817 35.0047 45.9866 36.8054 51.3925 36.8054C56.7985 36.8054 61.2471 35.061 64.7947 31.5159C68.3424 27.9708 70.088 23.6661 70.088 18.6299C70.088 13.5936 68.3424 9.34519 64.7947 5.80013V5.772ZM59.7267 30.1091L51.3644 24.0037L43.0021 30.1091L46.2119 20.2899L37.8214 14.2408H48.1546L51.3362 4.4215L54.5178 14.2689H64.851L56.4606 20.2899L59.6704 30.1091H59.7267Z" fill="#D51221"/>
<path d="M94.6114 19.7271C93.1473 18.039 91.655 17.0261 90.1627 16.7167C91.12 16.2665 92.021 15.4787 92.9502 14.3251C93.9075 13.1716 94.358 11.7367 94.358 10.0767C94.358 7.12248 93.3162 4.92792 91.2045 3.43674C89.0928 1.88929 86.4462 1.12964 83.2082 1.12964H65.4419V6.47537C68.539 9.87975 70.0876 13.875 70.0876 18.6017C70.0876 23.3285 68.539 27.38 65.4419 30.7844V36.102H83.9403C87.7976 36.102 90.8948 35.1453 93.2317 33.3165C95.5687 31.4596 96.7794 29.0118 96.7794 25.9732C96.7794 23.4692 96.0191 21.3871 94.5832 19.7271H94.6114ZM76.1974 9.48585H81.6597C83.0956 9.48585 84.2218 10.4987 84.2218 11.9336C84.2218 13.1716 83.1238 14.1845 81.6597 14.1845H76.1974V9.48585ZM81.8568 27.4644H76.1974V21.6685H81.8568C83.715 21.6685 85.0665 22.8783 85.0665 24.6227C85.0665 26.3671 83.8277 27.4644 81.8568 27.4644Z" fill="#1D1D1B"/>
<path d="M122.711 5.772C119.163 2.22694 114.715 0.42627 109.309 0.42627C103.903 0.42627 99.3978 2.22694 95.8502 5.772C95.2026 6.41911 94.6113 7.1225 94.1045 7.82588C94.2735 8.52927 94.3579 9.26079 94.3579 10.0767C94.3579 11.7367 93.9074 13.1716 92.9501 14.3252C92.1899 15.2536 91.4579 15.9007 90.6977 16.3509C90.6977 16.5197 90.6414 16.6885 90.6414 16.8574C91.9928 17.2512 93.3162 18.1797 94.6113 19.699C96.0473 21.359 96.8075 23.441 96.8075 25.9451C96.8075 27.8302 96.3007 29.4902 95.3715 30.8969C95.5405 31.0657 95.6813 31.2627 95.8502 31.4315C99.3978 34.9766 103.903 36.7772 109.309 36.7772C114.715 36.7772 119.163 35.0328 122.711 31.4878C126.259 27.9427 128.004 23.638 128.004 18.6017C128.004 13.5655 126.259 9.31706 122.711 5.772Z" fill="#D51221"/>
<path d="M154.301 5.57505C150.782 2.17067 146.39 0.42627 141.096 0.42627C135.803 0.42627 131.186 2.22694 127.638 5.772C126.681 6.7286 125.864 7.74148 125.16 8.81062C127.047 11.6804 127.976 14.9441 127.976 18.6017C127.976 22.2593 127.047 25.5512 125.16 28.421C125.864 29.4901 126.681 30.503 127.61 31.4315C131.157 34.9766 135.662 36.7772 141.068 36.7772C146.474 36.7772 150.698 35.1172 154.217 31.741L141.153 18.6862L154.273 5.57505H154.301ZM138.844 11.793C137.352 11.793 136.141 10.5832 136.141 9.09198C136.141 7.6008 137.352 6.39098 138.844 6.39098C140.336 6.39098 141.547 7.6008 141.547 9.09198C141.547 10.5832 140.336 11.793 138.844 11.793Z" fill="#1D1D1B"/>
</g>
<defs>
<clipPath id="clip0_178_24777">
<rect width="160" height="59" fill="white" transform="translate(0 0.178223)"/>
</clipPath>
</defs>
</svg>
