<svg width="160" height="59" viewBox="0 0 160 59" fill="none" xmlns="http://www.w3.org/2000/svg">
<path d="M144.618 25.6204C145.814 24.6257 147.323 24.0819 148.876 24.0868C150.831 24.0868 152.291 25.0079 152.742 26.321L155.907 24.7531C155.064 22.4748 152.752 21 149.675 21C147.23 21 144.961 21.8084 142.903 23.44C140.85 25.0765 139.527 27.0756 138.949 29.4078C138.371 31.7351 138.69 33.7391 139.959 35.3511C141.228 36.9631 143.138 37.7715 145.676 37.7715C147.979 37.796 150.223 37.0415 152.041 35.6304C153.869 34.2487 155.162 32.2741 155.691 30.0448L156 28.8002H147.749L147.048 31.6126H152.031C150.968 33.5235 148.984 34.6749 146.47 34.6749C144.78 34.6749 143.511 34.1899 142.751 33.2001C141.987 32.2104 141.786 30.9414 142.163 29.4225C142.521 27.9134 143.388 26.5709 144.618 25.6253V25.6204Z" fill="black"/>
<path d="M128.302 27.5901L132.898 37.4482H135.363L139.385 21.3284H136.142L133.687 31.162L129.091 21.3284H126.622L122.599 37.4531H125.843L128.302 27.595V27.5901Z" fill="black"/>
<path d="M39.4814 24.6306C38.9228 22.3474 37.1639 21.0098 34.5083 21.0098V21C33.0286 21.0049 31.5832 21.4704 30.373 22.3229C29.1431 23.1264 28.271 24.371 27.928 25.8017C27.5605 27.2765 27.8055 28.4083 28.6532 29.1187C29.5008 29.8292 30.3142 30.177 31.6861 30.618C32.9355 30.9855 33.7635 31.3334 34.1996 31.6567C34.6356 31.9507 34.7826 32.3868 34.6356 32.9698C34.3809 33.9596 33.3813 34.6749 31.5734 34.6749C29.7654 34.6749 28.6189 33.8469 28.4033 32.2104L25.2332 33.8028C25.537 36.2673 27.4381 37.7862 30.7061 37.7862C32.3475 37.8205 33.9595 37.3648 35.3363 36.4731C36.6151 35.6647 37.5313 34.3956 37.889 32.9258C38.1046 32.1761 38.0899 31.3824 37.8449 30.6425C37.6783 30.0889 37.0708 29.5156 36.6494 29.2167C36.3701 29.0109 36.0614 28.8492 35.7381 28.7317C35.4294 28.5798 35.106 28.4475 34.7777 28.3397L33.739 27.9722C32.6121 27.6047 31.8722 27.2569 31.4999 26.958C31.3333 26.8012 31.2157 26.6052 31.1569 26.3847C31.0981 26.1642 31.1079 25.9339 31.1765 25.7184C31.4117 24.7727 32.4014 24.1064 33.739 24.1064C35.1697 24.1064 36.0516 24.7972 36.3652 26.1789L39.4765 24.6355L39.4814 24.6306Z" fill="black"/>
<path d="M22.4845 26.9923L19.8779 37.453H23.097L27.1196 21.3283H23.7878L17.1831 28.9521L15.3849 24.6208L15.3702 24.611C14.3952 22.4993 12.3814 21 10.0492 21C7.71695 21 6.40384 21.4361 5.12504 22.3131C3.89522 23.1166 3.02308 24.3661 2.68501 25.7919C2.31754 27.2667 2.56252 28.3985 3.41016 29.1089C4.2578 29.8243 5.07114 30.1672 6.44794 30.6082C7.69735 30.9757 8.51559 31.3481 8.96146 31.6469C9.41223 31.9458 9.55432 32.3819 9.41223 32.96C9.15745 33.9498 8.15792 34.6651 6.34995 34.6651C4.54198 34.6651 3.39546 33.8371 3.17987 32.2006L0 33.7881C0.303778 36.2526 2.20484 37.7715 5.47291 37.7715C7.11429 37.8058 8.72628 37.3501 10.1031 36.4584C11.3819 35.6549 12.2932 34.3858 12.6558 32.9209C12.8714 32.1712 12.8567 31.3775 12.6117 30.6376C12.4451 30.084 11.8376 29.5107 11.4162 29.2118C11.1369 29.006 10.8282 28.8443 10.5049 28.7268C10.1962 28.5749 9.8728 28.4426 9.54452 28.3348L8.5058 27.9673C7.37888 27.5998 6.63903 27.252 6.26665 26.9531C6.10007 26.7963 5.98247 26.6003 5.92368 26.3798C5.86488 26.1593 5.87468 25.929 5.94328 25.7135C6.17846 24.7678 7.53076 24.0329 9.42203 24.0329C10.8576 24.0329 12.2834 25.6792 12.5872 27.0609L12.6313 27.0413L15.6005 34.4838H15.9876L22.4845 26.9972V26.9923Z" fill="black"/>
<path d="M52.4557 21.3284H40.3487L39.5892 24.3662H44.0087L40.7456 37.4482H43.9891L47.2523 24.3662H51.7061L52.4557 21.3284Z" fill="black"/>
<path d="M76.5571 24.3662L77.3116 21.3284H67.2428L63.2153 37.4531H73.3919L74.1514 34.4153H67.2183L68.1248 30.7994H74.3571L75.1068 27.8057H68.8744L69.7319 24.3711H76.562L76.5571 24.3662Z" fill="black"/>
<path d="M89.8596 21.3284H77.7525L76.998 24.3662H81.4175L78.1543 37.4482H81.3979L84.661 24.3662H89.105L89.8645 21.3284H89.8596Z" fill="black"/>
<path d="M97.8852 21C95.4256 21 93.0395 21.8525 91.1433 23.4204C89.1982 24.905 87.8214 27.0119 87.2334 29.3882C86.6356 31.7596 86.9443 33.744 88.1643 35.356C89.3843 36.968 91.2266 37.7764 93.696 37.7764C96.7044 37.7764 99.7275 36.3016 101.722 33.9743L99.3159 32.3819C98.7231 33.0972 97.9832 33.6705 97.1454 34.0625C96.3076 34.4593 95.3913 34.6602 94.4653 34.6602C92.8778 34.6602 91.6774 34.1752 90.962 33.1854C90.2467 32.1957 90.0654 30.9169 90.4525 29.3833C90.8101 27.8791 91.6578 26.5317 92.8582 25.5567C94.0586 24.5816 95.5628 24.0623 97.1062 24.0819C98.9877 24.0819 100.35 24.9344 100.81 26.3847L104.005 24.7972C103.182 22.4748 100.869 21 97.8852 21Z" fill="black"/>
<path d="M107.797 27.7273L109.394 21.3235H106.151L102.128 37.4482H105.372L107.038 30.77H113.148L111.482 37.4482H114.701L118.723 21.3284H115.504L113.907 27.7322H107.797V27.7273Z" fill="black"/>
<path d="M120.277 37.4482L124.294 21.3284H121.051L117.028 37.4531H120.272L120.277 37.4482Z" fill="black"/>
<path fill-rule="evenodd" clip-rule="evenodd" d="M60.1236 21.3284C61.6572 21.3284 62.8136 21.8575 63.6122 22.8914C64.4108 23.9252 64.6362 25.1942 64.2687 26.669C63.769 28.6729 62.0394 30.5152 59.9228 31.3678L62.0492 37.4482H58.546L56.6253 31.8479H54.1608L52.7644 37.4482H49.5257L53.5434 21.3284H60.1236ZM61.0252 26.6592C60.6969 27.9723 59.4181 29.0649 58.1932 29.0649H54.8516L56.0422 24.2878H59.3789C60.6038 24.2878 61.3437 25.3461 61.0203 26.6592H61.0252Z" fill="black"/>
</svg>
