<svg width="160" height="59" viewBox="0 0 160 59" fill="none" xmlns="http://www.w3.org/2000/svg">
<path d="M49.2248 27.21H35.3883V20.0599H30.9816V38.8726H35.3883V31.3491H49.2248V38.8726H53.639V20.0599H49.2248V27.21Z" fill="#FFB928"/>
<path d="M20.9806 33.0003L16.4522 26.4927H12.8523L8.33147 33.0003L4.64789 20.0599H0.0889893L5.49267 38.8726H9.32848L14.656 31.1997L19.9835 38.8726H23.8118L29.223 20.0599H24.6566L20.9806 33.0003Z" fill="#FFB928"/>
<path d="M155.594 20.0599V27.21H141.758V20.0599H137.35V38.8726H141.758V31.3491H155.594V38.8726H160V20.0599H155.594Z" fill="#FFB928"/>
<path d="M102.271 20.0599H89.8961C86.2504 20.0599 84.3402 21.7111 84.3402 25.1031V33.8295C84.3402 37.214 86.2504 38.8726 89.8961 38.8726H102.271C105.917 38.8726 107.835 37.214 107.835 33.8295V25.1031C107.835 21.7111 105.917 20.0599 102.271 20.0599ZM103.42 34.7336H88.7773V24.199H103.451L103.42 34.7336Z" fill="#FFB928"/>
<path d="M128.529 27.2472H115.591V24.027H133.339V20H116.359C112.752 20 111.184 21.3523 111.184 24.6621V26.5822C111.184 29.9667 112.706 31.2891 116.359 31.2891H129.298V34.8231H111.549V38.8501H128.529C132.174 38.8501 133.704 37.5351 133.704 34.1431V31.9018C133.704 28.5173 132.182 27.2397 128.529 27.2397" fill="#FFB928"/>
<path d="M75.3282 20.0599H62.9456C59.3076 20.0599 57.3896 21.7111 57.3896 25.1031V33.8295C57.3896 37.214 59.3076 38.8726 62.9456 38.8726H75.3282C78.9662 38.8726 80.8841 37.214 80.8841 33.8295V25.1031C80.8841 21.7111 78.9662 20.0599 75.3282 20.0599ZM76.4775 34.7336H61.7963V24.199H76.4775V34.7336Z" fill="#FFB928"/>
</svg>
