<svg width="160" height="59" viewBox="0 0 160 59" fill="none" xmlns="http://www.w3.org/2000/svg">
<path d="M37.4663 25.9403L38.6701 28.2005C38.7192 28.2925 38.7762 28.3502 38.8426 28.3758C38.9082 28.4006 39.0021 28.3999 39.1233 28.3714L39.1991 28.5138L37.9484 29.1959L37.8726 29.0535C37.9621 28.9666 38.0148 28.8885 38.0307 28.8184C38.0465 28.749 38.0299 28.6679 37.9809 28.5766L35.2478 23.4434C35.2002 23.3543 35.1439 23.2974 35.0775 23.2725C35.0111 23.247 34.918 23.2484 34.7968 23.2762L34.721 23.1345L37.8719 21.4161C38.3136 21.1751 38.6701 21.0115 38.9414 20.9246C39.2121 20.8377 39.4776 20.8041 39.7367 20.8231C40.0052 20.837 40.2578 20.9195 40.4959 21.0678C40.7622 21.2357 40.9766 21.4709 41.1368 21.7725C41.3576 22.1866 41.4204 22.6109 41.3273 23.0439C41.2552 23.377 41.0949 23.6698 40.846 23.9218C40.5977 24.1744 40.1979 24.4498 39.648 24.7499L37.467 25.9388L37.4663 25.9403ZM37.1589 25.3626L39.4055 24.1379C39.7389 23.9561 39.9799 23.8078 40.1286 23.6924C40.2758 23.5771 40.3949 23.4463 40.4822 23.2988C40.6865 22.9585 40.6771 22.5795 40.4548 22.1618C40.2311 21.7411 39.9222 21.5242 39.5296 21.5089C39.3593 21.5023 39.1875 21.5301 39.0122 21.5907C38.8375 21.6513 38.5813 21.774 38.245 21.9573L35.9984 23.1827L37.1596 25.3626H37.1589Z" fill="#1D1D1B"/>
<path d="M46.2399 21.5221L47.1384 23.9123L51.2153 22.3429C51.3459 22.2925 51.4303 22.237 51.4693 22.1757C51.5083 22.1136 51.5191 22.0179 51.5018 21.8872L51.6512 21.8295L52.1087 23.0462L51.9593 23.1039C51.8835 22.9965 51.8099 22.9322 51.7414 22.9125C51.6714 22.8928 51.571 22.9074 51.4411 22.9578L46.3388 24.9223L46.2825 24.7711C46.3915 24.693 46.4557 24.6199 46.4745 24.5513C46.4933 24.4827 46.4781 24.3826 46.4283 24.2504L44.4264 18.9281C44.3773 18.7959 44.3217 18.7112 44.2611 18.6725C44.2005 18.6345 44.1052 18.6228 43.976 18.6374L43.919 18.4862L48.965 16.5429C49.0957 16.4925 49.1794 16.4378 49.2169 16.3764C49.2544 16.3158 49.2667 16.2194 49.2515 16.0865L49.4009 16.0288L49.8585 17.2455L49.7091 17.3032C49.6369 17.1958 49.5655 17.1315 49.4962 17.1104C49.4262 17.0899 49.3259 17.1053 49.1953 17.1549L45.1791 18.7017L46.009 20.9079L48.641 19.895C48.7716 19.8446 48.8568 19.7883 48.895 19.727C48.934 19.6649 48.9448 19.5685 48.9282 19.4385L49.0776 19.3816L49.5352 20.5975L49.3858 20.6545C49.3129 20.5464 49.2414 20.4821 49.1714 20.4617C49.1022 20.442 49.0026 20.4573 48.8712 20.507L46.2392 21.5206L46.2399 21.5221Z" fill="#1D1D1B"/>
<path d="M55.4948 18.4374L56.1176 20.8597C56.1522 20.9934 56.1977 21.0825 56.254 21.1278C56.3103 21.1738 56.4034 21.1964 56.5347 21.1971L56.5751 21.3534L55.1996 21.7156L55.1592 21.5594C55.2732 21.4944 55.3439 21.4286 55.3713 21.3622C55.3995 21.2957 55.3952 21.1942 55.3605 21.0576L53.941 15.5469C53.9063 15.4096 53.8601 15.319 53.8038 15.2723C53.7476 15.227 53.6537 15.2051 53.5245 15.208L53.4841 15.0517L57.0969 14.0987C57.5927 13.968 57.9911 13.892 58.2927 13.8694C58.5944 13.8475 58.8686 13.8745 59.1155 13.9526C59.3695 14.0322 59.5947 14.1732 59.7909 14.3748C60.0147 14.6048 60.1706 14.8889 60.2579 15.2285C60.3885 15.736 60.3286 16.1946 60.0789 16.6036C59.8285 17.0126 59.4186 17.3164 58.8477 17.515L61.199 19.7059C61.3404 19.8417 61.5064 19.8848 61.6955 19.8351L61.7359 19.9914L60.2124 20.3938L60.172 20.2368C60.3236 20.1696 60.3899 20.1032 60.3734 20.0382C60.3654 20.0053 60.2817 19.9147 60.1229 19.7658L58.0127 17.7728L55.4948 18.4366V18.4374ZM55.3309 17.8027L57.9983 17.0995C58.362 17.0038 58.6319 16.9162 58.8087 16.8358C58.9855 16.7562 59.1349 16.6576 59.2555 16.5386C59.5362 16.256 59.6177 15.885 59.4994 15.4264C59.381 14.9641 59.1256 14.6807 58.7337 14.5756C58.5612 14.5303 58.3786 14.5179 58.1859 14.5376C57.994 14.5573 57.7031 14.6179 57.3141 14.7209L54.7139 15.4067L55.3309 17.8035V17.8027Z" fill="#1D1D1B"/>
<path d="M65.0038 13.0535L65.3538 15.3773L68.2708 14.9275C68.4094 14.9063 68.5039 14.869 68.5545 14.8172C68.6057 14.7653 68.636 14.6741 68.6468 14.5426L68.8042 14.5185L68.9976 15.8053L68.8395 15.8294C68.7912 15.7081 68.7349 15.6293 68.6707 15.5949C68.6072 15.5606 68.5061 15.5541 68.3676 15.5752L65.4505 16.0251L65.8417 18.6235C65.8626 18.7629 65.8979 18.8579 65.9477 18.9083C65.9975 18.9587 66.0892 18.9901 66.222 19.0039L66.2458 19.1631L64.8414 19.3793L64.8176 19.2201C64.9374 19.1675 65.0139 19.1098 65.0485 19.0463C65.0824 18.9835 65.0889 18.882 65.0687 18.7425L64.2207 13.1127C64.1998 12.9725 64.1637 12.8775 64.1125 12.8257C64.0605 12.7738 63.9703 12.7432 63.8411 12.7322L63.8173 12.5723L69.2877 11.7295C69.4255 11.7083 69.5208 11.6718 69.5706 11.62C69.6218 11.5689 69.6522 11.4776 69.663 11.3447L69.8203 11.3206L70.0144 12.6073L69.8564 12.6314C69.808 12.5073 69.7517 12.4291 69.6875 12.3955C69.624 12.3627 69.523 12.3561 69.3844 12.3773L65.0031 13.0528L65.0038 13.0535Z" fill="#1D1D1B"/>
<path d="M74.8338 11.8041L74.9695 15.6103C74.9861 16.0609 75.0207 16.3764 75.0734 16.5582C75.1268 16.7401 75.2286 16.8949 75.3794 17.0242C75.7468 17.3338 76.415 17.4711 77.3843 17.4361C78.4408 17.3973 79.1264 17.1819 79.4411 16.7905C79.5464 16.6583 79.6143 16.5042 79.6439 16.326C79.6742 16.1478 79.6821 15.8528 79.667 15.4394L79.532 11.6332C79.5262 11.4951 79.5017 11.398 79.4562 11.3403C79.4115 11.2834 79.3242 11.2403 79.1971 11.2111L79.1921 11.0497L80.5416 11L80.5474 11.1621C80.4218 11.1964 80.3388 11.2446 80.2977 11.3045C80.2566 11.3651 80.2385 11.4659 80.2436 11.6069L80.385 15.5687C80.4024 16.0558 80.3692 16.429 80.2847 16.6875C80.1281 17.1512 79.8156 17.4989 79.3472 17.7318C78.8781 17.9641 78.2221 18.0962 77.3778 18.1269C76.1155 18.1729 75.2437 17.9575 74.7609 17.4806C74.5646 17.2893 74.4246 17.068 74.3409 16.8168C74.2572 16.5663 74.2074 16.226 74.1922 15.7951L74.0508 11.8333C74.0465 11.6916 74.0212 11.593 73.9757 11.536C73.9303 11.4791 73.8437 11.4374 73.7167 11.4112L73.7109 11.2498L75.1304 11.1979L75.1362 11.3593C75.0114 11.3973 74.9284 11.4469 74.8872 11.5068C74.8461 11.5667 74.8281 11.666 74.8331 11.8041" fill="#1D1D1B"/>
<path d="M88.0363 18.3737L85.7659 12.3204L85.247 17.4879C85.2325 17.6252 85.2448 17.7252 85.2816 17.7881C85.3184 17.8509 85.3985 17.9064 85.5205 17.9524L85.5046 18.113L84.1659 17.975L84.1818 17.8143C84.3102 17.7939 84.3997 17.7574 84.4481 17.7048C84.4964 17.6529 84.5282 17.5558 84.5419 17.4149L85.1113 11.75C85.1257 11.6091 85.1135 11.5076 85.0774 11.4447C85.0399 11.3819 84.9605 11.3286 84.8378 11.2855L84.8537 11.1256L86.6052 11.3053L86.5893 11.4659C86.4212 11.5061 86.3331 11.5682 86.3252 11.6514C86.3216 11.6916 86.3627 11.826 86.4493 12.0545L88.2506 16.8029L90.9743 12.4803C91.0695 12.3277 91.1208 12.2181 91.128 12.1509C91.1367 12.064 91.0631 11.9837 90.9057 11.9107L90.9223 11.75L92.6933 11.9319L92.6775 12.0925C92.5483 12.113 92.4595 12.1495 92.4112 12.2021C92.3628 12.2546 92.3311 12.351 92.3166 12.4913L91.7472 18.1568C91.7335 18.2941 91.745 18.3942 91.7826 18.4577C91.8194 18.5205 91.8995 18.5753 92.0214 18.622L92.0056 18.782L90.5918 18.6367L90.6077 18.4767C90.7412 18.4563 90.8299 18.4198 90.8769 18.3672C90.9252 18.3146 90.9548 18.2182 90.9685 18.0772L91.4881 12.9097L88.0356 18.3737H88.0363Z" fill="#1D1D1B"/>
<path d="M97.2522 16.5159L96.711 19.0143L100.971 19.9607C101.107 19.9907 101.209 19.9914 101.274 19.9607C101.341 19.9308 101.402 19.8563 101.458 19.738L101.613 19.7723L101.338 21.0437L101.182 21.0094C101.177 20.8772 101.15 20.7838 101.102 20.729C101.055 20.6735 100.962 20.6311 100.827 20.6005L95.4949 19.4159L95.5289 19.2582C95.6624 19.2538 95.7555 19.2275 95.8089 19.1815C95.8615 19.1348 95.9027 19.042 95.933 18.904L97.1397 13.3414C97.1692 13.2033 97.1692 13.1018 97.1397 13.0361C97.1093 12.9711 97.0365 12.909 96.9203 12.8484L96.9542 12.6907L102.227 13.8621C102.364 13.892 102.464 13.892 102.528 13.8628C102.593 13.8328 102.654 13.7584 102.715 13.6393L102.871 13.6736L102.595 14.9451L102.439 14.9108C102.437 14.7808 102.412 14.6873 102.365 14.6318C102.317 14.5756 102.225 14.5325 102.089 14.5025L97.8924 13.5707L97.3923 15.8762L100.143 16.4875C100.28 16.5174 100.381 16.5174 100.447 16.4875C100.513 16.4575 100.574 16.383 100.63 16.2647L100.786 16.2998L100.511 17.5712L100.355 17.5362C100.353 17.4047 100.328 17.3112 100.28 17.2565C100.232 17.201 100.14 17.1586 100.004 17.1279L97.253 16.5167L97.2522 16.5159Z" fill="#1D1D1B"/>
<path d="M106.67 19.0398L105.889 21.4147C105.846 21.5454 105.836 21.6454 105.859 21.7148C105.882 21.7849 105.947 21.855 106.057 21.9273L106.006 22.0807L104.658 21.6264L104.708 21.4738C104.839 21.4818 104.933 21.4658 104.992 21.4256C105.051 21.3847 105.102 21.2978 105.146 21.1634L106.924 15.76C106.967 15.6256 106.978 15.5241 106.955 15.454C106.933 15.3846 106.866 15.3153 106.756 15.2459L106.806 15.0925L110.349 16.2858C110.834 16.4494 111.21 16.605 111.475 16.7532C111.739 16.9007 111.954 17.0753 112.119 17.2761C112.289 17.4828 112.402 17.7252 112.459 18.0027C112.523 18.3182 112.5 18.6432 112.391 18.9755C112.227 19.4743 111.93 19.8255 111.5 20.0308C111.07 20.2352 110.562 20.2644 109.977 20.1169L110.77 23.2499C110.815 23.4419 110.93 23.569 111.117 23.6318L111.066 23.7852L109.572 23.282L109.621 23.1286C109.784 23.1549 109.877 23.1367 109.897 23.0724C109.907 23.0403 109.886 22.9191 109.834 22.7058L109.136 19.8708L106.667 19.039L106.67 19.0398ZM106.875 18.4175L109.49 19.2983C109.845 19.418 110.12 19.494 110.311 19.5247C110.502 19.5553 110.68 19.5546 110.845 19.521C111.233 19.4392 111.501 19.1727 111.649 18.7228C111.798 18.27 111.737 17.891 111.465 17.5872C111.344 17.455 111.198 17.3433 111.026 17.2535C110.854 17.1636 110.578 17.0541 110.196 16.9263L107.647 16.0675L106.874 18.4175H106.875Z" fill="#1D1D1B"/>
<path d="M114.52 24.6389L116.777 19.4217C116.833 19.2925 116.853 19.1924 116.837 19.1209C116.82 19.0493 116.76 18.9741 116.657 18.8952L116.72 18.7477L118.022 19.3239L117.959 19.4721C117.83 19.451 117.734 19.459 117.672 19.4933C117.61 19.5276 117.55 19.6102 117.494 19.7401L115.237 24.9573C115.182 25.0866 115.161 25.1859 115.177 25.2553C115.192 25.3247 115.253 25.4014 115.358 25.4846L115.294 25.6321L113.993 25.0552L114.057 24.9077C114.189 24.9289 114.285 24.9223 114.346 24.8865C114.407 24.8507 114.465 24.7682 114.522 24.6389" fill="#1D1D1B"/>
<path d="M121.077 24.9018L119.814 27.1175L123.594 29.3215C123.714 29.3916 123.811 29.423 123.883 29.4143C123.955 29.4055 124.035 29.3537 124.124 29.258L124.263 29.3391L123.62 30.4666L123.482 30.3863C123.517 30.2585 123.519 30.1614 123.49 30.0942C123.461 30.027 123.387 29.9576 123.265 29.8875L118.535 27.1299L118.616 26.9897C118.745 27.0262 118.841 27.0306 118.905 27.0014C118.969 26.9729 119.036 26.897 119.106 26.775L121.916 21.8404C121.985 21.7185 122.016 21.6213 122.007 21.5498C121.997 21.4789 121.946 21.3964 121.854 21.3029L121.933 21.1635L126.61 23.8911C126.732 23.9612 126.827 23.9926 126.897 23.9838C126.967 23.9751 127.049 23.9225 127.141 23.8276L127.279 23.9086L126.638 25.0362L126.499 24.9551C126.536 24.831 126.54 24.7346 126.512 24.6667C126.483 24.5987 126.408 24.5301 126.287 24.4593L122.564 22.2881L121.399 24.3336L123.84 25.757C123.96 25.8271 124.057 25.8585 124.129 25.8497C124.201 25.841 124.281 25.7898 124.37 25.6934L124.509 25.7745L123.867 26.9021L123.728 26.821C123.765 26.6947 123.769 26.599 123.74 26.5311C123.712 26.4639 123.637 26.3953 123.516 26.3244L121.076 24.9018H121.077Z" fill="#1D1D1B"/>
<path d="M4.06165 44.3707H10.0286C10.1967 44.3707 10.3252 44.3312 10.4147 44.2516C10.5041 44.1727 10.577 44.0303 10.6333 43.8266H10.9018V46.8273H10.6333C10.5778 46.6229 10.5041 46.4819 10.4154 46.4023C10.3252 46.3227 10.1967 46.2833 10.0286 46.2833H0V45.6881L6.66766 36.5938H0.932419C0.759214 36.5938 0.627145 36.6332 0.537656 36.7106C0.448167 36.7888 0.375277 36.9312 0.318985 37.1379H0.0497964V34.1371H0.318985C0.38105 34.3438 0.455384 34.4862 0.541265 34.5643C0.627867 34.6424 0.758492 34.6812 0.931697 34.6812H10.8101V35.1661L4.06165 44.3707Z" fill="#1D1D1B"/>
<path d="M14.962 37.63V45.4084C14.962 45.5844 15.001 45.718 15.0796 45.8122C15.1583 45.9057 15.2983 45.9831 15.4997 46.0452V46.284H12.1741V46.0452C12.3697 45.9948 12.5083 45.921 12.5898 45.8246C12.6707 45.7282 12.7111 45.5924 12.7111 45.4171V37.6315C12.7111 37.4562 12.6721 37.3233 12.5934 37.232C12.5155 37.1415 12.3755 37.0648 12.1741 37.0027V36.7646H15.4997V37.0027C15.2983 37.059 15.1583 37.1349 15.0796 37.2277C15.001 37.3211 14.962 37.4555 14.962 37.6308" fill="#1D1D1B"/>
<path d="M19.702 42.2374V44.5583H25.6739C25.8471 44.5583 25.9799 44.5189 26.0723 44.4407C26.1647 44.3626 26.239 44.2202 26.2946 44.0142H26.5306V46.8281H26.2946C26.2448 46.6294 26.1719 46.4892 26.0766 46.4067C25.9814 46.3242 25.8464 46.284 25.6739 46.284H16.9134V46.0459C17.1097 45.9948 17.2475 45.9218 17.3291 45.8246C17.4099 45.7282 17.451 45.5924 17.451 45.4171V37.6315C17.451 37.4562 17.4114 37.3226 17.3334 37.232C17.2547 37.1415 17.1155 37.0648 16.9134 37.0027V36.7654H25.4134C25.5931 36.7654 25.7288 36.7259 25.8204 36.6463C25.9128 36.5667 25.9872 36.4251 26.0427 36.2213H26.2693V39.0344H26.0427C25.9872 38.8285 25.9128 38.686 25.8204 38.6079C25.7281 38.5298 25.5924 38.4903 25.4134 38.4903H19.702V40.5812H23.2462C23.4201 40.5812 23.5529 40.5417 23.6453 40.4621C23.7377 40.3832 23.8149 40.2416 23.8762 40.0378H24.1028V42.7822H23.8762C23.8199 42.5814 23.7456 42.4405 23.6539 42.3594C23.5616 42.2783 23.4259 42.2382 23.2462 42.2382H19.702V42.2374Z" fill="#1D1D1B"/>
<path d="M30.497 44.5576H35.7638C35.9428 44.5576 36.0778 44.5181 36.1665 44.4407C36.256 44.3626 36.3318 44.2202 36.3932 44.0135H36.6198V46.8273H36.3932C36.3376 46.6228 36.2633 46.4819 36.1709 46.4023C36.0785 46.3227 35.9428 46.2833 35.7638 46.2833H27.7091V46.0452C27.9054 45.9941 28.0432 45.921 28.1248 45.8246C28.2056 45.7282 28.246 45.5917 28.246 45.4164V37.6308C28.246 37.4555 28.2071 37.3226 28.1291 37.2313C28.0505 37.1407 27.9105 37.0641 27.7091 37.002V36.7639H31.0354V37.002C30.8333 37.0582 30.6933 37.1334 30.6146 37.2269C30.536 37.3204 30.497 37.4548 30.497 37.6308V44.5576Z" fill="#1D1D1B"/>
<path d="M40.1345 37.63V45.4084C40.1345 45.5844 40.1734 45.718 40.2514 45.8122C40.33 45.9057 40.47 45.9831 40.6721 46.0452V46.284H37.3459V46.0452C37.5422 45.9948 37.68 45.921 37.7615 45.8246C37.8431 45.7282 37.8835 45.5924 37.8835 45.4171V37.6315C37.8835 37.4562 37.8445 37.3233 37.7659 37.232C37.6872 37.1415 37.5479 37.0648 37.3459 37.0027V36.7646H40.6721V37.0027C40.4708 37.059 40.33 37.1349 40.2514 37.2277C40.1727 37.3211 40.1345 37.4555 40.1345 37.6308" fill="#1D1D1B"/>
<path d="M44.6723 40.0108V45.4091C44.6723 45.5844 44.7128 45.7209 44.7936 45.8166C44.8751 45.913 45.013 45.989 45.21 46.0459V46.284H42.0858V46.0459C42.2814 45.9948 42.42 45.9218 42.5008 45.8254C42.5823 45.729 42.6228 45.5924 42.6228 45.4171V37.6315C42.6228 37.4562 42.5838 37.3233 42.5051 37.232C42.4265 37.1415 42.2872 37.0648 42.0858 37.0027V36.7646H45.6986V37.0027C45.4525 37.0655 45.3291 37.1751 45.3291 37.3343C45.3291 37.4701 45.4186 37.6286 45.5983 37.8104L50.645 42.8757V37.6322C50.645 37.457 50.6053 37.3219 50.5267 37.2284C50.448 37.1349 50.3087 37.0597 50.1074 37.0035V36.7654H53.2315V37.0035C53.0302 37.0597 52.8902 37.1349 52.8115 37.2284C52.7329 37.3219 52.6939 37.4562 52.6939 37.6315V45.4098C52.6939 45.5851 52.7329 45.7195 52.8115 45.813C52.8902 45.9064 53.0302 45.9846 53.2315 46.0466V46.2847H49.8627V46.0466C50.1088 45.9963 50.2322 45.8918 50.2322 45.7348C50.2322 45.6567 50.1983 45.5749 50.1312 45.4902C50.0641 45.4062 49.9103 45.2404 49.6693 44.9928L44.6731 40.0123L44.6723 40.0108Z" fill="#1D1D1B"/>
<path d="M63.6824 37.6221L62.5486 39.8408L62.3465 39.7298C62.3465 39.5428 62.2881 39.3953 62.1705 39.2879C61.8515 38.9987 61.3809 38.7607 60.7588 38.5737C60.1382 38.3868 59.5074 38.2933 58.8695 38.2933C58.326 38.2933 57.8447 38.37 57.4246 38.5226C56.8199 38.7439 56.5175 39.0645 56.5175 39.4829C56.5175 39.7612 56.6633 39.9576 56.9541 40.0737C57.2449 40.1898 57.8086 40.2819 58.6428 40.3498L59.97 40.4527C61.1291 40.5433 62.011 40.7697 62.6157 41.1326C62.952 41.3364 63.2292 41.6088 63.4478 41.9484C63.7221 42.3734 63.8592 42.8517 63.8592 43.3849C63.8592 44.354 63.4276 45.1186 62.5659 45.6802C61.7432 46.2184 60.6282 46.4879 59.2231 46.4879C57.818 46.4879 56.4381 46.1841 55.1167 45.5787C55.0265 45.5378 54.9507 45.518 54.8901 45.518C54.7775 45.518 54.6743 45.5867 54.579 45.7225L54.369 45.6378L55.3354 43.3082L55.5454 43.3936V43.4615C55.5454 43.6091 55.6009 43.7339 55.7128 43.8355C55.9928 44.0852 56.4771 44.3014 57.1663 44.4854C57.8548 44.6694 58.5353 44.7615 59.2072 44.7615C59.8004 44.7615 60.3323 44.6826 60.8029 44.5241C61.3853 44.3306 61.6761 44.0195 61.6761 43.5879C61.6761 43.2425 61.4747 43.0015 61.072 42.8656C60.8029 42.7751 60.3186 42.6984 59.6186 42.6363L58.3 42.5253C57.5885 42.4691 57.0458 42.3946 56.6698 42.3048C56.2945 42.2142 55.9676 42.0813 55.6875 41.9053C55.3289 41.6789 55.0488 41.37 54.8475 40.9786C54.6461 40.5879 54.5444 40.1599 54.5444 39.6947C54.5444 38.6518 54.9868 37.8566 55.8716 37.3067C56.6784 36.8079 57.6743 36.5581 58.8615 36.5581C59.506 36.5581 60.1057 36.6304 60.6636 36.775C61.2207 36.9196 61.8854 37.173 62.6576 37.536C62.8878 37.6433 63.0466 37.6974 63.1368 37.6974C63.227 37.6974 63.341 37.6346 63.481 37.5104L63.6824 37.6207V37.6221Z" fill="#1D1D1B"/>
<path d="M69.113 41.9483L67.7757 43.0444V45.4098C67.7757 45.5844 67.8154 45.7187 67.8941 45.8122C67.9728 45.9057 68.112 45.9831 68.3141 46.0452V46.2833H64.9879V46.0452C65.1842 45.9941 65.3227 45.921 65.4043 45.8239C65.4851 45.7275 65.5255 45.5917 65.5255 45.4164V37.6308C65.5255 37.4555 65.4865 37.3219 65.4079 37.2313C65.3292 37.1407 65.1892 37.0641 64.9879 37.0013V36.7639H68.3141V37.0013C68.112 37.0582 67.9728 37.1334 67.8941 37.2269C67.8154 37.3204 67.7757 37.4548 67.7757 37.6308V40.752L71.317 37.8944C71.5797 37.6848 71.7118 37.5008 71.7118 37.3423C71.7118 37.1721 71.5494 37.059 71.2254 37.002V36.7646H75.4538V37.002C75.2409 37.0363 75.0633 37.1006 74.9204 37.1962C74.7775 37.2919 74.4232 37.587 73.8581 38.0814L70.6928 40.6513L74.1778 44.7029C74.6253 45.2265 74.9457 45.5676 75.1391 45.7253C75.3325 45.8831 75.5555 45.9897 75.8067 46.0459V46.284H71.6873V46.0459C71.9954 45.9722 72.1491 45.8604 72.1491 45.7085C72.1491 45.653 72.1311 45.5975 72.095 45.5442C72.0589 45.4909 71.9283 45.3346 71.7046 45.0768L69.1145 41.949L69.113 41.9483Z" fill="#1D1D1B"/>
<path d="M79.3191 37.63V45.4084C79.3191 45.5844 79.3581 45.718 79.4368 45.8122C79.5154 45.9057 79.6554 45.9831 79.8575 46.0452V46.284H76.5312V46.0452C76.7268 45.9948 76.8654 45.921 76.9469 45.8246C77.0278 45.7282 77.0682 45.5924 77.0682 45.4171V37.6315C77.0682 37.4562 77.0292 37.3233 76.9513 37.232C76.8726 37.1415 76.7326 37.0648 76.5312 37.0027V36.7646H79.8575V37.0027C79.6554 37.059 79.5154 37.1349 79.4368 37.2277C79.3581 37.3211 79.3191 37.4555 79.3191 37.6308" fill="#1D1D1B"/>
<path d="M97.3577 38.2939V41.5145H97.0892C97.0545 41.2319 96.9716 41.0902 96.8366 41.0902C96.7132 41.0902 96.5284 41.1727 96.2823 41.337C96.0355 41.5021 95.8205 41.689 95.6357 41.8979C95.3052 42.2667 95.0757 42.6662 94.9472 43.0963C95.2944 43.4534 95.5953 43.7068 95.8493 43.8565C96.1041 44.0077 96.3661 44.0822 96.6352 44.0822C96.8813 44.0822 97.0329 43.9464 97.0892 43.674H97.3577V46.3512C97.2003 46.3176 96.7074 46.2745 95.8796 46.2241C95.5607 46.2015 95.1644 46.0511 94.691 45.7736C94.2176 45.496 93.8106 45.1733 93.4685 44.8045C92.3318 45.9262 90.983 46.4878 89.4198 46.4878C88.1995 46.4878 87.1862 46.1935 86.3794 45.6041C85.4664 44.941 85.0103 44.0654 85.0103 42.9773C85.0103 41.5211 85.8619 40.3709 87.5636 39.5266C86.808 38.8584 86.4299 38.1274 86.4299 37.3336C86.4299 36.4098 86.8665 35.6766 87.7405 35.1325C88.4513 34.6958 89.2661 34.4781 90.1848 34.4781C91.2147 34.4781 92.116 34.7389 92.889 35.2603C93.6453 35.77 94.0227 36.4784 94.0227 37.3847C94.0227 37.8893 93.9116 38.3173 93.6908 38.6686C93.4699 39.0198 93.073 39.3996 92.5021 39.8071C93.0867 40.1868 93.5385 40.7258 93.8589 41.4225C94.3959 40.4819 94.9212 39.7808 95.4365 39.3185C95.9504 38.857 96.5905 38.5159 97.3569 38.2946M89.6464 40.5724C89.0193 40.5724 88.4766 40.7565 88.0176 41.1253C87.5636 41.4941 87.337 41.9549 87.337 42.5106C87.337 43.0941 87.5593 43.5732 88.0053 43.9471C88.4506 44.321 89.02 44.508 89.7143 44.508C90.4085 44.508 91.0415 44.3269 91.5445 43.9639C92.0489 43.6068 92.3008 43.1818 92.3008 42.6895C92.3008 42.4566 92.2236 42.2002 92.0699 41.9198C91.9154 41.6394 91.7213 41.4057 91.486 41.2187C90.9707 40.7937 90.358 40.5783 89.6464 40.5732M90.2433 36.2046C89.8175 36.2046 89.4451 36.3097 89.1261 36.52C88.7176 36.7873 88.5127 37.1707 88.5127 37.671C88.5127 38.0909 88.6765 38.4392 89.0041 38.7153C89.3318 38.9913 89.7439 39.1286 90.2425 39.1286C90.6741 39.1286 91.0494 39.0242 91.3684 38.8139C91.7769 38.5408 91.9818 38.1654 91.9818 37.6885C91.9818 37.2503 91.8223 36.8954 91.5026 36.623C91.1829 36.3506 90.7629 36.2111 90.2425 36.2053" fill="#1D1D1B"/>
<path d="M105.241 42.3733V45.4091C105.241 45.5844 105.28 45.7187 105.359 45.8115C105.438 45.905 105.578 45.9824 105.779 46.0445V46.2825H102.454V46.0445C102.649 45.9933 102.788 45.9203 102.869 45.8246C102.95 45.7275 102.99 45.5917 102.99 45.4157V37.63C102.99 37.4548 102.952 37.3211 102.874 37.2306C102.795 37.14 102.655 37.0633 102.454 37.0013V36.7639H108.619C109.419 36.7639 110.03 36.8048 110.45 36.8873C110.869 36.9691 111.245 37.1181 111.575 37.3328C112.253 37.7805 112.591 38.5115 112.591 39.5251C112.591 40.2956 112.383 40.8981 111.966 41.3312C111.548 41.7649 110.875 42.0782 109.946 42.2696L111.726 44.781C112.051 45.2455 112.31 45.5595 112.503 45.726C112.696 45.8926 112.916 45.9992 113.163 46.0437V46.2818H109.206V46.0437C109.499 45.9649 109.644 45.8378 109.644 45.6618C109.644 45.5376 109.554 45.3478 109.375 45.0936L107.495 42.3718H105.241V42.3733ZM105.241 40.6476H108.635C109.15 40.6476 109.53 40.5914 109.777 40.4774C110.124 40.3248 110.298 40.021 110.298 39.5682C110.298 39.1658 110.176 38.8861 109.932 38.7262C109.688 38.5677 109.256 38.4881 108.634 38.4881H105.241V40.6476H105.241Z" fill="#1D1D1B"/>
<path d="M119.107 36.5602C120.603 36.5602 121.85 36.9458 122.848 37.7162C124.041 38.6459 124.639 39.94 124.639 41.5999C124.639 43.1584 124.042 44.402 122.848 45.3317C121.863 46.1022 120.62 46.4878 119.124 46.4878C117.629 46.4878 116.387 46.1022 115.401 45.3317C114.202 44.402 113.602 43.1335 113.602 41.524C113.602 39.9144 114.202 38.6284 115.401 37.7162C116.392 36.9626 117.628 36.577 119.107 36.5602ZM119.116 38.3618C118.146 38.3618 117.355 38.6766 116.744 39.3053C116.178 39.8947 115.895 40.6345 115.895 41.524C115.895 42.4135 116.178 43.1445 116.744 43.7338C117.355 44.3684 118.148 44.6854 119.124 44.6854C120.099 44.6854 120.884 44.3677 121.495 43.7338C122.062 43.1503 122.345 42.4273 122.345 41.5663C122.345 40.6308 122.062 39.8779 121.495 39.3053C120.879 38.6875 120.085 38.3735 119.115 38.3618" fill="#1D1D1B"/>
<path d="M129.299 44.5577H134.073C134.252 44.5577 134.387 44.5175 134.476 44.4365C134.566 44.3554 134.641 44.2145 134.703 44.0136H134.929V46.8274H134.703C134.653 46.6288 134.581 46.4901 134.488 46.4075C134.396 46.325 134.26 46.2834 134.081 46.2834H125.649V45.7736L131.129 38.4897H126.573C126.393 38.4897 126.259 38.5291 126.169 38.6066C126.08 38.6847 126.004 38.8271 125.943 39.0331H125.716V36.22H125.943C125.999 36.4245 126.073 36.5654 126.165 36.645C126.258 36.7246 126.394 36.764 126.573 36.764H134.846V37.1803L129.299 44.5577Z" fill="#1D1D1B"/>
<path d="M138.855 42.2374V44.5583H144.828C145.001 44.5583 145.134 44.5189 145.226 44.4407C145.319 44.3626 145.393 44.2202 145.449 44.0142H145.684V46.8281H145.449C145.399 46.6294 145.326 46.4892 145.231 46.4067C145.135 46.3242 145.001 46.284 144.828 46.284H136.068V46.0459C136.263 45.9948 136.402 45.9218 136.483 45.8246C136.564 45.7282 136.604 45.5924 136.604 45.4171V37.6315C136.604 37.4562 136.565 37.3226 136.488 37.232C136.409 37.1415 136.269 37.0648 136.068 37.0027V36.7654H144.567C144.747 36.7654 144.882 36.7259 144.975 36.6463C145.067 36.5667 145.141 36.4251 145.197 36.2213H145.423V39.0344H145.197C145.141 38.8285 145.068 38.686 144.975 38.6079C144.882 38.5298 144.747 38.4903 144.567 38.4903H138.855V40.5812H142.4C142.573 40.5812 142.706 40.5417 142.799 40.4621C142.891 40.3832 142.968 40.2416 143.03 40.0378H143.256V42.7822H143.03C142.974 42.5814 142.9 42.4405 142.807 42.3594C142.715 42.2783 142.579 42.2382 142.4 42.2382H138.856L138.855 42.2374Z" fill="#1D1D1B"/>
<path d="M149.904 38.3363V45.3909C149.904 45.5669 149.943 45.6998 150.021 45.7903C150.099 45.8809 150.24 45.9547 150.441 46.0109V46.2833H147.073V46.0109C147.275 45.9547 147.415 45.8802 147.492 45.7903C147.571 45.6998 147.61 45.5669 147.61 45.3909V35.5655C147.61 35.3954 147.571 35.2654 147.492 35.1748C147.414 35.0843 147.275 35.0098 147.073 34.9536V34.6819H150.97V34.9536C150.73 35.0156 150.609 35.1463 150.609 35.345C150.609 35.4808 150.687 35.6305 150.845 35.7956L157.169 42.45V35.5655C157.169 35.3954 157.13 35.2654 157.052 35.1748C156.973 35.0843 156.833 35.0098 156.633 34.9536V34.6819H160V34.9536C159.798 35.0098 159.658 35.0843 159.58 35.1748C159.501 35.2654 159.462 35.3954 159.462 35.5655V45.3909C159.462 45.5669 159.501 45.6998 159.58 45.7903C159.658 45.8809 159.798 45.9547 160 46.0109V46.2833H156.388V46.0109C156.624 45.9605 156.741 45.8378 156.741 45.645C156.741 45.5318 156.604 45.3332 156.329 45.0506L149.904 38.3355L149.904 38.3363Z" fill="#1D1D1B"/>
</svg>
