<svg xmlns="http://www.w3.org/2000/svg" width="103" height="47" viewBox="0 0 103 47" fill="none">
  <path d="M7.34116 9.38128V1.48818H5.09191C5.00942 2.58877 4.73995 3.91725 4.2725 5.46252C3.81055 7.00779 3.26611 8.31405 2.65018 9.38128H7.34116ZM9.73889 13.0388H8.64451V10.4374H1.77578V13.0388H0.681396V9.38128H1.44581C2.13873 8.20288 2.73267 6.76878 3.22762 5.07343C3.72256 3.38364 3.99203 1.83837 4.04702 0.443176H8.49053V9.38128H9.73889V13.0388Z" fill="white"/>
  <path d="M14.0612 3.75604C13.4672 3.75604 12.9943 3.95059 12.6368 4.34525C12.2849 4.7399 12.0759 5.27908 12.0099 5.9739H15.887C15.887 5.25685 15.7275 4.71211 15.414 4.33413C15.1006 3.95059 14.6496 3.7616 14.0612 3.7616M14.3691 10.5764C13.2747 10.5764 12.4058 10.2373 11.7734 9.5647C11.141 8.89212 10.822 7.95273 10.822 6.75765C10.822 5.56256 11.119 4.58982 11.7019 3.87833C12.2904 3.16684 13.0823 2.8111 14.0722 2.8111C15.0016 2.8111 15.7385 3.12237 16.2774 3.73937C16.8164 4.35636 17.0913 5.16791 17.0913 6.18512V6.90217H11.9879C12.0099 7.78041 12.2299 8.44744 12.6478 8.90324C13.0658 9.35904 13.6487 9.58694 14.4076 9.58694C15.205 9.58694 15.9969 9.42018 16.7779 9.08111V10.0928C16.3819 10.2651 16.0024 10.3929 15.6505 10.4652C15.2985 10.543 14.8696 10.5764 14.3691 10.5764Z" fill="white"/>
  <path d="M20.127 10.4374H19.0051V2.94452H25.2249V10.4374H24.0921V3.92838H20.127V10.4374Z" fill="white"/>
  <path d="M29.6246 9.63696C30.323 9.63696 30.873 9.44241 31.2689 9.05887C31.6704 8.66978 31.8684 8.12504 31.8684 7.43022V6.75209L30.7465 6.80211C29.8556 6.83546 29.2122 6.97443 28.8162 7.219C28.4203 7.46914 28.2223 7.85267 28.2223 8.37517C28.2223 8.7865 28.3433 9.09778 28.5907 9.31456C28.8382 9.52579 29.1792 9.63696 29.6246 9.63696ZM32.1598 10.4374L31.9344 9.37015H31.8794C31.5109 9.83707 31.1425 10.1595 30.774 10.3207C30.4055 10.4874 29.9491 10.5708 29.3991 10.5708C28.6622 10.5708 28.0848 10.3762 27.6723 9.99826C27.2544 9.61473 27.0454 9.06999 27.0454 8.36406C27.0454 6.85214 28.2443 6.05727 30.6365 5.98501L31.8959 5.94054V5.47362C31.8959 4.88442 31.7694 4.45086 31.5219 4.17293C31.2689 3.895 30.873 3.75604 30.323 3.75604C29.7071 3.75604 29.0032 3.94503 28.2278 4.32857L27.8813 3.46144C28.2498 3.26133 28.6457 3.10569 29.0802 2.98897C29.5146 2.87779 29.9546 2.81665 30.389 2.81665C31.2744 2.81665 31.9234 3.01676 32.3523 3.41141C32.7813 3.80607 32.9902 4.43974 32.9902 5.31799V10.4318H32.1598V10.4374Z" fill="white"/>
  <path d="M38.5941 3.77272C37.8351 3.77272 37.2907 3.98394 36.9497 4.40639C36.6088 4.82884 36.4383 5.50698 36.4273 6.42969V6.68539C36.4273 7.73595 36.6033 8.49191 36.9497 8.9477C37.2962 9.4035 37.8516 9.62584 38.6216 9.62584C39.2595 9.62584 39.7599 9.36459 40.1229 8.84209C40.4858 8.31959 40.6673 7.59698 40.6673 6.67427C40.6673 5.75155 40.4858 5.02339 40.1229 4.52868C39.7599 4.02841 39.2485 3.77828 38.5886 3.77828M38.7535 10.5764C38.2696 10.5764 37.8296 10.4874 37.4337 10.304C37.0322 10.1261 36.7023 9.84819 36.4273 9.47021H36.3448C36.3998 9.90933 36.4273 10.3262 36.4273 10.7153V13.8003H35.3054V2.95006H36.2183L36.3723 3.97283H36.4273C36.7133 3.5615 37.0542 3.26689 37.4337 3.08346C37.8186 2.90003 38.2586 2.8111 38.7535 2.8111C39.7379 2.8111 40.4968 3.15017 41.0303 3.83386C41.5637 4.512 41.8332 5.46251 41.8332 6.69094C41.8332 7.91938 41.5582 8.87544 41.0193 9.55914C40.4748 10.2373 39.7214 10.5819 38.759 10.5819" fill="white"/>
  <path d="M48.79 3.91726H46.3813V10.4374H45.2594V3.91726H42.8782V2.94452H48.79V3.91726Z" fill="white"/>
  <path d="M52.282 9.63696C52.9804 9.63696 53.5303 9.44241 53.9263 9.05887C54.3278 8.66978 54.5257 8.12504 54.5257 7.43022V6.75209L53.4038 6.80211C52.5129 6.83546 51.8695 6.97443 51.4736 7.219C51.0776 7.46914 50.8796 7.85267 50.8796 8.37517C50.8796 8.7865 51.0006 9.09778 51.2481 9.31456C51.4956 9.52579 51.8365 9.63696 52.2765 9.63696M54.8117 10.4374L54.5862 9.37015H54.5312C54.1628 9.83707 53.7943 10.1595 53.4259 10.3207C53.0574 10.4874 52.6009 10.5708 52.051 10.5708C51.3141 10.5708 50.7366 10.3762 50.3242 9.99826C49.9062 9.61473 49.6973 9.06999 49.6973 8.36406C49.6973 6.85214 50.8961 6.05727 53.2884 5.98501L54.5477 5.94054V5.47362C54.5477 4.88442 54.4212 4.45086 54.1738 4.17293C53.9208 3.895 53.5248 3.75604 52.9749 3.75604C52.359 3.75604 51.6605 3.94503 50.8796 4.32857L50.5332 3.46144C50.9016 3.26133 51.2976 3.10569 51.732 2.98897C52.1665 2.87779 52.6064 2.81665 53.0409 2.81665C53.9263 2.81665 54.5752 3.01676 55.0042 3.41141C55.4331 3.80607 55.6421 4.43974 55.6421 5.31799V10.4318H54.8117V10.4374Z" fill="white"/>
  <path d="M61.807 9.34237L62.016 8.70869L62.3074 7.90271L64.3147 2.96118H65.739V10.4374H64.7436V4.25076L64.6062 4.65097L64.2157 5.69598L62.3019 10.4374H61.3615L59.4477 5.6793C59.2058 5.06786 59.0463 4.59539 58.9528 4.25076V10.4374H57.9519V2.96118H59.3268L61.268 7.71372C61.4605 8.21399 61.642 8.75872 61.8015 9.34793" fill="white"/>
  <path d="M70.9637 3.75604C70.3698 3.75604 69.8969 3.95059 69.5394 4.34525C69.1874 4.7399 68.9785 5.27908 68.9125 5.9739H72.7895C72.7895 5.25685 72.6301 4.71211 72.3166 4.33413C72.0031 3.95059 71.5522 3.7616 70.9637 3.7616M71.2717 10.5764C70.1773 10.5764 69.3084 10.2373 68.676 9.5647C68.0436 8.89212 67.7246 7.95273 67.7246 6.75765C67.7246 5.56256 68.0216 4.58982 68.6045 3.87833C69.1929 3.16684 69.9849 2.8111 70.9748 2.8111C71.9041 2.8111 72.6411 3.12237 73.18 3.73937C73.7189 4.35636 73.9939 5.16791 73.9939 6.18512V6.90217H68.8905C68.9125 7.78041 69.1325 8.44744 69.5504 8.90324C69.9684 9.35904 70.5513 9.58694 71.3102 9.58694C72.1076 9.58694 72.8995 9.42018 73.6804 9.08111V10.0928C73.2845 10.2651 72.905 10.3929 72.5531 10.4652C72.2011 10.543 71.7722 10.5764 71.2717 10.5764Z" fill="white"/>
  <path d="M77.0292 2.94452V6.08508H81.1813V2.94452H82.3032V10.4374H81.1813V7.05783H77.0292V10.4374H75.9019V2.94452H77.0292Z" fill="white"/>
  <path d="M89.678 3.91726H87.2692V10.4374H86.1474V3.91726H83.7661V2.94452H89.678V3.91726Z" fill="white"/>
  <path d="M4.73978 26.9017C3.6674 26.9017 2.83699 26.5682 2.24856 25.9012C1.66012 25.2342 1.36865 24.2892 1.36865 23.0664C1.36865 21.8435 1.66562 20.8429 2.26506 20.1648C2.86449 19.4811 3.71139 19.1365 4.81677 19.1365C5.17423 19.1365 5.53169 19.1754 5.88366 19.2532C6.24112 19.331 6.52158 19.42 6.72506 19.5256L6.3786 20.4872C6.13112 20.3871 5.86166 20.3038 5.56469 20.2371C5.27322 20.1704 5.01475 20.137 4.78927 20.137C3.28244 20.137 2.52902 21.1098 2.52902 23.0497C2.52902 23.9668 2.7105 24.6783 3.07896 25.1675C3.44742 25.6622 3.99186 25.9068 4.71228 25.9068C5.32821 25.9068 5.96065 25.7734 6.61508 25.501V26.5071C6.12013 26.7683 5.49319 26.8962 4.74528 26.8962" fill="white"/>
  <path d="M9.49126 26.7683H8.36938V19.2755H14.5892V26.7683H13.4563V20.2593H9.49126V26.7683Z" fill="white"/>
  <path d="M17.7184 23.0108C17.7184 23.9668 17.9053 24.695 18.2848 25.2008C18.6643 25.7011 19.2197 25.9512 19.9566 25.9512C20.6935 25.9512 21.249 25.7011 21.6284 25.2008C22.0134 24.7005 22.2004 23.9724 22.2004 23.0108C22.2004 22.0491 22.0134 21.3376 21.6284 20.8429C21.249 20.3482 20.688 20.1036 19.9401 20.1036C19.1922 20.1036 18.6478 20.3482 18.2738 20.8374C17.8998 21.3265 17.7129 22.0547 17.7129 23.0163M23.3607 23.0163C23.3607 24.2392 23.0583 25.1897 22.4478 25.879C21.8374 26.5627 21.0015 26.9073 19.9291 26.9073C19.2637 26.9073 18.6808 26.7516 18.1638 26.4348C17.6469 26.1235 17.2509 25.6733 16.9704 25.0841C16.69 24.5004 16.5525 23.8112 16.5525 23.0219C16.5525 21.8046 16.855 20.854 17.4599 20.1703C18.0648 19.4922 18.9007 19.1476 19.9731 19.1476C21.0455 19.1476 21.8374 19.4978 22.4423 20.1926C23.0528 20.893 23.3607 21.8324 23.3607 23.0219" fill="white"/>
  <path d="M28.6182 20.1037C27.8593 20.1037 27.3149 20.3149 26.9739 20.7373C26.6329 21.1598 26.4625 21.8324 26.4515 22.7606V23.0163C26.4515 24.0669 26.6274 24.8228 26.9739 25.2786C27.3204 25.7344 27.8758 25.9568 28.6457 25.9568C29.2836 25.9568 29.7841 25.6955 30.1471 25.173C30.51 24.6505 30.6915 23.9279 30.6915 23.0052C30.6915 22.0825 30.51 21.3543 30.1471 20.8541C29.7841 20.3538 29.2727 20.1037 28.6127 20.1037M28.7777 26.9017C28.2938 26.9017 27.8538 26.8128 27.4579 26.6294C27.0564 26.4515 26.7209 26.1736 26.4515 25.7956H26.369C26.424 26.2347 26.4515 26.6516 26.4515 27.0407V30.1201H25.3296V19.2699H26.2425L26.3965 20.2926H26.4515C26.7374 19.8813 27.0729 19.5867 27.4579 19.4033C27.8428 19.2199 28.2828 19.1309 28.7777 19.1309C29.7621 19.1309 30.521 19.47 31.0544 20.1537C31.5879 20.8318 31.8574 21.7823 31.8574 23.0108C31.8574 24.2392 31.5824 25.1953 31.0435 25.879C30.499 26.5571 29.7456 26.9017 28.7832 26.9017" fill="white"/>
  <path d="M38.8198 20.2482H36.4111V26.7683H35.2892V20.2482H32.908V19.2755H38.8198V20.2482Z" fill="white"/>
  <path d="M42.3063 25.9679C43.0047 25.9679 43.5546 25.7734 43.9506 25.3898C44.352 25.0007 44.55 24.4615 44.55 23.7612V23.083L43.4281 23.1331C42.5372 23.1664 41.8938 23.3054 41.4979 23.5499C41.1019 23.8001 40.9039 24.1836 40.9039 24.7061C40.9039 25.1174 41.0249 25.4287 41.2724 25.6455C41.5199 25.8567 41.8608 25.9679 42.3063 25.9679ZM44.8415 26.7683L44.616 25.7011H44.561C44.1926 26.168 43.8241 26.4848 43.4556 26.6516C43.0872 26.8184 42.6307 26.9017 42.0808 26.9017C41.3439 26.9017 40.7664 26.7072 40.354 26.3236C39.936 25.9401 39.7271 25.3954 39.7271 24.6894C39.7271 23.1775 40.9259 22.3827 43.3182 22.3104L44.5775 22.2659V21.799C44.5775 21.2098 44.451 20.7762 44.2036 20.4983C43.9506 20.2204 43.5546 20.0759 43.0047 20.0759C42.3888 20.0759 41.6903 20.2649 40.9094 20.6484L40.563 19.7813C40.9314 19.5812 41.3274 19.4255 41.7618 19.3088C42.1963 19.1976 42.6362 19.1365 43.0707 19.1365C43.9561 19.1365 44.605 19.3366 45.034 19.7312C45.4629 20.1259 45.6719 20.7596 45.6719 21.6378V26.7517H44.8415V26.7683Z" fill="white"/>
  <path d="M6.24138 36.5736H2.89775V43.0937H1.77588V35.6064H6.24138V36.5736Z" fill="white"/>
  <path d="M8.45762 39.3417C8.45762 40.2978 8.64459 41.0259 9.02405 41.5318C9.40351 42.032 9.95895 42.2822 10.6959 42.2822C11.4328 42.2822 11.9882 42.032 12.3677 41.5318C12.7526 41.0315 12.9396 40.3033 12.9396 39.3417C12.9396 38.3801 12.7526 37.6686 12.3677 37.1739C11.9882 36.6792 11.4273 36.429 10.6794 36.429C9.93146 36.429 9.38701 36.6736 9.01305 37.1572C8.63909 37.6463 8.45212 38.3745 8.45212 39.3361M14.1 39.3361C14.1 40.559 13.7975 41.5095 13.1871 42.1988C12.5767 42.8825 11.7408 43.2271 10.6684 43.2271C10.0029 43.2271 9.42001 43.0715 8.90307 42.7546C8.38612 42.4434 7.99017 41.9931 7.7097 41.4039C7.42923 40.8147 7.29175 40.131 7.29175 39.3417C7.29175 38.1244 7.59421 37.1683 8.19914 36.4902C8.80408 35.812 9.63999 35.4674 10.7124 35.4674C11.7847 35.4674 12.5767 35.8176 13.1816 36.5124C13.792 37.2072 14.1 38.1522 14.1 39.3417" fill="white"/>
  <path d="M19.3575 36.429C18.5986 36.429 18.0541 36.6403 17.7132 37.0627C17.3722 37.4852 17.2017 38.1577 17.1907 39.086V39.3417C17.1907 40.3923 17.3667 41.1482 17.7132 41.604C18.0596 42.0598 18.6151 42.2822 19.385 42.2822C20.0229 42.2822 20.5234 42.0209 20.8863 41.4984C21.2493 40.9759 21.4308 40.2533 21.4308 39.3306C21.4308 38.4079 21.2493 37.6797 20.8863 37.1794C20.5234 36.6792 20.0119 36.429 19.352 36.429M19.517 43.2271C19.033 43.2271 18.5931 43.1382 18.1971 42.9547C17.7957 42.7769 17.4657 42.4989 17.1907 42.121H17.1082C17.1632 42.5601 17.1907 42.977 17.1907 43.3661V46.4455H16.0688V35.5953H16.9817L17.1357 36.618H17.1907C17.4767 36.2067 17.8122 35.9121 18.1971 35.7287C18.5821 35.5452 19.022 35.4563 19.517 35.4563C20.5014 35.4563 21.2603 35.7954 21.7937 36.4791C22.3272 37.1572 22.5966 38.1077 22.5966 39.3361C22.5966 40.5646 22.3217 41.5206 21.7827 42.2043C21.2383 42.8825 20.4849 43.2271 19.5225 43.2271" fill="white"/>
  <path d="M25.3076 39.3417C25.3076 40.2978 25.4946 41.0259 25.874 41.5318C26.2535 42.032 26.8089 42.2822 27.5459 42.2822C28.2828 42.2822 28.8382 42.032 29.2177 41.5318C29.6026 41.0315 29.7896 40.3033 29.7896 39.3417C29.7896 38.3801 29.6026 37.6686 29.2177 37.1739C28.8382 36.6792 28.2773 36.429 27.5294 36.429C26.7814 36.429 26.237 36.6736 25.863 37.1572C25.4891 37.6463 25.3021 38.3745 25.3021 39.3361M30.9445 39.3361C30.9445 40.559 30.642 41.5095 30.0316 42.1988C29.4211 42.8825 28.5852 43.2271 27.5129 43.2271C26.8474 43.2271 26.2645 43.0715 25.7476 42.7546C25.2361 42.4434 24.8402 41.9931 24.5542 41.4039C24.2737 40.8147 24.1362 40.131 24.1362 39.3417C24.1362 38.1244 24.4387 37.1683 25.0436 36.4902C25.6486 35.812 26.4845 35.4674 27.5569 35.4674C28.6292 35.4674 29.4211 35.8176 30.0261 36.5124C30.6365 37.2072 30.9445 38.1522 30.9445 39.3417" fill="white"/>
  <path d="M37.2138 42.1154V36.5013H35.5475C35.487 37.513 35.3 38.5357 34.97 39.5696C34.6401 40.6091 34.2386 41.454 33.7492 42.1154H37.2138ZM39.3585 45.684H38.2697V43.0937H33.0892V45.684H32.0059V42.1154H32.5888C33.1937 41.2872 33.6667 40.3145 34.0076 39.1972C34.3486 38.0799 34.5246 36.8793 34.5411 35.6008H38.2917V42.1154H39.353V45.684H39.3585Z" fill="white"/>
  <path d="M42.8616 42.2933C43.56 42.2933 44.1099 42.0987 44.5059 41.7152C44.9073 41.3261 45.1053 40.7814 45.1053 40.0865V39.4084L43.9834 39.4584C43.0925 39.4918 42.4491 39.6307 42.0532 39.8753C41.6572 40.1254 41.4592 40.509 41.4592 41.0315C41.4592 41.4428 41.5802 41.7541 41.8277 41.9709C42.0752 42.1877 42.4161 42.2933 42.8561 42.2933M45.3913 43.0937L45.1658 42.0265H45.1108C44.7424 42.4934 44.3739 42.8102 44.0054 42.977C43.637 43.1437 43.1805 43.2271 42.6306 43.2271C41.8937 43.2271 41.3162 43.0326 40.9038 42.6546C40.4858 42.271 40.2769 41.7263 40.2769 41.0204C40.2769 39.5085 41.4757 38.7136 43.868 38.6413L45.1273 38.5969V38.1299C45.1273 37.5407 45.0008 37.1072 44.7534 36.8292C44.5004 36.5513 44.1044 36.4068 43.5545 36.4068C42.9386 36.4068 42.2401 36.5958 41.4592 36.9793L41.1128 36.1122C41.4812 35.9121 41.8772 35.7564 42.3116 35.6397C42.7461 35.523 43.186 35.4674 43.6205 35.4674C44.5059 35.4674 45.1548 35.6675 45.5838 36.0622C46.0127 36.4568 46.2217 37.0905 46.2217 37.9687V43.0826H45.3913V43.0937Z" fill="white"/>
  <path d="M56.6817 43.0937L53.3271 34.239H53.2721C53.3381 34.9394 53.3656 35.7731 53.3656 36.7403V43.0993H52.3042V33.105H54.0365L57.1657 41.3483H57.2207L60.3773 33.105H62.0931V43.0993H60.9437V36.6625C60.9437 35.9232 60.9767 35.1228 61.0372 34.2612H60.9822L57.6001 43.1048H56.6707L56.6817 43.0937Z" fill="white"/>
  <path d="M65.3871 39.3417C65.3871 40.2978 65.574 41.0259 65.9535 41.5318C66.333 42.032 66.8884 42.2822 67.6253 42.2822C68.3622 42.2822 68.9177 42.032 69.2971 41.5318C69.6821 41.0315 69.8691 40.3033 69.8691 39.3417C69.8691 38.3801 69.6821 37.6686 69.2971 37.1739C68.9177 36.6792 68.3567 36.429 67.6088 36.429C66.8609 36.429 66.3165 36.6736 65.9425 37.1572C65.5685 37.6463 65.3816 38.3745 65.3816 39.3361M71.0294 39.3361C71.0294 40.559 70.727 41.5095 70.1165 42.1988C69.5061 42.8825 68.6702 43.2271 67.5978 43.2271C66.9324 43.2271 66.3495 43.0715 65.8325 42.7546C65.3156 42.4434 64.9196 41.9931 64.6391 41.4039C64.3587 40.8147 64.2212 40.131 64.2212 39.3417C64.2212 38.1244 64.5237 37.1683 65.1286 36.4902C65.7335 35.812 66.5694 35.4674 67.6418 35.4674C68.7142 35.4674 69.5061 35.8176 70.111 36.5124C70.7215 37.2072 71.0294 38.1522 71.0294 39.3417" fill="white"/>
  <path d="M75.9681 43.2327C74.8957 43.2327 74.0653 42.8992 73.4768 42.2321C72.8884 41.5651 72.5969 40.6202 72.5969 39.3973C72.5969 38.1744 72.8939 37.1739 73.4933 36.4957C74.0928 35.812 74.9397 35.4674 76.0451 35.4674C76.4025 35.4674 76.76 35.5063 77.1119 35.5841C77.4694 35.662 77.7499 35.7509 77.9533 35.8565L77.6069 36.8181C77.3594 36.7181 77.0899 36.6347 76.7985 36.568C76.507 36.5013 76.2485 36.4679 76.023 36.4679C74.5162 36.4679 73.7683 37.4407 73.7683 39.3806C73.7683 40.2978 73.9498 41.0093 74.3182 41.4984C74.6867 41.9931 75.2311 42.2377 75.9516 42.2377C76.5675 42.2377 77.1999 42.1043 77.8543 41.8319V42.838C77.3594 43.0993 76.7325 43.2271 75.9791 43.2271" fill="white"/>
  <path d="M83.9147 35.6064H85.1465L81.9514 39.2194L85.4105 43.0937H84.1017L80.7195 39.3028V43.0937H79.5977V35.6064H80.7195V39.2472L83.9147 35.6064Z" fill="white"/>
  <path d="M91.9106 40.837C91.9106 40.4312 91.7566 40.1366 91.4541 39.9532C91.1517 39.7697 90.6457 39.6752 89.9418 39.6752H87.907V42.1432H89.9693C91.2617 42.1432 91.9106 41.7096 91.9106 40.837ZM91.7016 37.5908C91.7016 37.2239 91.5641 36.9682 91.2837 36.8126C91.0087 36.6625 90.5852 36.5847 90.0243 36.5847H87.907V38.6969H89.8043C90.4972 38.6969 90.9867 38.608 91.2727 38.4357C91.5586 38.2634 91.7016 37.9799 91.7016 37.5908ZM92.796 37.4796C92.796 37.9688 92.6585 38.3356 92.378 38.5858C92.1031 38.8415 91.7126 39.0082 91.2122 39.0971V39.1583C91.8446 39.2472 92.3065 39.4307 92.5925 39.7197C92.884 40.0087 93.0325 40.4034 93.0325 40.9092C93.0325 41.6096 92.7795 42.1432 92.2735 42.5212C91.7676 42.8992 91.0252 43.0882 90.0518 43.0882H86.7852V35.6008H90.0408C91.8831 35.6008 92.8015 36.2289 92.8015 37.4796" fill="white"/>
  <path d="M102.943 43.0937H101.821V35.6064H102.943V43.0937ZM95.7825 39.6752V42.1432H97.6798C98.8732 42.1432 99.4671 41.7208 99.4671 40.8814C99.4671 40.4645 99.3296 40.1588 99.0547 39.9643C98.7797 39.7753 98.3067 39.6752 97.6468 39.6752H95.7825ZM95.7825 38.6969H97.8063C98.7467 38.6969 99.4451 38.8748 99.8961 39.225C100.347 39.5752 100.578 40.1032 100.578 40.8092C100.578 41.5596 100.336 42.1265 99.8576 42.5156C99.3791 42.8992 98.6697 43.0937 97.7403 43.0937H94.6606V35.6064H95.7825V38.7025V38.6969Z" fill="white"/>
</svg>