<svg xmlns="http://www.w3.org/2000/svg" width="167" height="49" viewBox="0 0 167 49" fill="none">
  <path d="M9.00793 19.3812V16.4558H12.6111V19.3812V19.564V19.9297C12.6111 24.8663 10.4492 29.4373 6.84603 32.7284C4.86428 34.5567 2.52222 36.0194 0 36.9336V33.2769C1.62143 32.5455 3.0627 31.6313 4.32381 30.3515C7.20634 27.7917 9.00793 23.9521 9.00793 19.9297V19.564V19.3812ZM27.0238 19.3812V16.4558H30.627V19.3812V19.564V19.9297C30.627 23.9521 32.4285 27.6089 35.3111 30.3515C36.5722 31.4485 38.0135 32.5455 39.6349 33.2769V36.9336C36.9325 36.0194 34.5904 34.5567 32.7889 32.7284C29.1857 29.4373 27.0238 24.8663 27.0238 19.9297V19.564V19.3812ZM0 43.1501C4.14365 42.0531 7.92698 39.859 10.9897 37.1165C13.3317 34.9224 15.1333 32.5455 16.3944 29.6201C17.2952 31.997 18.3762 34.0082 19.8174 36.0194C21.0786 34.1911 22.1595 31.997 23.2405 29.6201C24.5016 32.3627 26.3032 34.9224 28.6452 37.1165C31.7079 39.859 35.4912 42.0531 39.6349 43.1501V39.4934C36.392 38.3963 33.5095 36.7508 31.1674 34.5567C27.2039 30.9 24.8619 25.7805 24.8619 20.2954V4.93701H21.2587V20.2954C21.2587 23.038 20.7182 26.1462 19.9976 28.7059C19.0968 26.329 18.7365 23.038 18.7365 20.2954V4.93701H15.1333V20.2954C15.1333 25.7805 12.6111 30.9 8.82777 34.5567C6.48571 36.7508 3.60317 38.3963 0.360317 39.4934V43.1501H0ZM16.2143 34.9224C15.3135 36.2023 14.2325 37.2993 12.9714 38.3963C9.36825 41.6874 5.04444 44.0643 0 45.1613V48.6352C5.94523 47.3554 11.35 44.6128 15.6738 40.7732C16.5746 39.859 17.4754 39.1277 18.196 38.0307H18.0159C17.2952 37.1165 16.7547 36.0194 16.2143 34.9224ZM21.619 38.3963C22.3397 39.3105 23.2405 40.0419 23.9611 40.9561C28.1047 44.7956 33.5095 47.721 39.6349 48.8181V45.3442C34.5904 44.2471 30.0865 41.8702 26.6635 38.5792C25.5825 37.4821 24.5016 36.3851 23.6008 35.2881C23.0603 36.3851 22.5198 37.2993 21.7992 38.2135C21.7992 38.2135 21.619 38.2135 21.619 38.3963Z" fill="white"/>
  <path d="M55.8417 18.4666C56.7424 14.0785 57.8234 9.32472 58.1837 4.93662H62.5075V25.2316H59.8051V17.1867L60.1655 9.87323C59.8051 12.2501 58.1837 20.8435 56.202 25.0488H55.8417H55.4813C53.4996 20.8435 51.8782 12.2501 51.5178 9.87323L51.8782 17.1867V25.2316H49.1758V4.93662H53.4996C54.0401 9.32472 55.121 14.0785 55.8417 18.4666ZM120.338 8.41053V9.32472V10.9703C120.338 12.6158 119.618 13.7128 118.537 14.4442C119.618 15.3584 120.338 16.8211 120.338 18.4666V25.0488C118.357 25.0488 116.555 25.0488 114.573 25.0488H111.33V4.75378H114.573C116.555 4.75378 118.357 4.75378 120.338 4.75378V8.41053ZM114.393 16.0897V22.3062H117.096C117.096 21.0263 117.096 19.7465 117.096 18.2838C117.096 16.2726 115.654 16.0897 114.393 16.0897ZM114.393 7.67918V13.1643C115.654 13.1643 117.096 13.1643 117.096 11.1531V9.32472V7.86202H114.393V7.67918ZM102.863 25.2316H99.6202V4.75378H102.863H105.926H109.169V25.0488H105.926H102.863V25.2316ZM105.746 7.67918H102.863V22.3062H105.746V7.67918ZM68.0924 25.2316H64.8496V4.75378H68.0924H71.1551H74.398V25.0488H71.1551H68.0924V25.2316ZM70.975 7.67918H68.0924V22.3062H70.975V7.67918ZM125.563 25.2316H122.32V4.75378H125.563H128.626H131.869V12.9815H128.626V7.67918H125.563V22.3062H128.626V17.0039H131.869V25.2316H128.626H125.563ZM79.6226 25.2316H76.3797V4.75378H79.6226H82.6853H85.9281V12.9815H82.6853V7.67918H79.6226V22.3062H82.6853V17.0039H85.9281V25.2316H82.6853H79.6226ZM137.273 25.2316H134.03V4.93662H137.273V12.9815H137.814C139.615 12.9815 140.156 11.1531 140.156 9.87323V5.11945H143.399V9.6904C143.399 11.8844 142.678 13.3472 141.057 14.4442C142.678 15.5412 143.399 17.1867 143.399 19.198V25.2316H140.156V19.0151C140.156 17.7353 139.435 16.0897 137.814 16.0897H137.273V25.2316ZM165.558 2.37689H158.532V0H165.558V2.37689ZM157.271 25.2316V4.93662H160.153V16.8211L163.396 4.93662H166.999V25.2316H163.937V11.1531L159.973 25.4144L157.271 25.2316ZM145.38 25.2316V4.93662H148.263V16.8211L151.506 4.93662H155.109V25.2316H152.226V11.1531L148.263 25.4144L145.38 25.2316ZM91.3329 25.2316H88.2702V4.93662H91.5131V12.9815H92.0535C93.8551 12.9815 94.3956 11.1531 94.3956 9.87323V5.11945H97.6384V9.6904C97.6384 11.8844 96.9178 13.3472 95.2964 14.4442C96.9178 15.5412 97.6384 17.1867 97.6384 19.198V25.2316H94.3956V19.0151C94.3956 17.7353 93.675 16.0897 92.0535 16.0897H91.5131V25.2316H91.3329Z" fill="white"/>
  <path d="M64.1289 48.8172H60.8861V28.5222H70.2543V48.8172H67.0115V31.4476H63.9488V48.8172H64.1289ZM52.4186 48.8172H49.1758V28.5222H52.4186H55.4813H58.7242V36.7499H55.4813V31.4476H52.4186V46.0746H55.4813V40.7723H58.7242V49H55.4813H52.4186V48.8172ZM75.6591 48.8172H72.4162V28.5222H75.6591H78.7218H81.9646V48.8172H78.7218H75.6591ZM78.7218 31.2648H75.8393V45.8918H78.7218V31.2648ZM94.0353 28.5222H103.944V31.4476H100.701V48.8172H97.2781V31.4476H94.0353V28.5222ZM93.1345 35.47V36.3842V38.0298C93.1345 41.138 91.5131 43.3321 88.4504 43.3321H87.3694V48.8172H84.1266V28.5222C87.1892 28.5222 90.0718 28.5222 93.1345 28.5222V35.47ZM87.3694 31.2648V40.4067C88.6305 40.4067 90.0718 40.2238 90.0718 38.2126V36.3842V31.4476H87.3694V31.2648Z" fill="white"/>
</svg>