<svg width="280" height="87" viewBox="0 0 280 87" fill="none" xmlns="http://www.w3.org/2000/svg">
<g clip-path="url(#clip0_62_2664)">
<g clip-path="url(#clip1_62_2664)">
<g clip-path="url(#clip2_62_2664)">
<path d="M153.554 45.2899H148.245V9.74357H153.554V23.6803H154.431C157.311 23.6803 158.238 20.4907 158.238 18.1082V9.74357H163.547V17.8776C163.547 21.618 162.195 24.4233 159.565 26.255C162.42 28.3173 163.547 30.8921 163.547 34.6324V45.3027H158.238V34.4146C158.238 32.109 157.173 29.3293 154.469 29.3421H153.542V45.3027L153.554 45.2899ZM243.737 45.2899V9.74357H248.471V30.5206L253.931 9.74357H259.853V45.2899H255.071V20.5548L248.546 45.3411L243.737 45.2899ZM263.61 45.2899V9.74357H268.343V30.5206L273.803 9.74357H279.726V45.2899H274.943V20.5548L268.418 45.3411L263.61 45.2899ZM277.51 1.31494V5.47802H265.827V1.31494H277.51ZM230.214 45.2899H224.905V9.74357H230.214V23.6803H231.091C233.971 23.6803 234.898 20.4907 234.898 18.1082V9.74357H240.206V17.8776C240.206 21.618 238.854 24.4233 236.224 26.255C239.08 28.3173 240.206 30.8921 240.206 34.6324V45.3027H234.898V34.4146C234.898 32.109 233.833 29.3293 231.128 29.3421H230.202V45.3027L230.214 45.2899ZM134.02 45.2258H128.71V9.67953H144.476V23.9493H139.067V14.7649H134.02V40.1534H139.067V30.9689H144.476V45.2387H134.02V45.2258ZM210.68 45.2258H205.37V9.67953H221.136V23.9493H215.726V14.7649H210.68V40.1534H215.726V30.9689H221.136V45.2387H210.68V45.2258ZM119.532 14.7521H114.586V40.1405H119.532V14.7521ZM114.486 45.2258H109.176V9.67953H124.941V45.2258H114.486ZM177.684 14.7521H172.738V40.1405H177.684V14.7521ZM172.625 45.2258H167.316V9.67953H183.081V45.2258H172.625ZM192.159 14.7521V24.2824C194.138 24.3977 196.542 24.2824 196.542 20.6445V17.4164V14.7521H192.172H192.159ZM192.159 29.3805V40.1534H196.53C196.53 37.8476 196.53 35.5419 196.53 33.2362C196.53 29.6111 194.138 29.2652 192.147 29.3805H192.159ZM201.852 15.9306V20.2858C201.852 23.1167 200.712 25.179 198.884 26.5112C200.837 28.0868 201.852 30.5462 201.852 33.5821V45.2131C198.621 45.2131 195.391 45.2131 192.159 45.2131H186.851V9.6667H192.159C195.391 9.6667 198.621 9.6667 201.852 9.6667V15.9306ZM94.2251 33.4924C95.6154 25.8835 97.4306 17.4037 98.2698 9.74357H105.407V45.2899H100.774V31.2251L101.325 18.5181C100.661 22.6043 98.0443 37.6683 94.7261 44.8928V44.9184H93.7367V44.8928C90.4185 37.6683 87.8017 22.6043 87.1379 18.5181L87.6889 31.2251V45.2899H83.0557V9.74357H90.193C91.0322 17.4037 92.8474 25.8964 94.2377 33.4924H94.2251Z" fill="#EB3333"/>
<path d="M146.755 55.9608V71.7934C148.733 71.9087 151.138 71.5628 151.138 67.9377V64.7097V55.9608H146.768H146.755ZM156.447 63.2238V67.5791C156.447 73.0487 153.68 76.8659 148.52 76.8659H146.755V86.4221H141.445V50.8755C146.442 50.9011 151.451 50.8755 156.447 50.8755V63.2238ZM157.912 50.8755H174.328V55.9481H168.768V86.4221H163.46V55.9481H157.9V50.8755H157.912ZM132.418 55.9608H127.471V81.3489H132.418V55.9608ZM127.371 86.4346H122.062V50.8882H137.827V86.4346H127.371ZM88.3653 86.4346H83.0557V50.8882H98.8208V65.1581H93.411V55.9736H88.3653V81.3622H93.411V72.1776H98.8208V86.4472H88.3653V86.4346ZM107.874 86.4346H102.565V50.8882H118.33V86.4346H112.92V55.9608H107.874V86.4346Z" fill="#EB3333"/>
<path d="M36.6751 67.9373C37.99 69.5641 39.405 71.1141 40.9076 72.5871C47.9449 79.4274 56.9608 84.3464 67.0159 86.4341V80.2853C58.6512 78.3001 51.1631 74.0986 45.2527 68.3472C43.3118 66.4642 41.5462 64.4019 39.9684 62.2114L36.6626 67.9373H36.6751Z" fill="#EB3333"/>
<path d="M14.8495 61.5325C21.436 55.1277 25.5307 46.2892 25.5307 36.5796V9.67969H31.6915V36.5796C31.6915 41.3063 32.4679 46.8528 33.8829 51.1569C35.2978 46.8657 36.0742 41.3191 36.0742 36.5796V9.67969H42.2351V36.5796C42.2351 46.3021 46.3298 55.1277 52.9163 61.5325C56.8482 65.3497 61.6692 68.3087 67.0286 70.0765V76.3531C59.9537 74.406 53.6175 70.7041 48.5587 65.7724C44.7519 62.0705 41.659 57.664 39.5053 52.7965C37.9025 57.0236 36.1243 61.0201 33.9079 64.0688V64.0944L33.8829 64.0688C31.6665 61.0201 29.8884 57.0236 28.2856 52.7965C26.1317 57.6769 23.0388 62.0705 19.2322 65.7724C14.1608 70.7041 7.82462 74.406 0.762207 76.3531V70.0765C6.13414 68.3087 10.9551 65.3497 14.8745 61.5325H14.8495Z" fill="#EB3333"/>
<path d="M52.0768 36.0164C52.0768 43.1 55.0571 49.5304 59.853 54.2059C61.9317 56.2298 64.3484 57.9206 67.0156 59.1887V65.7087C62.6579 64.0947 58.7386 61.5969 55.4953 58.4458C49.585 52.6943 45.916 44.7524 45.916 36.0164V29.9575H52.0768V36.0164Z" fill="#EB3333"/>
<path d="M15.6751 29.9575H21.8359V36.0164C21.8359 44.7524 18.167 52.6815 12.2565 58.4458C9.01342 61.5969 5.09398 64.0947 0.736328 65.7087V59.1887C3.40351 57.9206 5.82026 56.2298 7.89891 54.2059C12.6948 49.5304 15.6751 43.1 15.6751 36.0164V29.9575Z" fill="#EB3333"/>
<path d="M27.7716 62.2114C26.1939 64.4019 24.4282 66.4642 22.4873 68.3472C16.577 74.0986 9.08882 78.3001 0.724121 80.2853V86.4341C10.7918 84.3464 19.8076 79.4274 26.8325 72.5871C28.3352 71.1268 29.7501 69.5769 31.0649 67.9373L27.7591 62.2114H27.7716Z" fill="#EB3333"/>
</g>
</g>
</g>
<defs>
<clipPath id="clip0_62_2664">
<rect width="279.452" height="86.1057" fill="white" transform="translate(0.273926 0.832031)"/>
</clipPath>
<clipPath id="clip1_62_2664">
<rect width="279.452" height="86.1057" fill="white" transform="translate(0.273926 0.832031)"/>
</clipPath>
<clipPath id="clip2_62_2664">
<rect width="279.452" height="86.1057" fill="white" transform="translate(0.273926 0.832031)"/>
</clipPath>
</defs>
</svg>
