<svg xmlns="http://www.w3.org/2000/svg" width="44" height="91" viewBox="0 0 44 91" fill="none">
  <g clip-path="url(#clip0_192_3415)">
    <path d="M-0.000244141 75.1122V75.2614V75.8134H42.6862V75.2614V75.1122H-0.000244141Z" fill="white"/>
    <path d="M-0.000244141 76.5071V76.6563V77.2008H42.6862V76.6563V76.5071H-0.000244141Z" fill="white"/>
    <path d="M-0.000244141 77.8945V78.0437V78.5957H42.6862V78.0437V77.8945H-0.000244141Z" fill="white"/>
    <path d="M42.5061 14.8882C42.6788 14.7987 42.8289 14.7166 42.8889 14.6868C43.1216 14.5675 43.3243 14.4705 43.4293 14.4108C43.7671 14.2243 43.8647 14.1796 43.9097 14.0453C43.9473 13.9334 43.8872 13.8215 43.7596 13.7619C43.5494 13.6649 42.8814 14.0528 42.8814 14.0304C42.8664 13.9036 42.7913 13.8066 42.6337 13.8066C42.4386 13.8066 42.1984 13.8738 41.8456 13.9931C41.5228 14.105 41.2001 14.202 41.1325 14.2169C41.3127 14.0006 41.3652 13.926 41.3652 13.926C41.3652 13.926 41.5378 13.732 41.4478 13.6052C41.4253 13.5754 41.3652 13.553 41.2901 13.5754C41.14 13.6276 40.8548 13.8663 40.3819 14.3064C40.3219 14.3586 40.2994 14.4034 40.2093 14.4705C40.0291 14.5152 39.6989 14.5451 39.5262 14.5003C39.3911 14.463 39.3011 14.4108 39.2335 14.3661C39.241 14.3511 39.4287 13.9409 39.7139 13.732C39.894 13.5978 40.4044 13.1652 40.4495 13.1204C40.6221 12.9414 40.5996 12.7997 40.5846 12.7027C40.5696 12.5908 40.502 12.4789 40.4119 12.4193C40.1042 12.2104 39.5788 12.6206 39.5187 12.6729C39.3986 12.7698 38.8507 13.2323 38.6706 13.3889C38.5505 13.4934 38.1902 13.65 37.95 13.747L37.8074 13.8066C37.5071 13.9334 37.1393 14.1274 36.8616 14.3586C36.674 14.5152 36.4488 14.9329 36.3737 15.0896C36.2161 15.2164 35.488 15.8131 34.6098 16.3352C33.9418 16.738 33.2362 17.1706 32.6208 17.5436C32.1629 17.827 31.7576 18.0732 31.4723 18.2447C31.4198 18.2746 30.1213 18.9534 29.0554 19.7962C28.7327 20.0573 28.4174 20.3109 28.1097 20.557C27.8545 20.7584 27.6218 20.9524 27.3966 21.1314C26.7661 21.6461 25.34 22.5486 25.1823 22.6605C24.9722 22.7947 24.7545 22.929 24.4993 23.0782C23.8238 23.481 22.4051 24.2194 22.0073 24.4134C21.8497 24.4879 21.572 24.6446 21.2642 24.8385C21.2567 24.8385 21.2417 24.8534 21.2342 24.8534H21.2267C21.1441 24.7714 21.0691 24.652 21.054 24.5849C20.994 24.212 21.5194 24.1597 22.0824 24.0255C22.4577 23.936 22.7579 23.7495 22.7579 23.5183C22.7579 23.3094 22.6303 23.3393 22.5928 23.1826C22.5027 22.8246 22.9681 22.7947 23.0356 22.6232C23.0581 22.5635 23.0506 22.4516 22.9005 22.3994C22.7504 22.3472 22.6828 22.3621 22.4727 22.4143C22.3676 22.4442 22.285 22.2502 22.4126 22.1085C22.5402 21.9743 22.6003 21.9295 22.5552 21.7803C22.4952 21.5715 22.3676 21.5416 22.2925 21.5864C22.2175 21.6386 22.1499 21.7729 21.9923 21.7505C21.8347 21.7281 21.7671 21.6311 21.3693 21.6311C21.1366 21.6311 20.949 21.8325 20.7163 21.6386C20.5812 21.5193 20.3935 21.1463 19.9732 21.027C19.6579 20.9375 19.5003 20.7659 19.5003 20.7659C19.5003 20.7659 19.8906 20.6391 20.0107 20.5197C20.2359 20.2885 20.2209 20.2288 20.2584 20.0722C20.2734 20.0051 20.341 19.4979 20.0558 19.5426C19.9882 19.5501 19.7405 19.7888 19.5829 19.7962C19.4253 19.8037 19.4027 19.7589 19.4253 19.6694C19.4778 19.4829 19.4253 19.3711 19.2901 19.2741C19.11 19.1398 18.6146 19.2666 18.1868 19.3039C17.7664 19.3487 17.4437 19.3039 17.0459 19.5575C16.7081 19.7738 16.4079 20.1915 16.4079 20.1915C16.4079 20.1915 16.1076 20.2139 15.92 20.4824C15.8299 20.6167 15.8224 20.7361 15.8224 20.7361C15.8224 20.7361 15.5372 20.751 15.4096 20.9897C15.3345 21.1239 15.342 21.1388 15.342 21.1388C15.342 21.1388 14.8016 21.288 14.6139 21.6162C14.4113 21.9743 14.2687 22.3323 14.4488 22.6829C14.5989 22.9738 14.674 23.0185 14.674 23.0185C14.674 23.0185 14.5539 23.302 14.6214 23.5929C14.704 23.9211 14.8466 24.0255 14.8691 24.0553C14.8466 24.1299 14.719 24.5402 14.8691 25.025C15.1168 25.7634 15.4921 25.7634 15.4921 25.7634C15.4921 25.7634 15.5522 26.6511 15.5897 27.1881C15.6272 27.7252 15.6422 28.1056 15.6422 28.1056C15.6347 28.1056 14.674 28.5904 14.674 28.5904C14.674 28.5904 14.5464 28.307 14.4488 28.1578C14.081 27.5685 13.5706 27.0688 13.3529 26.7779C13.1352 26.487 12.85 26.1289 12.6699 25.9947C12.6323 25.9499 12.5573 25.8828 12.4297 25.8007C12.1144 25.5919 11.9118 25.1369 11.9118 25.1369L14.0285 25.0175L14.3437 24.115L13.9759 23.8092L12.0844 23.205C12.4072 21.0792 15.5822 0.887613 15.5822 0.887613L15.2594 -0.0298462L15.2519 -0.0149282L14.5839 0.872695L10.3655 23.205L8.02368 23.8987L8.07622 24.8087L8.39898 25.0399H8.40649L9.23965 25.0772C9.16459 25.1145 9.05951 25.1891 9.04449 25.3234C9.02948 25.4576 9.02198 25.7038 9.11205 25.7709C9.20212 25.838 9.23965 25.8306 9.23965 25.8306C9.23965 25.8306 9.11955 26.0021 9.18711 26.1886C9.25466 26.3751 9.34473 26.4422 9.34473 26.4422C9.34473 26.4422 9.23965 26.5541 9.3072 26.748C9.36725 26.942 9.44982 26.9867 9.44982 26.9867C9.44982 26.9867 9.35224 27.2627 9.47233 27.4044C9.59243 27.5461 9.8026 27.6133 9.8026 27.6133L9.75006 28.1279L9.47233 28.1876L9.40478 28.9261L9.73504 29.0678L11.0486 29.1647L11.1161 28.389C11.1161 28.389 10.996 28.307 10.9735 28.2697C10.951 28.2249 10.951 28.1503 10.9585 28.0757C11.0186 28.0608 11.1312 28.0384 11.2287 28.0235C11.3038 28.0161 11.3413 28.0235 11.3638 28.1056C11.4239 28.3293 11.4539 28.8664 11.4989 29.2692C11.559 29.7764 11.6716 30.2463 11.8067 30.7088C11.8067 30.7386 12.0394 31.3353 12.3696 31.6188C12.2796 31.7381 12.152 31.9171 12.0544 32.0887C11.5665 32.9465 11.8067 33.6774 12.0169 34.1325C12.0844 34.2965 12.167 34.4606 12.2495 34.6247C12.0919 35.2215 11.8142 36.4298 11.7316 36.855C11.544 37.765 11.604 38.7347 11.7016 39.4806C11.7241 39.764 11.7692 40.0549 11.8442 40.3085C11.8893 40.5174 11.9268 40.6665 11.9418 40.7188C11.9493 40.9873 12.0469 43.7173 12.4297 45.4702C13.1202 48.685 14.5088 51.4374 15.98 54.3613C17.7439 57.8521 19.5679 61.4697 20.3785 66.2435C20.994 69.8313 19.733 75.0079 19.718 75.0601L19.6654 75.2838H20.0407C20.0407 75.2838 20.0182 75.2838 20.0032 75.2913C20.0032 75.2913 26.3383 75.3286 32.2455 75.3584L41.6654 75.4106C41.6654 75.4106 41.6805 75.4106 41.688 75.4106C41.9507 75.4106 42.1308 75.4106 42.2059 75.4106C42.2059 75.4106 40.3669 70.801 40.9674 69.3763C41.2076 68.8094 43.4669 68.8393 43.0315 68.0411C42.5512 67.1684 38.2202 61.8651 36.5689 58.7397C36.5239 58.6502 32.5157 50.6467 29.4983 47.1335C28.4249 45.8804 25.7978 42.0465 24.9797 40.4577C24.6044 39.8759 24.9196 39.7789 25.1673 39.682C25.4 39.5999 26.5709 38.9808 26.676 38.7123C26.7811 38.4438 26.4583 37.8918 26.4283 37.6158C26.3608 36.9743 27.1564 36.7207 27.5842 37.0937C28.1772 37.6158 29.0254 38.4587 30.2414 38.8167C31.2847 39.1225 33.8893 39.4358 35.6081 39.033C36.4263 38.8391 37.2369 38.3393 37.4246 38.1752C37.8449 37.8097 37.9275 37.4368 37.6498 37.1161C37.5822 37.034 36.5914 37.6009 36.1711 37.2652C35.4805 36.7133 36.1335 36.1613 36.2011 36.124C36.6665 35.8331 37.312 35.8555 38.1301 35.4602C39.0083 35.035 39.3986 34.5203 39.5112 34.3562C39.864 33.8415 39.849 33.6849 39.9541 33.6029C40.1042 33.4835 40.5846 33.7073 40.6972 33.3493C40.7647 33.1404 40.7422 32.8047 40.4795 32.4915C40.2618 32.2229 40.0592 32.2304 39.9541 31.932C39.7739 31.4174 40.3294 30.8878 40.5471 30.6416C40.7422 30.4179 40.7797 30.1792 40.6897 30.0375C40.6897 30.0375 40.6446 29.7689 39.1059 29.1349C38.3103 28.8067 36.764 28.1279 35.0377 27.7102C33.4539 27.3298 31.72 27.1806 30.5641 27.1956C28.7176 27.2254 27.6293 27.5834 27.6293 27.5834L27.1639 26.6063C27.1639 26.6063 28.9428 24.8161 29.2506 24.3313C29.5583 23.8465 29.6334 23.6824 29.6334 23.6824C29.6334 23.6824 30.8418 22.7649 31.3297 22.5188C31.8176 22.2652 33.2287 21.5118 33.8442 20.8479C34.4597 20.1841 35.6306 18.9086 36.066 18.476C36.5013 18.0434 36.9892 17.6331 37.1469 17.5287C37.312 17.4243 37.5897 17.0961 37.7548 17.0065C38.1602 16.7753 38.9108 16.7007 39.4737 16.3949C40.0367 16.0891 40.6071 15.9548 40.8023 15.9101C41.2826 15.7833 42.5512 15.4178 43.1741 15.2089C43.7371 15.015 43.9698 15.097 43.9848 14.8733C44.0148 14.4108 42.6788 14.836 42.4911 14.8733M32.8835 59.0232C33.5815 60.0898 34.4372 61.5593 35.3454 63.1853C35.6682 63.7597 36.5088 65.1918 36.9817 66.1242C37.1694 66.4897 38.0025 66.5046 38.1076 66.4897C39.6914 66.2734 40.2168 66.2211 41.4403 66.8253C41.4403 66.8253 40.8398 66.7433 40.4945 66.7656C39.6614 66.8253 39.4737 66.7731 38.2427 67.3176C38.0701 67.3922 37.7248 67.5488 37.3795 67.7055C36.8541 67.9442 36.2386 67.7726 36.066 67.1311C35.8183 66.1913 35.3754 64.7592 34.7224 63.3718C33.6941 61.1863 33.8142 61.3206 33.3638 60.2912C33.2888 60.1197 32.7709 58.874 32.876 59.0306M30.4515 62.417C30.9619 63.3494 31.2021 63.6254 32.0578 65.4976C32.5157 66.512 33.1161 67.5041 33.5815 68.0934C33.7241 68.2798 33.8517 68.4215 33.9493 68.5409L34.3997 69.0034L33.3413 69.2868C33.3413 69.2868 33.2663 69.3092 33.2287 69.3241C32.4631 69.5777 32.4856 70.0402 32.5082 70.4802C32.5232 70.9054 32.6508 71.4947 31.5549 73.2699C31.9527 66.4524 30.3915 63.3718 29.5433 60.97C29.5433 60.97 30.1138 61.7905 30.459 62.417M8.28639 24.749C8.27888 24.6222 8.25637 24.2045 8.24886 24.0479C8.33143 24.0106 10.5532 23.3915 10.5532 23.3915L14.7115 0.902531L15.1393 0.350564L14.9592 0.798105L10.8835 23.8838L11.8968 23.3542L13.9759 24.0255L13.7057 24.8311L10.6958 24.6297L8.28639 24.749ZM9.32222 26.1513C9.23965 25.8306 9.62996 25.7336 9.73504 25.7261C9.8026 25.7261 9.90018 25.7261 9.96022 25.8082C9.98274 25.8455 10.0053 25.9126 9.96022 25.9797C9.91519 26.0543 9.83262 26.032 9.75006 26.0618C9.58492 26.1215 9.47233 26.2259 9.41229 26.2856C9.36725 26.2483 9.32972 26.1737 9.32222 26.1438M9.44231 26.7555C9.34473 26.4198 9.75006 26.2856 9.83262 26.2781C9.90018 26.2781 10.0053 26.2483 10.0578 26.3452C10.0803 26.39 10.1254 26.5616 9.92269 26.6585C9.72003 26.748 9.65998 26.7704 9.59243 26.8524C9.57742 26.8748 9.54739 26.9121 9.54739 26.927C9.50986 26.8972 9.47984 26.8599 9.44982 26.748M9.62996 27.4268C9.62996 27.4268 9.54739 27.3224 9.53989 27.2478C9.51737 27.0315 9.62245 26.9718 9.62245 26.9718C9.62245 26.9718 9.75006 26.8301 10.0428 26.845C10.2379 26.8525 10.2605 26.942 10.2605 27.024C10.2605 27.1359 10.1479 27.2478 10.0053 27.2702C9.87015 27.2925 9.62996 27.3671 9.62245 27.4343M10.7408 28.9559L9.63747 28.8589L9.675 28.3443L9.91519 28.2995L9.96773 27.6506C10.0428 27.6207 10.1629 27.576 10.2229 27.5611C10.5682 27.4641 10.7559 27.6431 10.7559 27.6431L10.7183 28.2473L10.7934 28.292C10.7934 28.292 10.7709 28.9037 10.7483 28.9559M25.1598 46.686C25.1598 46.686 25.1598 46.6934 25.1673 46.7009C25.2274 46.8277 25.2949 46.947 25.37 47.0738C26.4433 48.9311 27.269 50.7138 27.892 52.3847C27.1414 51.1315 26.2182 49.9829 25.0998 49.1027C21.2342 46.037 19.6654 44.9629 18.3594 43.1728C17.6013 42.136 17.3011 41.1738 17.3011 41.1738C17.2485 42.0166 17.5187 43.0833 18.2393 44.4035C19.3352 46.41 21.3468 47.5139 23.3284 49.9456C25.1673 52.2131 25.2574 52.4742 26.2632 54.2121C26.6235 54.8312 26.8487 55.7636 27.2465 55.7636C27.4717 55.7636 27.3441 53.7497 27.5167 53.7944C27.6143 53.8168 27.6818 53.9585 27.7194 54.0331C27.9295 54.4657 28.0271 54.9655 28.1322 55.4354C28.2823 56.1365 28.4024 56.8452 28.5075 57.5538C28.6201 58.2997 28.7101 59.053 28.7852 59.8064C28.7927 59.8959 28.8002 59.9854 28.8077 60.0749C28.8077 60.1495 28.8077 60.2688 28.8302 60.336C27.922 58.3892 26.9537 56.599 26.4433 55.7561C25.445 54.1077 23.4635 51.8178 23.1032 51.3926C21.7671 49.8038 19.5754 48.2151 18.1567 46.8725C17.1359 45.9102 18.502 47.8496 19.1475 48.5433C20.0633 49.5204 22.1649 51.4747 23.9664 54.227C24.4768 55.0102 24.4467 55.2937 23.7262 54.4806C22.4652 53.056 19.1175 50.7064 20.0482 51.7283C20.0482 51.7283 20.6337 52.2131 21.1141 52.78C25.34 57.7701 25.5726 63.5583 25.5726 65.4827C25.5952 68.6229 25.0998 72.9193 22.908 74.3142C21.7521 75.0526 20.1308 74.9407 20.1308 74.9407C20.3635 73.9039 21.2942 69.436 20.7463 66.1988C19.9206 61.3728 18.0892 57.7328 16.3178 54.2196C14.8541 51.318 13.473 48.588 12.7975 45.4179C12.5498 44.2693 12.4222 42.6879 12.3621 41.681C12.3471 40.853 12.3396 39.8013 12.6173 38.9211C12.6999 38.6601 12.9251 38.1156 13.1803 37.668C13.4355 37.2205 13.7582 36.937 13.9384 36.758C14.1335 36.5641 14.9817 35.9002 16.4904 35.766C18.0366 35.6243 18.9224 36.1464 19.3877 36.3105C19.8381 36.4671 21.6921 37.4219 23.2983 40.4726C23.6811 41.1961 23.8613 42.2852 24.124 43.4861C21.2867 40.3756 18.7722 38.4214 18.6747 38.5706C18.5696 38.7347 21.587 41.8525 21.8197 42.1434C21.9548 42.315 23.8538 44.2469 25.1598 46.6785M18.9148 33.9982C19.5904 34.222 19.7255 34.5278 19.7255 34.5278C19.7255 34.5278 16.543 34.0952 15.6573 34.6024C15.6573 34.6024 16.8882 34.856 17.879 35.5124C17.804 35.5049 17.2185 35.3035 16.2127 35.4378C15.2444 35.572 14.5989 35.8928 14.2311 36.1315C13.9459 36.3105 14.1861 35.3259 17.0008 32.4243C18.2243 31.1563 19.1025 31.1861 19.1025 31.1861C19.1025 31.1861 18.4945 32.1558 18.3444 32.8047C18.2168 33.3716 18.3219 33.7968 18.9148 33.9982ZM22.1499 35.0723C22.1274 34.8038 22.1049 34.4308 22.0899 34.2965C22.0298 33.7968 22.4502 32.9092 22.5778 32.8122C22.6453 32.9688 22.7804 34.4457 22.7729 34.6695C22.6979 37.1981 23.7862 38.9286 23.7862 38.9286C22.6228 37.3473 21.8647 36.8923 21.8422 36.8252C21.9097 36.7133 22.1124 36.3254 22.1499 35.9897C22.1874 35.6317 22.1724 35.3408 22.1499 35.0723ZM33.559 27.8147C33.4314 27.7177 33.2362 27.6431 33.0036 27.5685C34.0469 27.6879 35.0076 27.8669 35.7883 28.0683C36.5464 28.2622 38.1527 28.8664 39.7364 29.6272C39.834 29.6794 40.0892 29.8062 40.2618 29.9032C39.879 29.9479 39.4287 30.2165 39.4287 30.2165C39.4287 30.2165 36.9142 28.8664 34.7149 28.6277C32.8985 28.4338 30.5566 28.5904 30.5566 28.5904C30.5566 28.5904 31.645 28.1056 33.574 27.8221M27.3065 30.2836C27.892 30.2463 28.53 30.2015 28.9578 30.1941C30.5866 30.1568 30.9694 30.5447 30.9694 30.5447C30.9694 30.5447 27.4867 30.4477 25.8128 31.6038C25.6177 31.7381 26.5784 31.5516 27.3065 31.4323C29.0104 31.1638 31.037 31.5442 32.6433 32.1633C34.3696 32.8271 35.4505 32.2453 37.8524 32.402C39.9841 32.5437 39.909 33.491 39.909 33.491C39.909 33.491 39.0008 32.8197 37.6723 33.6103C36.8616 34.0877 35.9984 34.8261 35.9984 34.8261C35.9984 34.8261 35.6382 34.5203 33.2437 34.0802C31.72 33.8043 25.2274 33.2597 20.8739 29.396C20.7838 29.3139 20.7013 29.2393 20.6262 29.1722C19.5303 29.5825 18.3369 30.6565 17.2861 31.5516C16.3478 32.3572 15.5447 33.4164 14.5989 34.2593C14.5989 34.2593 13.1352 35.5198 12.7074 36.303C12.6098 36.482 12.227 37.2503 11.9943 38.1603C11.9943 37.7575 12.0244 37.3398 12.1069 36.937C12.197 36.497 12.2871 36.1091 12.3621 35.7809C12.4597 35.3706 12.5723 34.9156 12.6774 34.5427C12.9326 34.0429 13.5631 32.7749 13.458 32.76C13.2328 32.7302 12.8725 32.7078 12.5423 32.7973C12.3922 32.8346 12.2721 32.8868 12.1745 32.9315C12.2045 32.7302 12.2646 32.5138 12.3997 32.2826C12.5498 32.0215 12.9251 31.5143 12.9251 31.5143C12.9251 31.5143 12.3696 31.1861 12.182 30.5596C12.0094 30.0002 11.9343 29.2766 11.8742 28.747C11.8217 28.2995 11.7992 28.0832 11.7466 27.9788C11.6566 27.7997 11.529 27.6356 11.2588 27.6804C11.2287 27.6804 11.2062 27.6879 11.1762 27.6953C11.2062 27.658 11.2287 27.6207 11.2287 27.5909C11.2287 27.3746 10.981 27.2329 10.9585 27.121C10.9285 26.9942 10.9435 26.7331 10.9735 26.5988C11.0936 26.1289 10.5607 26.2557 10.328 25.8529C10.1103 25.4725 10.1554 25.0996 9.76507 25.3084C9.61495 25.3905 9.35224 25.5322 9.23965 25.6068C9.13457 25.3159 9.24716 25.2189 9.47233 25.0399C9.51737 25.0101 9.57742 24.9728 9.60744 24.9579C9.91519 24.7863 10.3731 24.7266 10.5682 24.7639C10.8684 24.8236 11.0561 25.204 11.0486 25.3979C11.0411 25.5993 11.0486 25.8529 11.1537 26.0618C11.2512 26.2781 11.2588 26.5019 11.2813 26.6212C11.3038 26.7406 11.4089 26.7853 11.4089 26.7853C11.6866 26.39 11.8818 26.2035 12.227 26.1289C12.4147 26.1438 12.5723 26.0991 12.9626 26.666C13.0377 26.7779 13.4205 27.3 13.6907 27.7475C13.9609 28.1951 14.3362 29.1125 14.3362 29.1125L15.995 28.3293C15.995 28.3293 15.8074 26.8002 15.7999 26.4422C15.7849 25.5024 15.6723 25.0697 15.6723 25.0697C15.6723 25.0697 15.4621 25.122 15.357 25.0623C15.312 25.0324 15.1994 24.9952 15.1544 24.7639C15.0343 24.197 15.312 23.9285 15.312 23.9285C15.1468 23.7868 15.0643 23.481 15.1168 23.0931C15.1544 22.8171 14.9592 23.0111 14.8466 23.2497C14.8091 23.1975 14.8091 23.0931 14.8541 22.9738C15.0643 22.4516 15.372 21.9892 15.5522 21.4521C15.5522 21.4521 15.4396 21.482 15.342 21.5193C15.2369 21.564 15.1093 21.6983 14.9817 21.8773C14.8992 22.0041 14.689 22.1458 14.5764 22.3174C14.5764 22.3025 14.5764 21.9295 14.9667 21.5342C15.1544 21.3477 15.5597 21.2358 15.5597 21.2358C15.5597 21.2358 15.5747 21.0419 15.7323 20.9673C15.8524 20.9151 16.0175 20.8703 16.0175 20.8703C16.0175 20.8703 16.0326 20.6242 16.1752 20.5123C16.3178 20.4079 16.4003 20.378 16.5204 20.3556C16.8282 20.02 17.1885 19.5352 17.6764 19.4904C18.0442 19.4606 18.4195 19.4084 18.5846 19.3785C18.6296 19.3711 18.9749 19.3188 19.0199 19.4158C18.7272 19.4158 18.3594 19.4307 18.0141 19.5501C17.7289 19.647 17.7214 19.7589 17.6388 19.8335C17.5638 19.9081 17.3911 19.9976 17.3161 20.0275C17.241 20.0573 17.1509 20.102 17.1059 20.1766C17.0684 20.2438 17.0834 20.2811 16.9858 20.3333C16.8882 20.3855 16.7606 20.6093 16.7606 20.6093C16.7606 20.6093 17.271 20.4675 17.5488 20.475C17.9241 20.4825 18.1492 20.6913 18.1342 20.9971C18.1342 21.1612 17.9241 21.4223 17.4587 21.3626C17.4587 21.3626 17.3986 21.564 17.4437 21.7057C17.4887 21.8325 17.5788 22.1458 17.6238 22.3099C17.6313 22.3397 17.6388 22.3696 17.6538 22.4069C17.6538 22.4218 17.6538 22.4218 17.6538 22.4218C17.6689 22.474 17.6839 22.5188 17.6989 22.5635C17.7289 22.6605 17.5112 22.4069 17.3161 22.6083L17.1209 22.75C17.0233 22.832 16.8582 22.9663 16.8957 23.026C16.9258 23.0931 16.9708 23.1229 17.0609 23.1379C17.1434 23.1453 17.6088 23.1453 17.7439 23.1379C17.7739 23.1379 17.8115 23.1379 17.8415 23.1379C17.8415 23.1379 17.8565 23.2199 17.879 23.3318C17.7139 23.2423 17.3986 23.2348 17.3911 23.2423C17.3011 23.2423 17.226 23.2721 17.1434 23.3169C17.0008 23.3915 16.8357 23.6152 16.7907 23.839C16.7006 24.2642 16.7907 24.4059 17.2785 24.3835C17.5037 24.391 17.6163 24.3835 17.7965 24.3835C17.8115 24.3835 17.8265 24.3835 17.8415 24.3835C17.7289 24.5402 17.5938 24.6147 17.5938 24.6147C17.5938 24.6147 17.4887 24.6147 17.4362 24.6147C17.1284 24.6371 17.0008 24.5849 16.9858 24.6446C16.8282 25.122 17.3311 24.6893 17.4212 24.8907C17.4587 24.9802 17.3986 25.1742 17.3236 25.2935C17.256 25.3905 16.8732 25.2711 16.7681 25.3383C16.5355 25.4875 16.6555 25.5471 17.0233 25.7634C17.2861 25.9126 18.0216 26.2035 18.1793 26.3079C18.3369 26.4198 19.14 26.8301 19.2151 26.8077C19.4628 26.7406 20.1533 26.0767 20.1758 26.0618C20.6262 25.6143 21.8272 24.8833 22.1874 24.7043C22.4877 24.5625 23.3659 24.1075 24.079 23.7122C23.9363 23.9807 23.7787 24.4283 23.7187 25.2115C23.6661 25.9201 23.6286 26.5392 23.4109 26.293C22.8705 25.6814 22.9005 24.9728 22.8029 25.1518C22.5327 25.6292 22.4952 25.8828 22.5627 26.2632C22.6828 26.9569 23.1933 27.1657 22.9606 27.1732C22.0899 27.1806 21.8197 26.9942 21.3243 26.4795C21.009 26.1513 20.4311 26.3005 20.4311 26.3005C20.4311 26.3005 20.9189 26.7331 21.5645 27.2851C22.3901 27.9862 23.8087 28.1727 24.7545 28.3293C26.3383 28.5904 26.8111 29.1573 26.8111 29.1573C26.8111 29.1573 22.7579 28.8888 22.4201 28.6128L22.7129 29.0006C21.054 28.9559 19.5453 26.9942 19.5453 26.9942C19.5453 26.9942 19.733 27.7028 20.0332 28.0906C20.4611 28.6352 21.009 29.0006 21.677 29.3811C23.0431 30.1643 25.8203 30.3433 27.3215 30.2463M39.226 15.1716C38.8882 15.2164 38.7156 15.291 38.528 15.3879C38.0175 15.649 37.6197 15.8952 37.4921 15.9101C36.8391 15.9996 36.8466 16.2606 36.3137 16.738C36.096 16.932 32.9885 19.3263 31.9978 19.9678C31.007 20.6167 29.1605 22.1011 28.9653 22.2279C28.545 22.4964 28.1697 23.2497 27.5767 23.8838C26.676 24.8609 25.5877 25.7784 25.4976 25.8753C25.3024 26.0767 24.5518 26.0693 24.4092 25.107C24.3041 24.4283 24.3417 23.8688 24.3792 23.5854C24.4993 23.5183 24.6119 23.4511 24.7095 23.3915C25.4075 22.9738 25.8579 22.6829 26.5484 22.2279C27.0438 21.8997 27.6518 21.4074 28.3574 20.8405C28.6576 20.5943 28.9728 20.3407 29.2956 20.0871C30.3389 19.2592 31.6375 18.5729 31.66 18.5655C31.9527 18.3865 32.358 18.1403 32.8234 17.8569C33.4389 17.4765 34.1445 17.0438 34.805 16.6485C35.8183 16.0369 36.6139 15.373 36.644 15.3432L36.689 15.2761C36.8016 15.0299 36.9892 14.739 37.0718 14.657C37.2594 14.463 37.7098 14.2467 37.9575 14.1348L38.0926 14.0752C38.3853 13.9558 38.7381 13.7992 38.9108 13.6574C39.0834 13.5083 39.6313 13.0458 39.7514 12.9488C39.909 12.822 40.1417 12.6878 40.2093 12.7102C40.2093 12.7102 40.3069 12.7624 40.1943 12.8743C40.1943 12.8743 39.6764 13.3143 39.5112 13.4411C39.4287 13.5008 39.3611 13.5679 39.2936 13.6425C39.226 13.7022 39.166 13.7619 39.1209 13.8141C38.8282 14.1796 38.6405 14.2616 38.6706 14.284C38.9333 14.463 39.2785 14.6495 39.2785 14.6495C39.5338 14.8136 39.819 14.7838 40.0141 14.7166C39.7814 14.9628 39.4362 15.1418 39.2335 15.1716M40.7722 14.7465C40.8623 14.6495 40.8848 14.5749 40.9749 14.4705C40.9749 14.4705 41.5303 14.2915 41.8156 14.1945C42.5361 13.9633 42.5962 13.9633 42.6262 14.0379C42.6637 14.1274 42.4761 14.1945 42.3785 14.2318C42.1383 14.3213 40.9224 14.6868 40.7722 14.739M18.8398 27.8221C18.0366 29.5601 16.6405 28.665 15.3795 29.7167C14.5614 30.3955 14.4413 31.2607 14.4413 31.2607C14.4413 31.2607 14.7941 31.1712 15.1018 31.1041C14.9517 31.2384 13.8333 33.4015 13.8033 33.4611C13.7733 33.5134 15.3645 31.753 18.3369 29.8361C19.4027 29.1498 20.2284 28.8515 20.2284 28.8515C19.6129 28.2398 19.3577 27.2478 19.3577 27.2478C19.3577 27.2478 19.0199 27.4492 18.8473 27.8296M16.3103 22.3099C16.2953 22.5188 16.3928 22.4815 16.5955 22.5188C16.5805 22.5411 16.5655 22.5561 16.5505 22.5784C16.4754 22.5784 16.3928 22.5784 16.3178 22.5934C16.2502 22.6083 16.1677 22.6232 16.1076 22.7127C16.2953 22.6829 16.4229 22.7276 16.4154 22.8619C16.8657 22.571 17.0834 22.3323 16.9708 21.84C17.1059 21.6535 17.1885 21.5118 17.2035 21.2806C17.0609 21.4148 17.0233 21.5118 16.8207 21.4894C15.9725 21.3029 15.7098 21.8624 15.7098 21.8624C16.0551 21.7356 16.3328 21.5789 16.633 21.8027C16.4379 21.8176 16.0476 21.8847 15.8374 22.1309C15.5597 22.4516 15.6648 22.8619 15.6723 23.1304C15.6723 23.1752 15.8224 22.9439 15.965 22.9066C15.935 22.8097 15.9425 22.7724 15.98 22.6605C16.0326 22.4889 16.1827 22.3621 16.3253 22.3174M15.935 22.5337C15.92 22.5859 15.905 22.6232 15.905 22.6232C15.905 22.6232 15.8749 22.3845 15.995 22.2428C16.1151 22.1085 16.3478 22.0265 16.4229 22.0115C16.4979 21.9966 16.5054 22.019 16.5054 22.019C16.4979 22.0414 16.4904 22.0638 16.4829 22.0936C16.4829 22.0936 16.2202 22.1906 16.1151 22.295C16.01 22.3994 15.9425 22.474 15.9275 22.5262" fill="white"/>
    <path d="M0.0222168 89.2471H2.22897V81.5569H3.50499V89.2471H5.71174V79.707H0.0222168V89.2471Z" fill="white"/>
    <path d="M11.5064 80.2366C11.2512 80.0129 10.9509 79.8413 10.6057 79.7294C10.2604 79.6175 9.87759 79.5579 9.47227 79.5579C9.06694 79.5579 8.68414 79.6175 8.33886 79.7294C7.99359 79.8413 7.69335 80.0129 7.43815 80.2366C7.18295 80.4604 6.98779 80.7513 6.84518 81.1019C6.70256 81.4525 6.63501 81.8552 6.63501 82.3177V86.6588C6.63501 87.5166 6.89021 88.1879 7.39311 88.6802C7.90352 89.1725 8.59407 89.4187 9.47977 89.4187C10.3655 89.4187 11.0635 89.1725 11.5664 88.6802C12.0693 88.1879 12.3245 87.5166 12.3245 86.6588V82.3177C12.3245 81.8552 12.257 81.4525 12.1144 81.1019C11.9718 80.7513 11.7766 80.4679 11.5214 80.2366M10.1103 86.8304C10.1103 86.8901 10.1103 86.9721 10.0953 87.0765C10.0878 87.181 10.0652 87.2779 10.0202 87.3674C9.98267 87.457 9.91512 87.539 9.83255 87.6061C9.74999 87.6733 9.62239 87.7031 9.46476 87.7031C9.30713 87.7031 9.17953 87.6733 9.08946 87.6061C8.99939 87.539 8.93934 87.457 8.89431 87.3674C8.85678 87.2779 8.83426 87.1735 8.82675 87.0765C8.82675 86.9721 8.82675 86.8901 8.82675 86.8304V82.1238C8.82675 82.0417 8.82675 81.9522 8.82675 81.8552C8.82675 81.7508 8.85678 81.6613 8.89431 81.5718C8.93184 81.4823 8.99939 81.4077 9.08946 81.348C9.17953 81.2883 9.29963 81.2585 9.46476 81.2585C9.62989 81.2585 9.74999 81.2883 9.83255 81.348C9.91512 81.4077 9.98267 81.4823 10.0202 81.5718C10.0577 81.6613 10.0878 81.7583 10.0953 81.8552C10.1028 81.9597 10.1103 82.0492 10.1103 82.1238V86.8304Z" fill="white"/>
    <path d="M15.8452 83.4738H15.4323V81.5494H18.3822V79.707H13.2256V89.2471H16.3631C16.851 89.2471 17.2638 89.1651 17.5941 89.0084C17.9243 88.8518 18.187 88.6355 18.3822 88.3744C18.5773 88.1059 18.72 87.8001 18.795 87.442C18.8776 87.084 18.9151 86.7036 18.9151 86.3083C18.9151 85.4132 18.6524 84.7195 18.112 84.2272C17.579 83.7349 16.8209 83.4813 15.8452 83.4813M16.6858 86.9348C16.6708 87.0989 16.6333 87.2332 16.5808 87.3301C16.5282 87.4346 16.4456 87.5092 16.3406 87.5539C16.2355 87.6061 16.0854 87.6285 15.8977 87.6285H15.4323V85.0253H15.9427C16.1079 85.0253 16.2505 85.0626 16.3481 85.1372C16.4532 85.2118 16.5282 85.3088 16.5808 85.4281C16.6333 85.5474 16.6708 85.6817 16.6858 85.8383C16.7008 85.995 16.7159 86.1516 16.7159 86.3232C16.7159 86.5619 16.7084 86.7633 16.6858 86.9274" fill="white"/>
    <path d="M22.0073 85.2789H24.3792V83.4365H22.0073V81.5569H24.7169V79.707H19.8005V89.2471H24.822V87.4047H22.0073V85.2789Z" fill="white"/>
    <path d="M32.0882 79.707H26.7814C26.7664 80.3411 26.7514 81.0273 26.7439 81.7508C26.7364 82.4743 26.7064 83.1904 26.6689 83.8916C26.6313 84.5927 26.5638 85.2566 26.4662 85.8682C26.3761 86.4798 26.241 86.9945 26.0609 87.3973H25.5129V90.9925H27.3669V89.2397H30.8422V90.9925H32.6886V87.3973H32.0732V79.6996L32.0882 79.707ZM29.8889 87.4048H28.2226C28.3277 87.084 28.4177 86.6887 28.4853 86.2113C28.5529 85.7339 28.6054 85.2193 28.6504 84.6747C28.6955 84.1302 28.733 83.5634 28.7555 82.9816C28.7855 82.3997 28.8081 81.8552 28.8231 81.3331H29.8889V87.4122V87.4048Z" fill="white"/>
    <path d="M35.0002 79.707L33.2288 89.2471H35.443L35.6682 87.5465H37.2144L37.4171 89.2471H39.7364L37.935 79.707H35.0002ZM35.8934 85.8533L36.4563 81.1988H36.4864L37.0043 85.8533H35.8934Z" fill="white"/>
    <path d="M40.6824 79.707V83.4365L41.1327 86.4873H42.2136L42.6715 83.4365V79.707H40.6824Z" fill="white"/>
    <path d="M42.6715 87.0467H40.6824V89.2471H42.6715V87.0467Z" fill="white"/>
    <path d="M-6.23888e-05 68.9885C-6.23888e-05 68.6454 0.0149496 68.2874 0.0374675 67.8995C0.0599854 67.5116 0.142551 67.1312 0.277659 66.7583C0.412766 66.3853 0.630439 66.0347 0.923172 65.714C1.22341 65.3933 1.64375 65.1247 2.17667 64.9084C1.77885 64.7443 1.44859 64.5504 1.19339 64.3192C0.938184 64.0879 0.720511 63.8343 0.555379 63.5509C0.390248 63.2749 0.277659 62.9989 0.217611 62.7155C0.157563 62.4395 0.120033 62.1859 0.120033 61.9472V60.6344C0.120033 60.2913 0.150057 59.8512 0.202599 59.3067C0.255141 58.7622 0.44279 58.2251 0.773053 57.7105C1.09581 57.1883 1.61372 56.7408 2.32679 56.3679C3.03986 55.9949 4.04566 55.801 5.34419 55.801C6.64272 55.801 7.64852 55.9874 8.35408 56.3679C9.05964 56.7483 9.58506 57.1883 9.90782 57.7105C10.2306 58.2326 10.4182 58.7622 10.4783 59.3067C10.5308 59.8512 10.5608 60.2988 10.5608 60.6344V61.9472C10.5608 62.1784 10.5233 62.432 10.4558 62.7155C10.3807 62.9915 10.2681 63.2674 10.103 63.536C9.93784 63.8045 9.72017 64.0581 9.44245 64.2968C9.16473 64.5429 8.82696 64.7369 8.42914 64.901C8.96957 65.0949 9.38991 65.3261 9.68264 65.5872C9.98288 65.8483 10.2081 66.1541 10.3582 66.4972C10.5083 66.8478 10.6059 67.2282 10.6434 67.6384C10.6809 68.0487 10.6959 68.4962 10.6959 68.9811V70.5922C10.6959 72.0765 10.2381 73.2551 9.32986 74.1203C8.42164 74.993 7.09308 75.4256 5.34419 75.4256C3.5953 75.4256 2.26674 74.993 1.35852 74.1203C0.450296 73.2551 -0.00756836 72.0765 -0.00756836 70.5922V68.9811L-6.23888e-05 68.9885ZM4.32338 62.0889C4.32338 62.611 4.42095 62.9467 4.62362 63.0959C4.81877 63.2525 5.06647 63.3271 5.3517 63.3271C5.62191 63.3271 5.8621 63.2525 6.06476 63.0959C6.27493 62.9467 6.37251 62.611 6.37251 62.0889V60.3137C6.37251 59.7915 6.26742 59.4559 6.06476 59.3067C5.8621 59.1575 5.62191 59.0755 5.3517 59.0755C5.06647 59.0755 4.81877 59.1501 4.62362 59.3067C4.42846 59.4559 4.32338 59.7915 4.32338 60.3137V62.0889ZM4.32338 70.9204C4.32338 71.4425 4.42095 71.7782 4.62362 71.9348C4.81877 72.084 5.06647 72.166 5.3517 72.166C5.62191 72.166 5.8621 72.0915 6.06476 71.9348C6.27493 71.7856 6.37251 71.4425 6.37251 70.9204V67.8473C6.37251 67.3251 6.26742 66.9895 6.06476 66.8329C5.85459 66.6762 5.62191 66.6016 5.3517 66.6016C5.06647 66.6016 4.81877 66.6762 4.62362 66.8329C4.42846 66.982 4.32338 67.3251 4.32338 67.8473V70.9204Z" fill="white"/>
    <path d="M12.1069 60.6418C12.1069 59.1575 12.5648 57.9789 13.473 57.1062C14.3812 56.241 15.7098 55.8083 17.4587 55.8083C19.2076 55.8083 20.5361 56.241 21.4444 57.1062C22.3526 57.9789 22.8104 59.15 22.8104 60.6418V70.607C22.8104 72.0914 22.3526 73.2699 21.4444 74.1352C20.5361 75.0004 19.2076 75.4405 17.4587 75.4405C15.7098 75.4405 14.3812 75.0079 13.473 74.1352C12.5648 73.2699 12.1069 72.0914 12.1069 70.607V60.6418ZM16.4304 70.9203C16.4304 71.4424 16.528 71.7781 16.7306 71.9273C16.9258 72.0839 17.1735 72.1585 17.4587 72.1585C17.7289 72.1585 17.9691 72.0839 18.1718 71.9273C18.3819 71.7781 18.4795 71.435 18.4795 70.9203V60.3211C18.4795 59.7989 18.3744 59.4633 18.1718 59.3141C17.9616 59.1574 17.7289 59.0829 17.4587 59.0829C17.1735 59.0829 16.9258 59.1574 16.7306 59.3141C16.528 59.4633 16.4304 59.7989 16.4304 60.3211V70.9203Z" fill="white"/>
  </g>
  <defs>
    <clipPath id="clip0_192_3415">
      <rect width="44" height="91" fill="white"/>
    </clipPath>
  </defs>
</svg>