<svg xmlns="http://www.w3.org/2000/svg" width="101" height="51" viewBox="0 0 101 51" fill="none">
  <g clip-path="url(#clip0_367_7105)">
    <path d="M51.6299 7.2418H55.6517V14.4851H57.0959V5.93604H50.1885V14.4851H51.6327V7.2418H51.6299Z" fill="white"/>
    <path d="M69.4665 14.628C71.8735 14.628 73.4716 12.7927 73.4716 10.2148C73.4716 7.63686 71.8735 5.80151 69.4665 5.80151C67.0595 5.80151 65.4614 7.63686 65.4614 10.2148C65.4614 12.7927 67.0595 14.628 69.4665 14.628ZM69.4665 7.12128C71.0506 7.12128 71.9966 8.41023 71.9966 10.2148C71.9966 12.0193 71.0338 13.3082 69.4665 13.3082C67.8992 13.3082 66.9504 12.0193 66.9504 10.2148C66.9336 8.41303 67.8824 7.12128 69.4665 7.12128Z" fill="white"/>
    <path d="M54.7013 36.8119L51.9697 30.1907H50.1841V38.7398H51.5667V32.5528L54.1136 38.7089H55.2779L57.808 32.5528V38.7398H59.1738V30.1907H57.419L54.7013 36.8119Z" fill="white"/>
    <path d="M82.9593 10.5538L86.3906 14.4851H88.207L84.4035 10.0242L88.1287 5.93604H86.3738L82.9593 9.63476V5.93604H81.5151V14.4851H82.9593V10.5538Z" fill="white"/>
    <path d="M80.2303 13.1794H76.1161V10.7388H79.998V9.48064H76.1161V7.2418H80.2303V5.93604H74.6719V14.4851H80.2303V13.1794Z" fill="white"/>
    <path d="M70.4928 23.6563H72.1861C73.9857 23.6563 75.0885 22.3981 75.0885 20.8598C75.0885 19.3215 74.0333 18.0634 72.1385 18.0634H69.0347V26.6124H70.4788V23.6591H70.4956L70.4928 23.6563ZM70.4928 19.3355H72.0154C73.0705 19.3355 73.6443 19.9575 73.6443 20.8598C73.6443 21.7621 73.0537 22.3981 72.0154 22.3981H70.4928V19.3355Z" fill="white"/>
    <path d="M95.1842 5.93604H88.3691V7.2418H91.056V14.4851H92.5002V7.2418H95.187V5.93604H95.1842Z" fill="white"/>
    <path d="M90.0874 34.2677C90.6303 34.0351 91.2041 33.4271 91.2041 32.4183C91.2041 31.1742 90.3029 30.1963 88.5648 30.1963H85.2734V38.7454H88.674C90.4288 38.7454 91.5315 37.7338 91.5315 36.3216C91.5315 35.0635 90.7087 34.4414 90.0874 34.2705V34.2677ZM86.7176 31.4236H88.3633C89.2337 31.4236 89.7459 31.8579 89.7459 32.5892C89.7459 33.2421 89.3261 33.7549 88.4277 33.7549H86.7204V31.4236H86.7176ZM88.5172 37.4845H86.7176V34.9346H88.5816C89.4968 34.9346 90.0734 35.4165 90.0734 36.2095C90.0566 37.0333 89.438 37.4845 88.52 37.4845H88.5172Z" fill="white"/>
    <path d="M84.4482 30.1907H82.6934L79.262 33.8894V30.1907H77.8179V38.7398H79.262V34.8085L82.6934 38.7398H84.5266L80.7062 34.2789L84.4482 30.1907Z" fill="white"/>
    <path d="M100.999 30.1907H99.5552V38.7398H100.999V30.1907Z" fill="white"/>
    <path d="M54.7013 24.6818L51.9697 18.0605H50.1841V26.6096H51.5667V20.4227L54.1136 26.5788H55.2779L57.808 20.4227V26.6096H59.1738V18.0605H57.419L54.7013 24.6818Z" fill="white"/>
    <path d="M81.2043 26.6096H82.7268L79.5446 18.0605H78.0388L74.8706 26.6096H76.3931L77.1068 24.5894H80.4766L81.2071 26.6096H81.2043ZM77.5406 23.3312L78.7833 19.7866L80.026 23.3312H77.5434H77.5406Z" fill="white"/>
    <path d="M95.749 33.2196H94.1034V30.1877H92.6592V38.7368H95.7798C97.5655 38.7368 98.6822 37.5095 98.6822 35.9712C98.6822 34.4329 97.6102 33.2196 95.749 33.2196ZM95.6091 37.4619H94.1034V34.4945H95.6091C96.6335 34.4945 97.224 35.0689 97.224 35.9712C97.224 36.8735 96.6195 37.4647 95.6091 37.4647V37.4619Z" fill="white"/>
    <path d="M64.7501 8.7353C64.7501 7.18016 63.6949 5.93884 61.8001 5.93884H58.6963V14.4879H60.1405V11.5346H61.8337C63.6501 11.5346 64.7529 10.2764 64.7529 8.7381L64.7501 8.7353ZM60.1405 10.2736V7.21098H61.663C62.7182 7.21098 63.2919 7.83304 63.2919 8.7353C63.2919 9.63756 62.7014 10.2736 61.663 10.2736H60.1405Z" fill="white"/>
    <path d="M73.0904 37.5545C71.5987 37.5545 70.6527 36.2655 70.6527 34.461C70.6527 32.6564 71.6155 31.3675 73.0904 31.3675C74.3331 31.3675 74.9992 32.1129 75.2315 32.9843H76.6757C76.4266 31.3843 75.2175 30.0477 73.0904 30.0477C70.7758 30.0477 69.1777 31.8663 69.1777 34.461C69.1777 37.0557 70.8234 38.8742 73.0904 38.8742C75.3575 38.8742 76.5526 37.2434 76.7065 35.9209H75.2483C75.1252 36.6522 74.4255 37.5517 73.0904 37.5517V37.5545Z" fill="white"/>
    <path d="M63.9391 25.4413C62.5873 25.4413 61.952 24.5558 61.7645 23.9338H60.3203C60.5078 25.1302 61.563 26.747 63.9224 26.747C66.1586 26.747 67.8491 25.0994 67.8491 22.3338C67.8491 19.5681 66.2202 17.9205 63.9364 17.9205C61.8401 17.9205 60.6142 19.2739 60.3511 20.7338H61.7785C62.0276 19.9576 62.6937 19.2263 63.9364 19.2263C65.179 19.2263 66.1418 20.0809 66.3433 21.6361H62.9596V22.8802H66.3601C66.2202 24.4802 65.2882 25.4441 63.9391 25.4441V25.4413Z" fill="white"/>
    <path d="M64.3767 30.0477C61.9697 30.0477 60.3716 31.8831 60.3716 34.461C60.3716 37.0389 61.9697 38.8742 64.3767 38.8742C66.7836 38.8742 68.3817 37.0389 68.3817 34.461C68.3817 31.8831 66.7836 30.0477 64.3767 30.0477ZM64.3767 37.5545C62.7925 37.5545 61.8605 36.2655 61.8605 34.461C61.8605 32.6564 62.8065 31.3675 64.3767 31.3675C65.9468 31.3675 66.9068 32.6564 66.9068 34.461C66.9068 36.2655 65.9608 37.5545 64.3767 37.5545Z" fill="white"/>
    <path d="M3.18337 33.5026L4.2693 33.144C4.051 32.5079 4.36166 31.9615 4.78148 31.7765C4.93542 31.6981 5.10614 31.6364 5.29366 31.5748C6.27044 31.2161 7.59147 30.7342 8.24359 28.1871C8.58504 26.8197 9.12801 26.1808 9.70176 25.9034C9.3771 27.0999 9.51424 28.2347 9.64018 29.1987C9.71855 29.8347 9.79412 30.4428 9.71855 30.9079C9.5954 31.6224 9.06643 32.2445 8.13443 32.8189L7.93292 32.9422L7.87135 33.1748C7.87135 33.1748 6.95614 36.4532 6.47475 38.1484L6.42717 38.3194L6.47475 38.4903C6.52233 38.692 6.5839 38.8798 6.62868 39.0647C6.87778 39.967 7.07929 40.6815 7.07929 41.9088H8.32195C8.32195 40.5106 8.08965 39.6868 7.82657 38.7369C7.79578 38.6136 7.7482 38.4735 7.71741 38.3474C7.93572 37.602 8.2128 36.5905 8.46189 35.691C8.83413 35.5986 9.17559 35.5033 9.48625 35.4276C11.1319 35.0241 11.9548 34.8056 13.5837 33.9201C14.8711 33.2056 15.8339 31.9783 16.2369 31.3871C17.3089 31.4795 20.3512 31.6813 22.4782 31.2778C24.4654 30.9051 25.6465 30.4232 26.2034 30.1429L28.2829 32.987L28.129 33.0963L27.3985 33.6567L27.8015 34.1555C27.8183 34.1723 28.7643 35.338 29.2457 35.974C29.3381 36.1141 29.8055 36.8147 29.1366 37.5124C28.532 38.1484 27.2726 38.2745 26.5589 37.7618C26.279 37.56 26.1083 37.2966 26.0607 36.9688C26.0131 36.6577 26.0915 36.3159 26.2622 36.0833C26.8975 35.2427 27.0375 34.2816 26.6512 33.4886C26.3266 32.8357 25.6885 32.4462 24.9272 32.4462C24.4766 32.4462 23.9336 32.4462 23.2983 32.4631C21.7002 32.4799 19.6962 32.5107 17.6951 32.4462L16.5784 32.4154L17.1381 33.3793C17.1381 33.3961 17.5272 34.0322 17.8994 34.7776C16.9058 34.5282 15.4617 34.3881 13.7068 34.8252C11.812 35.3071 9.8417 36.8763 9.67097 39.2861C9.59261 40.2976 9.88928 41.2139 10.463 41.8808C10.9752 42.472 11.6749 42.7971 12.481 42.8587H12.6685C13.5697 42.8587 14.3925 42.4692 14.9047 41.7855C15.4029 41.1326 15.54 40.3256 15.2937 39.5635C15.2014 39.3001 15.0922 39.0815 14.9523 38.8798C15.7891 38.7565 16.3041 39.0815 16.4748 39.4094C16.8639 40.1407 16.1166 40.8861 16.0858 40.9169L15.7276 41.2587L17.3425 43.9627H22.1228V42.7186H20.4939C20.3708 42.5953 20.1832 42.3936 20.0433 42.0965C19.9341 41.878 19.6235 41.1494 20.1049 40.7908C20.4295 40.5414 20.7402 40.5414 21.4567 40.8216C21.9073 40.9925 22.2963 41.1943 22.7133 41.4128C23.7685 41.9564 24.8544 42.5309 26.8584 42.5785L27.4181 43.9627H32.4028V42.7186H30.3065L30.1665 42.175C31.1769 41.8163 32.0613 41.2587 32.7134 40.5274C33.7686 39.3449 34.25 37.7618 34.11 35.9572C34.2807 35.7695 34.5746 35.4753 34.8237 35.2259L35.445 34.6206L33.9869 33.8893C32.7442 33.2841 32.1397 32.7236 31.6107 30.8883L31.2692 29.5993L30.0882 30.0197C29.3885 30.269 28.9071 30.8911 28.8007 31.5888L27.4349 29.7226C28.49 29.7058 29.5312 29.3023 30.0126 29.0221C32.0473 27.8256 33.1025 27.2204 33.6286 26.9094C34.4515 27.9041 35.8649 29.7535 36.1447 30.6081C36.2679 30.9976 36.2987 32.4434 36.2679 33.3597L37.5106 33.3905C37.5273 32.987 37.5581 30.9668 37.323 30.2186C36.8584 28.8204 34.513 26.0211 34.2332 25.7101L33.9533 25.3682L33.9225 25.2898C33.0381 25.7409 32.0893 25.8642 31.3924 25.8642C31.7506 25.3822 32.0445 24.7602 32.1984 23.9672L35.2099 22.3364C35.9236 23.1434 37.1187 24.5893 37.3986 25.3374C37.5525 25.7577 37.6477 27.2961 37.6785 28.26L38.9211 28.2291C38.9044 27.8088 38.8428 25.6793 38.5797 24.9199C38.1151 23.645 36.0496 21.3921 35.8173 21.1287L35.4926 20.77L32.2796 22.5101C32.0613 20.9242 31.0062 19.6184 30.2001 18.6097C30.0126 18.3771 29.8419 18.1585 29.7019 17.9736C29.4388 17.6009 29.1282 17.0713 28.8483 16.5754C29.2205 16.623 29.6404 16.6062 30.1217 16.4829C30.4324 16.5445 31.3168 16.8556 32.0165 17.1498L32.3888 17.3039L33.0409 16.6818C33.8469 15.9057 33.8637 14.5999 33.0885 13.7901L30.6983 11.3495V10.4332L30.3568 10.2623C30.2029 10.1839 28.8819 9.54779 28.1066 9.4217C27.0207 9.20314 25.1567 9.17231 23.6509 10.7583L22.1144 10.324C22.2068 9.78036 22.2543 9.50015 22.2851 9.17512L22.3159 8.91172C22.579 7.12401 21.5239 5.87989 20.7318 5.27465C20.9641 4.70022 21.0565 3.8596 20.3903 3.19271C19.8306 2.6323 19.1477 2.50901 18.1401 2.78922C17.5496 2.94333 17.0374 3.34963 16.4944 3.75313C16.2761 3.92405 16.0438 4.09498 15.8115 4.24909C14.5689 5.10372 13.5305 4.29673 13.0183 3.75313L12.1171 4.62457C12.8924 5.46519 13.8104 5.89951 14.7088 5.89951C15.3301 5.89951 15.9347 5.69776 16.5252 5.30827C16.7883 5.12053 17.0374 4.9356 17.2557 4.76467C17.7203 4.40601 18.1093 4.11179 18.4676 4.01932C19.2121 3.81757 19.3996 3.9885 19.5227 4.11179C19.8642 4.45364 19.5227 4.99724 19.4751 5.04488C18.809 5.30827 17.085 6.03961 16.8527 8.09072C16.7911 8.55586 16.7603 9.10226 16.7295 9.50576C15.9375 9.48895 14.5717 9.61504 13.329 10.4388L8.6802 4.08097L7.66984 4.8123L9.85849 7.81331C9.62619 8.13835 8.95728 9.21154 9.3631 10.0662C9.62619 10.6266 10.435 12.305 10.7905 13.0504C10.0768 13.9218 8.10365 16.4857 7.0653 19.4223L6.74064 20.3385L7.70342 20.2461C9.1476 20.106 9.81371 20.4338 10.5274 20.7757C10.8213 20.9158 11.1179 21.0559 11.4734 21.1651C12.7776 21.5854 13.7096 21.4285 14.5157 21.2884C14.6248 21.4902 14.748 21.6919 14.8739 21.8797C14.6108 21.8797 14.331 21.9105 14.0511 21.9721L13.9587 21.9889C13.3374 22.1122 12.7329 22.2523 12.1115 22.611C11.6469 22.129 10.7597 21.493 9.3631 21.493C7.18844 21.493 5.62112 22.8604 5.03057 25.2702C4.5016 27.4474 3.97543 28.0666 3.54162 28.5654C3.3401 28.798 3.1218 29.0473 2.96786 29.406C2.31575 30.821 2.48647 31.9559 3.04623 33.525L3.18617 33.5082L3.18337 33.5026ZM28.9994 42.6878H28.2382L28.1766 42.5309C28.4397 42.514 28.6888 42.4832 28.9379 42.4384L28.9994 42.6878ZM29.6823 33.4718L29.7439 33.3009C29.7747 33.2224 30.0546 32.4939 30.007 31.8858C29.9902 31.6056 30.1469 31.3254 30.396 31.2021C31.0481 33.4102 31.9018 34.2031 33.3292 34.9177C33.1752 35.0886 33.0353 35.2427 32.9569 35.338L32.817 35.5397L32.8478 35.7723C33.0185 37.3414 32.6463 38.678 31.7758 39.6419C31.2637 40.2024 30.5947 40.6535 29.8055 40.9309L28.7028 41.2111C28.3781 41.2587 28.0366 41.2895 27.6924 41.3036V41.2867H27.1018C25.2379 41.2867 24.2919 40.7908 23.2843 40.2612C22.8645 40.0426 22.4139 39.8101 21.9185 39.6083C21.3755 39.3898 20.3652 39.0031 19.3884 39.7316C18.5487 40.3368 18.378 41.4577 18.9546 42.5925C18.9714 42.6093 18.9714 42.6401 18.9854 42.6542H18.0701L17.3089 41.3652C17.7735 40.7431 18.1485 39.7484 17.6027 38.7537C17.1214 37.8682 16.0186 37.4003 14.8096 37.588C13.273 37.8206 12.6825 38.6304 12.4642 39.3449C12.4334 39.4066 12.4166 39.485 12.4026 39.5635V39.6559C12.4026 40.0594 12.7273 40.4013 13.1471 40.4013C13.5669 40.4013 13.8916 40.0763 13.8916 39.6559C13.8916 39.5775 13.8748 39.5018 13.8608 39.4234C13.9699 39.485 14.0931 39.6251 14.1854 39.8885C14.3086 40.2472 14.233 40.6339 13.9839 40.9617C13.6732 41.3652 13.1611 41.5838 12.6181 41.5361C12.1535 41.5053 11.7477 41.3176 11.4538 40.9757C11.0956 40.5722 10.9248 39.9642 10.9724 39.2805C11.1123 37.2294 12.9903 36.2038 14.0623 35.9376C16.9198 35.2231 18.7363 36.2795 18.8118 36.3103L20.3176 37.2266L19.713 35.5649C19.4947 34.9597 19.1085 34.2115 18.7978 33.6063C20.4743 33.6371 22.1032 33.6063 23.3627 33.5895C23.998 33.5727 24.5438 33.5727 24.9776 33.5727C25.2574 33.5727 25.4729 33.696 25.5821 33.9313C25.722 34.2115 25.722 34.6935 25.319 35.2203C24.9468 35.7191 24.79 36.4028 24.8852 37.0388C24.9776 37.6917 25.3358 38.2521 25.8788 38.6388C27.1046 39.5243 29.0302 39.3393 30.0714 38.2353C31.0481 37.1929 30.8774 35.9208 30.2729 35.097C29.979 34.7075 29.5284 34.1499 29.2009 33.7436L29.6823 33.4634V33.4718ZM17.2025 10.7779L17.9022 10.9012L17.933 10.1867C17.933 10.1698 17.9806 9.06864 18.0869 8.22802C18.2409 6.92226 19.3128 6.4403 19.8866 6.20773C20.3204 6.53277 21.2832 7.3902 21.0984 8.7408L21.0677 9.00419C21.0061 9.40769 20.9585 9.74954 20.8046 10.6518L20.6954 11.2122L22.8701 11.8343C21.7981 13.7313 21.8149 16.0934 21.9241 17.755C22.0332 19.3858 22.5286 20.8793 22.5594 20.941L23.7405 20.5515C23.7405 20.5347 23.2759 19.1364 23.1667 17.6766C23.0576 16.0598 23.0436 13.7145 24.1771 12.0809C25.2798 10.5257 26.7856 10.4192 27.8407 10.6042C28.2298 10.6658 28.9435 10.9628 29.4081 11.1786V11.8147L32.1397 14.6279C32.2796 14.782 32.372 14.9866 32.358 15.1883C32.358 15.4069 32.2656 15.6086 32.1257 15.7488L32.0641 15.8104C31.4288 15.561 30.48 15.2052 30.0462 15.1883H29.9538L29.8615 15.2192C28.6664 15.5442 28.031 14.9558 28.0143 14.9249L27.4097 14.2889L27.0207 15.0819C26.8807 15.3621 26.8667 15.5022 27.5497 16.8219C27.7372 17.1806 28.2158 18.0801 28.6524 18.6881C28.8063 18.9067 28.9938 19.1392 29.1953 19.3718C30.1273 20.5207 31.2748 21.9525 30.995 23.5833C30.8242 24.6089 30.3596 25.2141 29.7383 25.8054L29.0554 26.4414L29.909 26.8309C30.1105 26.9234 30.452 27.0018 30.8718 27.0495C30.452 27.2989 29.9566 27.5791 29.3829 27.9209C28.963 28.1535 27.1158 28.9156 26.2314 28.061L14.0679 11.4308C15.4953 10.5145 17.1885 10.7779 17.2025 10.7779ZM14.2526 23.2275L14.345 23.2106C15.3693 22.9921 16.3797 23.3648 16.3797 23.3648C16.8919 23.7234 17.4824 24.0008 18.0869 24.1577L18.4116 22.9613C17.0934 22.6026 15.9739 21.6079 15.4925 20.3806L15.3049 19.9294L14.8235 20.0079C14.6836 20.0247 14.5297 20.0555 14.3897 20.0863C13.6285 20.2096 12.9148 20.3357 11.8736 20.0079C11.5937 19.9154 11.3446 19.8061 11.0816 19.6828C10.4462 19.3886 9.74654 19.0468 8.58224 19.016C9.85569 16.0626 11.9828 13.622 11.9968 13.5912L12.2599 13.2801L12.0891 12.9075C12.0891 12.9075 10.8465 10.2819 10.491 9.55059C10.4434 9.47213 10.5218 9.20874 10.6617 8.91452L25.4254 29.0894C24.8964 29.3219 23.872 29.7114 22.2264 30.0225C19.867 30.4736 16.0018 30.0841 15.9711 30.0841L15.582 30.0365L15.3805 30.3783C15.3637 30.3951 14.3869 32.0259 12.9735 32.7881C11.4846 33.5951 10.7681 33.7828 9.16999 34.1863C9.06083 34.2171 8.95168 34.248 8.82854 34.2648C8.89011 34.0462 8.93769 33.8613 8.98247 33.7212C10.0852 32.9758 10.7373 32.1044 10.922 31.1097C11.0452 30.4568 10.9528 29.7563 10.8605 29.0277C10.6897 27.6435 10.5022 26.2145 11.6217 24.7546C12.5369 23.5889 13.2198 23.4488 14.2442 23.2303L14.2526 23.2275ZM4.5184 29.3976C4.99979 28.8372 5.6659 28.061 6.25645 25.5896C6.56711 24.3006 7.37316 22.7623 9.3771 22.7623C10.2783 22.7623 10.8353 23.121 11.1459 23.4152C10.9752 23.5861 10.8045 23.7879 10.6338 24.0064C10.5106 24.1605 10.4015 24.3175 10.3091 24.4716C9.03565 24.5809 7.65584 25.3262 7.01772 27.8761C6.53632 29.8039 5.71348 30.0981 4.84306 30.4091C4.64154 30.4876 4.42324 30.5633 4.22172 30.6585C4.08178 30.7202 3.94184 30.8126 3.8187 30.9079C3.86628 30.5969 3.94184 30.3027 4.09858 29.9608C4.22172 29.7423 4.34767 29.6021 4.5184 29.4004V29.3976Z" fill="white"/>
    <path d="M0 39.0284C0 44.0328 2.98071 47.017 7.97936 47.017H13.8484C16.3645 47.017 18.7687 48.0902 20.4452 49.9844L20.9098 50.4972L21.3744 49.9844C23.0508 48.1042 25.4578 47.017 27.9711 47.017H33.8402C38.9788 47.017 41.8195 44.1729 41.8195 39.0284V0.5H0V39.0284ZM1.24266 1.74412H40.5797V39.0284C40.5797 43.4416 38.2511 45.7729 33.843 45.7729H27.9739C25.3347 45.7729 22.7878 46.8153 20.9098 48.6646C19.0318 46.8153 16.4849 45.7729 13.8456 45.7729H7.97936C3.69441 45.7729 1.24266 43.3183 1.24266 39.0284V1.74412Z" fill="white"/>
  </g>
  <defs>
    <clipPath id="clip0_367_7105">
      <rect width="101" height="50" fill="white" transform="translate(-0.000488281 0.5)"/>
    </clipPath>
  </defs>
</svg>