<svg xmlns="http://www.w3.org/2000/svg" width="123" height="13" viewBox="0 0 123 13" fill="none">
  <path d="M118.131 12.276C116.648 12.276 115.48 11.8546 114.627 11.012C113.784 10.1693 113.363 8.94796 113.363 7.34796V0.899963H115.331V7.26796C115.331 8.29196 115.582 9.0813 116.083 9.63596C116.584 10.1906 117.278 10.468 118.163 10.468C119.048 10.468 119.736 10.2013 120.227 9.66796C120.728 9.13463 120.979 8.3613 120.979 7.34796V0.899963H122.947V7.25196C122.947 8.88396 122.52 10.132 121.667 10.996C120.814 11.8493 119.635 12.276 118.131 12.276Z" fill="white"/>
  <path d="M101.977 12.1V0.899963L106.969 0.899963C108.27 0.899963 109.289 1.2253 110.025 1.87596C110.761 2.51596 111.129 3.37996 111.129 4.46796C111.129 5.3533 110.889 6.08396 110.409 6.65996C109.929 7.2253 109.278 7.6253 108.457 7.85996L111.481 12.1H109.161L106.377 8.19596H103.945V12.1H101.977ZM103.945 6.45196H106.825C107.529 6.45196 108.089 6.2813 108.505 5.93996C108.921 5.59863 109.129 5.13463 109.129 4.54796C109.129 3.95063 108.926 3.49196 108.521 3.17196C108.115 2.85196 107.545 2.69196 106.809 2.69196H103.945V6.45196Z" fill="white"/>
  <path d="M97.3276 12.1V9.90796H99.4556V12.1H97.3276Z" fill="white"/>
  <path d="M91.3654 12.26C89.584 12.26 88.0267 11.6627 86.6934 10.468L87.8774 9.05999C88.9974 10.0307 90.176 10.516 91.4134 10.516C92.0214 10.516 92.5014 10.388 92.8534 10.132C93.216 9.86532 93.3974 9.51332 93.3974 9.07599C93.3974 8.65999 93.2267 8.32932 92.8854 8.08399C92.544 7.82799 91.872 7.58266 90.8694 7.34799C89.568 7.03866 88.6187 6.64932 88.0214 6.17999C87.4347 5.69999 87.1414 4.96932 87.1414 3.98799C87.1414 3.02799 87.4987 2.24932 88.2134 1.65199C88.928 1.04399 89.8454 0.73999 90.9654 0.73999C92.5014 0.73999 93.856 1.20932 95.0294 2.14799L93.9734 3.63599C92.9387 2.86799 91.9254 2.48399 90.9334 2.48399C90.368 2.48399 89.92 2.61199 89.5894 2.86799C89.2694 3.12399 89.1094 3.44932 89.1094 3.84399C89.1094 4.28132 89.2854 4.62266 89.6374 4.86799C90 5.10266 90.7094 5.34799 91.7654 5.60399C93.0027 5.90266 93.9094 6.30266 94.4854 6.80399C95.072 7.30532 95.3654 8.00932 95.3654 8.91599C95.3654 9.95066 94.9974 10.7667 94.2614 11.364C93.5254 11.9613 92.56 12.26 91.3654 12.26Z" fill="white"/>
  <path d="M83.4037 10.5959C82.2944 11.7266 80.8917 12.2919 79.1957 12.2919C77.4997 12.2919 76.1024 11.7319 75.0037 10.6119C73.905 9.49195 73.3557 8.12128 73.3557 6.49995C73.3557 4.89995 73.9104 3.53461 75.0197 2.40395C76.129 1.27328 77.5317 0.707947 79.2277 0.707947C80.9237 0.707947 82.321 1.26795 83.4197 2.38795C84.5184 3.50795 85.0677 4.87861 85.0677 6.49995C85.0677 8.09995 84.5131 9.46528 83.4037 10.5959ZM76.4917 9.33195C77.217 10.0999 78.129 10.4839 79.2277 10.4839C80.3264 10.4839 81.2277 10.0999 81.9317 9.33195C82.6464 8.56395 83.0037 7.61995 83.0037 6.49995C83.0037 5.39061 82.641 4.45195 81.9157 3.68395C81.201 2.90528 80.2944 2.51595 79.1957 2.51595C78.097 2.51595 77.1904 2.89995 76.4757 3.66795C75.7717 4.43595 75.4197 5.37995 75.4197 6.49995C75.4197 7.60928 75.777 8.55328 76.4917 9.33195Z" fill="white"/>
  <path d="M59.9609 12.1V0.899963L62.0569 0.899963L65.4649 6.19596L68.8729 0.899963L70.9689 0.899963V12.1H69.0009V4.06796L65.4649 9.34796H65.4009L61.8969 4.09996V12.1H59.9609Z" fill="white"/>
  <path d="M55.312 12.1V9.90796H57.44V12.1H55.312Z" fill="white"/>
  <path d="M49.6348 12.1V2.72396H46.0828V0.899963L55.1708 0.899963V2.72396H51.6188V12.1H49.6348Z" fill="white"/>
  <path d="M35.3203 12.1V0.899963L40.3123 0.899963C41.6136 0.899963 42.6323 1.2253 43.3683 1.87596C44.1043 2.51596 44.4723 3.37996 44.4723 4.46796C44.4723 5.3533 44.2323 6.08396 43.7523 6.65996C43.2723 7.2253 42.6216 7.6253 41.8003 7.85996L44.8243 12.1H42.5043L39.7203 8.19596H37.2883V12.1H35.3203ZM37.2883 6.45196H40.1683C40.8723 6.45196 41.4323 6.2813 41.8483 5.93996C42.2643 5.59863 42.4723 5.13463 42.4723 4.54796C42.4723 3.95063 42.2696 3.49196 41.8643 3.17196C41.459 2.85196 40.8883 2.69196 40.1523 2.69196H37.2883V6.45196Z" fill="white"/>
  <path d="M31.2787 10.5959C30.1694 11.7266 28.7667 12.2919 27.0707 12.2919C25.3747 12.2919 23.9774 11.7319 22.8787 10.6119C21.78 9.49195 21.2307 8.12128 21.2307 6.49995C21.2307 4.89995 21.7854 3.53461 22.8947 2.40395C24.004 1.27328 25.4067 0.707947 27.1027 0.707947C28.7987 0.707947 30.196 1.26795 31.2947 2.38795C32.3934 3.50795 32.9427 4.87861 32.9427 6.49995C32.9427 8.09995 32.388 9.46528 31.2787 10.5959ZM24.3667 9.33195C25.092 10.0999 26.004 10.4839 27.1027 10.4839C28.2014 10.4839 29.1027 10.0999 29.8067 9.33195C30.5214 8.56395 30.8787 7.61995 30.8787 6.49995C30.8787 5.39061 30.516 4.45195 29.7907 3.68395C29.076 2.90528 28.1694 2.51595 27.0707 2.51595C25.972 2.51595 25.0654 2.89995 24.3507 3.66795C23.6467 4.43595 23.2947 5.37995 23.2947 6.49995C23.2947 7.60928 23.652 8.55328 24.3667 9.33195Z" fill="white"/>
  <path d="M11.0391 12.1V0.899963L15.4551 0.899963C16.7564 0.899963 17.7911 1.2413 18.5591 1.92396C19.3271 2.60663 19.7111 3.52396 19.7111 4.67596C19.7111 5.8813 19.2844 6.81996 18.4311 7.49196C17.5884 8.16396 16.5217 8.49996 15.2311 8.49996H13.0071V12.1H11.0391ZM13.0071 6.72396H15.2951C16.0311 6.72396 16.6177 6.5373 17.0551 6.16396C17.4924 5.79063 17.7111 5.29996 17.7111 4.69196C17.7111 4.05196 17.4924 3.5613 17.0551 3.21996C16.6284 2.86796 16.0417 2.69196 15.2951 2.69196H13.0071V6.72396Z" fill="white"/>
  <path d="M4.72473 12.26C2.9434 12.26 1.38607 11.6627 0.0527344 10.468L1.23673 9.05999C2.35673 10.0307 3.5354 10.516 4.77273 10.516C5.38073 10.516 5.86073 10.388 6.21273 10.132C6.5754 9.86532 6.75673 9.51332 6.75673 9.07599C6.75673 8.65999 6.58607 8.32932 6.24473 8.08399C5.9034 7.82799 5.2314 7.58266 4.22873 7.34799C2.9274 7.03866 1.97807 6.64932 1.38073 6.17999C0.794068 5.69999 0.500734 4.96932 0.500734 3.98799C0.500734 3.02799 0.858068 2.24932 1.57273 1.65199C2.2874 1.04399 3.20473 0.73999 4.32473 0.73999C5.86073 0.73999 7.2154 1.20932 8.38873 2.14799L7.33273 3.63599C6.29807 2.86799 5.28473 2.48399 4.29273 2.48399C3.7274 2.48399 3.2794 2.61199 2.94873 2.86799C2.62873 3.12399 2.46873 3.44932 2.46873 3.84399C2.46873 4.28132 2.64473 4.62266 2.99673 4.86799C3.3594 5.10266 4.06873 5.34799 5.12473 5.60399C6.36207 5.90266 7.26873 6.30266 7.84473 6.80399C8.4314 7.30532 8.72474 8.00932 8.72474 8.91599C8.72474 9.95066 8.35674 10.7667 7.62073 11.364C6.88473 11.9613 5.9194 12.26 4.72473 12.26Z" fill="white"/>
</svg>