<svg width="332" height="400" viewBox="0 0 332 400" fill="none" xmlns="http://www.w3.org/2000/svg">
<g filter="url(#filter0_f_2094_5799)">
<path d="M110.748 19.0825C86.8902 0.656132 58.6319 -11.2164 28.7729 -15.3588C-1.08598 -19.5012 -31.5091 -15.7696 -59.4818 -4.53381C-87.4544 6.70201 -112.006 25.052 -130.703 48.698C-149.4 72.3439 -161.594 100.465 -166.077 130.275C-170.559 160.085 -167.175 190.548 -156.259 218.647C-145.342 246.746 -127.274 271.505 -103.842 290.471C-80.4111 309.436 -52.4309 321.95 -22.6742 326.772C7.08249 331.594 37.5827 328.557 65.8044 317.962L5 156L110.748 19.0825Z" fill="#FF58CA"/>
</g>
<g filter="url(#filter1_f_2094_5799)">
<ellipse cx="88.2146" cy="97.6053" rx="91.7123" ry="165.082" transform="rotate(63.4232 88.2146 97.6053)" fill="#721663"/>
</g>
<g filter="url(#filter2_f_2094_5799)">
<ellipse cx="-6.77388" cy="196.02" rx="69.8401" ry="125.712" transform="rotate(114.36 -6.77388 196.02)" fill="#721663"/>
</g>
<defs>
<filter id="filter0_f_2094_5799" x="-268" y="-117" width="478.748" height="546" filterUnits="userSpaceOnUse" color-interpolation-filters="sRGB">
<feFlood flood-opacity="0" result="BackgroundImageFix"/>
<feBlend mode="normal" in="SourceGraphic" in2="BackgroundImageFix" result="shape"/>
<feGaussianBlur stdDeviation="50" result="effect1_foregroundBlur_2094_5799"/>
</filter>
<filter id="filter1_f_2094_5799" x="-365.059" y="-312.77" width="906.547" height="820.75" filterUnits="userSpaceOnUse" color-interpolation-filters="sRGB">
<feFlood flood-opacity="0" result="BackgroundImageFix"/>
<feBlend mode="normal" in="SourceGraphic" in2="BackgroundImageFix" result="shape"/>
<feGaussianBlur stdDeviation="150" result="effect1_foregroundBlur_2094_5799"/>
</filter>
<filter id="filter2_f_2094_5799" x="-324.89" y="-86.0586" width="636.231" height="564.156" filterUnits="userSpaceOnUse" color-interpolation-filters="sRGB">
<feFlood flood-opacity="0" result="BackgroundImageFix"/>
<feBlend mode="normal" in="SourceGraphic" in2="BackgroundImageFix" result="shape"/>
<feGaussianBlur stdDeviation="100" result="effect1_foregroundBlur_2094_5799"/>
</filter>
</defs>
</svg>
