<svg width="160" height="59" viewBox="0 0 160 59" fill="none" xmlns="http://www.w3.org/2000/svg">
<g clip-path="url(#clip0_317_187047)">
<path d="M58.9602 46.9623H63.3793V42.5343H59.6301V0H42.8919V21.8042C42.8919 28.0435 42.6236 37.0329 39.4776 42.5343H37V46.9623H58.9602ZM47.3105 21.8042V4.42795H55.211V42.5343H44.3643C46.9756 36.0938 47.3105 28.3786 47.3105 21.8042Z" fill="#263256"/>
<path d="M80.1433 42.5343H71.8413V23.6823H79.1395V19.5904H71.8413V4.42795H80.2104V0H67.4227V46.9623H80.1433V42.5343Z" fill="#263256"/>
<path d="M90.0117 4.42795H97.9793V46.9623H102.398V0H85.5927V46.9623H90.0117V4.42795Z" fill="#263256"/>
<path d="M113.448 38.9721H117.131C120.033 38.9721 122.376 36.6422 122.376 33.7588V5.36544C122.376 2.48154 120.033 0.152222 117.131 0.152222H113.448C110.603 0.152222 108.204 2.48103 108.204 5.36544V33.7588C108.204 36.6422 110.603 38.9721 113.448 38.9721ZM111.886 5.36595C111.886 4.53434 112.612 3.81324 113.448 3.81324H117.131C117.969 3.81324 118.693 4.53434 118.693 5.36595V33.7588C118.693 34.646 117.969 35.3115 117.131 35.3115H113.448C112.612 35.3115 111.886 34.646 111.886 33.7588V5.36544V5.36595Z" fill="#263256"/>
<path d="M122.376 43.178H108.204V46.9612H122.376V43.178Z" fill="#263256"/>
<path d="M38.2457 58.7587H39.3236V53.6361H40.5688V52.6492H37V53.6361H38.2457V58.7587Z" fill="#263256"/>
<path d="M44.9371 52.6491H42.9946V58.7586H44.0726V56.3462H44.9371C45.5322 56.3462 45.9841 56.1975 46.2941 55.8991C46.6036 55.6012 46.7586 55.1633 46.7586 54.5858V54.3994C46.7586 53.8346 46.6021 53.4017 46.2895 53.1008C45.9769 52.7993 45.5261 52.6486 44.9371 52.6486V52.6491ZM45.6806 54.5863C45.6806 54.8592 45.6095 55.0563 45.4667 55.178C45.3239 55.2987 45.1201 55.3593 44.8532 55.3593H44.0721V53.6365H44.8532C45.4047 53.6365 45.6801 53.8916 45.6801 54.3999V54.5863H45.6806Z" fill="#263256"/>
<path d="M50.3929 56.4956V52.6492H49.3333V58.7587H50.4488L52.0096 54.9026V58.7587H53.0693V52.6492H51.973L50.3929 56.4956Z" fill="#263256"/>
<path d="M63.4789 54.372V54.1856C63.4789 53.7013 63.3254 53.3244 63.0189 53.0545C62.712 52.7846 62.2861 52.6492 61.7407 52.6492H59.873V58.7587H61.8434C62.3882 58.7587 62.8162 58.6191 63.1262 58.3396C63.4357 58.06 63.5907 57.6755 63.5907 57.1851V56.9987C63.5907 56.6819 63.5226 56.4105 63.3864 56.1834C63.2502 55.9573 63.052 55.7816 62.7918 55.6578C63.2502 55.3966 63.4794 54.9683 63.4794 54.3725L63.4789 54.372ZM60.9509 53.6264H61.6111C61.8775 53.6264 62.0757 53.6824 62.2063 53.7945C62.3364 53.906 62.4014 54.0771 62.4014 54.3063V54.4743C62.4014 54.952 62.1412 55.1914 61.6208 55.1914H60.9515V53.6264H60.9509ZM62.5122 57.0629C62.5122 57.5411 62.2459 57.7804 61.7128 57.7804H60.9504V56.1595H61.7219C61.9761 56.1595 62.1712 56.2236 62.3074 56.3509C62.4436 56.4782 62.5117 56.6595 62.5117 56.8953V57.0629H62.5122Z" fill="#263256"/>
<path d="M68.1262 58.8707C68.7208 58.8707 69.1899 58.7108 69.534 58.3909C69.8781 58.0711 70.0499 57.6347 70.0499 57.0822V54.3256C70.0499 53.7792 69.8781 53.3448 69.534 53.0219C69.1899 52.699 68.7208 52.5376 68.1262 52.5376C67.5316 52.5376 67.0696 52.699 66.7225 53.0219C66.3753 53.3448 66.202 53.7792 66.202 54.3256V57.0822C66.202 57.6347 66.3738 58.0711 66.7179 58.3909C67.062 58.7108 67.5311 58.8707 68.1262 58.8707ZM67.28 54.4096C67.28 54.1244 67.3527 53.9055 67.4985 53.7532C67.6444 53.6014 67.8533 53.5255 68.1262 53.5255C68.3991 53.5255 68.609 53.6019 68.7584 53.7532C68.9068 53.9055 68.9816 54.1244 68.9816 54.4096V57.0083C68.9816 57.2879 68.9068 57.5033 68.7584 57.6556C68.6095 57.8079 68.3986 57.8837 68.1262 57.8837C67.8538 57.8837 67.6444 57.8084 67.4985 57.6556C67.3532 57.5033 67.28 57.2879 67.28 57.0083V54.4096Z" fill="#263256"/>
<path d="M76.6208 52.8081V52.6492H75.524L74.4278 55.2194H73.9165V52.6492H72.838V58.7587H73.9165V56.1976H74.4369L75.552 58.7587H76.6767V58.5998L75.3944 55.6945L76.6208 52.8081Z" fill="#263256"/>
<path d="M78.8331 54.4747V54.7543H79.9111V54.4747C79.9111 53.8412 80.1804 53.525 80.7197 53.525C80.9555 53.525 81.141 53.5963 81.2772 53.7389C81.4134 53.882 81.4815 54.0745 81.4815 54.3164V54.5028C81.4815 54.7197 81.421 54.8923 81.3001 55.0197C81.1796 55.147 81.0165 55.2101 80.8122 55.2101H80.2267V56.1884H80.7751C81.0287 56.1884 81.2243 56.2505 81.3605 56.3748C81.4967 56.499 81.5649 56.6757 81.5649 56.9054V57.0918C81.5649 57.3281 81.4901 57.5186 81.3417 57.6647C81.1928 57.8109 80.9977 57.8832 80.7557 57.8832C80.4396 57.8832 80.2135 57.8119 80.0778 57.6693C79.941 57.5262 79.8735 57.2909 79.8735 56.9619V56.6635H78.795V56.9619C78.795 57.5888 78.9591 58.064 79.288 58.3863C79.6163 58.7092 80.0991 58.8711 80.7374 58.8711C81.1095 58.8711 81.4393 58.8014 81.7275 58.6613C82.0157 58.5218 82.2403 58.3257 82.4009 58.0747C82.563 57.8231 82.6433 57.5359 82.6433 57.213V56.8871C82.6433 56.6141 82.5803 56.3753 82.4573 56.1701C82.3328 55.9653 82.1564 55.8014 81.9272 55.6766C82.1254 55.5523 82.2804 55.3929 82.3917 55.1969C82.5036 55.0018 82.559 54.7793 82.559 54.5308V54.2054C82.559 53.8825 82.4797 53.5932 82.3226 53.3391C82.1641 53.085 81.9455 52.8869 81.6665 52.7474C81.3875 52.6078 81.0683 52.5386 80.7095 52.5386C80.1022 52.5386 79.6371 52.7046 79.3149 53.0366C78.9927 53.3692 78.8321 53.8489 78.8321 54.4758L78.8331 54.4747Z" fill="#263256"/>
<path d="M86.1664 57.5757H87.718L87.9874 58.7587H89.0841V58.6003L87.5782 52.6497H86.3056L84.7906 58.6003V58.7587H85.8874L86.1664 57.5757ZM86.9379 54.2136L87.4949 56.6076H86.389L86.9374 54.2136H86.9379Z" fill="#263256"/>
<path d="M92.1046 53.6458H92.1234L92.0767 56.8958C92.0706 57.2003 92.0147 57.4219 91.9095 57.5619C91.8037 57.7014 91.6401 57.7717 91.4165 57.7717H91.1934V58.7587H91.5654C92.0675 58.7587 92.4436 58.6145 92.6947 58.3258C92.9452 58.037 93.0743 57.5981 93.0804 57.0084L93.1267 53.6463H94.3993V58.7592H95.4772V52.6497H92.1036V53.6463L92.1046 53.6458Z" fill="#263256"/>
<path d="M99.5034 52.6492L97.9884 58.5998V58.7582H99.0852L99.3642 57.5752H100.916L101.185 58.7582H102.282V58.5998L100.776 52.6492H99.5034ZM99.5868 56.6076L100.135 54.2136L100.693 56.6076H99.5868Z" fill="#263256"/>
<path d="M116.483 52.726C115.745 52.3013 114.836 52.3013 114.097 52.726C112.873 53.4293 112.516 55.0339 113.325 56.1915L115.29 59L117.255 56.1915C118.065 55.0339 117.708 53.4293 116.483 52.726ZM115.29 55.6501C114.784 55.6501 114.375 55.2397 114.375 54.733C114.375 54.2263 114.784 53.8158 115.29 53.8158C115.796 53.8158 116.205 54.2263 116.205 54.733C116.205 55.2397 115.796 55.6501 115.29 55.6501Z" fill="#263256"/>
</g>
<defs>
<clipPath id="clip0_317_187047">
<rect width="160" height="59" fill="white"/>
</clipPath>
</defs>
</svg>
