<svg width="160" height="59" viewBox="0 0 160 59" fill="none" xmlns="http://www.w3.org/2000/svg">
<path d="M112 29.6574C112 38.1472 105.068 45 96.4807 45C88.4708 45 81.8857 38.9848 81.0385 31.2944C81 31.1041 81 30.8756 81 30.6853V0H91.7441V29.6574C91.7441 32.2462 93.8621 34.3401 96.4807 34.3401C99.0994 34.3401 101.217 32.2462 101.217 29.6574C101.217 27.0685 99.0994 24.9746 96.4807 24.9746C95.595 24.9746 94.7863 25.203 94.0932 25.6218V14.5051C94.8634 14.3909 95.672 14.3147 96.4807 14.3147C105.068 14.3147 112 21.2056 112 29.6574Z" fill="black"/>
<path d="M114 29.6574C114 38.1472 120.932 45 129.519 45C137.529 45 144.114 38.9848 144.961 31.2944C145 31.1041 145 30.8756 145 30.6853V0H134.294V15.0761H134.256V29.6954C134.256 32.2843 132.138 34.3782 129.519 34.3782C126.901 34.3782 124.783 32.2843 124.783 29.6954C124.783 27.1066 126.901 25.0127 129.519 25.0127C130.405 25.0127 131.214 25.2411 131.907 25.6599V14.5051C131.137 14.3909 130.328 14.3147 129.519 14.3147C120.97 14.3147 114 21.2056 114 29.6574Z" fill="black"/>
<path d="M48 29.6574C48 38.1472 54.9317 45 63.5193 45C71.5292 45 78.1143 38.9848 78.9615 31.2944C79 31.1041 79 30.8756 79 30.6853V0H68.2944V15.0761H68.2559V29.6954C68.2559 32.2843 66.1379 34.3782 63.5193 34.3782C60.9006 34.3782 58.7826 32.2843 58.7826 29.6954C58.7826 27.1066 60.9006 25.0127 63.5193 25.0127C64.405 25.0127 65.2137 25.2411 65.9068 25.6599V14.5051C65.1366 14.3909 64.3279 14.3147 63.5193 14.3147C54.9317 14.3147 48 21.2056 48 29.6574Z" fill="black"/>
<path d="M46 30.0526V43.9474C46 49.9983 42.3077 55.2275 37 57.618C35.0385 58.5144 32.8077 59 30.5 59V48.5416C32.9615 48.5416 34.9615 46.7114 35.1923 44.3956V30.4635C35.1923 30.3141 35.2308 30.1647 35.2308 30.0153C35.2308 29.8659 35.2308 29.7165 35.1923 29.5671C34.9615 27.2513 32.9231 25.4211 30.5 25.4211C28.0769 25.4211 26.0385 27.2513 25.8077 29.5671C25.8077 29.7165 25.7692 29.8659 25.7692 30.0153C25.7692 32.5552 27.8846 34.6095 30.5 34.6095C31.3462 34.6095 32.1923 34.3854 32.8846 33.9745V44.8812C32.1154 44.9932 31.3077 45.0679 30.5 45.0679C28.8462 45.0679 27.2692 44.8065 25.8077 44.3582C21.8846 43.163 18.6154 40.4737 16.7308 37C15.6154 34.9083 15 32.5552 15 30.0526C15 21.7233 21.9231 15 30.5 15C39.0769 15 45.7692 21.4992 46 29.6418V30.0526Z" fill="black"/>
</svg>
