<svg width="94" height="27" viewBox="0 0 94 27" fill="none" xmlns="http://www.w3.org/2000/svg">
<path d="M5.08636 10.638V9.03233H7.09346V10.638V10.7384V10.9391C7.09346 13.6487 5.8892 16.1575 3.8821 17.9639C2.77819 18.9675 1.47357 19.7703 0.0686035 20.2721V18.265C0.971799 17.8636 1.77464 17.3618 2.47713 16.6593C4.08281 15.2544 5.08636 13.1469 5.08636 10.9391V10.7384V10.638ZM15.1219 10.638V9.03233H17.129V10.638V10.7384V10.9391C17.129 13.1469 18.1325 15.154 19.7382 16.6593C20.4407 17.2615 21.2435 17.8636 22.1467 18.265V20.2721C20.6414 19.7703 19.3368 18.9675 18.3332 17.9639C16.3261 16.1575 15.1219 13.6487 15.1219 10.9391V10.7384V10.638ZM0.0686035 23.6842C2.37677 23.0821 4.48423 21.8778 6.19026 20.3725C7.49488 19.1682 8.49843 17.8636 9.20092 16.2579C9.70269 17.5625 10.3048 18.6664 11.1077 19.7703C11.8102 18.7668 12.4123 17.5625 13.0144 16.2579C13.7169 17.7632 14.7204 19.1682 16.0251 20.3725C17.7311 21.8778 19.8386 23.0821 22.1467 23.6842V21.6771C20.3403 21.0749 18.7347 20.1718 17.43 18.9675C15.2222 16.9604 13.9176 14.1504 13.9176 11.1398V2.70996H11.9105V11.1398C11.9105 12.6451 11.6094 14.3512 11.208 15.7561C10.7062 14.4515 10.5055 12.6451 10.5055 11.1398V2.70996H8.49843V11.1398C8.49843 14.1504 7.09346 16.9604 4.986 18.9675C3.68139 20.1718 2.07571 21.0749 0.269314 21.6771V23.6842H0.0686035ZM9.10056 19.1682C8.59879 19.8707 7.99666 20.4728 7.29417 21.0749C5.28707 22.8813 2.87855 24.186 0.0686035 24.7881V26.6948C3.38032 25.9923 6.39097 24.487 8.7995 22.3796C9.30127 21.8778 9.80305 21.4764 10.2045 20.8742H10.1041C9.70269 20.3725 9.40163 19.7703 9.10056 19.1682ZM12.1112 21.0749C12.5126 21.5767 13.0144 21.9781 13.4158 22.4799C15.724 24.5874 18.7347 26.1931 22.1467 26.7952V24.8884C19.3368 24.2863 16.8279 22.9817 14.9212 21.1753C14.319 20.5732 13.7169 19.971 13.2151 19.3689C12.9141 19.971 12.613 20.4728 12.2116 20.9746C12.2116 20.9746 12.1112 20.9746 12.1112 21.0749Z" fill="#EB3333"/>
<path d="M31.1787 10.1359C31.6805 7.72734 32.2826 5.11811 32.4833 2.70959H34.8919V13.849H33.3865V9.43338L33.5872 5.41918C33.3865 6.72379 32.4833 11.4405 31.3794 13.7486H31.1787H30.978C29.8741 11.4405 28.9709 6.72379 28.7702 5.41918L28.9709 9.43338V13.849H27.4656V2.70959H29.8741C30.1752 5.11811 30.7773 7.72734 31.1787 10.1359ZM67.1058 4.61634V5.11811V6.02131C67.1058 6.9245 66.7044 7.52663 66.1023 7.92805C66.7044 8.42983 67.1058 9.23267 67.1058 10.1359V13.7486C66.0019 13.7486 64.9984 13.7486 63.8945 13.7486H62.0881V2.60923H63.8945C64.9984 2.60923 66.0019 2.60923 67.1058 2.60923V4.61634ZM63.7941 8.83125V12.2433H65.2994C65.2994 11.5408 65.2994 10.8384 65.2994 10.0355C65.2994 8.93161 64.4966 8.83125 63.7941 8.83125ZM63.7941 4.21491V7.22557C64.4966 7.22557 65.2994 7.22557 65.2994 6.12166V5.11811V4.31527H63.7941V4.21491ZM57.3714 13.849H55.565V2.60923H57.3714H59.0774H60.8838V13.7486H59.0774H57.3714V13.849ZM58.9771 4.21491H57.3714V12.2433H58.9771V4.21491ZM38.0029 13.849H36.1965V2.60923H38.0029H39.7089H41.5153V13.7486H39.7089H38.0029V13.849ZM39.6085 4.21491H38.0029V12.2433H39.6085V4.21491ZM70.0161 13.849H68.2098V2.60923H70.0161H71.7222H73.5286V7.12521H71.7222V4.21491H70.0161V12.2433H71.7222V9.33302H73.5286V13.849H71.7222H70.0161ZM44.4256 13.849H42.6192V2.60923H44.4256H46.1316H47.938V7.12521H46.1316V4.21491H44.4256V12.2433H46.1316V9.33302H47.938V13.849H46.1316H44.4256ZM76.5392 13.849H74.7328V2.70959H76.5392V7.12521H76.8403C77.8438 7.12521 78.1449 6.12166 78.1449 5.41918V2.80994H79.9513V5.31882C79.9513 6.52308 79.5499 7.32592 78.6467 7.92805C79.5499 8.53018 79.9513 9.43338 79.9513 10.5373V13.849H78.1449V10.4369C78.1449 9.73445 77.7435 8.83125 76.8403 8.83125H76.5392V13.849ZM92.295 1.30462H88.3811V0H92.295V1.30462ZM87.6786 13.849V2.70959H89.2843V9.23267L91.0907 2.70959H93.0978V13.849H91.3918V6.12166L89.184 13.9494L87.6786 13.849ZM81.0552 13.849V2.70959H82.6609V9.23267L84.4673 2.70959H86.4744V13.849H84.8687V6.12166L82.6609 13.9494L81.0552 13.849ZM50.9487 13.849H49.2426V2.70959H51.049V7.12521H51.3501C52.3536 7.12521 52.6547 6.12166 52.6547 5.41918V2.80994H54.4611V5.31882C54.4611 6.52308 54.0597 7.32592 53.1565 7.92805C54.0597 8.53018 54.4611 9.43338 54.4611 10.5373V13.849H52.6547V10.4369C52.6547 9.73445 52.2533 8.83125 51.3501 8.83125H51.049V13.849H50.9487Z" fill="#EB3333"/>
<path d="M35.795 26.7947H33.9887V15.6553H39.2071V26.7947H37.4007V17.261H35.6947V26.7947H35.795ZM29.272 26.7947H27.4656V15.6553H29.272H30.978H32.7844V20.1713H30.978V17.261H29.272V25.2894H30.978V22.3791H32.7844V26.895H30.978H29.272V26.7947ZM42.2178 26.7947H40.4114V15.6553H42.2178H43.9238H45.7302V26.7947H43.9238H42.2178ZM43.9238 17.1606H42.3181V25.189H43.9238V17.1606ZM52.454 15.6553H57.9735V17.261H56.1671V26.7947H54.2604V17.261H52.454V15.6553ZM51.9522 19.4688V19.9705V20.8737C51.9522 22.5798 51.049 23.784 49.343 23.784H48.7409V26.7947H46.9345V15.6553C48.6405 15.6553 50.2462 15.6553 51.9522 15.6553V19.4688ZM48.7409 17.1606V22.1784C49.4433 22.1784 50.2462 22.078 50.2462 20.9741V19.9705V17.261H48.7409V17.1606Z" fill="#EB3333"/>
</svg>
