<svg width="160" height="60" viewBox="0 0 160 60" fill="none" xmlns="http://www.w3.org/2000/svg">
<g clip-path="url(#clip0_178_24773)">
<path d="M107.589 5.61603V7.74616H125.889C127.099 7.74616 128.936 7.74616 130.152 8.97582C131.369 10.1958 131.369 12.029 131.369 13.2587V31.5939C131.369 32.8106 131.369 34.6535 130.152 35.8703C128.936 37.0935 127.102 37.0935 125.889 37.0935H117.049C115.524 37.0935 113.539 37.0935 112.779 35.4087C112.017 33.7337 113.082 32.2039 113.999 30.9807L125.889 15.0983H107.589L100.285 24.8743C99.0619 26.5106 98 27.9275 98 29.7575C98 31.5874 98.9782 32.9171 100.285 34.6535L102.119 37.0935C103.934 39.5367 105.768 41.9863 108.207 43.2063C110.649 44.4263 113.539 44.4263 117.506 44.4263H125.435C130.001 44.4263 136.868 44.4263 141.431 39.8465C146 35.257 146 28.5375 146 26.0846V18.7518C146 16.3054 146 9.58258 141.431 5.00281C136.865 0.42627 130.001 0.42627 125.435 0.42627H112.779C111.563 0.42627 110.038 0.42627 108.825 1.64302C107.589 2.86623 107.589 4.38959 107.589 5.61603Z" fill="#E52713"/>
<path d="M85.8208 15.4263H104L82.1824 44.4263H64L85.8208 15.4263Z" fill="#E52713"/>
<path d="M15 20.606C15 19.3893 15 17.8596 16.2126 16.6365C17.4284 15.4263 18.9354 15.4263 20.1545 15.4263H50.6044C54.5398 15.4263 57.4258 15.4263 59.8447 16.6365C62.2699 17.8628 64.0873 20.3091 65.9142 22.7488L67.7251 25.2015C69.0145 26.9346 70 28.2545 70 30.0843C70 31.9142 68.9474 33.3374 67.7251 34.98L60.4526 44.7618H42.2664L54.0855 28.8644C55.0006 27.6478 56.0596 26.1181 55.3045 24.4302C54.5399 22.7488 52.5753 22.7488 51.0524 22.7488H36.8208V59.4263H22.2725V22.7488H15V20.606Z" fill="#E52713"/>
</g>
<defs>
<clipPath id="clip0_178_24773">
<rect width="160" height="59" fill="white" transform="translate(0 0.178223)"/>
</clipPath>
</defs>
</svg>
