<svg width="160" height="59" viewBox="0 0 160 59" fill="none" xmlns="http://www.w3.org/2000/svg">
<path d="M40 21.8647C40 10.8909 31.0436 2 19.998 2C8.95236 2 0 10.8909 0 21.8647C0 38.8649 19.998 56 19.998 56C19.998 56 39.996 38.8649 39.996 21.8647" fill="#E62F2A"/>
<path d="M19.996 4C10.6093 4 3 11.8363 3 21.502C3 31.1678 10.6093 39 20 39C29.3907 39 37 31.1637 37 21.502C37 11.8404 29.3867 4 19.996 4ZM19.996 37.0726C11.6408 37.0726 4.86464 30.0979 4.86464 21.498C4.86464 12.898 11.6408 5.92743 19.996 5.92743C28.3512 5.92743 35.1274 12.898 35.1274 21.502C35.1274 30.1061 28.3552 37.0767 19.996 37.0767" fill="white"/>
<path d="M20 8C12.2809 8 6 14.0575 6 21.502C6 28.9465 12.2809 35 20 35C27.7191 35 34 28.9465 34 21.502C34 14.0575 27.7232 8 20 8ZM33.0331 21.212H23.632C23.5752 20.5459 23.3273 19.9347 22.9373 19.4253L29.5961 12.9996C31.668 15.1741 32.9559 18.0501 33.029 21.212M22.2751 18.7553C21.7673 18.3635 21.1497 18.101 20.4753 18.0148V8.93644C23.7377 9.05007 26.6994 10.3235 28.9257 12.3452L22.2751 18.7553ZM19.5165 18.0148C18.8665 18.0971 18.2693 18.3439 17.7737 18.7162L11.1271 12.2982C13.3494 10.3039 16.2867 9.05007 19.5247 8.93644V18.0148H19.5165ZM17.0992 19.3666C16.6849 19.8877 16.4208 20.5224 16.3639 21.212H6.97098C7.04411 18.0266 8.35229 15.131 10.4486 12.9486L17.1074 19.3666H17.0992ZM16.4086 22.1328C16.5183 22.7166 16.7783 23.2495 17.148 23.6961L10.5015 30.1101C8.44573 28.0022 7.12943 25.2125 6.97098 22.1328H16.4086ZM17.8427 24.3309C18.3262 24.6717 18.8949 24.9029 19.5165 24.9813V34.0596C16.307 33.946 13.3941 32.7157 11.1799 30.7527L17.8387 24.3269L17.8427 24.3309ZM20.4753 24.9813C21.1213 24.899 21.7145 24.6522 22.206 24.2878L28.8648 30.7057C26.6425 32.6961 23.7092 33.946 20.4753 34.0596V24.9813ZM19.9959 24.0919C18.5131 24.0919 17.3024 22.9282 17.3024 21.498C17.3024 20.0679 18.5131 18.9003 19.9959 18.9003C21.4788 18.9003 22.6895 20.064 22.6895 21.498C22.6895 22.9321 21.4829 24.0919 19.9959 24.0919ZM29.5392 30.0592L22.8845 23.6413C23.2298 23.2064 23.4777 22.6931 23.5792 22.1328H33.0168C32.8584 25.1889 31.5624 27.9552 29.5351 30.0592" fill="white"/>
<path d="M57.3402 17.073C57.9817 16.8117 58.4707 16.4468 58.8035 15.9742C59.1362 15.4978 59.3046 14.9676 59.3046 14.376C59.3046 13.2119 58.9077 12.3397 58.1099 11.7519C57.3122 11.1641 56.1496 10.8721 54.6262 10.8721H50V23.8079H54.9229C56.4342 23.8079 57.6008 23.4852 58.4146 22.8321C59.2284 22.1828 59.6333 21.2492 59.6333 20.0351C59.6333 19.2975 59.4329 18.6712 59.036 18.1449C58.6391 17.6186 58.0739 17.2651 57.3442 17.073M52.3452 12.6855H54.6262C55.428 12.6855 56.0213 12.8277 56.4022 13.112C56.783 13.3963 56.9714 13.8611 56.9714 14.4989C56.9714 15.079 56.763 15.5285 56.3541 15.8436C55.9411 16.1586 55.3719 16.32 54.6423 16.32H52.3412V12.6855H52.3452ZM56.6748 21.4759C56.2619 21.8216 55.6886 21.9984 54.9509 21.9984H52.3452V17.972H55.1474C56.5786 18.0027 57.2961 18.6866 57.2961 20.0236C57.2961 20.6422 57.0877 21.1262 56.6748 21.4759ZM65.6266 14.0187C64.7687 14.0187 63.9869 14.23 63.2894 14.6487C62.5878 15.0675 62.0466 15.6553 61.6618 16.4122C61.2729 17.1652 61.0805 18.0258 61.0805 18.9824V19.2514C61.0805 20.6844 61.5215 21.8331 62.4115 22.6937C63.2974 23.5543 64.456 23.9885 65.8831 23.9885C66.717 23.9885 67.4666 23.831 68.1401 23.5121C68.8096 23.197 69.3468 22.7475 69.7477 22.1751L68.533 21.0648C67.8836 21.8639 67.0417 22.2634 66.0114 22.2634C65.2738 22.2634 64.6644 22.0329 64.1794 21.5719C63.6943 21.107 63.4177 20.4808 63.3495 19.6894H69.904V18.8172C69.904 17.2881 69.5312 16.1087 68.7856 15.2711C68.0399 14.4374 66.9856 14.0187 65.6185 14.0187M67.6751 18.1065H63.3856C63.4898 17.3688 63.7344 16.7887 64.1112 16.3738C64.4921 15.9588 64.9932 15.7514 65.6105 15.7514C66.2279 15.7514 66.725 15.9358 67.0738 16.3046C67.4265 16.6734 67.627 17.2228 67.6751 17.9451V18.1026V18.1065ZM72.8105 18.2947C72.7503 19.6471 72.606 20.5807 72.3815 21.0917C72.157 21.6026 71.7962 21.8908 71.3031 21.9561L70.8381 21.9984L70.8461 23.8117H71.5436C72.6301 23.8117 73.4398 23.4621 73.969 22.7591C74.4982 22.0598 74.8189 20.9034 74.9392 19.2898L75.1236 15.9396H77.9618V23.8117H80.2148V14.1954H72.9989L72.8145 18.2909L72.8105 18.2947ZM90.1688 15.275C89.323 14.4413 88.2245 14.0225 86.8736 14.0225C85.9595 14.0225 85.1457 14.2261 84.4442 14.6295C83.7386 15.0368 83.1934 15.6169 82.8046 16.3699C82.4157 17.1268 82.2193 17.972 82.2193 18.9133V19.0209C82.2193 20.5269 82.6442 21.7294 83.4941 22.6323C84.344 23.5351 85.4745 23.9885 86.8896 23.9885C87.8196 23.9885 88.6375 23.7849 89.343 23.3738C90.0486 22.9627 90.5938 22.3864 90.9746 21.6411C91.3555 20.8957 91.5439 20.0467 91.5439 19.1015L91.5359 18.5944C91.4717 17.2151 91.0107 16.1087 90.1688 15.2711M88.6655 21.4105C88.2406 21.9791 87.6513 22.2634 86.8896 22.2634C86.1279 22.2634 85.5386 21.983 85.1097 21.4259C84.6847 20.865 84.4682 20.0889 84.4682 19.1015C84.4682 17.9874 84.6847 17.1537 85.1177 16.5928C85.5506 16.0357 86.1359 15.7552 86.8695 15.7552C87.6032 15.7552 88.2085 16.0395 88.6455 16.6081C89.0824 17.1767 89.2989 17.949 89.2989 18.9171C89.2989 20.0121 89.0865 20.8458 88.6615 21.4144M98.3109 14.7333C97.1082 14.7333 96.0579 15.1751 95.1599 16.0587C95.3283 15.202 95.657 14.5296 96.1461 14.0417C96.6351 13.5576 97.3527 13.2157 98.2948 13.0274C99.3171 12.82 100.043 12.601 100.464 12.3666C100.889 12.1323 101.197 11.8288 101.402 11.4561C101.606 11.0796 101.706 10.5955 101.706 10H99.8863C99.8863 10.3189 99.7621 10.5724 99.5095 10.7569C99.261 10.9413 98.7077 11.118 97.8578 11.287C96.3345 11.5867 95.192 12.3436 94.4263 13.5538C93.6606 14.764 93.2757 16.4007 93.2757 18.4753V19.0977C93.2757 20.6153 93.7007 21.8101 94.5465 22.6861C95.3924 23.562 96.5069 24 97.8859 24C99.265 24 100.424 23.5697 101.245 22.713C102.071 21.8524 102.484 20.7305 102.484 19.3436V19.236C102.484 17.8491 102.103 16.7541 101.346 15.9435C100.584 15.1328 99.5736 14.7294 98.3109 14.7294M99.6258 21.4951C99.2128 22.0137 98.6356 22.2711 97.8859 22.2711C97.1363 22.2711 96.551 22.0137 96.1421 21.4989C95.7372 20.9841 95.5327 20.2656 95.5327 19.3397C95.5327 18.3639 95.7372 17.6378 96.1541 17.169C96.567 16.6965 97.1403 16.4621 97.8699 16.4621C98.5995 16.4621 99.2169 16.7042 99.6258 17.1883C100.039 17.6685 100.243 18.3255 100.243 19.1553C100.243 20.1965 100.039 20.9764 99.6258 21.4951ZM112.454 17.2536C112.438 16.2278 112.077 15.4363 111.38 14.8677C110.682 14.303 109.748 14.0187 108.574 14.0187C107.8 14.0187 107.102 14.1493 106.473 14.4105C105.844 14.6718 105.35 15.0291 104.986 15.4901C104.625 15.9512 104.44 16.4391 104.44 16.9693H106.693C106.693 16.5928 106.858 16.2777 107.186 16.0318C107.515 15.7859 107.932 15.663 108.449 15.663C109.043 15.663 109.484 15.8128 109.772 16.1125C110.065 16.4122 110.209 16.8117 110.209 17.3074V17.9374H108.826C107.351 17.9374 106.212 18.2102 105.419 18.7596C104.625 19.309 104.228 20.0928 104.228 21.1186C104.228 21.933 104.545 22.6131 105.182 23.1625C105.819 23.7157 106.641 23.9885 107.647 23.9885C108.654 23.9885 109.564 23.6273 110.281 22.9127C110.357 23.3277 110.442 23.6273 110.542 23.8079H112.839V23.6581C112.586 23.1432 112.458 22.4517 112.458 21.5873V17.2497L112.454 17.2536ZM110.205 21.107C110.005 21.4566 109.708 21.7371 109.315 21.9407C108.926 22.1482 108.505 22.2519 108.06 22.2519C107.575 22.2519 107.194 22.129 106.906 21.8831C106.621 21.6372 106.477 21.3068 106.477 20.8919C106.477 20.3809 106.685 19.989 107.106 19.7124C107.527 19.4319 108.153 19.2936 108.986 19.2936H110.205V21.1032V21.107ZM116.912 12.3205C117.457 12.7816 118.183 13.0121 119.093 13.0121C120.003 13.0121 120.724 12.7816 121.27 12.3205C121.815 11.8557 122.083 11.2525 122.083 10.5071H120.388C120.388 10.8952 120.275 11.191 120.047 11.4061C119.818 11.6175 119.502 11.725 119.093 11.725C118.684 11.725 118.367 11.6175 118.135 11.4061C117.902 11.191 117.786 10.8952 117.786 10.5071H116.098C116.098 11.2525 116.371 11.8557 116.916 12.3205M117.1 20.6114V14.1954H114.859V23.8079H117.1L121.029 17.3919V23.8079H123.274V14.1954H121.029L117.1 20.6114ZM131.067 18.798L134.691 14.1954H131.913L129.139 18.0335H128.145V14.1954H125.892V23.8079H128.145V20.0044H129.287L132.07 23.8079H135L131.071 18.798H131.067Z" fill="#E62F2A"/>
<path d="M51 29V36H52.0139V33.693L51.9132 30.6087L53.6354 36H54.3611L56.0903 30.6087L55.9861 33.693V36H57V29H55.6875L54.0035 34.3664L52.3194 29H51Z" fill="#164284"/>
<path d="M58.0086 33.5116C58.0086 34.2666 58.2361 34.8713 58.691 35.322C59.1459 35.7727 59.7511 36 60.5107 36C61.0086 36 61.4463 35.896 61.824 35.6918C62.2017 35.4877 62.4936 35.1949 62.6953 34.8251C62.9013 34.4515 63 34.0239 63 33.5501V33.2958C62.9571 32.6025 62.7167 32.0478 62.2618 31.6317C61.8112 31.2119 61.2232 31 60.4936 31C60.0043 31 59.5708 31.104 59.1931 31.3043C58.8155 31.5085 58.5236 31.8012 58.3133 32.1787C58.103 32.5562 58 32.9838 58 33.4538V33.5077L58.0086 33.5116ZM59.5622 32.2943C59.794 32.0131 60.1073 31.8706 60.4979 31.8706C60.8884 31.8706 61.2189 32.0131 61.4506 32.2981C61.6824 32.5832 61.8026 32.9684 61.8026 33.4576C61.8026 34.0085 61.691 34.4245 61.4635 34.7096C61.236 34.9946 60.9227 35.1371 60.515 35.1371C60.1073 35.1371 59.7897 34.9985 59.5622 34.7173C59.3348 34.4361 59.2189 34.047 59.2189 33.5501C59.2189 32.9915 59.3348 32.5716 59.5665 32.2943" fill="#164284"/>
<path d="M65.3074 34.7519C65.1259 34.4938 65.037 34.1048 65.037 33.5809V33.4037C65.037 32.8914 65.1333 32.5023 65.3148 32.2481C65.4963 31.9938 65.7556 31.8667 66.0963 31.8667C66.3593 31.8667 66.5741 31.9592 66.7444 32.1364C66.9148 32.3136 67.0074 32.5408 67.0185 32.8182H68C67.9852 32.275 67.8 31.8359 67.4556 31.5008C67.1074 31.1695 66.6593 31 66.1074 31C65.4556 31 64.9444 31.2196 64.5667 31.6626C64.1889 32.1055 64 32.6911 64 33.4268V33.5385C64 34.3089 64.1889 34.9099 64.5704 35.3451C64.9518 35.7804 65.463 36 66.1111 36C66.4444 36 66.7593 35.9268 67.0444 35.7727C67.3333 35.6225 67.5593 35.4145 67.7296 35.1564C67.9 34.8983 67.9889 34.621 68 34.3166H67.0185C67.0074 34.5478 66.9148 34.7404 66.7444 34.9022C66.5741 35.0601 66.3593 35.1371 66.1 35.1371C65.7556 35.1371 65.4963 35.01 65.3148 34.7519" fill="#164284"/>
<path d="M72.3891 36H74L71.8389 33.3901L73.8283 31H72.3011L70.7826 32.9984H70.2368V31H69V36H70.2368V34.0216H70.8618L72.3891 36Z" fill="#164284"/>
<path d="M74.0043 33.5116C74.0043 34.2666 74.232 34.8713 74.6873 35.322C75.1426 35.7727 75.7483 36 76.5043 36C76.9983 36 77.4407 35.896 77.8187 35.6918C78.1967 35.4877 78.4888 35.1949 78.695 34.8251C78.8969 34.4515 79 34.0239 79 33.5501V33.2958C78.957 32.6025 78.7165 32.0478 78.2612 31.6317C77.8101 31.2119 77.2216 31 76.4957 31C76.006 31 75.5722 31.104 75.1942 31.3043C74.8162 31.5085 74.5241 31.8012 74.3136 32.1787C74.1031 32.5562 74 32.9838 74 33.4538V33.5077L74.0043 33.5116ZM75.5593 32.2943C75.7912 32.0131 76.1048 31.8706 76.5 31.8706C76.8952 31.8706 77.2174 32.0131 77.4493 32.2981C77.6856 32.5832 77.8015 32.9684 77.8015 33.4576C77.8015 34.0085 77.6899 34.4245 77.4622 34.7096C77.2388 34.9946 76.921 35.1371 76.5129 35.1371C76.1048 35.1371 75.7869 34.9985 75.5593 34.7173C75.3316 34.4361 75.2156 34.047 75.2156 33.5501C75.2156 32.9915 75.3316 32.5716 75.5636 32.2943" fill="#164284"/>
<path d="M82.1601 36C82.7525 36 83.2051 35.8801 83.5253 35.6363C83.8381 35.3965 84 35.0408 84 34.5731C84 34.2934 83.9117 34.0496 83.7351 33.8417C83.5584 33.6379 83.3192 33.498 83.0175 33.4301C83.2751 33.3301 83.4701 33.1902 83.6026 33.0064C83.7351 32.8225 83.8013 32.6147 83.8013 32.3869C83.8013 31.9392 83.6357 31.5955 83.3082 31.3597C82.977 31.1159 82.4986 31 81.8694 31H80V36H82.1601ZM82.1564 33.8697C82.6936 33.8697 82.966 34.0815 82.966 34.4972C82.966 34.9129 82.6973 35.1167 82.1674 35.1167H81.034V33.8697H82.1527H82.1564ZM81.0377 31.8953H81.9356C82.4913 31.9073 82.7709 32.1111 82.7709 32.5028C82.7709 32.8945 82.4765 33.0663 81.8878 33.0663H81.0377V31.8913V31.8953Z" fill="#164284"/>
<path d="M86.3123 34.7519C86.1307 34.4938 86.038 34.1048 86.038 33.5809V33.4037C86.038 32.8914 86.1344 32.5023 86.316 32.2481C86.4977 31.9938 86.7609 31.8667 87.0982 31.8667C87.3614 31.8667 87.5765 31.9592 87.747 32.1364C87.9175 32.3136 88.0065 32.5408 88.0176 32.8182H89C88.9852 32.275 88.7998 31.8359 88.4551 31.5008C88.1066 31.1695 87.658 31 87.1094 31C86.4569 31 85.9416 31.2196 85.5672 31.6626C85.1891 32.1055 85 32.6911 85 33.4268V33.5385C85 34.3089 85.1891 34.9099 85.5672 35.3451C85.949 35.7804 86.4606 36 87.1094 36C87.4467 36 87.7581 35.9268 88.0436 35.7727C88.3327 35.6225 88.5588 35.4145 88.7294 35.1564C88.8962 34.8983 88.9889 34.621 89 34.3166H88.0176C88.0065 34.5478 87.9138 34.7404 87.747 34.9022C87.5765 35.0601 87.3577 35.1371 87.0982 35.1371C86.7535 35.1371 86.494 35.01 86.3123 34.7519Z" fill="#164284"/>
<path d="M93.3935 36H95L92.8433 33.3901L94.8327 31H93.3055L91.7826 32.9984H91.2368V31H90V36H91.2368V34.0216H91.8662L93.3935 36Z" fill="#164284"/>
<path d="M97.0629 34.3373V31H96V36H97.0629L98.9333 32.6627V36H100V31H98.9333L97.0629 34.3373Z" fill="#164284"/>
<path d="M102.063 34.3177V30.9411H101V36H102.063L103.933 32.6233V36H105V30.9411H103.933L102.063 34.3177ZM103.625 29C103.625 29.2022 103.571 29.3599 103.461 29.4731C103.354 29.5823 103.202 29.6389 103.008 29.6389C102.813 29.6389 102.661 29.5823 102.55 29.4731C102.444 29.3599 102.387 29.2022 102.387 29H101.583C101.583 29.3923 101.712 29.7117 101.968 29.9544C102.227 30.197 102.57 30.3183 103.004 30.3183C103.438 30.3183 103.781 30.197 104.04 29.9544C104.299 29.7117 104.429 29.3923 104.429 29H103.621H103.625Z" fill="#164284"/>
<path d="M111.158 36C111.751 36 112.208 35.8801 112.525 35.6363C112.842 35.3965 113 35.0408 113 34.5731C113 34.2934 112.912 34.0496 112.738 33.8417C112.562 33.6379 112.322 33.498 112.02 33.4301C112.278 33.3301 112.473 33.1902 112.606 33.0064C112.738 32.8225 112.805 32.6147 112.805 32.3869C112.805 31.9392 112.639 31.5955 112.311 31.3597C111.983 31.1159 111.501 31 110.871 31H109V36H111.162H111.158ZM111.158 33.8697C111.696 33.8697 111.965 34.0815 111.965 34.4972C111.965 34.9129 111.7 35.1167 111.166 35.1167H110.035V33.8697H111.155H111.158ZM110.039 31.8953H110.934C111.49 31.9073 111.77 32.1111 111.77 32.5028C111.77 32.8945 111.475 33.0663 110.886 33.0663H110.035V31.8913L110.039 31.8953Z" fill="#164284"/>
<path d="M117.197 35.7687C117.499 35.6106 117.746 35.387 117.927 35.0979L117.375 34.5389C117.081 34.9399 116.699 35.1403 116.234 35.1403C115.9 35.1403 115.624 35.0247 115.406 34.7934C115.184 34.5621 115.061 34.246 115.028 33.8489H118V33.4094C118 32.6461 117.829 32.0486 117.491 31.6322C117.153 31.212 116.678 31 116.056 31C115.668 31 115.315 31.1041 114.999 31.3161C114.683 31.5281 114.44 31.8211 114.262 32.2028C114.087 32.5806 114 33.0123 114 33.4904V33.6253C114 34.3462 114.2 34.9206 114.603 35.3524C115.006 35.7841 115.53 36 116.176 36C116.554 36 116.896 35.9229 117.201 35.761M116.718 32.1488C116.877 32.3338 116.968 32.6076 116.99 32.9699V33.0509H115.046C115.094 32.6808 115.203 32.3878 115.377 32.1835C115.551 31.9753 115.773 31.8712 116.056 31.8712C116.34 31.8712 116.558 31.9638 116.718 32.1527" fill="#164284"/>
<path d="M119.92 31L119.841 33.1286C119.814 33.8315 119.756 34.3147 119.66 34.5823C119.561 34.8498 119.41 34.9976 119.198 35.0296L119 35.0535V35.996H119.301C119.766 35.996 120.108 35.8163 120.337 35.4529C120.562 35.0855 120.699 34.4864 120.747 33.6478L120.829 31.9065H122.039V36H123V31.004H119.923L119.92 31Z" fill="#164284"/>
<path d="M124 33.5116C124 34.2666 124.228 34.8713 124.684 35.322C125.139 35.7727 125.75 36 126.506 36C127.005 36 127.444 35.896 127.822 35.6918C128.2 35.4877 128.493 35.1949 128.695 34.8251C128.897 34.4515 129 34.0239 129 33.5501V33.2958C128.957 32.6025 128.716 32.0478 128.265 31.6317C127.813 31.2119 127.224 31 126.498 31C126.008 31 125.574 31.104 125.195 31.3043C124.817 31.5085 124.525 31.8012 124.318 32.1787C124.107 32.5562 124.004 32.9838 124.004 33.4538V33.5077L124 33.5116ZM125.556 32.2943C125.788 32.0131 126.102 31.8706 126.494 31.8706C126.885 31.8706 127.212 32.0131 127.448 32.2981C127.68 32.5832 127.801 32.9684 127.801 33.4576C127.801 34.0085 127.684 34.4245 127.461 34.7096C127.233 34.9946 126.915 35.1371 126.506 35.1371C126.098 35.1371 125.784 34.9985 125.552 34.7173C125.324 34.4361 125.208 34.047 125.208 33.5501C125.208 32.9915 125.324 32.5716 125.561 32.2943" fill="#164284"/>
<path d="M134 31H130V36H131.07V31.9033H132.93V36H134V31Z" fill="#164284"/>
<path d="M139 33.5672C139 32.762 138.843 32.1361 138.526 31.6817C138.212 31.2272 137.774 31 137.215 31C136.701 31 136.288 31.2033 135.989 31.6019L135.945 31.0957H135V38H136.026V35.6321C136.325 35.9949 136.726 36.1743 137.226 36.1743C137.766 36.1743 138.193 35.947 138.518 35.4846C138.839 35.0262 139 34.4083 139 33.639V33.5712V33.5672ZM137.701 34.8468C137.515 35.1338 137.263 35.2773 136.934 35.2773C136.515 35.2773 136.208 35.086 136.026 34.6953V32.4829C136.208 32.1042 136.511 31.9169 136.927 31.9169C137.263 31.9169 137.526 32.0644 137.708 32.3554C137.891 32.6464 137.978 33.041 137.978 33.5393C137.978 34.1213 137.887 34.5598 137.701 34.8468Z" fill="#164284"/>
<path d="M140.004 33.5116C140.004 34.2666 140.232 34.8713 140.687 35.322C141.143 35.7727 141.748 36 142.509 36C143.007 36 143.441 35.896 143.823 35.6918C144.201 35.4877 144.493 35.1949 144.695 34.8251C144.901 34.4515 145 34.0239 145 33.5501V33.2958C144.957 32.6025 144.712 32.0478 144.265 31.6317C143.81 31.2119 143.222 31 142.496 31C142.006 31 141.572 31.104 141.194 31.3043C140.816 31.5085 140.524 31.8012 140.314 32.1787C140.107 32.5562 140 32.9838 140 33.4538V33.5077L140.004 33.5116ZM141.559 32.2943C141.791 32.0131 142.105 31.8706 142.496 31.8706C142.887 31.8706 143.213 32.0131 143.449 32.2981C143.681 32.5832 143.797 32.9684 143.797 33.4576C143.797 34.0085 143.686 34.4245 143.458 34.7096C143.23 34.9946 142.912 35.1371 142.504 35.1371C142.096 35.1371 141.778 34.9985 141.551 34.7173C141.323 34.4361 141.207 34.047 141.207 33.5501C141.207 32.9915 141.323 32.5716 141.555 32.2943" fill="#164284"/>
<path d="M148.714 36H150L148.273 33.3901L149.866 31H148.643L147.424 32.9984H146.99V31H146V36H146.99V34.0216H147.491L148.714 36Z" fill="#164284"/>
<path d="M155 35.9075V35.8342C154.885 35.5759 154.825 35.229 154.825 34.7972V32.623C154.818 32.1103 154.651 31.7093 154.327 31.4241C154.004 31.1426 153.569 31 153.026 31C152.665 31 152.346 31.0694 152.052 31.1966C151.762 31.3277 151.528 31.5089 151.361 31.7363C151.19 31.9676 151.104 32.2143 151.104 32.4803H152.149C152.149 32.2914 152.227 32.1334 152.375 32.01C152.528 31.8867 152.725 31.825 152.959 31.825C153.234 31.825 153.439 31.8982 153.572 32.0524C153.706 32.1989 153.773 32.3994 153.773 32.65V32.9661H153.134C152.45 32.9661 151.922 33.101 151.554 33.3786C151.186 33.6523 151 34.0455 151 34.5621C151 34.9707 151.149 35.3099 151.442 35.5875C151.736 35.8612 152.115 36 152.584 36C153.052 36 153.472 35.8188 153.807 35.4641C153.84 35.6685 153.881 35.8188 153.929 35.9113H154.996L155 35.9075ZM152.249 34.9437C152.115 34.8204 152.048 34.6546 152.048 34.4464C152.048 34.1881 152.145 33.9915 152.338 33.8527C152.535 33.714 152.825 33.6446 153.212 33.6446H153.77V34.5544C153.68 34.7278 153.543 34.8705 153.361 34.9746C153.178 35.0786 152.985 35.1288 152.777 35.1288C152.554 35.1288 152.379 35.0671 152.242 34.9437" fill="#164284"/>
<path d="M160 31H156V31.8913H157.477V36H158.509V31.8913H160V31Z" fill="#164284"/>
</svg>
