<svg width="630" height="637" viewBox="0 0 630 637" fill="none" xmlns="http://www.w3.org/2000/svg">
<path d="M275.275 492.438C378.564 541.507 502.074 497.552 551.142 394.262C600.21 290.973 556.256 167.463 452.966 118.395C349.677 69.3265 226.167 113.281 177.099 216.571C128.03 319.86 171.985 443.37 275.275 492.438Z" fill="#E1AC54"/>
<path d="M221.182 485.673C138.736 513.28 49.2377 467.949 21.1929 384.272L319.661 284.296C347.706 367.974 303.628 458.067 221.182 485.673Z" fill="#EE2C3C"/>
<path d="M160.311 337.537L319.661 284.296C344.518 358.529 312.323 438.149 247.102 474.194C195.254 435.237 172.875 386.486 160.311 337.537Z" fill="#3B3393"/>
</svg>
