<svg class="map__scheme" width="1797" height="988" viewBox="0 0 1797 988" fill="none" xmlns="http://www.w3.org/2000/svg">
    <g id="Group 37539">
        <g class="figure 18" id="figure 18">
            <rect id="Rectangle 371" x="362.5" y="414.5" width="24" height="25" fill="white" stroke="#E51F2F" stroke-width="5" />
            <path
                id="18"
                d="M369.702 422H370.602V434H372.702V420H369.702V422ZM380.104 427.96C380.104 427.14 379.724 426.62 379.084 426.4C379.724 426.18 380.104 425.64 380.104 424.84V420.92C380.104 420.38 379.744 420 379.184 420H375.324C374.764 420 374.404 420.38 374.404 420.92V424.84C374.404 425.64 374.784 426.18 375.404 426.4C374.784 426.62 374.404 427.14 374.404 427.96V433.08C374.404 433.62 374.764 434 375.324 434H379.184C379.744 434 380.104 433.62 380.104 433.08V427.96ZM378.004 427.4V432H376.504V427.4H378.004ZM376.504 425.4V422H378.004V425.4H376.504Z"
                fill="#E51F2F"
            />
        </g>
        <g class="figure 23" id="figure 23">
            <rect id="Rectangle 372" x="473.5" y="466.5" width="51" height="22" fill="white" stroke="#E51F2F" stroke-width="5" />
            <path
                id="23"
                d="M498.203 470.92C498.203 470.38 497.843 470 497.283 470H493.423C492.863 470 492.503 470.38 492.503 470.92V474H494.603V472H496.103V474L492.503 481.1V484H498.203V482H494.603V481.38L498.203 474.28V470.92ZM504.482 484C505.042 484 505.402 483.62 505.402 483.08V475.96C505.402 475.42 505.042 475.04 504.482 475.04H503.382L505.302 471.8V470H499.802V472H503.102L501.202 475.18V477.04H503.302V482H501.802V479.4H499.702V483.08C499.702 483.62 500.062 484 500.622 484H504.482Z"
                fill="#E51F2F"
            />
        </g>
        <g class="figure 24" id="figure 24">
            <rect id="Rectangle 373" x="491.5" y="501.5" width="29" height="23" fill="white" stroke="#E51F2F" stroke-width="5" />
            <path
                id="24"
                d="M505.047 506.92C505.047 506.38 504.687 506 504.127 506H500.267C499.707 506 499.347 506.38 499.347 506.92V510H501.447V508H502.947V510L499.347 517.1V520H505.047V518H501.447V517.38L505.047 510.28V506.92ZM511.946 520V517.4H512.746V515.4H511.946V513.2L509.846 513.6V515.4H508.606L511.306 506H509.106L506.346 515.6V517.4H509.846V520H511.946Z"
                fill="#E51F2F"
            />
        </g>
        <g class="figure 30" id="figure 30">
            <rect id="Rectangle 375" x="399.5" y="653.5" width="128" height="61" fill="white" stroke="#E51F2F" stroke-width="5" />
            <path
                id="30"
                d="M462.285 690C462.845 690 463.205 689.62 463.205 689.08V681.96C463.205 681.42 462.845 681.04 462.285 681.04H461.185L463.105 677.8V676H457.605V678H460.905L459.005 681.18V683.04H461.105V688H459.605V685.4H457.505V689.08C457.505 689.62 457.865 690 458.425 690H462.285ZM466.9 688V678H468.4V688H466.9ZM469.58 690C470.14 690 470.5 689.62 470.5 689.08V676.92C470.5 676.38 470.14 676 469.58 676H465.72C465.16 676 464.8 676.38 464.8 676.92V689.08C464.8 689.62 465.16 690 465.72 690H469.58Z"
                fill="#E51F2F"
            />
        </g>
        <g class="figure 25" id="figure 25">
            <rect id="Rectangle 382" x="578.988" y="498.425" width="45.0406" height="27.3872" transform="rotate(59.3556 578.988 498.425)" fill="white" stroke="#E51F2F" stroke-width="5" />
            <path
                id="25"
                d="M577.614 518.381C577.614 517.841 577.254 517.461 576.694 517.461H572.834C572.274 517.461 571.914 517.841 571.914 518.381V521.461H574.014V519.461H575.514V521.461L571.914 528.561V531.461H577.614V529.461H574.014V528.841L577.614 521.741V518.381ZM582.713 524.061V529.461H581.213V526.861H579.113V530.541C579.113 531.081 579.473 531.461 580.033 531.461H583.893C584.453 531.461 584.813 531.081 584.813 530.541V522.981C584.813 522.441 584.453 522.061 583.893 522.061H581.213V519.461H584.713V517.461H579.113V524.861H581.213V524.061H582.713Z"
                fill="#E51F2F"
            />
        </g>
        <g class="figure 27" id="figure 27">
            <rect id="Rectangle 381" x="645.478" y="582.409" width="44.0053" height="24.4231" transform="rotate(29.6155 645.478 582.409)" fill="white" stroke="#E51F2F" stroke-width="5" />
            <path
                id="27"
                d="M658.201 598.101C658.201 597.561 657.841 597.181 657.281 597.181H653.421C652.861 597.181 652.501 597.561 652.501 598.101V601.181H654.601V599.181H656.101V601.181L652.501 608.281V611.181H658.201V609.181H654.601V608.561L658.201 601.461V598.101ZM661.06 611.181H663.16V604.781L664.9 598.981V597.181H659.3V599.181H662.74L661.06 604.781V611.181Z"
                fill="#E51F2F"
            />
        </g>
        <g class="figure 1" id="figure 1">
            <rect id="Rectangle 376" x="750.5" y="694.5" width="21" height="21" fill="white" stroke="#E51F2F" stroke-width="5" />
            <path id="1" d="M759.349 700H760.249V712H762.349V698H759.349V700Z" fill="#E51F2F" />
        </g>
        <g class="figure 1" id="figure 1-2">
            <rect id="f1" x="311.5" y="346.5" width="24" height="22" fill="white" stroke="#E51F2F" stroke-width="5" />
            <path id="l1" d="M322.349 352H323.249V364H325.349V350H322.349V352Z" fill="#E51F2F" />
        </g>
        <g class="figure 5" id="figure 5">
            <rect id="Rectangle 380" x="750.5" y="581.5" width="50" height="23" fill="white" stroke="#E51F2F" stroke-width="5" />
            <path
                id="5"
                d="M776.753 592.6V598H775.253V595.4H773.153V599.08C773.153 599.62 773.513 600 774.073 600H777.933C778.493 600 778.853 599.62 778.853 599.08V591.52C778.853 590.98 778.493 590.6 777.933 590.6H775.253V588H778.753V586H773.153V593.4H775.253V592.6H776.753Z"
                fill="#E51F2F"
            />
        </g>
        <g class="figure 19" id="figure 19">
            <rect id="Rectangle 386" x="592.5" y="396.5" width="24" height="25" fill="white" stroke="#E51F2F" stroke-width="5" />
            <path
                id="19"
                d="M599.702 404H600.602V416H602.702V402H599.702V404ZM606.504 408V404H608.004V408H606.504ZM604.404 409.08C604.404 409.62 604.764 410 605.324 410H608.004V414H606.504V411.4H604.404V415.08C604.404 415.62 604.764 416 605.324 416H609.184C609.744 416 610.104 415.62 610.104 415.08V402.92C610.104 402.38 609.744 402 609.184 402H605.324C604.764 402 604.404 402.38 604.404 402.92V409.08Z"
                fill="#E51F2F"
            />
        </g>
        <g class="figure 20" id="figure 20">
            <rect id="Rectangle 384" x="563.5" y="426.5" width="24" height="26" fill="white" stroke="#E51F2F" stroke-width="5" />
            <path
                id="20"
                d="M575.203 433.92C575.203 433.38 574.843 433 574.283 433H570.423C569.863 433 569.503 433.38 569.503 433.92V437H571.603V435H573.103V437L569.503 444.1V447H575.203V445H571.603V444.38L575.203 437.28V433.92ZM578.802 445V435H580.302V445H578.802ZM581.482 447C582.042 447 582.402 446.62 582.402 446.08V433.92C582.402 433.38 582.042 433 581.482 433H577.622C577.062 433 576.702 433.38 576.702 433.92V446.08C576.702 446.62 577.062 447 577.622 447H581.482Z"
                fill="#E51F2F"
            />
        </g>
        <g class="figure 22" id="figure 22">
            <rect id="Rectangle 383" x="592.5" y="457.5" width="24" height="25" fill="white" stroke="#E51F2F" stroke-width="5" />
            <path
                id="22"
                d="M603.301 463.92C603.301 463.38 602.941 463 602.381 463H598.521C597.961 463 597.601 463.38 597.601 463.92V467H599.701V465H601.201V467L597.601 474.1V477H603.301V475H599.701V474.38L603.301 467.28V463.92ZM610.4 463.92C610.4 463.38 610.04 463 609.48 463H605.62C605.06 463 604.7 463.38 604.7 463.92V467H606.8V465H608.3V467L604.7 474.1V477H610.4V475H606.8V474.38L610.4 467.28V463.92Z"
                fill="#E51F2F"
            />
        </g>
        <g class="figure 21" id="figure 21">
            <rect id="Rectangle 385" x="621.5" y="426.5" width="25" height="26" fill="white" stroke="#E51F2F" stroke-width="5" />
            <path
                id="21"
                d="M634.6 433.92C634.6 433.38 634.24 433 633.68 433H629.82C629.26 433 628.9 433.38 628.9 433.92V437H631V435H632.5V437L628.9 444.1V447H634.6V445H631V444.38L634.6 437.28V433.92ZM635.899 435H636.799V447H638.899V433H635.899V435Z"
                fill="#E51F2F"
            />
        </g>
        <g class="figure 28" id="figure 28">
            <path class="rect" id="Rectangle 404" d="M729 365.5H770.5V431.5H729C713.812 431.5 701.5 419.188 701.5 404V393C701.5 377.812 713.812 365.5 729 365.5Z" fill="white" stroke="#E51F2F" stroke-width="5" />
            <path
                id="28"
                d="M735.203 392.92C735.203 392.38 734.843 392 734.283 392H730.423C729.863 392 729.503 392.38 729.503 392.92V396H731.603V394H733.103V396L729.503 403.1V406H735.203V404H731.603V403.38L735.203 396.28V392.92ZM742.402 399.96C742.402 399.14 742.022 398.62 741.382 398.4C742.022 398.18 742.402 397.64 742.402 396.84V392.92C742.402 392.38 742.042 392 741.482 392H737.622C737.062 392 736.702 392.38 736.702 392.92V396.84C736.702 397.64 737.082 398.18 737.702 398.4C737.082 398.62 736.702 399.14 736.702 399.96V405.08C736.702 405.62 737.062 406 737.622 406H741.482C742.042 406 742.402 405.62 742.402 405.08V399.96ZM740.302 399.4V404H738.802V399.4H740.302ZM738.802 397.4V394H740.302V397.4H738.802Z"
                fill="#E51F2F"
            />
        </g>
        <g class="figure 29" id="figure 29">
            <path class="rect" id="Rectangle 405" d="M819 431.5L777.5 431.5L777.5 365.5L819 365.5C834.188 365.5 846.5 377.812 846.5 393L846.5 404C846.5 419.188 834.188 431.5 819 431.5Z" fill="white" stroke="#E51F2F" stroke-width="5" />
            <path
                id="29"
                d="M810.203 392.92C810.203 392.38 809.843 392 809.283 392H805.423C804.863 392 804.503 392.38 804.503 392.92V396H806.603V394H808.103V396L804.503 403.1V406H810.203V404H806.603V403.38L810.203 396.28V392.92ZM813.802 398V394H815.302V398H813.802ZM811.702 399.08C811.702 399.62 812.062 400 812.622 400H815.302V404H813.802V401.4H811.702V405.08C811.702 405.62 812.062 406 812.622 406H816.482C817.042 406 817.402 405.62 817.402 405.08V392.92C817.402 392.38 817.042 392 816.482 392H812.622C812.062 392 811.702 392.38 811.702 392.92V399.08Z"
                fill="#E51F2F"
            />
        </g>
        <g class="figure 6" id="figure 6-4">
            <rect id="Rectangle 387" x="630.363" y="365.26" width="22.335" height="22.0906" transform="rotate(-62.9793 630.363 365.26)" fill="white" stroke="#E51F2F" stroke-width="5" />
            <path
                id="6"
                d="M646.159 360.914V365.514H644.659V360.914H646.159ZM648.259 354.434C648.259 353.894 647.899 353.514 647.339 353.514H643.479C642.919 353.514 642.559 353.894 642.559 354.434V366.594C642.559 367.134 642.919 367.514 643.479 367.514H647.339C647.899 367.514 648.259 367.134 648.259 366.594V359.834C648.259 359.294 647.899 358.914 647.339 358.914H644.659V355.514H646.159V357.514H648.259V354.434Z"
                fill="#E51F2F"
            />
        </g>
        <g class="figure 6" id="figure 6">
            <rect id="Rectangle 408" x="676.363" y="523.26" width="22.335" height="22.0906" transform="rotate(-62.9793 676.363 523.26)" fill="white" stroke="#E51F2F" stroke-width="5" />
            <path
                id="6_2"
                d="M691.753 518.4V523H690.253V518.4H691.753ZM693.853 511.92C693.853 511.38 693.493 511 692.933 511H689.073C688.513 511 688.153 511.38 688.153 511.92V524.08C688.153 524.62 688.513 525 689.073 525H692.933C693.493 525 693.853 524.62 693.853 524.08V517.32C693.853 516.78 693.493 516.4 692.933 516.4H690.253V513H691.753V515H693.853V511.92Z"
                fill="#E51F2F"
            />
        </g>
        <g class="figure 6" id="figure 6-2">
            <rect id="Rectangle 409" x="874.363" y="496.26" width="22.335" height="22.0906" transform="rotate(-62.9793 874.363 496.26)" fill="white" stroke="#E51F2F" stroke-width="5" />
            <path
                id="6_3"
                d="M889.753 491.4V496H888.253V491.4H889.753ZM891.853 484.92C891.853 484.38 891.493 484 890.933 484H887.073C886.513 484 886.153 484.38 886.153 484.92V497.08C886.153 497.62 886.513 498 887.073 498H890.933C891.493 498 891.853 497.62 891.853 497.08V490.32C891.853 489.78 891.493 489.4 890.933 489.4H888.253V486H889.753V488H891.853V484.92Z"
                fill="#E51F2F"
            />
        </g>
        <g class="figure 7" id="figure 7">
            <rect id="Rectangle 394" x="865.524" y="529.676" width="23.3641" height="21.0806" transform="rotate(-40.429 865.524 529.676)" fill="white" stroke="#E51F2F" stroke-width="5" />
            <path id="7" d="M880.251 538.073H882.351V531.673L884.091 525.873V524.073H878.491V526.073H881.931L880.251 531.673V538.073Z" fill="#E51F2F" />
        </g>
        <g class="figure 8" id="figure 8-1">
            <rect id="Rectangle 389" x="952.415" y="535.421" width="45.0406" height="27.3872" transform="rotate(-60 952.415 535.421)" fill="white" stroke="#E51F2F" stroke-width="5" />
            <path
                id="8"
                d="M978.306 524.406C978.306 523.586 977.926 523.066 977.286 522.846C977.926 522.626 978.306 522.086 978.306 521.286V517.366C978.306 516.826 977.946 516.446 977.386 516.446H973.526C972.966 516.446 972.606 516.826 972.606 517.366V521.286C972.606 522.086 972.986 522.626 973.606 522.846C972.986 523.066 972.606 523.586 972.606 524.406V529.526C972.606 530.066 972.966 530.446 973.526 530.446H977.386C977.946 530.446 978.306 530.066 978.306 529.526V524.406ZM976.206 523.846V528.446H974.706V523.846H976.206ZM974.706 521.846V518.446H976.206V521.846H974.706Z"
                fill="#E51F2F"
            />
        </g>
        <g class="figure 8" id="figure 8-2">
            <rect id="Rectangle 388" x="871.415" y="604.418" width="44.0053" height="24.4231" transform="rotate(-30 871.415 604.418)" fill="white" stroke="#E51F2F" stroke-width="5" />
            <path
                id="8_2"
                d="M899.681 604.551C899.681 603.731 899.301 603.211 898.661 602.991C899.301 602.771 899.681 602.231 899.681 601.431V597.511C899.681 596.971 899.321 596.591 898.761 596.591H894.901C894.341 596.591 893.981 596.971 893.981 597.511V601.431C893.981 602.231 894.361 602.771 894.981 602.991C894.361 603.211 893.981 603.731 893.981 604.551V609.671C893.981 610.211 894.341 610.591 894.901 610.591H898.761C899.321 610.591 899.681 610.211 899.681 609.671V604.551ZM897.581 603.991V608.591H896.081V603.991H897.581ZM896.081 601.991V598.591H897.581V601.991H896.081Z"
                fill="#E51F2F"
            />
        </g>
        <g class="figure 9" id="figure 9">
            <rect id="Rectangle 392" x="926.888" y="540.536" width="35.6687" height="21.6936" transform="rotate(45.0504 926.888 540.536)" fill="white" stroke="#E51F2F" stroke-width="5" />
            <path
                id="9"
                d="M931.456 560.403V556.403H932.956V560.403H931.456ZM929.356 561.483C929.356 562.023 929.716 562.403 930.276 562.403H932.956V566.403H931.456V563.803H929.356V567.483C929.356 568.023 929.716 568.403 930.276 568.403H934.136C934.696 568.403 935.056 568.023 935.056 567.483V555.323C935.056 554.783 934.696 554.403 934.136 554.403H930.276C929.716 554.403 929.356 554.783 929.356 555.323V561.483Z"
                fill="#E51F2F"
            />
        </g>
        <g class="figure 10" id="figure 10">
            <rect id="Rectangle 391" x="1025.5" y="560.5" width="120" height="54" rx="26.5" fill="white" stroke="#E51F2F" stroke-width="5" />
            <path
                id="10"
                d="M1080.7 582H1081.6V594H1083.7V580H1080.7V582ZM1087.5 592V582H1089V592H1087.5ZM1090.18 594C1090.74 594 1091.1 593.62 1091.1 593.08V580.92C1091.1 580.38 1090.74 580 1090.18 580H1086.32C1085.76 580 1085.4 580.38 1085.4 580.92V593.08C1085.4 593.62 1085.76 594 1086.32 594H1090.18Z"
                fill="#E51F2F"
            />
        </g>
        <g class="figure 11" id="figure 11">
            <rect id="Rectangle 399" x="1018.5" y="383.5" width="138" height="63" fill="white" stroke="#E51F2F" stroke-width="5" />
            <path id="11" d="M1084.1 410H1085V422H1087.1V408H1084.1V410ZM1088.6 410H1089.5V422H1091.6V408H1088.6V410Z" fill="#E51F2F" />
        </g>
        <g class="figure 12" id="figure 12">
            <rect id="Rectangle 398" x="970.5" y="416.5" width="19" height="25" fill="white" stroke="#E51F2F" stroke-width="5" />
            <path
                id="12"
                d="M974.8 424H975.7V436H977.8V422H974.8V424ZM985.101 422.92C985.101 422.38 984.741 422 984.181 422H980.321C979.761 422 979.401 422.38 979.401 422.92V426H981.501V424H983.001V426L979.401 433.1V436H985.101V434H981.501V433.38L985.101 426.28V422.92Z"
                fill="#E51F2F"
            />
        </g>
        <g class="figure 8" id="figure 8-3">
            <rect id="Rectangle 390" x="966.5" y="656.5" width="150" height="50" fill="white" stroke="#E51F2F" stroke-width="5" />
            <path
                id="8_3"
                d="M1044.85 681.96C1044.85 681.14 1044.47 680.62 1043.83 680.4C1044.47 680.18 1044.85 679.64 1044.85 678.84V674.92C1044.85 674.38 1044.49 674 1043.93 674H1040.07C1039.51 674 1039.15 674.38 1039.15 674.92V678.84C1039.15 679.64 1039.53 680.18 1040.15 680.4C1039.53 680.62 1039.15 681.14 1039.15 681.96V687.08C1039.15 687.62 1039.51 688 1040.07 688H1043.93C1044.49 688 1044.85 687.62 1044.85 687.08V681.96ZM1042.75 681.4V686H1041.25V681.4H1042.75ZM1041.25 679.4V676H1042.75V679.4H1041.25Z"
                fill="#E51F2F"
            />
        </g>
        <g class="figure 6" id="figure 6-3">
            <rect id="Rectangle 410" x="861.518" y="326.797" width="22.335" height="22.0906" transform="rotate(-50.6818 861.518 326.797)" fill="white" stroke="#E51F2F" stroke-width="5" />
            <path
                id="6_4"
                d="M877.616 325.227V329.827H876.116V325.227H877.616ZM879.716 318.747C879.716 318.207 879.356 317.827 878.796 317.827H874.936C874.376 317.827 874.016 318.207 874.016 318.747V330.907C874.016 331.447 874.376 331.827 874.936 331.827H878.796C879.356 331.827 879.716 331.447 879.716 330.907V324.147C879.716 323.607 879.356 323.227 878.796 323.227H876.116V319.827H877.616V321.827H879.716V318.747Z"
                fill="#E51F2F"
            />
        </g>
        <g class="figure 13" id="figure 13">
            <rect id="Rectangle 397" x="919.526" y="305.335" width="44.0053" height="24.4231" transform="rotate(-40.8939 919.526 305.335)" fill="white" stroke="#E51F2F" stroke-width="5" />
            <path
                id="13"
                d="M938.909 295.47H939.809V307.47H941.909V293.47H938.909V295.47ZM948.391 307.47C948.951 307.47 949.311 307.09 949.311 306.55V299.43C949.311 298.89 948.951 298.51 948.391 298.51H947.291L949.211 295.27V293.47H943.711V295.47H947.011L945.111 298.65V300.51H947.211V305.47H945.711V302.87H943.611V306.55C943.611 307.09 943.971 307.47 944.531 307.47H948.391Z"
                fill="#E51F2F"
            />
        </g>
        <g class="figure 14" id="figure 14">
            <rect id="Rectangle 401" x="825.082" y="287.978" width="35.2648" height="23.8015" transform="rotate(12.3841 825.082 287.978)" fill="white" stroke="#E51F2F" stroke-width="5" />
            <path
                id="14"
                d="M834.192 297.92H835.092V309.92H837.192V295.92H834.192V297.92ZM844.294 309.92V307.32H845.094V305.32H844.294V303.12L842.194 303.52V305.32H840.954L843.654 295.92H841.454L838.694 305.52V307.32H842.194V309.92H844.294Z"
                fill="#E51F2F"
            />
        </g>
        <g class="figure 17" id="figure 17">
            <rect id="Rectangle 400" x="602.967" y="275.532" width="44.0053" height="24.4231" transform="rotate(42.2943 602.967 275.532)" fill="white" stroke="#E51F2F" stroke-width="5" />
            <path id="17" d="M606.194 294.47H607.094V306.47H609.194V292.47H606.194V294.47ZM612.256 306.47H614.356V300.07L616.096 294.27V292.47H610.496V294.47H613.936L612.256 300.07V306.47Z" fill="#E51F2F" />
        </g>
        <g class="figure 15" id="figure 15">
            <rect id="Rectangle 402" x="750.5" y="172.5" width="50" height="105" fill="white" stroke="#E51F2F" stroke-width="5" />
            <path
                id="15"
                d="M770.702 219H771.602V231H773.702V217H770.702V219ZM779.004 223.6V229H777.504V226.4H775.404V230.08C775.404 230.62 775.764 231 776.324 231H780.184C780.744 231 781.104 230.62 781.104 230.08V222.52C781.104 221.98 780.744 221.6 780.184 221.6H777.504V219H781.004V217H775.404V224.4H777.504V223.6H779.004Z"
                fill="#E51F2F"
            />
        </g>
        <g class="figure 16" id="figure 16">
            <rect id="Rectangle 403" x="750.5" y="125.5" width="50" height="28" fill="white" stroke="#E51F2F" stroke-width="5" />
            <path
                id="16"
                d="M770.702 134H771.602V146H773.702V132H770.702V134ZM779.004 139.4V144H777.504V139.4H779.004ZM781.104 132.92C781.104 132.38 780.744 132 780.184 132H776.324C775.764 132 775.404 132.38 775.404 132.92V145.08C775.404 145.62 775.764 146 776.324 146H780.184C780.744 146 781.104 145.62 781.104 145.08V138.32C781.104 137.78 780.744 137.4 780.184 137.4H777.504V134H779.004V136H781.104V132.92Z"
                fill="#E51F2F"
            />
        </g>
        <g class="figure 26" id="figure 26">
            <rect id="Rectangle 374" x="409.5" y="561.5" width="121" height="54" rx="26.5" fill="white" stroke="#E51F2F" stroke-width="5" />
            <path
                id="26"
                d="M469.203 581.92C469.203 581.38 468.843 581 468.283 581H464.423C463.863 581 463.503 581.38 463.503 581.92V585H465.603V583H467.103V585L463.503 592.1V595H469.203V593H465.603V592.38L469.203 585.28V581.92ZM474.302 588.4V593H472.802V588.4H474.302ZM476.402 581.92C476.402 581.38 476.042 581 475.482 581H471.622C471.062 581 470.702 581.38 470.702 581.92V594.08C470.702 594.62 471.062 595 471.622 595H475.482C476.042 595 476.402 594.62 476.402 594.08V587.32C476.402 586.78 476.042 586.4 475.482 586.4H472.802V583H474.302V585H476.402V581.92Z"
                fill="#E51F2F"
            />
        </g>
    </g>
</svg>
