<svg class="map__scheme" width="1522" height="836" viewBox="0 0 1522 836" fill="none" xmlns="http://www.w3.org/2000/svg">
    <g id="Group 37583">
        <g class="figure figure_24" id="figure 24">
            <rect id="Rectangle 394" x="707.536" y="446.554" width="23.4648" height="21.2349" transform="rotate(-17.0439 707.536 446.554)" fill="#EBEBEB" stroke="#EB3333" stroke-width="4.2342" />
            <path
                id="24"
                d="M721.3 449.234V452.079L718.252 458.092V458.617H721.3V460.31H716.473V457.855L719.522 451.842V450.148H718.252V451.842H716.473V449.234C716.473 448.776 716.778 448.455 717.253 448.455H720.521C720.996 448.455 721.3 448.776 721.3 449.234ZM727.143 460.31H725.365V458.109H722.401V456.584L724.738 448.455H726.601L724.315 456.415H725.365V454.891L727.143 454.552V456.415H727.82V458.109H727.143V460.31Z"
                fill="#EB3333"
            />
        </g>
        <g class="figure figure_23" id="figure 23">
            <rect id="Rectangle 401" x="577.602" y="250.089" width="29.8637" height="20.1561" transform="rotate(-15.2101 577.602 250.089)" fill="#EBEBEB" stroke="#EB3333" stroke-width="4.2342" />
            <path
                id="23"
                d="M593.89 250.5V253.346L590.842 259.358V259.883H593.89V261.577H589.063V259.121L592.112 253.108V251.415H590.842V253.108H589.063V250.5C589.063 250.043 589.368 249.721 589.843 249.721H593.111C593.586 249.721 593.89 250.043 593.89 250.5ZM599.208 261.577H595.939C595.465 261.577 595.16 261.255 595.16 260.798V257.681H596.938V259.883H598.209V255.683H596.43V254.108L598.039 251.415H595.245V249.721H599.902V251.245L598.276 253.989H599.208C599.682 253.989 599.987 254.311 599.987 254.768V260.798C599.987 261.255 599.682 261.577 599.208 261.577Z"
                fill="#EB3333"
            />
        </g>
        <g class="figure figure_22" id="figure 22-2">
            <rect id="Rectangle 402" x="635.549" y="141.685" width="42.342" height="93.3121" fill="#EB3333" stroke="#EBEBEB" stroke-width="4.2342" />
            <path
                id="22"
                d="M656.551 182.172V185.017L653.503 191.03V191.555H656.551V193.248H651.724V190.793L654.773 184.78V183.086H653.503V184.78H651.724V182.172C651.724 181.714 652.029 181.393 652.504 181.393H655.772C656.247 181.393 656.551 181.714 656.551 182.172ZM662.563 182.172V185.017L659.515 191.03V191.555H662.563V193.248H657.736V190.793L660.785 184.78V183.086H659.515V184.78H657.736V182.172C657.736 181.714 658.041 181.393 658.515 181.393H661.784C662.259 181.393 662.563 181.714 662.563 182.172Z"
                fill="#EBEBEB"
            />
        </g>
        <g class="figure figure_22" id="figure 22">
            <rect id="Rectangle 386" x="635.109" y="250.239" width="25.3712" height="18.3223" fill="#EBEBEB" stroke="#EB3333" stroke-width="4.2342" />
            <path
                id="22_2"
                d="M646.796 254.684V257.529L643.747 263.542V264.067H646.796V265.76H641.969V263.305L645.018 257.292V255.598H643.747V257.292H641.969V254.684C641.969 254.227 642.274 253.905 642.748 253.905H646.017C646.491 253.905 646.796 254.227 646.796 254.684ZM652.808 254.684V257.529L649.759 263.542V264.067H652.808V265.76H647.981V263.305L651.03 257.292V255.598H649.759V257.292H647.981V254.684C647.981 254.227 648.286 253.905 648.76 253.905H652.029C652.503 253.905 652.808 254.227 652.808 254.684Z"
                fill="#EB3333"
            />
        </g>
        <g class="figure figure_21" id="figure 21">
            <rect id="Rectangle 385" x="535.894" y="282.52" width="21.171" height="22.0179" transform="rotate(-48.4686 535.894 282.52)" fill="#EBEBEB" stroke="#EB3333" stroke-width="4.2342" />
            <path
                id="21"
                d="M552.031 277.24V280.086L548.982 286.098V286.623H552.031V288.317H547.204V285.861L550.252 279.849V278.155H548.982V279.849H547.204V277.24C547.204 276.783 547.509 276.461 547.983 276.461H551.252C551.726 276.461 552.031 276.783 552.031 277.24ZM553.131 278.155V276.461H555.672V288.317H553.893V278.155H553.131Z"
                fill="#EB3333"
            />
        </g>
        <g class="figure figure_20" id="figure 20">
            <rect id="Rectangle 386_2" x="687.771" y="273.068" width="20.627" height="21.4565" transform="rotate(7.97015 687.771 273.068)" fill="#EBEBEB" stroke="#EB3333" stroke-width="4.2342" />
            <path
                id="20"
                d="M696.055 280.457V283.303L693.007 289.315V289.84H696.055V291.534H691.228V289.078L694.277 283.065V281.372H693.007V283.065H691.228V280.457C691.228 280 691.533 279.678 692.008 279.678H695.276C695.751 279.678 696.055 280 696.055 280.457ZM699.103 289.84H700.374V281.372H699.103V289.84ZM701.373 291.534H698.104C697.63 291.534 697.325 291.212 697.325 290.755V280.457C697.325 280 697.63 279.678 698.104 279.678H701.373C701.847 279.678 702.152 280 702.152 280.457V290.755C702.152 291.212 701.847 291.534 701.373 291.534Z"
                fill="#EB3333"
            />
        </g>
        <g class="figure figure_19" id="figure 19">
            <path id="Rectangle 403" d="M587.254 133.423L590.514 112.514L705.247 93.9642L715.712 112.761L587.254 133.423Z" fill="#EBEBEB" stroke="#EB3333" stroke-width="4.2342" />
            <path
                id="19"
                d="M645.683 109.413V107.719H648.223V119.575H646.445V109.413H645.683ZM651.443 112.8H652.713V109.413H651.443V112.8ZM649.664 113.715V108.498C649.664 108.041 649.969 107.719 650.443 107.719H653.712C654.186 107.719 654.491 108.041 654.491 108.498V118.796C654.491 119.253 654.186 119.575 653.712 119.575H650.443C649.969 119.575 649.664 119.253 649.664 118.796V115.679H651.443V117.881H652.713V114.494H650.443C649.969 114.494 649.664 114.172 649.664 113.715Z"
                fill="#EB3333"
            />
        </g>
        <g class="figure figure_18" id="figure 18">
            <rect id="Rectangle 399" x="925.431" y="324.957" width="55.0693" height="53.5668" fill="#EBEBEB" stroke="#EB3333" stroke-width="4.2342" />
            <path
                id="18"
                d="M948.763 348.644V346.95H951.304V358.806H949.526V348.644H948.763ZM957.572 353.691V358.027C957.572 358.484 957.267 358.806 956.793 358.806H953.524C953.05 358.806 952.745 358.484 952.745 358.027V353.691C952.745 352.997 953.067 352.556 953.592 352.37C953.067 352.184 952.745 351.727 952.745 351.049V347.729C952.745 347.272 953.05 346.95 953.524 346.95H956.793C957.267 346.95 957.572 347.272 957.572 347.729V351.049C957.572 351.727 957.25 352.184 956.708 352.37C957.25 352.556 957.572 352.997 957.572 353.691ZM955.794 353.217H954.523V357.112H955.794V353.217ZM954.523 351.523H955.794V348.644H954.523V351.523Z"
                fill="#EB3333"
            />
        </g>
        <g class="figure figure_17" id="figure 17">
            <rect id="Rectangle 399_2" x="862.084" y="324.957" width="55.0693" height="53.5668" fill="#EBEBEB" stroke="#EB3333" stroke-width="4.2342" />
            <path id="17" d="M885.796 348.644V346.95H888.337V358.806H886.558V348.644H885.796ZM890.93 358.806V353.386L892.352 348.644H889.439V346.95H894.181V348.475L892.708 353.386V358.806H890.93Z" fill="#EB3333" />
        </g>
        <g class="figure figure_16" id="figure 16-4">
            <rect id="Rectangle 401_2" x="0.627506" y="2.92754" width="21.0051" height="20.1561" transform="matrix(-0.543203 0.839601 0.839601 0.543203 567.675 399.72)" fill="#EBEBEB" stroke="#EB3333" stroke-width="4.2342" />
            <path id="Vector 22" d="M602.654 418.705L594.195 416.59L586.441 413.066L569.524 401.788L563.18 394.739L558.246 387.69" stroke="#EB3333" stroke-width="4.22934" />
            <path
                id="16"
                d="M567.863 412.654V410.96H570.403V422.816H568.625V412.654H567.863ZM574.893 417.227H573.623V421.122H574.893V417.227ZM576.671 411.739V414.347H574.893V412.654H573.623V415.533H575.892C576.366 415.533 576.671 415.855 576.671 416.312V422.037C576.671 422.494 576.366 422.816 575.892 422.816H572.623C572.149 422.816 571.844 422.494 571.844 422.037V411.739C571.844 411.282 572.149 410.96 572.623 410.96H575.892C576.366 410.96 576.671 411.282 576.671 411.739Z"
                fill="#EB3333"
            />
        </g>
        <g class="figure figure_16" class="figure figure_16" id="figure 16-3">
            <rect id="Rectangle 401_3" x="742.687" y="401.837" width="21.0051" height="20.1561" transform="rotate(57.0981 742.687 401.837)" fill="#EBEBEB" stroke="#EB3333" stroke-width="4.2342" />
            <path id="Vector 22_2" d="M709.825 418.705L718.284 416.59L726.037 413.066L742.955 401.788L749.299 394.739L754.233 387.69" stroke="#EB3333" stroke-width="4.22934" />
            <path
                id="16_2"
                d="M735.642 412.654V410.96H738.183V422.816H736.405V412.654H735.642ZM742.672 417.227H741.402V421.122H742.672V417.227ZM744.451 411.739V414.347H742.672V412.654H741.402V415.533H743.672C744.146 415.533 744.451 415.855 744.451 416.312V422.037C744.451 422.494 744.146 422.816 743.672 422.816H740.403C739.929 422.816 739.624 422.494 739.624 422.037V411.739C739.624 411.282 739.929 410.96 740.403 410.96H743.672C744.146 410.96 744.451 411.282 744.451 411.739Z"
                fill="#EB3333"
            />
        </g>
        <g class="figure figure_16" id="figure 16-2">
            <rect id="Rectangle 401_4" x="0.0880415" y="2.99274" width="21.0051" height="20.1561" transform="matrix(-0.686008 0.727594 0.727594 0.686008 581.609 283.855)" fill="#EBEBEB" stroke="#EB3333" stroke-width="4.2342" />
            <path id="Vector 22_3" d="M558.273 317.201L561.798 309.447L566.732 302.398L584.354 284.071L594.223 279.137L603.386 276.317" stroke="#EB3333" stroke-width="4.22934" />
            <path
                id="16_3"
                d="M579.169 297.051V295.358H581.709V307.214H579.931V297.051H579.169ZM586.199 301.624H584.928V305.52H586.199V301.624ZM587.977 296.137V298.745H586.199V297.051H584.928V299.931H587.198C587.672 299.931 587.977 300.252 587.977 300.71V306.434C587.977 306.892 587.672 307.214 587.198 307.214H583.929C583.455 307.214 583.15 306.892 583.15 306.434V296.137C583.15 295.68 583.455 295.358 583.929 295.358H587.198C587.672 295.358 587.977 295.68 587.977 296.137Z"
                fill="#EB3333"
            />
        </g>
        <g class="figure figure_16" id="figure 16">
            <rect id="Rectangle 401_5" x="733.714" y="285.972" width="21.0051" height="20.1561" transform="rotate(46.6851 733.714 285.972)" fill="#EBEBEB" stroke="#EB3333" stroke-width="4.2342" />
            <path id="Vector 22_4" d="M759.167 317.201L755.643 309.447L750.709 302.398L733.086 284.071L723.218 279.137L714.054 276.317" stroke="#EB3333" stroke-width="4.22934" />
            <path
                id="16_4"
                d="M729.298 297.051V295.358H731.839V307.214H730.061V297.051H729.298ZM736.329 301.624H735.058V305.52H736.329V301.624ZM738.107 296.137V298.745H736.329V297.051H735.058V299.931H737.328C737.802 299.931 738.107 300.252 738.107 300.71V306.434C738.107 306.892 737.802 307.214 737.328 307.214H734.059C733.585 307.214 733.28 306.892 733.28 306.434V296.137C733.28 295.68 733.585 295.358 734.059 295.358H737.328C737.802 295.358 738.107 295.68 738.107 296.137Z"
                fill="#EB3333"
            />
        </g>
        <g class="figure figure_15" id="figure 15-4">
            <rect id="Rectangle 409" x="-2.34874" y="1.85679" width="18.9142" height="18.7072" transform="matrix(-0.993228 -0.116184 -0.116184 0.993228 632.158 418.459)" fill="#EBEBEB" stroke="#EB3333" stroke-width="4.2342" />
            <path
                id="15"
                d="M618.936 425.043V423.349H621.476V435.205H619.698V425.043H618.936ZM625.966 428.939H624.696V429.616H622.917V423.349H627.66V425.043H624.696V427.245H626.965C627.44 427.245 627.744 427.567 627.744 428.024V434.426C627.744 434.883 627.44 435.205 626.965 435.205H623.697C623.222 435.205 622.917 434.883 622.917 434.426V431.31H624.696V433.512H625.966V428.939Z"
                fill="#EB3333"
            />
        </g>
        <g class="figure figure_15" id="figure 15-3">
            <rect id="Rectangle 409_2" x="598.041" y="450.474" width="18.9142" height="18.7072" transform="rotate(-0.264777 598.041 450.474)" fill="#EBEBEB" stroke="#EB3333" stroke-width="4.2342" />
            <path
                id="15_2"
                d="M603.428 456.059V454.365H605.968V466.221H604.19V456.059H603.428ZM610.458 459.954H609.188V460.632H607.409V454.365H612.152V456.059H609.188V458.261H611.457C611.931 458.261 612.236 458.583 612.236 459.04V465.442C612.236 465.899 611.931 466.221 611.457 466.221H608.188C607.714 466.221 607.409 465.899 607.409 465.442V462.326H609.188V464.527H610.458V459.954Z"
                fill="#EB3333"
            />
        </g>
        <g class="figure figure_15" id="figure 15-2">
            <rect id="Rectangle 409_3" x="684.377" y="450.474" width="18.9142" height="18.7072" transform="rotate(-0.264777 684.377 450.474)" fill="#EBEBEB" stroke="#EB3333" stroke-width="4.2342" />
            <path
                id="15_3"
                d="M689.763 456.059V454.365H692.303V466.221H690.525V456.059H689.763ZM696.793 459.954H695.523V460.632H693.744V454.365H698.487V456.059H695.523V458.261H697.792C698.267 458.261 698.571 458.583 698.571 459.04V465.442C698.571 465.899 698.267 466.221 697.792 466.221H694.524C694.049 466.221 693.744 465.899 693.744 465.442V462.326H695.523V464.527H696.793V459.954Z"
                fill="#EB3333"
            />
        </g>
        <g class="figure figure_15" id="figure 15">
            <rect id="Rectangle 409_4" x="686.216" y="420.576" width="18.9142" height="18.7072" transform="rotate(-6.67195 686.216 420.576)" fill="#EBEBEB" stroke="#EB3333" stroke-width="4.2342" />
            <path
                id="15_4"
                d="M692.582 425.043V423.349H695.123V435.205H693.345V425.043H692.582ZM699.613 428.939H698.342V429.616H696.564V423.349H701.306V425.043H698.342V427.245H700.612C701.086 427.245 701.391 427.567 701.391 428.024V434.426C701.391 434.883 701.086 435.205 700.612 435.205H697.343C696.869 435.205 696.564 434.883 696.564 434.426V431.31H698.342V433.512H699.613V428.939Z"
                fill="#EB3333"
            />
        </g>
        <g class="figure figure_14" id="figure 14">
            <rect id="Rectangle 401_6" x="811.042" y="222.324" width="28.744" height="49.0167" transform="rotate(45.5983 811.042 222.324)" fill="#EBEBEB" stroke="#EB3333" stroke-width="4.2342" />
            <path
                id="14"
                d="M797.845 245.73V244.036H800.386V255.892H798.607V245.73H797.845ZM806.4 255.892H804.621V253.69H801.657V252.166L803.995 244.036H805.858L803.571 251.997H804.621V250.472L806.4 250.134V251.997H807.077V253.69H806.4V255.892Z"
                fill="#EB3333"
            />
        </g>
        <g class="figure figure_13" id="figure 13">
            <rect id="Rectangle 410" x="750.166" y="284.029" width="20.5674" height="20.6649" transform="rotate(-39.8826 750.166 284.029)" fill="#EBEBEB" stroke="#EB3333" stroke-width="4.2342" />
            <path
                id="13"
                d="M759.955 282.276V280.583H762.496V292.438H760.717V282.276H759.955ZM767.985 292.438H764.716C764.242 292.438 763.937 292.117 763.937 291.659V288.543H765.715V290.745H766.985V286.544H765.207V284.969L766.816 282.276H764.021V280.583H768.679V282.107L767.053 284.851H767.985C768.459 284.851 768.764 285.172 768.764 285.63V291.659C768.764 292.117 768.459 292.438 767.985 292.438Z"
                fill="#EB3333"
            />
        </g>
        <g class="figure figure_12" id="figure 12">
            <rect id="Rectangle 386_3" x="477.495" y="316.498" width="20.3242" height="21.171" fill="#EBEBEB" stroke="#EB3333" stroke-width="4.2342" />
            <path
                id="12"
                d="M483.679 322.993V321.3H486.219V333.155H484.441V322.993H483.679ZM492.403 322.079V324.924L489.354 330.937V331.462H492.403V333.155H487.576V330.7L490.624 324.687V322.993H489.354V324.687H487.576V322.079C487.576 321.621 487.881 321.3 488.355 321.3H491.624C492.098 321.3 492.403 321.621 492.403 322.079Z"
                fill="#EB3333"
            />
        </g>
        <g class="figure figure_11" id="figure 11">
            <rect id="Rectangle 382" x="570.339" y="441.775" width="22.3529" height="22.7053" transform="rotate(127.951 570.339 441.775)" fill="#EBEBEB" stroke="#EB3333" stroke-width="4.2342" />
            <path id="Vector 24" d="M591.432 450.425L580.858 447.606L570.962 441.966L551.958 427.164L545.586 418L540.652 408.837" stroke="#EB3333" stroke-width="4.22934" />
            <path id="11" d="M551.774 440.281V438.587H554.314V450.443H552.536V440.281H551.774ZM555.586 440.281V438.587H558.126V450.443H556.348V440.281H555.586Z" fill="#EB3333" />
        </g>
        <g class="figure figure_10" id="figure 10">
            <path
                class="rect"
                id="Rectangle 441"
                d="M594.226 336.233C594.226 320.662 606.848 308.039 622.419 308.039H690.088C705.659 308.039 718.281 320.662 718.281 336.233C718.281 351.803 705.659 364.426 690.088 364.426H622.419C606.848 364.426 594.226 351.803 594.226 336.233Z"
                fill="#EBEBEB"
                stroke="#EB3333"
                stroke-width="4.2342"
            />
            <path
                id="10"
                d="M652.198 332.105V330.411H654.739V342.267H652.96V332.105H652.198ZM657.958 340.573H659.228V332.105H657.958V340.573ZM660.228 342.267H656.959C656.485 342.267 656.18 341.945 656.18 341.488V331.19C656.18 330.733 656.485 330.411 656.959 330.411H660.228C660.702 330.411 661.007 330.733 661.007 331.19V341.488C661.007 341.945 660.702 342.267 660.228 342.267Z"
                fill="#EB3333"
            />
        </g>
        <g class="figure figure_9" id="figure 9-6">
            <rect id="Rectangle 389" x="806.544" y="453.416" width="38.1423" height="23.1926" transform="rotate(-60 806.544 453.416)" fill="#EBEBEB" stroke="#EB3333" stroke-width="4.2342" />
            <path
                id="9"
                d="M825.42 442.573H826.691V439.186H825.42V442.573ZM823.642 443.488V438.271C823.642 437.814 823.947 437.492 824.421 437.492H827.69C828.164 437.492 828.469 437.814 828.469 438.271V448.569C828.469 449.026 828.164 449.348 827.69 449.348H824.421C823.947 449.348 823.642 449.026 823.642 448.569V445.452H825.42V447.654H826.691V444.267H824.421C823.947 444.267 823.642 443.945 823.642 443.488Z"
                fill="#EB3333"
            />
        </g>
        <g class="figure figure_9" id="figure 9-5">
            <rect id="Rectangle 391" x="868.436" y="474.655" width="101.621" height="45.7294" rx="22.4413" fill="#EBEBEB" stroke="#EB3333" stroke-width="4.2342" />
            <path
                id="9_2"
                d="M919.039 496.393H920.309V493.006H919.039V496.393ZM917.26 497.308V492.091C917.26 491.634 917.565 491.312 918.039 491.312H921.308C921.782 491.312 922.087 491.634 922.087 492.091V502.389C922.087 502.846 921.782 503.168 921.308 503.168H918.039C917.565 503.168 917.26 502.846 917.26 502.389V499.273H919.039V501.474H920.309V498.087H918.039C917.565 498.087 917.26 497.765 917.26 497.308Z"
                fill="#EB3333"
            />
        </g>
        <g class="figure figure_9" id="figure 9-4">
            <rect id="Rectangle 399_3" x="911.426" y="558.981" width="32.4201" height="36.6495" fill="#EBEBEB" stroke="#EB3333" stroke-width="4.2342" />
            <path
                id="9_3"
                d="M927.302 577.596H928.572V574.209H927.302V577.596ZM925.523 578.511V573.295C925.523 572.837 925.828 572.515 926.303 572.515H929.571C930.046 572.515 930.35 572.837 930.35 573.295V583.592C930.35 584.049 930.046 584.371 929.571 584.371H926.303C925.828 584.371 925.523 584.049 925.523 583.592V580.476H927.302V582.678H928.572V579.29H926.303C925.828 579.29 925.523 578.968 925.523 578.511Z"
                fill="#EB3333"
            />
        </g>
        <g class="figure figure_9" id="figure 9-3">
            <rect id="Rectangle 399_4" x="866.313" y="558.981" width="32.4201" height="36.6495" fill="#EBEBEB" stroke="#EB3333" stroke-width="4.2342" />
            <path
                id="9_4"
                d="M882.189 577.596H883.459V574.209H882.189V577.596ZM880.41 578.511V573.295C880.41 572.837 880.715 572.515 881.189 572.515H884.458C884.932 572.515 885.237 572.837 885.237 573.295V583.592C885.237 584.049 884.932 584.371 884.458 584.371H881.189C880.715 584.371 880.41 584.049 880.41 583.592V580.476H882.189V582.678H883.459V579.29H881.189C880.715 579.29 880.41 578.968 880.41 578.511Z"
                fill="#EB3333"
            />
        </g>
        <g class="figure figure_9" id="figure 9-2">
            <rect id="Rectangle 399_5" x="819.79" y="558.981" width="32.4201" height="36.6495" fill="#EBEBEB" stroke="#EB3333" stroke-width="4.2342" />
            <path
                id="9_5"
                d="M835.666 577.596H836.936V574.209H835.666V577.596ZM833.888 578.511V573.295C833.888 572.837 834.193 572.515 834.667 572.515H837.936C838.41 572.515 838.715 572.837 838.715 573.295V583.592C838.715 584.049 838.41 584.371 837.936 584.371H834.667C834.193 584.371 833.888 584.049 833.888 583.592V580.476H835.666V582.678H836.936V579.29H834.667C834.193 579.29 833.888 578.968 833.888 578.511Z"
                fill="#EB3333"
            />
        </g>
        <g class="figure figure_9" id="figure 9">
            <rect id="Rectangle 388" x="737.952" y="511.846" width="37.2655" height="20.6825" transform="rotate(-30 737.952 511.846)" fill="#EBEBEB" stroke="#EB3333" stroke-width="4.2342" />
            <path
                id="9_6"
                d="M758.844 510.443H760.114V507.056H758.844V510.443ZM757.065 511.358V506.141C757.065 505.684 757.37 505.362 757.845 505.362H761.113C761.588 505.362 761.892 505.684 761.892 506.141V516.439C761.892 516.896 761.588 517.218 761.113 517.218H757.845C757.37 517.218 757.065 516.896 757.065 516.439V513.322H758.844V515.524H760.114V512.137H757.845C757.37 512.137 757.065 511.815 757.065 511.358Z"
                fill="#EB3333"
            />
        </g>
        <g class="figure figure_8" id="figure 8">
            <rect id="Rectangle 382_2" x="2.99115" y="-0.131411" width="22.3529" height="22.7053" transform="matrix(0.737461 0.67539 0.67539 -0.737461 754.797 432.444)" fill="#EBEBEB" stroke="#EB3333" stroke-width="4.2342" />
            <path id="Vector 24_2" d="M736.61 446.901L747.888 441.966L757.051 434.918L772.559 417.295L778.198 407.427L781.723 397.558" stroke="#EB3333" stroke-width="4.22934" />
            <path
                id="8"
                d="M774.675 435.459V439.795C774.675 440.252 774.37 440.574 773.896 440.574H770.627C770.153 440.574 769.848 440.252 769.848 439.795V435.459C769.848 434.765 770.17 434.325 770.695 434.138C770.17 433.952 769.848 433.495 769.848 432.817V429.498C769.848 429.04 770.153 428.718 770.627 428.718H773.896C774.37 428.718 774.675 429.04 774.675 429.498V432.817C774.675 433.495 774.353 433.952 773.811 434.138C774.353 434.325 774.675 434.765 774.675 435.459ZM772.896 434.985H771.626V438.881H772.896V434.985ZM771.626 433.291H772.896V430.412H771.626V433.291Z"
                fill="#EB3333"
            />
        </g>
        <g class="figure figure_7" id="figure 7-2">
            <path id="Vector 23" d="M552.634 340.462L566.027 335.528C571.666 353.15 578.715 365.838 586.469 374.297L573.076 384.165C558.273 367.248 553.339 347.981 552.634 340.462Z" fill="#EBEBEB" stroke="#EB3333" stroke-width="4.22934" />
            <path id="7" d="M566.152 365.855V360.435L567.574 355.693H564.661V353.999H569.403V355.524L567.93 360.435V365.855H566.152Z" fill="#EB3333" />
        </g>
        <g class="figure figure_7" id="figure 7">
            <path id="Vector 23_2" d="M762.692 340.462L749.299 335.528C743.66 353.15 736.611 365.838 728.857 374.297L742.25 384.165C757.053 367.248 761.987 347.981 762.692 340.462Z" fill="#EBEBEB" stroke="#EB3333" stroke-width="4.22934" />
            <path id="7_2" d="M747.416 365.855V360.435L748.839 355.693H745.926V353.999H750.668V355.524L749.195 360.435V365.855H747.416Z" fill="#EB3333" />
        </g>
        <g class="figure figure_6" id="figure 6">
            <rect id="Rectangle 400" x="510.619" y="233.332" width="37.2655" height="20.6825" transform="rotate(42.2943 510.619 233.332)" fill="#EBEBEB" stroke="#EB3333" stroke-width="4.2342" />
            <path
                id="6"
                d="M518.093 254.086H516.823V257.982H518.093V254.086ZM519.871 248.599V251.207H518.093V249.513H516.823V252.393H519.092C519.567 252.393 519.871 252.715 519.871 253.172V258.896C519.871 259.354 519.567 259.676 519.092 259.676H515.824C515.349 259.676 515.044 259.354 515.044 258.896V248.599C515.044 248.142 515.349 247.82 515.824 247.82H519.092C519.567 247.82 519.871 248.142 519.871 248.599Z"
                fill="#EB3333"
            />
        </g>
        <g class="figure figure_5" id="figure 5">
            <rect id="Rectangle 398" x="801.463" y="329.186" width="38.0592" height="56.3864" fill="#EBEBEB" stroke="#EB3333" stroke-width="4.2342" />
            <path
                id="5"
                d="M820.019 356.769H818.749V357.446H816.97V351.18H821.713V352.873H818.749V355.075H821.018C821.492 355.075 821.797 355.397 821.797 355.854V362.256C821.797 362.714 821.492 363.035 821.018 363.035H817.749C817.275 363.035 816.97 362.714 816.97 362.256V359.14H818.749V361.342H820.019V356.769Z"
                fill="#EB3333"
            />
        </g>
        <g class="figure figure_4" id="figure 4">
            <rect id="Rectangle 409_5" x="643.966" y="422.358" width="31.3876" height="21.9167" transform="rotate(-0.264777 643.966 422.358)" fill="#EBEBEB" stroke="#EB3333" stroke-width="4.2342" />
            <path id="4" d="M662.106 439.487H660.327V437.285H657.363V435.76L659.701 427.631H661.564L659.277 435.591H660.327V434.067L662.106 433.728V435.591H662.783V437.285H662.106V439.487Z" fill="#EB3333" />
        </g>
        <g class="figure figure_3" id="figure 3">
            <rect id="Rectangle 383" x="474.394" y="344.694" width="54.9766" height="29.6005" fill="#EBEBEB" stroke="#EB3333" stroke-width="4.2342" />
            <path
                id="3"
                d="M503.817 365.855H500.549C500.074 365.855 499.77 365.533 499.77 365.076V361.96H501.548V364.161H502.818V359.961H501.04V358.386L502.649 355.693H499.854V353.999H504.512V355.524L502.886 358.267H503.817C504.292 358.267 504.597 358.589 504.597 359.047V365.076C504.597 365.533 504.292 365.855 503.817 365.855Z"
                fill="#EB3333"
            />
        </g>
        <g class="figure figure_2" id="figure 2">
            <rect id="Rectangle 379" x="695.729" y="501.18" width="18.3223" height="78.9429" fill="#EBEBEB" stroke="#EB3333" stroke-width="4.2342" />
            <path
                id="2"
                d="M707.314 533.03V535.875L704.266 541.888V542.413H707.314V544.106H702.487V541.65L705.536 535.638V533.944H704.266V535.638H702.487V533.03C702.487 532.572 702.792 532.251 703.266 532.251H706.535C707.009 532.251 707.314 532.572 707.314 533.03Z"
                fill="#EB3333"
            />
        </g>
        <g class="figure figure_1" id="figure 1">
            <rect id="Rectangle 378" x="635.109" y="461.706" width="42.2886" height="142.383" fill="#EBEBEB" stroke="#EB3333" stroke-width="4.2342" />
            <path id="1" d="M654.449 527.686V525.993H656.989V537.848H655.211V527.686H654.449Z" fill="#EB3333" />
        </g>
    </g>
</svg>
