<svg width="1522" height="836" viewBox="0 0 1522 836" fill="none" xmlns="http://www.w3.org/2000/svg">
    <g id="Group 37583">
        <g id="figure 28">
            <rect id="Rectangle 386" x="683.117" y="241.117" width="40.7658" height="18.7658" fill="#EBEBEB" stroke="#EB3333" stroke-width="4.2342" />
            <path
                id="28"
                d="M702.722 245.562V248.408L699.673 254.42V254.945H702.722V256.639H697.895V254.183L700.943 248.171V246.477H699.673V248.171H697.895V245.562C697.895 245.105 698.199 244.783 698.674 244.783H701.942C702.417 244.783 702.722 245.105 702.722 245.562ZM708.818 251.524V255.86C708.818 256.317 708.513 256.639 708.039 256.639H704.77C704.296 256.639 703.991 256.317 703.991 255.86V251.524C703.991 250.83 704.313 250.389 704.838 250.203C704.313 250.017 703.991 249.559 703.991 248.882V245.562C703.991 245.105 704.296 244.783 704.77 244.783H708.039C708.513 244.783 708.818 245.105 708.818 245.562V248.882C708.818 249.559 708.496 250.017 707.954 250.203C708.496 250.389 708.818 250.83 708.818 251.524ZM707.04 251.05H705.769V254.945H707.04V251.05ZM705.769 249.356H707.04V246.477H705.769V249.356Z"
                fill="#EB3333"
            />
            <path id="Vector 25" d="M724 241.5V144" stroke="#EB3333" stroke-width="4.23" />
        </g>
        <g id="figure 13">
            <rect id="Rectangle 401" x="591.598" y="238.433" width="29.8637" height="20.1561" transform="rotate(-15.2101 591.598 238.433)" fill="#EBEBEB" stroke="#EB3333" stroke-width="4.2342" />
            <path
                id="13"
                d="M604.075 239.759V238.065H606.616V249.921H604.837V239.759H604.075ZM612.105 249.921H608.836C608.362 249.921 608.057 249.599 608.057 249.142V246.026H609.835V248.228H611.105V244.027H609.327V242.452L610.936 239.759H608.141V238.065H612.799V239.59L611.173 242.334H612.105C612.579 242.334 612.884 242.655 612.884 243.113V249.142C612.884 249.599 612.579 249.921 612.105 249.921Z"
                fill="#EB3333"
            />
        </g>
        <g id="figure 32">
            <rect id="Rectangle 401_2" x="563.921" y="249.039" width="21.6385" height="20.1561" transform="rotate(-19.8496 563.921 249.039)" fill="#EBEBEB" stroke="#EB3333" stroke-width="4.2342" />
            <path
                id="32"
                d="M576.193 260.921H572.924C572.45 260.921 572.145 260.599 572.145 260.142V257.026H573.923V259.228H575.193V255.027H573.415V253.452L575.024 250.759H572.229V249.065H576.887V250.59L575.261 253.334H576.193C576.667 253.334 576.972 253.655 576.972 254.113V260.142C576.972 260.599 576.667 260.921 576.193 260.921ZM583.064 249.845V252.69L580.016 258.703V259.228H583.064V260.921H578.237V258.465L581.286 252.453V250.759H580.016V252.453H578.237V249.845C578.237 249.387 578.542 249.065 579.016 249.065H582.285C582.759 249.065 583.064 249.387 583.064 249.845Z"
                fill="#EB3333"
            />
        </g>
        <g id="figure 24">
            <rect id="Rectangle 402" x="635.549" y="141.685" width="42.342" height="93.3121" fill="#EB3333" stroke="#EBEBEB" stroke-width="4.2342" />
            <path
                id="24"
                d="M656.336 173.923V176.769L653.288 182.781V183.306H656.336V185H651.509V182.544L654.558 176.532V174.838H653.288V176.532H651.509V173.923C651.509 173.466 651.814 173.144 652.289 173.144H655.557C656.032 173.144 656.336 173.466 656.336 173.923ZM662.179 185H660.401V182.798H657.437V181.274L659.774 173.144H661.637L659.351 181.105H660.401V179.58L662.179 179.241V181.105H662.856V182.798H662.179V185Z"
                fill="#EBEBEB"
            />
            <g id="Frame 163">
                <g id="Group">
                    <path id="Vector" d="M651.522 222H645.488L643.05 209H649.084L651.522 222Z" fill="white" />
                    <path id="Vector_2" d="M652.741 215.5L651.522 222H657.555L658.775 215.5H652.741Z" fill="white" />
                </g>
                <g id="Group_2">
                    <g id="Group_3">
                        <path id="Vector_3" d="M660.739 216.17V218.451H659.996V215.499H661.276L662.023 217.702L662.774 215.499H664.011V218.451H663.198V216.162L662.411 218.451H661.525L660.738 216.17H660.739Z" fill="white" />
                        <path id="Vector_4" d="M664.219 216.145V215.499H667.474V216.145H666.251V218.451H665.438V216.145H664.219Z" fill="white" />
                        <path
                            id="Vector_5"
                            d="M669.207 215.439C670.208 215.439 670.811 215.721 670.894 216.521H670.079C670.009 216.144 669.714 216.055 669.207 216.055C668.665 216.055 668.283 216.192 668.283 216.808V217.145C668.283 217.744 668.652 217.894 669.212 217.894C669.693 217.894 669.996 217.809 670.083 217.457H670.898C670.803 218.219 670.204 218.51 669.207 218.51C668.114 218.51 667.468 218.137 667.468 216.978C667.468 215.819 668.114 215.438 669.207 215.438V215.439Z"
                            fill="white"
                        />
                    </g>
                    <g id="Group_4">
                        <path id="Vector_6" d="M660.809 219.043V221.349H662.56V221.995H659.996V219.043H660.809Z" fill="white" />
                        <path id="Vector_7" d="M663.718 219.043V221.995H662.906V219.043H663.718Z" fill="white" />
                        <path id="Vector_8" d="M667.685 219.043L666.397 221.995H665.296L664.016 219.043H664.885L665.899 221.413L666.925 219.043H667.685Z" fill="white" />
                        <path id="Vector_9" d="M670.735 219.043V219.655H668.799V220.193H670.272V220.78H668.799V221.383H670.748V221.995H667.987V219.042H670.735V219.043Z" fill="white" />
                    </g>
                </g>
            </g>
        </g>
        <g id="figure 23">
            <rect id="Rectangle 385" x="535.894" y="282.52" width="21.171" height="22.0179" transform="rotate(-48.4686 535.894 282.52)" fill="#EBEBEB" stroke="#EB3333" stroke-width="4.2342" />
            <path
                id="23"
                d="M550.848 277.24V280.086L547.8 286.098V286.623H550.848V288.317H546.021V285.861L549.07 279.849V278.155H547.8V279.849H546.021V277.24C546.021 276.783 546.326 276.461 546.8 276.461H550.069C550.543 276.461 550.848 276.783 550.848 277.24ZM556.166 288.317H552.897C552.423 288.317 552.118 287.995 552.118 287.538V284.422H553.896V286.623H555.166V282.423H553.388V280.848L554.997 278.155H552.202V276.461H556.86V277.986L555.234 280.729H556.166C556.64 280.729 556.945 281.051 556.945 281.508V287.538C556.945 287.995 556.64 288.317 556.166 288.317Z"
                fill="#EB3333"
            />
        </g>
        <g id="figure 21">
            <path id="Rectangle 403" d="M587.254 133.423L590.514 112.514L705.247 93.9642L715.712 112.761L587.254 133.423Z" fill="#EBEBEB" stroke="#EB3333" stroke-width="4.2342" />
            <path
                id="21"
                d="M650.677 108.498V111.344L647.629 117.356V117.881H650.677V119.575H645.85V117.119L648.899 111.107V109.413H647.629V111.107H645.85V108.498C645.85 108.041 646.155 107.719 646.629 107.719H649.898C650.372 107.719 650.677 108.041 650.677 108.498ZM651.777 109.413V107.719H654.318V119.575H652.54V109.413H651.777Z"
                fill="#EB3333"
            />
        </g>
        <g id="figure 20">
            <rect id="Rectangle 399" x="925.431" y="324.957" width="55.0693" height="53.5668" fill="#EBEBEB" stroke="#EB3333" stroke-width="4.2342" />
            <path
                id="20"
                d="M952.575 347.729V350.575L949.527 356.587V357.112H952.575V358.806H947.748V356.35L950.797 350.338V348.644H949.527V350.338H947.748V347.729C947.748 347.272 948.053 346.95 948.527 346.95H951.796C952.27 346.95 952.575 347.272 952.575 347.729ZM955.623 357.112H956.893V348.644H955.623V357.112ZM957.893 358.806H954.624C954.15 358.806 953.845 358.484 953.845 358.027V347.729C953.845 347.272 954.15 346.95 954.624 346.95H957.893C958.367 346.95 958.672 347.272 958.672 347.729V358.027C958.672 358.484 958.367 358.806 957.893 358.806Z"
                fill="#EB3333"
            />
        </g>
        <g id="figure 19">
            <rect id="Rectangle 399_2" x="862.084" y="324.957" width="55.0693" height="53.5668" fill="#EBEBEB" stroke="#EB3333" stroke-width="4.2342" />
            <path
                id="19"
                d="M885.416 348.644V346.95H887.956V358.806H886.178V348.644H885.416ZM891.176 352.031H892.446V348.644H891.176V352.031ZM889.397 352.946V347.729C889.397 347.272 889.702 346.95 890.176 346.95H893.445C893.92 346.95 894.224 347.272 894.224 347.729V358.027C894.224 358.484 893.92 358.806 893.445 358.806H890.176C889.702 358.806 889.397 358.484 889.397 358.027V354.911H891.176V357.112H892.446V353.725H890.176C889.702 353.725 889.397 353.403 889.397 352.946Z"
                fill="#EB3333"
            />
        </g>
        <g id="figure 17-3">
            <rect id="Rectangle 401_3" x="0.627506" y="2.92754" width="21.0051" height="20.1561" transform="matrix(-0.543203 0.839601 0.839601 0.543203 563.22 395.981)" fill="#EBEBEB" stroke="#EB3333" stroke-width="4.2342" />
            <path id="Vector 22" d="M559.5 389.5L565.07 398.049L581.987 409.327L589.741 413.852" stroke="#EB3333" stroke-width="4.22934" />
            <path id="17" d="M563.789 408.915V407.221H566.33V419.077H564.551V408.915H563.789ZM568.922 419.077V413.657L570.345 408.915H567.432V407.221H572.174V408.745L570.701 413.657V419.077H568.922Z" fill="#EB3333" />
        </g>
        <g id="figure 17-4">
            <rect id="Rectangle 401_4" x="750.251" y="394.355" width="19.7638" height="20.1561" transform="rotate(40.4805 750.251 394.355)" fill="#EBEBEB" stroke="#EB3333" stroke-width="4.2342" />
            <path id="Vector 22_2" d="M759 381.5L750.5 394L737 410L731.5 415.5" stroke="#EB3333" stroke-width="4.22934" />
            <path id="17_2" d="M746.74 404.415V402.721H749.28V414.577H747.502V404.415H746.74ZM751.873 414.577V409.157L753.295 404.415H750.382V402.721H755.125V404.245L753.651 409.157V414.577H751.873Z" fill="#EB3333" />
        </g>
        <g id="figure 17">
            <rect id="Rectangle 401_5" x="0.0880415" y="2.99274" width="21.0051" height="20.1561" transform="matrix(-0.686008 0.727594 0.727594 0.686008 581.609 283.855)" fill="#EBEBEB" stroke="#EB3333" stroke-width="4.2342" />
            <path id="Vector 22_3" d="M594.223 279.137L584.354 284.071L566.732 302.398L561.798 309.447" stroke="#EB3333" stroke-width="4.22934" />
            <path id="17_3" d="M579.549 297.052V295.358H582.09V307.214H580.311V297.052H579.549ZM584.682 307.214V301.794L586.105 297.052H583.192V295.358H587.934V296.882L586.461 301.794V307.214H584.682Z" fill="#EB3333" />
        </g>
        <g id="figure 22">
            <rect id="Rectangle 401_6" x="-2.13888" y="2.0951" width="21.0051" height="20.1561" transform="matrix(-0.999946 -0.0103411 -0.0103411 0.999946 629.546 272.239)" fill="#EBEBEB" stroke="#EB3333" stroke-width="4.2342" />
            <path id="Vector 22_4" d="M641.5 273.935L631.425 273.935H611L600 276.435" stroke="#EB3333" stroke-width="4.22934" />
            <path
                id="22"
                d="M620.265 279.935V282.78L617.217 288.793V289.318H620.265V291.011H615.438V288.556L618.487 282.543V280.849H617.217V282.543H615.438V279.935C615.438 279.478 615.743 279.156 616.217 279.156H619.486C619.96 279.156 620.265 279.478 620.265 279.935ZM626.277 279.935V282.78L623.229 288.793V289.318H626.277V291.011H621.45V288.556L624.499 282.543V280.849H623.229V282.543H621.45V279.935C621.45 279.478 621.755 279.156 622.229 279.156H625.498C625.972 279.156 626.277 279.478 626.277 279.935Z"
                fill="#EB3333"
            />
        </g>
        <g id="figure 17-2">
            <rect id="Rectangle 401_7" x="733.714" y="285.972" width="21.0051" height="20.1561" transform="rotate(46.6851 733.714 285.972)" fill="#EBEBEB" stroke="#EB3333" stroke-width="4.2342" />
            <path id="Vector 22_5" d="M759.167 317.201L755.643 309.447L750.709 302.398L733.086 284.071L723.218 279.137L714.054 276.317" stroke="#EB3333" stroke-width="4.22934" />
            <path id="17_4" d="M729.679 297.051V295.358H732.219V307.214H730.441V297.051H729.679ZM734.812 307.214V301.794L736.235 297.051H733.322V295.358H738.064V296.882L736.59 301.794V307.214H734.812Z" fill="#EB3333" />
        </g>
        <g id="figure 16">
            <rect id="Rectangle 409" x="-2.34874" y="1.85679" width="18.3567" height="18.3293" transform="matrix(-0.993228 -0.116184 -0.116184 0.993228 610.534 418.364)" fill="#EBEBEB" stroke="#EB3333" stroke-width="4.2342" />
            <path
                id="16"
                d="M597.91 424.638V422.944H600.45V434.8H598.672V424.638H597.91ZM604.94 429.211H603.67V433.106H604.94V429.211ZM606.718 423.723V426.332H604.94V424.638H603.67V427.517H605.939C606.413 427.517 606.718 427.839 606.718 428.296V434.021C606.718 434.478 606.413 434.8 605.939 434.8H602.67C602.196 434.8 601.891 434.478 601.891 434.021V423.723C601.891 423.266 602.196 422.944 602.67 422.944H605.939C606.413 422.944 606.718 423.266 606.718 423.723Z"
                fill="#EB3333"
            />
        </g>
        <g id="figure 16-2">
            <rect id="Rectangle 409_2" x="2.1171" y="-2.1171" width="18.3567" height="18.3293" transform="matrix(1 0 0 -1 617.175 438.565)" fill="#EBEBEB" stroke="#EB3333" stroke-width="4.2342" />
            <path
                id="16_2"
                d="M623.91 427.638V425.944H626.45V437.8H624.672V427.638H623.91ZM630.94 432.211H629.67V436.106H630.94V432.211ZM632.718 426.723V429.332H630.94V427.638H629.67V430.517H631.939C632.413 430.517 632.718 430.839 632.718 431.296V437.021C632.718 437.478 632.413 437.8 631.939 437.8H628.67C628.196 437.8 627.891 437.478 627.891 437.021V426.723C627.891 426.266 628.196 425.944 628.67 425.944H631.939C632.413 425.944 632.718 426.266 632.718 426.723Z"
                fill="#EB3333"
            />
        </g>
        <g id="figure 16-3">
            <rect id="Rectangle 409_3" x="2.1171" y="-2.1171" width="18.3567" height="18.3293" transform="matrix(1 0 0 -1 677.175 438.565)" fill="#EBEBEB" stroke="#EB3333" stroke-width="4.2342" />
            <path
                id="16_3"
                d="M683.91 427.638V425.944H686.45V437.8H684.672V427.638H683.91ZM690.94 432.211H689.67V436.106H690.94V432.211ZM692.718 426.723V429.332H690.94V427.638H689.67V430.517H691.939C692.413 430.517 692.718 430.839 692.718 431.296V437.021C692.718 437.478 692.413 437.8 691.939 437.8H688.67C688.196 437.8 687.891 437.478 687.891 437.021V426.723C687.891 426.266 688.196 425.944 688.67 425.944H691.939C692.413 425.944 692.718 426.266 692.718 426.723Z"
                fill="#EB3333"
            />
        </g>
        <g id="figure 25">
            <rect id="Rectangle 409_4" x="603.468" y="461.571" width="24.404" height="24.3172" transform="rotate(-0.264777 603.468 461.571)" fill="#EBEBEB" stroke="#EB3333" stroke-width="4.2342" />
            <path
                id="25"
                d="M615.721 465.923V468.769L612.673 474.781V475.306H615.721V477H610.894V474.544L613.943 468.532V466.838H612.673V468.532H610.894V465.923C610.894 465.466 611.199 465.144 611.673 465.144H614.942C615.416 465.144 615.721 465.466 615.721 465.923ZM620.04 470.733H618.769V471.411H616.991V465.144H621.733V466.838H618.769V469.04H621.039C621.513 469.04 621.818 469.361 621.818 469.819V476.221C621.818 476.678 621.513 477 621.039 477H617.77C617.296 477 616.991 476.678 616.991 476.221V473.105H618.769V475.306H620.04V470.733Z"
                fill="#EB3333"
            />
            <g id="Group 37598">
                <path
                    id="Vector_10"
                    d="M607.218 479.473V481.19C607.218 481.472 607.269 481.668 607.381 481.829C607.637 482.193 608.123 482.435 608.406 482.518C608.689 482.435 609.174 482.193 609.432 481.829C609.545 481.668 609.594 481.472 609.594 481.19V479.473H607.218ZM609.812 479.256V481.19C609.812 481.517 609.749 481.756 609.61 481.954C609.307 482.384 608.74 482.662 608.406 482.744C608.072 482.662 607.505 482.384 607.203 481.954C607.064 481.756 607 481.518 607 481.19V479.256H609.812Z"
                    fill="#EB6209"
                />
                <path id="Vector_11" d="M613.3 481.731H612.175V480.044H613.3V480.321H612.482V480.737H613.198V481.015H612.482V481.452H613.3V481.731Z" fill="#EB6209" />
                <path id="Vector_12" d="M618.587 481.731V480.044H618.314L618.301 480.09L617.635 481.173V480.044H617.35V481.731H617.622L617.635 481.683L618.299 480.598V481.731H618.587Z" fill="#EB6209" />
                <path id="Vector_13" d="M621.651 481.015H620.924V481.731H620.612V480.044H620.924V480.737H621.651V480.044H621.962V481.731H621.651V481.015Z" fill="#EB6209" />
                <path id="Vector_14" d="M616.615 480.32H615.949V481.731L615.662 481.73V480.044H616.9V481.731H616.615V480.32Z" fill="#EB6209" />
                <path
                    id="Vector_15"
                    d="M614.917 480.751L614.523 481.532H614.326L613.933 480.751V481.731H613.637V480.044H613.924L613.933 480.093L614.402 481.036H614.444L614.917 480.094L614.928 480.044H615.212V481.731H614.917V480.751Z"
                    fill="#EB6209"
                />
                <path id="Vector_16" d="M624.525 481.731H624.239V480.321H623.762V480.044H625V480.321H624.525V481.731Z" fill="#EB6209" />
                <path
                    id="Vector_17"
                    d="M611.527 480.044V480.739C611.482 480.763 611.339 480.858 611.12 480.858C610.958 480.858 610.8 480.801 610.8 480.541V480.044H610.487V480.541C610.487 480.894 610.723 481.136 611.11 481.136C611.263 481.136 611.424 481.087 611.525 481.036V481.731H611.837V480.044H611.525H611.527Z"
                    fill="#EB6209"
                />
                <path
                    id="Vector_18"
                    d="M622.187 481.731H622.515L622.667 481.334H623.283L623.435 481.731H623.762L623.117 480.044H622.833L622.187 481.731ZM622.763 481.056L622.972 480.458H622.981L623.189 481.056H622.764H622.763Z"
                    fill="#EB6209"
                />
                <path
                    id="Vector_19"
                    d="M620.176 480.24C620.055 480.045 619.837 479.931 619.6 479.931C619.363 479.931 619.145 480.045 619.023 480.24C618.96 480.342 618.925 480.462 618.925 480.646V481.016C618.925 481.201 618.96 481.32 619.023 481.422C619.145 481.617 619.363 481.731 619.6 481.731C619.837 481.731 620.055 481.617 620.176 481.422C620.239 481.32 620.275 481.201 620.275 481.016V480.646C620.275 480.462 620.239 480.342 620.176 480.24ZM619.981 481.041C619.981 481.147 619.958 481.225 619.92 481.281C619.848 481.383 619.726 481.446 619.601 481.446C619.476 481.446 619.352 481.383 619.281 481.281C619.242 481.225 619.22 481.147 619.22 481.041V480.62C619.22 480.514 619.243 480.436 619.281 480.38C619.352 480.278 619.475 480.215 619.601 480.215C619.727 480.215 619.85 480.278 619.92 480.38C619.959 480.436 619.981 480.514 619.981 480.62V481.041Z"
                    fill="#EB6209"
                />
                <path id="Vector_20" d="M608.35 482.294C608.087 482.183 607.758 481.975 607.578 481.713C607.519 481.627 607.45 481.487 607.45 481.169C607.514 481.309 607.684 481.394 607.869 481.394H608.35V482.294Z" fill="#F6A66D" />
                <path
                    id="Vector_21"
                    d="M607.972 481.22H608.362C608.472 481.22 608.526 481.165 608.526 481.165V482.294C608.772 482.186 609.073 481.992 609.24 481.748C609.297 481.665 609.362 481.531 609.362 481.226V479.706H608.526V480.598C608.526 480.654 608.493 480.687 608.438 480.687H608.287C608.231 480.687 608.199 480.654 608.199 480.598V479.706H607.45V480.687C607.45 481.006 607.483 481.221 607.972 481.221V481.22Z"
                    fill="#EB6209"
                />
            </g>
        </g>
        <g id="figure 15-2">
            <rect id="Rectangle 409_5" x="685.523" y="462.214" width="18.9142" height="18.7072" transform="rotate(-0.264777 685.523 462.214)" fill="#EBEBEB" stroke="#EB3333" stroke-width="4.2342" />
            <path id="11" d="M692.092 467.799V466.106H694.633V477.962H692.854V467.799H692.092ZM695.904 467.799V466.106H698.445V477.962H696.667V467.799H695.904Z" fill="#EB3333" />
        </g>
        <g id="figure 29">
            <rect id="Rectangle 409_6" x="685.523" y="589.214" width="18.9142" height="18.7072" transform="rotate(-0.264777 685.523 589.214)" fill="#EBEBEB" stroke="#EB3333" stroke-width="4.2342" />
            <path
                id="29"
                d="M694.721 593.885V596.73L691.673 602.743V603.268H694.721V604.962H689.894V602.506L692.943 596.493V594.799H691.673V596.493H689.894V593.885C689.894 593.428 690.199 593.106 690.674 593.106H693.942C694.417 593.106 694.721 593.428 694.721 593.885ZM697.769 598.187H699.04V594.799H697.769V598.187ZM695.991 599.101V593.885C695.991 593.428 696.296 593.106 696.77 593.106H700.039C700.513 593.106 700.818 593.428 700.818 593.885V604.182C700.818 604.64 700.513 604.962 700.039 604.962H696.77C696.296 604.962 695.991 604.64 695.991 604.182V601.066H697.769V603.268H699.04V599.881H696.77C696.296 599.881 695.991 599.559 695.991 599.101Z"
                fill="#EB3333"
            />
        </g>
        <g id="figure 16-4">
            <rect id="Rectangle 409_7" x="706.544" y="420.546" width="18.9142" height="18.7072" transform="rotate(-6.67195 706.544 420.546)" fill="#EBEBEB" stroke="#EB3333" stroke-width="4.2342" />
            <path
                id="16_4"
                d="M712.91 425.013V423.319H715.45V435.175H713.672V425.013H712.91ZM719.94 429.586H718.669V433.481H719.94V429.586ZM721.718 424.098V426.707H719.94V425.013H718.669V427.892H720.939C721.413 427.892 721.718 428.214 721.718 428.671V434.396C721.718 434.853 721.413 435.175 720.939 435.175H717.67C717.196 435.175 716.891 434.853 716.891 434.396V424.098C716.891 423.641 717.196 423.319 717.67 423.319H720.939C721.413 423.319 721.718 423.641 721.718 424.098Z"
                fill="#EB3333"
            />
        </g>
        <g id="figure 15">
            <rect id="Rectangle 401_8" x="811.042" y="222.324" width="28.744" height="49.0167" transform="rotate(45.5983 811.042 222.324)" fill="#EBEBEB" stroke="#EB3333" stroke-width="4.2342" />
            <path
                id="15"
                d="M797.978 245.73V244.036H800.518V255.892H798.74V245.73H797.978ZM805.008 249.626H803.737V250.303H801.959V244.036H806.701V245.73H803.737V247.932H806.007C806.481 247.932 806.786 248.254 806.786 248.711V255.113C806.786 255.57 806.481 255.892 806.007 255.892H802.738C802.264 255.892 801.959 255.57 801.959 255.113V251.997H803.737V254.199H805.008V249.626Z"
                fill="#EB3333"
            />
        </g>
        <g id="figure 14">
            <rect id="Rectangle 410" x="750.166" y="284.029" width="20.5674" height="20.6649" transform="rotate(-39.8826 750.166 284.029)" fill="#EBEBEB" stroke="#EB3333" stroke-width="4.2342" />
            <path
                id="14"
                d="M759.823 282.276V280.583H762.363V292.438H760.585V282.276H759.823ZM768.377 292.438H766.599V290.237H763.635V288.712L765.972 280.583H767.835L765.549 288.543H766.599V287.019L768.377 286.68V288.543H769.055V290.237H768.377V292.438Z"
                fill="#EB3333"
            />
        </g>
        <g id="figure 26">
            <rect id="Rectangle 386_2" x="484.117" y="302.117" width="54.7658" height="19.7658" fill="#EBEBEB" stroke="#EB3333" stroke-width="4.2342" />
            <path
                id="26"
                d="M527.721 306.698V309.543L524.673 315.556V316.081H527.721V317.774H522.894V315.319L525.943 309.306V307.612H524.673V309.306H522.894V306.698C522.894 306.24 523.199 305.919 523.674 305.919H526.942C527.417 305.919 527.721 306.24 527.721 306.698ZM532.04 312.185H530.769V316.081H532.04V312.185ZM533.818 306.698V309.306H532.04V307.612H530.769V310.492H533.039C533.513 310.492 533.818 310.813 533.818 311.271V316.995C533.818 317.453 533.513 317.774 533.039 317.774H529.77C529.296 317.774 528.991 317.453 528.991 316.995V306.698C528.991 306.24 529.296 305.919 529.77 305.919H533.039C533.513 305.919 533.818 306.24 533.818 306.698Z"
                fill="#EB3333"
            />
            <g id="Group 37599">
                <path id="Vector_22" d="M496 311.476C496 309.556 494.433 308 492.5 308C490.567 308 489 309.556 489 311.476C489 314.451 492.5 317.45 492.5 317.45C492.5 317.45 495.999 314.451 495.999 311.476" fill="#E62F2A" />
                <path
                    id="Vector_23"
                    d="M492.499 308.35C490.857 308.35 489.525 309.721 489.525 311.413C489.525 313.104 490.857 314.475 492.5 314.475C494.143 314.475 495.475 313.104 495.475 311.413C495.475 309.722 494.143 308.35 492.499 308.35ZM492.499 314.138C491.037 314.138 489.851 312.917 489.851 311.412C489.851 309.907 491.037 308.687 492.499 308.687C493.961 308.687 495.147 309.907 495.147 311.413C495.147 312.919 493.962 314.138 492.499 314.138"
                    fill="white"
                />
                <path
                    id="Vector_24"
                    d="M492.5 309.05C491.149 309.05 490.05 310.11 490.05 311.413C490.05 312.716 491.149 313.775 492.5 313.775C493.851 313.775 494.95 312.716 494.95 311.413C494.95 310.11 493.852 309.05 492.5 309.05ZM494.781 311.362H493.136C493.126 311.245 493.082 311.138 493.014 311.049L494.179 309.925C494.542 310.305 494.767 310.809 494.78 311.362M492.898 310.932C492.809 310.864 492.701 310.818 492.583 310.803V309.214C493.154 309.234 493.672 309.457 494.062 309.81L492.898 310.932ZM492.415 310.803C492.302 310.817 492.197 310.86 492.11 310.925L490.947 309.802C491.336 309.453 491.85 309.234 492.417 309.214V310.803H492.415ZM491.992 311.039C491.92 311.13 491.874 311.241 491.864 311.362H490.22C490.233 310.805 490.462 310.298 490.829 309.916L491.994 311.039H491.992ZM491.872 311.523C491.891 311.625 491.936 311.719 492.001 311.797L490.838 312.919C490.478 312.55 490.248 312.062 490.22 311.523H491.872ZM492.123 311.908C492.207 311.967 492.307 312.008 492.415 312.022V313.61C491.854 313.59 491.344 313.375 490.957 313.032L492.122 311.907L492.123 311.908ZM492.583 312.022C492.696 312.007 492.8 311.964 492.886 311.9L494.051 313.023C493.662 313.372 493.149 313.59 492.583 313.61V312.022ZM492.499 311.866C492.24 311.866 492.028 311.662 492.028 311.412C492.028 311.162 492.24 310.957 492.499 310.957C492.759 310.957 492.971 311.161 492.971 311.412C492.971 311.663 492.76 311.866 492.499 311.866ZM494.169 312.91L493.005 311.787C493.065 311.711 493.109 311.621 493.126 311.523H494.778C494.75 312.058 494.523 312.542 494.169 312.91"
                    fill="white"
                />
                <path
                    id="Vector_25"
                    d="M499.035 310.638C499.147 310.592 499.232 310.528 499.291 310.446C499.349 310.362 499.378 310.269 499.378 310.166C499.378 309.962 499.309 309.809 499.169 309.707C499.03 309.604 498.826 309.553 498.56 309.553H497.75V311.816H498.612C498.876 311.816 499.08 311.76 499.223 311.646C499.365 311.532 499.436 311.369 499.436 311.156C499.436 311.027 499.401 310.917 499.331 310.825C499.262 310.733 499.163 310.671 499.035 310.638M498.16 309.87H498.56C498.7 309.87 498.804 309.895 498.87 309.945C498.937 309.994 498.97 310.076 498.97 310.187C498.97 310.289 498.934 310.368 498.862 310.423C498.79 310.478 498.69 310.506 498.562 310.506H498.16V309.87H498.16ZM498.918 311.408C498.846 311.469 498.746 311.5 498.616 311.5H498.16V310.795H498.651C498.901 310.801 499.027 310.92 499.027 311.154C499.027 311.262 498.99 311.347 498.918 311.408ZM500.485 310.103C500.335 310.103 500.198 310.14 500.076 310.214C499.953 310.287 499.858 310.39 499.791 310.522C499.723 310.654 499.689 310.805 499.689 310.972V311.019C499.689 311.27 499.766 311.471 499.922 311.621C500.077 311.772 500.28 311.848 500.53 311.848C500.675 311.848 500.807 311.82 500.925 311.765C501.042 311.71 501.136 311.631 501.206 311.531L500.993 311.336C500.88 311.476 500.732 311.546 500.552 311.546C500.423 311.546 500.316 311.506 500.231 311.425C500.147 311.344 500.098 311.234 500.086 311.096H501.233V310.943C501.233 310.675 501.168 310.469 501.037 310.322C500.907 310.177 500.722 310.103 500.483 310.103M500.843 310.819H500.092C500.111 310.69 500.154 310.588 500.219 310.515C500.286 310.443 500.374 310.407 500.482 310.407C500.59 310.407 500.677 310.439 500.738 310.503C500.8 310.568 500.835 310.664 500.843 310.79V310.818V310.819ZM501.742 310.852C501.731 311.088 501.706 311.252 501.667 311.341C501.627 311.43 501.564 311.481 501.478 311.492L501.397 311.5L501.398 311.817H501.52C501.71 311.817 501.852 311.756 501.945 311.633C502.037 311.51 502.093 311.308 502.114 311.026L502.147 310.439H502.643V311.817H503.038V310.134H501.775L501.743 310.851L501.742 310.852ZM504.78 310.323C504.632 310.177 504.439 310.104 504.203 310.104C504.043 310.104 503.901 310.14 503.778 310.21C503.654 310.281 503.559 310.383 503.491 310.515C503.423 310.647 503.388 310.795 503.388 310.96V310.979C503.388 311.242 503.463 311.453 503.611 311.611C503.76 311.769 503.958 311.848 504.206 311.848C504.368 311.848 504.512 311.812 504.635 311.74C504.759 311.668 504.854 311.568 504.921 311.437C504.987 311.307 505.02 311.158 505.02 310.993L505.019 310.904C505.008 310.663 504.927 310.469 504.78 310.322M504.516 311.397C504.442 311.496 504.339 311.546 504.206 311.546C504.072 311.546 503.969 311.497 503.894 311.4C503.82 311.301 503.782 311.166 503.782 310.993C503.782 310.798 503.82 310.652 503.896 310.554C503.971 310.456 504.074 310.407 504.202 310.407C504.331 310.407 504.436 310.457 504.513 310.556C504.589 310.656 504.627 310.791 504.627 310.961C504.627 311.152 504.59 311.298 504.516 311.398M506.204 310.228C505.994 310.228 505.81 310.306 505.653 310.46C505.682 310.31 505.74 310.193 505.826 310.107C505.911 310.023 506.037 309.963 506.202 309.93C506.38 309.894 506.507 309.855 506.581 309.814C506.655 309.773 506.71 309.72 506.745 309.655C506.781 309.589 506.799 309.504 506.799 309.4H506.48C506.48 309.456 506.458 309.5 506.414 309.532C506.371 309.565 506.274 309.596 506.125 309.625C505.859 309.678 505.659 309.81 505.525 310.022C505.391 310.234 505.323 310.52 505.323 310.883V310.992C505.323 311.258 505.398 311.467 505.546 311.62C505.694 311.773 505.889 311.85 506.13 311.85C506.371 311.85 506.574 311.775 506.718 311.625C506.862 311.474 506.935 311.278 506.935 311.035V311.016C506.935 310.774 506.868 310.582 506.735 310.44C506.602 310.298 506.425 310.228 506.204 310.228M506.435 311.412C506.362 311.502 506.261 311.547 506.13 311.547C505.999 311.547 505.896 311.502 505.825 311.412C505.754 311.322 505.718 311.197 505.718 311.034C505.718 310.864 505.754 310.737 505.827 310.655C505.899 310.572 506 310.531 506.127 310.531C506.255 310.531 506.363 310.573 506.435 310.658C506.507 310.742 506.543 310.857 506.543 311.002C506.543 311.184 506.507 311.321 506.435 311.412ZM508.679 310.669C508.677 310.49 508.614 310.351 508.491 310.252C508.369 310.153 508.206 310.103 508 310.103C507.865 310.103 507.743 310.126 507.633 310.172C507.523 310.218 507.436 310.28 507.372 310.361C507.309 310.441 507.277 310.527 507.277 310.62H507.671C507.671 310.554 507.7 310.499 507.758 310.456C507.815 310.413 507.888 310.391 507.979 310.391C508.082 310.391 508.16 310.417 508.21 310.47C508.261 310.522 508.287 310.592 508.287 310.679V310.789H508.045C507.786 310.789 507.587 310.837 507.448 310.933C507.309 311.029 507.24 311.166 507.24 311.346C507.24 311.488 507.295 311.607 507.407 311.703C507.518 311.8 507.662 311.848 507.838 311.848C508.014 311.848 508.174 311.785 508.299 311.66C508.313 311.732 508.327 311.785 508.345 311.816H508.747V311.79C508.703 311.7 508.68 311.579 508.68 311.428V310.669L508.679 310.669ZM508.286 311.344C508.251 311.405 508.199 311.454 508.13 311.49C508.062 311.526 507.988 311.544 507.911 311.544C507.826 311.544 507.759 311.523 507.709 311.48C507.659 311.437 507.633 311.379 507.633 311.306C507.633 311.217 507.67 311.148 507.744 311.1C507.817 311.051 507.927 311.026 508.073 311.026H508.286V311.343V311.344ZM509.46 309.806C509.555 309.887 509.682 309.927 509.841 309.927C510 309.927 510.127 309.887 510.222 309.806C510.318 309.725 510.365 309.619 510.365 309.489H510.068C510.068 309.557 510.048 309.608 510.008 309.646C509.968 309.683 509.913 309.702 509.841 309.702C509.77 309.702 509.714 309.683 509.674 309.646C509.633 309.608 509.613 309.557 509.613 309.489H509.317C509.317 309.619 509.365 309.725 509.46 309.806M509.493 311.257V310.134H509.1V311.816H509.493L510.18 310.694V311.816H510.573V310.134H510.18L509.493 311.257ZM511.937 310.94L512.571 310.134H512.085L511.599 310.806H511.425V310.134H511.031V311.816H511.425V311.151H511.625L512.112 311.816H512.625L511.937 310.94H511.937Z"
                    fill="#E62F2A"
                />
                <path
                    id="Vector_26"
                    d="M497.925 312.725V313.95H498.102V313.546L498.085 313.006L498.386 313.95H498.513L498.816 313.006L498.798 313.546V313.95H498.975V312.725H498.745L498.451 313.664L498.156 312.725H497.925Z"
                    fill="#164284"
                />
                <path
                    id="Vector_27"
                    d="M499.152 313.515C499.152 313.647 499.191 313.753 499.271 313.831C499.351 313.91 499.456 313.95 499.589 313.95C499.677 313.95 499.753 313.932 499.819 313.896C499.885 313.86 499.936 313.809 499.972 313.744C500.008 313.679 500.025 313.604 500.025 313.521V313.477C500.018 313.356 499.975 313.258 499.896 313.186C499.817 313.112 499.714 313.075 499.586 313.075C499.501 313.075 499.425 313.093 499.359 313.128C499.293 313.164 499.242 313.215 499.205 313.281C499.168 313.347 499.15 313.422 499.15 313.504V313.514L499.152 313.515ZM499.423 313.302C499.464 313.252 499.519 313.227 499.587 313.227C499.655 313.227 499.713 313.252 499.754 313.302C499.794 313.352 499.815 313.42 499.815 313.505C499.815 313.602 499.796 313.674 499.756 313.724C499.716 313.774 499.662 313.799 499.59 313.799C499.519 313.799 499.463 313.775 499.423 313.726C499.384 313.676 499.363 313.608 499.363 313.521C499.363 313.424 499.384 313.35 499.424 313.302"
                    fill="#164284"
                />
                <path
                    id="Vector_28"
                    d="M500.429 313.732C500.397 313.686 500.381 313.618 500.381 313.527V313.496C500.381 313.406 500.398 313.338 500.43 313.293C500.462 313.249 500.507 313.227 500.567 313.227C500.613 313.227 500.65 313.243 500.68 313.274C500.71 313.305 500.726 313.345 500.728 313.393H500.9C500.897 313.298 500.865 313.221 500.805 313.163C500.744 313.105 500.665 313.075 500.569 313.075C500.455 313.075 500.365 313.113 500.299 313.191C500.233 313.269 500.2 313.371 500.2 313.5V313.519C500.2 313.654 500.233 313.759 500.3 313.835C500.367 313.912 500.456 313.95 500.569 313.95C500.628 313.95 500.683 313.937 500.733 313.91C500.783 313.884 500.823 313.848 500.853 313.802C500.882 313.757 500.898 313.709 500.9 313.655H500.728C500.726 313.696 500.71 313.73 500.68 313.758C500.65 313.786 500.613 313.799 500.567 313.799C500.507 313.799 500.462 313.777 500.43 313.732"
                    fill="#164284"
                />
                <path id="Vector_29" d="M501.668 313.95H501.95L501.572 313.493L501.92 313.075H501.653L501.387 313.425H501.291V313.075H501.075V313.95H501.291V313.604H501.401L501.668 313.95Z" fill="#164284" />
                <path
                    id="Vector_30"
                    d="M501.951 313.515C501.951 313.647 501.991 313.753 502.07 313.831C502.15 313.91 502.256 313.95 502.388 313.95C502.475 313.95 502.552 313.932 502.618 313.896C502.684 313.86 502.735 313.809 502.772 313.744C502.807 313.679 502.825 313.604 502.825 313.521V313.477C502.817 313.356 502.775 313.258 502.696 313.186C502.617 313.112 502.514 313.075 502.387 313.075C502.301 313.075 502.225 313.093 502.159 313.128C502.093 313.164 502.042 313.215 502.005 313.281C501.968 313.347 501.95 313.422 501.95 313.504V313.514L501.951 313.515ZM502.223 313.302C502.263 313.252 502.318 313.227 502.387 313.227C502.457 313.227 502.513 313.252 502.554 313.302C502.595 313.352 502.615 313.42 502.615 313.505C502.615 313.602 502.596 313.674 502.556 313.724C502.517 313.774 502.461 313.799 502.39 313.799C502.318 313.799 502.263 313.775 502.223 313.726C502.183 313.676 502.163 313.608 502.163 313.521C502.163 313.424 502.183 313.35 502.224 313.302"
                    fill="#164284"
                />
                <path
                    id="Vector_31"
                    d="M503.378 313.95C503.482 313.95 503.561 313.929 503.617 313.886C503.672 313.844 503.7 313.782 503.7 313.7C503.7 313.651 503.685 313.609 503.654 313.572C503.623 313.537 503.581 313.512 503.528 313.5C503.573 313.483 503.607 313.458 503.63 313.426C503.654 313.394 503.665 313.358 503.665 313.318C503.665 313.239 503.636 313.179 503.579 313.138C503.521 313.095 503.437 313.075 503.327 313.075H503V313.95H503.378ZM503.377 313.577C503.471 313.577 503.519 313.614 503.519 313.687C503.519 313.76 503.472 313.795 503.379 313.795H503.181V313.577H503.377H503.377ZM503.182 313.232H503.339C503.436 313.234 503.485 313.27 503.485 313.338C503.485 313.407 503.433 313.437 503.33 313.437H503.182V313.231V313.232Z"
                    fill="#164284"
                />
                <path
                    id="Vector_32"
                    d="M504.105 313.732C504.073 313.686 504.057 313.618 504.057 313.527V313.496C504.057 313.406 504.074 313.338 504.105 313.293C504.137 313.249 504.183 313.227 504.242 313.227C504.288 313.227 504.326 313.243 504.356 313.274C504.386 313.305 504.401 313.345 504.403 313.393H504.575C504.572 313.298 504.54 313.221 504.48 313.163C504.419 313.105 504.34 313.075 504.244 313.075C504.13 313.075 504.04 313.113 503.974 313.191C503.908 313.269 503.875 313.371 503.875 313.5V313.519C503.875 313.654 503.908 313.759 503.974 313.835C504.041 313.912 504.131 313.95 504.244 313.95C504.303 313.95 504.358 313.937 504.408 313.91C504.458 313.884 504.498 313.848 504.528 313.802C504.557 313.757 504.573 313.709 504.575 313.655H504.403C504.401 313.696 504.385 313.73 504.356 313.758C504.326 313.786 504.288 313.799 504.242 313.799C504.182 313.799 504.136 313.777 504.105 313.732Z"
                    fill="#164284"
                />
                <path id="Vector_33" d="M505.344 313.95H505.625L505.248 313.493L505.596 313.075H505.328L505.062 313.425H504.966V313.075H504.75V313.95H504.966V313.604H505.077L505.344 313.95Z" fill="#164284" />
                <path id="Vector_34" d="M505.986 313.659V313.075H505.8V313.95H505.986L506.313 313.366V313.95H506.5V313.075H506.313L505.986 313.659Z" fill="#164284" />
                <path
                    id="Vector_35"
                    d="M506.861 313.656V313.065H506.675V313.95H506.861L507.188 313.359V313.95H507.375V313.065H507.188L506.861 313.656ZM507.134 312.725C507.134 312.76 507.125 312.788 507.106 312.808C507.087 312.827 507.06 312.837 507.026 312.837C506.992 312.837 506.966 312.827 506.946 312.808C506.928 312.788 506.918 312.76 506.918 312.725H506.777C506.777 312.794 506.8 312.85 506.844 312.892C506.89 312.934 506.95 312.956 507.026 312.956C507.102 312.956 507.162 312.934 507.207 312.892C507.252 312.85 507.275 312.794 507.275 312.725H507.134H507.134Z"
                    fill="#164284"
                />
                <path
                    id="Vector_36"
                    d="M508.453 313.95C508.556 313.95 508.636 313.929 508.692 313.886C508.747 313.844 508.775 313.782 508.775 313.7C508.775 313.651 508.759 313.609 508.729 313.572C508.698 313.537 508.656 313.512 508.603 313.5C508.649 313.483 508.683 313.458 508.706 313.426C508.729 313.394 508.741 313.358 508.741 313.318C508.741 313.239 508.712 313.179 508.654 313.138C508.597 313.095 508.513 313.075 508.402 313.075H508.075V313.95H508.453H508.453ZM508.453 313.577C508.547 313.577 508.594 313.614 508.594 313.687C508.594 313.76 508.547 313.795 508.454 313.795H508.256V313.577H508.452H508.453ZM508.257 313.232H508.413C508.511 313.234 508.56 313.27 508.56 313.338C508.56 313.407 508.508 313.437 508.405 313.437H508.256V313.231L508.257 313.232Z"
                    fill="#164284"
                />
                <path
                    id="Vector_37"
                    d="M509.509 313.91C509.562 313.882 509.605 313.843 509.637 313.792L509.541 313.694C509.489 313.765 509.422 313.8 509.341 313.8C509.282 313.8 509.234 313.779 509.196 313.739C509.157 313.698 509.136 313.643 509.13 313.574H509.65V313.497C509.65 313.363 509.62 313.259 509.561 313.186C509.502 313.112 509.419 313.075 509.31 313.075C509.242 313.075 509.18 313.093 509.125 313.13C509.069 313.167 509.027 313.219 508.996 313.286C508.965 313.352 508.95 313.427 508.95 313.511V313.534C508.95 313.661 508.985 313.761 509.055 313.837C509.126 313.912 509.218 313.95 509.331 313.95C509.397 313.95 509.457 313.937 509.51 313.908M509.426 313.276C509.453 313.308 509.469 313.356 509.473 313.42V313.434H509.133C509.141 313.369 509.16 313.318 509.191 313.282C509.221 313.246 509.26 313.228 509.31 313.228C509.359 313.228 509.398 313.244 509.426 313.277"
                    fill="#164284"
                />
                <path
                    id="Vector_38"
                    d="M509.986 313.075L509.972 313.448C509.967 313.571 509.957 313.655 509.94 313.702C509.923 313.749 509.897 313.775 509.86 313.78L509.825 313.784V313.949H509.878C509.959 313.949 510.019 313.918 510.059 313.854C510.098 313.79 510.122 313.685 510.131 313.538L510.145 313.234H510.357V313.95H510.525V313.076H509.986L509.986 313.075Z"
                    fill="#164284"
                />
                <path
                    id="Vector_39"
                    d="M510.7 313.515C510.7 313.647 510.74 313.753 510.82 313.831C510.899 313.91 511.006 313.95 511.139 313.95C511.226 313.95 511.303 313.932 511.369 313.896C511.435 313.86 511.486 313.809 511.522 313.744C511.557 313.679 511.575 313.604 511.575 313.521V313.477C511.567 313.356 511.525 313.258 511.446 313.186C511.367 313.112 511.264 313.075 511.137 313.075C511.051 313.075 510.975 313.093 510.909 313.128C510.843 313.164 510.792 313.215 510.756 313.281C510.719 313.347 510.701 313.422 510.701 313.504V313.514L510.7 313.515ZM510.972 313.302C511.013 313.252 511.068 313.227 511.136 313.227C511.205 313.227 511.262 313.252 511.303 313.302C511.344 313.352 511.365 313.42 511.365 313.505C511.365 313.602 511.345 313.674 511.306 313.724C511.266 313.774 511.21 313.799 511.139 313.799C511.067 313.799 511.012 313.775 510.972 313.726C510.932 313.676 510.911 313.608 510.911 313.521C510.911 313.424 510.932 313.35 510.973 313.302"
                    fill="#164284"
                />
                <path id="Vector_40" d="M512.45 313.075H511.75V313.95H511.937V313.233H512.263V313.95H512.45V313.075Z" fill="#164284" />
                <path
                    id="Vector_41"
                    d="M513.325 313.524C513.325 313.383 513.298 313.274 513.242 313.194C513.187 313.115 513.11 313.075 513.013 313.075C512.923 313.075 512.85 313.111 512.798 313.18L512.79 313.092H512.625V314.3H512.804V313.886C512.857 313.949 512.927 313.981 513.015 313.981C513.109 313.981 513.184 313.941 513.241 313.86C513.297 313.78 513.325 313.672 513.325 313.537V313.525V313.524ZM513.098 313.748C513.065 313.798 513.021 313.824 512.964 313.824C512.89 313.824 512.836 313.79 512.804 313.722V313.335C512.836 313.268 512.889 313.236 512.962 313.236C513.021 313.236 513.067 313.261 513.099 313.312C513.131 313.363 513.146 313.432 513.146 313.519C513.146 313.621 513.13 313.698 513.098 313.748Z"
                    fill="#164284"
                />
                <path
                    id="Vector_42"
                    d="M513.501 313.515C513.501 313.647 513.541 313.753 513.62 313.831C513.7 313.91 513.806 313.95 513.939 313.95C514.026 313.95 514.102 313.932 514.169 313.896C514.235 313.86 514.286 313.809 514.322 313.744C514.358 313.679 514.375 313.604 514.375 313.521V313.477C514.367 313.356 514.325 313.258 514.246 313.186C514.167 313.112 514.064 313.075 513.937 313.075C513.851 313.075 513.775 313.093 513.709 313.128C513.643 313.164 513.592 313.215 513.555 313.281C513.519 313.347 513.5 313.422 513.5 313.504V313.514L513.501 313.515ZM513.773 313.302C513.813 313.252 513.868 313.227 513.937 313.227C514.005 313.227 514.062 313.252 514.104 313.302C514.144 313.352 514.165 313.42 514.165 313.505C514.165 313.602 514.145 313.674 514.105 313.724C514.065 313.774 514.01 313.799 513.938 313.799C513.867 313.799 513.811 313.775 513.771 313.726C513.732 313.676 513.711 313.608 513.711 313.521C513.711 313.424 513.732 313.35 513.772 313.302"
                    fill="#164284"
                />
                <path id="Vector_43" d="M515.025 313.95H515.25L514.948 313.493L515.227 313.075H515.013L514.799 313.425H514.723V313.075H514.55V313.95H514.723V313.604H514.811L515.025 313.95Z" fill="#164284" />
                <path
                    id="Vector_44"
                    d="M516.125 313.934V313.921C516.105 313.876 516.094 313.815 516.094 313.74V313.359C516.093 313.269 516.064 313.199 516.007 313.149C515.951 313.1 515.875 313.075 515.78 313.075C515.716 313.075 515.661 313.087 515.609 313.109C515.558 313.132 515.517 313.164 515.488 313.204C515.458 313.244 515.443 313.288 515.443 313.334H515.626C515.626 313.301 515.64 313.273 515.666 313.252C515.692 313.23 515.727 313.219 515.768 313.219C515.816 313.219 515.852 313.232 515.875 313.259C515.899 313.285 515.91 313.32 515.91 313.364V313.419H515.798C515.679 313.419 515.586 313.443 515.522 313.491C515.458 313.539 515.425 313.608 515.425 313.698C515.425 313.77 515.451 313.829 515.502 313.878C515.554 313.926 515.62 313.95 515.702 313.95C515.784 313.95 515.858 313.918 515.916 313.856C515.922 313.892 515.929 313.918 515.938 313.935H516.124L516.125 313.934ZM515.644 313.765C515.62 313.744 515.609 313.715 515.609 313.678C515.609 313.633 515.625 313.599 515.659 313.574C515.694 313.55 515.744 313.538 515.812 313.538H515.91V313.697C515.894 313.727 515.87 313.752 515.838 313.771C515.806 313.789 515.772 313.798 515.736 313.798C515.697 313.798 515.666 313.787 515.642 313.765"
                    fill="#164284"
                />
                <path id="Vector_45" d="M517 313.075H516.3V313.231H516.558V313.95H516.739V313.231H517V313.075Z" fill="#164284" />
            </g>
        </g>
        <g id="figure 27">
            <rect id="Rectangle 386_3" x="484.117" y="392.117" width="54.7658" height="19.7658" fill="#EBEBEB" stroke="#EB3333" stroke-width="4.2342" />
            <g id="Group 37600">
                <path id="Vector_46" d="M498.296 401.215H495.96V400.008H495.216V403.184H495.96V401.914H498.296V403.184H499.042V400.008H498.296V401.215Z" fill="#FFB928" />
                <path id="Vector_47" d="M493.527 402.193L492.763 401.094H492.155L491.392 402.193L490.77 400.008H490L490.912 403.184H491.56L492.46 401.889L493.359 403.184H494.005L494.919 400.008H494.148L493.527 402.193Z" fill="#FFB928" />
                <path id="Vector_48" d="M516.256 400.008V401.215H513.92V400.008H513.176V403.184H513.92V401.914H516.256V403.184H517V400.008H516.256Z" fill="#FFB928" />
                <path
                    id="Vector_49"
                    d="M507.253 400.008H505.163C504.548 400.008 504.225 400.287 504.225 400.86V402.333C504.225 402.904 504.548 403.184 505.163 403.184H507.253C507.868 403.184 508.192 402.904 508.192 402.333V400.86C508.192 400.287 507.868 400.008 507.253 400.008ZM507.447 402.486H504.975V400.707H507.452L507.447 402.486Z"
                    fill="#FFB928"
                />
                <path
                    id="Vector_50"
                    d="M511.686 401.222H509.502V400.678H512.498V399.998H509.632C509.022 399.998 508.758 400.226 508.758 400.785V401.109C508.758 401.681 509.015 401.904 509.632 401.904H511.816V402.501H508.819V403.181H511.686C512.302 403.181 512.56 402.959 512.56 402.386V402.007C512.56 401.436 512.303 401.22 511.686 401.22"
                    fill="#FFB928"
                />
                <path
                    id="Vector_51"
                    d="M502.704 400.008H500.613C499.999 400.008 499.675 400.287 499.675 400.86V402.333C499.675 402.904 499.999 403.184 500.613 403.184H502.704C503.318 403.184 503.642 402.904 503.642 402.333V400.86C503.642 400.287 503.318 400.008 502.704 400.008ZM502.898 402.486H500.419V400.707H502.898V402.486Z"
                    fill="#FFB928"
                />
            </g>
            <path
                id="27"
                d="M527.102 396.698V399.543L524.053 405.556V406.081H527.102V407.774H522.275V405.319L525.324 399.306V397.612H524.053V399.306H522.275V396.698C522.275 396.24 522.58 395.919 523.054 395.919H526.323C526.797 395.919 527.102 396.24 527.102 396.698ZM529.523 407.774V402.355L530.946 397.612H528.033V395.919H532.775V397.443L531.302 402.355V407.774H529.523Z"
                fill="#EB3333"
            />
        </g>
        <g id="figure 30">
            <rect id="Rectangle 386_4" x="547.338" y="491.104" width="37.7218" height="22.2833" transform="rotate(29.6242 547.338 491.104)" fill="#EBEBEB" stroke="#EB3333" stroke-width="4.2342" />
            <path
                id="30"
                d="M556.944 516H553.676C553.201 516 552.896 515.678 552.896 515.221V512.105H554.675V514.306H555.945V510.106H554.167V508.531L555.776 505.838H552.981V504.144H557.639V505.669L556.013 508.412H556.944C557.419 508.412 557.723 508.734 557.723 509.191V515.221C557.723 515.678 557.419 516 556.944 516ZM560.852 514.306H562.122V505.838H560.852V514.306ZM563.122 516H559.853C559.379 516 559.074 515.678 559.074 515.221V504.923C559.074 504.466 559.379 504.144 559.853 504.144H563.122C563.596 504.144 563.901 504.466 563.901 504.923V515.221C563.901 515.678 563.596 516 563.122 516Z"
                fill="#EB3333"
            />
        </g>
        <g id="figure 12">
            <rect id="Rectangle 382" x="565.116" y="434.276" width="19.3186" height="22.9642" transform="rotate(134.203 565.116 434.276)" fill="#EBEBEB" stroke="#EB3333" stroke-width="4.2342" />
            <path
                id="12"
                d="M545.472 428.958V427.264H548.013V439.12H546.234V428.958H545.472ZM554.196 428.043V430.889L551.147 436.901V437.426H554.196V439.12H549.369V436.664L552.417 430.652V428.958H551.147V430.652H549.369V428.043C549.369 427.586 549.674 427.264 550.148 427.264H553.417C553.891 427.264 554.196 427.586 554.196 428.043Z"
                fill="#EB3333"
            />
        </g>
        <g id="figure 10">
            <path
                id="Rectangle 441"
                d="M594.226 336.233C594.226 320.662 606.848 308.039 622.419 308.039H690.088C705.659 308.039 718.281 320.662 718.281 336.233C718.281 351.803 705.659 364.426 690.088 364.426H622.419C606.848 364.426 594.226 351.803 594.226 336.233Z"
                fill="#EBEBEB"
                stroke="#EB3333"
                stroke-width="4.2342"
            />
            <path
                id="10"
                d="M652.198 332.105V330.411H654.739V342.267H652.96V332.105H652.198ZM657.958 340.573H659.228V332.105H657.958V340.573ZM660.228 342.267H656.959C656.485 342.267 656.18 341.945 656.18 341.488V331.19C656.18 330.733 656.485 330.411 656.959 330.411H660.228C660.702 330.411 661.007 330.733 661.007 331.19V341.488C661.007 341.945 660.702 342.267 660.228 342.267Z"
                fill="#EB3333"
            />
        </g>
        <g id="figure 9-4">
            <rect id="Rectangle 391" x="868.436" y="474.655" width="101.621" height="45.7294" rx="22.4413" fill="#EBEBEB" stroke="#EB3333" stroke-width="4.2342" />
            <path
                id="9"
                d="M919.039 496.393H920.309V493.006H919.039V496.393ZM917.26 497.308V492.091C917.26 491.634 917.565 491.312 918.039 491.312H921.308C921.782 491.312 922.087 491.634 922.087 492.091V502.389C922.087 502.846 921.782 503.168 921.308 503.168H918.039C917.565 503.168 917.26 502.846 917.26 502.389V499.273H919.039V501.474H920.309V498.087H918.039C917.565 498.087 917.26 497.765 917.26 497.308Z"
                fill="#EB3333"
            />
        </g>
        <g id="figure 9-3">
            <rect id="Rectangle 399_3" x="911.426" y="558.981" width="32.4201" height="36.6495" fill="#EBEBEB" stroke="#EB3333" stroke-width="4.2342" />
            <path
                id="9_2"
                d="M927.302 577.596H928.572V574.209H927.302V577.596ZM925.523 578.511V573.295C925.523 572.837 925.828 572.515 926.303 572.515H929.571C930.046 572.515 930.35 572.837 930.35 573.295V583.592C930.35 584.049 930.046 584.371 929.571 584.371H926.303C925.828 584.371 925.523 584.049 925.523 583.592V580.476H927.302V582.678H928.572V579.29H926.303C925.828 579.29 925.523 578.968 925.523 578.511Z"
                fill="#EB3333"
            />
        </g>
        <g id="figure 9-2">
            <rect id="Rectangle 399_4" x="866.313" y="558.981" width="32.4201" height="36.6495" fill="#EBEBEB" stroke="#EB3333" stroke-width="4.2342" />
            <path
                id="9_3"
                d="M882.189 577.596H883.459V574.209H882.189V577.596ZM880.41 578.511V573.295C880.41 572.837 880.715 572.515 881.189 572.515H884.458C884.932 572.515 885.237 572.837 885.237 573.295V583.592C885.237 584.049 884.932 584.371 884.458 584.371H881.189C880.715 584.371 880.41 584.049 880.41 583.592V580.476H882.189V582.678H883.459V579.29H881.189C880.715 579.29 880.41 578.968 880.41 578.511Z"
                fill="#EB3333"
            />
        </g>
        <g id="figure 9">
            <rect id="Rectangle 399_5" x="819.79" y="558.981" width="32.4201" height="36.6495" fill="#EBEBEB" stroke="#EB3333" stroke-width="4.2342" />
            <path
                id="9_4"
                d="M835.666 577.596H836.936V574.209H835.666V577.596ZM833.888 578.511V573.295C833.888 572.837 834.193 572.515 834.667 572.515H837.936C838.41 572.515 838.715 572.837 838.715 573.295V583.592C838.715 584.049 838.41 584.371 837.936 584.371H834.667C834.193 584.371 833.888 584.049 833.888 583.592V580.476H835.666V582.678H836.936V579.29H834.667C834.193 579.29 833.888 578.968 833.888 578.511Z"
                fill="#EB3333"
            />
        </g>
        <g id="figure 31">
            <rect id="Rectangle 388" x="782.029" y="482.842" width="22.2079" height="20.6825" transform="rotate(-41.7478 782.029 482.842)" fill="#EBEBEB" stroke="#EB3333" stroke-width="4.2342" />
            <path
                id="31"
                d="M797.147 488.896H793.878C793.404 488.896 793.099 488.574 793.099 488.117V485.001H794.878V487.202H796.148V483.002H794.37V481.427L795.979 478.734H793.184V477.04H797.842V478.565L796.216 481.308H797.147C797.622 481.308 797.926 481.63 797.926 482.088V488.117C797.926 488.574 797.622 488.896 797.147 488.896ZM799.107 478.734V477.04H801.648V488.896H799.869V478.734H799.107Z"
                fill="#EB3333"
            />
        </g>
        <g id="figure 8">
            <rect id="Rectangle 382_2" x="2.99115" y="-0.131411" width="22.3529" height="22.7053" transform="matrix(0.737461 0.67539 0.67539 -0.737461 742.187 438.886)" fill="#EBEBEB" stroke="#EB3333" stroke-width="4.2342" />
            <path id="Vector 24" d="M718.5 456.5L744.442 441.359L759.95 423.737L775 402" stroke="#EB3333" stroke-width="4.22934" />
            <path
                id="8"
                d="M762.065 441.901V446.237C762.065 446.694 761.76 447.016 761.286 447.016H758.017C757.543 447.016 757.238 446.694 757.238 446.237V441.901C757.238 441.207 757.56 440.766 758.085 440.58C757.56 440.394 757.238 439.936 757.238 439.259V435.939C757.238 435.482 757.543 435.16 758.017 435.16H761.286C761.76 435.16 762.065 435.482 762.065 435.939V439.259C762.065 439.936 761.743 440.394 761.202 440.58C761.743 440.766 762.065 441.207 762.065 441.901ZM760.287 441.427H759.017V445.322H760.287V441.427ZM759.017 439.733H760.287V436.854H759.017V439.733Z"
                fill="#EB3333"
            />
        </g>
        <g id="figure 6">
            <rect id="Rectangle 400" x="510.619" y="233.332" width="37.2655" height="20.6825" transform="rotate(42.2943 510.619 233.332)" fill="#EBEBEB" stroke="#EB3333" stroke-width="4.2342" />
            <path
                id="6"
                d="M518.093 254.086H516.823V257.982H518.093V254.086ZM519.871 248.599V251.207H518.093V249.513H516.823V252.393H519.092C519.567 252.393 519.871 252.715 519.871 253.172V258.896C519.871 259.354 519.567 259.676 519.092 259.676H515.824C515.349 259.676 515.044 259.354 515.044 258.896V248.599C515.044 248.142 515.349 247.82 515.824 247.82H519.092C519.567 247.82 519.871 248.142 519.871 248.599Z"
                fill="#EB3333"
            />
        </g>
        <g id="figure 5">
            <rect id="Rectangle 398" x="780.117" y="329.186" width="59.4052" height="56.3864" fill="#EBEBEB" stroke="#EB3333" stroke-width="4.2342" />
            <path
                id="5"
                d="M808.785 356.769H807.515V357.446H805.736V351.18H810.479V352.873H807.515V355.075H809.784C810.258 355.075 810.563 355.397 810.563 355.854V362.256C810.563 362.714 810.258 363.035 809.784 363.035H806.515C806.041 363.035 805.736 362.714 805.736 362.256V359.14H807.515V361.342H808.785V356.769Z"
                fill="#EB3333"
            />
        </g>
        <g id="figure 4">
            <rect id="Rectangle 409_8" x="2.12434" y="2.10393" width="18.0099" height="17.7244" transform="matrix(0.999981 -0.00621404 0.00343665 0.999994 648.543 422.347)" fill="#EBEBEB" stroke="#EB3333" stroke-width="4.2342" />
            <path id="4" d="M662.012 439.487H660.233V437.285H657.269V435.761L659.607 427.631H661.47L659.183 435.591H660.233V434.067L662.012 433.728V435.591H662.689V437.285H662.012V439.487Z" fill="#EB3333" />
        </g>
        <g id="figure 3">
            <rect id="Rectangle 383" x="484.117" y="328.117" width="54.9766" height="55.7658" fill="#EBEBEB" stroke="#EB3333" stroke-width="4.2342" />
            <path
                id="3"
                d="M513.541 362H510.272C509.798 362 509.493 361.678 509.493 361.221V358.104H511.271V360.306H512.541V356.106H510.763V354.531L512.372 351.838H509.577V350.144H514.235V351.668L512.609 354.412H513.541C514.015 354.412 514.32 354.734 514.32 355.191V361.221C514.32 361.678 514.015 362 513.541 362Z"
                fill="#EB3333"
            />
        </g>
        <g id="figure 7">
            <rect id="Rectangle 383_2" x="552.117" y="322.117" width="12.7658" height="51.7658" fill="#EBEBEB" stroke="#EB3333" stroke-width="4.2342" />
            <path
                id="&#208;&#154;&#208;&#190;&#208;&#189;&#209;&#130;&#209;&#131;&#209;&#128; 96735"
                d="M556.031 342.24C556.006 342.195 555.996 342.144 556.002 342.094L556.002 341.129C556.002 341.024 556.049 340.983 556.139 341.006L559.537 341.784C559.708 341.824 559.873 341.885 560.028 341.965C560.187 342.045 560.331 342.152 560.453 342.281C560.58 342.419 560.68 342.58 560.746 342.754C560.822 342.956 560.858 343.171 560.854 343.386L560.854 345.443C560.854 345.496 560.848 345.531 560.83 345.543C560.812 345.555 560.764 345.555 560.686 345.531L559.902 345.356C559.858 345.35 559.817 345.332 559.783 345.303C559.759 345.271 559.749 345.231 559.753 345.192L559.753 343.52C559.756 343.443 559.744 343.365 559.717 343.292C559.696 343.237 559.663 343.188 559.621 343.146C559.584 343.113 559.542 343.088 559.496 343.07C559.451 343.051 559.405 343.035 559.358 343.023L558.927 342.924L558.927 344.707C558.927 344.759 558.915 344.795 558.897 344.806C558.879 344.818 558.832 344.812 558.754 344.795L558.036 344.631C557.928 344.607 557.874 344.549 557.874 344.467L557.874 342.684L556.139 342.287C556.098 342.282 556.058 342.266 556.026 342.24"
                fill="#E80024"
            />
            <path
                id="&#208;&#154;&#208;&#190;&#208;&#189;&#209;&#130;&#209;&#131;&#209;&#128; 96736"
                d="M558.433 349.69C558.081 349.609 557.74 349.486 557.417 349.324C557.131 349.182 556.872 348.991 556.651 348.759C556.439 348.53 556.275 348.259 556.169 347.964C556.052 347.631 555.995 347.28 556 346.927C556 346.558 556.055 346.252 556.163 346.008C556.26 345.777 556.427 345.584 556.639 345.455C556.874 345.323 557.137 345.252 557.405 345.248C557.745 345.24 558.085 345.277 558.415 345.36C558.765 345.44 559.103 345.567 559.42 345.737C559.707 345.892 559.968 346.093 560.192 346.332C560.405 346.561 560.572 346.829 560.685 347.122C560.802 347.434 560.859 347.766 560.854 348.099C560.854 348.468 560.798 348.775 560.685 349.018C560.581 349.25 560.411 349.444 560.198 349.578C559.964 349.714 559.701 349.789 559.431 349.796C559.095 349.807 558.759 349.772 558.433 349.689M558.427 348.329C558.592 348.365 558.758 348.391 558.926 348.405C559.064 348.419 559.204 348.409 559.338 348.376C559.448 348.35 559.546 348.287 559.617 348.199C559.692 348.091 559.729 347.96 559.722 347.828C559.723 347.698 559.688 347.57 559.623 347.457C559.552 347.337 559.46 347.231 559.35 347.145C559.227 347.05 559.092 346.971 558.95 346.909C558.796 346.838 558.637 346.78 558.473 346.739C558.29 346.693 558.104 346.661 557.916 346.644C557.776 346.63 557.634 346.642 557.498 346.68C557.391 346.71 557.297 346.777 557.231 346.868C557.164 346.977 557.131 347.105 557.138 347.233C557.136 347.374 557.172 347.513 557.243 347.634C557.316 347.755 557.413 347.859 557.527 347.94C557.655 348.032 557.793 348.108 557.939 348.164C558.1 348.227 558.265 348.278 558.433 348.317"
                fill="#E80024"
            />
            <path
                id="&#208;&#154;&#208;&#190;&#208;&#189;&#209;&#130;&#209;&#131;&#209;&#128; 96737"
                d="M558.651 358.479C558.603 358.58 558.532 358.67 558.442 358.742C558.357 358.806 558.259 358.856 558.155 358.887C558.05 358.918 557.941 358.933 557.831 358.932C557.719 358.93 557.606 358.917 557.496 358.893C557.277 358.846 557.07 358.761 556.886 358.641C556.703 358.522 556.543 358.374 556.413 358.205C556.28 358.031 556.177 357.839 556.108 357.635C556.036 357.426 555.999 357.207 556 356.987L556 355.299C556 355.12 556.036 355.014 556.108 354.98C556.18 354.947 556.293 354.947 556.461 354.98L560.399 355.841C560.525 355.862 560.643 355.914 560.74 355.992C560.818 356.059 560.854 356.182 560.854 356.361L560.854 358.043C560.855 358.222 560.831 358.401 560.782 358.574C560.743 358.719 560.667 358.853 560.561 358.965C560.456 359.07 560.321 359.143 560.172 359.178C559.984 359.215 559.788 359.21 559.603 359.161C559.409 359.116 559.229 359.03 559.076 358.909C558.915 358.792 558.781 358.645 558.681 358.479L558.651 358.479ZM559.07 356.774L559.07 357.451C559.072 357.539 559.097 357.625 559.142 357.702C559.19 357.786 559.28 357.842 559.411 357.87C559.543 357.898 559.597 357.881 559.657 357.836C559.687 357.808 559.71 357.774 559.725 357.736C559.739 357.698 559.745 357.658 559.741 357.618L559.741 356.92L559.07 356.774ZM557.58 357.646C557.635 357.662 557.692 357.667 557.749 357.66C557.806 357.654 557.861 357.635 557.909 357.607C557.993 357.551 558.035 357.451 558.035 357.311L558.035 356.551L557.131 356.35L557.131 357.11C557.129 357.186 557.143 357.262 557.173 357.333C557.2 357.391 557.239 357.444 557.287 357.49C557.329 357.53 557.377 357.564 557.43 357.59C557.478 357.612 557.528 357.629 557.58 357.641"
                fill="#E80024"
            />
            <path
                id="&#208;&#154;&#208;&#190;&#208;&#189;&#209;&#130;&#209;&#131;&#209;&#128; 96738"
                d="M556 362.641L556 360.562C556 360.295 556.042 360.086 556.119 359.935C556.186 359.799 556.295 359.685 556.43 359.61C556.56 359.541 556.706 359.505 556.854 359.506C557.011 359.505 557.167 359.523 557.319 359.558L559.534 360.063C559.705 360.103 559.869 360.163 560.024 360.243C560.183 360.323 560.326 360.429 560.448 360.557C560.575 360.694 560.674 360.854 560.74 361.027C560.819 361.229 560.857 361.444 560.854 361.66L560.854 363.646C560.854 363.698 560.848 363.733 560.83 363.745C560.812 363.756 560.764 363.756 560.687 363.739L559.905 363.559C559.86 363.551 559.818 363.531 559.785 363.501C559.761 363.469 559.751 363.43 559.755 363.39L559.755 361.782C559.759 361.705 559.747 361.628 559.72 361.555C559.699 361.501 559.666 361.451 559.624 361.41C559.588 361.376 559.545 361.348 559.499 361.329C559.454 361.31 559.408 361.294 559.361 361.283L559.069 361.219L559.069 363.025C559.069 363.077 559.057 363.112 559.039 363.123C558.991 363.133 558.941 363.129 558.896 363.112L558.173 362.949C558.066 362.926 558.012 362.872 558.012 362.787L558.012 360.981L557.493 360.864C557.425 360.845 557.354 360.839 557.284 360.847C557.24 360.852 557.199 360.873 557.17 360.905C557.144 360.939 557.127 360.979 557.122 361.021L557.111 361.178L557.111 362.885C557.111 362.938 557.105 362.972 557.087 362.984C557.069 362.996 557.021 362.996 556.943 362.978L556.161 362.798C556.054 362.775 556 362.717 556 362.636"
                fill="#E80024"
            />
            <path
                id="&#208;&#154;&#208;&#190;&#208;&#189;&#209;&#130;&#209;&#131;&#209;&#128; 96740"
                d="M558.627 351.405L556.146 350.812C556.104 350.804 556.064 350.786 556.032 350.758C556.006 350.713 555.995 350.66 556.002 350.608L556.002 349.627C556.002 349.519 556.05 349.477 556.146 349.501L560.302 350.495C560.517 350.549 560.667 350.614 560.738 350.704C560.81 350.794 560.852 350.938 560.852 351.129L560.852 351.488L560.84 351.668C560.834 351.714 560.82 351.759 560.798 351.8C560.774 351.842 560.742 351.879 560.702 351.908C560.65 351.947 560.594 351.981 560.535 352.009L559.052 352.65L558.209 352.991L558.209 353.039L560.708 353.631C560.75 353.639 560.789 353.658 560.822 353.685C560.848 353.73 560.859 353.783 560.852 353.835L560.852 354.823C560.852 354.931 560.804 354.972 560.708 354.949L556.546 353.949C556.403 353.917 556.27 353.851 556.158 353.757C556.054 353.669 556.002 353.52 556.002 353.308L556.002 352.949L556.014 352.775C556.02 352.727 556.034 352.681 556.056 352.638C556.08 352.596 556.113 352.559 556.152 352.53C556.203 352.491 556.259 352.458 556.319 352.434L557.766 351.806L558.627 351.458L558.627 351.405Z"
                fill="#E80024"
            />
            <path
                id="&#208;&#154;&#208;&#190;&#208;&#189;&#209;&#130;&#209;&#131;&#209;&#128; 96739"
                d="M559.748 367.635L559.748 366.508L556.145 365.707C556.104 365.701 556.065 365.685 556.032 365.661C556.006 365.618 555.995 365.568 556.002 365.519L556.002 364.581C556.002 364.478 556.05 364.438 556.145 364.461L559.748 365.263L559.748 364.165C559.748 364.074 559.801 364.04 559.909 364.063L560.685 364.234C560.739 364.239 560.79 364.261 560.829 364.296C560.848 364.331 560.856 364.371 560.853 364.41L560.853 367.885C560.858 367.921 560.849 367.957 560.829 367.987C560.811 368.004 560.763 368.004 560.685 367.987L559.909 367.817C559.801 367.794 559.748 367.737 559.748 367.64"
                fill="#E80024"
            />
            <path id="7" d="M557.517 338V332.58L558.94 327.838H556.027V326.144H560.769V327.669L559.296 332.58V338H557.517Z" fill="#EB3333" />
        </g>
        <g id="figure 2">
            <rect id="Rectangle 379" x="695.729" y="501.18" width="18.3223" height="78.9429" fill="#EBEBEB" stroke="#EB3333" stroke-width="4.2342" />
            <path
                id="2"
                d="M707.314 533.03V535.875L704.266 541.888V542.413H707.314V544.106H702.487V541.65L705.536 535.638V533.944H704.266V535.638H702.487V533.03C702.487 532.572 702.792 532.251 703.266 532.251H706.535C707.009 532.251 707.314 532.572 707.314 533.03Z"
                fill="#EB3333"
            />
        </g>
        <g id="figure 1">
            <rect id="Rectangle 378" x="635.109" y="461.706" width="42.2886" height="142.383" fill="#EBEBEB" stroke="#EB3333" stroke-width="4.2342" />
            <path id="1" d="M654.449 527.686V525.993H656.989V537.848H655.211V527.686H654.449Z" fill="#EB3333" />
        </g>
        <g id="figure 18">
            <rect id="Rectangle 382_3" x="598.59" y="454.19" width="27.809" height="30.4065" transform="rotate(117.12 598.59 454.19)" fill="#EBEBEB" stroke="#EB3333" stroke-width="4.2342" />
            <path
                id="18"
                d="M567.91 455.838V454.144H570.45V466H568.672V455.838H567.91ZM576.718 460.885V465.221C576.718 465.678 576.413 466 575.939 466H572.67C572.196 466 571.891 465.678 571.891 465.221V460.885C571.891 460.191 572.213 459.75 572.738 459.564C572.213 459.378 571.891 458.92 571.891 458.243V454.923C571.891 454.466 572.196 454.144 572.67 454.144H575.939C576.413 454.144 576.718 454.466 576.718 454.923V458.243C576.718 458.92 576.396 459.378 575.854 459.564C576.396 459.75 576.718 460.191 576.718 460.885ZM574.94 460.411H573.67V464.306H574.94V460.411ZM573.67 458.717H574.94V455.838H573.67V458.717Z"
                fill="#EB3333"
            />
            <g id="Group 37597">
                <path
                    id="Vector_52"
                    d="M582.087 460.601H582.708V459.978H582.181V454H579.828V457.065C579.828 457.942 579.79 459.205 579.348 459.978H579V460.601H582.087ZM580.449 457.065V454.622H581.56V459.978H580.035C580.402 459.073 580.449 457.989 580.449 457.065Z"
                    fill="#263256"
                />
                <path id="Vector_53" d="M585.064 459.978H583.897V457.329H584.923V456.754H583.897V454.622H585.073V454H583.276V460.601H585.064V459.978Z" fill="#263256" />
                <path id="Vector_54" d="M586.451 454.622H587.571V460.601H588.192V454H585.83V460.601H586.451V454.622Z" fill="#263256" />
                <path
                    id="Vector_55"
                    d="M589.745 459.478H590.263C590.671 459.478 591 459.15 591 458.745V454.754C591 454.349 590.671 454.021 590.263 454.021H589.745C589.345 454.021 589.008 454.349 589.008 454.754V458.745C589.008 459.15 589.345 459.478 589.745 459.478ZM589.526 454.754C589.526 454.637 589.628 454.536 589.745 454.536H590.263C590.381 454.536 590.482 454.637 590.482 454.754V458.745C590.482 458.87 590.38 458.963 590.263 458.963H589.745C589.628 458.963 589.526 458.87 589.526 458.745V454.754V454.754Z"
                    fill="#263256"
                />
                <path id="Vector_56" d="M591 460.069H589.008V460.601H591V460.069Z" fill="#263256" />
                <path id="Vector_57" d="M579.175 462.259H579.327V461.539H579.502V461.4H579V461.539H579.175V462.259Z" fill="#263256" />
                <path
                    id="Vector_58"
                    d="M580.116 461.4H579.843V462.259H579.994V461.92H580.116C580.199 461.92 580.263 461.899 580.306 461.857C580.35 461.815 580.372 461.753 580.372 461.672V461.646C580.372 461.567 580.35 461.506 580.306 461.464C580.262 461.421 580.198 461.4 580.116 461.4V461.4ZM580.22 461.672C580.22 461.711 580.21 461.738 580.19 461.756C580.17 461.773 580.141 461.781 580.104 461.781H579.994V461.539H580.104C580.181 461.539 580.22 461.575 580.22 461.646V461.672H580.22Z"
                    fill="#263256"
                />
                <path id="Vector_59" d="M580.882 461.941V461.4H580.734V462.259H580.89L581.11 461.717V462.259H581.259V461.4H581.105L580.882 461.941Z" fill="#263256" />
                <path
                    id="Vector_60"
                    d="M582.722 461.642V461.616C582.722 461.548 582.7 461.495 582.657 461.457C582.614 461.419 582.554 461.4 582.477 461.4H582.215V462.259H582.492C582.568 462.259 582.629 462.239 582.672 462.2C582.716 462.161 582.737 462.106 582.737 462.038V462.011C582.737 461.967 582.728 461.929 582.709 461.897C582.69 461.865 582.662 461.84 582.625 461.823C582.69 461.786 582.722 461.726 582.722 461.642L582.722 461.642ZM582.366 461.537H582.459C582.497 461.537 582.524 461.545 582.543 461.561C582.561 461.577 582.57 461.601 582.57 461.633V461.657C582.57 461.724 582.534 461.757 582.461 461.757H582.366V461.537H582.366ZM582.586 462.02C582.586 462.088 582.548 462.121 582.473 462.121H582.366V461.893H582.475C582.51 461.893 582.538 461.902 582.557 461.92C582.576 461.938 582.586 461.964 582.586 461.997V462.02H582.586Z"
                    fill="#263256"
                />
                <path
                    id="Vector_61"
                    d="M583.375 462.275C583.459 462.275 583.524 462.252 583.573 462.207C583.621 462.162 583.645 462.101 583.645 462.023V461.636C583.645 461.559 583.621 461.498 583.573 461.452C583.524 461.407 583.459 461.384 583.375 461.384C583.291 461.384 583.226 461.407 583.178 461.452C583.129 461.498 583.104 461.559 583.104 461.636V462.023C583.104 462.101 583.129 462.162 583.177 462.207C583.225 462.252 583.291 462.275 583.375 462.275ZM583.256 461.648C583.256 461.607 583.266 461.577 583.287 461.555C583.307 461.534 583.337 461.523 583.375 461.523C583.413 461.523 583.443 461.534 583.464 461.555C583.485 461.577 583.495 461.607 583.495 461.648V462.013C583.495 462.052 583.485 462.082 583.464 462.104C583.443 462.125 583.413 462.136 583.375 462.136C583.337 462.136 583.307 462.125 583.287 462.104C583.266 462.082 583.256 462.052 583.256 462.013V461.648Z"
                    fill="#263256"
                />
                <path id="Vector_62" d="M584.569 461.422V461.4H584.415L584.261 461.761H584.189V461.4H584.037V462.259H584.189V461.899H584.262L584.419 462.259H584.577V462.236L584.397 461.828L584.569 461.422Z" fill="#263256" />
                <path
                    id="Vector_63"
                    d="M584.88 461.657V461.696H585.031V461.657C585.031 461.568 585.069 461.523 585.145 461.523C585.178 461.523 585.204 461.533 585.223 461.553C585.242 461.573 585.252 461.6 585.252 461.634V461.661C585.252 461.691 585.243 461.715 585.226 461.733C585.21 461.751 585.187 461.76 585.158 461.76H585.076V461.898H585.153C585.188 461.898 585.216 461.906 585.235 461.924C585.254 461.941 585.264 461.966 585.264 461.998V462.024C585.264 462.058 585.253 462.084 585.232 462.105C585.211 462.126 585.184 462.136 585.15 462.136C585.106 462.136 585.074 462.126 585.055 462.106C585.035 462.086 585.026 462.052 585.026 462.006V461.964H584.874V462.006C584.874 462.094 584.897 462.161 584.944 462.206C584.99 462.252 585.058 462.275 585.147 462.275C585.2 462.275 585.246 462.265 585.287 462.245C585.327 462.225 585.359 462.198 585.381 462.163C585.404 462.127 585.415 462.087 585.415 462.042V461.996C585.415 461.957 585.406 461.924 585.389 461.895C585.372 461.866 585.347 461.843 585.315 461.826C585.342 461.808 585.364 461.786 585.38 461.758C585.396 461.731 585.403 461.699 585.403 461.665V461.619C585.403 461.573 585.392 461.533 585.37 461.497C585.348 461.461 585.317 461.433 585.278 461.414C585.239 461.394 585.194 461.385 585.143 461.385C585.058 461.385 584.993 461.408 584.947 461.455C584.902 461.501 584.88 461.569 584.88 461.657L584.88 461.657Z"
                    fill="#263256"
                />
                <path
                    id="Vector_64"
                    d="M585.911 462.093H586.129L586.166 462.259H586.321V462.237L586.109 461.4H585.93L585.717 462.237V462.259H585.871L585.911 462.093ZM586.019 461.62L586.097 461.956H585.942L586.019 461.62H586.019Z"
                    fill="#263256"
                />
                <path
                    id="Vector_65"
                    d="M586.745 461.54H586.748L586.741 461.997C586.74 462.04 586.733 462.071 586.718 462.091C586.703 462.11 586.68 462.12 586.648 462.12H586.617V462.259H586.669C586.74 462.259 586.793 462.239 586.828 462.198C586.863 462.157 586.881 462.096 586.882 462.013L586.889 461.54H587.068V462.259H587.219V461.4H586.745V461.54L586.745 461.54Z"
                    fill="#263256"
                />
                <path id="Vector_66" d="M587.785 461.4L587.572 462.236V462.259H587.726L587.766 462.092H587.984L588.021 462.259H588.176V462.236L587.964 461.4H587.785ZM587.797 461.956L587.874 461.62L587.952 461.956H587.797Z" fill="#263256" />
                <path
                    id="Vector_67"
                    d="M590.172 461.411C590.068 461.351 589.94 461.351 589.836 461.411C589.664 461.51 589.614 461.735 589.728 461.898L590.004 462.293L590.28 461.898C590.394 461.735 590.344 461.51 590.172 461.411ZM590.004 461.822C589.933 461.822 589.875 461.764 589.875 461.693C589.875 461.622 589.933 461.564 590.004 461.564C590.075 461.564 590.133 461.622 590.133 461.693C590.133 461.764 590.075 461.822 590.004 461.822Z"
                    fill="#263256"
                />
            </g>
        </g>
    </g>
</svg>
