<svg width="368" height="383" viewBox="0 0 368 383" fill="none" xmlns="http://www.w3.org/2000/svg">
<path d="M272.004 12.1774L360.163 161.557L72.344 368.909L2.42505 314.922L272.004 12.1774Z" fill="#3B3393"/>
<path fill-rule="evenodd" clip-rule="evenodd" d="M360.155 161.714L271.996 12.3344L141.53 158.803C127.17 153.24 111.21 151.533 95.0327 154.376C48.0762 162.824 16.9897 207.731 25.4375 254.688C27.0569 263.573 29.9616 271.89 34.0023 279.475L2.41724 315.079L72.3362 369.066L139.768 320.55C155.289 315.002 168.494 305.254 178.21 292.823L360.155 161.714ZM178.054 292.815C192.95 274.026 199.949 249.355 195.345 223.971C189.74 193.192 168.555 169.217 141.53 158.803L34.0023 279.475C51.0089 311.9 87.8344 331.119 125.749 324.283C130.509 323.41 135.284 322.223 139.611 320.543L178.054 292.815Z" fill="#E1AC54"/>
</svg>
