<svg xmlns="http://www.w3.org/2000/svg" width="129" height="35" viewBox="0 0 129 35" fill="none">
  <path d="M18.9063 6.71621C19.838 7.65828 20.5672 8.76416 21.1344 10.0748C21.661 11.3855 21.9446 12.778 21.9446 14.3754C21.9446 16.0139 21.661 17.4064 21.1344 18.7171C20.6482 19.9459 19.838 21.1336 18.9063 22.0757C17.9745 23.0178 16.7996 23.8369 15.5033 24.3284C14.2069 24.8609 12.7081 25.1476 11.2496 25.1476C9.71019 25.1476 8.29227 24.8609 6.99596 24.3284C5.69966 23.755 4.52473 23.0178 3.59302 22.0757C2.66126 21.1336 1.85104 20.0278 1.36491 18.7171C0.838259 17.4474 0.554688 16.0139 0.554688 14.3754V-2.49951H4.44381V14.3345C4.44381 15.3994 4.6868 16.5054 5.33495 17.816C5.69966 18.799 6.18574 19.4953 6.8339 20.1097C7.40102 20.6831 8.13032 21.1336 8.94054 21.4204C10.4394 21.9119 12.1814 21.9119 13.6803 21.4204C14.4096 21.1336 15.1387 20.6831 15.7869 20.1097C16.435 19.4953 16.9617 18.7171 17.3263 17.816C17.6909 16.8739 17.8934 15.7681 17.8934 14.5393C17.8934 13.2286 17.6909 12.1227 17.3263 11.1807C16.8807 10.1567 15.7869 9.05081 15.0577 8.60036C13.1942 7.45342 11.8979 7.49437 10.0343 7.49437H8.69744V3.84914H8.94054C10.723 3.84914 13.1131 3.93105 14.9361 4.38161C16.435 4.75016 17.9745 5.81508 18.9063 6.71621Z" fill="white"/>
  <path d="M32.4158 3.72583V25.0654H28.2837V3.72583H32.4158Z" fill="white"/>
  <path d="M49.2591 21.4613C48.4893 21.4613 47.6385 21.3385 46.7878 21.0517C46.0181 20.7241 45.3699 20.3145 44.7622 19.7411C44.1141 19.1677 43.628 18.3894 43.2634 17.5292C42.8988 16.6692 42.6962 15.6042 42.6962 14.2935C42.6962 13.0238 42.8988 11.9179 43.2634 11.0168C43.628 10.0747 44.1141 9.33753 44.7622 8.76411C45.3699 8.1907 46.0991 7.78109 46.8689 7.49433C47.6385 7.20768 48.4487 7.04388 49.2185 7.04388C49.9883 7.04388 50.7579 7.20768 51.5277 7.49433C52.3379 7.78109 53.0266 8.1907 53.6748 8.76411C54.2825 9.33753 54.809 10.0747 55.1331 11.0168C55.4977 11.877 55.7003 13.0238 55.7003 14.2935C55.7003 15.5223 55.4977 16.6692 55.1331 17.5292C54.809 18.4713 54.2825 19.1677 53.6748 19.7411C53.0266 20.3145 52.3783 20.7241 51.6087 21.0517C50.8389 21.3385 50.0693 21.4613 49.2591 21.4613ZM49.2591 3.76709C47.8006 3.76709 46.3827 4.05385 45.0864 4.58631C43.8305 5.07783 42.6962 5.77409 41.7645 6.71616C40.8732 7.65824 40.144 8.80507 39.5769 10.0747C39.0907 11.3855 38.8071 12.8191 38.8071 14.3344C38.8071 15.8909 39.0097 17.2426 39.5769 18.5532C40.063 19.823 40.8732 20.9698 41.7645 21.9119C42.6962 22.854 43.8305 23.6321 45.0864 24.1236C46.3827 24.6561 47.8006 24.9429 49.2591 24.9429C50.7579 24.9429 52.1758 24.6561 53.4317 24.1236C54.728 23.5502 55.8623 22.854 56.7942 21.9119C57.6853 20.9289 58.4146 19.823 58.9817 18.5532C59.4678 17.2426 59.7514 15.809 59.7514 14.3344C59.7514 12.8191 59.5488 11.3855 58.9817 10.0747C58.4551 8.72317 57.6853 7.65824 56.7942 6.71616C55.8623 5.77409 54.728 5.07783 53.4317 4.58631C52.1758 4.05385 50.7579 3.76709 49.2591 3.76709Z" fill="white"/>
  <path d="M80.363 6.30655C81.3759 7.37148 81.9834 8.39545 82.105 9.41943C82.2671 10.5663 82.3886 11.7541 82.3886 13.0238V25.0657H78.4185V13.1467C78.4185 12.4914 78.378 11.7541 78.2969 11.0987C78.2159 10.2387 77.9323 9.58323 77.4057 8.92791C77.0411 8.39545 76.5144 8.02679 75.9473 7.74014C75.3396 7.41243 74.6104 7.28958 73.8002 7.28958C72.99 7.28958 72.2608 7.41243 71.6937 7.74014C71.086 8.02679 70.5593 8.39545 70.1947 8.92791C69.7086 9.58323 69.3845 10.3206 69.344 11.0987C69.263 11.836 69.182 12.4914 69.182 13.1467V25.0657H65.2119V13.1057C65.2119 11.836 65.2928 10.6482 65.4955 9.50133C65.7385 8.39545 66.3867 7.37148 67.3589 6.30655C67.8451 5.73314 68.4528 5.28258 69.0199 4.95498C69.7086 4.66822 70.2758 4.38157 70.8834 4.21765C71.4506 4.0129 72.0583 3.931 72.5443 3.8491C73.152 3.76709 73.5977 3.76709 73.9623 3.76709C74.3269 3.76709 74.6914 3.76709 75.2181 3.8491C75.7042 3.931 76.3119 4.0948 76.8791 4.21765C77.4867 4.38157 78.0539 4.58632 78.6615 4.95498C79.2288 5.36448 79.8364 5.77409 80.363 6.30655Z" fill="white"/>
  <path d="M92.8397 3.72583V25.0654H88.7075V3.72583H92.8397Z" fill="white"/>
  <path d="M119.77 10.2792C120.297 11.5898 120.581 13.0644 120.499 14.498V31.25H116.611V14.498C116.611 13.474 116.327 12.4091 115.841 11.1393C115.476 10.1973 114.949 9.46 114.301 8.88658C113.734 8.31317 113.004 7.86261 112.235 7.57596C110.736 7.08445 108.995 7.08445 107.495 7.57596C106.766 7.86261 106.077 8.31317 105.429 8.88658C104.781 9.46 104.254 10.2792 103.89 11.1393C103.525 12.0814 103.323 13.1872 103.323 14.4161C103.323 15.7267 103.525 16.8326 103.89 17.7746C104.335 18.7986 105.429 19.9045 106.118 20.3141C107.981 21.5019 109.278 21.42 111.141 21.42H112.438V25.0653H112.235C110.372 25.0653 108.063 24.9834 106.28 24.5329C104.781 24.1642 103.242 23.0993 102.31 22.1981C101.378 21.2562 100.608 20.1913 100.082 18.8805C99.5957 17.5699 99.312 16.1773 99.312 14.5799C99.312 12.9825 99.5957 11.5898 100.082 10.2792C100.608 9.05038 101.378 7.86261 102.31 6.92053C103.242 5.97857 104.416 5.2003 105.713 4.66783C108.346 3.60291 111.586 3.60291 114.18 4.66783C115.476 5.24125 116.611 5.97857 117.542 6.92053C118.474 7.86261 119.284 8.96848 119.77 10.2792Z" fill="white"/>
</svg>