<svg xmlns="http://www.w3.org/2000/svg" width="79" height="35" viewBox="0 0 79 35" fill="none">
  <g clip-path="url(#clip0_555_3631)">
    <path d="M52.2071 10.4653H1.97272C1.19063 10.4653 0.551758 9.82565 0.551758 9.04431V1.61409C0.551758 0.832751 1.19138 0.192383 1.97272 0.192383H52.2064C52.9877 0.192383 53.6273 0.832751 53.6273 1.61409V9.04431C53.6273 9.8264 52.9877 10.4653 52.2064 10.4653" fill="#7D1637"/>
    <path d="M7.45023 7.81091V3.11762H4.94725V7.81091H3.96045V2.19531H8.43703V7.81091H7.45023Z" fill="white"/>
    <path d="M11.4779 4.97935C11.1622 4.97935 10.887 5.11058 10.6508 5.37302V6.83222C10.8653 6.97169 11.1195 7.04143 11.4134 7.04143C11.7239 7.04143 11.9698 6.94095 12.1513 6.73999C12.3327 6.53903 12.4242 6.28408 12.4242 5.9744C12.4242 5.66471 12.341 5.44051 12.1753 5.25605C12.0095 5.07083 11.7771 4.97935 11.4772 4.97935M9.72852 9.41619V4.20101H10.6508V4.54594C10.7686 4.42297 10.9275 4.32024 11.1285 4.23701C11.3287 4.15452 11.5416 4.11328 11.7666 4.11328C12.2585 4.11328 12.6544 4.28425 12.9544 4.62618C13.2528 4.96811 13.4028 5.40976 13.4028 5.9504C13.4028 6.49104 13.2273 6.97694 12.8741 7.34662C12.5209 7.71554 12.0605 7.9 11.4937 7.9C11.1352 7.9 10.854 7.84151 10.6508 7.72379V9.41694H9.72852V9.41619Z" fill="white"/>
    <path d="M14.9678 6.00566C14.9678 6.3056 15.06 6.55305 15.2444 6.74801C15.4289 6.94297 15.6629 7.0412 15.9456 7.0412C16.2282 7.0412 16.4712 6.94597 16.6564 6.75551C16.8409 6.56655 16.9331 6.3161 16.9331 6.00566C16.9331 5.69523 16.8394 5.45978 16.6519 5.26782C16.4644 5.07511 16.229 4.97913 15.9456 4.97913C15.6621 4.97913 15.4349 5.07436 15.2482 5.26332C15.0607 5.45303 14.967 5.70123 14.967 6.00566M14.5223 7.36589C14.1617 7.01046 13.981 6.5568 13.981 6.00566C13.981 5.45453 14.1617 5.00162 14.5223 4.64545C14.883 4.29002 15.3577 4.1123 15.9463 4.1123C16.5349 4.1123 17.0103 4.29002 17.371 4.64545C17.7317 5.00087 17.9124 5.45453 17.9124 6.00566C17.9124 6.5568 17.7317 7.00971 17.371 7.36589C17.0103 7.72206 16.5349 7.89903 15.9463 7.89903C15.3577 7.89903 14.8838 7.72131 14.5223 7.36589Z" fill="white"/>
    <path d="M20.3593 4.88337C19.8352 4.88337 19.5203 5.14507 19.413 5.66921H21.1864C21.1917 5.44501 21.1197 5.25755 20.9697 5.10758C20.8197 4.95761 20.6165 4.88337 20.3593 4.88337ZM21.5463 6.80073L21.811 7.45009C21.4579 7.75003 20.9982 7.89925 20.4321 7.89925C19.8659 7.89925 19.3793 7.72604 19.0239 7.37811C18.6684 7.03093 18.4907 6.57278 18.4907 6.00664C18.4907 5.44051 18.6639 5.01535 19.0119 4.65467C19.359 4.29324 19.8217 4.11328 20.3998 4.11328C20.876 4.11328 21.2794 4.27 21.6116 4.58193C21.943 4.89462 22.1087 5.29729 22.1087 5.78994C22.1087 5.99314 22.0892 6.15886 22.0525 6.28708H19.4445C19.482 6.55478 19.6005 6.76249 19.7977 6.90871C19.9964 7.05643 20.2386 7.12991 20.5281 7.12991C20.9337 7.12991 21.2734 7.02043 21.5463 6.80073Z" fill="white"/>
    <path d="M26.2713 4.20117L24.8826 5.91832L26.4393 7.81168H25.2358L23.8081 5.9903L25.1076 4.20117H26.2706H26.2713ZM22.8535 4.20117H23.7758V7.81168H22.8535V4.20117Z" fill="white"/>
    <path d="M26.6094 5.12348V4.20117H29.8982V5.12348H28.7187V7.81018H27.7964V5.12348H26.6094Z" fill="white"/>
    <path d="M32.5215 7.81091V2.19531H33.5165L35.4339 4.81752L37.262 2.19531H38.1926V7.81091H37.2148V3.75199L35.4414 6.24673H35.2974L33.5075 3.77524V7.81091H32.5215Z" fill="white"/>
    <path d="M40.0944 6.29511V5.67723H41.699C41.6406 5.42603 41.5176 5.23632 41.3301 5.10735C41.1427 4.97913 40.9207 4.91464 40.665 4.91464C40.3171 4.91464 39.9722 5.03986 39.6295 5.29181L39.2523 4.64994C39.4128 4.47298 39.625 4.33951 39.8867 4.24878C40.1484 4.1573 40.4018 4.1123 40.6485 4.1123C41.2634 4.1123 41.753 4.28327 42.1175 4.6252C42.4804 4.96788 42.6626 5.42753 42.6626 6.00566C42.6626 6.55155 42.4901 7.00296 42.1452 7.36139C41.8003 7.71981 41.3309 7.89828 40.7377 7.89828C40.0846 7.89828 39.5852 7.71906 39.2373 7.36139L39.6707 6.75101C39.9324 6.98121 40.2698 7.09669 40.6815 7.09669C40.9597 7.09669 41.1877 7.02845 41.3669 6.89198C41.5461 6.75551 41.6601 6.55605 41.708 6.29436H40.0951L40.0944 6.29511Z" fill="white"/>
    <path d="M45.2125 4.97935C44.8968 4.97935 44.6216 5.11058 44.3854 5.37302V6.83222C44.5999 6.97169 44.8541 7.04143 45.148 7.04143C45.4585 7.04143 45.7044 6.94095 45.8859 6.73999C46.0673 6.53903 46.1588 6.28408 46.1588 5.9744C46.1588 5.66471 46.0756 5.44051 45.9099 5.25605C45.7441 5.07083 45.5117 4.97935 45.2118 4.97935M43.4639 9.41619V4.20101H44.3862V4.54594C44.5039 4.42297 44.6629 4.32024 44.8638 4.23701C45.064 4.15452 45.277 4.11328 45.5012 4.11328C45.9931 4.11328 46.389 4.28425 46.689 4.62618C46.9874 4.96811 47.1374 5.40976 47.1374 5.9504C47.1374 6.49104 46.9619 6.97694 46.6087 7.34662C46.2555 7.71554 45.7951 7.9 45.229 7.9C44.8706 7.9 44.5894 7.84151 44.3862 7.72379V9.41694H43.4639V9.41619Z" fill="white"/>
    <path d="M49.1434 7.08117C49.4539 7.08117 49.6863 6.97169 49.8415 6.75199V6.38306C49.6863 6.26609 49.4756 6.2061 49.2079 6.2061C49.0422 6.2061 48.9042 6.24584 48.7948 6.32308C48.6853 6.40031 48.6305 6.51129 48.6305 6.65526C48.6305 6.78948 48.6785 6.89371 48.7745 6.96794C48.8705 7.04293 48.9942 7.08042 49.1434 7.08042M48.2211 5.13157L47.9887 4.45821C48.3786 4.22801 48.8038 4.11328 49.2642 4.11328C49.7778 4.11328 50.1475 4.23851 50.3717 4.4897C50.5959 4.74165 50.7091 5.11582 50.7091 5.61297V7.81152H49.9068V7.39386C49.6878 7.70429 49.3317 7.85876 48.8398 7.85876C48.5031 7.85876 48.2301 7.75978 48.0209 7.56257C47.8125 7.36386 47.709 7.09392 47.709 6.75124C47.709 6.37182 47.8312 6.08163 48.0779 5.88067C48.3231 5.68046 48.6395 5.57998 49.0242 5.57998C49.3556 5.57998 49.6286 5.65721 49.8423 5.81243C49.8528 5.49675 49.8078 5.26279 49.7058 5.11058C49.6046 4.95836 49.4254 4.88187 49.1682 4.88187C48.911 4.88187 48.5856 4.96436 48.2219 5.13007" fill="white"/>
    <path d="M1.04004 14.4717H2.81792L5.20393 17.8482L7.45647 14.4717H9.12413V22.486H7.35749V17.3796L5.20393 20.5049H4.94973L2.80668 17.4141V22.486H1.04004V14.4717Z" fill="white"/>
    <path d="M14.668 20.9056C16.1369 20.9056 16.8988 19.8296 16.8988 18.4784C16.8988 17.0132 15.9165 16.0511 14.668 16.0511C13.4195 16.0511 12.4379 17.0124 12.4379 18.4784C12.4379 19.8528 13.4315 20.9056 14.668 20.9056ZM14.668 14.334C17.0195 14.334 18.7764 15.9252 18.7764 18.4784C18.7764 21.0316 17.0195 22.6228 14.668 22.6228C12.3165 22.6228 10.5596 21.0316 10.5596 18.4784C10.5596 16.1546 12.2047 14.334 14.668 14.334Z" fill="white"/>
    <path d="M26.2303 21.6962C25.7669 22.2346 24.7614 22.6238 23.7131 22.6238C21.3158 22.6238 19.6602 20.9748 19.6602 18.4794C19.6602 16.1788 21.0399 14.335 23.7018 14.335C24.7284 14.335 25.6019 14.7016 26.0653 15.171L25.281 16.5448C24.8618 16.2823 24.4307 16.0529 23.7018 16.0529C22.5088 16.0529 21.5378 16.9002 21.5378 18.4801C21.5378 19.8996 22.4878 20.9074 23.8795 20.9074C24.4314 20.9074 25.0388 20.7244 25.5577 20.3232L26.2311 21.6977L26.2303 21.6962Z" fill="white"/>
    <path d="M27.4453 14.4717H29.2119V17.963L31.7412 14.4717H33.861L30.9568 18.1692L34.0927 22.486H31.8514L29.2119 18.6731V22.486H27.4453V14.4717Z" fill="white"/>
    <path d="M38.2451 20.9056C39.7141 20.9056 40.4752 19.8296 40.4752 18.4784C40.4752 17.0132 39.4929 16.0511 38.2451 16.0511C36.9974 16.0511 36.0151 17.0124 36.0151 18.4784C36.0151 19.8528 37.0086 20.9056 38.2451 20.9056ZM38.2451 14.334C40.5966 14.334 42.3535 15.9252 42.3535 18.4784C42.3535 21.0316 40.5966 22.6228 38.2451 22.6228C35.8936 22.6228 34.1367 21.0316 34.1367 18.4784C34.1367 16.1546 35.7819 14.334 38.2451 14.334Z" fill="white"/>
    <path d="M45.5562 19.2458V20.7455C45.6777 20.78 45.8217 20.8137 46.1531 20.8137C46.8377 20.8137 47.1796 20.5048 47.1796 19.9664C47.1796 19.4625 46.8145 19.245 46.2408 19.245H45.5562V19.2458ZM45.5562 16.1887V17.6426H46.1418C46.5948 17.6426 46.9584 17.4477 46.9584 16.8643C46.9584 16.3829 46.5393 16.1429 46.1081 16.1429C45.8869 16.1429 45.7549 16.1654 45.5555 16.1887M43.7888 14.494C44.22 14.4715 45.2908 14.4258 46.1299 14.4258C47.9745 14.4258 48.7251 15.3068 48.7251 16.4174C48.7251 17.2534 48.4161 17.8143 47.8418 18.2035V18.2267C48.4049 18.4435 48.9455 19.0276 48.9455 20.0579C48.9455 21.7413 47.6865 22.5309 46.0076 22.5309C45.2675 22.5309 44.241 22.5084 43.7881 22.4619V14.4933L43.7888 14.494Z" fill="white"/>
    <path d="M56.6219 21.6962C56.1585 22.2346 55.153 22.6238 54.1047 22.6238C51.7074 22.6238 50.0518 20.9748 50.0518 18.4794C50.0518 16.1788 51.4322 14.335 54.0934 14.335C55.1215 14.335 55.9935 14.7016 56.4569 15.171L55.6726 16.5448C55.2534 16.2823 54.8223 16.0529 54.0934 16.0529C52.9012 16.0529 51.9294 16.9002 51.9294 18.4801C51.9294 19.8996 52.8794 20.9074 54.2711 20.9074C54.8223 20.9074 55.4304 20.7244 55.9493 20.3232L56.6234 21.6977L56.6219 21.6962Z" fill="white"/>
    <path d="M57.8369 14.4717H59.6036V17.963L62.1328 14.4717H64.2526L61.3484 18.1692L64.4843 22.486H62.243L59.6036 18.6731V22.486H57.8369V14.4717Z" fill="white"/>
    <path d="M68.6362 20.9056C70.1052 20.9056 70.8663 19.8296 70.8663 18.4784C70.8663 17.0132 69.884 16.0511 68.6362 16.0511C67.3885 16.0511 66.4062 17.0124 66.4062 18.4784C66.4062 19.8528 67.3997 20.9056 68.6362 20.9056ZM68.6362 14.334C70.9885 14.334 72.7446 15.9252 72.7446 18.4784C72.7446 21.0316 70.9885 22.6228 68.6362 22.6228C66.284 22.6228 64.5278 21.0316 64.5278 18.4784C64.5278 16.1546 66.173 14.334 68.6362 14.334Z" fill="white"/>
    <path d="M74.1807 14.4717V22.486H78.8739V20.7681H75.9473V19.3134H78.4315V17.597H75.9473V16.1888H78.763V14.4717H74.1807Z" fill="white"/>
    <path d="M2.9244 32.9383H5.58185V28.1063H3.92694L3.79872 29.5325C3.66974 30.994 3.20484 32.5649 2.9244 32.9391M0 32.9383H0.87357C1.19975 32.5034 1.93385 30.7525 2.05008 27.9856L2.12056 26.2939H7.44522V32.9383H8.55274V34.7769L0 34.7492V32.9383Z" fill="white"/>
    <path d="M13.3766 33.0832C14.9265 33.0832 15.7304 31.9472 15.7304 30.5225C15.7304 28.9771 14.6933 27.9618 13.3766 27.9618C12.0599 27.9618 11.0228 28.9771 11.0228 30.5225C11.0228 31.972 12.0711 33.0832 13.3766 33.0832ZM13.3766 26.1494C15.8578 26.1494 17.7107 27.8283 17.7107 30.5225C17.7107 33.2167 15.8578 34.8956 13.3766 34.8956C10.8953 34.8956 9.04248 33.2167 9.04248 30.5225C9.04248 28.0705 10.7784 26.1494 13.3766 26.1494Z" fill="white"/>
    <path d="M23.5956 28.1075H21.8012L21.6265 29.7017C21.1376 34.1595 20.1118 35.0773 18.2012 34.7519L18.2364 32.8188C18.912 32.9403 19.6116 32.6741 19.9371 27.9876L20.054 26.2959H25.4604V34.7519H23.5956V28.1075Z" fill="white"/>
    <path d="M27.5566 26.2939V34.7507H29.4215V28.1063H32.2177V26.2939H27.5566Z" fill="white"/>
    <path d="M36.9723 33.0832C38.5222 33.0832 39.3253 31.9472 39.3253 30.5225C39.3253 28.9771 38.2883 27.9618 36.9723 27.9618C35.6563 27.9618 34.6185 28.9771 34.6185 30.5225C34.6185 31.972 35.6668 33.0832 36.9723 33.0832ZM36.9723 26.1494C39.4535 26.1494 41.3064 27.8283 41.3064 30.5225C41.3064 33.2167 39.4535 34.8956 36.9723 34.8956C34.4911 34.8956 32.6382 33.2167 32.6382 30.5225C32.6382 28.0705 34.3741 26.1494 36.9723 26.1494Z" fill="white"/>
    <path d="M47.1913 28.1075H45.3969L45.2222 29.7017C44.7325 34.1595 43.7075 35.0773 41.7969 34.7519L41.8321 32.8188C42.5077 32.9403 43.2073 32.6741 43.5328 27.9876L43.6497 26.2959H49.0561V34.7519H47.1913V28.1075Z" fill="white"/>
    <path d="M51.1519 26.2939V34.7507H56.1038V32.9383H53.0152V31.4041H55.6374V29.5918H53.0152V28.1063H55.9869V26.2939H51.1519Z" fill="white"/>
    <path d="M56.9204 26.2939V28.1063H59.3664V34.7507H61.2313V28.1063H63.6788V26.2939H56.9204Z" fill="white"/>
    <path d="M70.3196 26.2939L66.7076 31.5496V26.2939H64.8442V34.7507H66.4752L70.0872 29.4958V34.7507H71.9513V26.2939H70.3196Z" fill="white"/>
    <path d="M74.0483 26.2939V34.7507H79.0003V32.9383H75.9125V31.4041H78.5339V29.5918H75.9125V28.1063H78.8841V26.2939H74.0483Z" fill="white"/>
  </g>
  <defs>
    <clipPath id="clip0_555_3631">
      <rect width="79" height="34.7036" fill="white" transform="translate(0 0.192383)"/>
    </clipPath>
  </defs>
</svg>