<svg xmlns="http://www.w3.org/2000/svg" width="205" height="20" viewBox="0 0 205 20" fill="none">
  <g clip-path="url(#clip0_401_11219)">
    <path d="M11.82 19.9V11.24H3.84V19.9H0V0H3.84V7.72H11.83V0H15.67V19.9H11.83H11.82Z" fill="#231F20"/>
    <path d="M30.02 19.9V0H33.84V19.9H30.02Z" fill="#231F20"/>
    <path d="M59.1098 0.81C60.2298 1.33 61.1998 2.04 61.9798 2.94C62.7898 3.85 63.4098 4.91 63.8498 6.11C64.2898 7.31 64.4998 8.58 64.4998 9.92C64.4998 11.26 64.2798 12.6 63.8498 13.8C63.4098 15.01 62.7798 16.07 61.9798 16.99C61.1898 17.88 60.2298 18.6 59.1098 19.13C57.9798 19.66 56.7398 19.9 55.3698 19.9H47.8398V0H55.3698C56.7298 0 57.9798 0.3 59.1098 0.81ZM58.9598 14.62C59.9498 13.41 60.4498 11.85 60.4498 9.93C60.4498 8.01 59.9498 6.49 58.9598 5.32C57.9698 4.14 56.5798 3.56 54.8098 3.56H51.6398V16.44H54.8098C56.5798 16.44 57.9698 15.83 58.9598 14.62Z" fill="#231F20"/>
    <path d="M76.5 19.9V0H90.79V3.55H80.28V8.03H90.14V11.48H80.28V16.4H90.79V19.89H76.5V19.9Z" fill="#231F20"/>
    <path d="M116.61 19.9V11.24H108.62V19.9H104.78V0H108.62V7.72H116.61V0H120.45V19.9H116.61Z" fill="#231F20"/>
    <path d="M134.8 19.9V0H149.09V3.55H138.59V8.03H148.46V11.48H138.59V16.4H149.09V19.89H134.8V19.9Z" fill="#231F20"/>
    <path d="M174.97 19.9L169.51 12.37H166.9V19.9H163.11V0H171.36C172.29 0 173.18 0.19 174.02 0.5C174.86 0.81 175.6 1.24 176.22 1.78C176.85 2.32 177.34 2.95 177.71 3.69C178.08 4.42 178.27 5.2 178.27 6.03C178.27 6.71 178.16 7.37 177.94 8.01C177.71 8.65 177.4 9.23 177.01 9.74C176.61 10.26 176.16 10.72 175.64 11.11C175.12 11.5 174.57 11.79 173.97 11.97L179.67 19.9H174.97ZM173.2 8.1C173.88 7.61 174.21 6.93 174.21 6.03C174.21 5.19 173.88 4.57 173.2 4.16C172.53 3.76 171.73 3.55 170.8 3.55H166.9V8.82H170.8C171.73 8.82 172.53 8.58 173.2 8.1Z" fill="#231F20"/>
    <path d="M190.4 19.9V0H204.69V3.55H194.19V8.03H204.06V11.48H194.19V16.4H204.69V19.89H190.4V19.9Z" fill="#231F20"/>
  </g>
  <defs>
    <clipPath id="clip0_401_11219">
      <rect width="204.69" height="19.9" fill="white"/>
    </clipPath>
  </defs>
</svg>