<svg xmlns="http://www.w3.org/2000/svg" width="106" height="35" viewBox="0 0 106 35" fill="none">
  <g clip-path="url(#clip0_188_2210)">
    <path fill-rule="evenodd" clip-rule="evenodd" d="M0.94132 34.8574H0.399348C0.171149 34.8574 0 34.6292 0 34.3725V0.484923C0 0.199674 0.171149 0 0.399348 0H0.94132C1.16952 0 1.34067 0.484923 1.34067 0.484923V34.3725C1.31214 34.6577 1.14099 34.8574 0.94132 34.8574ZM13.2355 16.9723C13.2355 14.3765 11.7237 12.7506 8.67156 12.7506C7.67319 12.7506 6.96006 12.8362 5.70497 12.9503C5.5053 12.9788 5.3912 13.0359 5.3912 13.2641V27.1842C5.3912 27.3839 5.5053 27.498 5.70497 27.498H6.01874C6.21842 27.498 6.33252 27.3839 6.33252 27.1842V21.251C6.76039 21.2795 7.47351 21.3081 8.44336 21.3081C10.7824 21.2795 13.2355 19.9959 13.2355 16.9723ZM8.47188 20.4238C7.41646 20.4238 6.73187 20.3953 6.33252 20.3953V13.7775C7.18826 13.6919 7.78729 13.6349 8.70008 13.6349C11.3814 13.6349 12.2942 15.3749 12.2942 16.9723C12.2942 18.4556 11.3814 20.4238 8.47188 20.4238ZM24.3888 27.4694C24.6455 27.4694 24.731 27.2983 24.5884 27.0986L20.7661 21.1084C22.4491 20.5949 23.8753 19.2828 23.8753 17.0008C23.8753 14.3765 22.3635 12.7506 19.3113 12.7506C18.313 12.7506 17.5998 12.8362 16.3447 12.9503C16.1451 12.9788 16.031 13.0359 16.031 13.2641V27.1842C16.031 27.3839 16.1451 27.498 16.3447 27.498H16.6585C16.8582 27.498 16.9723 27.3839 16.9723 27.1842V21.3081C17.4002 21.3366 18.1133 21.3651 19.0831 21.3651C19.3399 21.3651 19.5966 21.3366 19.8818 21.3081L23.6471 27.2698C23.7327 27.4124 23.8468 27.4694 24.0179 27.4694H24.3888ZM17.0008 20.4523V13.749C17.8566 13.6634 18.4556 13.6064 19.3684 13.6064C22.0497 13.6064 22.9625 15.3749 22.9625 17.0008C22.9625 18.5126 22.0212 20.4808 19.1402 20.4808C18.0848 20.4808 17.4002 20.4808 17.0008 20.4523ZM26.2143 20.1956C26.2143 25.2445 28.5819 27.6691 32.3187 27.6691C36.0839 27.6691 38.4515 25.2445 38.4515 20.1956C38.4515 15.1467 36.0269 12.7221 32.3187 12.7221C28.5534 12.7506 26.2143 15.1752 26.2143 20.1956ZM32.3187 26.8134C28.9242 26.8134 27.1271 24.3317 27.1271 20.2241C27.1271 16.1165 28.9242 13.6349 32.3187 13.6349C35.7131 13.6349 37.5102 16.1165 37.5102 20.2241C37.5102 24.3317 35.7131 26.8134 32.3187 26.8134ZM43.3578 27.4694H40.762V10.2404H44.4988L46.9234 22.6202L49.2339 10.2404H52.828V27.4694H50.2323V16.63L47.9788 27.4694H45.8965L43.3863 16.6585V27.4694H43.3578ZM58.3333 23.5045H61.0432L61.6422 27.4694H64.3806L61.4996 10.2404H57.934L54.9959 27.4694H57.7058L58.3333 23.5045ZM60.6724 20.9943H58.7612L59.731 14.2054L60.6724 20.9943ZM69.1728 22.0212V27.498H66.577V10.2689H69.1728V16.4018L72.339 10.2689H75.1059L71.5403 17.3146L75.705 27.5265H72.6528L69.9144 20.5379L69.1728 22.0212ZM77.8443 27.4694V10.2404H85.2323V12.8647H80.4401V17.5713H83.9486V20.1956H80.4401V24.9022H85.2323V27.5265H77.8443V27.4694ZM91.1369 27.6691C89.9959 27.6691 89.0261 27.2698 88.2274 26.4711C87.4287 25.6724 87.0293 24.7025 87.0293 23.5615V10.2404H89.568V23.533C89.568 23.9324 89.7107 24.3032 90.0244 24.5884C90.3097 24.8737 90.6805 25.0163 91.0799 25.0163C91.4792 25.0163 91.85 24.8737 92.1353 24.5884C92.4205 24.3032 92.5632 23.9609 92.5632 23.533V10.2404H95.273V23.5615C95.273 24.7311 94.8737 25.7009 94.075 26.4711C93.2477 27.2698 92.2779 27.6691 91.1369 27.6691ZM101.663 10.2404H97.555V27.4694H100.151V20.9658H101.634C102.775 20.9658 103.716 20.5664 104.515 19.7677C105.314 18.969 105.713 17.9992 105.713 16.8582V14.348C105.713 13.15 105.371 12.1801 104.658 11.4385C103.945 10.6398 102.946 10.2404 101.663 10.2404ZM103.231 16.9152C103.231 17.3146 103.089 17.6854 102.804 17.9707C102.518 18.2559 102.176 18.3985 101.748 18.3985H100.179V12.8932H101.748C102.205 12.8932 102.547 13.0359 102.832 13.2926C103.117 13.5778 103.231 13.9201 103.231 14.3765V16.9152ZM7.81581 34.6862V34.7718C7.81581 34.8289 7.78729 34.8859 7.70171 34.8859H5.53382C5.44825 34.8859 5.41972 34.8574 5.41972 34.7718V29.7229C5.41972 29.6373 5.44825 29.6088 5.53382 29.6088H5.64792C5.7335 29.6088 5.76202 29.6373 5.76202 29.7229V34.5721H7.73024C7.78729 34.5721 7.81581 34.6007 7.81581 34.6862ZM18.7694 34.8574C18.8549 34.8574 18.8835 34.8003 18.8549 34.7433L17.0579 29.6944C17.0293 29.6373 17.0008 29.6088 16.9438 29.6088H16.7441C16.687 29.6088 16.63 29.6373 16.63 29.6944L14.8329 34.7433C14.8044 34.8289 14.8329 34.8574 14.9185 34.8574H15.0611C15.1182 34.8574 15.1752 34.8289 15.1752 34.7718L15.6316 33.4026H17.9992L18.4556 34.7718C18.4841 34.8289 18.5126 34.8574 18.5697 34.8574H18.7694ZM15.7457 33.1174L16.8297 29.9226L17.9136 33.1174H15.7457ZM29.1809 33.3741C29.1809 32.5469 28.696 32.2046 28.2111 32.0619C28.6104 31.8908 28.9527 31.5485 28.9527 30.9495C28.9527 30.0367 28.4678 29.5518 27.4124 29.5518C27.1271 29.5518 26.956 29.5803 26.4996 29.6373C26.414 29.6373 26.3855 29.6659 26.3855 29.7514V34.8003C26.3855 34.8574 26.414 34.9144 26.4996 34.9144C26.956 34.9715 27.2127 35 27.555 35C28.5534 34.943 29.1809 34.3154 29.1809 33.3741ZM26.7278 29.8941C27.013 29.8655 27.1557 29.837 27.4409 29.837C28.097 29.837 28.639 30.0652 28.639 30.9209C28.639 31.6055 28.1826 31.9193 27.2983 31.9193H26.7563V29.8941H26.7278ZM27.5835 34.6292C27.2412 34.6292 27.0416 34.6007 26.7278 34.5721V32.2331H27.498C28.2396 32.2331 28.8386 32.5183 28.8386 33.3456C28.8386 34.401 28.154 34.6292 27.5835 34.6292ZM36.6544 32.2331C36.6544 34.0587 37.5102 34.943 38.8794 34.943C40.2486 34.943 41.1043 34.0587 41.1043 32.2331C41.1043 30.4075 40.22 29.5232 38.8794 29.5232C37.5102 29.5232 36.6544 30.4075 36.6544 32.2331ZM38.8794 34.6292C37.6528 34.6292 36.9967 33.7164 36.9967 32.2331C36.9967 30.7498 37.6528 29.837 38.8794 29.837C40.1059 29.837 40.762 30.7498 40.762 32.2331C40.762 33.7164 40.1059 34.6292 38.8794 34.6292ZM51.9152 34.8574C52.0008 34.8574 52.0293 34.8003 52.0008 34.7148L50.6316 32.5469C51.2592 32.3757 51.7441 31.8908 51.7441 31.0636C51.7441 30.1222 51.2021 29.5232 50.0896 29.5232C49.7188 29.5232 49.4621 29.5518 49.0057 29.6088C48.9201 29.6088 48.8916 29.6373 48.8916 29.7229V34.7718C48.8916 34.8289 48.9201 34.8859 49.0057 34.8859H49.1198C49.2054 34.8859 49.2339 34.8574 49.2339 34.7718V32.6324C49.3765 32.661 49.6332 32.661 50.0041 32.661C50.0896 32.661 50.2037 32.661 50.2893 32.6324L51.6585 34.8003C51.687 34.8574 51.7441 34.8859 51.8011 34.8859H51.9152V34.8574ZM49.2339 32.3187V29.8941C49.5477 29.8655 49.7473 29.837 50.0896 29.837C51.0595 29.837 51.4018 30.4645 51.4018 31.0636C51.4018 31.6055 51.0595 32.3187 50.0041 32.3187C49.6332 32.3472 49.3765 32.3472 49.2339 32.3187ZM62.8973 34.8574C62.9829 34.8574 63.0114 34.8003 62.9829 34.7433L61.1858 29.6944C61.1573 29.6373 61.1288 29.6088 61.0717 29.6088H60.872C60.815 29.6088 60.7579 29.6373 60.7579 29.6944L58.9609 34.7433C58.9324 34.8289 58.9609 34.8574 59.0464 34.8574H59.1891C59.2461 34.8574 59.3032 34.8289 59.3032 34.7718L59.7596 33.4026H62.1271L62.5835 34.7718C62.6121 34.8289 62.6406 34.8574 62.6976 34.8574H62.8973ZM59.8737 33.1174L60.9576 29.9226L62.0416 33.1174H59.8737ZM72.7099 29.7229V29.8085C72.7099 29.8941 72.6813 29.9226 72.5958 29.9226H71.198V34.7718C71.198 34.8289 71.1695 34.8859 71.0839 34.8859H70.9698C70.8843 34.8859 70.8557 34.8574 70.8557 34.7718V29.9226H69.458C69.3724 29.9226 69.3439 29.8941 69.3439 29.8085V29.7229C69.3439 29.6373 69.3724 29.6088 69.458 29.6088H72.5958C72.6528 29.6088 72.7099 29.6373 72.7099 29.7229ZM79.727 32.2331C79.727 34.0587 80.5827 34.943 81.9519 34.943C83.3211 34.943 84.1768 34.0587 84.1768 32.2331C84.1768 30.4075 83.2926 29.5232 81.9519 29.5232C80.5827 29.5232 79.727 30.4075 79.727 32.2331ZM81.9519 34.6292C80.7253 34.6292 80.0693 33.7164 80.0693 32.2331C80.0693 30.7498 80.7253 29.837 81.9519 29.837C83.1785 29.837 83.8345 30.7498 83.8345 32.2331C83.8345 33.7164 83.1785 34.6292 81.9519 34.6292ZM94.9592 34.8574C95.0448 34.8574 95.0733 34.8003 95.0448 34.7148L93.6756 32.5469C94.3032 32.3757 94.7881 31.8908 94.7881 31.0636C94.7881 30.1222 94.2461 29.5232 93.1337 29.5232C92.7914 29.5232 92.5061 29.5518 92.0497 29.6088C91.9641 29.6088 91.9356 29.6373 91.9356 29.7229V34.7718C91.9356 34.8289 91.9641 34.8859 92.0497 34.8859H92.1638C92.2494 34.8859 92.2779 34.8574 92.2779 34.7718V32.6324C92.4205 32.661 92.6773 32.661 93.0481 32.661C93.1337 32.661 93.2478 32.661 93.3333 32.6324L94.7025 34.8003C94.731 34.8574 94.7881 34.8859 94.8451 34.8859H94.9592V34.8574ZM92.3064 32.3187V29.8941C92.6202 29.8655 92.8199 29.837 93.1622 29.837C94.132 29.837 94.4743 30.4645 94.4743 31.0636C94.4743 31.6055 94.132 32.3187 93.0766 32.3187C92.6772 32.3472 92.4491 32.3472 92.3064 32.3187ZM105.713 29.7514L104.03 32.5183V34.7718C104.03 34.8289 104.002 34.8859 103.916 34.8859H103.802C103.716 34.8859 103.688 34.8574 103.688 34.7718V32.5183L102.005 29.7514C101.948 29.6659 101.976 29.6088 102.09 29.6088H102.205C102.262 29.6088 102.319 29.6373 102.347 29.6944L103.859 32.2046L105.342 29.6944C105.371 29.6373 105.428 29.6088 105.485 29.6088H105.599C105.742 29.6088 105.77 29.6659 105.713 29.7514Z" fill="white"/>
  </g>
  <defs>
    <clipPath id="clip0_188_2210">
      <rect width="105.742" height="35" fill="white"/>
    </clipPath>
  </defs>
</svg>