<svg xmlns="http://www.w3.org/2000/svg" width="64" height="54" viewBox="0 0 64 54" fill="none">
  <g clip-path="url(#clip0_373_9048)">
    <path d="M12.9201 43.6855C10.5429 43.6855 8.69434 45.8289 8.69434 48.6796C8.69434 51.5532 10.4486 53.6737 13.1643 53.6737C14.6629 53.6737 15.6543 53.082 16.3801 52.2666C16.4486 52.189 16.45 52.0567 16.3858 51.973L15.5058 50.8549C15.4386 50.7667 15.3415 50.7667 15.2729 50.8382C14.8115 51.3128 14.0986 51.7357 13.1458 51.7357C11.7886 51.7357 10.9758 50.9584 10.6901 49.7217C10.6558 49.5726 10.7401 49.4539 10.8458 49.4539H16.8529C16.9358 49.4539 17.0172 49.3763 17.0186 49.2683C17.0743 46.0221 15.5629 43.6855 12.9201 43.6855ZM15.0129 47.8582H10.9872C10.8743 47.8582 10.7915 47.7274 10.8201 47.595C11.1043 46.3218 11.9229 45.6007 13.0715 45.6007C14.3029 45.6007 14.9601 46.4343 15.1815 47.6011C15.2058 47.7335 15.1243 47.8582 15.0129 47.8582Z" fill="#003C47"/>
    <path d="M36.7928 43.6855C34.3342 43.6855 32.3999 45.8289 32.3999 48.6796C32.3999 51.5304 34.3356 53.6737 36.7928 53.6737C39.2699 53.6737 41.167 51.5304 41.167 48.6796C41.167 45.8289 39.2699 43.6855 36.7928 43.6855ZM36.7928 51.6901C35.3413 51.6901 34.4128 50.4351 34.4128 48.6796C34.4128 46.9242 35.3413 45.692 36.7928 45.692C38.2442 45.692 39.1542 46.9242 39.1542 48.6796C39.1542 50.4351 38.2442 51.6901 36.7928 51.6901Z" fill="#003C47"/>
    <path d="M56.7255 45.0528C56.0426 44.1112 54.9726 43.7263 53.8498 43.6792C52.7641 43.632 51.6298 43.9013 50.7498 44.2831C50.7169 44.2983 50.6812 44.3135 50.6598 44.3455C50.6198 44.4048 50.6469 44.4885 50.6741 44.5554C50.8512 44.9752 51.0284 45.3966 51.2055 45.8165C51.2412 45.9001 51.2826 45.9914 51.3612 46.031C51.4526 46.0766 51.5598 46.034 51.6541 45.9945C52.7955 45.5214 55.3326 45.1456 55.4669 47.0395C55.4741 47.1338 55.3998 47.216 55.3112 47.2129C54.9841 47.2053 54.1169 47.1932 53.4269 47.2266C51.2469 47.3072 50.0298 48.1576 50.0298 50.3207C50.0298 52.5584 51.2469 53.4605 53.5212 53.4605C55.2955 53.4605 57.4726 53.4559 57.4726 53.4559L57.4698 48.1211C57.4998 47.0715 57.3384 45.8986 56.7255 45.0528ZM55.5326 51.74C55.5326 51.74 55.4641 51.7415 55.3812 51.7431C55.0555 51.7491 54.7584 51.7537 54.3855 51.7537C54.2226 51.7537 53.7741 51.7537 53.5726 51.7507C52.4555 51.7431 51.9255 51.3825 51.9255 50.3542C51.9255 49.3548 52.5441 49.1099 53.4512 49.0338C54.2369 48.9638 55.0841 49.0277 55.3884 49.0445C55.4698 49.049 55.5312 49.1205 55.5312 49.2072V51.74H55.5326Z" fill="#003C47"/>
    <path d="M3.98125 40.2002H-0.260175C-0.354461 40.2002 -0.430176 40.2899 -0.430176 40.401V53.2673C-0.430176 53.3783 -0.354461 53.4681 -0.260175 53.4681H1.4484C1.54268 53.4681 1.61982 53.3783 1.61982 53.2673V49.0688C1.98411 49.0688 2.69411 49.0688 3.52125 49.0688C4.64982 49.0688 5.33982 48.976 6.04125 48.7326H6.05982C6.05982 48.7326 6.11268 48.7128 6.18983 48.6793C6.21983 48.6657 6.25268 48.652 6.2884 48.6352C7.78411 47.9355 8.76268 46.571 8.76268 44.744C8.76125 41.3228 6.69125 40.2002 3.98125 40.2002ZM3.90268 47.079H2.36411L2.36554 47.0806H1.81411C1.70554 47.0806 1.6184 46.9878 1.6184 46.8722V42.4957C1.6184 42.3451 1.73268 42.2234 1.87411 42.2234H3.90268C5.62554 42.2234 6.65125 42.736 6.65125 44.7425C6.65125 46.5101 5.64554 47.079 3.90268 47.079Z" fill="#003C47"/>
    <path d="M29.3198 45.7286C29.7412 45.7286 29.9969 45.7606 30.2983 45.902C30.324 45.9142 30.3483 45.9264 30.374 45.9386C30.4998 46.004 30.6369 46.0891 30.7983 46.1987C30.9283 46.2945 31.0498 46.3964 31.1555 46.5014C31.2255 46.5729 31.3255 46.5729 31.3955 46.4847L32.2983 45.3666C32.3655 45.2844 32.364 45.1506 32.2926 45.073C32.2069 44.9787 32.1155 44.8889 32.0212 44.8007C32.0212 44.8007 32.0212 44.7977 32.0198 44.7977C32.0069 44.7855 31.9926 44.7733 31.9783 44.7611C31.5969 44.4143 31.1512 44.1253 30.6155 43.9321H30.6112C30.2198 43.7815 29.7969 43.6826 29.3726 43.6826C26.7126 43.6826 24.8555 45.7362 24.8555 48.6767C24.8555 51.6172 26.7126 53.6708 29.3726 53.6708C29.9126 53.6708 30.4483 53.508 30.9212 53.2783C31.324 53.0943 31.6726 52.8554 31.9783 52.5771C31.9898 52.5664 32.0026 52.5558 32.014 52.5466C32.0155 52.5451 32.0169 52.5421 32.0183 52.5405C32.114 52.4508 32.2069 52.3595 32.294 52.2637C32.3655 52.1861 32.3655 52.0538 32.2998 51.9701L31.3969 50.852C31.3269 50.7638 31.2283 50.7638 31.1569 50.8353C30.9183 51.0756 30.6112 51.2992 30.2426 51.4651C29.9669 51.5791 29.6798 51.6278 29.3226 51.6278C27.8483 51.6278 26.8183 50.4139 26.8183 48.6767C26.8169 46.9425 27.8469 45.7286 29.3198 45.7286Z" fill="#003C47"/>
    <path d="M21.6143 48.5404L25.3557 44.1C25.3857 44.062 25.3914 44.0087 25.3714 43.9646C25.3514 43.919 25.31 43.8916 25.2628 43.8916H23.3271C23.25 43.8916 23.1771 43.9312 23.1314 43.995L19.8928 47.9745V44.0757C19.8928 43.9737 19.8143 43.8916 19.7185 43.8916H18.1C17.9843 43.8916 17.9414 44.0179 17.9414 44.3586V53.4478H17.9757H18.01C18.01 53.4234 18.0114 53.4082 18.0128 53.3991C18.0185 53.4036 18.0271 53.4097 18.0328 53.4143C18.0628 53.4371 18.1043 53.4675 18.1514 53.4675H19.7057C19.8086 53.4675 19.8928 53.3778 19.8928 53.2683V49.377L23.2114 53.4234C23.23 53.4508 23.2614 53.4675 23.2928 53.4675H25.29C25.3386 53.4675 25.3828 53.4386 25.4043 53.3915C25.4257 53.3443 25.4214 53.2896 25.3914 53.2485L21.6143 48.5404Z" fill="#003C47"/>
    <path d="M49.0114 43.8906H47.3199C47.2242 43.8906 47.1457 43.9819 47.1457 44.096L47.1557 47.7803C47.1557 47.8229 47.1228 47.8579 47.0828 47.8579H44.0128C43.9728 47.8579 43.9399 47.8229 43.9399 47.7803L43.9442 44.6178L43.9414 44.1006C43.9442 43.9849 43.8657 43.8906 43.7671 43.8906H42.0757C41.9799 43.8906 41.9014 43.9819 41.9014 44.096L41.9156 49.3122C41.9114 49.4004 41.9085 49.4886 41.9071 49.5829C41.9071 49.5829 41.9014 52.1127 41.9014 53.2399C41.9014 53.3646 41.9971 53.4666 42.1142 53.4666H43.7257C43.8442 53.4666 43.9399 53.3646 43.9399 53.2384V49.554C43.9399 49.5008 43.9814 49.4567 44.0314 49.4567H47.0614C47.1114 49.4567 47.1528 49.5008 47.1528 49.554C47.1514 50.0439 47.1457 52.2344 47.1442 53.2399C47.1442 53.3662 47.2399 53.4666 47.3585 53.4666H48.9699C49.0885 53.4666 49.1842 53.3646 49.1842 53.2384V47.8168L49.1885 44.6208L49.1857 44.1036C49.1871 43.9849 49.1085 43.8906 49.0114 43.8906Z" fill="#003C47"/>
    <path d="M58.1142 42.6025C57.6127 42.6025 57.207 43.0817 57.207 43.6735C57.207 44.2637 57.6127 44.7429 58.1142 44.7429C58.6156 44.7429 59.0227 44.2637 59.0227 43.6735C59.0227 43.0802 58.617 42.6025 58.1142 42.6025ZM58.1142 44.504C57.7242 44.504 57.4227 44.1496 57.4227 43.6735C57.4227 43.1973 57.7242 42.8414 58.1142 42.8414C58.5056 42.8414 58.807 43.1958 58.807 43.6735C58.807 44.1481 58.5056 44.504 58.1142 44.504Z" fill="#003C47"/>
    <path d="M58.4984 43.459C58.4984 43.2704 58.3727 43.1016 58.177 43.1016H57.7827V44.2409H57.9984V43.7998H58.1013L58.277 44.2409H58.5241L58.3213 43.7618C58.4141 43.7161 58.4984 43.6157 58.4984 43.459ZM58.1499 43.6081H57.9999V43.313H58.1499C58.2299 43.313 58.2841 43.3815 58.2841 43.4606C58.2827 43.5397 58.2299 43.6081 58.1499 43.6081Z" fill="#003C47"/>
    <path d="M41.9715 1.12018C41.9387 1.06846 41.8958 1.02434 41.8472 0.992399C41.7144 0.907212 41.5515 0.919383 41.4229 1.00761C41.3801 1.03804 41.3444 1.07607 41.3115 1.11562C41.1929 1.25557 41.0744 1.39552 40.9544 1.53547C40.8315 1.67998 40.7087 1.82601 40.5872 1.97053C40.5144 2.05571 40.4429 2.14242 40.3701 2.22761C40.3615 2.23826 40.3529 2.24739 40.3444 2.25804C40.1958 2.43602 40.0401 2.6216 39.8758 2.81784C39.8729 2.82088 39.8715 2.82392 39.8687 2.82544C39.5287 3.23313 39.1587 3.68036 38.7587 4.1641C38.5772 4.38619 38.3944 4.60676 38.2129 4.82886C38.0187 5.06617 37.8258 5.30195 37.6329 5.53926C37.4301 5.79026 37.2258 6.03973 37.0229 6.29073C36.8101 6.5539 36.5972 6.81858 36.3858 7.08175C36.1644 7.35709 35.9429 7.63395 35.7215 7.91081C35.4915 8.19983 35.2615 8.48734 35.0329 8.77788C34.7944 9.07756 34.5572 9.37876 34.3201 9.67996C34.0744 9.9918 33.8301 10.3036 33.5858 10.617C33.3344 10.9395 33.0829 11.2635 32.8315 11.5875C32.5729 11.9207 32.3158 12.2553 32.0587 12.59C31.7944 12.9338 31.5315 13.2776 31.2687 13.6229C31.0001 13.9758 30.7315 14.3303 30.4644 14.6847C30.1901 15.0467 29.9172 15.4103 29.6458 15.7754C29.3687 16.1466 29.0915 16.5193 28.8144 16.892C28.5329 17.2723 28.2529 17.6525 27.9729 18.0344C27.6887 18.4223 27.4044 18.8102 27.1229 19.1996C26.8358 19.5951 26.5501 19.9922 26.2644 20.3892C25.9758 20.7923 25.6872 21.1954 25.4001 21.6001C25.2629 21.7932 25.1315 21.991 24.9929 22.1827C24.8658 22.3607 24.7387 22.5447 24.5801 22.6938C24.3672 22.8961 24.1001 23.0345 23.8144 23.0574C23.6044 23.0741 23.3915 23.0315 23.2001 22.9372C23.0258 22.8505 22.8658 22.7181 22.7044 22.6056C22.3601 22.3652 22.0144 22.1249 21.6687 21.8845C21.3029 21.6305 20.9372 21.3764 20.5701 21.1239C20.1901 20.8623 19.8101 20.6006 19.4301 20.3405C19.0444 20.0758 18.6572 19.8126 18.2687 19.551C17.8844 19.2909 17.5001 19.0323 17.1144 18.7752C16.9044 18.6368 16.6329 18.6657 16.4529 18.8467C16.2729 19.0277 16.2301 19.3167 16.3472 19.548C17.8844 22.5767 19.3987 25.651 20.8501 28.6858C22.1329 31.3677 23.4358 34.1712 24.7344 37.0372C24.8758 37.3429 25.1615 37.5316 25.4815 37.5316C25.8144 37.5316 26.1115 37.3247 26.2444 37.0007L26.2572 36.9733C27.4229 34.0404 28.6272 31.1045 29.8344 28.2462C34.2101 17.8838 38.1772 9.17036 41.9601 1.60696C42.0001 1.52786 42.0358 1.44267 42.0358 1.34684C42.0387 1.26926 42.0144 1.18864 41.9715 1.12018Z" fill="#003D53"/>
  </g>
  <defs>
    <clipPath id="clip0_373_9048">
      <rect width="64" height="54" fill="white"/>
    </clipPath>
  </defs>
</svg>