<svg xmlns="http://www.w3.org/2000/svg" width="177" height="44" viewBox="0 0 177 44" fill="none">
  <path d="M16.7319 15.0191C16.5972 13.8695 16.4591 12.7232 16.2544 11.5835C16.0964 10.7034 15.915 9.82662 15.7087 8.95649C15.5823 8.4241 15.4326 7.8967 15.3044 7.36431C15.2279 7.04654 15.3693 6.8652 15.6755 6.83026C16.9565 6.68552 18.2326 6.50583 19.4521 6.06328C19.9995 5.8653 20.5302 5.61741 20.9162 5.16155C21.3371 4.6641 21.4203 4.06016 21.3571 3.43793C21.2855 2.74083 20.9528 2.17351 20.4387 1.69768C19.7998 1.10706 19.0179 0.904087 18.186 0.855839C17.0913 0.792618 15.9966 0.751022 14.9018 0.712757C14.0384 0.681146 13.1732 0.664513 12.3098 0.62292C11.1684 0.568017 10.0288 0.514774 8.88914 0.436579C7.54153 0.345074 6.20224 0.160404 4.85795 0.0439431C3.83809 -0.0442341 2.81989 -0.0242694 1.8383 0.335094C1.20442 0.568015 0.667037 0.917397 0.317655 1.51634C0.0265043 2.01213 -0.098273 2.5362 0.0880637 3.09021C0.425799 4.09177 1.12955 4.78721 2.01964 5.30962C2.84152 5.79043 3.75324 6.03832 4.66829 6.2596C5.87781 6.55241 7.10231 6.75705 8.34677 6.83858C8.70613 6.86187 8.78433 6.98499 8.75605 7.356C8.70946 7.97989 8.65955 8.60212 8.64957 9.22768C8.62628 10.542 8.69116 11.8514 8.79431 13.1607C8.84256 13.7763 8.89081 14.3919 8.96734 15.0025C9.05718 15.7062 9.17364 16.4066 9.28677 17.1071C9.52468 18.5861 9.83247 20.0485 10.4381 21.4311C10.8507 22.3711 11.4479 23.138 12.3281 23.707C13.0884 24.1978 14.6074 24.1829 15.4309 23.4442C16.2012 22.7537 16.5938 21.8603 16.8001 20.877C16.9582 20.1201 16.9981 19.3464 16.9582 18.6976C16.9765 17.3816 16.8717 16.2003 16.7336 15.0208L16.7319 15.0191Z" fill="#F3D5BE"/>
  <path d="M33.5008 30.1868C33.8069 30.0038 34.0731 29.7675 34.3409 29.533C35.1977 28.7843 35.8865 27.8925 36.4605 26.9226C37.1609 25.7397 37.67 24.4869 37.5502 23.0677C37.5087 22.572 37.329 22.1477 36.9081 21.8399C36.2143 21.3308 35.454 21.3574 34.6953 21.592C33.7303 21.8915 32.9434 22.4888 32.2313 23.1925C31.9019 23.5186 31.6307 23.893 31.283 24.234C31.283 24.1126 31.2797 23.9894 31.283 23.868C31.303 23.1626 31.2664 22.4655 31.0518 21.7867C30.8771 21.236 30.6458 20.7236 30.1933 20.3326C29.5128 19.7453 28.6976 19.7719 27.9057 19.895C26.9257 20.0481 26.2186 20.682 25.7129 21.5005C25.4151 21.9813 25.1921 22.5154 24.9975 23.0544C24.7196 23.8231 24.4784 24.6034 24.2871 25.397C24.1939 25.7779 24.0741 26.1556 24.0126 26.5416C23.8495 27.5598 23.6565 28.573 23.55 29.6028C23.4569 30.5079 23.3188 31.413 23.3138 32.3197C23.3021 34.1215 23.1907 35.9316 23.5767 37.7185C23.7896 38.7067 24.0874 39.6467 24.8228 40.3804C25.4334 40.9877 26.1671 41.2439 27.0222 41.0559C27.7276 40.9012 28.1652 40.3887 28.5711 39.843C28.9239 39.3672 29.1568 38.8348 29.3498 38.2775C29.5461 37.7068 29.7258 37.1362 29.8206 36.5372C29.8672 36.2394 29.9404 35.9433 29.9953 35.6388C30.0452 35.6787 30.0685 35.7153 30.0835 35.7569C30.2864 36.2827 30.511 36.8001 30.7989 37.2826C31.3063 38.1361 31.9369 38.8931 32.6839 39.5536C33.3128 40.1109 34.0331 40.4719 34.8717 40.5717C35.256 40.6183 35.622 40.5435 35.9747 40.3788C36.6169 40.0793 36.8581 39.4853 37.0129 38.8681C37.1443 38.3507 37.0877 37.805 37.0162 37.2793C36.8581 36.1163 36.4572 35.0232 35.9614 33.9684C35.3458 32.6608 34.5705 31.4596 33.4708 30.4946C33.3211 30.3632 33.3394 30.28 33.5024 30.1818L33.5008 30.1868Z" fill="#F3D5BE"/>
  <path d="M26.779 18.7295C26.9188 18.5981 27.0352 18.5731 27.2066 18.6729C27.5626 18.8809 27.9653 18.9707 28.3629 19.0606C29.1864 19.2486 30.0017 19.1804 30.8135 18.9608C31.6205 18.7411 32.3625 18.4383 32.9398 17.7845C33.5138 17.134 33.8016 16.3654 33.9696 15.5451C34.126 14.7848 34.0944 14.0062 34.0628 13.2359C34.0328 12.5355 33.9713 11.83 33.8016 11.1496C33.6419 10.5091 33.5387 9.85355 33.3324 9.223C33.0463 8.34456 32.8533 7.4345 32.4373 6.60097C31.88 5.48295 30.8718 5.06869 29.7837 5.29495C28.2414 5.61772 27.6741 6.81892 27.8854 8.27634C27.9653 8.82537 28.0734 9.36442 28.2364 9.89847C28.4794 10.6937 28.6773 11.5023 28.8903 12.3075C28.9968 12.7118 29.07 13.1211 29.0517 13.542C29.045 13.7034 28.9535 13.7982 28.8138 13.8531C28.6674 13.9097 28.5808 13.8115 28.5026 13.7117C28.3712 13.547 28.2814 13.3607 28.2331 13.1527C28.0717 12.4539 27.9985 11.7402 27.8704 11.0365C27.7506 10.3776 27.7024 9.71047 27.4994 9.06494C27.3613 8.62739 27.1218 8.28799 26.7641 8.03011C26.0187 7.49439 25.2051 7.46944 24.3866 7.81383C23.7461 8.08335 23.1787 8.72887 23.197 9.56406C23.2103 10.1597 23.2503 10.747 23.3385 11.3376C23.4449 12.0613 23.5863 12.7784 23.6945 13.5021C23.7394 13.8049 23.7677 14.1177 23.6296 14.4121C23.573 14.5319 23.4899 14.6251 23.3584 14.6417C23.2137 14.6584 23.1704 14.5286 23.1172 14.4271C22.8477 13.913 22.7711 13.3424 22.7678 12.7867C22.7628 11.86 22.6497 10.94 22.6646 10.0149C22.673 9.54742 22.5748 9.10654 22.3685 8.6956C22.079 8.11662 21.6165 7.69737 20.9976 7.52767C20.2988 7.33468 19.6034 7.42784 18.9695 7.80551C18.3623 8.16653 17.9064 8.66399 17.6835 9.35277C17.4971 9.92842 17.4838 10.519 17.5071 11.1562C17.4555 11.7818 17.5387 12.4423 17.6236 13.0995C17.7467 14.0395 17.9297 14.9695 18.2258 15.8746C18.6701 17.2321 19.279 18.4733 20.4785 19.3417C21.0309 19.741 21.6298 20.0488 22.3003 20.1204C23.049 20.2002 23.8076 20.2052 24.548 20.0072C25.4031 19.7793 26.1318 19.3318 26.7707 18.7295H26.779Z" fill="#F3D5BE"/>
  <path d="M56.9206 22.7038C56.4232 21.9318 55.7361 21.4943 54.7761 21.461C53.9393 21.4311 53.3553 22.0483 53.1507 22.6938C52.9693 23.2695 52.8811 23.8667 52.8928 24.474C52.9011 24.9132 52.8845 25.3541 52.941 25.7917C52.951 25.8682 52.9893 25.9847 52.8895 26.0179C52.8129 26.0429 52.7697 25.9364 52.7231 25.8798C52.1241 25.1478 51.3305 24.7851 50.4072 24.7319C49.3008 24.6687 48.3808 25.1262 47.5789 25.8516C46.9633 26.4072 46.5723 27.1177 46.2246 27.8514C45.9401 28.452 45.7471 29.0842 45.5691 29.7247C45.3511 30.5083 45.2996 31.3102 45.3062 32.1088C45.3129 32.9606 45.3644 33.8141 45.6024 34.6477C45.8186 35.4063 46.0216 36.1633 46.4858 36.8205C47.1147 37.7089 47.9016 38.3544 49.013 38.5391C49.735 38.6589 50.4238 38.5674 51.101 38.3062C51.6583 38.0899 52.0975 37.7305 52.4585 37.263C52.56 37.1316 52.6382 37.1216 52.6948 37.2913C52.9127 37.9335 53.2621 38.4775 53.7928 38.9151C54.485 39.4858 55.6379 39.4924 56.3217 38.9134C56.9556 38.376 57.3815 37.7072 57.5795 36.9053C57.8124 35.962 57.9738 35.0054 58.0719 34.0371C58.215 32.6246 58.3132 31.2087 58.3398 29.8145C58.3165 28.4137 58.205 27.0478 57.9788 25.6902C57.8024 24.6304 57.5096 23.6122 56.924 22.7021L56.9206 22.7038ZM52.3238 32.4665C52.1973 32.6978 52.016 32.9224 51.7248 32.9706C51.4171 33.0222 51.1043 32.8059 50.9612 32.4532C50.873 32.2369 50.8231 32.0123 50.8248 31.6762C50.8331 31.3801 50.9479 31.0158 51.1791 30.693C51.3455 30.4601 51.5784 30.3137 51.8729 30.3519C52.1607 30.3902 52.3171 30.5915 52.4203 30.856C52.6349 31.4101 52.6066 31.9524 52.3271 32.4649L52.3238 32.4665Z" fill="#F3D5BE"/>
  <path d="M56.7561 17.0974C56.8526 17.7462 56.9973 18.3718 57.3384 18.9491C57.7061 19.5697 58.1869 20.0222 58.9056 20.1719C59.5112 20.2984 60.1218 20.3184 60.6975 20.0522C61.4827 19.6895 61.9735 19.0356 62.3512 18.2853C62.3861 18.2171 62.3928 18.1239 62.476 18.1023C62.5741 18.0773 62.5924 18.1821 62.639 18.237C63.1182 18.8044 63.6323 19.3334 64.2778 19.7161C64.9732 20.127 65.6919 20.4614 66.5354 20.4232C67.3207 20.3882 68.1958 19.8093 68.309 18.9009C68.3572 18.5132 68.2973 18.1439 68.2308 17.7612C68.1176 17.0974 67.8698 16.4868 67.6019 15.8879C67.186 14.9628 66.597 14.1393 65.9282 13.374C65.7003 13.1144 65.6986 13.0263 65.9615 12.8133C66.4622 12.409 66.8832 11.9315 67.2658 11.4174C67.735 10.7902 68.1043 10.1098 68.3439 9.36109C68.4088 9.15645 68.4853 8.95182 68.492 8.73387C68.502 8.37783 68.5718 8.03178 68.5036 7.66409C68.3955 7.08179 68.1642 6.58101 67.6701 6.25825C66.9713 5.80239 66.2193 5.79907 65.454 6.11351C65.1662 6.23163 64.895 6.36805 64.6421 6.55106C64.4608 6.68083 64.3693 6.64257 64.361 6.45624C64.3244 5.7059 64.2046 4.97719 63.9034 4.27676C63.6406 3.66451 63.2479 3.1654 62.6523 2.90918C61.4345 2.38345 60.3115 2.83598 59.5245 3.69279C59.0154 4.24681 58.6727 4.92395 58.3749 5.61273C57.8392 6.84887 57.548 8.16155 57.2286 9.46257C57.0506 10.1863 57.0173 10.935 56.8942 11.6687C56.7112 12.7584 56.6596 13.8631 56.7029 14.9695C56.7312 15.6782 56.653 16.3903 56.7578 17.0974H56.7561Z" fill="#F3D5BE"/>
  <path d="M46.5327 20.5073C46.9437 19.8434 47.1733 19.1047 47.3297 18.3477C47.536 17.3412 47.6541 16.3213 47.7107 15.2948C47.714 15.2432 47.704 15.185 47.7672 15.1467C47.7839 15.1584 47.8088 15.1667 47.8155 15.1834C47.8388 15.2316 47.8571 15.2832 47.8737 15.3348C48.2381 16.5326 48.6856 17.6989 49.3128 18.787C49.777 19.5922 50.2811 20.3675 51.0697 20.9099C51.667 21.3208 52.2892 21.3924 52.948 21.0696C53.4522 20.8234 53.8132 20.4174 54.096 19.9582C54.7765 18.8502 55.2273 17.6457 55.5035 16.3779C55.6283 15.8056 55.7348 15.2316 55.8163 14.6493C55.9378 13.7675 56.0143 12.8858 56.0542 12.0007C56.0891 11.237 56.001 10.475 55.9095 9.71636C55.8113 8.89948 55.6266 8.10755 55.2556 7.36719C55.0527 6.96291 54.7731 6.62351 54.3589 6.43218C53.6817 6.11774 52.9081 6.4039 52.4123 6.99119C52.0047 7.47367 51.7202 8.02602 51.5123 8.62496C51.1113 9.78458 50.8335 10.9642 50.8102 12.197C50.8102 12.2619 50.8301 12.3384 50.7553 12.3816C50.7153 12.38 50.7004 12.3534 50.6904 12.3234C50.4924 11.6962 50.2478 11.0889 49.94 10.5083C49.4592 9.60157 48.9152 8.73976 48.08 8.11587C47.4311 7.63006 46.7324 7.3073 45.8806 7.59679C45.2683 7.80475 44.8357 8.21236 44.488 8.72978C43.9972 9.46015 43.6861 10.2737 43.4266 11.1072C43.1853 11.8825 43.014 12.6711 42.8909 13.4764C42.7644 14.3016 42.6613 15.1268 42.648 15.962C42.633 16.8803 42.6513 17.7971 42.781 18.7104C42.8859 19.4392 43.0722 20.1346 43.548 20.7119C43.9257 21.1711 44.4315 21.4256 45.0204 21.429C45.6959 21.4323 46.1883 21.0679 46.5344 20.5106L46.5327 20.5073Z" fill="#F3D5BE"/>
  <path d="M68.8645 30.9093C68.4818 30.0641 67.9345 29.3287 67.3156 28.6466C66.9629 28.2573 66.5719 27.9046 66.1909 27.5452C65.765 27.1426 65.2975 26.7949 64.8416 26.4305C64.7967 26.3939 64.7052 26.3823 64.7368 26.3041C64.7651 26.2342 64.8449 26.2592 64.9032 26.2708C65.2858 26.3573 65.6685 26.4289 66.0611 26.4638C66.9213 26.5387 67.6916 26.3939 68.3304 25.7484C68.7763 25.2959 69.0425 24.3093 68.8196 23.7287C68.5417 23.0066 68.0227 22.5025 67.3488 22.1614C66.3306 21.6473 65.2243 21.5425 64.1063 21.5342C63.885 21.5326 63.662 21.5891 63.4408 21.6141C62.3244 21.7388 61.2962 22.0699 60.4128 22.8003C59.6724 23.4126 59.1766 24.1512 59.0036 25.1112C58.8722 25.8383 58.9288 26.5354 59.1717 27.2258C59.4179 27.9262 59.8421 28.5168 60.3013 29.0908C60.8354 29.7596 61.4693 30.317 62.1331 30.8444C62.5291 31.1588 62.945 31.4467 63.4108 31.7894C62.8119 31.6729 62.2762 31.628 61.7355 31.6363C60.9768 31.648 60.2631 31.8027 59.6358 32.2436C59.15 32.5846 58.8539 33.0571 58.8372 33.6594C58.804 34.8157 59.4079 35.6243 60.3246 36.2315C60.8903 36.6075 61.5109 36.8804 62.173 37.0517C62.4342 37.1199 62.6987 37.1632 62.9599 37.2281C63.5789 37.3795 64.2061 37.3845 64.825 37.3046C65.5154 37.2164 66.2009 37.0917 66.863 36.8454C67.813 36.4927 68.5384 35.9221 69.0259 35.0187C69.4884 34.1602 69.3969 33.2518 69.3403 32.3501C69.3087 31.8426 69.0775 31.3751 68.8678 30.9109L68.8645 30.9093Z" fill="#F3D5BE"/>
  <path d="M88.866 12.9807C88.3835 11.8544 87.0509 11.5449 86.0577 12.1821C85.7116 12.4051 85.4587 12.7362 85.1576 13.0107C84.4339 13.6695 83.627 14.1753 82.682 14.4514C82.0464 14.6378 81.4142 14.6794 80.7387 14.4065C80.9201 14.3932 81.0615 14.3982 81.1946 14.3683C81.7569 14.2451 82.3259 14.1536 82.85 13.8908C83.2776 13.6762 83.7002 13.4649 84.0595 13.1338C84.5803 12.6546 84.9812 12.1039 85.3056 11.4717C85.5486 10.9992 85.6933 10.5068 85.7299 9.99766C85.8031 8.98945 85.5685 8.05777 84.8914 7.26417C84.4272 6.72014 83.8715 6.30088 83.1961 6.09957C81.9499 5.72856 80.6905 5.69362 79.4344 6.09624C78.0918 6.52548 77.032 7.31242 76.2217 8.4737C75.4997 9.50853 75.2651 10.6831 75.127 11.8893C75.0538 12.5215 75.1802 13.1554 75.3716 13.756C75.6145 14.5213 75.9622 15.2384 76.4796 15.8739C76.8922 16.3814 77.3514 16.8306 77.8855 17.2016C78.4811 17.6142 79.1266 17.9336 79.8037 18.2015C80.5591 18.5009 81.346 18.5392 82.1346 18.6041C82.3359 18.6207 82.5189 18.5142 82.7252 18.5142C83.6353 18.5176 84.4655 18.2131 85.2674 17.8155C85.9262 17.4894 86.5185 17.0618 87.0892 16.5943C87.8129 16.002 88.4584 15.3499 88.8277 14.4764C89.0324 13.9906 89.0657 13.4399 88.8693 12.9807H88.866ZM81.0498 8.23745C81.1264 7.89639 81.4275 7.58194 81.6987 7.58028C81.9383 7.57695 82.1712 7.61855 82.291 7.85812C82.4074 8.09271 82.3342 8.46871 82.1479 8.64672C81.9948 8.79313 81.8135 8.89462 81.6371 8.91459C81.2329 8.91625 80.97 8.59182 81.0498 8.23745ZM79.8104 10.8828C79.6606 11.0824 79.456 11.2405 79.2181 11.3536C78.6924 11.6032 78.2698 11.3453 78.2764 10.7597C78.2531 10.1907 78.9286 9.40538 79.5043 9.30722C79.7655 9.2623 80.0866 9.46195 80.1448 9.71983C80.2446 10.164 80.0649 10.545 79.812 10.8828H79.8104Z" fill="#F3D5BE"/>
  <path d="M77.3546 17.3515C76.8754 16.9456 76.2998 16.7076 75.6659 16.6627C75.2732 16.6344 74.8773 16.6295 74.4846 16.6794C74.3366 16.6977 74.2817 16.6295 74.2883 16.498C74.2933 16.4065 74.3116 16.315 74.3299 16.2252C74.4048 15.8475 74.493 15.4732 74.5562 15.0938C74.6909 14.2869 74.7858 13.4767 74.8573 12.6615C74.9488 11.6083 75.047 10.5552 75.027 9.47712C75.042 8.60034 74.9904 7.70859 74.8523 6.82016C74.7359 6.07149 74.4979 5.38437 73.9855 4.81371C73.5846 4.36784 73.0638 4.15322 72.4715 4.20479C71.8826 4.25637 71.3901 4.55251 70.9758 4.97343C70.4418 5.5158 70.1473 6.19627 69.9177 6.90335C69.6815 7.63871 69.5085 8.38905 69.367 9.14937C69.2223 9.92466 69.0942 10.7 69.036 11.4852C68.9844 12.2006 68.9145 12.9144 68.8746 13.6314C68.8396 14.262 68.7914 14.8975 68.8247 15.5281C68.8663 16.32 68.9128 17.1136 69.0293 17.9022C69.1507 18.7324 69.3138 19.5493 69.788 20.2597C70.0758 20.6889 70.4684 21.0183 70.9409 21.2346C71.3785 21.4359 71.8427 21.5507 72.3235 21.5957C72.7627 21.6373 73.2036 21.6522 73.6411 21.5923C74.5279 21.4725 75.3764 21.218 76.1667 20.7921C76.699 20.5043 77.1982 20.1765 77.5459 19.6558C78.0883 18.8455 78.035 17.9305 77.3512 17.3515H77.3546Z" fill="#F3D5BE"/>
  <path d="M35.9577 20.3183C36.7297 21.3714 38.1672 21.804 39.4715 21.1768C39.8958 20.9721 40.2368 20.6444 40.5014 20.2667C41.097 19.4182 41.3249 18.4266 41.4763 17.4267C41.5878 16.6814 41.6144 15.9227 41.6294 15.0859C41.6144 14.7964 41.6194 14.4237 41.5711 14.0577C41.4563 13.1709 41.3548 12.2825 41.1302 11.4124C40.9838 10.85 40.8308 10.2877 40.5113 9.79858C40.0638 9.11146 39.4349 8.70053 38.5964 8.61401C37.6148 8.51419 36.8262 8.87521 36.1923 9.58895C35.6 10.2561 35.3754 11.0963 35.1808 11.9431C35.036 12.5753 34.9628 13.2175 34.8747 13.8597C34.7915 14.4686 34.7965 15.0759 34.7832 15.6815C34.7665 16.4335 34.8364 17.1922 35.0011 17.9325C35.1891 18.7777 35.432 19.5962 35.9594 20.3166L35.9577 20.3183Z" fill="#F3D5BE"/>
  <path d="M43.7791 24.2049C43.5146 23.3947 43.0787 22.7525 42.2451 22.443C41.4715 22.1552 40.7079 22.2001 40.0191 22.636C39.1722 23.1717 38.7547 24.0235 38.5201 24.9669C38.4136 25.3978 38.362 25.847 38.2505 26.2729C38.0808 26.9251 38.1125 27.5889 38.0542 28.2444C38.011 28.7302 38.0576 29.2293 38.0858 29.7218C38.1391 30.6801 38.3454 31.5885 38.733 32.4653C39.1273 33.3537 39.7562 33.9293 40.7195 34.1689C41.6063 34.3885 42.7725 33.9826 43.3615 33.0875C43.8157 32.3954 44.0686 31.6184 44.2133 30.8099C44.3547 30.0113 44.4113 29.2044 44.4196 28.2527C44.4745 27.8567 44.3631 27.3293 44.3065 26.8019C44.2133 25.9218 44.0553 25.0501 43.7791 24.2032V24.2049Z" fill="#F3D5BE"/>
  <path d="M37.5235 7.99328C38.2805 7.99328 38.778 7.89845 39.2571 7.70712C39.9476 7.43261 40.5116 6.98673 40.8676 6.34287C41.4466 5.29639 41.1272 3.85894 39.8128 3.15186C38.4103 2.39653 36.2325 2.88566 35.3357 4.24825C34.8782 4.94368 34.7268 5.68238 35.1145 6.461C35.6585 7.55073 36.6118 7.94836 37.5235 7.99328Z" fill="#F3D5BE"/>
  <path d="M42.4416 34.8724C41.8493 34.6727 41.262 34.7177 40.663 34.8657C39.5999 35.1286 38.8562 35.7375 38.5069 36.784C38.3588 37.2282 38.3555 37.6924 38.5634 38.115C39.0542 39.1116 39.931 39.4776 40.6714 39.5208C41.9009 39.5242 42.8242 39.213 43.5413 38.4627C44.1169 37.8604 44.285 36.7408 43.9273 36.0786C43.5962 35.4663 43.0887 35.0887 42.4416 34.8724Z" fill="#F3D5BE"/>
</svg>