<svg width="126" height="28" viewBox="0 0 126 28" fill="none" xmlns="http://www.w3.org/2000/svg">
<path d="M89.359 24.3273C90.5799 23.4681 91.3486 22.2924 91.7104 20.8002H94.6496C94.1522 22.8351 93.0217 24.4177 91.213 25.5482C89.4494 26.6787 87.2789 27.2666 84.7014 27.2666C82.5308 27.2666 80.6768 26.8596 79.0489 26.0456C77.4211 25.2317 76.2001 24.056 75.2957 22.5637C74.4366 21.0715 73.9844 19.3079 73.9844 17.3183C73.9844 15.2834 74.4366 13.4746 75.2957 11.9824C76.1549 10.4449 77.3758 9.26925 79.0037 8.4553C80.6316 7.64135 82.4856 7.23438 84.6109 7.23438C87.8215 7.23438 90.3086 8.09354 92.1173 9.81188C93.9261 11.5302 94.8305 14.1077 94.9209 17.2279H77.6471V17.4087C77.6471 19.9862 78.2802 21.9307 79.5464 23.3777C80.8125 24.8699 82.5761 25.5934 84.8822 25.5934C86.6458 25.5934 88.138 25.1865 89.359 24.3273ZM79.9533 10.5354C78.7324 11.7111 78.0089 13.8816 77.7376 16.0069H91.4843C91.213 13.8816 90.4894 11.6659 89.3137 10.5354C88.138 9.4049 86.6006 8.81705 84.7014 8.81705C82.7569 8.81705 81.129 9.4049 79.9533 10.5354Z" fill="white"/>
<path d="M113.281 24.3273C114.502 23.4681 115.27 22.2924 115.632 20.8002H118.571C118.074 22.8351 116.944 24.4177 115.135 25.5482C113.371 26.6787 111.201 27.2666 108.623 27.2666C106.453 27.2666 104.599 26.8596 102.971 26.0456C101.343 25.2317 100.122 24.056 99.2183 22.5637C98.3583 21.0715 97.9062 19.3079 97.9062 17.3183C97.9062 15.2834 98.3583 13.4746 99.2183 11.9824C100.077 10.4449 101.298 9.26925 102.926 8.4553C104.553 7.64135 106.407 7.23438 108.533 7.23438C111.743 7.23438 114.23 8.09354 116.039 9.81188C117.848 11.5302 118.752 14.1077 118.843 17.2279H101.569V17.4087C101.569 19.9862 102.202 21.9307 103.468 23.3777C104.734 24.8699 106.498 25.5934 108.804 25.5934C110.568 25.5934 112.06 25.1865 113.281 24.3273ZM103.875 10.5354C102.654 11.7111 101.931 13.8816 101.659 16.0069H115.451C115.18 13.8816 114.457 11.6659 113.281 10.5354C112.105 9.4049 110.568 8.81705 108.668 8.81705C106.679 8.81705 105.096 9.4049 103.875 10.5354Z" fill="white"/>
<path d="M63.3085 9.1806H59.7812L59.8265 8.05012H63.3085V5.47261C63.3085 3.75427 63.8058 2.44291 64.8006 1.4933C65.7954 0.588912 67.2426 0.136719 69.1418 0.136719C70.5436 0.136719 71.7192 0.362816 72.5784 0.860228L72.081 2.48813C71.5384 1.99071 70.8149 1.7194 70.0009 1.7194C69.0513 1.7194 68.2825 2.03593 67.7399 2.62378C67.1972 3.21164 66.926 4.02558 66.926 5.06564V8.0049H71.8097L71.8548 9.13538H66.926V26.7709H63.3085V9.1806Z" fill="white"/>
<path d="M121.875 0H125.493V26.8151H121.875V0Z" fill="white"/>
<path d="M6.10958 8.3632C5.02432 9.13193 4.21038 10.2624 3.71296 11.7094V7.59447H0.140625V26.8579H3.75818V17.4523C3.75818 15.1913 4.25559 13.2921 5.25041 11.7999C6.24524 10.3076 7.647 9.53891 9.4106 9.53891C10.1341 9.53891 10.6767 9.62935 11.0385 9.85544L11.4002 7.32316C11.1289 7.23272 10.6767 7.1875 10.0437 7.1875C8.5514 7.1875 7.2401 7.59447 6.10958 8.3632Z" fill="white"/>
<path d="M34.5928 17.2279C34.5024 14.0625 33.598 11.5302 31.7892 9.81188C29.9804 8.09354 27.4935 7.23438 24.2829 7.23438C22.1576 7.23438 20.3035 7.64135 18.6756 8.4553C17.0477 9.26925 15.8268 10.4449 14.9676 11.9824C14.1084 13.5199 13.6562 15.2834 13.6562 17.3183C13.6562 19.3079 14.1084 21.0715 14.9676 22.5637C15.8268 24.056 17.0929 25.2317 18.7208 26.0456C20.3488 26.8596 22.2027 27.2666 24.3732 27.2666C26.9507 27.2666 29.1213 26.6787 30.8848 25.5482C32.6484 24.4177 33.8241 22.8351 34.3215 20.8002H31.3822C31.0205 22.2924 30.2519 23.4681 29.0308 24.3273C27.8099 25.1865 26.3177 25.6387 24.5541 25.6387C22.2479 25.6387 20.4845 24.9151 19.2183 23.4229C17.9522 21.9307 17.319 20.0315 17.319 17.4539V17.2731H34.5928V17.2279ZM19.6252 10.5354C20.8461 9.35968 22.4288 8.77182 24.3732 8.77182C26.2725 8.77182 27.8099 9.35969 28.9856 10.4902C30.1613 11.6659 30.8849 13.8364 31.1562 15.9617H17.4095C17.6808 13.8816 18.4043 11.7111 19.6252 10.5354Z" fill="white"/>
<path d="M48.8781 10.9453L47.7929 11.2618C48.3807 13.2967 49.6469 14.9246 51.5009 16.0551H42.1406V17.1856H51.5009C49.6469 18.3161 48.3807 19.944 47.7929 21.9788L48.8781 22.2954C49.6016 19.8535 51.32 18.1804 54.1688 17.1404V16.1003C51.32 15.1055 49.5564 13.4324 48.8781 10.9453Z" fill="white"/>
</svg>
