<svg width="3000" height="3000" viewBox="0 0 3000 3000" fill="none" xmlns="http://www.w3.org/2000/svg">
<rect width="3000" height="3000" fill="white"/>
<path d="M1146.17 1941.37C1156.47 1950.38 1161.61 1962.1 1161.61 1976.52C1161.61 1990.93 1156.47 2002.65 1146.17 2011.66C1135.88 2020.67 1122.09 2026.02 1104.82 2027.7V2042.29H1080.86V2027.7C1063.46 2025.89 1049.68 2020.55 1039.5 2011.66C1029.33 2002.65 1024.24 1990.93 1024.24 1976.52C1024.24 1962.1 1029.33 1950.44 1039.5 1941.55C1049.68 1932.54 1063.46 1927.14 1080.86 1925.33V1910.74H1104.82V1925.33C1122.09 1927.02 1135.88 1932.36 1146.17 1941.37ZM1104.82 2004.99C1126.35 2002.47 1137.12 1992.98 1137.12 1976.52C1137.12 1959.94 1126.35 1950.38 1104.82 1947.86V2004.99ZM1048.55 1976.52C1048.55 1992.98 1059.32 2002.41 1080.86 2004.81V1948.04C1059.32 1950.44 1048.55 1959.94 1048.55 1976.52Z" fill="#333333"/>
<path d="M1193.62 2004.09C1196.7 2015.38 1205.04 2021.03 1218.65 2021.03C1227.4 2021.03 1234.03 2018.03 1238.53 2012.02L1256.98 2022.83C1248.23 2035.69 1235.33 2042.11 1218.29 2042.11C1203.62 2042.11 1191.85 2037.61 1182.97 2028.6C1174.1 2019.59 1169.66 2008.23 1169.66 1994.54C1169.66 1980.96 1174.04 1969.67 1182.79 1960.66C1191.55 1951.53 1202.79 1946.96 1216.52 1946.96C1229.53 1946.96 1240.24 1951.53 1248.64 1960.66C1257.16 1969.79 1261.42 1981.08 1261.42 1994.54C1261.42 1997.54 1261.13 2000.72 1260.53 2004.09H1193.62ZM1193.27 1986.07H1238.53C1237.22 1979.94 1234.5 1975.37 1230.36 1972.37C1226.34 1969.37 1221.72 1967.87 1216.52 1967.87C1210.36 1967.87 1205.28 1969.49 1201.25 1972.73C1197.23 1975.85 1194.57 1980.3 1193.27 1986.07Z" fill="#333333"/>
<path d="M1352.03 2017.79H1363.75V2063.74H1341.38V2039.59H1286.36V2063.74H1264V2017.79H1274.83C1279.91 2010.1 1282.46 1999.46 1282.46 1985.89V1949.48H1352.03V2017.79ZM1299.32 2017.79H1329.67V1970.39H1304.82V1985.89C1304.82 1998.62 1302.99 2009.25 1299.32 2017.79Z" fill="#333333"/>
<path d="M1392.35 2004.09C1395.42 2015.38 1403.76 2021.03 1417.37 2021.03C1426.13 2021.03 1432.75 2018.03 1437.25 2012.02L1455.71 2022.83C1446.95 2035.69 1434.05 2042.11 1417.02 2042.11C1402.34 2042.11 1390.57 2037.61 1381.7 2028.6C1372.82 2019.59 1368.38 2008.23 1368.38 1994.54C1368.38 1980.96 1372.76 1969.67 1381.52 1960.66C1390.27 1951.53 1401.52 1946.96 1415.24 1946.96C1428.26 1946.96 1438.97 1951.53 1447.37 1960.66C1455.89 1969.79 1460.15 1981.08 1460.15 1994.54C1460.15 1997.54 1459.85 2000.72 1459.26 2004.09H1392.35ZM1391.99 1986.07H1437.25C1435.95 1979.94 1433.23 1975.37 1429.09 1972.37C1425.06 1969.37 1420.45 1967.87 1415.24 1967.87C1409.09 1967.87 1404 1969.49 1399.98 1972.73C1395.95 1975.85 1393.29 1980.3 1391.99 1986.07Z" fill="#333333"/>
<path d="M1526 1946.96C1537.95 1946.96 1548.13 1951.59 1556.53 1960.84C1565.05 1969.97 1569.31 1981.2 1569.31 1994.54C1569.31 2007.87 1565.05 2019.17 1556.53 2028.42C1548.13 2037.55 1537.95 2042.11 1526 2042.11C1513.58 2042.11 1503.99 2037.73 1497.25 2028.96V2075.63H1474.35V1949.48H1497.25V1960.12C1503.99 1951.35 1513.58 1946.96 1526 1946.96ZM1504.17 2012.92C1508.79 2017.6 1514.64 2019.95 1521.74 2019.95C1528.84 2019.95 1534.7 2017.6 1539.31 2012.92C1544.05 2008.11 1546.41 2001.99 1546.41 1994.54C1546.41 1987.09 1544.05 1981.02 1539.31 1976.34C1534.7 1971.53 1528.84 1969.13 1521.74 1969.13C1514.64 1969.13 1508.79 1971.53 1504.17 1976.34C1499.56 1981.02 1497.25 1987.09 1497.25 1994.54C1497.25 2001.99 1499.56 2008.11 1504.17 2012.92Z" fill="#333333"/>
<path d="M1651.13 1949.48H1674.02V2039.59H1651.13V2028.96C1644.26 2037.73 1634.62 2042.11 1622.2 2042.11C1610.36 2042.11 1600.19 2037.55 1591.67 2028.42C1583.27 2019.17 1579.07 2007.87 1579.07 1994.54C1579.07 1981.2 1583.27 1969.97 1591.67 1960.84C1600.19 1951.59 1610.36 1946.96 1622.2 1946.96C1634.62 1946.96 1644.26 1951.35 1651.13 1960.12V1949.48ZM1608.89 2012.92C1613.5 2017.6 1619.36 2019.95 1626.46 2019.95C1633.56 2019.95 1639.41 2017.6 1644.03 2012.92C1648.76 2008.11 1651.13 2001.99 1651.13 1994.54C1651.13 1987.09 1648.76 1981.02 1644.03 1976.34C1639.41 1971.53 1633.56 1969.13 1626.46 1969.13C1619.36 1969.13 1613.5 1971.53 1608.89 1976.34C1604.27 1981.02 1601.96 1987.09 1601.96 1994.54C1601.96 2001.99 1604.27 2008.11 1608.89 2012.92Z" fill="#333333"/>
<path d="M1771.1 2017.79H1786.01V2063.74H1763.65V2039.59H1693.01V1949.48H1715.91V2017.79H1748.21V1949.48H1771.1V2017.79Z" fill="#333333"/>
<path d="M1862.77 1949.48H1879.81V2039.59H1857.45V1988.41L1815.74 2039.59H1798.7V1949.48H1821.06V2000.66L1862.77 1949.48Z" fill="#333333"/>
<path d="M1970.19 1949.48V2039.59H1947.82V2011.48H1939.84L1919.42 2039.59H1892.98L1915.17 2008.77C1909.49 2006.37 1904.93 2002.59 1901.5 1997.42C1898.19 1992.13 1896.53 1986.49 1896.53 1980.48C1896.53 1972.07 1899.49 1964.8 1905.4 1958.67C1911.32 1952.55 1919.07 1949.48 1928.65 1949.48H1970.19ZM1930.43 1970.21C1927.12 1970.21 1924.34 1971.23 1922.09 1973.27C1919.96 1975.19 1918.89 1977.84 1918.89 1981.2C1918.89 1984.45 1919.96 1987.03 1922.09 1988.95C1924.34 1990.87 1927.12 1991.83 1930.43 1991.83H1947.82V1970.21H1930.43Z" fill="#333333"/>
<path d="M862.086 2190.94C869.876 2199.44 873.771 2209.66 873.771 2221.63C873.771 2233.59 869.876 2243.82 862.086 2252.31C854.295 2260.8 843.613 2266.01 830.04 2267.92V2302.37H807.731V2267.92C794.157 2266.01 783.475 2260.8 775.685 2252.31C767.895 2243.82 764 2233.59 764 2221.63C764 2209.66 767.895 2199.44 775.685 2190.94C783.475 2182.45 794.157 2177.25 807.731 2175.33V2140.88H830.04V2175.33C843.613 2177.25 854.295 2182.45 862.086 2190.94ZM786.485 2221.63C786.485 2227.61 788.315 2232.75 791.974 2237.06C795.633 2241.36 800.885 2244.29 807.731 2245.85V2197.4C800.885 2198.96 795.633 2201.89 791.974 2206.19C788.315 2210.38 786.485 2215.52 786.485 2221.63ZM830.04 2245.67C836.885 2244.11 842.079 2241.24 845.62 2237.06C849.279 2232.75 851.108 2227.61 851.108 2221.63C851.108 2215.52 849.279 2210.38 845.62 2206.19C842.079 2201.89 836.885 2198.96 830.04 2197.4V2245.67Z" fill="#333333"/>
<path d="M951.951 2176.77H968.948V2266.48H946.639V2215.52L905.033 2266.48H888.036V2176.77H910.344V2227.73L951.951 2176.77Z" fill="#333333"/>
<path d="M1057.86 2176.77V2199.02H1030.24V2266.48H1007.4V2199.02H979.428V2176.77H1057.86Z" fill="#333333"/>
<path d="M1126.36 2176.77H1149.2V2266.48H1126.36V2232.39H1091.13V2266.48H1068.29V2176.77H1091.13V2210.68H1126.36V2176.77Z" fill="#333333"/>
<path d="M1187.65 2231.14C1190.72 2242.38 1199.04 2248 1212.62 2248C1221.35 2248 1227.96 2245.01 1232.45 2239.03L1250.86 2249.8C1242.13 2262.6 1229.26 2269 1212.26 2269C1197.63 2269 1185.88 2264.51 1177.03 2255.54C1168.18 2246.57 1163.75 2235.26 1163.75 2221.63C1163.75 2208.11 1168.12 2196.86 1176.85 2187.89C1185.59 2178.8 1196.8 2174.26 1210.49 2174.26C1223.48 2174.26 1234.16 2178.8 1242.54 2187.89C1251.04 2196.98 1255.29 2208.23 1255.29 2221.63C1255.29 2224.62 1254.99 2227.79 1254.4 2231.14H1187.65ZM1187.3 2213.19H1232.45C1231.15 2207.09 1228.43 2202.55 1224.3 2199.56C1220.29 2196.56 1215.69 2195.07 1210.49 2195.07C1204.36 2195.07 1199.28 2196.68 1195.27 2199.91C1191.25 2203.02 1188.6 2207.45 1187.3 2213.19Z" fill="#333333"/>
<path d="M1310.91 2269C1297.57 2269 1286.41 2264.45 1277.44 2255.36C1268.59 2246.27 1264.17 2235.02 1264.17 2221.63C1264.17 2208.23 1268.59 2196.98 1277.44 2187.89C1286.41 2178.8 1297.57 2174.26 1310.91 2174.26C1319.52 2174.26 1327.37 2176.35 1334.45 2180.54C1341.54 2184.72 1346.91 2190.34 1350.57 2197.4L1330.91 2209.07C1329.14 2205.36 1326.43 2202.43 1322.77 2200.27C1319.23 2198.12 1315.21 2197.04 1310.73 2197.04C1303.88 2197.04 1298.22 2199.38 1293.73 2204.04C1289.25 2208.59 1287 2214.45 1287 2221.63C1287 2228.68 1289.25 2234.54 1293.73 2239.21C1298.22 2243.76 1303.88 2246.03 1310.73 2246.03C1315.33 2246.03 1319.41 2245.01 1322.95 2242.98C1326.61 2240.82 1329.32 2237.89 1331.09 2234.19L1350.92 2245.67C1347.02 2252.73 1341.54 2258.41 1334.45 2262.72C1327.37 2266.9 1319.52 2269 1310.91 2269Z" fill="#333333"/>
<path d="M1362.98 2223.42V2201.17H1429.38V2223.42H1362.98Z" fill="#333333"/>
<path d="M1516.82 2176.77H1539.66V2266.48H1516.82V2255.9C1509.97 2264.63 1500.35 2269 1487.96 2269C1476.16 2269 1466 2264.45 1457.51 2255.36C1449.13 2246.15 1444.94 2234.9 1444.94 2221.63C1444.94 2208.35 1449.13 2197.16 1457.51 2188.07C1466 2178.86 1476.16 2174.26 1487.96 2174.26C1500.35 2174.26 1509.97 2178.62 1516.82 2187.35V2176.77ZM1474.68 2239.93C1479.28 2244.59 1485.13 2246.93 1492.21 2246.93C1499.29 2246.93 1505.13 2244.59 1509.74 2239.93C1514.46 2235.14 1516.82 2229.04 1516.82 2221.63C1516.82 2214.21 1514.46 2208.17 1509.74 2203.5C1505.13 2198.72 1499.29 2196.33 1492.21 2196.33C1485.13 2196.33 1479.28 2198.72 1474.68 2203.5C1470.08 2208.17 1467.78 2214.21 1467.78 2221.63C1467.78 2229.04 1470.08 2235.14 1474.68 2239.93Z" fill="#333333"/>
<path d="M1590.48 2174.26C1603.94 2174.26 1614.98 2178.68 1623.59 2187.53C1632.33 2196.27 1636.69 2207.63 1636.69 2221.63C1636.69 2235.62 1632.33 2247.05 1623.59 2255.9C1614.98 2264.63 1603.88 2269 1590.31 2269C1581.22 2269 1573.07 2266.9 1565.87 2262.72C1558.67 2258.41 1553.3 2252.73 1549.76 2245.67L1569.06 2234.37C1570.59 2238.07 1573.25 2241.06 1577.03 2243.34C1580.8 2245.61 1585.35 2246.75 1590.66 2246.75C1595.62 2246.75 1599.99 2245.43 1603.76 2242.8C1607.66 2240.05 1610.49 2236.46 1612.26 2232.03H1582.16V2211.22H1612.26C1610.49 2206.79 1607.66 2203.26 1603.76 2200.63C1599.99 2197.88 1595.62 2196.51 1590.66 2196.51C1580.27 2196.51 1573.13 2200.57 1569.24 2208.71L1549.94 2197.4C1553.72 2190.34 1559.15 2184.72 1566.23 2180.54C1573.43 2176.35 1581.51 2174.26 1590.48 2174.26Z" fill="#333333"/>
<path d="M1702.75 2174.26C1714.67 2174.26 1724.82 2178.86 1733.2 2188.07C1741.7 2197.16 1745.95 2208.35 1745.95 2221.63C1745.95 2234.9 1741.7 2246.15 1733.2 2255.36C1724.82 2264.45 1714.67 2269 1702.75 2269C1690.36 2269 1680.8 2264.63 1674.07 2255.9V2302.37H1651.23V2176.77H1674.07V2187.35C1680.8 2178.62 1690.36 2174.26 1702.75 2174.26ZM1680.98 2239.93C1685.58 2244.59 1691.42 2246.93 1698.5 2246.93C1705.59 2246.93 1711.43 2244.59 1716.03 2239.93C1720.75 2235.14 1723.11 2229.04 1723.11 2221.63C1723.11 2214.21 1720.75 2208.17 1716.03 2203.5C1711.43 2198.72 1705.59 2196.33 1698.5 2196.33C1691.42 2196.33 1685.58 2198.72 1680.98 2203.5C1676.37 2208.17 1674.07 2214.21 1674.07 2221.63C1674.07 2229.04 1676.37 2235.14 1680.98 2239.93Z" fill="#333333"/>
<path d="M1835.71 2255.36C1826.62 2264.45 1815.53 2269 1802.43 2269C1789.33 2269 1778.23 2264.45 1769.14 2255.36C1760.17 2246.15 1755.69 2234.9 1755.69 2221.63C1755.69 2208.35 1760.17 2197.16 1769.14 2188.07C1778.23 2178.86 1789.33 2174.26 1802.43 2174.26C1815.53 2174.26 1826.62 2178.86 1835.71 2188.07C1844.8 2197.16 1849.35 2208.35 1849.35 2221.63C1849.35 2234.9 1844.8 2246.15 1835.71 2255.36ZM1785.25 2239.39C1789.86 2244.05 1795.58 2246.39 1802.43 2246.39C1809.27 2246.39 1815 2244.05 1819.6 2239.39C1824.2 2234.72 1826.51 2228.8 1826.51 2221.63C1826.51 2214.45 1824.2 2208.53 1819.6 2203.86C1815 2199.2 1809.27 2196.86 1802.43 2196.86C1795.58 2196.86 1789.86 2199.2 1785.25 2203.86C1780.77 2208.53 1778.53 2214.45 1778.53 2221.63C1778.53 2228.8 1780.77 2234.72 1785.25 2239.39Z" fill="#333333"/>
<path d="M1905.6 2269C1891.68 2269 1880.4 2264.45 1871.79 2255.36C1863.29 2246.27 1859.04 2234.72 1859.04 2220.73C1859.04 2205.42 1861.28 2193.63 1865.77 2185.38C1870.25 2177.01 1879.28 2169.41 1892.86 2162.59C1894.86 2161.64 1897.69 2160.32 1901.35 2158.64C1905.01 2156.85 1907.49 2155.59 1908.79 2154.88C1910.21 2154.16 1912.09 2153.08 1914.46 2151.65C1916.82 2150.21 1918.47 2148.96 1919.41 2147.88C1920.48 2146.68 1921.6 2145.19 1922.78 2143.39C1923.96 2141.6 1924.9 2139.62 1925.61 2137.47L1944.38 2148.42C1942.84 2155.71 1939.36 2161.4 1933.93 2165.46C1928.62 2169.41 1920.59 2173.48 1909.85 2177.66C1902.3 2180.66 1896.81 2183.65 1893.39 2186.64C1889.96 2189.63 1887.48 2193.22 1885.95 2197.4C1892.56 2190.58 1901.41 2187.17 1912.51 2187.17C1922.3 2187.17 1931.04 2190.82 1938.71 2198.12C1946.38 2205.3 1950.22 2214.87 1950.22 2226.83C1950.22 2239.15 1946.09 2249.26 1937.83 2257.15C1929.68 2265.05 1918.94 2269 1905.6 2269ZM1889.31 2241.72C1893.68 2245.79 1899.05 2247.82 1905.43 2247.82C1911.8 2247.82 1917.05 2245.85 1921.18 2241.9C1925.31 2237.95 1927.38 2232.93 1927.38 2226.83C1927.38 2220.73 1925.31 2215.7 1921.18 2211.76C1917.05 2207.69 1911.74 2205.66 1905.25 2205.66C1899.47 2205.66 1894.27 2207.51 1889.67 2211.22C1885.18 2214.93 1882.94 2219.89 1882.94 2226.11C1882.94 2232.45 1885.07 2237.65 1889.31 2241.72Z" fill="#333333"/>
<path d="M2026.24 2176.77H2043.24V2266.48H2020.93V2215.52L1979.32 2266.48H1962.33V2176.77H1984.63V2227.73L2026.24 2176.77Z" fill="#333333"/>
<path d="M2144.01 2266.48H2117.46L2085.23 2225.75V2266.48H2062.39V2176.77H2085.23V2216.24L2115.69 2176.77H2142.95L2107.36 2221.09L2144.01 2266.48Z" fill="#333333"/>
<path d="M2217.56 2176.77H2234.56V2266.48H2212.25V2215.52L2170.64 2266.48H2153.64V2176.77H2175.95V2227.73L2217.56 2176.77Z" fill="#333333"/>
<path d="M1264.73 2364.21C1276.69 2364.21 1286.75 2368.26 1294.91 2376.38C1303.08 2384.49 1307.17 2394.46 1307.17 2406.27C1307.17 2418.08 1303.08 2428.05 1294.91 2436.16C1286.75 2444.27 1276.69 2448.33 1264.73 2448.33H1242.89V2489.5H1218.39V2364.21H1264.73ZM1264.73 2425.24C1269.94 2425.24 1274.26 2423.45 1277.69 2419.87C1281.12 2416.17 1282.84 2411.64 1282.84 2406.27C1282.84 2400.78 1281.12 2396.25 1277.69 2392.67C1274.26 2389.09 1269.94 2387.3 1264.73 2387.3H1242.89V2425.24H1264.73Z" fill="#333333"/>
<path d="M1390.02 2478.4C1380.91 2487.47 1369.78 2492 1356.64 2492C1343.5 2492 1332.38 2487.47 1323.26 2478.4C1314.26 2469.21 1309.77 2458 1309.77 2444.75C1309.77 2431.51 1314.26 2420.35 1323.26 2411.28C1332.38 2402.09 1343.5 2397.5 1356.64 2397.5C1369.78 2397.5 1380.91 2402.09 1390.02 2411.28C1399.14 2420.35 1403.7 2431.51 1403.7 2444.75C1403.7 2458 1399.14 2469.21 1390.02 2478.4ZM1339.42 2462.47C1344.04 2467.12 1349.78 2469.45 1356.64 2469.45C1363.51 2469.45 1369.25 2467.12 1373.87 2462.47C1378.48 2457.82 1380.79 2451.91 1380.79 2444.75C1380.79 2437.59 1378.48 2431.69 1373.87 2427.03C1369.25 2422.38 1363.51 2420.05 1356.64 2420.05C1349.78 2420.05 1344.04 2422.38 1339.42 2427.03C1334.92 2431.69 1332.67 2437.59 1332.67 2444.75C1332.67 2451.91 1334.92 2457.82 1339.42 2462.47Z" fill="#333333"/>
<path d="M1460.3 2492C1446.92 2492 1435.73 2487.47 1426.74 2478.4C1417.86 2469.33 1413.42 2458.12 1413.42 2444.75C1413.42 2431.39 1417.86 2420.17 1426.74 2411.1C1435.73 2402.03 1446.92 2397.5 1460.3 2397.5C1468.94 2397.5 1476.81 2399.59 1483.91 2403.76C1491.01 2407.94 1496.4 2413.55 1500.07 2420.59L1480.36 2432.22C1478.58 2428.52 1475.86 2425.6 1472.19 2423.45C1468.64 2421.3 1464.62 2420.23 1460.12 2420.23C1453.25 2420.23 1447.57 2422.56 1443.07 2427.21C1438.57 2431.74 1436.32 2437.59 1436.32 2444.75C1436.32 2451.79 1438.57 2457.64 1443.07 2462.29C1447.57 2466.83 1453.25 2469.09 1460.12 2469.09C1464.73 2469.09 1468.82 2468.08 1472.37 2466.05C1476.04 2463.9 1478.76 2460.98 1480.54 2457.28L1500.42 2468.74C1496.52 2475.78 1491.01 2481.44 1483.91 2485.74C1476.81 2489.92 1468.94 2492 1460.3 2492Z" fill="#333333"/>
<path d="M1551.64 2492C1538.26 2492 1527.07 2487.47 1518.08 2478.4C1509.2 2469.33 1504.76 2458.12 1504.76 2444.75C1504.76 2431.39 1509.2 2420.17 1518.08 2411.1C1527.07 2402.03 1538.26 2397.5 1551.64 2397.5C1560.28 2397.5 1568.15 2399.59 1575.25 2403.76C1582.35 2407.94 1587.74 2413.55 1591.41 2420.59L1571.7 2432.22C1569.92 2428.52 1567.2 2425.6 1563.53 2423.45C1559.98 2421.3 1555.96 2420.23 1551.46 2420.23C1544.59 2420.23 1538.91 2422.56 1534.41 2427.21C1529.91 2431.74 1527.66 2437.59 1527.66 2444.75C1527.66 2451.79 1529.91 2457.64 1534.41 2462.29C1538.91 2466.83 1544.59 2469.09 1551.46 2469.09C1556.07 2469.09 1560.16 2468.08 1563.71 2466.05C1567.38 2463.9 1570.1 2460.98 1571.88 2457.28L1591.77 2468.74C1587.86 2475.78 1582.35 2481.44 1575.25 2485.74C1568.15 2489.92 1560.28 2492 1551.64 2492Z" fill="#333333"/>
<path d="M1666.9 2400H1683.94V2489.5H1661.57V2438.67L1619.84 2489.5H1602.8V2400H1625.17V2450.84L1666.9 2400Z" fill="#333333"/>
<path d="M1767.26 2400H1784.3V2489.5H1761.93V2438.67L1720.2 2489.5H1703.16V2400H1725.53V2450.84L1767.26 2400Z" fill="#333333"/>
<path fill-rule="evenodd" clip-rule="evenodd" d="M1645.48 1108.45L1859.3 899.914C1859.3 899.914 1734.25 782.539 1633.18 752.936C1534.31 723.978 1468.24 723.978 1369.37 752.936C1268.29 782.539 1143.25 899.914 1143.25 899.914L1355.78 1108.45L1403.52 990.362L1286.46 899.914L1369.37 865.996L1427.06 990.362L1141.63 1603.4C1194.96 1623.73 1251.86 1639.67 1311.44 1650.56C1385.57 1481.04 1501.27 1216.48 1501.27 1216.48L1690.92 1650.14C1750.45 1639.11 1807.29 1623.04 1860.55 1602.57L1574.2 990.362L1633.18 865.996L1716.09 899.914L1597.74 990.362L1645.48 1108.45Z" fill="#EB5757"/>
<path fill-rule="evenodd" clip-rule="evenodd" d="M1574.2 990.362L1860.55 1602.57C1807.29 1623.04 1750.45 1639.11 1690.92 1650.14L1501.27 1216.48C1501.27 1216.48 1385.57 1481.04 1311.44 1650.56C1251.86 1639.67 1194.96 1623.73 1141.63 1603.4L1427.06 990.362L1369.37 865.996L1286.46 899.914L1403.52 990.362L1355.78 1108.45L1143.25 899.914C1143.25 899.914 1268.29 782.539 1369.37 752.936C1468.24 723.978 1534.31 723.978 1633.18 752.936C1734.25 782.539 1859.3 899.914 1859.3 899.914L1645.48 1108.45L1597.74 990.362L1716.09 899.914L1633.18 865.996L1574.2 990.362ZM1589.21 634.85C1589.21 683.416 1549.84 722.786 1501.27 722.786C1452.71 722.786 1413.34 683.416 1413.34 634.85C1413.34 586.285 1452.71 546.915 1501.27 546.915C1549.84 546.915 1589.21 586.285 1589.21 634.85Z" fill="#EB5757"/>
<path d="M1801.51 693.363C1801.51 728.053 1829.63 756.174 1864.32 756.174C1899.01 756.174 1927.13 728.053 1927.13 693.363C1927.13 658.673 1899.01 630.552 1864.32 630.552C1829.63 630.552 1801.51 658.673 1801.51 693.363Z" fill="#2F80ED"/>
<path fill-rule="evenodd" clip-rule="evenodd" d="M2145.98 728.425L1876.12 987.32L2237 1326.13C2212.46 1365.43 2182.15 1402.34 2146.89 1436.29L1862.43 1161.93L1817.95 1330.27L1821.43 1392.24L1716.61 1156.82L1720.66 1099.39L1923.79 891.242L1868.15 845.024L2030.14 638.889C2072.91 665.588 2111.77 695.612 2145.98 728.425ZM1672.29 727.767L1624.12 507C1675.47 511.79 1725.27 520.257 1773.02 532.034L1786.43 791.349C1786.43 791.349 1751.65 766.948 1729.36 754.533C1707.07 742.118 1672.29 727.767 1672.29 727.767ZM1864.32 756.174C1829.63 756.174 1801.51 728.053 1801.51 693.363C1801.51 658.673 1829.63 630.552 1864.32 630.552C1899.01 630.552 1927.13 658.673 1927.13 693.363C1927.13 728.053 1899.01 756.174 1864.32 756.174Z" fill="#2F80ED"/>
<path fill-rule="evenodd" clip-rule="evenodd" d="M1773.02 532.034L1786.43 791.349C1786.43 791.349 1751.65 766.948 1729.36 754.533C1707.07 742.118 1672.29 727.767 1672.29 727.767L1624.12 507C1675.47 511.79 1725.27 520.257 1773.02 532.034ZM1868.15 845.024L1923.79 891.242L1720.66 1099.39L1716.61 1156.82L1821.43 1392.24L1817.95 1330.27L1862.43 1161.93L2146.89 1436.29C2182.15 1402.34 2212.46 1365.43 2237 1326.13L1876.12 987.32L2145.98 728.425C2111.77 695.612 2072.91 665.588 2030.14 638.889L1868.15 845.024Z" fill="#2F80ED"/>
<path d="M1204.46 693.363C1204.46 728.053 1176.34 756.174 1141.65 756.174C1106.96 756.174 1078.84 728.053 1078.84 693.363C1078.84 658.673 1106.96 630.552 1141.65 630.552C1176.34 630.552 1204.46 658.673 1204.46 693.363Z" fill="#D8D8D8"/>
<path fill-rule="evenodd" clip-rule="evenodd" d="M859.982 728.425L1129.84 987.32L768.967 1326.13C793.511 1365.43 823.816 1402.34 859.079 1436.29L1143.53 1161.93L1188.02 1330.27L1184.53 1392.24L1289.36 1156.82L1285.31 1099.39L1082.17 891.242L1137.82 845.024L975.822 638.889C933.054 665.588 894.199 695.612 859.982 728.425ZM1333.68 727.767L1381.84 507C1330.5 511.79 1280.7 520.257 1232.94 532.034L1219.53 791.349C1219.53 791.349 1254.32 766.948 1276.61 754.533C1298.89 742.118 1333.68 727.767 1333.68 727.767ZM1141.65 756.174C1176.34 756.174 1204.46 728.053 1204.46 693.363C1204.46 658.673 1176.34 630.552 1141.65 630.552C1106.96 630.552 1078.84 658.673 1078.84 693.363C1078.84 728.053 1106.96 756.174 1141.65 756.174Z" fill="#D8D8D8"/>
<path fill-rule="evenodd" clip-rule="evenodd" d="M1232.94 532.034L1219.53 791.349C1219.53 791.349 1254.32 766.948 1276.61 754.533C1298.89 742.118 1333.68 727.767 1333.68 727.767L1381.84 507C1330.5 511.79 1280.7 520.257 1232.94 532.034ZM1137.82 845.024L1082.17 891.242L1285.31 1099.39L1289.36 1156.82L1184.53 1392.24L1188.02 1330.27L1143.53 1161.93L859.079 1436.29C823.816 1402.34 793.511 1365.43 768.967 1326.13L1129.84 987.32L859.982 728.425C894.199 695.612 933.054 665.588 975.822 638.889L1137.82 845.024Z" fill="#D8D8D8"/>
</svg>
