<?xml version="1.0" encoding="utf-8"?>
<!-- Generator: Adobe Illustrator 26.0.2, SVG Export Plug-In . SVG Version: 6.00 Build 0)  -->
<svg version="1.1" id="Слой_1" xmlns="http://www.w3.org/2000/svg" xmlns:xlink="http://www.w3.org/1999/xlink" x="0px" y="0px"
	 viewBox="0 0 1329 426.3" style="enable-background:new 0 0 1329 426.3;" xml:space="preserve">
<style type="text/css">
	.st0{fill:#222222;}
	.st1{fill-rule:evenodd;clip-rule:evenodd;fill:#222222;}
</style>
<path class="st0" d="M1303.6,424.5l-14.3-28.9h-52.8l-13.8,28.9h-25.4l57-116.7h17.3l57.5,116.7H1303.6z M1262.8,342.1l-15.3,31.3
	h30.9L1262.8,342.1z"/>
<path class="st0" d="M1158.8,424.5h-92.1h-23.6l8.4-21.8h13.2l40.7-95h14.4l40.9,95h14.5l7.1,21.8H1158.8z M1136,402.7l-23.3-58.3
	l-23.1,58.3H1136z"/>
<path class="st0" d="M1016.5,409.4c-11.4,11.3-25.8,17-43.1,17s-31.6-5.7-43.1-17c-11.4-11.4-17.1-25.9-17.1-43.3s5.7-31.7,17.1-43
	c11.4-11.4,25.8-17.2,43.1-17.2s31.6,5.7,43.1,17.2c11.6,11.3,17.4,25.7,17.4,43S1028.1,397.9,1016.5,409.4z M973.5,328.1
	c-10.4,0-19.1,3.6-26.2,10.7c-6.9,7.1-10.3,16.2-10.3,27.4s3.4,20.3,10.3,27.4c7,7.1,15.7,10.7,26.2,10.7c10.5,0,19.3-3.6,26.2-10.7
	c7-7.1,10.5-16.2,10.5-27.4s-3.5-20.3-10.5-27.4C992.7,331.6,984,328.1,973.5,328.1z"/>
<polygon class="st0" points="862.7,424.5 862.7,352.2 825.9,406.2 789.1,352.2 789.1,424.5 766.6,424.5 766.6,307.7 784.1,307.7 
	825.9,367.4 867.9,307.7 885.4,307.7 885.4,424.5 "/>
<path class="st0" d="M642.4,380.7l18.4,13.7c-5,9.6-11.9,17.3-20.8,23.3c-8.9,5.8-19.5,8.7-31.9,8.7c-18.5,0-33.2-5.6-43.9-16.7
	c-11.1-11-16.6-25.3-16.6-42.8c0-18.1,5.6-32.8,16.8-44.1c11.2-11.2,25.9-16.7,43.9-16.7c12.4,0,22.8,2.6,31.3,7.8
	c7.9,4.5,14.6,10.8,20.1,18.9l-19.5,13.7c-3.8-6.1-8.2-10.7-13.1-13.7c-5.4-3-11.7-4.6-19-4.6c-10.8,0-19.5,3.3-26.2,10
	c-7.3,7.2-10.9,16.7-10.9,28.5c0,11.4,3.7,20.9,11.1,28.3c6.3,6.2,14.6,9.3,25.1,9.3c8.2,0,15.4-2.3,21.9-7
	C635.2,392.7,639.6,387.2,642.4,380.7z"/>
<polygon class="st0" points="471,424.5 445.5,424.5 464.9,388.8 417.6,307.7 445.3,307.7 478.4,364.4 510.5,307.7 536.4,307.7 "/>
<path class="st0" d="M257.6,409.4c-11.3,11.3-25.4,17-42.4,17s-31.2-5.7-42.4-17c-11.3-11.4-16.9-25.9-16.9-43.3s5.6-31.7,16.9-43
	c11.3-11.4,25.4-17.2,42.4-17.2s31.2,5.7,42.4,17.2c11.4,11.3,17.1,25.7,17.1,43S269,397.9,257.6,409.4z M215.2,328.1
	c-10.2,0-18.8,3.6-25.7,10.7c-6.8,7.1-10.2,16.2-10.2,27.4s3.4,20.3,10.2,27.4c6.9,7.1,15.5,10.7,25.7,10.7c10.4,0,19-3.6,25.7-10.7
	c6.9-7.1,10.4-16.2,10.4-27.4s-3.5-20.3-10.4-27.4C234.2,331.6,225.6,328.1,215.2,328.1z"/>
<path class="st0" d="M97.1,314.7v22.9H43.9v-22.9H97.1z M43.9,337.5c-11.5,0-20.8,9.3-20.8,20.7c0,11.4,9.3,20.7,20.8,20.7h53.2
	c11.5,0,20.8-9.3,20.8-20.7c0-11.4-9.3-20.7-20.8-20.7v-22.9c24.3,0,43.9,19.5,43.9,43.5c0,24-19.7,43.5-43.9,43.5H43.9
	C19.7,401.7,0,382.2,0,358.2c0-24,19.7-43.5,43.9-43.5V337.5z"/>
<rect x="59.4" y="305.9" class="st0" width="22.9" height="120.4"/>
<polygon class="st0" points="378.8,422.6 337,371.1 318,389.6 318,422.6 295.2,422.6 295.2,307.7 318,307.7 318,362.7 373.3,307.7 
	400.5,307.7 353.3,356.6 406.5,422.6 "/>
<path class="st1" d="M621.7,163.5l46.1-105h40.5l-46.1,105H621.7z M530,111c0-49.7,40.3-90,90-90h23.8L653,0h40.5l-9.2,21l-13.2,30
	l-40.5,0L620,51c-33.1,0-60,26.9-60,60c0,32.6,26,59.1,58.4,60l-12.7,28.9C562.8,193,530,155.8,530,111z M636.5,222l9.2-21l13.2-30
	l0,0h40.5l0,0H710c33.1,0,60-26.9,60-60c0-32.6-26-59.1-58.4-60l12.7-28.9C767.2,29,800,66.2,800,111c0,49.7-40.3,90-90,90h-23.8
	l-9.2,21H636.5z"/>
</svg>
