<svg width="574" height="792" viewBox="0 0 574 792" fill="none" xmlns="http://www.w3.org/2000/svg">
<g clip-path="url(#clip0_1247_2866)">
<path d="M97.2097 636.379H72.2129L38.8839 699.368V636.379H17.5903V791.074H38.8839V745.684L49.9936 726.232L74.0645 791.074H98.1355L62.9549 700.295L97.2097 636.379Z" fill="white"/>
<path d="M167.571 754.021C167.571 763.284 160.164 771.621 150.906 771.621C141.648 771.621 133.316 764.211 133.316 754.021V636.379H111.097V753.095C111.097 774.4 128.687 792 149.981 792C171.274 792 188.864 774.4 188.864 753.095V636.379H166.645V754.021H167.571Z" fill="white"/>
<path d="M244.413 636.379H205.529V791.074H244.413C265.707 791.074 283.297 773.474 283.297 752.168V676.211C283.297 653.979 265.707 636.379 244.413 636.379ZM261.078 753.095C261.078 762.358 253.671 769.768 244.413 769.768H226.823V656.758H244.413C253.671 656.758 261.078 664.168 261.078 673.432V753.095Z" fill="white"/>
<path d="M344.4 636.379H324.032L290.703 791.074H312.922L317.552 766.989H350.881L355.51 791.074H377.729L344.4 636.379ZM346.252 745.684H322.181L334.216 687.326L346.252 745.684Z" fill="white"/>
<path d="M424.019 634.527C402.726 634.527 385.135 652.127 385.135 673.433V752.169C385.135 773.475 402.726 791.075 424.019 791.075C445.313 791.075 462.903 773.475 462.903 752.169V726.233H422.168V746.612H441.609V753.096C441.609 762.359 434.203 770.696 424.945 770.696C415.687 770.696 407.355 763.285 407.355 753.096V672.506C407.355 663.243 414.761 654.906 424.945 654.906C434.203 654.906 441.609 662.317 441.609 672.506V682.696H462.903V674.359C462.903 652.127 445.313 634.527 424.019 634.527Z" fill="white"/>
<path d="M517.526 634.527C496.232 634.527 478.642 652.127 478.642 673.433V752.169C478.642 773.475 496.232 791.075 517.526 791.075C538.82 791.075 556.41 773.475 556.41 752.169V673.433C556.41 652.127 538.82 634.527 517.526 634.527ZM499.936 673.433C499.936 664.169 507.342 655.833 517.526 655.833C526.784 655.833 534.19 663.243 534.19 673.433V754.022C534.19 763.285 526.784 771.622 517.526 771.622C508.268 771.622 499.936 764.212 499.936 754.022V673.433Z" fill="white"/>
<path fill-rule="evenodd" clip-rule="evenodd" d="M225.897 25.0119C370.322 -9.26174 515.674 80.5909 549.003 226.022C583.258 370.528 492.529 515.959 348.103 550.233C203.677 583.58 58.3257 493.728 24.9967 348.296C-9.25814 203.791 80.5451 58.3593 225.897 25.0119Z" fill="#EE3942"/>
<path d="M287 17.6C409.206 17.6 520.303 101.895 549.003 226.021C583.258 370.526 492.529 515.958 348.103 550.232C327.735 554.863 306.442 557.642 287 557.642C164.793 556.716 53.6967 472.421 24.9967 348.295C-9.25815 203.789 80.5451 58.3579 225.897 25.0105C246.264 19.4526 266.632 17.6 287 17.6ZM287 0C264.781 0 242.561 2.77895 221.268 7.41053C67.5838 43.5368 -28.7001 198.232 7.40636 352.926C22.2193 415.916 58.3257 473.347 110.171 513.179C160.164 553.011 223.119 574.316 287 574.316C309.219 574.316 330.513 571.537 352.732 566.905C506.416 530.779 602.7 376.084 566.594 222.316C551.781 159.326 515.674 101.895 463.829 62.0632C413.835 21.3053 350.881 0 287 0Z" fill="white"/>
<path fill-rule="evenodd" clip-rule="evenodd" d="M304.59 244.546C310.145 249.177 318.477 249.177 324.032 243.619C328.661 238.061 328.661 229.724 323.106 224.167C317.551 219.535 309.219 219.535 303.664 225.093C298.109 230.651 299.035 238.988 304.59 244.546Z" fill="white"/>
<path fill-rule="evenodd" clip-rule="evenodd" d="M250.116 384.348C245.487 395.463 239.006 405.653 226.045 418.621C223.268 421.4 229.748 426.958 233.452 431.59C234.377 443.632 234.377 473.274 239.932 481.611H251.042C243.635 464.937 247.339 447.337 247.339 427.885C246.413 425.106 244.561 422.327 243.635 418.621C249.19 407.506 253.819 400.095 256.597 386.2L250.116 384.348Z" fill="white"/>
<path fill-rule="evenodd" clip-rule="evenodd" d="M339.993 394.536L327.032 393.609C327.958 406.578 333.512 414.915 339.993 422.325C337.216 438.073 333.512 454.746 334.438 477.904H345.548C347.399 457.525 352.029 433.441 358.509 419.546C350.177 413.062 342.77 401.02 339.993 394.536Z" fill="white"/>
<path d="M330.439 312.094V306.536C330.439 305.61 329.513 304.684 328.587 304.684C327.661 304.684 326.735 305.61 326.735 306.536V312.094V313.02C327.661 313.02 328.587 313.02 329.513 313.02C330.439 313.02 330.439 312.094 330.439 312.094Z" fill="white"/>
<path d="M310.997 307.461V301.903C310.997 300.977 310.071 300.051 309.145 300.051C308.219 300.051 307.293 300.977 307.293 301.903V307.461C308.219 308.388 308.219 308.388 309.145 309.314C310.071 309.314 310.997 308.388 310.997 307.461Z" fill="white"/>
<path fill-rule="evenodd" clip-rule="evenodd" d="M336.919 284.305C335.993 284.305 335.993 284.305 335.993 284.305C335.068 288.01 331.364 290.789 326.735 291.715H313.774C311.922 291.715 310.071 291.715 309.145 290.789C309.145 291.715 309.145 293.568 308.219 294.494C310.071 297.273 314.7 300.052 323.032 300.978C335.068 302.831 347.103 300.052 350.806 295.42C354.51 290.789 348.029 285.231 336.919 284.305Z" fill="white"/>
<path fill-rule="evenodd" clip-rule="evenodd" d="M267.558 299.197C268.483 299.197 269.409 299.197 270.335 300.123L271.261 297.344L268.483 296.418C268.483 297.344 268.483 298.271 267.558 299.197Z" fill="white"/>
<path fill-rule="evenodd" clip-rule="evenodd" d="M211.084 173.219C223.119 176.925 242.561 165.809 259.226 166.735C273.113 167.662 295.332 173.219 308.293 179.704L289.777 229.725C289.777 234.356 288.851 238.988 285.148 241.767L273.113 274.188H275.89C276.816 274.188 276.816 274.188 277.742 274.188C277.742 273.262 278.214 272.998 278.668 271.409C280.519 264.925 283.297 258.441 286.074 254.735L295.332 228.798C295.332 226.019 296.258 224.167 298.109 222.314L344.4 94.4826C345.326 92.63 344.4 91.7037 342.548 90.7773C341.622 90.7773 340.697 90.7773 339.771 90.7773C334.216 97.2616 296.258 92.63 262.929 91.7037C237.932 90.7773 212.009 88.9247 193.493 98.1879C182.384 109.304 162.016 144.504 151.832 163.956C175.903 162.104 195.345 168.588 211.084 173.219Z" fill="white"/>
<path fill-rule="evenodd" clip-rule="evenodd" d="M456.422 279.747C434.203 268.632 432.351 254.737 413.835 239.916C411.984 240.842 410.132 240.842 409.206 239.916C412.909 237.137 417.538 233.432 424.945 241.769C423.093 232.505 407.355 227.874 396.245 234.358C392.542 230.653 392.542 226.947 392.542 223.242C388.838 228.8 386.987 234.358 386.987 240.842C381.432 238.99 374.951 239.916 368.471 244.547C360.138 251.032 361.99 251.958 351.806 255.663C353.658 256.59 358.287 256.59 360.138 254.737C356.435 260.295 347.177 263.074 340.696 261.221C341.622 264.926 347.177 266.779 351.806 265.853C348.103 268.632 344.4 272.337 334.216 270.484C336.993 273.263 341.622 276.042 347.177 276.042C345.325 277.895 343.474 279.747 342.548 281.6C354.584 285.305 355.509 290.863 353.658 296.421V305.684C353.658 305.684 354.584 305.684 354.584 307.537C354.584 310.316 350.88 313.095 344.4 314.947C342.548 314.947 340.696 315.874 337.919 315.874C339.771 317.726 340.696 319.579 340.696 322.358L336.993 362.19C336.993 365.895 336.067 368.674 334.216 370.526C332.364 372.379 330.513 374.232 325.884 374.232C322.18 374.232 314.774 372.379 314.774 360.337L316.626 330.695C311.996 329.768 305.516 329.769 299.961 327.916C298.5 327.429 299.961 327.916 297.184 326.99V362.19C297.184 368.674 292.555 373.305 286.074 373.305C279.593 372.379 276.816 368.674 275.89 361.263L274.964 326.99C272.5 326.5 273 326.628 268.484 326.063C261.077 325.137 255.522 325.137 250.893 324.211C250.893 324.211 250.893 324.211 249.967 324.211C244.413 323.284 240.709 320.505 238.858 316.8C237.932 314.947 237.932 314.021 237.006 312.168C235.155 312.168 233.303 312.168 232.377 313.095C228.674 314.021 224.971 315.874 222.193 317.726C209.232 308.463 190.716 303.832 175.903 312.168C158.313 321.432 162.942 338.105 142.574 341.811C153.684 346.442 168.496 340.884 174.051 328.842C171.274 342.737 140.722 360.337 129.613 335.326C124.984 339.958 128.687 350.147 134.242 352.926C124.984 355.705 121.28 350.147 118.503 344.59C117.577 371.453 136.093 386.274 164.793 372.379C162.016 377.937 151.832 384.421 136.093 383.495C172.2 393.684 191.642 362.19 192.567 348.295C193.493 353.853 192.567 358.484 189.79 364.969C212.935 352.926 193.493 326.99 213.861 325.137C214.787 325.137 215.713 325.137 216.638 325.137C212.009 330.695 208.306 339.032 208.306 348.295C208.306 355.705 210.158 361.263 214.787 366.821C209.232 382.568 206.455 399.242 198.122 412.211C196.271 420.547 199.974 429.811 201.825 440C205.529 459.453 201.825 469.642 201.825 481.684H215.713C217.564 467.79 218.49 447.411 216.638 420.547C228.674 410.358 240.709 395.537 247.19 379.79C287 382.568 298.109 389.979 345.325 391.832C349.029 402.021 356.435 413.137 364.767 419.621C370.322 434.442 368.471 458.526 370.322 478.905H379.58C378.655 454.821 379.58 437.221 380.506 418.695C375.877 402.947 373.1 389.979 373.1 378.863C376.803 374.232 379.58 368.674 380.506 362.19C383.284 330.695 386.061 294.568 396.245 283.453C409.206 282.526 425.871 294.569 449.016 298.274C451.793 296.421 451.793 292.716 451.793 288.084C454.571 286.232 456.422 285.305 456.422 279.747Z" fill="white"/>
<path fill-rule="evenodd" clip-rule="evenodd" d="M334.216 318.649C330.513 318.649 328.661 318.649 322.18 317.723C311.996 316.797 303.664 313.091 302.738 306.607C302.738 306.607 303.664 294.565 304.59 288.081L302.738 285.302C302.738 285.302 299.961 274.186 300.887 272.334C300.887 271.407 301.813 271.407 302.738 270.481L305.516 281.597C305.516 283.449 306.442 284.376 308.293 285.302C309.219 286.228 311.071 287.155 312.922 287.155H325.884C329.587 287.155 331.438 284.376 331.438 281.597C331.438 277.891 328.661 276.039 324.958 276.965H317.551L314.5 262.497C314 261.497 314 261.997 313.848 261.218C312.944 256.582 310.145 252.881 304.59 251.028C298.109 250.102 294.406 251.955 289.777 258.439C287 262.144 283.297 269.555 281.445 276.965C282.371 276.965 282.371 277.891 283.297 278.818C285.148 280.67 286.074 283.449 286.074 286.228C286.074 289.007 284.222 291.786 282.371 293.639C281.445 294.565 280.519 295.491 278.667 295.491C278.667 296.418 278.667 296.418 278.667 297.344C278.667 299.197 278.667 300.8 278.667 302.653C281.445 303.579 284.723 304.571 287.5 305.497C293.981 307.349 296.5 310.644 296.5 312.497C296.758 313.762 296.812 315.87 296.812 317.723L297 323.997C298.742 324.286 299.035 325.134 299.961 325.134C308.293 326.986 319.403 327.913 320.329 327.913L318.477 362.186C318.477 368.67 321.255 371.449 325.884 372.376C330.513 372.376 333.29 369.597 333.29 364.039L336.993 323.281C336.993 320.502 334.216 318.649 334.216 318.649Z" fill="white"/>
<path fill-rule="evenodd" clip-rule="evenodd" d="M294 313.998C294 313.998 292.703 310.314 289 309.387C280.667 306.608 273.261 304.756 265.854 302.903C265.854 301.05 265.854 298.198 265.854 295.419L258.448 294.493C252.893 293.566 250.116 290.861 250.116 286.229C250.116 284.377 251.967 282.524 253.819 281.598C252.893 282.524 251.967 282.45 251.967 284.303C251.967 288.008 254.745 290.787 258.448 290.787L276.038 291.714C279.742 291.714 283.445 289.861 283.445 286.156C283.445 282.45 280.667 279.672 276.964 279.672L266.78 278.745V277.819C267.706 272.261 269.558 268.629 271.409 265.85C274.187 261.219 272.335 251.029 264.003 249.177C257.522 248.25 253.819 250.103 249.19 256.587C242.709 263.998 236.229 290.861 239.006 307.535C239.932 312.166 240.858 319.577 250.116 321.429H251.042C257.522 323.282 266.78 323.282 276.964 324.208H277.89L279.742 362.187C280.667 368.671 282.519 369.598 286.222 370.524C290.851 370.524 292.703 367.745 292.703 363.114L294 318.498C294.554 315.498 294 313.998 294 313.998Z" fill="white"/>
<path fill-rule="evenodd" clip-rule="evenodd" d="M265.855 241.768C271.409 246.399 279.742 246.399 284.371 240.841C289 235.283 289 226.947 283.445 222.315C277.89 217.683 269.558 217.683 264.929 223.241C259.374 227.873 260.3 236.21 265.855 241.768Z" fill="white"/>
<path d="M340.622 305.61C340.622 304.684 339.696 303.758 338.771 303.758C337.845 303.758 336.919 304.684 336.919 305.61V311.168C336.919 312.095 337.845 313.021 338.771 313.021C339.696 313.021 340.622 312.095 340.622 311.168V305.61Z" fill="white"/>
<path d="M348.955 302.829C348.955 301.903 348.029 300.977 347.103 300.977C346.177 300.977 345.251 301.903 345.251 302.829V308.387C345.251 309.313 346.177 310.24 347.103 310.24C348.029 310.24 348.955 309.313 348.955 308.387V302.829Z" fill="white"/>
<path d="M318.403 303.758C317.477 303.758 316.551 304.684 316.551 305.61V311.168V312.095C317.477 312.095 318.403 312.095 319.329 312.095L320.255 311.168V305.61C320.255 304.684 319.329 303.758 318.403 303.758Z" fill="white"/>
</g>
<defs>
<clipPath id="clip0_1247_2866">
<rect width="574" height="792" fill="white"/>
</clipPath>
</defs>
</svg>
