<svg xmlns="http://www.w3.org/2000/svg" width="41" height="21" viewBox="0 0 41 21" fill="none">
  <g clip-path="url(#clip0_367_7495)">
    <path d="M20.9586 3.19674H22.5913V6.09408H23.1775V2.67444H20.3735V6.09408H20.9598V3.19674H20.9586Z" fill="white"/>
    <path d="M28.1991 6.15108C29.1761 6.15108 29.8249 5.41694 29.8249 4.38578C29.8249 3.35462 29.1761 2.62048 28.1991 2.62048C27.222 2.62048 26.5732 3.35462 26.5732 4.38578C26.5732 5.41694 27.222 6.15108 28.1991 6.15108ZM28.1991 3.14839C28.8421 3.14839 29.2261 3.66397 29.2261 4.38578C29.2261 5.10759 28.8353 5.62317 28.1991 5.62317C27.5628 5.62317 27.1777 5.10759 27.1777 4.38578C27.1709 3.66509 27.556 3.14839 28.1991 3.14839Z" fill="white"/>
    <path d="M22.2048 15.0247L21.096 12.3762H20.3711V15.7959H20.9323V13.3211L21.9662 15.7835H22.4389L23.4659 13.3211V15.7959H24.0204V12.3762H23.308L22.2048 15.0247Z" fill="white"/>
    <path d="M33.6766 4.52156L35.0695 6.09408H35.8069L34.2628 4.30972L35.775 2.67444H35.0627L33.6766 4.15393V2.67444H33.0903V6.09408H33.6766V4.52156Z" fill="white"/>
    <path d="M32.5684 5.57177H30.8983V4.59553H32.4741V4.09228H30.8983V3.19674H32.5684V2.67444H30.312V6.09408H32.5684V5.57177Z" fill="white"/>
    <path d="M28.6159 9.76243H29.3032C30.0338 9.76243 30.4814 9.25918 30.4814 8.64385C30.4814 8.02852 30.0531 7.52527 29.2839 7.52527H28.0239V10.9449H28.6102V9.76356H28.617L28.6159 9.76243ZM28.6159 8.03412H29.2339C29.6622 8.03412 29.8952 8.28295 29.8952 8.64385C29.8952 9.00476 29.6554 9.25918 29.2339 9.25918H28.6159V8.03412Z" fill="white"/>
    <path d="M38.6391 2.67444H35.8726V3.19674H36.9633V6.09408H37.5495V3.19674H38.6402V2.67444H38.6391Z" fill="white"/>
    <path d="M36.5699 14.0071C36.7903 13.9141 37.0232 13.6709 37.0232 13.2674C37.0232 12.7697 36.6574 12.3785 35.9518 12.3785H34.6157V15.7982H35.9961C36.7085 15.7982 37.1561 15.3936 37.1561 14.8287C37.1561 14.3254 36.8221 14.0766 36.5699 14.0082V14.0071ZM35.202 12.8695H35.87C36.2234 12.8695 36.4313 13.0432 36.4313 13.3357C36.4313 13.5969 36.2609 13.802 35.8962 13.802H35.2031V12.8695H35.202ZM35.9325 15.2938H35.202V14.2739H35.9586C36.3302 14.2739 36.5642 14.4666 36.5642 14.7838C36.5574 15.1134 36.3063 15.2938 35.9336 15.2938H35.9325Z" fill="white"/>
    <path d="M34.2809 12.3762H33.5685L32.1756 13.8557V12.3762H31.5894V15.7959H32.1756V14.2233L33.5685 15.7959H34.3127L32.7619 14.0115L34.2809 12.3762Z" fill="white"/>
    <path d="M40.9993 12.3762H40.4131V15.7959H40.9993V12.3762Z" fill="white"/>
    <path d="M22.2048 10.1727L21.096 7.52417H20.3711V10.9438H20.9323V8.46903L21.9662 10.9315H22.4389L23.4659 8.46903V10.9438H24.0204V7.52417H23.308L22.2048 10.1727Z" fill="white"/>
    <path d="M32.9642 10.9438H33.5822L32.2904 7.52417H31.6792L30.3931 10.9438H31.0111L31.3008 10.1357H32.6688L32.9653 10.9438H32.9642ZM31.4769 9.63244L31.9814 8.2146L32.4858 9.63244H31.4781H31.4769Z" fill="white"/>
    <path d="M38.8686 13.5877H38.2005V12.375H37.6143V15.7946H38.8811C39.6059 15.7946 40.0592 15.3037 40.0592 14.6884C40.0592 14.073 39.6241 13.5877 38.8686 13.5877ZM38.8118 15.2847H38.2005V14.0977H38.8118C39.2276 14.0977 39.4673 14.3275 39.4673 14.6884C39.4673 15.0493 39.2219 15.2858 38.8118 15.2858V15.2847Z" fill="white"/>
    <path d="M26.2846 3.794C26.2846 3.17194 25.8563 2.67542 25.0871 2.67542H23.8271V6.09505H24.4134V4.9137H25.1008C25.8381 4.9137 26.2858 4.41045 26.2858 3.79512L26.2846 3.794ZM24.4134 4.40933V3.18427H25.0315C25.4598 3.18427 25.6927 3.43309 25.6927 3.794C25.6927 4.1549 25.453 4.40933 25.0315 4.40933H24.4134Z" fill="white"/>
    <path d="M29.6704 15.3217C29.0648 15.3217 28.6808 14.8061 28.6808 14.0843C28.6808 13.3625 29.0716 12.8469 29.6704 12.8469C30.1748 12.8469 30.4452 13.145 30.5395 13.4936H31.1258C31.0246 12.8536 30.5338 12.319 29.6704 12.319C28.7308 12.319 28.082 13.0464 28.082 14.0843C28.082 15.1222 28.7501 15.8496 29.6704 15.8496C30.5906 15.8496 31.0758 15.1972 31.1383 14.6682H30.5463C30.4963 14.9608 30.2123 15.3205 29.6704 15.3205V15.3217Z" fill="white"/>
    <path d="M25.9554 10.4764C25.4066 10.4764 25.1487 10.1223 25.0726 9.87343H24.4863C24.5624 10.352 24.9908 10.9987 25.9485 10.9987C26.8563 10.9987 27.5426 10.3397 27.5426 9.23344C27.5426 8.12718 26.8813 7.46814 25.9542 7.46814C25.1033 7.46814 24.6056 8.0095 24.4988 8.59345H25.0783C25.1794 8.28298 25.4498 7.99044 25.9542 7.99044C26.4587 7.99044 26.8495 8.3323 26.9313 8.95435H25.5577V9.452H26.9381C26.8813 10.092 26.503 10.4776 25.9554 10.4776V10.4764Z" fill="white"/>
    <path d="M26.1327 12.319C25.1556 12.319 24.5068 13.0531 24.5068 14.0843C24.5068 15.1154 25.1556 15.8496 26.1327 15.8496C27.1097 15.8496 27.7585 15.1154 27.7585 14.0843C27.7585 13.0531 27.1097 12.319 26.1327 12.319ZM26.1327 15.3217C25.4896 15.3217 25.1113 14.8061 25.1113 14.0843C25.1113 13.3625 25.4953 12.8469 26.1327 12.8469C26.77 12.8469 27.1597 13.3625 27.1597 14.0843C27.1597 14.8061 26.7757 15.3217 26.1327 15.3217Z" fill="white"/>
    <path d="M1.29167 13.701L1.7325 13.5575C1.64388 13.3031 1.76999 13.0845 1.94041 13.0105C2.0029 12.9792 2.07221 12.9545 2.14833 12.9298C2.54484 12.7864 3.0811 12.5936 3.34582 11.5748C3.48443 11.0278 3.70484 10.7723 3.93775 10.6613C3.80596 11.1399 3.86163 11.5938 3.91276 11.9794C3.94457 12.2338 3.97525 12.477 3.94457 12.6631C3.89458 12.9489 3.67985 13.1977 3.30151 13.4275L3.21971 13.4768L3.19471 13.5698C3.19471 13.5698 2.8232 14.8812 2.62778 15.5593L2.60846 15.6277L2.62778 15.696C2.64709 15.7767 2.67209 15.8518 2.69027 15.9258C2.79138 16.2867 2.87319 16.5725 2.87319 17.0634H3.37763C3.37763 16.5042 3.28333 16.1746 3.17654 15.7947C3.16404 15.7454 3.14472 15.6893 3.13223 15.6389C3.22085 15.3407 3.33332 14.9361 3.43444 14.5763C3.58555 14.5394 3.72416 14.5012 3.85027 14.471C4.51832 14.3096 4.85235 14.2222 5.51358 13.868C6.03621 13.5822 6.42704 13.0912 6.59065 12.8548C7.02579 12.8917 8.26078 12.9724 9.12425 12.811C9.93091 12.662 10.4104 12.4692 10.6365 12.3571L11.4806 13.4947L11.4181 13.5385L11.1216 13.7626L11.2852 13.9621C11.292 13.9689 11.676 14.4351 11.8714 14.6895C11.9089 14.7456 12.0987 15.0258 11.8271 15.3049C11.5817 15.5593 11.0705 15.6097 10.7807 15.4046C10.6671 15.3239 10.5978 15.2186 10.5785 15.0874C10.5592 14.963 10.591 14.8263 10.6603 14.7333C10.9182 14.397 10.975 14.0126 10.8182 13.6954C10.6864 13.4342 10.4274 13.2784 10.1184 13.2784C9.93545 13.2784 9.71504 13.2784 9.45714 13.2851C8.8084 13.2919 7.99492 13.3042 7.18258 13.2784L6.72926 13.2661L6.95648 13.6517C6.95648 13.6584 7.11441 13.9128 7.26552 14.2109C6.86219 14.1112 6.27594 14.0552 5.56357 14.23C4.7944 14.4228 3.99456 15.0504 3.92525 16.0144C3.89344 16.419 4.01387 16.7855 4.24678 17.0522C4.4547 17.2887 4.73873 17.4187 5.06594 17.4434H5.14206C5.5079 17.4434 5.84193 17.2876 6.04984 17.0141C6.25208 16.753 6.30775 16.4302 6.20777 16.1253C6.17027 16.02 6.12596 15.9325 6.06916 15.8518C6.40886 15.8025 6.61791 15.9325 6.68722 16.0637C6.84514 16.3562 6.54179 16.6543 6.52929 16.6667L6.38387 16.8034L7.03942 17.885H8.97996V17.3874H8.31872C8.26873 17.3381 8.19261 17.2574 8.1358 17.1385C8.09149 17.0511 7.96538 16.7597 8.1608 16.6162C8.29259 16.5165 8.4187 16.5165 8.70955 16.6286C8.89247 16.6969 9.0504 16.7776 9.21968 16.8651C9.64801 17.0825 10.0888 17.3123 10.9023 17.3313L11.1295 17.885H13.153V17.3874H12.302L12.2452 17.1699C12.6554 17.0265 13.0144 16.8034 13.2791 16.5109C13.7074 16.0379 13.9029 15.4046 13.8461 14.6828C13.9154 14.6077 14.0347 14.49 14.1358 14.3903L14.388 14.1482L13.7961 13.8556C13.2916 13.6136 13.0462 13.3894 12.8315 12.6552L12.6929 12.1397L12.2134 12.3078C11.9294 12.4075 11.734 12.6564 11.6908 12.9355L11.1364 12.189C11.5647 12.1823 11.9873 12.0209 12.1827 11.9088C13.0087 11.4302 13.437 11.1881 13.6506 11.0637C13.9847 11.4616 14.5584 12.2013 14.672 12.5432C14.722 12.699 14.7345 13.2773 14.722 13.6438L15.2265 13.6561C15.2333 13.4947 15.2458 12.6866 15.1503 12.3874C14.9618 11.8281 14.0097 10.7084 13.896 10.584L13.7824 10.4472L13.7699 10.4158C13.4109 10.5963 13.0258 10.6456 12.7429 10.6456C12.8883 10.4528 13.0076 10.204 13.0701 9.88681L14.2926 9.23449C14.5823 9.55728 15.0674 10.1356 15.181 10.4349C15.2435 10.603 15.2821 11.2183 15.2946 11.6039L15.7991 11.5916C15.7923 11.4235 15.7673 10.5716 15.6605 10.2679C15.4719 9.75791 14.6334 8.85677 14.5391 8.75141L14.4073 8.60795L13.103 9.30398C13.0144 8.66959 12.5861 8.14729 12.2589 7.74379C12.1827 7.65076 12.1134 7.56334 12.0566 7.48936C11.9498 7.34029 11.8237 7.12846 11.7101 6.93007C11.8612 6.94913 12.0316 6.9424 12.2271 6.89308C12.3532 6.91774 12.7122 7.04215 12.9962 7.15984L13.1473 7.22149L13.4121 6.97266C13.7393 6.66219 13.7461 6.13989 13.4314 5.81597L12.4611 4.83973V4.47322L12.3225 4.40485C12.26 4.37347 11.7237 4.11904 11.409 4.06861C10.9682 3.98118 10.2115 3.96885 9.60029 4.60324L8.97655 4.42951C9.01404 4.21207 9.03335 4.09999 9.04585 3.96997L9.05835 3.86462C9.16515 3.14953 8.73682 2.65188 8.41529 2.40978C8.50959 2.18002 8.54708 1.84377 8.27668 1.57701C8.04945 1.35285 7.77223 1.30353 7.36322 1.41561C7.1235 1.47726 6.91558 1.63978 6.69517 1.80118C6.60655 1.86955 6.51225 1.93792 6.41795 1.99956C5.91351 2.34141 5.492 2.01862 5.28408 1.80118L4.91824 2.14975C5.23296 2.486 5.60561 2.65973 5.97031 2.65973C6.22254 2.65973 6.46794 2.57903 6.70767 2.42323C6.81447 2.34814 6.91558 2.27417 7.0042 2.20579C7.1928 2.06233 7.35073 1.94464 7.49615 1.90766C7.79837 1.82696 7.87449 1.89533 7.92448 1.94464C8.06309 2.08138 7.92448 2.29882 7.90516 2.31788C7.63476 2.42323 6.9349 2.71577 6.8406 3.53621C6.8156 3.72227 6.80311 3.94083 6.79061 4.10223C6.46908 4.09551 5.91464 4.14594 5.41019 4.47547L3.52306 1.93231L3.11291 2.22485L4.00138 3.42525C3.90708 3.55527 3.63554 3.98454 3.80028 4.3264C3.90708 4.55056 4.23542 5.22193 4.37971 5.52007C4.09 5.86865 3.28901 6.89421 2.86751 8.06883L2.73571 8.43534L3.12655 8.39835C3.7128 8.34231 3.9832 8.47345 4.27291 8.61019C4.39221 8.66623 4.51264 8.72227 4.65693 8.76598C5.18637 8.93411 5.56471 8.87134 5.89192 8.8153C5.93623 8.896 5.98622 8.9767 6.03734 9.05179C5.93055 9.05179 5.81693 9.06412 5.70332 9.08878L5.66583 9.09551C5.4136 9.14482 5.1682 9.20086 4.91597 9.34433C4.72737 9.15155 4.36721 8.89712 3.80028 8.89712C2.9175 8.89712 2.28126 9.44408 2.04153 10.408C1.8268 11.2789 1.6132 11.5266 1.4371 11.7261C1.3553 11.8191 1.26668 11.9189 1.20419 12.0623C0.939471 12.6283 1.00878 13.0823 1.236 13.7099L1.29281 13.7032L1.29167 13.701ZM11.7715 17.375H11.4624L11.4374 17.3123C11.5442 17.3055 11.6453 17.2932 11.7465 17.2753L11.7715 17.375ZM12.0487 13.6886L12.0737 13.6203C12.0862 13.5889 12.1998 13.2975 12.1805 13.0543C12.1737 12.9422 12.2373 12.8301 12.3384 12.7808C12.6031 13.664 12.9496 13.9812 13.5291 14.267C13.4666 14.3354 13.4098 14.397 13.378 14.4351L13.3212 14.5158L13.3337 14.6088C13.403 15.2365 13.2519 15.7711 12.8985 16.1567C12.6906 16.3809 12.4191 16.5613 12.0987 16.6723L11.651 16.7844C11.5192 16.8034 11.3806 16.8157 11.2409 16.8214V16.8146H11.0012C10.2445 16.8146 9.86047 16.6162 9.45146 16.4044C9.28103 16.317 9.09811 16.224 8.89702 16.1433C8.67661 16.0558 8.26646 15.9012 7.86994 16.1926C7.5291 16.4347 7.4598 16.883 7.69384 17.3369C7.70066 17.3437 7.70066 17.356 7.70634 17.3616H7.33482L7.02579 16.846C7.21439 16.5972 7.36663 16.1993 7.14508 15.8014C6.94967 15.4472 6.50203 15.26 6.01121 15.3351C5.38747 15.4282 5.14774 15.7521 5.05913 16.0379C5.04663 16.0626 5.03981 16.0939 5.03413 16.1253V16.1623C5.03413 16.3237 5.16592 16.4604 5.33634 16.4604C5.50677 16.4604 5.63856 16.3304 5.63856 16.1623C5.63856 16.1309 5.63174 16.1007 5.62606 16.0693C5.67037 16.0939 5.72036 16.15 5.75785 16.2553C5.80784 16.3988 5.77717 16.5535 5.67605 16.6846C5.54994 16.846 5.34203 16.9334 5.12161 16.9144C4.93301 16.902 4.76827 16.827 4.64898 16.6902C4.50355 16.5288 4.43425 16.2856 4.45356 16.0121C4.51037 15.1917 5.27272 14.7814 5.70786 14.675C6.86787 14.3892 7.60522 14.8117 7.6359 14.824L8.24714 15.1906L8.00174 14.5259C7.91312 14.2838 7.75633 13.9845 7.63022 13.7424C8.31077 13.7548 8.972 13.7424 9.48327 13.7357C9.74117 13.729 9.96272 13.729 10.1388 13.729C10.2524 13.729 10.3399 13.7783 10.3842 13.8725C10.441 13.9845 10.441 14.1773 10.2774 14.388C10.1263 14.5875 10.0627 14.861 10.1013 15.1155C10.1388 15.3766 10.2842 15.6008 10.5047 15.7554C11.0023 16.1096 11.784 16.0357 12.2066 15.594C12.6031 15.1771 12.5338 14.6682 12.2884 14.3387C12.1691 14.1829 11.9862 13.9599 11.8533 13.7974L12.0487 13.6853V13.6886ZM6.98262 4.61108L7.26665 4.6604L7.27915 4.37459C7.27915 4.36787 7.29846 3.92738 7.34164 3.59113C7.40413 3.06883 7.83927 2.87605 8.07218 2.78302C8.24828 2.91304 8.63911 3.25601 8.56413 3.79625L8.55163 3.9016C8.52663 4.063 8.50732 4.19974 8.44483 4.56065L8.40052 4.78481L9.28331 5.03364C8.84816 5.79243 8.85498 6.73729 8.89929 7.40194C8.9436 8.05426 9.1447 8.65166 9.15719 8.67632L9.63665 8.52052C9.63665 8.5138 9.44805 7.9545 9.40374 7.37056C9.35943 6.72384 9.35375 5.78571 9.81388 5.13227C10.2615 4.51021 10.8728 4.46762 11.3011 4.54159C11.459 4.56625 11.7487 4.68506 11.9373 4.77136V5.02579L13.0462 6.1511C13.103 6.21274 13.1405 6.29456 13.1348 6.37526C13.1348 6.46269 13.0973 6.54339 13.0405 6.59943L13.0155 6.62409C12.7576 6.52433 12.3725 6.38199 12.1964 6.37526H12.1589L12.1214 6.38759C11.6363 6.51761 11.3784 6.28223 11.3715 6.26991L11.1261 6.01548L10.9682 6.33267C10.9114 6.44475 10.9057 6.5008 11.1829 7.0287C11.2591 7.17217 11.4533 7.53195 11.6306 7.77517C11.6931 7.8626 11.7692 7.95563 11.851 8.04865C12.2293 8.50819 12.6951 9.08093 12.5815 9.73325C12.5122 10.1435 12.3236 10.3856 12.0714 10.6221L11.7942 10.8765L12.1407 11.0323C12.2225 11.0693 12.3611 11.1007 12.5315 11.1197C12.3611 11.2195 12.16 11.3316 11.9271 11.4683C11.7567 11.5613 11.0068 11.8662 10.6478 11.5243L5.71014 4.87224C6.28957 4.50573 6.97693 4.61108 6.98262 4.61108ZM5.78512 9.59091L5.82261 9.58418C6.23844 9.49676 6.64859 9.64583 6.64859 9.64583C6.8565 9.7893 7.09623 9.90026 7.34164 9.96302L7.47343 9.48443C6.93831 9.34097 6.48385 8.94307 6.28843 8.45215L6.21231 8.2717L6.01689 8.30308C5.96009 8.30981 5.8976 8.32214 5.84079 8.33447C5.53176 8.38378 5.24204 8.43422 4.8194 8.30308C4.70578 8.26609 4.60467 8.22238 4.49787 8.17307C4.23997 8.05538 3.95593 7.91864 3.48329 7.90631C4.00024 6.72496 4.86371 5.74872 4.86939 5.73639L4.97619 5.61198L4.90688 5.46291C4.90688 5.46291 4.40243 4.4127 4.25814 4.12016C4.23883 4.08878 4.27064 3.98342 4.32745 3.86574L10.3206 11.9357C10.1059 12.0287 9.69005 12.1845 9.02199 12.3089C8.06422 12.4894 6.49521 12.3336 6.48271 12.3336L6.32479 12.3145L6.24299 12.4513C6.23617 12.458 5.83966 13.1103 5.2659 13.4152C4.66148 13.738 4.37062 13.8131 3.72188 13.9745C3.67758 13.9868 3.63327 13.9991 3.58328 14.0058C3.60827 13.9184 3.62759 13.8444 3.64576 13.7884C4.0934 13.4903 4.35813 13.1417 4.43311 12.7438C4.4831 12.4826 4.44561 12.2024 4.40812 11.911C4.33881 11.3573 4.26269 10.7857 4.71715 10.2018C5.08867 9.7355 5.36588 9.67945 5.78171 9.59203L5.78512 9.59091ZM1.83362 12.059C2.02903 11.8348 2.29943 11.5243 2.53916 10.5358C2.66527 10.0202 2.99248 9.40485 3.80596 9.40485C4.1718 9.40485 4.39789 9.54832 4.524 9.666C4.4547 9.73438 4.38539 9.81507 4.31609 9.9025C4.2661 9.96414 4.22179 10.0269 4.1843 10.0886C3.66735 10.1323 3.10723 10.4304 2.84819 11.4504C2.65277 12.2215 2.31875 12.3392 1.96541 12.4636C1.88361 12.495 1.79499 12.5252 1.71318 12.5633C1.65638 12.588 1.59957 12.625 1.54958 12.6631C1.56889 12.5387 1.59957 12.421 1.66319 12.2843C1.71318 12.1968 1.76431 12.1408 1.83362 12.0601V12.059Z" fill="white"/>
    <path d="M-0.000488281 15.9113C-0.000488281 17.9131 1.2095 19.1068 3.23866 19.1068H5.62115C6.64254 19.1068 7.61849 19.5361 8.29904 20.2938L8.48764 20.4989L8.67624 20.2938C9.35679 19.5417 10.3339 19.1068 11.3541 19.1068H13.7366C15.8226 19.1068 16.9758 17.9692 16.9758 15.9113V0.5H-0.000488281V15.9113ZM0.503959 0.997646H16.4725V15.9113C16.4725 17.6766 15.5272 18.6092 13.7378 18.6092H11.3553C10.2839 18.6092 9.24999 19.0261 8.48764 19.7659C7.72529 19.0261 6.6914 18.6092 5.62001 18.6092H3.23866C1.49922 18.6092 0.503959 17.6273 0.503959 15.9113V0.997646Z" fill="white"/>
  </g>
  <defs>
    <clipPath id="clip0_367_7495">
      <rect width="41" height="20" fill="white" transform="translate(0 0.5)"/>
    </clipPath>
  </defs>
</svg>